<svg width="60" height="60" viewBox="0 0 60 60" fill="none" xmlns="http://www.w3.org/2000/svg">
<g clip-path="url(#clip0_88_15258)">
<path d="M60 59.9978C60 59.9989 59.9989 60 59.9978 60H0.00222222C0.00111111 60 0 59.9989 0 59.9978V0.00222222C0 0.00111111 0.00111111 0 0.00222222 0H59.9983C59.9994 0 60.0006 0.00111111 60.0006 0.00222222V59.9978H60Z" fill="white"/>
<path d="M59 58.9978C59 58.9989 58.9989 59 58.9978 59H1.00222C1.00111 59 1 58.9989 1 58.9978V1.00222C1 1.00111 1.00111 1 1.00222 1H58.9983C58.9994 1 59.0006 1.00111 59.0006 1.00222V58.9978H59Z" fill="#D00000"/>
<path d="M16.8333 45.7594C16.8333 45.8033 16.8589 45.8644 16.8894 45.895L17.8822 46.8878C17.9133 46.9189 17.9744 46.9439 18.0178 46.9439H21.415C21.4589 46.9439 21.52 46.9183 21.5505 46.8878L22.5433 45.895C22.5744 45.8639 22.5994 45.8028 22.5994 45.7594V34.98C22.5994 34.9361 22.6255 34.8755 22.6572 34.8455L26.9733 30.7233C27.005 30.6933 27.0511 30.6978 27.0755 30.7344L37.9805 46.8789C38.005 46.915 38.0611 46.945 38.1044 46.945H42.9172C42.9611 46.945 43.0133 46.9133 43.0333 46.8744L43.9067 45.1822C43.9267 45.1433 43.9228 45.0822 43.8978 45.0461L31.1422 26.5572C31.1172 26.5211 31.1222 26.4667 31.1533 26.4355L42.8855 14.7583C42.9167 14.7272 42.9417 14.6667 42.9417 14.6228V14.4072C42.9417 14.3633 42.9272 14.295 42.91 14.2544L42.2333 12.6983C42.2161 12.6583 42.1655 12.6255 42.1222 12.6255H37.365C37.3211 12.6255 37.26 12.6511 37.2294 12.6817L22.6567 27.3094C22.6255 27.3405 22.6005 27.33 22.6005 27.2861V13.8667C22.6005 13.8228 22.5761 13.7611 22.5461 13.7289L21.5722 12.6844C21.5422 12.6522 21.4822 12.6261 21.4383 12.6261H18.0178C17.9739 12.6261 17.9139 12.6522 17.8839 12.6844L16.8867 13.7611C16.8567 13.7933 16.8328 13.855 16.8328 13.8989V45.7594H16.8333Z" fill="white"/>
</g>
<defs>
<clipPath id="clip0_88_15258">
<rect width="60" height="60" fill="white"/>
</clipPath>
</defs>
</svg>
