<svg width="60" height="60" viewBox="0 0 60 60" fill="none" xmlns="http://www.w3.org/2000/svg">
<g clip-path="url(#clip0_88_15274)">
<path d="M29.5313 0.46875C21.7407 0.592426 14.3146 3.78994 8.87114 9.36461C3.42764 14.9393 0.407842 22.4393 0.469681 30.2307C0.531521 38.022 3.66999 45.4732 9.20129 50.9607C14.7326 56.4483 22.2084 59.5275 30 59.5275C37.7916 59.5275 45.2674 56.4483 50.7987 50.9607C56.33 45.4732 59.4685 38.022 59.5303 30.2307C59.5922 22.4393 56.5724 14.9393 51.1289 9.36461C45.6854 3.78994 38.2593 0.592426 30.4688 0.46875H29.5313ZM29.5313 7.03125C23.4814 7.15474 17.7247 9.6606 13.5119 14.0044C9.29917 18.3481 6.9707 24.1788 7.03245 30.2296C7.0942 36.2804 9.54118 42.0624 13.8417 46.3192C18.1423 50.5761 23.9489 52.964 30 52.964C36.0511 52.964 41.8577 50.5761 46.1583 46.3192C50.4588 42.0624 52.9058 36.2804 52.9676 30.2296C53.0293 24.1788 50.7008 18.3481 46.4881 14.0044C42.2753 9.6606 36.5186 7.15474 30.4688 7.03125H29.5313ZM29.5313 13.5938C25.2224 13.7169 21.1351 15.5309 18.1531 18.6436C15.171 21.7563 13.5338 25.9175 13.5954 30.2277C13.657 34.5379 15.4124 38.6506 18.4822 41.6768C21.552 44.7031 25.6894 46.3996 30 46.3996C34.3106 46.3996 38.448 44.7031 41.5178 41.6768C44.5876 38.6506 46.343 34.5379 46.4046 30.2277C46.4662 25.9175 44.829 21.7563 41.8469 18.6436C38.8649 15.5309 34.7776 13.7169 30.4688 13.5938H29.5313ZM29.5313 20.1562C26.964 20.2786 24.5465 21.4002 22.7952 23.2813C21.044 25.1624 20.0978 27.6539 20.159 30.2233C20.2203 32.7927 21.2839 35.2362 23.1228 37.0318C24.9617 38.8274 27.4299 39.8326 30 39.8326C32.5701 39.8326 35.0383 38.8274 36.8772 37.0318C38.7161 35.2362 39.7797 32.7927 39.841 30.2233C39.9022 27.6539 38.9561 25.1624 37.2048 23.2813C35.4535 21.4002 33.036 20.2786 30.4688 20.1562H29.5313ZM29.5313 26.7188C28.7102 26.8373 27.9645 27.2624 27.4442 27.9085C26.924 28.5547 26.6678 29.3739 26.7272 30.2013C26.7866 31.0288 27.1572 31.803 27.7644 32.3682C28.3717 32.9334 29.1704 33.2476 30 33.2476C30.8296 33.2476 31.6283 32.9334 32.2356 32.3682C32.8428 31.803 33.2134 31.0288 33.2728 30.2013C33.3322 29.3739 33.076 28.5547 32.5558 27.9085C32.0355 27.2624 31.2898 26.8373 30.4688 26.7188H29.5313ZM59.5312 30H0.468751H59.5312ZM51.0938 8.90625L8.90625 51.0938L51.0938 8.90625ZM51.0938 51.0938L8.90625 8.90625L51.0938 51.0938ZM30 0.46875V59.5312V0.46875Z" fill="white" fill-opacity="0.8"/>
<path d="M59.5312 30H0.468751M51.0938 8.90625L8.90625 51.0938M51.0938 51.0938L8.90625 8.90625M30 0.46875V59.5312M29.5313 0.46875C21.7407 0.592426 14.3146 3.78994 8.87114 9.36461C3.42764 14.9393 0.407842 22.4393 0.469681 30.2307C0.531521 38.022 3.66999 45.4732 9.20129 50.9607C14.7326 56.4483 22.2084 59.5275 30 59.5275C37.7916 59.5275 45.2674 56.4483 50.7987 50.9607C56.33 45.4732 59.4685 38.022 59.5303 30.2307C59.5922 22.4393 56.5724 14.9393 51.1289 9.36461C45.6854 3.78994 38.2593 0.592426 30.4688 0.46875H29.5313ZM29.5313 7.03125C23.4814 7.15474 17.7247 9.6606 13.5119 14.0044C9.29917 18.3481 6.9707 24.1788 7.03245 30.2296C7.0942 36.2804 9.54118 42.0624 13.8417 46.3192C18.1423 50.5761 23.9489 52.964 30 52.964C36.0511 52.964 41.8577 50.5761 46.1583 46.3192C50.4588 42.0624 52.9058 36.2804 52.9676 30.2296C53.0293 24.1788 50.7008 18.3481 46.4881 14.0044C42.2753 9.6606 36.5186 7.15474 30.4688 7.03125H29.5313ZM29.5313 13.5938C25.2224 13.7169 21.1351 15.5309 18.1531 18.6436C15.171 21.7563 13.5338 25.9175 13.5954 30.2277C13.657 34.5379 15.4124 38.6506 18.4822 41.6769C21.552 44.7031 25.6894 46.3996 30 46.3996C34.3106 46.3996 38.448 44.7031 41.5178 41.6769C44.5876 38.6506 46.343 34.5379 46.4046 30.2277C46.4662 25.9175 44.829 21.7563 41.8469 18.6436C38.8649 15.5309 34.7776 13.7169 30.4688 13.5938H29.5313ZM29.5313 20.1562C26.964 20.2786 24.5465 21.4002 22.7952 23.2813C21.044 25.1624 20.0978 27.6539 20.159 30.2233C20.2203 32.7927 21.2839 35.2362 23.1228 37.0318C24.9617 38.8274 27.4299 39.8326 30 39.8326C32.5701 39.8326 35.0383 38.8274 36.8772 37.0318C38.7161 35.2362 39.7797 32.7927 39.841 30.2233C39.9022 27.6539 38.9561 25.1624 37.2048 23.2813C35.4535 21.4002 33.036 20.2786 30.4688 20.1562H29.5313ZM29.5313 26.7188C28.7102 26.8373 27.9645 27.2624 27.4442 27.9085C26.924 28.5547 26.6678 29.3739 26.7272 30.2013C26.7866 31.0288 27.1572 31.803 27.7644 32.3682C28.3717 32.9334 29.1704 33.2476 30 33.2476C30.8296 33.2476 31.6283 32.9334 32.2356 32.3682C32.8428 31.803 33.2134 31.0288 33.2728 30.2013C33.3322 29.3739 33.076 28.5547 32.5558 27.9085C32.0355 27.2624 31.2898 26.8373 30.4688 26.7188H29.5313Z" stroke="#777777"/>
<path d="M23.4375 3.75L14.0625 8.4375L45.9375 51.5625L50.625 46.875L30 30L23.4375 3.75Z" fill="#FF6600" fill-opacity="0.8" stroke="#777777"/>
<path d="M7.96875 23.4375V36.5625L30 30L7.96875 23.4375Z" fill="#FFCC00" fill-opacity="0.8" stroke="#777777"/>
<path d="M30 30L32.8125 46.4062H27.1875L30 30Z" fill="#77FF77" fill-opacity="0.8" stroke="#777777"/>
<path d="M30 30L36.0938 11.25L40.3125 13.5938L30 30Z" fill="#CCFF33" fill-opacity="0.8" stroke="#777777"/>
<path d="M30 30L36.5625 27.1875L37.0312 29.0625L30 30ZM30 30L17.8125 36.0938L19.2188 37.9688L30 30Z" fill="#0044FF" fill-opacity="0.8"/>
<path d="M30 30L36.5625 27.1875L37.0312 29.0625L30 30ZM30 30L17.8125 36.0938L19.2188 37.9688L30 30Z" stroke="#777777"/>
</g>
<defs>
<clipPath id="clip0_88_15274">
<rect width="60" height="60" fill="white"/>
</clipPath>
</defs>
</svg>
