<svg width="57" height="60" viewBox="0 0 57 60" fill="none" xmlns="http://www.w3.org/2000/svg">
<g clip-path="url(#clip0_88_15271)">
<path d="M41.949 40.8374L41.9622 54.0913L30.2008 59.9605V46.7123L41.949 40.8374ZM56.064 33.7538V47.0539L46.0327 52.0602L46.0255 38.8208L56.064 33.7538ZM41.9313 23.0973L41.9444 36.2121L30.2005 42.0478V28.9286L41.9313 23.0973ZM56.064 16.0713V29.1038L46.0226 34.2085L46.0139 21.0674L56.064 16.0713ZM28.4126 14.5296L38.91 19.8283L28.0189 25.2978L17.7197 20.125L28.4126 14.5296ZM13.8112 7.15934L23.8235 12.2132L13.1061 17.8071L2.82314 12.6431L13.8112 7.15934ZM42.4324 7.23599L53.2166 12.6431L43.5718 17.4874L33.0528 12.1814L42.4324 7.23599ZM28.083 0.0394287L37.7913 4.9067L28.4825 9.87669L18.4786 4.83115L28.083 0.0394287Z" fill="#4DABCF"/>
<path d="M26.0487 28.9286L18.1266 24.9459V42.1606C18.1266 42.1606 8.43873 21.5468 7.54105 19.6951C7.42541 19.4562 6.94909 19.194 6.82732 19.1305C5.09022 18.2184 0 15.6399 0 15.6399V46.0535L7.04173 49.8177V33.9205C7.04173 33.9205 16.6269 52.3395 16.7239 52.5407C16.821 52.7422 17.7839 54.6834 18.8117 55.3652C20.1811 56.2716 26.0503 59.801 26.0503 59.801L26.0487 28.9286Z" fill="#4D77CF"/>
</g>
<defs>
<clipPath id="clip0_88_15271">
<rect width="56.064" height="60" fill="white"/>
</clipPath>
</defs>
</svg>
