<svg width="60" height="60" viewBox="0 0 60 60" fill="none" xmlns="http://www.w3.org/2000/svg">
<g clip-path="url(#clip0_88_15283)">
<path d="M22.8082 28.2954C20.1239 26.7457 18.026 24.3535 16.8399 21.4899C15.6537 18.6263 15.4456 15.4513 16.2478 12.4574C17.0501 9.46352 18.8178 6.81797 21.2768 4.9311C23.7358 3.04423 26.7487 2.02148 29.8482 2.02148C32.9478 2.02148 35.9607 3.04423 38.4197 4.9311C40.8787 6.81797 42.6464 9.46352 43.4486 12.4574C44.2508 15.4513 44.0427 18.6263 42.8566 21.4899C41.6705 24.3535 39.5726 26.7457 36.8883 28.2954L32.649 20.9527C33.7169 20.3361 34.5515 19.3844 35.0234 18.2452C35.4953 17.106 35.5781 15.8429 35.2589 14.6519C34.9398 13.4608 34.2365 12.4083 33.2583 11.6577C32.28 10.907 31.0814 10.5001 29.8483 10.5001C28.6152 10.5001 27.4166 10.907 26.4383 11.6577C25.46 12.4083 24.7568 13.4608 24.4377 14.6519C24.1185 15.8429 24.2013 17.106 24.6732 18.2452C25.1451 19.3844 25.9797 20.3361 27.0475 20.9527L22.8082 28.2954Z" fill="#FF0101"/>
<path d="M52.9601 31.7047C55.6444 33.2545 57.7423 35.6466 58.9284 38.5102C60.1145 41.3738 60.3226 44.5488 59.5204 47.5427C58.7182 50.5366 56.9505 53.1821 54.4915 55.069C52.0325 56.9559 49.0195 57.9786 45.92 57.9786C42.8205 57.9786 39.8076 56.9559 37.3486 55.069C34.8895 53.1821 33.1218 50.5366 32.3196 47.5427C31.5174 44.5488 31.7255 41.3738 32.9116 38.5102C34.0978 35.6466 36.1957 33.2545 38.8799 31.7047L43.1192 39.0475C42.0513 39.664 41.2167 40.6157 40.7449 41.7549C40.273 42.8941 40.1902 44.1572 40.5093 45.3483C40.8285 46.5393 41.5317 47.5918 42.51 48.3425C43.4883 49.0931 44.6869 49.5 45.92 49.5C47.153 49.5 48.3517 49.0931 49.3299 48.3425C50.3082 47.5918 51.0115 46.5393 51.3306 45.3483C51.6497 44.1572 51.567 42.8941 51.0951 41.7549C50.6232 40.6157 49.7886 39.664 48.7207 39.0475L52.9601 31.7047Z" fill="#0101FF"/>
<path d="M28.1606 43.8978C28.1607 46.9974 27.1379 50.0103 25.251 52.4694C23.3641 54.9284 20.7185 56.6962 17.7246 57.4984C14.7306 58.3006 11.5556 58.0925 8.69201 56.9064C5.82838 55.7202 3.43617 53.6223 1.88638 50.938C0.336593 48.2537 -0.284152 45.1331 0.120417 42.06C0.524987 38.987 1.93226 36.1333 4.12398 33.9415C6.3157 31.7498 9.16938 30.3425 12.2424 29.938C15.3155 29.5334 18.4362 30.1541 21.1205 31.7039L16.881 39.0467C15.8131 38.4302 14.5716 38.1832 13.3491 38.3442C12.1266 38.5051 10.9913 39.065 10.1193 39.9369C9.24742 40.8088 8.68756 41.9441 8.52661 43.1667C8.36566 44.3892 8.61261 45.6307 9.22916 46.6986C9.84571 47.7665 10.7974 48.6011 11.9366 49.073C13.0759 49.5449 14.339 49.6277 15.5301 49.3085C16.7211 48.9894 17.7736 48.2861 18.5243 47.3078C19.275 46.3295 19.6818 45.1309 19.6818 43.8978L28.1606 43.8978Z" fill="#01FF01"/>
</g>
<defs>
<clipPath id="clip0_88_15283">
<rect width="60" height="60" fill="white"/>
</clipPath>
</defs>
</svg>
