<svg width="60" height="60" viewBox="0 0 60 60" fill="none" xmlns="http://www.w3.org/2000/svg">
<g clip-path="url(#clip0_88_15228)">
<path d="M29.7404 0.0166016C14.5468 0.0166016 15.4955 6.60543 15.4955 6.60543L15.5124 13.4317H30.0113V15.4811H9.75362C9.75362 15.4811 0.03125 14.3785 0.03125 29.7087C0.03125 45.0393 8.51717 44.4956 8.51717 44.4956H13.5815V37.3816C13.5815 37.3816 13.3085 28.8957 21.932 28.8957H36.3124C36.3124 28.8957 44.3917 29.0262 44.3917 21.0873V7.9607C44.3917 7.9607 45.6188 0.0166016 29.7404 0.0166016ZM21.7457 4.60711C22.0883 4.6068 22.4276 4.67406 22.7442 4.80503C23.0608 4.936 23.3485 5.12812 23.5908 5.37039C23.833 5.61266 24.0251 5.90032 24.1561 6.21692C24.2871 6.53352 24.3543 6.87284 24.354 7.21546C24.3543 7.55808 24.2871 7.89739 24.1561 8.21399C24.0251 8.53059 23.833 8.81826 23.5908 9.06052C23.3485 9.30279 23.0608 9.49491 22.7442 9.62588C22.4276 9.75686 22.0883 9.82411 21.7457 9.8238C21.4031 9.82411 21.0638 9.75686 20.7472 9.62588C20.4306 9.49491 20.1429 9.30279 19.9006 9.06052C19.6584 8.81826 19.4662 8.53059 19.3353 8.21399C19.2043 7.89739 19.137 7.55808 19.1373 7.21546C19.137 6.87284 19.2043 6.53352 19.3353 6.21692C19.4662 5.90032 19.6584 5.61266 19.9006 5.37039C20.1429 5.12812 20.4306 4.936 20.7472 4.80503C21.0638 4.67406 21.4031 4.6068 21.7457 4.60711Z" fill="url(#paint0_linear_88_15228)"/>
<path d="M30.1735 59.5556C45.3671 59.5556 44.4184 52.9668 44.4184 52.9668L44.4015 46.1408H29.9023V44.0914H50.16C50.16 44.0914 59.8824 45.194 59.8824 29.8633C59.8824 14.5329 51.3965 15.0766 51.3965 15.0766H46.3321V22.1904C46.3321 22.1904 46.6051 30.6763 37.9817 30.6763H23.6013C23.6013 30.6763 15.522 30.5458 15.522 38.4849V51.6118C15.522 51.6118 14.2951 59.5556 30.1733 59.5556H30.1735ZM38.1682 54.9656C37.8256 54.9659 37.4863 54.8986 37.1697 54.7677C36.8531 54.6367 36.5654 54.4446 36.3231 54.2023C36.0809 53.96 35.8888 53.6724 35.7578 53.3558C35.6268 53.0392 35.5596 52.6999 35.5599 52.3572C35.5595 52.0146 35.6268 51.6753 35.7577 51.3586C35.8887 51.042 36.0808 50.7543 36.3231 50.512C36.5653 50.2697 36.853 50.0776 37.1696 49.9466C37.4862 49.8156 37.8256 49.7483 38.1682 49.7487C38.5108 49.7483 38.8501 49.8156 39.1667 49.9466C39.4833 50.0775 39.771 50.2697 40.0133 50.5119C40.2555 50.7542 40.4477 51.0419 40.5786 51.3585C40.7096 51.6751 40.7769 52.0144 40.7766 52.357C40.7769 52.6996 40.7096 53.0389 40.5786 53.3555C40.4477 53.6721 40.2555 53.9598 40.0133 54.2021C39.771 54.4443 39.4833 54.6365 39.1667 54.7674C38.8501 54.8984 38.5108 54.9657 38.1682 54.9653V54.9656Z" fill="url(#paint1_linear_88_15228)"/>
</g>
<defs>
<linearGradient id="paint0_linear_88_15228" x1="5.78277" y1="5.37172" x2="35.4424" y2="34.7354" gradientUnits="userSpaceOnUse">
<stop stop-color="#387EB8"/>
<stop offset="1" stop-color="#366994"/>
</linearGradient>
<linearGradient id="paint1_linear_88_15228" x1="23.9895" y1="24.228" x2="55.8405" y2="54.3378" gradientUnits="userSpaceOnUse">
<stop stop-color="#FFE052"/>
<stop offset="1" stop-color="#FFC331"/>
</linearGradient>
<clipPath id="clip0_88_15228">
<rect width="60" height="59.76" fill="white"/>
</clipPath>
</defs>
</svg>
