<svg width="50" height="60" viewBox="0 0 50 60" fill="none" xmlns="http://www.w3.org/2000/svg">
<g clip-path="url(#clip0_88_15246)">
<path d="M42.2479 17.44C51.9819 27.1739 51.9819 42.7887 42.2479 52.5902C32.7168 62.3242 17.0344 62.3242 7.30044 52.5902C-2.43348 42.8563 -2.43348 27.1739 7.30044 17.44L24.7404 0V8.71998L23.1181 10.3423L11.559 21.9013C4.25859 29.0666 4.25859 40.8284 11.559 48.1289C18.7243 55.4293 30.4861 55.4293 37.7866 48.1289C45.087 40.9636 45.087 29.2018 37.7866 21.9013L42.2479 17.44ZM33.528 16.3584C31.736 16.3584 30.2833 14.9057 30.2833 13.1138C30.2833 11.3218 31.736 9.86912 33.528 9.86912C35.3199 9.86912 36.7726 11.3218 36.7726 13.1138C36.7726 14.9057 35.3199 16.3584 33.528 16.3584Z" fill="#EE4C2C"/>
</g>
<defs>
<clipPath id="clip0_88_15246">
<rect width="49.5484" height="60" fill="white"/>
</clipPath>
</defs>
</svg>
