<svg width="112" height="60" viewBox="0 0 112 60" fill="none" xmlns="http://www.w3.org/2000/svg">
<path d="M85.3356 50.9851C98.9231 37.3983 101.181 17.6286 90.3792 6.82721C79.5786 -3.97296 59.8097 -1.71511 46.2229 11.8708C32.6362 25.4572 36.5665 51.4144 41.1801 56.0287C44.9082 59.7569 71.7496 64.5711 85.3356 50.9851Z" fill="#F89939"/>
<path d="M29.5836 31.3526C21.7012 23.4702 10.2298 22.1579 3.96141 28.4259C-2.30543 34.6932 -0.995173 46.1661 6.88882 54.0473C14.7728 61.9321 29.8343 59.6514 32.5094 56.9739C34.6741 54.8127 37.4684 39.2357 29.5836 31.3526Z" fill="#3499CD"/>
<path d="M56.7808 47.6549C55.3883 48.9367 54.1667 49.8826 53.1168 50.4904C52.0669 51.1002 51.0656 51.4047 50.1128 51.4047C49.0167 51.4047 48.1325 50.9799 47.4622 50.1298C46.7906 49.2789 46.456 48.1379 46.456 46.7025C46.456 44.5518 46.9222 41.9698 47.8545 38.9593C48.7853 35.9465 49.9186 33.1703 51.2497 30.6304L55.1528 29.1854C55.2751 29.1445 55.3682 29.1236 55.43 29.1236C55.7261 29.1236 55.9708 29.3418 56.1585 29.7763C56.3483 30.2128 56.4438 30.7993 56.4438 31.5367C56.4438 33.6264 55.9628 35.6496 54.9987 37.6061C54.0351 39.5635 52.5299 41.6524 50.4814 43.8754C50.3992 44.9409 50.3583 45.6727 50.3583 46.0726C50.3583 46.9645 50.522 47.6701 50.8497 48.1929C51.1779 48.7164 51.6128 48.9764 52.156 48.9764C52.71 48.9764 53.2985 48.7782 53.9236 48.3786C54.5474 47.9783 55.5002 47.1494 56.7804 45.8885V47.6549H56.7808ZM50.8963 41.648C52.1969 40.2018 53.2532 38.5798 54.062 36.7853C54.8707 34.9901 55.2747 33.4459 55.2747 32.1521C55.2747 31.775 55.219 31.4685 55.107 31.2382C54.9943 31.0075 54.8499 30.8916 54.6762 30.8916C54.2987 30.8916 53.747 31.8352 53.0245 33.7227C52.302 35.6099 51.5927 38.252 50.8963 41.648Z" fill="#010101"/>
<path d="M68.2754 47.6549C66.9748 48.9367 65.8073 49.8826 64.7723 50.4904C63.7372 51.1002 62.5963 51.4047 61.3458 51.4047C59.9525 51.4047 58.8284 50.959 57.9719 50.0688C57.117 49.1762 56.6901 48.0043 56.6901 46.5492C56.6901 44.3781 57.4423 42.4135 58.9499 40.6567C60.4544 38.8991 62.1249 38.021 63.9583 38.021C64.9111 38.021 65.6733 38.2677 66.2478 38.7591C66.8215 39.2514 67.1083 39.8961 67.1083 40.6952C67.1083 42.8163 64.8549 44.5361 60.3477 45.858C60.7569 47.8547 61.8272 48.8544 63.5587 48.8544C64.2351 48.8544 64.8798 48.6727 65.494 48.31C66.1098 47.9458 67.0361 47.1378 68.2758 45.8889L68.2754 47.6549ZM60.2237 44.8129C62.8454 44.0748 64.1573 42.7132 64.1573 40.7257C64.1573 39.7424 63.7982 39.251 63.0821 39.251C62.4057 39.251 61.761 39.7649 61.1468 40.7955C60.5306 41.8246 60.2237 43.1629 60.2237 44.8129Z" fill="#010101"/>
<path d="M84.686 47.6549C83.0468 49.2119 81.8738 50.2273 81.1677 50.6991C80.4608 51.17 79.7848 51.4051 79.1389 51.4051C77.5202 51.4051 76.7575 49.9765 76.8494 47.1181C75.8252 48.5824 74.8796 49.6632 74.0139 50.3613C73.1489 51.0577 72.2555 51.4051 71.3324 51.4051C70.4321 51.4051 69.6667 50.9835 69.0356 50.1382C68.4046 49.2929 68.0912 48.2563 68.0912 47.0259C68.0912 45.4901 68.5129 44.025 69.3574 42.6309C70.2034 41.2376 71.2866 40.1119 72.6077 39.2514C73.9288 38.3909 75.0978 37.96 76.1108 37.96C77.3918 37.96 78.2884 38.5493 78.8007 39.7268L81.9412 37.9913H82.8029L81.4465 42.4929C80.7501 44.7576 80.4006 46.3097 80.4006 47.1494C80.4006 48.03 80.7124 48.4705 81.3378 48.4705C81.7358 48.4705 82.1763 48.2583 82.6581 47.8326C83.1399 47.407 83.8147 46.7591 84.6852 45.8885V47.6549H84.686ZM73.4382 48.501C74.4624 48.501 75.4276 47.628 76.3359 45.8817C77.2425 44.1346 77.6955 42.5226 77.6955 41.0479C77.6955 40.475 77.5663 40.0261 77.3116 39.7039C77.0544 39.3802 76.7114 39.2197 76.2821 39.2197C75.2571 39.2197 74.2855 40.0902 73.3704 41.8322C72.4537 43.5741 71.9943 45.1772 71.9943 46.6407C71.9943 47.1948 72.1307 47.6429 72.4019 47.9863C72.6731 48.3297 73.0173 48.501 73.4382 48.501Z" fill="#010101"/>
<path d="M96.165 47.6549C93.5934 50.1747 91.6108 51.4356 90.2179 51.4356C89.5925 51.4356 89.0645 51.1716 88.6353 50.6457C88.206 50.1178 87.9898 49.4642 87.9898 48.6851C87.9898 47.2409 88.764 45.3056 90.3106 42.8772C89.552 43.2668 88.7231 43.5372 87.8213 43.6912C87.1553 44.9205 86.1098 46.2423 84.6864 47.6545H84.3338V46.2732C85.1322 45.4436 85.8547 44.5518 86.5002 43.599C85.618 43.2094 85.1783 42.6305 85.1783 41.8635C85.1783 41.0735 85.4463 40.2315 85.9855 39.334C86.523 38.4386 87.2628 37.9909 88.206 37.9909C89.0051 37.9909 89.4039 38.3993 89.4039 39.2193C89.4039 39.8648 89.1736 40.7863 88.7119 41.9854C90.4121 41.8005 91.8977 40.5007 93.1686 38.0823L94.5663 38.0206L93.1373 41.9541C92.5436 43.6138 92.1592 44.7443 91.9855 45.3429C91.8118 45.9415 91.7239 46.4726 91.7239 46.9328C91.7239 47.3636 91.8242 47.7079 92.0232 47.9622C92.223 48.2202 92.4926 48.3469 92.8304 48.3469C93.1987 48.3469 93.5529 48.221 93.8907 47.9714C94.2285 47.7183 94.9867 47.0251 96.1654 45.8881V47.6549H96.165Z" fill="#010101"/>
<path d="M111.255 47.6549C108.889 50.1559 106.859 51.4051 105.17 51.4051C104.483 51.4051 103.93 51.1644 103.51 50.6826C103.089 50.2016 102.88 49.5565 102.88 48.7473C102.88 47.6513 103.331 45.976 104.233 43.7233C104.714 42.5142 104.955 41.7447 104.955 41.4182C104.955 41.09 104.826 40.9259 104.571 40.9259C104.428 40.9259 104.238 40.9981 104.002 41.1405C103.786 41.2838 103.535 41.4851 103.249 41.7407C102.993 41.9758 102.705 42.2626 102.388 42.5996C102.111 42.8889 101.814 43.2162 101.498 43.5837L100.636 44.5835C100.258 45.044 100.022 45.5299 99.9301 46.0426C99.7756 46.9131 99.6737 47.7131 99.622 48.4412C99.5907 48.9828 99.5758 49.7146 99.5758 50.6385L96.1799 51.436C96.0679 50.0532 96.0105 49.0233 96.0105 48.3481C96.0105 46.6989 96.2027 45.1363 96.5874 43.6615C96.9714 42.1852 97.588 40.5267 98.4389 38.6821L102.188 37.9604C101.399 40.0814 100.882 41.7503 100.636 42.9687C102.316 41.0944 103.648 39.797 104.636 39.0737C105.621 38.3511 106.499 37.9917 107.266 37.9917C107.787 37.9917 108.223 38.1883 108.57 38.5818C108.919 38.9758 109.092 39.4704 109.092 40.0618C109.092 41.0443 108.651 42.663 107.772 44.9176C107.167 46.4638 106.864 47.4672 106.864 47.9305C106.864 48.5471 107.116 48.8552 107.619 48.8552C108.368 48.8552 109.581 47.8663 111.255 45.8893V47.6549Z" fill="#010101"/>
<path d="M62.5946 30.5218C62.6187 30.793 62.6865 31.001 62.798 31.1457C63.003 31.4079 63.3586 31.539 63.865 31.539C64.1664 31.539 64.4316 31.4742 64.6607 31.3446C64.8897 31.212 65.0043 31.0085 65.0043 30.7342C65.0043 30.5263 64.9123 30.368 64.7285 30.2595C64.6109 30.1932 64.3789 30.1164 64.0323 30.029L63.3857 29.8662C62.9728 29.7637 62.6684 29.6492 62.4725 29.5226C62.1229 29.3026 61.9481 28.9982 61.9481 28.6094C61.9481 28.1512 62.1123 27.7805 62.4409 27.4972C62.7724 27.2139 63.217 27.0722 63.7746 27.0722C64.5039 27.0722 65.0299 27.2862 65.3524 27.7142C65.5543 27.9855 65.6523 28.2778 65.6463 28.5913H64.8777C64.8626 28.4074 64.7978 28.2402 64.6833 28.0895C64.4964 27.8755 64.1724 27.7685 63.7113 27.7685C63.4038 27.7685 63.1702 27.8272 63.0105 27.9448C62.8538 28.0623 62.7754 28.2176 62.7754 28.4104C62.7754 28.6214 62.8794 28.7902 63.0874 28.9168C63.2079 28.9922 63.3858 29.0585 63.6208 29.1157L64.1588 29.2468C64.7436 29.3885 65.1354 29.5256 65.3343 29.6582C65.6508 29.8662 65.809 30.1932 65.809 30.6393C65.809 31.0703 65.6448 31.4425 65.3162 31.756C64.9907 32.0695 64.4934 32.2262 63.8243 32.2262C63.1039 32.2262 62.5931 32.0634 62.2917 31.7379C61.9933 31.4094 61.8335 31.004 61.8124 30.5218H62.5946Z" fill="white"/>
<path d="M68.6075 27.0587C69.1531 27.0587 69.5961 27.1913 69.9367 27.4565C70.2803 27.7217 70.4868 28.1784 70.5561 28.8264H69.7649C69.7167 28.528 69.6067 28.2808 69.4349 28.0849C69.2631 27.886 68.9873 27.7865 68.6075 27.7865C68.0891 27.7865 67.7184 28.0397 67.4954 28.5461C67.3507 28.8746 67.2783 29.28 67.2783 29.7622C67.2783 30.2475 67.3808 30.6559 67.5858 30.9874C67.7907 31.319 68.1132 31.4847 68.5533 31.4847C68.8908 31.4847 69.1576 31.3823 69.3535 31.1773C69.5524 30.9693 69.6896 30.686 69.7649 30.3274H70.5561C70.4657 30.9693 70.2396 31.4395 69.8779 31.7379C69.5162 32.0333 69.0536 32.181 68.49 32.181C67.857 32.181 67.3522 31.9504 66.9754 31.4893C66.5987 31.0251 66.4103 30.4464 66.4103 29.7532C66.4103 28.9032 66.6168 28.2417 67.0297 27.7685C67.4426 27.2953 67.9686 27.0587 68.6075 27.0587Z" fill="white"/>
<path d="M71.3699 27.2214H72.1972V32.0408H71.3699V27.2214ZM71.3699 25.3995H72.1972V26.3217H71.3699V25.3995Z" fill="white"/>
<path d="M73.4134 25.3995H74.1955V29.2559L76.2842 27.1988H77.324L75.4704 29.0117L77.428 32.0408H76.3882L74.8782 29.5995L74.1955 30.2234V32.0408H73.4134V25.3995Z" fill="white"/>
<path d="M78.061 27.2214H78.8883V32.0408H78.061V27.2214ZM78.061 25.3995H78.8883V26.3217H78.061V25.3995Z" fill="white"/>
<path d="M80.2853 25.847H81.1081V27.1988H81.8812V27.8634H81.1081V31.0236C81.1081 31.1924 81.1654 31.3054 81.2799 31.3627C81.3432 31.3958 81.4487 31.4124 81.5964 31.4124C81.6356 31.4124 81.6778 31.4124 81.723 31.4124C81.7682 31.4094 81.8209 31.4049 81.8812 31.3988V32.0408C81.7878 32.0679 81.6898 32.0875 81.5873 32.0996C81.4879 32.1116 81.3794 32.1177 81.2618 32.1177C80.8821 32.1177 80.6244 32.0212 80.4887 31.8283C80.3531 31.6324 80.2853 31.3792 80.2853 31.0688V27.8634H79.6297V27.1988H80.2853V25.847Z" fill="white"/>
</svg>
