<svg width="130" height="30" viewBox="0 0 130 30" fill="none" xmlns="http://www.w3.org/2000/svg">
<g clip-path="url(#clip0_88_15221)">
<path d="M8.81198 2.15494V7.96286H16.4384V10.5744H8.81198V21.6783C8.81198 23.1881 9.09805 24.2412 9.66943 24.8377C10.2412 25.4342 11.2388 25.7326 12.6618 25.7326H16.4384V28.4174H12.3333C9.81539 28.4174 8.03976 27.9121 7.00599 26.9014C5.97183 25.8908 5.45494 24.1496 5.45494 21.6783V10.5744H0V7.96286H5.45494V2.15494H8.81198ZM39.2627 15.7426V28.417H35.8874V15.7426C35.8874 13.9044 35.5651 12.5529 34.9202 11.6883C34.2756 10.8238 33.266 10.3917 31.8916 10.3917C30.3227 10.3917 29.1122 10.9516 28.261 12.0717C27.4218 13.1797 27.0022 14.7748 27.0022 16.8569V28.417H23.6452V0H27.0022V11.0306C27.5981 9.86182 28.4069 8.97935 29.4287 8.38286C30.4504 7.7739 31.6604 7.46961 33.0593 7.46961C35.1393 7.46961 36.69 8.15766 37.7117 9.53338C38.7454 10.897 39.2627 12.9666 39.2627 15.7426ZM77.8502 18.1352H76.7374C74.7792 18.1352 73.3013 18.4823 72.3037 19.1762C71.3186 19.8581 70.8259 20.8808 70.8259 22.2444C70.8259 23.474 71.1968 24.4297 71.939 25.1116C72.6809 25.7934 73.7088 26.1343 75.0225 26.1343C76.8713 26.1343 78.3246 25.4953 79.3829 24.2166C80.4408 22.9262 80.976 21.1484 80.9884 18.884V18.1352H77.8502ZM84.3638 16.747V28.4174H80.9884V25.3855C80.2707 26.603 79.3646 27.5042 78.2697 28.0886C77.1873 28.6609 75.8675 28.9469 74.3106 28.9469C72.231 28.9469 70.5705 28.3625 69.3301 27.1936C68.0892 26.0127 67.4688 24.436 67.4688 22.4634C67.4688 20.1869 68.229 18.4578 69.7497 17.2769C71.282 16.096 73.5263 15.5053 76.482 15.5053H80.9884V14.9758C80.976 13.3442 80.5626 12.1632 79.7476 11.4327C78.9326 10.6901 77.6314 10.3184 75.8433 10.3184C74.6998 10.3184 73.5446 10.4829 72.3769 10.8117C71.2093 11.1405 70.0719 11.6213 68.965 12.2544V8.89403C70.2058 8.41909 71.3914 8.0661 72.5229 7.83467C73.666 7.59117 74.773 7.46961 75.8433 7.46961C77.5341 7.46961 78.9754 7.71935 80.1672 8.21844C81.3714 8.71753 82.3445 9.46636 83.0863 10.4645C83.5487 11.0735 83.8772 11.8282 84.0719 12.7294C84.2665 13.6181 84.3638 14.9575 84.3638 16.747ZM106.695 15.7426V28.417H103.32V15.7426C103.32 13.9044 102.998 12.5529 102.353 11.6883C101.708 10.8238 100.699 10.3917 99.3243 10.3917C97.7553 10.3917 96.5448 10.9516 95.6936 12.0717C94.8545 13.1797 94.4349 14.7748 94.4349 16.8569V28.417H91.0778V7.96247H94.4349V11.0306C95.0308 9.86182 95.8396 8.97935 96.8613 8.38286C97.883 7.7739 99.0931 7.46961 100.492 7.46961C102.572 7.46961 104.123 8.15766 105.144 9.53338C106.178 10.897 106.695 12.9666 106.695 15.7426ZM121.236 10.3184C119.533 10.3184 118.244 10.9823 117.368 12.3094C116.492 13.6364 116.055 15.6027 116.055 18.2081C116.055 20.8017 116.492 22.7681 117.368 24.1071C118.244 25.4342 119.533 26.0977 121.236 26.0977C122.951 26.0977 124.247 25.4342 125.122 24.1071C125.998 22.7681 126.436 20.8017 126.436 18.2081C126.436 15.6027 125.998 13.6364 125.122 12.3094C124.247 10.9823 122.951 10.3184 121.236 10.3184ZM121.236 7.46961C124.07 7.46961 126.235 8.3887 127.731 10.2273C129.239 12.0658 129.994 14.7261 129.994 18.2081C129.994 21.7025 129.246 24.369 127.75 26.2075C126.254 28.0336 124.082 28.9469 121.236 28.9469C118.402 28.9469 116.237 28.0336 114.741 26.2075C113.245 24.369 112.497 21.7025 112.497 18.2081C112.497 14.7261 113.245 12.0658 114.741 10.2273C116.237 8.3887 118.402 7.46961 121.236 7.46961Z" fill="#11557C" stroke="white" stroke-width="0.7" stroke-miterlimit="1.414" stroke-linejoin="round"/>
<path d="M52.2678 29.5032C49.5654 28.9776 47.9848 28.2557 46.4625 26.0727C45.3575 24.4881 45.1801 23.19 45.159 20.9575C45.1489 19.8911 45.1793 19.6597 45.3965 19.1333L45.6456 18.5306L45.9422 19.1742C46.2835 19.9145 46.6175 20.4378 46.837 20.5761C46.9674 20.6587 47.0016 20.4865 47.0721 19.3901C47.1172 18.6849 47.1845 17.9065 47.2215 17.6602C47.2889 17.2137 47.2904 17.2118 47.8785 16.9881C48.9991 16.5615 51.0834 16.507 54.8374 16.8062C56.5582 16.9437 60.2616 17.0193 60.6547 16.6784C61.0622 16.3246 61.1117 16.1633 60.9828 15.194C60.8307 14.0493 60.9922 13.7898 60.508 12.8345C59.2528 10.3574 57.1704 9.3023 54.4163 9.29529C51.9354 9.28905 49.9457 10.1976 48.7426 12.2205C47.6843 14.0002 47.2126 15.9078 46.9335 19.5327L46.8553 20.5503L46.6198 20.2114C45.4914 18.5894 44.792 15.7574 45.2774 13.6024C45.653 11.9337 46.4201 10.484 47.6652 9.08996C48.7399 7.88645 50.5085 7.19529 52.6294 6.79009C53.9951 6.52944 54.9297 6.52944 56.2958 6.79009C58.4167 7.19529 59.9537 7.96905 61.0284 9.17256C62.2603 10.5518 63.0395 12.0144 63.4026 13.6297C63.6478 14.7202 63.6875 16.3737 63.4813 16.8958C63.3007 17.3532 61.9687 18.8419 61.924 18.6362C61.9053 18.552 61.9438 18.4067 62.0092 18.314C62.1925 18.0533 62.0267 17.9462 61.7481 18.1453C61.5316 18.3 61.4939 18.3042 61.3678 18.1885C61.1016 17.945 61.0039 18.1979 61.2479 18.4983C61.5301 18.8458 61.5351 18.9627 61.2677 18.9627C61.1533 18.9627 61.0334 18.9954 61.0015 19.0348C60.7466 19.348 56.796 19.422 53.6596 19.1719C51.3403 18.9868 49.4961 19.0266 49.0649 19.2701C48.7099 19.4707 48.2397 20.1798 48.0809 20.7537C47.9303 21.2996 48.0175 22.955 48.2323 23.6193C48.4491 24.2894 49.2175 25.2658 50.0192 25.8896C52.2604 27.6335 55.9603 27.6533 58.2139 25.934C59.3469 25.0694 60.2616 23.6805 59.9931 23.232C59.9253 23.1187 59.8697 22.8978 59.8697 22.7415C59.8697 22.4571 60.1947 21.8703 60.4076 21.7702C60.7081 21.6292 61.0471 21.0666 61.0471 20.7093C61.0471 20.2959 61.193 20.0213 61.4125 20.0213C61.7539 20.0213 61.7134 18.96 61.3545 18.5053C61.079 18.1562 61.1039 18.0841 61.4219 18.3116C61.6274 18.4581 61.6897 18.4733 61.6897 18.3763C61.6897 18.307 61.771 18.1998 61.8703 18.1383C62.0318 18.0385 62.0404 18.044 61.9504 18.1893C61.8956 18.2789 61.8644 18.7145 61.8816 19.1575C61.91 19.8876 61.936 19.9761 62.1614 20.1113C62.3642 20.2324 62.4202 20.361 62.4662 20.8122C62.5055 21.2006 62.625 21.5287 62.8686 21.9191C63.1504 22.3702 63.2049 22.5416 63.1605 22.8401C63.1302 23.0462 63.0119 23.2842 62.8904 23.3844C62.6219 23.6057 61.5351 25.0367 61.4254 25.3129C61.2269 25.814 60.5594 26.8652 60.1238 27.3635C59.4505 28.1337 58.7234 28.5966 57.4678 29.0552C55.5913 29.7405 54.1325 29.8659 52.2678 29.5032Z" fill="#11557C" stroke="white" stroke-width="0.74"/>
</g>
<defs>
<clipPath id="clip0_88_15221">
<rect width="130" height="30" fill="white"/>
</clipPath>
</defs>
</svg>
