<svg width="48" height="48" viewBox="0 0 48 48" fill="none" xmlns="http://www.w3.org/2000/svg">
<g clip-path="url(#clip0_780_14781)">
<path d="M40 0H8C3.58172 0 0 3.58172 0 8V40C0 44.4183 3.58172 48 8 48H40C44.4183 48 48 44.4183 48 40V8C48 3.58172 44.4183 0 40 0Z" fill="#F5F8FF"/>
<mask id="mask0_780_14781" style="mask-type:luminance" maskUnits="userSpaceOnUse" x="11" y="9" width="26" height="30">
<path d="M36.0771 9H11V39H36.0771V9Z" fill="white"/>
</mask>
<g mask="url(#mask0_780_14781)">
<path d="M20.0213 39.0007C19.9324 38.8773 19.7797 38.8891 19.6601 38.8296C18.8517 38.4295 18.5154 37.7547 18.5147 36.8825C18.5139 35.6226 18.5147 34.3634 18.5147 33.1035C18.5147 32.8563 18.3867 32.7327 18.1307 32.7327C17.906 32.7327 17.6813 32.7327 17.4567 32.7327C16.4486 32.7305 16.0286 32.3157 16.0286 31.3157C16.0279 28.6696 16.0286 26.0235 16.0286 23.3773C16.0286 22.0007 16.0338 20.624 16.0235 19.2474C16.022 19.0198 16.0808 18.953 16.315 18.953C21.1285 18.9596 25.9427 18.9596 30.7562 18.953C30.9824 18.953 31.0529 19.0066 31.0521 19.2423C31.0448 23.2944 31.0485 27.3465 31.0455 31.3986C31.0455 32.2863 30.5984 32.7261 29.71 32.732C29.417 32.7342 29.1233 32.7467 28.8311 32.7276C28.605 32.7129 28.5536 32.7966 28.5551 33.011C28.5646 34.29 28.5602 35.569 28.5595 36.848C28.5595 37.4199 28.4354 37.9464 28.0323 38.3854C27.7452 38.6975 27.3693 38.8443 26.9941 39H26.2907C26.0786 38.845 25.812 38.8003 25.5984 38.6417C25.0176 38.2099 24.7797 37.6211 24.7797 36.917C24.7797 35.6086 24.7761 34.3003 24.7841 32.9919C24.7856 32.787 24.7247 32.7246 24.5198 32.7283C23.8855 32.74 23.2504 32.7445 22.616 32.7268C22.3642 32.7195 22.2834 32.7797 22.2863 33.0462C22.301 34.3348 22.2922 35.624 22.2929 36.9126C22.2929 37.4794 22.1417 37.9889 21.7445 38.4111C21.4625 38.7107 21.0918 38.8524 20.7232 39.0007H20.0198H20.0213Z" fill="#272829"/>
<path d="M23.5358 17.7129C21.1438 17.7129 18.7517 17.7085 16.3596 17.7195C16.088 17.721 16.0087 17.6483 16.0256 17.3781C16.1643 15.1189 17.0916 13.2702 18.8883 11.8796C19.1019 11.7144 19.1195 11.6344 18.9235 11.4486C18.4551 11.0059 17.9999 10.5492 17.5549 10.0837C17.1885 9.70043 17.331 9.16152 17.8185 9.02202C18.0931 8.94346 18.2921 9.08663 18.4727 9.25696C18.7003 9.47136 18.9162 9.69676 19.1379 9.91776C19.4352 10.2144 19.7363 10.5066 20.027 10.8098C20.1232 10.9104 20.2047 10.9295 20.331 10.8686C21.3141 10.3884 22.3692 10.2012 23.4477 10.1902C24.5564 10.1791 25.6445 10.3509 26.6592 10.8333C26.8515 10.9244 26.9631 10.8987 27.1071 10.7489C27.588 10.2496 28.0821 9.76284 28.5762 9.27752C28.7605 9.09691 28.9639 8.94125 29.251 9.02275C29.7377 9.16078 29.8809 9.7041 29.516 10.083C29.0696 10.547 28.6151 11.0051 28.1474 11.4479C27.9536 11.6314 27.9631 11.7114 28.1805 11.8788C29.8001 13.1226 30.7282 14.7687 30.9881 16.7944C31.0256 17.0852 31.1555 17.4464 30.9954 17.6454C30.8405 17.8377 30.4631 17.7092 30.1849 17.71C27.9683 17.7151 25.7524 17.7129 23.5358 17.7129ZM20.3905 15.5037C20.9213 15.5073 21.3391 15.0962 21.3398 14.5683C21.3405 14.069 20.914 13.638 20.4118 13.6307C19.9059 13.6233 19.4529 14.0727 19.4595 14.5763C19.4661 15.0903 19.8772 15.5007 20.3897 15.5044L20.3905 15.5037ZM26.6584 15.5037C27.1863 15.5081 27.6093 15.0925 27.61 14.5683C27.61 14.0741 27.1761 13.6366 26.6797 13.6307C26.168 13.6248 25.7238 14.0668 25.7304 14.5756C25.737 15.094 26.143 15.4993 26.6584 15.5037Z" fill="#272829"/>
<path d="M14.7555 25.2264C14.7555 26.6713 14.7628 28.117 14.7533 29.5619C14.7467 30.5714 14.0749 31.3174 13.0756 31.4554C12.1035 31.5898 11.2115 30.8248 11.0529 29.943C11.0125 29.722 11 29.4988 11 29.2734C11.0029 26.5098 11 23.7462 11.0029 20.9826C11.0037 19.9944 11.5984 19.2212 12.5088 19.0076C13.5565 18.7616 14.7181 19.6082 14.7394 20.6853C14.7695 22.1985 14.7467 23.7124 14.7467 25.2256C14.7496 25.2256 14.7526 25.2256 14.7548 25.2256L14.7555 25.2264Z" fill="#272829"/>
<path d="M32.3278 25.1843C32.3278 23.6997 32.3102 22.2158 32.3337 20.732C32.3498 19.7151 33.341 18.8707 34.3476 18.964C35.297 19.0521 36.065 19.8707 36.0701 20.8715C36.0841 23.7621 36.0848 26.6527 36.0701 29.5425C36.0642 30.6057 35.2992 31.4265 34.2537 31.4713C33.2228 31.5154 32.3579 30.685 32.3374 29.7246C32.3051 28.2122 32.3278 26.6975 32.3278 25.1843Z" fill="#272829"/>
</g>
</g>
<defs>
<clipPath id="clip0_780_14781">
<rect width="48" height="48" fill="white"/>
</clipPath>
</defs>
</svg>
