<svg width="40" height="40" viewBox="0 0 40 40" fill="none" xmlns="http://www.w3.org/2000/svg">
<g clip-path="url(#clip0_780_14170)">
<mask id="mask0_780_14170" style="mask-type:luminance" maskUnits="userSpaceOnUse" x="-1" y="0" width="41" height="40">
<path d="M39.6744 0H-0.330078V40H39.6744V0Z" fill="white"/>
</mask>
<g mask="url(#mask0_780_14170)">
<path d="M23.6664 7.9996V7.4975C23.6664 5.29 23.6664 3.0825 23.6664 0.875C23.6664 0.2204 23.8869 0 24.5392 0C28.8429 0 33.1466 0 37.4503 0C38.1193 0 38.3308 0.2193 38.3319 0.9095C38.3319 3.1025 38.3319 5.2967 38.3319 7.4897V7.9996C38.5156 7.9996 38.6759 7.9951 38.8362 7.9996C39.375 8.0185 39.6578 8.3591 39.5487 8.8768C39.3772 9.6905 39.1958 10.5021 39.0132 11.3136C38.8919 11.8513 38.706 11.9971 38.1449 11.9971C35.3262 11.9982 32.5087 11.9971 29.69 11.9971C27.7608 11.9971 25.8305 11.9971 23.9013 11.9971C23.2679 11.9971 23.1076 11.8702 22.9662 11.239C22.8004 10.4954 22.6412 9.7495 22.4809 9.0037C22.3328 8.3146 22.5777 8.0062 23.279 7.9973C23.3892 7.9962 23.4995 7.9973 23.6664 7.9973V7.9996ZM25.0301 1.3514V7.9996C26.5018 7.9996 27.9445 8.0118 29.3861 7.9929C29.8915 7.9862 30.2589 8.1176 30.3569 8.6541H31.6281C31.853 8.0808 31.9732 7.9996 32.5933 7.9996C33.9125 7.9996 35.2305 7.9996 36.5497 7.9996C36.6955 7.9996 36.8402 7.9996 36.9771 7.9996V1.3514H25.0301ZM37.802 10.6512C37.8978 10.1993 37.9857 9.784 38.0781 9.3477H33.0553C32.7792 9.9466 32.6935 10 32.01 10C31.3443 10 30.6775 9.9811 30.0129 10.0067C29.4874 10.0267 29.0711 9.9254 28.9765 9.3532H23.918C24.0171 9.8041 24.1117 10.2304 24.2052 10.6512H37.8031H37.802Z" fill="#FFB500"/>
<path d="M9.81701 37.33C9.96061 37.9233 10.0919 38.4599 10.2199 38.9976C10.3769 39.6599 10.1231 39.9939 9.45181 39.9961C7.81321 39.9994 6.17451 40.0006 4.53701 39.9961C3.91251 39.9939 3.64421 39.6577 3.78221 39.0532C3.90801 38.4999 4.04941 37.9511 4.19411 37.3622C4.04941 37.3511 3.93251 37.3344 3.81671 37.3333C3.09431 37.33 2.37291 37.3433 1.65041 37.3277C0.557313 37.3044 -0.312187 36.4527 -0.318787 35.3629C-0.333287 33.1142 -0.334387 30.8644 -0.318787 28.6146C-0.311087 27.5459 0.556113 26.6765 1.62591 26.672C5.20831 26.6576 8.79061 26.6587 12.3729 26.672C13.4639 26.6754 14.3277 27.547 14.3344 28.6424C14.35 30.8778 14.3489 33.1131 14.3344 35.3484C14.3277 36.4617 13.4572 37.3121 12.3373 37.3288C11.5191 37.3411 10.7009 37.3311 9.81591 37.3311L9.81701 37.33ZM13.003 33.3146C13.003 31.7283 13.013 30.1764 12.9963 28.6257C12.9918 28.2172 12.6935 28.0001 12.2182 28.0001C8.74941 27.9979 5.28061 27.9979 1.81181 28.0001C1.24631 28.0001 1.01141 28.2428 1.00921 28.8183C1.00591 29.8314 1.00811 30.8444 1.00811 31.8574C1.00811 32.3383 1.00811 32.8192 1.00811 33.3157H13.003V33.3146ZM1.05041 34.685C0.906813 35.5789 1.04601 36.0342 2.11911 36.0097C3.93591 35.9674 5.75371 35.9986 7.57051 35.9986C9.11011 35.9986 10.6496 36.0008 12.1892 35.9974C12.7625 35.9963 12.9974 35.7581 13.0063 35.1926C13.0085 35.0301 13.0063 34.8675 13.0063 34.6861H1.05041V34.685ZM8.43551 37.3311C7.53491 37.3311 6.66431 37.3255 5.79491 37.3389C5.70481 37.34 5.56001 37.4391 5.53551 37.5203C5.42641 37.8843 5.35191 38.2584 5.25611 38.6636C6.36381 38.6636 7.42691 38.6636 8.49111 38.6636C8.57131 38.6636 8.65251 38.6502 8.76051 38.6402C8.65031 38.1971 8.54461 37.773 8.43551 37.3322V37.3311Z" fill="#FFB500"/>
<path d="M24.829 17.8569C25.4 17.9337 25.8798 17.9893 26.3563 18.0639C26.8127 18.1363 27.002 18.3578 27.0053 18.8265C27.012 19.6035 27.012 20.3816 27.0053 21.1586C27.0008 21.6429 26.8116 21.8566 26.3207 21.9334C25.8576 22.0058 25.39 22.0592 24.8256 22.1349C25.124 22.5168 25.3822 22.8463 25.6405 23.1769C26.0735 23.7335 26.0624 23.9762 25.5737 24.466C25.0839 24.958 24.5941 25.4501 24.1009 25.9388C23.6668 26.3685 23.3974 26.3796 22.9053 25.9989C22.5602 25.7317 22.214 25.4634 21.8144 25.1529C21.742 25.6928 21.6875 26.157 21.6162 26.6179C21.5361 27.1377 21.3268 27.3236 20.8203 27.327C20.0566 27.3325 19.293 27.3325 18.5293 27.327C18.0217 27.3236 17.8135 27.1388 17.7322 26.619C17.661 26.1592 17.6053 25.6972 17.533 25.1584C17.1456 25.4568 16.8205 25.7084 16.4943 25.9599C15.9221 26.4019 15.6973 26.3852 15.1752 25.8642C14.6943 25.3833 14.2122 24.9035 13.7324 24.4204C13.3005 23.9851 13.2883 23.7224 13.669 23.227C13.9362 22.8808 14.2033 22.5346 14.5139 22.1338C13.9751 22.0615 13.5109 22.0069 13.05 21.9357C12.5291 21.8544 12.3454 21.6474 12.342 21.1397C12.3365 20.3761 12.3365 19.6124 12.342 18.8487C12.3454 18.34 12.5279 18.1329 13.0489 18.0528C13.5098 17.9815 13.974 17.927 14.5139 17.8546C14.2044 17.4539 13.9362 17.1088 13.669 16.7626C13.2872 16.2672 13.2994 16.0045 13.7313 15.5692C14.2301 15.0671 14.731 14.5673 15.2331 14.0675C15.685 13.6177 15.9411 13.6055 16.4587 14.0029C16.796 14.2623 17.1333 14.5228 17.5318 14.83C17.6042 14.2946 17.6599 13.8326 17.7311 13.3728C17.8146 12.8352 18.0183 12.6648 18.5671 12.6626C19.303 12.6593 20.0388 12.6593 20.7746 12.6626C21.339 12.6648 21.5338 12.834 21.6218 13.4096C21.6897 13.8582 21.742 14.3079 21.811 14.8345C22.1773 14.554 22.4923 14.3168 22.8029 14.073C23.4408 13.5732 23.63 13.5843 24.2134 14.1666C24.6854 14.6374 25.1585 15.1061 25.626 15.5803C26.0379 15.9967 26.0524 16.2728 25.6917 16.7436C25.4234 17.0943 25.1485 17.4416 24.8267 17.8557L24.829 17.8569ZM14.9926 23.7068C15.3277 24.063 15.6205 24.3736 15.9322 24.7053C16.2828 24.4348 16.6491 24.2022 16.953 23.9061C17.396 23.4752 17.8168 23.6367 18.2855 23.8326C18.7041 24.0074 18.7987 24.3324 18.8399 24.7243C18.8833 25.1451 18.9467 25.5648 19.0013 25.9755H20.3561C20.4162 25.4902 20.4652 25.0215 20.5342 24.5562C20.6511 23.7747 21.6697 23.3617 22.2953 23.8382C22.6682 24.122 23.0378 24.4126 23.3985 24.6931C23.738 24.3636 24.0508 24.0597 24.3826 23.7369C24.1009 23.3739 23.8449 23.0122 23.5554 22.6793C23.2627 22.3431 23.2437 22.0192 23.4152 21.6095C23.5966 21.1765 23.8148 20.8681 24.328 20.838C24.7688 20.8113 25.2063 20.7356 25.6494 20.6811V19.3152C25.1462 19.2528 24.6631 19.2072 24.1844 19.1293C23.4608 19.0101 23.0567 17.9871 23.4964 17.4038C23.787 17.0186 24.0864 16.6401 24.3469 16.305C24.0185 15.9477 23.7235 15.626 23.4163 15.2898C23.0556 15.5681 22.6983 15.8119 22.381 16.098C22.0192 16.4242 21.6708 16.4208 21.2366 16.2405C20.788 16.0535 20.5364 15.7896 20.5086 15.2931C20.4841 14.8679 20.4062 14.446 20.3516 14.0129H18.9968C18.9378 14.4872 18.8866 14.9536 18.8198 15.4178C18.7029 16.226 17.6832 16.6401 17.0376 16.1447C16.6669 15.8598 16.2984 15.5703 15.9411 15.2931C15.5993 15.6282 15.2943 15.9265 14.9603 16.2516C15.2375 16.6089 15.4902 16.9719 15.7819 17.3014C16.0902 17.6498 16.1014 17.9871 15.9255 18.4079C15.7418 18.8476 15.5047 19.1326 14.9971 19.1615C14.5596 19.1871 14.1265 19.2662 13.6901 19.323V20.6766C14.1844 20.739 14.6664 20.7868 15.1451 20.8636C15.8965 20.9839 16.2973 22.0058 15.8375 22.6125C15.5537 22.9865 15.2631 23.355 14.9893 23.7079L14.9926 23.7068Z" fill="#FFB500"/>
<path d="M39.6705 32.679C39.6705 34.4001 39.6728 36.1211 39.6705 37.8421C39.6683 39.1668 38.8367 39.9962 37.5109 39.9984C35.8311 40.0017 34.1523 40.0017 32.4725 39.9984C31.18 39.9951 30.3407 39.1535 30.3396 37.8577C30.3373 34.4023 30.3373 30.9457 30.3396 27.4903C30.3396 26.1645 31.1723 25.3363 32.4981 25.3352C34.1779 25.3329 35.8567 25.3318 37.5365 25.3352C38.8345 25.3374 39.6672 26.1734 39.6705 27.4747C39.6739 29.2091 39.6705 30.9446 39.6705 32.679ZM32.2064 26.7066C31.7957 26.8013 31.671 26.9693 31.671 27.5438C31.671 30.9569 31.671 34.3711 31.671 37.7842C31.671 38.441 31.8914 38.6648 32.5382 38.6659C34.1757 38.6681 35.8132 38.6681 37.4508 38.6659C38.1232 38.6659 38.3369 38.4466 38.3369 37.762C38.3369 35.6391 38.3369 33.5162 38.3369 31.3933C38.3369 30.0752 38.3402 28.7572 38.3347 27.438C38.3324 26.956 38.1577 26.7645 37.8037 26.7166C37.571 27.1708 37.4241 27.6529 37.1235 28.0046C36.2708 29.0043 33.707 28.9932 32.8655 27.9868C32.5693 27.6328 32.4268 27.1497 32.2053 26.7055L32.2064 26.7066ZM33.6681 26.6855C33.7505 27.1107 33.9731 27.3189 34.3538 27.33C34.7958 27.3423 35.2388 27.349 35.6808 27.3267C36.0581 27.3078 36.2819 27.0963 36.3253 26.6855H33.6681Z" fill="#FFB500"/>
<path d="M11.6757 7.3316C11.6757 9.0527 11.6779 10.7737 11.6757 12.4947C11.6735 13.8417 10.8452 14.6644 9.48816 14.6655C6.94786 14.6677 4.40746 14.6677 1.86826 14.6655C0.495659 14.6655 -0.321441 13.8395 -0.321441 12.4557C-0.322541 9.0415 -0.322541 5.6262 -0.321441 2.212C-0.322541 0.8049 0.48896 0.0011 1.90606 0C4.41856 0 6.93116 0 9.44256 0C10.8797 0 11.6746 0.8026 11.6757 2.2509C11.6757 3.9441 11.6757 5.6373 11.6757 7.3316ZM10.342 7.3339C10.342 5.6262 10.3432 3.9174 10.342 2.2097C10.342 1.5563 10.1205 1.3359 9.46706 1.3347C6.94006 1.3336 4.41196 1.3336 1.88496 1.3347C1.23036 1.3347 1.01106 1.5552 1.00996 2.2086C1.00886 5.6251 1.00886 9.0415 1.00996 12.4569C1.00996 13.1103 1.23146 13.3318 1.88376 13.3318C4.41076 13.333 6.93896 13.333 9.46586 13.3318C10.1183 13.3318 10.3409 13.1092 10.3409 12.4569C10.3432 10.7492 10.3409 9.0404 10.3409 7.3327L10.342 7.3339Z" fill="#FFB500"/>
<path d="M20.3459 28.6958V33.3267H28.9855V34.6637H28.5925C25.7071 34.6637 22.8216 34.6637 19.9362 34.6637C19.2059 34.6637 19.0078 34.4611 19.0078 33.7197C19.0078 32.0554 19.0078 30.3923 19.0078 28.6969H20.3459V28.6958Z" fill="#FFB500"/>
<path d="M20.3384 11.3146H19.0103V8.01172H13.0391V6.68802C13.1459 6.68142 13.2651 6.66582 13.3842 6.66582C15.4091 6.66472 17.4329 6.66362 19.4579 6.66582C20.1135 6.66582 20.3362 6.88622 20.3373 7.53302C20.3395 8.77982 20.3373 10.0266 20.3373 11.3157L20.3384 11.3146Z" fill="#FFB500"/>
<path d="M10.9954 19.3402V20.6471H7.01904V25.3081H5.67094C5.67094 24.7616 5.67094 24.225 5.67094 23.6884C5.67094 22.4962 5.66754 21.3028 5.67314 20.1105C5.67534 19.6586 5.88464 19.3536 6.26875 19.348C7.83165 19.3291 9.39574 19.3402 10.9965 19.3402H10.9954Z" fill="#FFB500"/>
<path d="M30.3267 13.3502H31.6603C31.6659 13.4604 31.6737 13.5528 31.6748 13.6463C31.6748 15.4764 31.677 17.3066 31.6748 19.1356C31.6748 19.7634 31.4466 19.995 30.831 19.9972C30.0161 20.0005 29.2024 19.9972 28.3652 19.9972V18.6847H30.3278V13.3491L30.3267 13.3502Z" fill="#FFB500"/>
<path d="M19.6714 16.6631C21.4949 16.6609 22.9977 18.1459 23.0066 19.9605C23.0166 21.824 21.5149 23.3324 19.6547 23.329C17.8379 23.3257 16.3462 21.8307 16.3418 20.0094C16.3373 18.1671 17.8302 16.6665 19.6714 16.6642V16.6631ZM19.6937 21.9943C20.7768 21.991 21.6763 21.0837 21.6719 19.9994C21.6685 18.8884 20.7624 17.9901 19.6558 17.999C18.5682 18.0079 17.6776 18.9051 17.6765 19.9939C17.6765 21.0993 18.5816 21.9988 19.6926 21.9943H19.6937Z" fill="#FFB500"/>
<path d="M5.02539 11.9677V10.6875H6.30679V11.9677H5.02539Z" fill="#FFB500"/>
</g>
</g>
<defs>
<clipPath id="clip0_780_14170">
<rect width="40" height="40" fill="white"/>
</clipPath>
</defs>
</svg>
