<svg width="40" height="40" viewBox="0 0 40 40" fill="none" xmlns="http://www.w3.org/2000/svg">
<path d="M4.4351 40C4.2892 39.9509 4.14441 39.9008 3.99851 39.8528C2.83262 39.4689 2.03353 38.4077 2.01893 37.1816C2.00433 36.0099 2.01373 34.8382 2.01373 33.6664C2.01373 25.7123 2.01373 17.7583 2.01373 9.8044C2.01373 9.6739 2.00743 9.5435 2.01793 9.4141C2.04393 9.0792 2.28462 8.84231 2.59192 8.84021C2.89722 8.83811 3.14521 9.07081 3.17961 9.4047C3.19311 9.5341 3.18481 9.6645 3.18481 9.795C3.18481 17.2022 3.18481 24.6095 3.18481 32.0168V32.5134H22.9505V32.1086C22.9505 22.4361 22.9505 12.7635 22.9505 3.09096C22.9505 2.06947 22.4712 1.40798 21.595 1.21698C21.4324 1.18148 21.2595 1.17738 21.0917 1.17738C15.7354 1.17528 10.379 1.17418 5.0227 1.17738C3.88291 1.17738 3.18791 1.88378 3.18481 3.03566C3.18271 4.23355 3.18891 5.43134 3.18171 6.62823C3.17851 7.13112 2.80342 7.45772 2.41482 7.26052C2.23462 7.16862 2.03663 6.90053 2.03243 6.70853C2.00013 5.35624 1.98033 3.99975 2.03042 2.64857C2.08352 1.20758 3.35041 0.032693 4.8185 0.0107932C6.18338 -0.00900658 7.54827 0.00449332 8.91416 0.00449332C12.9442 0.00449332 16.9753 0.00449332 21.0053 0.00449332C22.9297 0.00449332 24.1153 1.18878 24.1216 3.11496C24.1237 3.67316 24.1216 4.23035 24.1216 4.84705C24.6248 4.84705 25.0999 4.84495 25.574 4.84705C26.4513 4.85125 26.8847 5.28734 26.8878 6.17223C26.8899 6.88803 26.8795 7.60482 26.8983 8.31961C26.9014 8.43851 27.0004 8.61901 27.1004 8.65971C27.9735 9.0197 28.8581 9.3536 29.8375 9.7334C30.1322 9.4308 30.499 9.05001 30.8699 8.67221C31.0981 8.44061 31.3242 8.20691 31.5607 7.98361C32.1066 7.46812 32.7213 7.45982 33.2538 7.98151C34.1362 8.84651 35.0104 9.7198 35.8752 10.6036C36.3805 11.1201 36.3795 11.7451 35.8731 12.2689C35.2865 12.8762 34.677 13.4626 34.0789 14.0574C34.3509 14.6677 34.6166 15.2552 34.8739 15.8468C34.9521 16.0252 35.0427 16.2089 35.0656 16.3967C35.1229 16.8652 35.3594 16.9987 35.82 16.9674C36.467 16.9226 37.1192 16.9507 37.7694 16.957C38.5487 16.9643 38.9946 17.4182 38.9967 18.2039C38.9998 19.4018 38.9998 20.5996 38.9967 21.7964C38.9946 22.5957 38.5414 23.0392 37.7298 23.0423C36.989 23.0454 36.2471 23.035 35.5063 23.0517C35.3969 23.0538 35.2271 23.1425 35.1896 23.2332C34.8281 24.1212 34.4895 25.0174 34.1237 25.9638C34.6228 26.4657 35.1813 27.0271 35.7387 27.5895C36.4159 28.2729 36.417 28.8583 35.7387 29.5376C34.9396 30.3389 34.1404 31.1403 33.3371 31.9375C32.7099 32.5604 32.1035 32.5593 31.4752 31.9322C30.9053 31.3636 30.3437 30.7855 29.8342 30.2669C28.8633 30.6415 27.9568 30.9838 27.0598 31.35C26.9722 31.3855 26.8972 31.566 26.8951 31.6818C26.8805 32.3976 26.8899 33.1134 26.8868 33.8292C26.8837 34.7129 26.4471 35.1511 25.5709 35.1532C25.1041 35.1543 24.6384 35.1532 24.1195 35.1532C24.1195 35.6186 24.0924 36.0589 24.1237 36.4961C24.255 38.3263 23.4037 39.5805 21.6731 39.9968H4.4351V40ZM24.1445 27.29V33.9534H25.7188C25.7188 32.9861 25.7167 32.0501 25.7188 31.1131C25.7199 30.5904 25.8345 30.438 26.3304 30.3201C27.4005 30.0645 28.4038 29.6513 29.3436 29.0805C29.8259 28.7884 30.0072 28.8092 30.4031 29.2057C31.0637 29.8673 31.7201 30.534 32.364 31.1831C33.2558 30.2774 34.1185 29.4009 34.9958 28.5108C34.3457 27.8597 33.6684 27.1773 32.9849 26.5012C32.7328 26.2507 32.6411 25.9742 32.8349 25.6612C33.4663 24.6335 33.9258 23.5369 34.2029 22.363C34.2832 22.0239 34.5113 21.8726 34.8583 21.8747C35.6512 21.8789 36.4441 21.8757 37.238 21.8757C37.4276 21.8757 37.6172 21.8757 37.8079 21.8757V18.1319C36.8535 18.1319 35.921 18.1319 34.9885 18.1319C34.4301 18.1319 34.2936 18.0213 34.1581 17.4683C33.9081 16.4509 33.5142 15.4931 32.9808 14.5927C32.6151 13.975 32.6276 13.8685 33.1454 13.352C33.7768 12.7208 34.4092 12.0895 34.975 11.525C34.0821 10.6203 33.2204 9.7459 32.3369 8.85071C31.7315 9.4621 31.1012 10.1017 30.4688 10.7372C29.9916 11.2172 29.8811 11.1838 29.2842 10.9021C28.3611 10.4669 27.415 10.0694 26.4544 9.724C25.7918 9.4861 25.7199 9.4694 25.7199 8.74951C25.7199 7.85422 25.7199 6.96002 25.7199 6.05223H24.1508V12.6999C24.2143 12.7155 24.2518 12.7291 24.2893 12.7322C28.4048 13.0849 31.2658 16.3059 31.1158 20.4295C31.0793 21.4177 30.8167 22.3536 30.375 23.2364C30.1979 23.5891 29.8708 23.7038 29.5655 23.5484C29.2759 23.4002 29.18 23.0903 29.3186 22.747C29.3478 22.675 29.3822 22.6051 29.4144 22.5331C30.8459 19.3558 29.3655 15.6287 26.1293 14.3423C25.5136 14.097 24.8415 13.9948 24.1456 13.8143V26.0974C24.8759 26.0869 25.5636 25.944 26.1929 25.633C26.7597 25.3534 27.2838 24.9872 27.8245 24.6554C28.1225 24.4718 28.4288 24.5031 28.6289 24.7483C28.832 24.9977 28.8081 25.3085 28.5622 25.5558C28.4986 25.6195 28.4236 25.6737 28.3517 25.7301C27.1285 26.69 25.7324 27.1919 24.1466 27.2931L24.1445 27.29ZM3.18481 33.7416C3.18481 34.8965 3.17541 36.014 3.18791 37.1316C3.19831 38.08 3.92241 38.823 4.8716 38.824C10.33 38.8324 15.7875 38.8324 21.2459 38.824C22.2045 38.823 22.9224 38.1134 22.9422 37.1483C22.9651 36.0819 22.9494 35.0144 22.9484 33.9471C22.9484 33.8855 22.9338 33.8229 22.9244 33.7405H3.18481V33.7416Z" fill="#A33AD5"/>
<path d="M7.02808 3.59926C7.57398 3.59926 8.11997 3.59506 8.66597 3.60026C9.25976 3.60556 9.56816 3.89876 9.57236 4.48095C9.58066 5.60054 9.57966 6.71913 9.57236 7.83872C9.56926 8.40531 9.27546 8.72041 8.71077 8.72771C7.58028 8.74231 6.44979 8.74121 5.3183 8.72771C4.75361 8.72141 4.45561 8.41151 4.45041 7.84492C4.44101 6.72643 4.44101 5.60684 4.45041 4.48725C4.45561 3.89976 4.76201 3.60656 5.3517 3.60026C5.9101 3.59506 6.46959 3.59926 7.02808 3.59926ZM8.37317 7.54132V4.80235H5.6517V7.54132H8.37317Z" fill="#A33AD5"/>
<path d="M21.6848 6.17011C21.6848 6.72931 21.6889 7.2897 21.6837 7.84899C21.6775 8.39779 21.3972 8.71709 20.8554 8.72539C19.699 8.74319 18.5425 8.74319 17.386 8.72539C16.8775 8.71709 16.5837 8.41869 16.5764 7.91259C16.5608 6.74191 16.5598 5.57012 16.5775 4.39943C16.5848 3.89433 16.8952 3.60844 17.4016 3.60434C18.5446 3.59494 19.6886 3.59594 20.8325 3.60434C21.3732 3.60844 21.6754 3.91633 21.6827 4.45473C21.69 5.02752 21.6848 5.59932 21.6848 6.17221V6.17011ZM20.4981 4.78652H17.7757V7.5359H20.4981V4.78652Z" fill="#A33AD5"/>
<path d="M10.514 6.15237C10.514 5.57948 10.5077 5.00769 10.5161 4.43489C10.5244 3.9163 10.8245 3.6085 11.3444 3.6043C12.4873 3.5949 13.6313 3.596 14.7742 3.6043C15.3024 3.6075 15.6088 3.8954 15.615 4.42029C15.6296 5.57848 15.6286 6.73667 15.6161 7.89386C15.6109 8.42185 15.3202 8.72025 14.7888 8.72755C13.6459 8.74425 12.5019 8.74425 11.359 8.72755C10.7953 8.72025 10.5181 8.40615 10.514 7.83016C10.5098 7.27086 10.514 6.71167 10.514 6.15128V6.15237ZM11.6997 7.54116H14.4231V4.79699H11.6997V7.54116Z" fill="#A33AD5"/>
<path d="M6.99664 10.2327C7.56863 10.2327 8.14063 10.2265 8.71162 10.2348C9.25652 10.2421 9.56491 10.5374 9.57011 11.0789C9.58051 12.2236 9.58051 13.3693 9.57011 14.5139C9.56491 15.0376 9.26792 15.3392 8.74182 15.3454C7.58533 15.358 6.42884 15.359 5.27235 15.3454C4.75036 15.3392 4.45756 15.0366 4.45236 14.5056C4.44086 13.3609 4.43986 12.2152 4.45236 11.0706C4.45856 10.5311 4.77326 10.2432 5.32026 10.2359C5.87865 10.2285 6.43814 10.2348 6.99664 10.2348V10.2327ZM8.38553 11.4316H5.64115V14.1487H8.38553V11.4316Z" fill="#A33AD5"/>
<path d="M21.685 12.7717C21.685 13.3446 21.6902 13.9164 21.6829 14.4892C21.6767 15.0422 21.3964 15.3395 20.8431 15.3458C19.7002 15.3583 18.5562 15.3583 17.4132 15.3458C16.862 15.3395 16.5797 15.0505 16.5734 14.4882C16.562 13.3561 16.5609 12.225 16.5734 11.0929C16.5797 10.5169 16.8756 10.2383 17.4538 10.2352C18.5708 10.2289 19.6887 10.2289 20.8056 10.2352C21.3954 10.2383 21.6787 10.5336 21.684 11.1336C21.6881 11.6803 21.684 12.226 21.684 12.7728L21.685 12.7717ZM20.4868 14.1553V11.4247H17.7727V14.1553H20.4868Z" fill="#A33AD5"/>
<path d="M13.087 10.2323C13.6455 10.2323 14.2039 10.2271 14.7624 10.2344C15.3177 10.2417 15.6105 10.5182 15.6168 11.0743C15.6293 12.2189 15.6293 13.3635 15.6168 14.5082C15.6105 15.0612 15.3219 15.3408 14.7603 15.3461C13.6298 15.3565 12.4994 15.3565 11.37 15.3461C10.7927 15.3408 10.5177 15.0487 10.5156 14.4675C10.5104 13.3489 10.5104 12.2304 10.5156 11.1119C10.5187 10.5203 10.8073 10.2396 11.4116 10.2344C11.9701 10.2292 12.5286 10.2333 13.087 10.2344V10.2323ZM14.429 11.4333H11.7044V14.1471H14.429V11.4333Z" fill="#A33AD5"/>
<path d="M13.0808 35.6952C13.3007 35.6952 13.5205 35.6837 13.7393 35.6983C14.0696 35.7192 14.2655 35.9039 14.2863 36.2378C14.3071 36.5738 14.1259 36.8117 13.807 36.8378C13.3194 36.8774 12.8245 36.8774 12.3369 36.8357C12.017 36.8086 11.8358 36.5613 11.8618 36.2315C11.8879 35.906 12.0869 35.7161 12.4203 35.6983C12.6391 35.6869 12.8599 35.6963 13.0798 35.6963L13.0808 35.6952Z" fill="#A33AD5"/>
</svg>
