<svg width="48" height="48" viewBox="0 0 48 48" fill="none" xmlns="http://www.w3.org/2000/svg">
<g clip-path="url(#clip0_780_14773)">
<path d="M40 0H8C3.58172 0 0 3.58172 0 8V40C0 44.4183 3.58172 48 8 48H40C44.4183 48 48 44.4183 48 40V8C48 3.58172 44.4183 0 40 0Z" fill="#F5F8FF"/>
<path d="M17.1818 9C12.6682 9 9 12.6682 9 17.1818V30.8182C9 35.3318 12.6682 39 17.1818 39H30.8182C35.3318 39 39 35.3318 39 30.8182V17.1818C39 12.6682 35.3318 9 30.8182 9H17.1818ZM14.8767 19.2752C15.354 19.2752 15.709 19.6162 15.709 20.0662C15.709 20.5094 15.354 20.8506 14.8767 20.8506C14.3926 20.8506 14.0391 20.5094 14.0391 20.0662C14.0391 19.6162 14.3926 19.2752 14.8767 19.2752ZM21.9812 19.6641C24.4698 19.6641 26.0042 21.4018 26.0042 24.1904C26.0042 26.9722 24.4835 28.7248 21.9812 28.7248C19.4653 28.7248 17.9382 26.9791 17.9382 24.1904C17.9382 21.395 19.4994 19.6641 21.9812 19.6641ZM30.7982 19.6641C32.5505 19.6641 33.8312 20.6859 33.913 22.145H32.604C32.4744 21.3472 31.786 20.8506 30.7769 20.8506C29.7133 20.8506 29.0111 21.3542 29.0111 22.1383C29.0111 22.752 29.4613 23.1069 30.5931 23.3728L31.5413 23.6045C33.3208 24.0204 34.0502 24.7365 34.0502 26.0388C34.0502 27.6956 32.7679 28.7314 30.7156 28.7314C28.7997 28.7314 27.5112 27.7437 27.4157 26.1959H28.7461C28.862 27.0141 29.6659 27.5383 30.8182 27.5383C31.8955 27.5383 32.6865 26.9797 32.6865 26.2093C32.6865 25.5547 32.1887 25.1596 31.0432 24.8869L29.9246 24.6206C28.3633 24.2524 27.6475 23.4957 27.6475 22.2275C27.6475 20.6866 28.9096 19.6641 30.7982 19.6641ZM21.9812 20.9118C20.3516 20.9118 19.3165 22.1859 19.3165 24.1904C19.3165 26.1882 20.3175 27.477 21.9812 27.477C23.6244 27.477 24.6339 26.1882 24.6339 24.1904C24.6339 22.1859 23.6244 20.9118 21.9812 20.9118ZM14.2362 21.9958H15.5186V28.521H14.2362V21.9958Z" fill="#272829"/>
</g>
<defs>
<clipPath id="clip0_780_14773">
<rect width="48" height="48" fill="white"/>
</clipPath>
</defs>
</svg>
