<svg width="45" height="48" viewBox="0 0 45 48" fill="none" xmlns="http://www.w3.org/2000/svg">
<path d="M42.2562 6.87522C42.1138 3.15981 38.8482 2.38048 38.8482 2.38048C38.8482 2.38048 27.5292 0.674808 22.5706 0.0556278C17.6104 -0.566832 17.9191 4.23992 17.9191 4.23992C17.9191 4.23992 19.0455 39.2734 19.1625 43.6128C19.2953 48.7827 24.1211 47.9507 24.1211 47.9507L41.1746 45.0016C44.2756 44.3809 44.4292 40.5086 44.4292 40.5086C44.4292 40.5086 42.4149 10.9313 42.2562 6.87522C42.4146 10.9313 42.1138 3.15981 42.2562 6.87522ZM38.4416 36.635L25.7611 37.9484C25.7611 37.9484 22.0681 38.5117 21.9851 34.0251C21.9243 30.7194 21.193 11.7842 21.193 11.7842C21.193 11.7842 20.9385 8.31204 24.7387 8.59675C28.6172 8.88475 37.9106 9.59209 37.9106 9.59209C37.9106 9.59209 40.3987 10.1842 40.5073 13.0195C40.6241 16.1012 41.6979 33.2155 41.6979 33.2155C41.6979 33.2155 41.9778 36.0284 38.4416 36.635ZM7.39882 31.5305L5.05617 31.6971C5.05617 31.6971 2.69279 32.017 2.63855 29.4313C2.60019 27.5257 2.36333 16.7091 2.36333 16.7091C2.36333 16.7091 2.20007 14.7075 4.63065 14.8708C5.24672 14.9107 6.1202 14.9667 7.08508 15.0244C7.05156 13.2306 7.02288 11.6625 7.00042 10.469C5.66273 10.3681 4.41142 10.2593 3.51703 10.165C0.305569 9.81132 0.502345 12.5074 0.502345 12.5074C0.502345 12.5074 0.88985 32.3451 0.961891 34.7772C1.05 37.6765 4.17163 37.2061 4.17163 37.2061L7.50454 36.8494C7.4757 35.4108 7.437 33.577 7.39882 31.5305ZM16.716 13.4994C16.7068 13.2654 16.6675 13.0337 16.5992 12.8097C15.5735 12.7266 12.9989 12.0562 12.1734 12.9283C11.6501 13.4771 11.8661 14.6339 11.8789 15.2916L13.7463 15.397C13.7463 15.397 15.3382 15.7379 15.4072 17.37C15.4808 19.1494 15.4711 29.116 15.4711 29.116C15.4711 29.116 15.6503 30.7417 13.391 31.0859L12.2054 31.1739C12.2118 31.5274 12.2181 31.8123 12.2213 32.0235C12.271 34.8654 15.2935 33.9549 17.1895 33.7707C17.3528 30.7562 17.0631 27.6505 16.9961 24.6344C16.9143 20.9239 16.8839 17.2069 16.716 13.4994C16.8183 15.7683 16.7048 13.2466 16.716 13.4994Z" fill="black"/>
<path d="M17.6914 34.934L14.2752 35.2636C14.2752 35.2636 11.0895 35.7211 11.0207 32.0506C10.9711 29.3417 10.651 13.9874 10.651 13.9874C10.651 13.9874 10.4303 11.1489 13.6992 11.3761C14.5392 11.4338 15.6946 11.5281 16.9523 11.629C16.8578 8.68321 16.7825 6.35976 16.7441 5.16303C15.0226 4.99493 13.4 4.82546 12.2 4.68794C7.87957 4.19799 8.15185 8.0174 8.15185 8.0174C8.15185 8.0174 8.66547 36.1818 8.76621 39.6236C8.88294 43.7374 13.0864 43.0766 13.0864 43.0766L17.9234 42.4572C17.8754 40.8557 17.7938 38.166 17.6914 34.934ZM24.6421 9.79198C24.0374 9.74394 23.3028 9.78403 22.8549 10.2561C22.3812 10.7521 22.3732 11.456 22.4005 12.0928C24.1141 12.2418 25.3574 12.352 25.3574 12.352C25.3574 12.352 27.4982 12.8338 27.5958 15.1538C27.6949 17.6772 28.308 31.3882 28.308 31.3882C28.308 31.3882 28.5479 33.6939 25.5046 34.1915L23.2004 34.4122C23.5062 38.014 28.1639 36.494 30.5462 36.2477C30.3016 30.8314 29.5432 14.0803 29.372 10.1472C27.7958 10.0236 26.2191 9.90525 24.6421 9.79198C25.8406 9.87665 24.5238 9.7825 24.6421 9.79198Z" fill="black"/>
</svg>
