<svg width="48" height="48" viewBox="0 0 48 48" fill="none" xmlns="http://www.w3.org/2000/svg">
<g clip-path="url(#clip0_780_14669)">
<mask id="mask0_780_14669" style="mask-type:luminance" maskUnits="userSpaceOnUse" x="0" y="0" width="48" height="48">
<path d="M48 0H0V48H48V0Z" fill="white"/>
</mask>
<g mask="url(#mask0_780_14669)">
<path d="M46.0082 2H24.0999L3.17969 24H23.9697L24.0669 23.901L46.0082 2Z" fill="url(#paint0_linear_780_14669)"/>
<path d="M24.0587 23.9023L23.9615 24.0013H24.1577L24.0587 23.9023Z" fill="url(#paint1_linear_780_14669)"/>
<path d="M24.0917 2H2V25.232V24H3.1715L24.0917 2Z" fill="url(#paint2_linear_780_14669)"/>
<path d="M23.9615 24H3.1715L2 25.232V46L23.9615 24Z" fill="url(#paint3_linear_780_14669)"/>
<path d="M24.1577 24H23.9615L2 46H46L24.1577 24Z" fill="url(#paint4_linear_780_14669)"/>
<path d="M3.1715 24H2V25.232L3.1715 24Z" fill="url(#paint5_linear_780_14669)"/>
</g>
</g>
<defs>
<linearGradient id="paint0_linear_780_14669" x1="-5.8449" y1="42.2099" x2="35.0994" y2="1.26564" gradientUnits="userSpaceOnUse">
<stop stop-color="#C757BC"/>
<stop offset="0.108" stop-color="#C757BC"/>
<stop offset="0.173" stop-color="#CD5CA9"/>
<stop offset="0.492" stop-color="#E8744F"/>
<stop offset="0.716" stop-color="#F88316"/>
<stop offset="0.823" stop-color="#FF8900"/>
<stop offset="1" stop-color="#FF8900"/>
</linearGradient>
<linearGradient id="paint1_linear_780_14669" x1="16.2137" y1="53.9271" x2="36.1707" y2="33.9701" gradientUnits="userSpaceOnUse">
<stop stop-color="#00AFFF"/>
<stop offset="0.296" stop-color="#00AFFF"/>
<stop offset="0.694" stop-color="#5282FF"/>
<stop offset="1" stop-color="#945DFF"/>
</linearGradient>
<linearGradient id="paint2_linear_780_14669" x1="1.53595" y1="14.1599" x2="15.536" y2="0.159494" gradientUnits="userSpaceOnUse">
<stop stop-color="#00AFFF"/>
<stop offset="0.296" stop-color="#00AFFF"/>
<stop offset="0.694" stop-color="#5282FF"/>
<stop offset="1" stop-color="#945DFF"/>
</linearGradient>
<linearGradient id="paint3_linear_780_14669" x1="-5.60746" y1="42.4556" x2="35.3369" y2="1.51129" gradientUnits="userSpaceOnUse">
<stop stop-color="#AD4CA4"/>
<stop offset="0.108" stop-color="#AD4CA4"/>
<stop offset="0.173" stop-color="#B25093"/>
<stop offset="0.492" stop-color="#CA6545"/>
<stop offset="0.716" stop-color="#D87213"/>
<stop offset="0.823" stop-color="#DE7700"/>
<stop offset="1" stop-color="#DE7700"/>
</linearGradient>
<linearGradient id="paint4_linear_780_14669" x1="16.2137" y1="53.9257" x2="36.1707" y2="33.9687" gradientUnits="userSpaceOnUse">
<stop stop-color="#0098DE"/>
<stop offset="0.296" stop-color="#0098DE"/>
<stop offset="0.694" stop-color="#4771DE"/>
<stop offset="1" stop-color="#8151DE"/>
</linearGradient>
<linearGradient id="paint5_linear_780_14669" x1="7.03813" y1="19.662" x2="21.0382" y2="5.66152" gradientUnits="userSpaceOnUse">
<stop stop-color="#0098DE"/>
<stop offset="0.296" stop-color="#0098DE"/>
<stop offset="0.694" stop-color="#4771DE"/>
<stop offset="1" stop-color="#8151DE"/>
</linearGradient>
<clipPath id="clip0_780_14669">
<rect width="48" height="48" fill="white"/>
</clipPath>
</defs>
</svg>
