<svg width="48" height="48" viewBox="0 0 48 48" fill="none" xmlns="http://www.w3.org/2000/svg">
<g clip-path="url(#clip0_780_14813)">
<path d="M40 0H8C3.58172 0 0 3.58172 0 8V40C0 44.4183 3.58172 48 8 48H40C44.4183 48 48 44.4183 48 40V8C48 3.58172 44.4183 0 40 0Z" fill="#F5F8FF"/>
<mask id="mask0_780_14813" style="mask-type:luminance" maskUnits="userSpaceOnUse" x="9" y="9" width="30" height="30">
<path d="M39 9H9V38.9946H39V9Z" fill="white"/>
</mask>
<g mask="url(#mask0_780_14813)">
<path d="M37.7087 20.6862C37.5628 20.6598 37.4176 20.6342 37.2716 20.6085C36.8352 20.5309 36.3833 20.4517 35.943 20.3585C35.8801 20.3453 35.7877 20.263 35.7567 20.1924C35.6286 19.902 35.5051 19.603 35.3863 19.3142C35.259 19.0059 35.1277 18.6875 34.9903 18.3777C34.9406 18.2651 34.9476 18.2085 35.0237 18.1021C35.3925 17.5842 35.7435 17.0756 36.037 16.6462C36.5122 15.9528 36.4524 15.247 35.8685 14.6576C35.1083 13.8897 34.2814 13.0627 33.3403 12.1294C32.7618 11.5564 32.0459 11.4904 31.375 11.95C31.278 12.0168 31.1801 12.0828 31.0831 12.1488C30.7127 12.4004 30.3299 12.6597 29.9673 12.9362C29.805 13.0589 29.7017 13.0433 29.5169 12.9587C28.9959 12.7195 28.45 12.4944 27.8482 12.2707C27.6922 12.2125 27.6378 12.1512 27.6145 12.0067C27.5524 11.6255 27.4833 11.2388 27.4157 10.8653C27.3816 10.6735 27.3466 10.4817 27.3133 10.2899C27.1712 9.48472 26.6004 9.0033 25.7859 9.00175C24.5692 8.99942 23.3656 8.99942 22.2102 9.00175C21.3856 9.0033 20.8304 9.47384 20.6876 10.2923C20.6526 10.4918 20.6169 10.6906 20.5804 10.8902C20.5144 11.2566 20.4461 11.6348 20.3855 12.0091C20.3622 12.1512 20.3071 12.2125 20.1487 12.2731C19.8272 12.395 19.5065 12.5301 19.1952 12.6605C18.9273 12.7731 18.6509 12.8888 18.3768 12.996C18.3053 13.0239 18.1795 13.0169 18.1267 12.9828C17.8239 12.7848 17.5211 12.5736 17.2291 12.3686C17.0304 12.2296 16.8254 12.0859 16.6204 11.9477C15.9487 11.4927 15.2336 11.5595 14.6567 12.1317C13.8499 12.9323 13.023 13.7592 12.1285 14.66C11.5546 15.2377 11.4886 15.9536 11.9475 16.6244C12.2504 17.067 12.6029 17.5803 12.9632 18.0796C13.0494 18.1991 13.0563 18.269 12.995 18.4041C12.7659 18.9096 12.533 19.4726 12.2605 20.1768C12.2069 20.3158 12.1564 20.3616 12.0353 20.381C11.8419 20.4113 11.6463 20.4486 11.4576 20.4843C11.1703 20.5387 10.8737 20.5946 10.5809 20.628C9.75785 20.7211 9.24304 21.1086 9.00622 21.8113L9 21.8292V26.1681L9.00622 26.186C9.23994 26.891 9.76483 27.2793 10.6104 27.374C10.897 27.4058 11.1881 27.461 11.47 27.5153C11.6548 27.5503 11.8458 27.5868 12.0353 27.617C12.1564 27.6364 12.2069 27.6815 12.2605 27.8213C12.4918 28.4207 12.7388 29.017 12.9927 29.594C13.0548 29.7353 13.0525 29.7943 12.9795 29.8952C12.62 30.3898 12.2783 30.8907 11.9468 31.3744C11.4886 32.0445 11.5546 32.7612 12.1285 33.3389C12.9298 34.1457 13.7505 34.9664 14.6357 35.8469C15.2421 36.4503 15.9371 36.5139 16.6452 36.0333C17.1088 35.718 17.6057 35.3772 18.1019 35.0184C18.2028 34.9454 18.265 34.9423 18.4032 35.0044C19.036 35.2863 19.6075 35.5224 20.1502 35.7266C20.3071 35.7856 20.3622 35.8477 20.3847 35.9913C20.415 36.1831 20.4515 36.3757 20.4865 36.5628C20.5393 36.8431 20.5944 37.132 20.627 37.417C20.721 38.2393 21.1084 38.7541 21.8111 38.9909L21.829 38.9971H26.1695L26.1874 38.9909C26.8885 38.7548 27.276 38.24 27.3707 37.417C27.401 37.1553 27.4515 36.889 27.5004 36.6312C27.5384 36.4308 27.5773 36.2243 27.6075 36.0185C27.6316 35.8539 27.6914 35.7871 27.8754 35.7196C28.3763 35.5356 28.9151 35.3127 29.5697 35.0169C29.732 34.9439 29.8034 34.947 29.9207 35.0324C30.3555 35.3523 30.8074 35.6613 31.2446 35.9603L31.3758 36.0496C32.035 36.5007 32.7618 36.4402 33.3201 35.8873C34.1478 35.0689 35.0058 34.2109 35.8693 33.3389C36.4516 32.7503 36.5099 32.0445 36.0339 31.3496C35.6604 30.8053 35.3451 30.3487 35.0198 29.8937C34.946 29.7904 34.939 29.7306 34.9895 29.6172C35.1254 29.3098 35.2558 28.9945 35.3816 28.6901C35.502 28.3982 35.627 28.0961 35.7559 27.8026C35.7862 27.7335 35.8794 27.652 35.9446 27.638C36.4353 27.5347 36.9385 27.4462 37.4253 27.36L37.7095 27.3096C38.5264 27.1651 38.9954 26.6084 38.9969 25.7838C38.9992 24.5562 38.9992 23.3534 38.9969 22.2089C38.9954 21.3881 38.5248 20.833 37.7072 20.6854L37.7087 20.6862ZM37.5239 26.1604C37.204 26.2163 36.8841 26.2753 36.5642 26.3343C36.1674 26.4073 35.7575 26.4834 35.3537 26.5509C35.0586 26.6006 34.88 26.7551 34.7573 27.0688C34.4273 27.9137 34.109 28.6816 33.7829 29.4169C33.6416 29.736 33.6579 29.9799 33.8388 30.2314C34.1657 30.6865 34.4895 31.1554 34.8024 31.6089L35.0509 31.9692C35.2403 32.2433 35.2341 32.331 35.0089 32.557C34.1952 33.3731 33.3799 34.1884 32.563 35.0021C32.334 35.2304 32.2462 35.2382 31.9768 35.051L31.6258 34.8088C31.177 34.499 30.7135 34.1791 30.2646 33.8545C29.9929 33.658 29.7343 33.6394 29.3989 33.7916C28.7327 34.0936 28.0175 34.3903 27.078 34.7536C26.8528 34.8406 26.6152 34.9788 26.5539 35.3438C26.4374 36.0372 26.3116 36.7104 26.1718 37.455C26.1082 37.7936 26.0592 37.8324 25.6966 37.8332C25.2944 37.8332 24.8922 37.8332 24.49 37.8332H23.9822H23.4487C23.0457 37.8332 22.642 37.8332 22.239 37.8324C21.9571 37.8308 21.8896 37.7757 21.8391 37.5047C21.7086 36.8067 21.5704 36.0643 21.4462 35.336C21.398 35.0541 21.2435 34.8763 20.9446 34.7583C20.0648 34.412 19.2876 34.0898 18.5686 33.7737C18.4319 33.7139 18.3092 33.6837 18.1943 33.6837C18.0499 33.6837 17.9163 33.7318 17.7812 33.8289C17.3433 34.1426 16.8921 34.4531 16.455 34.7544C16.3176 34.8492 16.1793 34.9439 16.0419 35.0394C15.7507 35.2405 15.6707 35.2351 15.4316 34.9967C14.6155 34.1822 13.8002 33.3676 12.9865 32.5508C12.7698 32.3334 12.7621 32.2441 12.9391 31.9878L13.1837 31.633C13.4919 31.185 13.8103 30.7222 14.1349 30.2749C14.3383 29.9946 14.3577 29.7283 14.2009 29.3835C13.9004 28.7258 13.5983 27.9975 13.2505 27.0906C13.1565 26.8468 13.0183 26.6131 12.6394 26.5509C12.0019 26.4453 11.3551 26.3234 10.7292 26.2062L10.4994 26.1627C10.2222 26.1107 10.1663 26.0439 10.1655 25.7682C10.1647 25.241 10.1647 24.7138 10.1655 24.1866C10.1655 23.532 10.1655 22.8774 10.164 22.2228C10.164 21.9829 10.2486 21.8789 10.4777 21.84C10.8216 21.781 11.1703 21.7166 11.5073 21.6537C11.8808 21.5846 12.2674 21.5131 12.6479 21.4487C12.943 21.399 13.1216 21.2437 13.2443 20.93C13.5766 20.079 13.8949 19.3111 14.218 18.5819C14.3593 18.2628 14.3422 18.0198 14.162 17.7674C13.8297 17.3039 13.4997 16.8263 13.1814 16.3643L12.95 16.0297C12.759 15.754 12.7652 15.6717 12.9927 15.4426C13.8064 14.6266 14.6217 13.8113 15.4378 12.9975C15.6669 12.7692 15.7546 12.7622 16.024 12.9486C16.1522 13.0371 16.2811 13.1256 16.4092 13.2141C16.8471 13.5154 17.2998 13.8276 17.737 14.1436C18.0095 14.3408 18.2681 14.3602 18.6035 14.2088C19.3256 13.8827 20.0967 13.562 20.8957 13.2553C21.1472 13.159 21.3887 13.0154 21.4524 12.6248C21.5192 12.2148 21.596 11.7986 21.6714 11.3964C21.7273 11.0975 21.7847 10.7884 21.8368 10.4833C21.8764 10.2534 21.9827 10.1641 22.2172 10.1641C22.8904 10.1665 23.5636 10.1657 24.2376 10.1657C24.7462 10.1657 25.2548 10.1657 25.7634 10.1657C26.0445 10.1657 26.1113 10.2216 26.1625 10.4941C26.2992 11.2233 26.432 11.9376 26.5562 12.6628C26.6175 13.0231 26.8567 13.1598 27.0586 13.239C27.9538 13.5907 28.7303 13.913 29.4346 14.2228C29.7436 14.3587 29.9797 14.3431 30.2227 14.17C30.6894 13.8384 31.1685 13.5069 31.632 13.1862L31.9613 12.9587C32.2579 12.7537 32.3285 12.7607 32.591 13.0224C33.3931 13.8229 34.1952 14.6242 34.9965 15.4256C35.2364 15.6663 35.2442 15.7517 35.0478 16.0351C34.9592 16.1624 34.8715 16.2906 34.783 16.4179C34.4809 16.8558 34.168 17.3093 33.8512 17.748C33.661 18.012 33.6416 18.2636 33.7875 18.5882C34.116 19.3211 34.4405 20.1015 34.7527 20.9075C34.8466 21.1513 34.9856 21.3858 35.363 21.4479C36.0712 21.5652 36.7894 21.7003 37.4843 21.8315L37.5022 21.8346C37.7802 21.8866 37.8361 21.9534 37.8369 22.2298C37.8376 22.754 37.8376 23.2789 37.8369 23.803C37.8369 24.4607 37.8369 25.1183 37.8384 25.7752C37.8384 26.0128 37.7506 26.1208 37.5239 26.1604Z" fill="#272829"/>
<path d="M30.1186 21.3468C30.1186 20.9182 30.1186 20.4896 30.1186 20.0618C30.1186 19.7395 29.9408 19.5275 29.6178 19.4631C29.523 19.4445 29.4275 19.4258 29.3328 19.4072C27.2192 18.9995 25.6686 18.2502 24.4526 17.049C24.0947 16.6949 23.788 16.8549 23.5348 17.0568C23.4463 17.1282 23.3578 17.1997 23.2693 17.2711C22.8484 17.612 22.4128 17.9645 21.9508 18.2495C21.0757 18.7891 20.0554 19.1471 18.643 19.4095C17.9846 19.5322 17.8852 19.6518 17.8852 20.3242V23.2003C17.8852 23.4751 17.8852 23.75 17.886 24.0249C17.8867 24.7066 17.8883 25.4109 17.8829 26.1035C17.8797 26.4933 17.9815 26.8521 18.202 27.2341C19.4195 29.3407 21.2054 31.0023 23.6614 32.3122C23.7779 32.3744 23.8905 32.4054 24.003 32.4054C24.1156 32.4054 24.229 32.3744 24.347 32.3115C26.8209 30.9969 28.6083 29.3259 29.8127 27.2015C30.0044 26.8629 30.0992 26.5795 30.1023 26.3357C30.1217 24.6725 30.1209 22.9813 30.1201 21.3453L30.1186 21.3468Z" fill="#272829"/>
</g>
</g>
<defs>
<clipPath id="clip0_780_14813">
<rect width="48" height="48" fill="white"/>
</clipPath>
</defs>
</svg>
