<svg width="48" height="48" viewBox="0 0 48 48" fill="none" xmlns="http://www.w3.org/2000/svg">
<mask id="mask0_780_14627" style="mask-type:luminance" maskUnits="userSpaceOnUse" x="0" y="0" width="48" height="48">
<path d="M48 0H0V48H48V0Z" fill="white"/>
</mask>
<g mask="url(#mask0_780_14627)">
<path d="M10.6668 0H37.2544C38.5481 0 39.8044 0.20625 41.0232 0.6375C42.7856 1.275 44.3794 2.4 45.5794 3.8625C46.7981 5.325 47.6044 7.125 47.8856 9C47.9981 9.69376 48.0168 10.3875 48.0168 11.0813V37.0125C48.0168 37.8375 47.9794 38.6813 47.8106 39.4875C47.4356 41.3438 46.5544 43.0875 45.2794 44.4938C44.0232 45.9 42.3732 46.95 40.5919 47.5125C39.5044 47.85 38.3794 48 37.2356 48C36.7294 48 10.5919 48 10.1981 47.9813C8.28564 47.8875 6.39188 47.2687 4.79813 46.2C3.24188 45.15 1.96688 43.6875 1.14188 42C0.429377 40.5562 0.0731274 38.9438 0.0731274 37.3313V10.6687C0.0356274 9.07504 0.373127 7.5 1.06688 6.075C1.87313 4.3875 3.12937 2.90625 4.68563 1.85625C6.27937 0.76875 8.15436 0.13125 10.0668 0.0375C10.2544 0 10.4606 0 10.6668 0Z" fill="url(#paint0_linear_780_14627)"/>
<path d="M40.5 39.2625C40.3313 39 40.1438 38.7375 39.9375 38.4938C39.4687 37.9313 38.925 37.4438 38.325 37.0313C37.575 36.525 36.6938 36.2062 35.7938 36.1687C35.1562 36.1313 34.5187 36.2438 33.9187 36.4687C33.3187 36.675 32.7375 36.975 32.175 37.275C31.5187 37.6125 30.8625 37.95 30.1687 38.2313C29.3438 38.5687 28.4813 38.8313 27.6 39.0187C26.4938 39.225 25.3687 39.3 24.2625 39.2813C22.2562 39.2438 20.25 38.9438 18.3375 38.3813C16.65 37.875 15.0375 37.1813 13.5187 36.3C12.1875 35.5313 10.95 34.65 9.78752 33.6562C8.83128 32.8313 7.95 31.95 7.125 31.0125C6.5625 30.3562 6.01875 29.6625 5.5125 28.95C5.30625 28.6687 5.11875 28.3687 4.95 28.0687L0 22.725V10.6313C0 4.7625 4.74375 0 10.6125 0H20.0813L27.0938 7.125C42.9187 17.8875 37.8 29.7562 37.8 29.7562C37.8 29.7562 42.3 34.8187 40.5 39.2625Z" fill="url(#paint1_linear_780_14627)"/>
<path d="M27.1344 7.125C42.9594 17.8875 37.8406 29.7562 37.8406 29.7562C37.8406 29.7562 42.3406 34.8375 40.5218 39.2813C40.5218 39.2813 38.6656 36.1687 35.5531 36.1687C32.5531 36.1687 30.7906 39.2813 24.7531 39.2813C11.3094 39.2813 4.95312 28.05 4.95312 28.05C17.0656 36.0187 25.3344 30.375 25.3344 30.375C19.8782 27.2062 8.27185 12.0562 8.27185 12.0562C18.3782 20.6625 22.7469 22.9313 22.7469 22.9313C20.1406 20.775 12.8282 10.2375 12.8282 10.2375C18.6782 16.1625 30.3031 24.4313 30.3031 24.4313C33.6031 15.2813 27.1344 7.125 27.1344 7.125Z" fill="white"/>
</g>
<defs>
<linearGradient id="paint0_linear_780_14627" x1="28.5527" y1="-1.71282" x2="19.4839" y2="49.7186" gradientUnits="userSpaceOnUse">
<stop stop-color="#FAAE42"/>
<stop offset="1" stop-color="#EF3E31"/>
</linearGradient>
<linearGradient id="paint1_linear_780_14627" x1="24.4898" y1="0.7755" x2="17.8525" y2="38.4174" gradientUnits="userSpaceOnUse">
<stop stop-color="#E39F3A"/>
<stop offset="1" stop-color="#D33929"/>
</linearGradient>
</defs>
</svg>
