<svg width="144" height="64" viewBox="0 0 144 64" fill="none" xmlns="http://www.w3.org/2000/svg">
<path d="M15.7859 13.1279H0V50.779L15.7859 13.1279Z" fill="#52606D"/>
<path d="M26.8906 13.1279H42.6561V50.779L26.8906 13.1279Z" fill="#52606D"/>
<path d="M21.3381 27.0049L31.3855 50.7792H24.7935L21.7906 43.2099H14.4375L21.3381 27.0049Z" fill="#52606D"/>
<path d="M68.4097 37.072L70.2711 42.3951C70.3328 42.5285 70.4254 42.59 70.5899 42.59H74.1687C74.3641 42.59 74.3949 42.4976 74.3641 42.3027L66.97 21.8208C66.939 21.6567 66.9082 21.626 66.7438 21.626H62.301C62.1776 21.626 62.1056 21.7183 62.1056 21.8516C62.0439 22.9285 61.9513 23.2567 61.8177 23.5747L55.2256 42.272C55.1948 42.4976 55.2668 42.59 55.4519 42.59H58.6502C58.8456 42.59 58.9382 42.5285 59.0102 42.3335L60.7686 37.072H68.4097ZM61.7869 33.5951C62.7536 30.6823 64.0287 26.949 64.5429 24.8157H64.5738C65.2114 27.0516 66.7128 31.4824 67.3916 33.5951H61.7869Z" fill="#52606D"/>
<path d="M83.8736 42.9069C85.7967 42.9069 87.8432 42.5581 89.9206 41.6658C90.0851 41.6043 90.1159 41.5326 90.1159 41.3787C90.0543 40.8044 89.9823 39.9736 89.9823 39.3377V20.0557C89.9823 19.9326 89.9823 19.8711 89.828 19.8711H86.3417C86.2081 19.8711 86.1463 19.9326 86.1463 20.0967V26.6301C85.6013 26.5684 85.2208 26.5377 84.7683 26.5377C79.143 26.5377 75.6875 30.2403 75.6875 34.8659C75.6875 40.23 79.2355 42.9069 83.8736 42.9069ZM86.1463 39.3377C85.5704 39.5222 84.9328 39.5941 84.2849 39.5941C81.7345 39.5941 79.6469 38.1582 79.6469 34.671C79.6469 31.5838 81.7963 29.7582 84.6449 29.7582C85.2208 29.7582 85.7247 29.8198 86.1463 29.9839V39.3377Z" fill="#52606D"/>
<path d="M101.236 26.5381C96.433 26.5381 93.4609 30.2098 93.4609 34.7432C93.4609 38.7944 95.8263 42.9072 101.164 42.9072C105.678 42.9072 108.846 39.5943 108.846 34.6406C108.846 30.2713 106.162 26.5381 101.236 26.5381ZM101.04 29.7585C103.755 29.7585 104.907 32.0868 104.907 34.7432C104.907 38.0251 103.21 39.656 101.236 39.656C98.7984 39.656 97.3587 37.615 97.3587 34.6713C97.3587 31.6457 98.8909 29.7585 101.04 29.7585Z" fill="#52606D"/>
<path d="M112.453 19.8711C112.319 19.8711 112.227 19.9326 112.227 20.0967V41.9222C112.227 42.0146 112.319 42.1787 112.453 42.2095C113.985 42.6813 115.589 42.9069 117.245 42.9069C121.986 42.9069 126.593 39.9736 126.593 34.0659C126.593 29.789 123.652 26.5377 119.045 26.5377C117.986 26.5377 116.998 26.7018 116.135 26.9889L116.093 20.1275C116.093 19.9019 116.032 19.8711 115.805 19.8711H112.453ZM122.655 34.4556C122.655 37.9941 120.228 39.6556 117.605 39.6556C117.06 39.6556 116.577 39.6248 116.135 39.4915V30.1787C116.638 29.9839 117.245 29.8198 118.366 29.8198C120.896 29.8198 122.655 31.4197 122.655 34.4556Z" fill="#52606D"/>
<path d="M139.6 35.6047C141.164 35.6047 142.45 35.5738 142.892 35.4713C143.056 35.4406 143.118 35.3791 143.148 35.2457C143.242 34.897 143.282 34.1688 143.282 33.2765C143.282 30.2405 141.452 26.5381 136.721 26.5381C131.887 26.5381 129.203 30.4663 129.203 34.897C129.203 38.8252 131.281 42.9072 137.102 42.9072C139.282 42.9072 140.69 42.5585 141.904 41.9841C142.028 41.9226 142.09 41.82 142.09 41.6353V38.9791C142.09 38.8252 141.996 38.7944 141.904 38.8559C140.69 39.3687 139.374 39.6252 137.934 39.6252C134.675 39.6252 133.193 37.8303 133.101 35.6047H139.6ZM133.101 32.856C133.359 31.297 134.345 29.6047 136.557 29.6047C138.994 29.6047 139.632 31.6457 139.632 32.5688C139.632 32.5996 139.632 32.7329 139.632 32.8252C139.498 32.856 139.086 32.856 137.873 32.856H133.101Z" fill="#52606D"/>
</svg>
