<svg id="fi_3934277" enable-background="new 0 0 24 24" height="40" viewBox="0 0 24 24" width="40" xmlns="http://www.w3.org/2000/svg"><g><path d="m20.58 5h-4.58v-2.44c0-.86-.7-1.56-1.56-1.56h-10.88c-.86 0-1.56.7-1.56 1.56v18.88c0 .86.7 1.56 1.56 1.56h10.88c.86 0 1.56-.7 1.56-1.56v-2.44h4.58c.78 0 1.42-.64 1.42-1.42v-11.16c0-.78-.64-1.42-1.42-1.42zm-8.89-3-.5 1h-4.38l-.5-1zm3.31 19.44c0 .31-.25.56-.56.56h-10.88c-.31 0-.56-.25-.56-.56v-.44h12zm0-1.44h-12v-17.44c0-.31.25-.56.56-.56h1.63l.86 1.72c.09.17.26.28.45.28h5c.19 0 .36-.11.45-.28l.86-1.72h1.63c.31 0 .56.25.56.56v2.44h-6.58c-.78 0-1.42.64-1.42 1.42v11.16c0 .78.64 1.42 1.42 1.42h6.58zm6-2.42c0 .23-.19.42-.42.42h-12.16c-.23 0-.42-.19-.42-.42v-11.16c0-.23.19-.42.42-.42h5.77l.63 1.25c.23.46.69.75 1.21.75h4.97zm0-10.58h-4.97c-.14 0-.26-.08-.32-.2l-.4-.8h5.27c.23 0 .42.19.42.42z" fill="#303754"></path><path d="m16.03 8c-.52 0-.98-.29-1.21-.75l-.63-1.25h-5.77c-.23 0-.42.19-.42.42v11.16c0 .23.19.42.42.42h12.16c.23 0 .42-.19.42-.42v-9.58zm-.88 1.85c-.2-.19-.2-.51 0-.7.19-.2.51-.2.7 0l1 1c.2.19.2.51 0 .7l-1 1c-.19.2-.51.2-.7 0-.2-.19-.2-.51 0-.7l.64-.65zm-1.43-.8c.25.13.35.43.23.67l-1 2c-.13.25-.43.35-.67.23-.25-.13-.35-.43-.23-.67l1-2c.13-.25.43-.35.67-.23zm-1.22-2.05c.28 0 .5.22.5.5s-.22.5-.5.5-.5-.22-.5-.5.22-.5.5-.5zm-2 0c.28 0 .5.22.5.5s-.22.5-.5.5-.5-.22-.5-.5.22-.5.5-.5zm-1.35 3.15 1-1c.19-.2.51-.2.7 0 .2.19.2.51 0 .7l-.64.65.64.65c.2.19.2.51 0 .7-.19.2-.51.2-.7 0l-1-1c-.2-.19-.2-.51 0-.7zm.35 3.85h5c.28 0 .5.22.5.5s-.22.5-.5.5h-5c-.28 0-.5-.22-.5-.5s.22-.5.5-.5zm9 3h-9c-.28 0-.5-.22-.5-.5s.22-.5.5-.5h9c.28 0 .5.22.5.5s-.22.5-.5.5z" fill="#fff"></path><path d="m7 6.42v11.16c0 .78.64 1.42 1.42 1.42h6.58v1h-12v-17.44c0-.31.25-.56.56-.56h1.63l.86 1.72c.09.17.26.28.45.28h5c.19 0 .36-.11.45-.28l.86-1.72h1.63c.31 0 .56.25.56.56v2.44h-6.58c-.78 0-1.42.64-1.42 1.42z" fill="#fff"></path><path d="m15 21v.44c0 .31-.25.56-.56.56h-10.88c-.31 0-.56-.25-.56-.56v-.44z" fill="#2c98f6"></path><path d="m21 6.42v.58h-4.97c-.14 0-.26-.08-.32-.2l-.4-.8h5.27c.23 0 .42.19.42.42z" fill="#2c98f6"></path><path d="m11.69 2-.5 1h-4.38l-.5-1z" fill="#2c98f6"></path><g fill="#303754"><path d="m10.85 11.15c.2.19.2.51 0 .7-.19.2-.51.2-.7 0l-1-1c-.2-.19-.2-.51 0-.7l1-1c.19-.2.51-.2.7 0 .2.19.2.51 0 .7l-.64.65z"></path><path d="m13.95 9.72-1 2c-.13.25-.43.35-.67.23-.25-.13-.35-.43-.23-.67l1-2c.13-.25.43-.35.67-.23.25.13.35.43.23.67z"></path><path d="m16.85 10.85-1 1c-.19.2-.51.2-.7 0-.2-.19-.2-.51 0-.7l.64-.65-.64-.65c-.2-.19-.2-.51 0-.7.19-.2.51-.2.7 0l1 1c.2.19.2.51 0 .7z"></path><path d="m15 14.5c0 .28-.22.5-.5.5h-5c-.28 0-.5-.22-.5-.5s.22-.5.5-.5h5c.28 0 .5.22.5.5z"></path><path d="m19 16.5c0 .28-.22.5-.5.5h-9c-.28 0-.5-.22-.5-.5s.22-.5.5-.5h9c.28 0 .5.22.5.5z"></path><circle cx="12.5" cy="7.5" r=".5"></circle><circle cx="10.5" cy="7.5" r=".5"></circle></g></g></svg>