<svg width="78" height="74" viewBox="0 0 78 74" fill="none" xmlns="http://www.w3.org/2000/svg">
<g clip-path="url(#clip0_336_30146)">
<path d="M0.852985 41.3174C0.852985 28.104 0.852985 14.9206 0.846977 1.73723C0.846977 1.42491 0.925086 1.37085 1.2195 1.37085C26.3766 1.37686 51.5278 1.37686 76.6849 1.37085C76.9674 1.37085 77.0455 1.42491 77.0455 1.71921C77.0397 19.3291 77.0397 36.933 77.0455 54.5429C77.0455 54.8372 76.9733 54.8973 76.6849 54.8973C61.3635 54.8912 46.042 54.8912 30.7207 54.8852C30.4683 54.8852 30.3061 54.9693 30.1259 55.1375C28.9062 56.2907 27.7526 57.5099 26.5328 58.6631C25.5775 59.564 24.6943 60.525 23.733 61.4139C22.7175 62.3448 21.7922 63.3719 20.7768 64.3088C19.7974 65.2098 18.9082 66.2008 17.9288 67.0956C16.9254 68.0146 16.0182 69.0296 15.0147 69.9485C14.0294 70.8554 13.1161 71.8345 12.1487 72.7654C11.9685 72.9396 11.7462 73.0537 11.584 73.2939C11.4878 73.0537 11.596 72.8555 11.614 72.6693C11.7342 71.5642 11.8784 70.4651 12.0226 69.366C12.1547 68.3569 12.311 67.3479 12.4371 66.3328C12.5513 65.468 12.6295 64.5971 12.7436 63.7262C12.8758 62.7172 13.026 61.7082 13.1582 60.6931C13.2723 59.8282 13.3565 58.9574 13.4646 58.0865C13.5727 57.2336 13.7049 56.3748 13.8191 55.5219C13.8371 55.3657 13.8131 55.2096 13.8732 55.0534C13.9152 54.9513 13.8611 54.8852 13.735 54.8973C13.6629 54.9033 13.5968 54.8973 13.5247 54.8973C9.40892 54.8973 5.29318 54.8973 1.17744 54.9033C0.90706 54.9033 0.834961 54.8432 0.834961 54.5669C0.852986 50.1584 0.852985 45.7499 0.852985 41.3174Z" fill="#FEFEFE"/>
<path d="M17.4435 66.1888C15.9295 67.6724 14.4274 69.1378 12.8652 70.6694C12.9193 70.2129 12.9613 69.8285 13.0094 69.4442C13.3037 67.1018 13.6042 64.7654 13.9046 62.423C14.235 59.8464 14.5655 57.2698 14.908 54.6931C15.0101 53.9183 15.0161 53.9183 14.2471 53.9183C10.2094 53.9183 6.17782 53.9123 2.14018 53.9244C1.85178 53.9244 1.80371 53.8403 1.80371 53.576C1.80971 36.6088 1.80971 19.6416 1.80371 2.67428C1.80371 2.41001 1.85778 2.32593 2.14018 2.32593C26.6845 2.33193 51.2287 2.33193 75.7726 2.32593C76.0311 2.32593 76.1034 2.38599 76.1034 2.65025C76.0975 19.6295 76.0975 36.6028 76.1034 53.582C76.1034 53.8643 76.0253 53.9244 75.7551 53.9244C60.6258 53.9183 45.4907 53.9183 30.3616 53.9123C30.0912 53.9123 29.8989 53.9844 29.7006 54.1766C27.4055 56.4409 25.1042 58.6933 22.803 60.9455C21.0245 62.6933 19.24 64.435 17.4435 66.1888Z" fill="black"/>
<path d="M21.4617 4.83025C38.7238 4.83025 55.9559 4.83025 73.188 4.83025C73.6747 4.83025 73.6025 4.80021 73.6025 5.25068C73.6025 20.5062 73.6025 35.7617 73.6025 51.0111C73.6025 51.4676 73.6626 51.4136 73.206 51.4136C58.5756 51.4136 43.9452 51.4136 29.3207 51.4076C29.0623 51.4076 28.8761 51.4797 28.6898 51.6659C26.9594 53.3776 25.223 55.0773 23.4866 56.7831C21.5879 58.6449 19.6833 60.5068 17.7786 62.3687C17.286 62.8492 16.7872 63.3237 16.2525 63.8462C16.3967 62.6871 16.5349 61.5819 16.6791 60.4768C16.9735 58.1885 17.2619 55.8941 17.5563 53.6058C17.6344 52.9932 17.7065 52.3746 17.7966 51.7619C17.8387 51.4916 17.7786 51.4076 17.4842 51.4076C13.2303 51.4196 8.97032 51.4136 4.71637 51.4136C4.28377 51.4136 4.28377 51.4136 4.28377 50.9871C4.28377 35.7437 4.28377 20.5002 4.28377 5.25668C4.28377 4.79421 4.21167 4.83625 4.72238 4.83625C10.2981 4.83025 15.8619 4.83025 21.4617 4.83025Z" fill="#FDFDFD"/>
<path d="M12.0843 49.7853C10.1316 49.7853 8.2089 49.7793 6.28622 49.7913C6.05189 49.7913 5.96777 49.7553 5.96777 49.491C5.97378 35.1905 5.97378 20.884 5.96777 6.58341C5.96777 6.32515 6.03987 6.2771 6.28622 6.2771C28.0546 6.28311 49.823 6.28311 71.5914 6.2771C71.8558 6.2771 71.9159 6.34317 71.9159 6.60743C71.9098 20.89 71.9098 35.1725 71.9159 49.455C71.9159 49.7253 71.8497 49.7973 71.5734 49.7973C57.2974 49.7913 43.0155 49.7913 28.7396 49.7853C28.4992 49.7853 28.337 49.8454 28.1688 50.0196C25.9276 52.3259 23.6745 54.6262 21.4274 56.9266C20.46 57.9176 19.4927 58.9146 18.5193 59.9116C18.4592 59.9717 18.4172 60.0618 18.291 60.0858C18.4111 59.2029 18.5313 58.326 18.6515 57.4551C18.994 54.9626 19.3425 52.4701 19.697 49.9775C19.727 49.7493 19.6008 49.7913 19.4746 49.7913C17.8404 49.7913 16.2121 49.7913 14.5778 49.7913C13.7546 49.7853 12.9375 49.7853 12.0843 49.7853Z" fill="#040405"/>
<path d="M6.8566 8.22344C6.8566 7.91111 6.8626 7.63484 6.8566 7.35255C6.85059 7.20239 6.89265 7.12431 7.05487 7.14834C7.11496 7.15434 7.17504 7.14834 7.23513 7.14834C28.3727 7.14834 49.5102 7.14834 70.6477 7.14233C70.9541 7.14233 71.0382 7.20239 71.0382 7.52072C71.0262 21.1906 71.0262 34.8665 71.0382 48.5364C71.0382 48.8427 70.9661 48.9028 70.6657 48.9028C56.576 48.8968 42.4923 48.8968 28.4027 48.8908C28.1203 48.8908 27.934 48.9748 27.7418 49.1851C27.1529 49.8217 26.5281 50.4344 25.9152 51.053C24.2148 52.7887 22.5205 54.5365 20.8141 56.2663C20.3995 56.6867 19.9428 57.0591 19.5524 57.4134C19.6064 57.011 19.6725 56.5065 19.7446 56.002C20.0029 54.1401 20.2553 52.2842 20.5137 50.4223C20.5737 49.9779 20.6338 49.5334 20.6999 49.0889C20.7239 48.9448 20.6939 48.8848 20.5377 48.8968C20.4656 48.9027 20.3995 48.8968 20.3274 48.8968C15.9533 48.8968 11.5732 48.8908 7.19908 48.9028C6.89866 48.9028 6.85059 48.8187 6.85059 48.5424C6.85659 35.1188 6.8566 21.6831 6.8566 8.22344Z" fill="#FEFEFE"/>
<path d="M48.2399 25.3119C48.6484 23.438 49.051 21.5822 49.4415 19.7263C49.4836 19.5341 49.5316 19.438 49.766 19.45C50.1445 19.474 50.5291 19.462 50.9076 19.456C51.0518 19.45 51.1059 19.486 51.0938 19.6362C51.0819 19.7623 51.0998 19.8945 51.1059 20.0266C51.1119 21.6843 51.1179 23.3479 51.1239 25.0056C51.1299 26.5853 51.1359 28.1648 51.1539 29.7445C51.1539 29.9847 51.1059 30.0508 50.8595 30.0087C50.5531 29.9547 50.2467 29.9307 49.9342 29.9126C49.778 29.9006 49.7059 29.8586 49.7119 29.6784C49.7359 28.5612 49.76 27.4381 49.766 26.321C49.772 25.33 49.766 24.345 49.766 23.366C49.6458 23.9245 49.5197 24.5072 49.3935 25.0838C49.2012 25.9606 49.003 26.8375 48.8227 27.7204C48.7866 27.9066 48.7085 27.9487 48.5463 27.9126C48.4982 27.9006 48.4442 27.9006 48.3961 27.8945C48.1558 27.8526 47.8313 27.9787 47.681 27.7985C47.5368 27.6303 47.5429 27.33 47.4888 27.0898C47.2184 25.9125 46.9541 24.7353 46.6897 23.5581C46.6657 23.4561 46.6356 23.3479 46.5756 23.2519C46.6056 24.375 46.6356 25.5042 46.6657 26.6273C46.6897 27.5763 46.7198 28.5252 46.7558 29.4742C46.7618 29.6183 46.7017 29.6364 46.5815 29.6304C46.215 29.6063 45.8425 29.5763 45.476 29.5643C45.2837 29.5583 45.3078 29.4381 45.3078 29.318C45.3018 28.6453 45.2958 27.9787 45.2958 27.306C45.2897 24.9336 45.2837 22.5611 45.2777 20.1948C45.2777 20.1226 45.2777 20.0566 45.2777 19.9846C45.2597 19.468 45.2597 19.468 45.7644 19.468C46.0528 19.468 46.3472 19.474 46.6356 19.462C46.7979 19.456 46.8699 19.492 46.912 19.6722C47.2966 21.408 47.6871 23.1377 48.0836 24.8735C48.1137 25.0237 48.0957 25.2039 48.2399 25.3119Z" fill="#020202"/>
<path d="M61.8181 29.2633C61.6739 28.5005 61.5237 27.7678 61.4096 27.0291C61.3676 26.7708 61.2534 26.6867 61.013 26.6687C60.4362 26.6206 60.4723 26.6147 60.4783 27.1912C60.4963 28.6027 60.4843 30.0141 60.4843 31.4495C60.0577 31.3715 59.6311 31.2994 59.2045 31.2213C59.1204 31.2033 59.0543 31.1673 59.0663 31.0591C59.0723 31.0111 59.0663 30.957 59.0663 30.909C59.0604 29.2393 59.0603 27.5696 59.0543 25.8939C59.0483 23.8458 59.0423 21.7918 59.0303 19.7437C59.0303 19.5094 59.0844 19.4434 59.3247 19.4493C60.1178 19.4674 60.9049 19.4553 61.698 19.4553C62.7735 19.4553 63.3263 19.8397 63.4224 20.9088C63.5606 22.4704 63.5606 24.044 63.4104 25.6116C63.3684 26.05 63.176 26.4404 62.7615 26.6627C62.6113 26.7467 62.6833 26.8549 62.7014 26.945C62.9477 28.3024 63.2001 29.6537 63.4525 31.0051C63.5185 31.3534 63.5786 31.7078 63.6447 32.1042C63.2061 32.0081 62.8035 31.918 62.401 31.8399C62.2568 31.8099 62.2808 31.7018 62.2628 31.6117C62.1065 30.8429 61.9623 30.0621 61.8181 29.2633Z" fill="#020202"/>
<path d="M19.3529 28.2844C19.3529 26.3805 19.359 24.5126 19.365 22.6387C19.365 21.6597 19.383 20.6807 19.377 19.6957C19.377 19.5035 19.4251 19.4374 19.6233 19.4434C19.9598 19.4614 20.3023 19.4555 20.6448 19.4434C20.789 19.4374 20.831 19.4855 20.831 19.6296C20.813 21.978 20.801 24.3324 20.789 26.6808C20.783 27.3234 20.7769 27.96 20.789 28.6027C20.801 29.0772 20.9812 29.2273 21.4499 29.1793C21.6001 29.1613 21.7503 29.1493 21.8945 29.1253C22.3752 29.0532 22.5494 28.861 22.5614 28.3685C22.5735 27.87 22.5795 27.3715 22.5855 26.867C22.5915 24.4886 22.6035 22.1042 22.6035 19.7258C22.6035 19.5155 22.6335 19.4254 22.8739 19.4434C23.1924 19.4674 23.5167 19.4614 23.8352 19.4434C24.0215 19.4314 24.0695 19.4915 24.0635 19.6776C24.0455 20.9149 24.0395 22.1582 24.0335 23.3955C24.0215 25.0531 24.0215 26.7169 23.9975 28.3745C23.9794 29.5757 23.3846 30.2424 22.207 30.4286C21.7803 30.4946 21.3598 30.5547 20.9332 30.6088C20.0199 30.7229 19.4491 30.1883 19.371 29.1433C19.341 28.873 19.3529 28.5967 19.3529 28.2844Z" fill="#020202"/>
<path d="M43.0295 26.843C43.0295 27.1613 43.0355 27.4556 43.0295 27.7439C42.9994 28.807 42.5548 29.2994 41.5094 29.3535C40.8544 29.3836 40.1875 29.3655 39.5326 29.2994C38.6674 29.2154 38.1927 28.6808 38.1867 27.7859C38.1687 25.5276 38.1627 23.2634 38.1867 20.999C38.1987 20.002 38.7876 19.4675 39.7849 19.4554C40.3377 19.4494 40.8845 19.4494 41.4373 19.4554C42.3866 19.4735 42.9454 20.014 42.9815 20.963C43.0055 21.5816 42.9994 22.2002 43.0055 22.8249C43.0175 24.1522 43.0235 25.4796 43.0295 26.843Z" fill="#030303"/>
<path d="M33.6519 16.7584C43.7039 16.7584 53.726 16.7584 63.7479 16.7584C63.9222 16.7584 64.1204 16.6862 64.1264 17.0166C64.1325 17.335 63.9943 17.3409 63.7539 17.3409C49.7484 17.335 35.7429 17.335 21.7373 17.335C18.7751 17.335 15.813 17.335 12.8449 17.335C12.4543 17.335 12.4123 17.2809 12.4603 16.9085C12.4783 16.7944 12.5204 16.7463 12.6285 16.7523C12.7066 16.7584 12.7908 16.7523 12.8689 16.7523C19.7846 16.7584 26.7062 16.7584 33.6519 16.7584Z" fill="black"/>
<path d="M15.719 29.7915C15.8512 29.4792 15.8031 29.1789 15.8092 28.8786C15.8092 28.7524 15.8272 28.6683 15.9774 28.6503C16.392 28.5962 16.8065 28.5362 17.2391 28.4701C17.2512 29.0227 17.2812 29.5632 17.143 30.0918C16.9747 30.7465 16.5903 31.2209 15.9353 31.4372C15.3825 31.6173 14.8178 31.7375 14.2349 31.7855C13.6161 31.8336 13.2316 31.5633 13.0393 30.9746C12.9492 30.6984 12.9131 30.4101 12.9131 30.1158C12.9131 27.2209 12.9131 24.3319 12.9131 21.437C12.9131 21.1968 12.9371 20.9565 12.9912 20.7223C13.1654 19.9055 13.7243 19.449 14.5594 19.449C14.8478 19.449 15.1422 19.449 15.4306 19.449C16.6022 19.449 17.1671 19.9535 17.2512 21.1246C17.2872 21.6232 17.2512 22.1217 17.2572 22.6262C17.2572 22.7583 17.2031 22.7944 17.0769 22.8004C16.7104 22.8124 16.3378 22.8304 15.9714 22.8604C15.8272 22.8724 15.8092 22.8004 15.8092 22.6803C15.8151 22.3079 15.8151 21.9415 15.8092 21.5691C15.8031 21.1727 15.6349 20.9685 15.2804 20.9325C14.6856 20.8724 14.4453 21.0045 14.3611 21.437C14.3431 21.5331 14.3311 21.6352 14.3311 21.7313C14.3251 24.2838 14.319 26.8365 14.319 29.3891C14.319 29.4792 14.319 29.5693 14.3251 29.6593C14.3611 30.1158 14.5474 30.2599 14.998 30.1759C15.2684 30.1338 15.5568 30.1038 15.719 29.7915Z" fill="#010101"/>
<path d="M29.1094 26.543C29.2296 25.8943 28.9112 25.588 28.3705 25.3658C27.8537 25.1556 27.373 24.8672 26.8684 24.633C26.4417 24.4348 26.2315 24.0924 26.2254 23.636C26.2194 22.7531 26.2075 21.8762 26.2495 20.9933C26.2916 19.9783 26.8803 19.4437 27.8898 19.4497C28.3765 19.4497 28.8692 19.4077 29.3558 19.4918C30.0228 19.6059 30.4493 20.0624 30.5395 20.735C30.5935 21.1555 30.5575 21.5759 30.5755 21.9964C30.5815 22.1165 30.5515 22.1765 30.4133 22.1765C30.0528 22.1765 29.6923 22.1765 29.3318 22.2005C29.1455 22.2125 29.1155 22.1284 29.1215 21.9723C29.1335 21.732 29.1335 21.4918 29.1215 21.2515C29.1094 20.9092 28.9533 20.747 28.6048 20.717C28.4846 20.705 28.3644 20.711 28.2503 20.717C27.8657 20.741 27.6795 20.9092 27.6674 21.2936C27.6495 21.8762 27.6614 22.4528 27.6495 23.0354C27.6434 23.2877 27.7576 23.4558 27.9739 23.5579C28.4305 23.7861 28.8811 24.0204 29.3438 24.2306C30.4974 24.7531 30.5455 24.8252 30.5455 26.0685C30.5455 26.6991 30.5395 27.3298 30.5335 27.9604C30.5214 28.9454 29.9867 29.552 29.0073 29.6721C28.5988 29.7262 28.1902 29.7622 27.7816 29.7862C26.8143 29.8343 26.2795 29.3598 26.1954 28.3928C26.1834 28.2247 26.2075 28.0505 26.1834 27.8823C26.1293 27.564 26.2495 27.4378 26.5739 27.4439C26.8623 27.4499 27.1507 27.4078 27.4391 27.3838C27.5833 27.3718 27.6674 27.4018 27.6434 27.57C27.6314 27.6781 27.6374 27.7922 27.6434 27.9003C27.6434 28.3688 27.8417 28.537 28.3224 28.4889C28.9953 28.4228 29.0854 28.3268 29.0854 27.6541C29.0915 27.2937 29.1035 26.9334 29.1094 26.543Z" fill="#020203"/>
<path d="M54.891 21.4428C54.897 22.2837 54.915 23.0945 54.903 23.9054C54.903 24.1216 54.9811 24.1696 55.1734 24.1756C55.6421 24.1936 56.1107 24.2417 56.5793 24.2537C56.7416 24.2597 56.8077 24.2897 56.7957 24.4699C56.7776 24.7882 56.7776 25.1126 56.7957 25.4309C56.8077 25.6231 56.7476 25.6651 56.5613 25.6471C56.0747 25.5931 55.588 25.569 55.0953 25.515C54.9511 25.497 54.903 25.533 54.903 25.6832C54.915 26.7943 54.9211 27.9054 54.9211 29.0165C54.9211 29.1487 54.9691 29.1787 55.0893 29.1967C55.654 29.2688 56.2189 29.3589 56.7836 29.425C56.9578 29.443 57.054 29.479 57.042 29.6893C57.024 29.9955 57.036 30.3078 57.054 30.6202C57.06 30.7823 57.024 30.8544 56.8377 30.8244C55.7802 30.6622 54.7228 30.5001 53.6653 30.3559C53.443 30.3259 53.485 30.1817 53.485 30.0496C53.479 29.0766 53.4791 28.1096 53.473 27.1366C53.467 25.4849 53.467 23.8333 53.461 22.1816C53.455 21.3587 53.455 20.5419 53.4369 19.7191C53.4309 19.5089 53.491 19.4548 53.7013 19.4548C54.7228 19.4668 55.7442 19.4668 56.7656 19.4548C56.9519 19.4548 57 19.5029 56.9939 19.6891C56.9819 19.9954 56.9939 20.3077 57.0119 20.62C57.024 20.8122 56.9519 20.8542 56.7776 20.8482C56.2609 20.8242 55.7382 20.8362 55.2214 20.8002C54.933 20.7821 54.8489 20.8843 54.885 21.1485C54.897 21.2266 54.891 21.3227 54.891 21.4428Z" fill="#020202"/>
<path d="M32.2529 19.641C32.2289 19.4608 32.3191 19.4548 32.4332 19.4548C33.707 19.4548 34.9748 19.4608 36.2485 19.4548C36.3927 19.4548 36.4408 19.4908 36.4348 19.635C36.4228 19.9653 36.543 20.3858 36.3867 20.596C36.2365 20.7942 35.7859 20.6501 35.4735 20.656C35.0649 20.668 35.0649 20.656 35.0649 21.0705C35.0589 23.7432 35.0528 26.4159 35.0589 29.0826C35.0589 29.3229 34.9928 29.3829 34.7644 29.3769C34.4641 29.3649 34.1636 29.3829 33.8692 29.413C33.6589 29.4309 33.5989 29.3769 33.5989 29.1607C33.6108 27.2508 33.6169 25.3408 33.6229 23.4308C33.6229 22.62 33.6108 21.8092 33.6289 20.9984C33.6349 20.7521 33.5928 20.638 33.3104 20.668C33.034 20.6981 32.7517 20.662 32.4693 20.6801C32.295 20.692 32.2469 20.626 32.259 20.4578C32.265 20.1876 32.2529 19.9293 32.2529 19.641Z" fill="#010101"/>
<path d="M34.2667 36.6321C34.0624 36.6681 34.1465 36.8122 34.1465 36.9023C34.1405 37.7612 34.1345 38.6261 34.1465 39.485C34.1465 39.6892 34.1225 39.8033 33.8761 39.7672C33.6237 39.7312 33.2813 39.8754 33.1311 39.7072C33.0049 39.569 33.089 39.2327 33.089 38.9864C33.089 36.7582 33.095 34.5239 33.083 32.2956C33.083 32.0494 33.1371 31.9713 33.3894 31.9834C33.9783 32.0013 34.5731 31.9834 35.1619 31.9894C35.8769 31.9953 36.2915 32.3737 36.3095 33.0884C36.3335 33.8873 36.3215 34.6921 36.3095 35.4909C36.3035 35.8813 36.1834 36.2476 35.8228 36.4639C35.6425 36.572 35.7508 36.6981 35.7688 36.8002C35.967 37.7191 36.1653 38.6321 36.3876 39.545C36.4297 39.7252 36.4057 39.7613 36.2194 39.7672C35.4503 39.7853 35.4503 39.7913 35.2821 39.0345C35.1379 38.3798 34.9937 37.7312 34.8555 37.0765C34.7594 36.6321 34.7533 36.6321 34.2667 36.6321Z" fill="#010101"/>
<path d="M27.4489 33.2814C27.4489 33.3175 27.4489 33.3295 27.4489 33.3415C27.4309 33.5757 27.557 33.9241 27.4008 34.0262C27.1665 34.1763 26.818 34.0622 26.5236 34.0743C26.4034 34.0803 26.4094 33.9962 26.4094 33.9121C26.4094 33.7199 26.4214 33.5337 26.4034 33.3415C26.3794 33.0472 26.2291 32.9331 25.8867 32.9331C25.5261 32.9331 25.3819 33.0232 25.37 33.3295C25.3459 33.798 25.3579 34.2664 25.3579 34.741C25.3579 34.9992 25.5743 35.0832 25.7485 35.1854C26.1571 35.4196 26.5656 35.6419 26.9802 35.8641C27.3287 36.0502 27.4668 36.3386 27.4549 36.7229C27.4428 37.3115 27.4549 37.9062 27.4489 38.4947C27.4428 39.3716 27.0342 39.7741 26.1571 39.7741C25.9468 39.7741 25.7364 39.7741 25.5262 39.7741C24.8111 39.768 24.4146 39.4197 24.3245 38.7049C24.2283 37.9542 24.2283 37.9662 24.9674 37.9482C25.2377 37.9422 25.382 37.9662 25.3579 38.3085C25.3279 38.711 25.4781 38.8251 25.9047 38.8251C26.3072 38.8251 26.3973 38.723 26.4034 38.2966C26.4094 37.9242 26.3854 37.5578 26.4094 37.1854C26.4274 36.8911 26.3013 36.7229 26.0609 36.5908C25.6403 36.3626 25.2318 36.1103 24.8051 35.8881C24.4507 35.7019 24.3005 35.4136 24.3005 35.0352C24.2944 34.4226 24.2824 33.816 24.3005 33.2034C24.3245 32.3866 24.7331 32.0081 25.5442 31.9962C25.7245 31.9962 25.9047 31.9962 26.0849 31.9962C27.0403 31.9841 27.3888 32.3084 27.4489 33.2814Z" fill="#050505"/>
<path d="M39.4624 37.5455C39.7208 35.7677 39.9731 34.0079 40.2134 32.2481C40.2435 32.0378 40.3096 31.9538 40.5319 31.9778C40.7302 32.0018 40.9344 31.9898 41.1327 31.9838C41.265 31.9778 41.3009 32.0138 41.2769 32.158C40.8924 34.5184 40.5079 36.8848 40.1233 39.2512C40.0392 39.7677 40.0332 39.7678 39.5165 39.7678C38.8015 39.7678 38.8015 39.7678 38.6873 39.059C38.3208 36.7947 37.9543 34.5304 37.5818 32.2661C37.5397 32.0259 37.5998 31.9658 37.8281 31.9898C38.0745 32.0199 38.3929 31.8877 38.5491 32.0378C38.6873 32.17 38.6573 32.4883 38.6873 32.7226C38.9156 34.3142 39.1379 35.8998 39.3662 37.5154C39.4324 37.6175 39.4444 37.6956 39.3963 37.7857C39.4384 37.7197 39.4144 37.6296 39.4624 37.5455Z" fill="#030303"/>
<path d="M47.896 37.9473C48.5269 37.9473 48.5269 37.9473 48.4728 38.5419C48.3946 39.4428 48.0462 39.7611 47.145 39.7611C46.9466 39.7611 46.7424 39.7611 46.5441 39.7611C45.727 39.7611 45.3124 39.3467 45.3064 38.5239C45.3003 37.5929 45.3064 36.662 45.3064 35.7311C45.3064 34.9082 45.3064 34.0914 45.3064 33.2685C45.3124 32.3857 45.7149 31.9832 46.5922 31.9832C46.8746 31.9832 47.1509 31.9712 47.4334 31.9953C48.0282 32.0433 48.3946 32.3857 48.4488 32.9802C48.4788 33.3166 48.4668 33.6589 48.4848 34.0013C48.4908 34.1274 48.4547 34.1875 48.3226 34.1814C48.0402 34.1754 47.7037 34.2715 47.4994 34.1514C47.2892 34.0193 47.4453 33.6589 47.4274 33.4007C47.4033 33.0523 47.2951 32.9442 46.9106 32.9382C46.5021 32.9322 46.3579 33.0343 46.3518 33.3886C46.3458 35.0523 46.3458 36.71 46.3518 38.3737C46.3518 38.7461 46.49 38.8302 46.9647 38.8242C47.3072 38.8181 47.4093 38.7161 47.4213 38.3797C47.4274 37.9473 47.4274 37.9473 47.896 37.9473Z" fill="#020202"/>
<path d="M30.0938 34.2303C30.0938 34.5306 30.0998 34.8009 30.0938 35.0712C30.0878 35.2333 30.1358 35.2994 30.3101 35.2933C30.6285 35.2814 30.953 35.2933 31.2714 35.2873C31.4096 35.2814 31.4577 35.3174 31.4637 35.4675C31.4997 36.2363 31.5058 36.2363 30.7487 36.2363C30.0998 36.2363 30.0998 36.2363 30.0998 36.885C30.0998 37.4435 30.1058 38.0081 30.0938 38.5667C30.0878 38.7528 30.1299 38.831 30.3341 38.8189C30.6826 38.8009 31.0371 38.8189 31.3856 38.8129C31.5538 38.807 31.632 38.831 31.632 39.0351C31.6379 39.7679 31.65 39.7679 30.9169 39.7679C30.3582 39.7679 29.7933 39.7619 29.2346 39.7739C29.0844 39.7739 29.0303 39.7439 29.0303 39.5817C29.0363 37.1192 29.0363 34.6627 29.0303 32.2002C29.0303 32.02 29.0904 31.99 29.2526 31.99C29.9736 31.996 30.6946 31.996 31.4156 31.99C31.5838 31.99 31.632 32.038 31.632 32.2062C31.6439 32.9389 31.65 32.933 30.911 32.9389C30.6526 32.9389 30.3041 32.8549 30.1599 32.981C29.9857 33.1372 30.1178 33.4915 30.0998 33.7558C30.0878 33.8999 30.0938 34.0501 30.0938 34.2303Z" fill="#030303"/>
<path d="M14.531 39.101C14.8855 39.095 15.216 39.077 15.5464 39.083C16.1052 39.101 16.4116 39.3894 16.4777 39.9419C16.5017 40.1281 16.5138 40.3203 16.5138 40.5065C16.5198 41.7378 16.5138 42.969 16.5138 44.2002C16.5138 44.2783 16.5198 44.3624 16.5138 44.4405C16.4597 45.3414 16.1653 45.6177 15.258 45.6177C15.1078 45.6177 14.9576 45.6237 14.8074 45.6177C14.1465 45.5876 13.792 45.2693 13.7859 44.6086C13.768 43.0891 13.768 41.5635 13.7859 40.044C13.7859 39.5335 14.0143 39.2692 14.531 39.101Z" fill="black"/>
<path d="M52.5694 32.8957C52.1188 32.9197 51.6922 32.9318 51.2596 32.9197C51.0913 32.9137 51.0373 32.9678 51.0373 33.142C51.0433 33.7846 51.0433 34.4212 51.0373 35.0639C51.0373 35.2321 51.0793 35.2981 51.2535 35.2862C51.572 35.2741 51.8964 35.2921 52.2149 35.2801C52.3772 35.2741 52.4072 35.3342 52.4131 35.4843C52.4312 36.2291 52.4372 36.2291 51.7042 36.2291C51.0373 36.2291 51.0373 36.2291 51.0373 36.8957C51.0373 37.4544 51.0433 38.0189 51.0312 38.5775C51.0252 38.7636 51.0853 38.8177 51.2716 38.8118C51.6441 38.7997 52.0106 38.8118 52.3831 38.8057C52.5333 38.7997 52.5874 38.8418 52.5934 39.0039C52.6235 39.7607 52.6295 39.7607 51.8664 39.7607C51.3257 39.7607 50.7849 39.7487 50.2441 39.7667C50.0218 39.7727 49.9858 39.7006 49.9918 39.4964C49.9978 37.0759 49.9978 34.6495 49.9918 32.229C49.9918 32.0488 50.0158 31.9708 50.2261 31.9768C50.9351 31.9888 51.6502 31.9888 52.3591 31.9768C52.5454 31.9708 52.6055 32.0248 52.5874 32.211C52.5754 32.4332 52.5874 32.6555 52.5694 32.8957Z" fill="#010101"/>
<path d="M62.8321 11.4923C62.9883 11.6904 63.1265 11.8646 63.3248 12.1229C63.3248 11.4923 63.3428 10.9517 63.3187 10.4112C63.3068 10.1349 63.3909 10.0567 63.6492 10.0928C63.8955 10.1228 64.214 9.99067 64.3702 10.1409C64.5205 10.297 64.4123 10.6154 64.4123 10.8616C64.4183 11.8226 64.4063 12.7836 64.4183 13.7385C64.4183 13.9547 64.3522 13.9787 64.1539 14.0028C63.6432 14.0569 63.2827 13.9187 62.9883 13.4622C62.6398 12.9217 62.2072 12.4412 61.7686 11.8766C61.7686 12.5373 61.7626 13.1259 61.7746 13.7085C61.7806 13.9187 61.7446 14.0268 61.5042 13.9908C61.2398 13.9547 60.8853 14.1049 60.7352 13.9307C60.6029 13.7806 60.6931 13.4382 60.6931 13.18C60.6931 12.231 60.6991 11.282 60.687 10.333C60.687 10.1349 60.7471 10.1048 60.9334 10.0808C61.5042 10.0027 61.9248 10.1649 62.2132 10.6934C62.3754 10.9757 62.6158 11.216 62.8321 11.4923Z" fill="black"/>
<path d="M45.9112 13.9894C45.3584 14.0735 44.9919 13.9113 44.6975 13.4368C44.373 12.9203 43.9465 12.4638 43.5199 11.9173C43.5199 12.578 43.5139 13.1605 43.5258 13.7492C43.5319 13.9413 43.4838 14.0255 43.2795 14.0014C43.0031 13.9714 42.6366 14.1215 42.4744 13.9413C42.3362 13.7912 42.4263 13.4308 42.4263 13.1605C42.4263 12.2296 42.4323 11.2987 42.4203 10.3677C42.4143 10.1335 42.4924 10.1035 42.7027 10.0854C43.2255 10.0374 43.598 10.1635 43.8924 10.644C44.1988 11.1425 44.6074 11.575 45.016 12.0975C45.016 11.4728 45.022 10.9143 45.0099 10.3617C45.0039 10.1635 45.046 10.0735 45.2683 10.0914C45.5327 10.1154 45.8872 10.0134 46.0494 10.1455C46.2236 10.2897 46.1034 10.6501 46.1034 10.9143C46.1095 11.8573 46.1095 12.7942 46.1034 13.7371C46.1095 13.8453 46.1635 14.0134 45.9112 13.9894Z" fill="black"/>
<path d="M52.1186 13.9898C51.9384 14.0018 51.9444 13.8997 51.9444 13.7916C51.9444 12.6204 51.9444 11.4492 51.9444 10.284C51.9444 10.1279 51.9985 10.0798 52.1487 10.0798C53.0679 10.0858 53.9872 10.0858 54.9125 10.0798C55.0747 10.0798 55.1108 10.1339 55.1108 10.284C55.1288 11.0227 55.1348 11.0228 54.3898 11.0228C54.0413 11.0228 53.6868 11.0348 53.3383 11.0167C53.104 11.0048 53.0379 11.0708 53.0258 11.3111C53.0198 11.5814 53.146 11.5933 53.3443 11.5873C53.795 11.5753 54.2456 11.5933 54.6962 11.5814C54.8885 11.5753 54.9245 11.6414 54.9245 11.8216C54.9245 12.4642 54.9305 12.4642 54.2936 12.4642C53.9451 12.4642 53.5907 12.4763 53.2422 12.4582C52.9898 12.4462 53.0319 12.6084 53.0379 12.7525C53.0379 12.8967 52.9898 13.0589 53.2422 13.0528C53.7829 13.0408 54.3236 13.0589 54.8645 13.0408C55.0988 13.0348 55.1468 13.1129 55.1468 13.3351C55.1408 13.9898 55.1468 13.9898 54.4919 13.9898C53.7108 13.9898 52.9297 13.9898 52.1186 13.9898Z" fill="black"/>
<path d="M15.5266 10.9026C15.4665 11.0768 15.3403 11.0167 15.2382 11.0167C14.7275 11.0227 14.2168 11.0348 13.7061 11.0167C13.4537 11.0048 13.4718 11.1368 13.4657 11.3111C13.4597 11.4913 13.4718 11.6054 13.7121 11.5933C14.1807 11.5693 14.6494 11.5933 15.1241 11.5814C15.2983 11.5753 15.3403 11.6354 15.3403 11.8035C15.3524 12.4642 15.3584 12.4642 14.6915 12.4642C14.349 12.4642 14.0125 12.4763 13.67 12.4582C13.4117 12.4462 13.4718 12.6204 13.4718 12.7525C13.4718 12.8846 13.4056 13.0589 13.664 13.0528C14.2048 13.0408 14.7455 13.0589 15.2863 13.0468C15.4966 13.0408 15.5867 13.0769 15.5807 13.3171C15.5686 13.9838 15.5807 13.9838 14.9138 13.9838C14.1507 13.9838 13.3937 13.9778 12.6306 13.9898C12.4563 13.9898 12.3662 13.9717 12.3662 13.7555C12.3783 12.6084 12.3783 11.4552 12.3662 10.3081C12.3662 10.1098 12.4383 10.0798 12.6066 10.0798C13.4958 10.0858 14.385 10.0918 15.2743 10.0798C15.4845 10.0798 15.5327 10.1519 15.5146 10.3381C15.5146 10.5183 15.5266 10.6984 15.5266 10.9026Z" fill="black"/>
<path d="M28.7277 10.0852C28.9981 10.0431 29.0581 10.1453 29.0522 10.3795C29.0401 11.0221 29.0522 11.0221 28.4153 11.0221C28.0067 11.0221 27.5921 11.0341 27.1835 11.0162C26.9132 11.0101 27.0033 11.1963 26.9973 11.3224C26.9852 11.4546 26.9552 11.5987 27.1895 11.5867C27.6702 11.5686 28.1509 11.5927 28.6315 11.5747C28.8238 11.5686 28.8598 11.6347 28.8598 11.8149C28.8598 12.4576 28.8659 12.4576 28.2229 12.4576C27.8745 12.4576 27.52 12.4636 27.1715 12.4576C26.9011 12.4516 27.0033 12.6438 26.9913 12.7699C26.9852 12.896 26.9312 13.0582 27.1715 13.0522C27.7303 13.0402 28.2951 13.0522 28.8539 13.0462C29.0281 13.0462 29.0942 13.0822 29.0942 13.2744C29.1002 13.9831 29.1123 13.9831 28.4092 13.9831C27.6582 13.9831 26.9072 13.9771 26.1561 13.9891C25.9758 13.9891 25.8917 13.9712 25.8978 13.7549C25.9097 12.6017 25.9097 11.4546 25.8978 10.3014C25.8978 10.1032 25.9698 10.0732 26.1381 10.0792C26.9973 10.0912 27.8504 10.0852 28.7277 10.0852Z" fill="black"/>
<path d="M40.7434 13.9898C39.9443 13.9898 39.1693 13.9838 38.4001 13.9958C38.2139 13.9958 38.1418 13.9538 38.1478 13.7496C38.1599 12.6084 38.1599 11.4672 38.1478 10.326C38.1478 10.1218 38.2079 10.0798 38.4001 10.0798C39.2834 10.0918 40.1606 10.0918 41.0439 10.0798C41.2421 10.0798 41.2962 10.1279 41.2962 10.326C41.2962 11.0227 41.3022 11.0228 40.6173 11.0228C40.2267 11.0228 39.8362 11.0348 39.4456 11.0167C39.1752 11.0048 39.2293 11.1729 39.2173 11.3291C39.2053 11.5032 39.2353 11.5993 39.4516 11.5933C39.9323 11.5753 40.413 11.5933 40.8936 11.5814C41.0679 11.5753 41.1039 11.6354 41.11 11.8035C41.1219 12.4642 41.128 12.4642 40.461 12.4642C40.1186 12.4642 39.7821 12.4763 39.4396 12.4582C39.1693 12.4462 39.2233 12.6144 39.2173 12.7705C39.2113 12.9267 39.1993 13.0648 39.4396 13.0529C39.9623 13.0348 40.479 13.0648 41.0018 13.0408C41.2782 13.0288 41.3623 13.1249 41.3202 13.3832C41.3142 13.4012 41.3202 13.4252 41.3202 13.4432C41.3202 13.9898 41.3202 13.9898 40.7434 13.9898Z" fill="black"/>
<path d="M9.99247 43.1608C10.329 42.7403 10.7195 42.41 11.086 42.0616C11.3204 41.8394 11.4525 41.6051 11.4225 41.2748C11.3985 40.9685 11.4225 40.6562 11.4165 40.3439C11.4105 40.0135 11.3023 39.8934 11.0259 39.8934C10.7436 39.8934 10.6414 40.0075 10.6354 40.3319C10.6294 40.9685 10.6294 40.9565 9.9805 40.9565C9.78818 40.9565 9.71013 40.9084 9.72809 40.7042C9.75219 40.3979 9.70407 40.0857 9.78219 39.7793C9.89639 39.3529 10.1427 39.1247 10.5813 39.0946C10.8817 39.0766 11.1822 39.0766 11.4826 39.1006C11.8851 39.1306 12.1856 39.3889 12.2517 39.7854C12.3718 40.5001 12.3117 41.2208 12.2877 41.9415C12.2817 42.1517 12.1315 42.3079 11.9873 42.446C11.6748 42.7403 11.3684 43.0466 11.05 43.3289C10.8637 43.4971 10.7736 43.6833 10.7976 43.9355C10.8217 44.2118 10.6835 44.5782 10.8457 44.7464C11.0259 44.9326 11.3985 44.7884 11.6808 44.8064C11.7229 44.8125 11.759 44.8064 11.801 44.8064C12.2576 44.8064 12.2396 44.8064 12.2637 45.2629C12.2757 45.5452 12.2096 45.6473 11.9091 45.6293C11.3204 45.6052 10.7255 45.6233 10.1367 45.6233C10.0345 45.6233 9.89639 45.6593 9.90237 45.4791C9.90836 44.7584 9.91442 44.0376 9.92041 43.3169C9.93238 43.2689 9.96246 43.2268 9.99247 43.1608Z" fill="black"/>
<path d="M66.2121 39.3222C66.4224 39.142 66.6507 39.0879 66.8971 39.094C67.1074 39.094 67.3176 39.094 67.5279 39.094C68.0386 39.1059 68.4052 39.4002 68.4292 39.9048C68.4592 40.5715 68.4412 41.2441 68.4412 41.9168C68.4412 42.139 68.285 42.2772 68.1408 42.4213C67.8403 42.7156 67.546 43.0159 67.2275 43.2862C66.9872 43.4904 66.9451 43.7426 66.9451 44.037C66.9571 44.7937 66.9511 44.7937 67.6902 44.7937C67.7623 44.7937 67.8284 44.7937 67.9004 44.7937C68.4412 44.7937 68.5193 44.8898 68.4232 45.4364C68.4052 45.5505 68.3451 45.5805 68.2429 45.5805C67.57 45.5805 66.9031 45.5805 66.2301 45.5805C66.098 45.5805 66.0559 45.5204 66.0559 45.4003C66.0559 44.7577 66.0559 44.1211 66.0619 43.4784C66.0679 43.2621 66.17 43.076 66.3263 42.9258C66.6627 42.6075 66.9872 42.2892 67.3236 41.9708C67.4919 41.8087 67.57 41.6285 67.564 41.3823C67.546 41.0099 67.558 40.6435 67.558 40.2712C67.558 40.0309 67.4498 39.8927 67.1975 39.8927C66.9451 39.8927 66.8009 40.0009 66.8009 40.2712C66.8009 40.3012 66.8009 40.3312 66.7949 40.3612C66.7708 40.5474 66.891 40.7997 66.7348 40.9018C66.5425 41.0279 66.2662 40.9318 66.0319 40.9438C65.9597 40.9438 65.9117 40.9138 65.9177 40.8417C65.9477 40.3192 65.7915 39.7786 66.2121 39.3222Z" fill="black"/>
<path d="M63.1548 40.4819C63.1247 40.6502 63.2389 40.8723 63.0826 40.9144C62.8363 40.9745 62.5659 40.9684 62.3136 40.9084C62.2595 40.8964 62.2595 40.8303 62.2595 40.7822C62.2655 40.4459 62.2295 40.1036 62.3136 39.7672C62.4157 39.3768 62.7282 39.1126 63.1367 39.1005C63.3951 39.0886 63.6594 39.0886 63.9178 39.1005C64.3804 39.1186 64.7049 39.3829 64.771 39.8333C64.8731 40.518 64.8131 41.2087 64.8071 41.8994C64.8071 42.0856 64.6929 42.2357 64.5607 42.3679C64.2303 42.6862 63.9058 43.0105 63.5634 43.3228C63.3951 43.473 63.299 43.6352 63.317 43.8694C63.329 44.0976 63.329 44.3319 63.317 44.5601C63.305 44.7403 63.371 44.8064 63.5573 44.8004C63.8878 44.7883 64.2182 44.8004 64.5487 44.7943C64.7049 44.7883 64.7771 44.8184 64.783 45.0045C64.795 45.5872 64.8071 45.5811 64.2243 45.5811C63.7135 45.5811 63.2028 45.5692 62.6921 45.5872C62.4878 45.5932 62.4157 45.5391 62.4217 45.3229C62.4338 44.7643 62.4398 44.1997 62.4217 43.6412C62.4097 43.2868 62.5659 43.0286 62.8063 42.8003C63.0947 42.5241 63.3891 42.2538 63.6775 41.9775C63.8637 41.8033 63.9539 41.5931 63.9419 41.3348C63.9298 41.0466 63.9419 40.7522 63.9419 40.464C63.9419 40.0195 63.8518 39.8934 63.5513 39.8934C63.2449 39.8874 63.1548 40.0135 63.1548 40.4819Z" fill="black"/>
<path d="M17.2398 13.9902C16.9454 13.9902 16.675 13.9902 16.3506 13.9902C16.6991 13.4677 17.0235 12.9812 17.3539 12.5007C17.6905 12.0022 17.6905 12.0022 17.366 11.5157C17.0595 11.0533 16.7471 10.5908 16.4107 10.0863C16.8312 10.0863 17.1978 10.0923 17.5582 10.0863C17.6905 10.0863 17.7264 10.1643 17.7806 10.2484C17.9668 10.5427 18.1531 10.831 18.3574 11.1493C18.5496 10.843 18.7359 10.5728 18.8981 10.2905C18.9883 10.1283 19.1024 10.0743 19.2827 10.0803C19.5951 10.0923 19.9136 10.0863 20.274 10.0863C19.9015 10.6448 19.5651 11.1793 19.2045 11.6839C19.0423 11.9121 19.0303 12.0743 19.1985 12.3025C19.5831 12.8311 19.9376 13.3896 20.3401 13.9902C19.9075 13.9902 19.517 13.9902 19.1264 13.9902C19.0303 13.9902 19.0062 13.8941 18.9702 13.8281C18.79 13.5518 18.6097 13.2755 18.4415 12.9992C18.3633 12.8791 18.3093 12.8791 18.2372 12.9992C18.087 13.2455 17.9067 13.4737 17.7746 13.732C17.6544 13.9542 17.4981 14.0263 17.2398 13.9902Z" fill="black"/>
<path d="M49.5843 10.0206C50.095 10.0806 50.4976 10.2969 50.816 10.6692C50.9241 10.7953 50.9181 10.8614 50.786 10.9515C50.6958 11.0116 50.6057 11.0776 50.5276 11.1557C50.2872 11.3899 50.083 11.486 49.7766 11.1857C49.5062 10.9154 49.0736 10.9515 48.7731 11.1497C48.4487 11.3719 48.2684 11.8344 48.3465 12.2308C48.4187 12.6152 48.6109 12.9095 48.9894 13.0236C49.3619 13.1317 49.7044 13.0416 49.9688 12.7473C50.089 12.6152 50.1731 12.5971 50.3113 12.7172C50.4375 12.8314 50.5756 12.9335 50.7259 13.0056C51.0022 13.1437 50.9061 13.2759 50.7619 13.444C50.2092 14.0686 49.1637 14.2608 48.3285 13.8885C47.5715 13.5522 47.1028 12.7053 47.199 11.8584C47.3492 10.6212 48.2745 9.90039 49.5843 10.0206Z" fill="black"/>
<path d="M22.0946 10.2904C22.9478 9.876 23.7589 9.85804 24.534 10.4406C24.582 10.4766 24.6241 10.5187 24.6661 10.5607C24.8825 10.7409 24.8825 10.891 24.6241 11.0292C24.5881 11.0472 24.558 11.0772 24.528 11.1012C24.3838 11.2094 24.2576 11.3715 24.0954 11.4136C23.9272 11.4556 23.849 11.2214 23.6988 11.1433C23.3863 10.9751 23.0739 10.9451 22.7615 11.1313C22.407 11.3415 22.2748 11.6839 22.2868 12.0743C22.2988 12.4887 22.4671 12.831 22.8756 12.9992C23.2842 13.1674 23.6388 13.0473 23.9331 12.741C24.0413 12.6268 24.1254 12.6028 24.2516 12.7109C24.4018 12.843 24.57 12.9572 24.7383 13.0592C24.8885 13.1493 24.9005 13.2154 24.7863 13.3535C24.2696 13.9782 23.3443 14.2425 22.5272 13.9842C21.722 13.7259 21.1933 13.0232 21.1513 12.1764C21.1092 11.3715 21.4156 10.7529 22.0946 10.2904Z" fill="black"/>
<path d="M43.65 32.0667C43.6561 34.5593 43.65 37.0218 43.6621 39.4842C43.6621 39.7305 43.5899 39.7906 43.3616 39.7726C43.1213 39.7485 42.8028 39.8506 42.6646 39.7305C42.5025 39.5864 42.6166 39.2621 42.6106 39.0158C42.6046 36.7635 42.6106 34.5112 42.6046 32.2589C42.6046 32.0307 42.6586 31.9526 42.881 31.9886C43.1333 32.0187 43.3977 31.9286 43.65 32.0667Z" fill="black"/>
<path d="M33.971 44.699C33.9109 44.8792 33.8388 45.0414 33.8087 45.2036C33.7667 45.4318 33.6345 45.4558 33.4302 45.4739C33.1599 45.4918 33.0637 45.3957 32.9796 45.1375C32.7152 44.2906 32.4148 43.4558 32.1324 42.6209C32.0964 42.5188 32.0663 42.4167 32.0303 42.3086C32.7573 42.2185 32.7573 42.2185 32.9556 42.8611C33.0998 43.3297 33.25 43.7981 33.4543 44.2666C33.6465 43.678 33.8568 43.0954 34.0311 42.5008C34.0911 42.2966 34.1993 42.2666 34.3736 42.2786C34.5538 42.2906 34.728 42.2305 34.8062 42.5008C34.9744 43.1014 35.1907 43.69 35.413 44.3687C35.6052 43.7321 35.7855 43.1795 35.9357 42.6269C36.0078 42.3687 36.104 42.2185 36.4044 42.2786C36.5185 42.3026 36.6447 42.2846 36.8009 42.2846C36.6868 42.6329 36.5846 42.9512 36.4765 43.2636C36.2482 43.9303 36.0078 44.597 35.8035 45.2696C35.7434 45.4739 35.6233 45.4798 35.4731 45.4618C35.3108 45.4438 35.1246 45.5459 35.0465 45.2756C34.8662 44.675 34.6439 44.0924 34.4216 43.4618C34.2594 43.8882 34.1152 44.2846 33.971 44.699Z" fill="black"/>
<path d="M35.9944 13.0297C36.3369 13.0297 36.6433 13.0357 36.9558 13.0297C37.1 13.0237 37.136 13.0778 37.142 13.2159C37.178 13.9907 37.1841 13.9907 36.409 13.9907C35.73 13.9907 35.0511 13.9847 34.3721 13.9967C34.1979 13.9967 34.1318 13.9667 34.1318 13.7685C34.1438 12.6213 34.1378 11.4681 34.1318 10.321C34.1318 10.1468 34.1618 10.0687 34.3601 10.0807C34.5704 10.0987 34.7807 10.0987 34.991 10.0807C35.2013 10.0627 35.2614 10.1287 35.2614 10.345C35.2494 11.1257 35.2734 11.9065 35.2494 12.6814C35.2373 12.9817 35.3335 13.0718 35.6159 13.0297C35.724 13.0177 35.8442 13.0297 35.9944 13.0297Z" fill="black"/>
<path d="M30.1691 12.9076C30.1691 12.0307 30.1751 11.1779 30.1631 10.331C30.1631 10.1388 30.2111 10.0608 30.4094 10.0848C30.6858 10.1148 31.0523 9.96461 31.2086 10.1448C31.3467 10.301 31.2566 10.6553 31.2566 10.9256C31.2566 11.5562 31.2626 12.1869 31.2566 12.8115C31.2566 12.9857 31.3046 13.0337 31.4789 13.0277C31.9596 13.0158 32.4403 13.0337 32.9209 13.0217C33.1072 13.0158 33.1552 13.0758 33.1552 13.256C33.1613 13.9828 33.1733 13.9828 32.4583 13.9828C31.7673 13.9828 31.0763 13.9767 30.3914 13.9887C30.2232 13.9887 30.1631 13.9467 30.1691 13.7725C30.1811 13.4963 30.1691 13.22 30.1691 12.9076Z" fill="black"/>
<path d="M48.6291 45.3059C48.0223 45.5281 47.4214 45.408 46.8266 45.438C46.6884 45.444 46.6944 45.3479 46.6944 45.2578C46.6944 44.3269 46.6944 43.396 46.6944 42.471C46.6944 42.3509 46.7304 42.2788 46.8626 42.2848C47.3614 42.3028 47.86 42.2367 48.3587 42.3449C49.0256 42.489 49.5244 43.0056 49.5845 43.6122C49.6625 44.423 49.3441 44.9996 48.6291 45.3059Z" fill="black"/>
<path d="M42.5925 44.6802C42.5925 43.9474 42.6044 43.2508 42.5864 42.548C42.5804 42.3138 42.6585 42.2657 42.8748 42.2717C43.2654 42.2898 43.6559 42.2657 44.0464 42.2778C44.8576 42.2957 45.2602 42.7342 45.1941 43.509C45.1701 43.8093 45.0258 44.0495 44.7675 44.1877C44.5632 44.2958 44.5873 44.3859 44.7074 44.5421C44.9117 44.8124 45.0859 45.1006 45.3083 45.4309C45.0378 45.4309 44.8275 45.4249 44.6113 45.4309C44.4911 45.437 44.431 45.3649 44.3769 45.2808C44.2207 45.0466 44.0705 44.8124 43.9083 44.5841C43.8662 44.524 43.8362 44.452 43.74 44.4339C43.3795 44.3559 43.2774 44.4339 43.2774 44.7943C43.2774 44.9144 43.2654 45.0345 43.2774 45.1546C43.3074 45.3889 43.2113 45.443 42.989 45.437C42.5143 45.419 42.5925 45.473 42.5864 45.0345C42.5925 44.9325 42.5925 44.8184 42.5925 44.6802Z" fill="black"/>
<path d="M40.8348 44.4707C40.955 44.747 41.0571 45.0053 41.1653 45.2636C41.2133 45.3777 41.2194 45.4558 41.0511 45.4438C40.9489 45.4377 40.8468 45.4317 40.7507 45.4438C40.5464 45.4738 40.4443 45.3837 40.3721 45.1975C40.2039 44.741 40.1919 44.747 39.7052 44.747C39.6451 44.747 39.585 44.7531 39.525 44.747C39.0743 44.669 38.7559 44.7771 38.6718 45.2876C38.6478 45.4258 38.0109 45.5218 37.9327 45.4137C37.8786 45.3416 37.9508 45.2756 37.9748 45.2215C38.3594 44.3026 38.7619 43.3957 39.1344 42.4708C39.2546 42.1705 39.4769 42.3206 39.6632 42.2846C39.8194 42.2545 39.9035 42.3146 39.9696 42.4767C40.252 43.1374 40.5404 43.7921 40.8348 44.4707Z" fill="black"/>
<path d="M28.5703 44.8015C28.5343 44.8676 28.5163 44.9096 28.4922 44.9576C28.2459 45.5163 28.2519 45.5163 27.585 45.4022C28.0116 44.3931 28.4321 43.3901 28.8708 42.3931C28.9729 42.1588 29.2072 42.315 29.3815 42.285C29.4897 42.267 29.5798 42.2789 29.6398 42.4171C30.0364 43.3721 30.445 44.321 30.8476 45.276C30.8656 45.318 30.9077 45.3601 30.8656 45.4141C30.8055 45.4922 30.1986 45.4381 30.1385 45.348C30.1325 45.3421 30.1266 45.3301 30.1266 45.324C30.0364 44.7234 29.6158 44.6934 29.1412 44.7474C28.9549 44.7655 28.7626 44.6994 28.5703 44.8015Z" fill="black"/>
<path d="M58.3511 10.2177C58.3511 10.0855 58.4172 10.0915 58.4953 10.0855C59.4446 10.0014 59.4446 9.99542 59.4446 10.9444C59.4446 11.8633 59.4326 12.7823 59.4506 13.7012C59.4567 13.9474 59.3725 14.0075 59.1503 13.9895C58.964 13.9714 58.7717 13.9714 58.5794 13.9895C58.3872 14.0075 58.3451 13.9354 58.3511 13.7552C58.3571 12.5901 58.3511 11.4189 58.3511 10.2177Z" fill="black"/>
<path d="M62.0508 21.7134C62.0568 22.6383 62.0568 23.5393 62.0508 24.4402C62.0508 24.5903 62.0387 24.7405 62.0027 24.8846C61.9306 25.2149 61.7384 25.3471 61.3958 25.323C61.2877 25.3171 61.1796 25.293 61.0714 25.281C60.4706 25.2149 60.4706 25.221 60.4706 24.6323C60.4646 23.4792 60.4705 22.332 60.4525 21.1788C60.4465 20.9506 60.5126 20.8785 60.7349 20.9086C60.8912 20.9326 61.0533 20.9206 61.2156 20.9265C61.8405 20.9806 61.9366 21.0707 62.0508 21.7134Z" fill="#F7F7F7"/>
<path d="M41.5671 22.8191C41.5732 24.3807 41.5792 25.9122 41.5792 27.4378C41.5792 27.9964 41.429 28.1405 40.8642 28.1405C40.6418 28.1405 40.4256 28.1345 40.2032 28.1225C39.7887 28.0924 39.6204 27.9122 39.6204 27.4859C39.6204 26.0744 39.6204 24.6629 39.6204 23.2515C39.6204 22.6329 39.6084 22.0143 39.6084 21.3896C39.6084 20.813 39.7706 20.6569 40.3355 20.6509C40.5277 20.6509 40.714 20.6449 40.9062 20.6509C41.3749 20.6629 41.5611 20.8431 41.5611 21.3116C41.5671 21.8101 41.5671 22.2966 41.5671 22.8191Z" fill="#F9F9F9"/>
<path d="M35.1448 33.0475C35.265 33.1737 35.283 33.3118 35.283 33.456C35.283 34.0325 35.289 34.6151 35.283 35.1917C35.277 35.5882 35.1388 35.7263 34.7362 35.7323C34.1534 35.7383 34.1534 35.7383 34.1534 35.1437C34.1534 34.483 34.1594 33.8223 34.1475 33.1677C34.1475 32.9935 34.1775 32.9034 34.3758 32.9274C34.6221 32.9575 34.8925 32.8613 35.1448 33.0475Z" fill="#F9F9FA"/>
<path d="M14.6709 42.6994C14.6709 41.9006 14.6709 41.1318 14.6709 40.363C14.6709 40.0027 14.7611 39.9066 15.0614 39.8885C15.464 39.8705 15.6082 39.9666 15.6142 40.333C15.6263 41.6723 15.6263 43.0117 15.6142 44.351C15.6082 44.7414 15.5001 44.8196 15.1096 44.8075C14.7671 44.7955 14.6709 44.6934 14.6709 44.321C14.6709 43.7865 14.6709 43.258 14.6709 42.6994Z" fill="#FCFCFD"/>
<path d="M48.5932 44.5369C48.2748 44.8372 47.8963 44.8012 47.5297 44.8012C47.4096 44.8012 47.4155 44.7171 47.4155 44.639C47.4155 44.1285 47.4155 43.618 47.4155 43.1074C47.4155 43.0474 47.3915 42.9754 47.4937 42.9393C47.8481 42.8192 48.461 42.9873 48.6774 43.2817C48.9477 43.648 48.9237 44.1165 48.5932 44.5369Z" fill="white"/>
<path d="M43.6888 42.9392C43.839 42.9392 43.9592 42.9272 44.0794 42.9452C44.3257 42.9753 44.4879 43.1074 44.4939 43.3717C44.4939 43.6179 44.3557 43.756 44.1094 43.7921C44.0493 43.7981 43.9892 43.8101 43.9291 43.8101C43.13 43.7981 43.3162 43.9243 43.2742 43.2095C43.2501 42.8432 43.4845 42.9573 43.6888 42.9392Z" fill="#FAFCFE"/>
<path d="M39.4022 43.5206C39.4563 43.4005 39.4923 43.3044 39.5585 43.1482C39.6786 43.4425 39.7627 43.6828 39.8709 43.917C39.931 44.0491 39.9009 44.0972 39.7627 44.0972C39.5825 44.0972 39.4082 44.0972 39.21 44.0972C39.2159 43.8869 39.3481 43.7248 39.4022 43.5206Z" fill="white"/>
<path d="M29.0874 43.4864C29.1354 43.3783 29.1775 43.2882 29.2376 43.156C29.3578 43.4503 29.4659 43.7086 29.574 43.9669C29.6161 44.063 29.6161 44.123 29.4899 44.117C29.4779 44.117 29.4719 44.117 29.4599 44.117C28.805 44.1771 28.799 44.165 29.0874 43.4864Z" fill="#E7F2F7"/>
</g>
<defs>
<clipPath id="clip0_336_30146">
<rect width="76.664" height="73.0133" fill="white" transform="translate(0.834961 0.820068)"/>
</clipPath>
</defs>
</svg>
