<svg width="77" height="38" viewBox="0 0 77 38" fill="none" xmlns="http://www.w3.org/2000/svg">
<g clip-path="url(#clip0_336_29944)">
<path d="M59.5737 26.8675C60.289 27.1284 60.7767 27.4546 60.9393 28.1396C61.0694 28.7267 60.9068 29.2486 60.4516 29.64C59.7688 30.2272 58.9235 30.3902 58.0781 30.4228C56.875 30.4554 55.6395 30.4228 54.4365 30.4228C54.2088 30.4228 54.1113 30.3576 54.1113 30.0966C54.1113 28.0417 54.1113 26.0194 54.1113 23.9645C54.1113 23.9319 54.1438 23.8993 54.1438 23.8014C54.8267 23.7687 55.5095 23.6709 56.1922 23.6709C57.1351 23.6709 58.1105 23.7361 59.0535 23.834C59.4111 23.8666 59.7688 24.0623 60.0939 24.258C60.9393 24.7799 60.9718 25.7584 60.1915 26.3782C59.9964 26.5739 59.8013 26.7044 59.5737 26.8675ZM56.4848 29.2812C57.0376 29.1834 57.5253 29.1507 58.013 29.0529C58.3056 28.9877 58.4682 28.7593 58.5007 28.4331C58.5007 28.1069 58.3707 27.846 58.0455 27.7808C57.5253 27.6829 57.0051 27.6503 56.4524 27.5525C56.4524 28.0743 56.4524 28.4984 56.4524 28.9224C56.4524 28.9877 56.4524 29.0855 56.4848 29.2812ZM56.4524 26.3456C56.9726 26.2804 57.4278 26.2804 57.883 26.1499C58.0781 26.1172 58.3056 25.8237 58.3056 25.6606C58.3056 25.4975 58.0781 25.204 57.9155 25.1713C57.5578 25.0408 57.1676 25.0735 56.7775 25.0082C56.5499 24.9756 56.4524 25.1061 56.4848 25.3018C56.4524 25.628 56.4524 25.9216 56.4524 26.3456Z" fill="white"/>
<path d="M48.6121 23.67C49.425 23.67 50.2378 23.7353 50.9532 24.0941C52.2212 24.6811 52.904 25.8228 52.8715 27.1602C52.8065 28.5627 51.9611 29.737 50.6606 30.161C49.1974 30.6503 47.7343 30.6829 46.3037 30.0958C45.1332 29.6065 44.4829 28.6932 44.3528 27.4537C44.1903 26.1816 44.678 25.1378 45.7834 24.3876C46.6288 23.8331 47.6042 23.6047 48.6121 23.67ZM50.4004 27.1275C50.3679 27.1275 50.3679 27.1275 50.3354 27.1275C50.3354 27.0297 50.3354 26.8992 50.3354 26.8014C50.2704 25.8554 49.6526 25.2031 48.7422 25.1378C47.8318 25.0726 47.1165 25.5618 46.9214 26.5078C46.8239 26.9644 46.8564 27.4537 46.954 27.9104C47.084 28.5953 47.7018 29.052 48.352 29.1173C49.2299 29.1825 49.8477 28.8889 50.1403 28.1713C50.3029 27.8125 50.3354 27.4537 50.4004 27.1275Z" fill="white"/>
<path d="M36.8508 26.476C36.8508 27.7154 36.8508 28.9223 36.8508 30.1618C34.9325 30.488 33.0467 30.7163 31.1608 30.0966C29.8928 29.6725 29.0799 28.7919 29.0149 27.3893C28.9499 26.0846 29.5027 25.0734 30.6731 24.421C31.4535 23.9643 32.2988 23.8013 33.2093 23.736C34.3473 23.6381 35.4853 23.736 36.6233 23.9643C36.4932 24.4536 36.3631 24.9103 36.2331 25.3343C35.4527 25.269 34.7049 25.2038 33.9571 25.1712C33.5344 25.1712 33.1117 25.269 32.7215 25.3996C32.0062 25.6605 31.551 26.1824 31.5185 26.9652C31.486 27.7807 31.8111 28.4004 32.5914 28.7592C33.1442 29.0201 33.7294 29.0854 34.3147 29.0528C34.5748 29.0528 34.6724 28.9223 34.6724 28.6613V28.6287C34.6724 27.6828 34.7699 27.7807 33.8921 27.8133C33.5994 27.8133 33.4694 27.7481 33.5344 27.4545C33.5344 27.3893 33.5344 27.3566 33.5344 27.2914C33.5669 26.476 33.5669 26.476 34.3798 26.476C35.1601 26.476 35.973 26.476 36.8508 26.476Z" fill="white"/>
<path d="M69.8466 30.4561C69.0014 30.4561 68.253 30.4561 67.5052 30.4561C67.4078 30.4561 67.2454 30.293 67.1804 30.1625C67.018 29.7711 66.8874 29.3471 66.7575 28.9557C66.0422 28.9557 65.2945 28.9557 64.5141 28.9557C64.3841 29.3797 64.254 29.8037 64.0915 30.1951C64.059 30.293 63.9614 30.456 63.8639 30.4887C63.116 30.5213 62.3682 30.4887 61.5879 30.4887C61.6204 30.3256 61.6204 30.2278 61.6529 30.1299C62.4332 28.1402 63.181 26.1178 63.9614 24.1281C64.0589 23.8672 64.1565 23.7693 64.4491 23.8019C65.262 23.8346 66.1072 23.8346 66.9205 23.8346C67.1154 23.8346 67.2453 23.8672 67.3103 24.0629C68.0906 26.0852 68.8708 28.0749 69.6842 30.0973C69.7491 30.1625 69.7816 30.2604 69.8466 30.4561ZM66.3677 27.5857C66.1072 26.8028 65.9123 26.0852 65.6849 25.3676C65.6524 25.3676 65.5874 25.3676 65.5543 25.3676C65.3269 26.0852 65.1319 26.8028 64.8718 27.5857C65.1969 27.5857 65.4244 27.5857 65.6524 27.5857C65.8798 27.5857 66.0747 27.5857 66.3677 27.5857Z" fill="white"/>
<path d="M55.3442 37.6316C54.8564 37.6316 54.4663 37.6316 54.0111 37.6316C54.0111 37.5011 53.9785 37.4033 53.9785 37.3054C53.9785 35.5114 53.9785 33.75 53.9785 31.9561C53.9785 31.6625 54.0435 31.4993 54.3687 31.532C54.7263 31.5646 55.084 31.532 55.4742 31.4993C55.7018 31.4667 55.7994 31.5646 55.8969 31.7603C56.3196 32.7389 56.7748 33.7174 57.1974 34.6633C57.23 34.7286 57.2625 34.7612 57.3925 34.9243C57.3925 34.7286 57.4251 34.5981 57.4251 34.5002C57.4251 33.6196 57.4251 32.7062 57.4251 31.8255C57.4251 31.5972 57.4576 31.4667 57.7502 31.4993C58.0753 31.532 58.4005 31.4993 58.7581 31.4993C58.7581 33.5543 58.7581 35.544 58.7581 37.599C58.2704 37.599 57.8152 37.6316 57.3275 37.599C57.23 37.599 57.0999 37.4359 57.0349 37.3054C56.5472 36.2616 56.092 35.2505 55.6368 34.2066C55.5717 34.0762 55.5067 33.9784 55.3766 33.8805C55.3442 35.1526 55.3442 36.3921 55.3442 37.6316Z" fill="white"/>
<path d="M34.959 34.5978C34.9915 35.5763 34.6989 36.4897 33.9511 37.142C32.7805 38.1858 30.2444 38.0879 29.6592 35.8047C29.4316 34.8587 29.3991 33.9454 29.8217 33.0321C30.342 31.8905 31.48 31.3033 32.7481 31.4991C33.951 31.6948 34.7964 32.6407 34.894 33.9128C34.9265 34.1412 34.9265 34.3695 34.959 34.5978ZM33.4308 34.5652C33.3333 34.1738 33.2682 33.7497 33.0731 33.3583C32.7155 32.6081 31.8051 32.5429 31.415 33.293C30.9597 34.1738 30.9597 35.1197 31.4474 36.0003C31.6425 36.3265 31.9352 36.4897 32.3253 36.4571C32.7155 36.4244 33.0082 36.1961 33.1382 35.8373C33.2682 35.4459 33.3333 35.0218 33.4308 34.5652Z" fill="white"/>
<path d="M13.988 34.6633C13.9555 35.6745 13.7278 36.5878 12.8825 37.2728C11.4194 38.4145 9.24094 37.7295 8.7207 35.9681C8.39554 34.9569 8.42803 33.9784 8.85076 32.9998C9.40348 31.8582 10.5089 31.3037 11.777 31.532C12.9475 31.7277 13.8254 32.7389 13.9555 34.011C13.9555 34.2067 13.9555 34.4024 13.988 34.6633ZM10.0212 34.5981C10.1513 35.0874 10.1838 35.5441 10.3789 35.9355C10.704 36.6531 11.6145 36.6857 12.0697 36.0333C12.5574 35.3483 12.4923 33.8479 11.9721 33.1956C11.5169 32.641 10.7691 32.6736 10.4439 33.2934C10.2163 33.6848 10.1513 34.1741 10.0212 34.5981Z" fill="white"/>
<path d="M73.2598 23.8018C73.2598 25.5305 73.2598 27.2267 73.2598 28.988C73.5522 28.988 73.8452 28.988 74.105 28.988C74.8203 28.988 75.5031 28.988 76.2184 28.988C76.4789 28.988 76.5763 29.0206 76.5763 29.3142C76.5763 30.4559 76.5763 30.4559 75.4381 30.4559C74.0726 30.4559 72.6745 30.4559 71.3089 30.4559C70.9834 30.4559 70.886 30.358 70.886 30.0318C70.886 28.0421 70.886 26.0524 70.8535 24.0953C70.8535 23.867 70.9185 23.8018 71.1465 23.8018C71.8293 23.8018 72.5121 23.8018 73.2598 23.8018Z" fill="white"/>
<path d="M40.7114 23.8018C40.7114 24.291 40.7114 24.7803 40.7114 25.237C40.7114 26.346 40.7114 27.4876 40.7114 28.5966C40.7114 28.8902 40.7764 28.988 41.1016 28.988C42.0445 28.9554 43.02 28.988 43.9954 28.988C43.9954 29.4773 43.9954 29.934 43.9954 30.4232C43.9303 30.4232 43.8653 30.4559 43.7678 30.4559C42.077 30.4559 40.4188 30.4559 38.7281 30.4559C38.4029 30.4559 38.3379 30.358 38.3379 30.0318C38.3379 28.0747 38.3379 26.085 38.3379 24.1279C38.3379 23.9322 38.3379 23.8018 38.5655 23.8018C39.2483 23.8018 39.9636 23.8018 40.7114 23.8018Z" fill="white"/>
<path d="M44.8106 34.8259C45.656 35.6087 45.5259 36.6851 45.9161 37.6637C45.4284 37.6637 45.0057 37.6963 44.583 37.6637C44.4529 37.6637 44.2904 37.4679 44.2579 37.3701C44.1278 36.9461 44.0628 36.522 43.9978 36.098C43.8677 35.5435 43.6076 35.3804 43.0223 35.4456C43.0223 36.1632 43.0223 36.8808 43.0223 37.6311C42.5021 37.6311 42.0469 37.6311 41.5267 37.6311C41.5267 37.207 41.5267 36.8482 41.5267 36.4567C41.5267 34.989 41.5267 33.5538 41.4941 32.0859C41.4941 31.7597 41.5917 31.5967 41.9169 31.5967C42.7622 31.6293 43.5751 31.5967 44.4204 31.6945C45.1032 31.7597 45.5585 32.1838 45.6885 32.8688C45.8186 33.5538 45.6885 34.2061 45.0708 34.6302C45.0057 34.6628 44.9407 34.728 44.8106 34.8259ZM43.0223 32.8035C43.0223 33.2276 43.0223 33.619 43.0223 34.0104C43.0223 34.0756 43.1849 34.2062 43.2824 34.2062C43.4125 34.2062 43.5751 34.1735 43.7051 34.1409C44.0628 34.0104 44.2254 33.7168 44.1603 33.3581C44.0953 32.9993 43.8677 32.8362 43.51 32.8362C43.3475 32.8035 43.2174 32.8035 43.0223 32.8035Z" fill="white"/>
<path d="M63.1794 35.3803C62.9519 35.3803 62.7242 35.3477 62.4641 35.3477C62.4641 34.9889 62.4641 34.6301 62.4641 34.2713C62.4641 34.2061 62.6267 34.1082 62.7242 34.1082C63.3095 34.1082 63.9272 34.1082 64.545 34.1082C64.545 34.2387 64.5776 34.3365 64.5776 34.4344C64.5776 35.3477 64.5776 36.261 64.61 37.1417C64.61 37.37 64.5776 37.4679 64.3174 37.5331C63.5046 37.6962 62.6917 37.8593 61.8789 37.6962C60.6108 37.4679 59.863 36.7503 59.6679 35.5108C59.6029 34.9889 59.6029 34.467 59.6679 33.9451C59.8305 32.4773 61.0335 31.6292 62.3666 31.564C62.9519 31.5314 63.5371 31.6292 64.0899 31.7271C64.1874 31.7271 64.2524 31.9554 64.3499 32.0859C64.3825 32.1185 64.3499 32.1511 64.3499 32.2164C64.2199 33.0645 64.2199 33.0645 63.3745 32.9339C63.0819 32.9013 62.7568 32.9013 62.4316 32.9339C61.8139 32.9992 61.3261 33.4233 61.2286 34.0104C61.1635 34.4344 61.1636 34.891 61.2611 35.3151C61.4237 36.0327 62.0414 36.4567 62.7892 36.4567C63.0819 36.4567 63.2119 36.3262 63.1794 36.0327C63.1794 35.837 63.1794 35.6086 63.1794 35.3803Z" fill="white"/>
<path d="M40.4261 31.565C40.4261 31.7282 40.4587 31.8586 40.4587 31.9891C40.4587 33.0655 40.4587 34.1419 40.4587 35.2183C40.4587 37.0449 39.3207 38.0234 37.4999 37.7299C36.492 37.5668 35.8741 36.8818 35.8417 35.7402C35.7766 34.4681 35.7766 33.1633 35.7441 31.8912C35.7441 31.6303 35.8417 31.5324 36.1018 31.5324C36.3944 31.565 36.6871 31.565 36.9471 31.5324C37.2072 31.4998 37.2723 31.5976 37.2723 31.8586C37.2723 32.9676 37.2723 34.1093 37.2723 35.2183C37.2723 35.4466 37.3048 35.6423 37.3698 35.8706C37.4349 36.2294 37.63 36.4578 38.0201 36.4578C38.4103 36.4578 38.7354 36.3273 38.833 35.9358C38.898 35.6423 38.963 35.3488 38.9955 35.0552C39.028 34.0114 39.028 32.9676 39.028 31.9238C39.028 31.6303 39.093 31.4998 39.4182 31.5324C39.7109 31.565 40.0685 31.565 40.4261 31.565Z" fill="white"/>
<path d="M14.7363 31.5654C15.2566 31.5654 15.7118 31.5654 16.232 31.5654C16.232 32.4135 16.232 33.2615 16.232 34.0771C16.232 34.5337 16.232 34.9903 16.2971 35.447C16.2971 35.6427 16.3946 35.8384 16.4596 36.0341C16.5897 36.3277 16.8498 36.4908 17.2074 36.4582C17.5651 36.4256 17.8252 36.2298 17.8902 35.871C17.9552 35.6101 17.9878 35.3165 17.9878 35.023C17.9878 33.8813 17.9878 32.7397 17.9878 31.5654C18.443 31.5654 18.8657 31.5654 19.2883 31.5654C19.3534 31.5654 19.4509 31.7286 19.4509 31.8264C19.4509 33.0333 19.4834 34.2727 19.4184 35.4796C19.2883 37.7955 17.305 38.1217 15.8418 37.5345C15.2891 37.3062 14.9965 36.817 14.8989 36.2624C14.8014 35.8058 14.7363 35.3492 14.7363 34.8925C14.7363 33.7835 14.7363 32.6745 14.7363 31.5654Z" fill="white"/>
<path d="M19.5187 24.3233C20.3315 24.2907 21.0793 24.4537 21.632 25.0409C22.5425 25.9542 22.7376 27.0958 22.3149 28.3027C21.9247 29.4443 21.0143 29.9336 19.8438 30.0315C18.7708 30.1293 17.7954 29.901 17.0801 29.0203C15.9746 27.6177 16.3973 24.9757 18.4782 24.4537C18.8359 24.3559 19.161 24.3559 19.5187 24.3233ZM21.1119 27.161C21.1119 26.313 20.6567 25.5954 20.0063 25.3997C19.226 25.1714 18.4457 25.5302 18.1205 26.313C17.7303 27.2916 18.023 28.4005 18.8359 28.7919C19.9413 29.3791 21.1119 28.531 21.1119 27.161Z" fill="white"/>
<path d="M25.1762 36.1308C25.5663 36.2286 25.924 36.3264 26.2817 36.3917C26.3792 36.4243 26.5092 36.4243 26.6068 36.4243C26.9319 36.4243 27.3221 36.3917 27.3871 36.0002C27.4847 35.6415 27.127 35.511 26.8669 35.3805C26.5418 35.2174 26.1841 35.087 25.8915 34.8913C25.1111 34.402 24.8185 33.6843 25.0136 32.8363C25.2087 32.1187 25.8915 31.499 26.7043 31.4664C27.2571 31.4337 27.8423 31.5316 28.3951 31.6294C28.4926 31.6294 28.6552 31.8252 28.6227 31.923C28.5902 32.2818 28.4926 32.6406 28.4276 32.9342C27.8748 32.9015 27.4197 32.8363 26.9645 32.8363C26.8019 32.8363 26.5418 33.032 26.5418 33.1299C26.5418 33.2929 26.7043 33.5213 26.8669 33.6191C27.1596 33.8149 27.4847 33.9127 27.7773 34.0432C28.7852 34.5325 29.0779 35.1522 28.9153 36.196C28.7852 36.9462 28.0699 37.5986 27.1596 37.6638C26.5418 37.6964 25.8915 37.5659 25.2737 37.4681C25.1762 37.4681 25.0461 37.2398 25.0461 37.1419C25.0136 36.8484 25.1111 36.4896 25.1762 36.1308Z" fill="white"/>
<path d="M10.3848 29.8691C11.1326 28.0752 11.8479 26.379 12.5957 24.6503C12.6282 24.5524 12.7908 24.4219 12.9208 24.4219C13.246 24.3893 13.6037 24.3893 13.9288 24.4219C14.0263 24.4219 14.1564 24.5198 14.1889 24.6177C14.9042 26.3138 15.587 28.01 16.3023 29.7061C16.3023 29.7387 16.3023 29.7713 16.3348 29.8691C15.9122 29.8691 15.4895 29.9018 15.0993 29.8691C15.0017 29.8691 14.8392 29.6735 14.8066 29.543C14.6766 28.7602 14.1889 28.5644 13.4736 28.6949C13.4086 28.6949 13.311 28.6949 13.246 28.6949C12.3031 28.6949 12.3031 28.6949 11.9779 29.543C11.8804 29.8039 11.7178 29.9018 11.4577 29.9018C11.1 29.8692 10.8074 29.8691 10.3848 29.8691ZM14.0914 27.7164C13.8637 27.0966 13.6362 26.5421 13.4086 25.8571C13.1485 26.5095 12.9208 27.0966 12.6607 27.7164C13.1485 27.7164 13.5711 27.7164 14.0914 27.7164Z" fill="white"/>
<path d="M24.7192 27.9442C24.7192 28.6291 24.7192 29.2162 24.7192 29.8686C24.2639 29.8686 23.8413 29.8686 23.3861 29.8686C23.3861 29.8033 23.3535 29.7055 23.3535 29.6077C23.3535 28.0094 23.3535 26.4111 23.3535 24.8128C23.3535 24.5192 23.4185 24.4214 23.7112 24.4214C24.6216 24.454 25.5645 24.3561 26.4749 24.454C27.6129 24.5519 28.1982 25.2042 28.1656 26.2154C28.1656 27.1939 27.4829 27.8463 26.3773 27.9115C25.8572 27.9442 25.3369 27.9442 24.7192 27.9442ZM24.7192 25.4325C24.7192 25.8892 24.7192 26.3132 24.7192 26.7699C24.7192 26.8677 24.8817 26.9982 24.9467 26.9982C25.3369 26.9982 25.7271 26.9982 26.1173 26.933C26.6375 26.8351 26.8651 26.5742 26.8326 26.1827C26.8001 25.7913 26.4749 25.4651 25.9872 25.4651C25.597 25.3999 25.2069 25.4325 24.7192 25.4325Z" fill="white"/>
<path d="M46.309 34.7601C46.309 34.0425 46.3416 33.3575 46.7967 32.7378C47.7396 31.4004 49.1378 31.3025 50.5033 31.6287C50.5684 31.6613 50.6984 31.7592 50.6984 31.8245C50.666 32.1506 50.6334 32.4768 50.5684 32.7704C50.5684 32.8356 50.3733 32.8682 50.2433 32.8682C49.8206 32.8682 49.3979 32.7704 49.0077 32.8356C48.455 32.9008 48.0973 33.2922 47.9673 33.8468C47.9023 34.1404 47.8697 34.4665 47.8697 34.7601C47.9023 35.9017 48.7476 36.5541 49.8856 36.3584C50.0156 36.3257 50.1457 36.2931 50.2433 36.2931C50.3408 36.3257 50.4384 36.4236 50.5359 36.4889V36.5541C50.6984 37.6631 50.796 37.5652 49.6255 37.6957C48.8776 37.7936 48.1298 37.7283 47.4795 37.2717C46.5692 36.6845 46.2766 35.8039 46.309 34.7601Z" fill="white"/>
<path d="M72.9707 34.7295C73.1331 34.0446 73.1987 33.3596 73.4261 32.7072C73.7185 31.8918 74.2713 31.6309 75.0191 31.6961C75.7343 31.7613 76.2222 32.1853 76.4171 32.9682C76.7101 34.1424 76.6452 35.3167 76.3522 36.4583C76.1248 37.3716 75.5394 37.763 74.7267 37.7956C74.2713 37.7956 73.8484 37.6326 73.6535 37.2085C73.4261 36.7193 73.2637 36.1647 73.1331 35.6103C73.0682 35.3493 73.1331 35.0557 73.1331 34.7622C73.0682 34.7295 73.0357 34.7295 72.9707 34.7295ZM74.2713 34.7622C74.3363 35.2841 74.3688 35.7733 74.4987 36.2626C74.5312 36.4257 74.7592 36.5562 74.8891 36.7193C75.0191 36.5888 75.1815 36.4583 75.2471 36.2626C75.4745 35.2188 75.4745 34.175 75.2146 33.1312C75.1815 33.0008 74.9866 32.903 74.8891 32.7724C74.7592 32.903 74.5643 33.0008 74.5312 33.1312C74.4012 33.6532 74.3688 34.2077 74.2713 34.7622Z" fill="white"/>
<path d="M72.5847 34.5328C72.4216 35.283 72.3242 36.0332 72.0968 36.7181C71.772 37.6315 70.9586 37.9903 70.1134 37.6967C69.6905 37.5336 69.4631 37.2074 69.3007 36.8486C68.7153 35.4134 68.7478 33.9456 69.3981 32.5431C69.6905 31.9559 70.2109 31.7275 70.8287 31.7275C71.4465 31.7275 71.9019 32.0211 72.0643 32.5757C72.3242 33.1954 72.4216 33.8478 72.5847 34.5328ZM71.2516 34.6958C71.1866 34.2066 71.1866 33.652 71.0892 33.1301C71.0561 32.9997 70.8612 32.804 70.7312 32.804C70.6013 32.804 70.4064 32.9997 70.3733 33.1301C70.1784 34.1413 70.1459 35.1851 70.3733 36.2289C70.4064 36.3919 70.6338 36.5224 70.7637 36.6855C70.8936 36.5224 71.0892 36.3919 71.1217 36.2289C71.1542 35.7396 71.1866 35.2504 71.2516 34.6958Z" fill="white"/>
<path d="M21.6029 32.9348C21.1802 32.9348 20.855 32.9348 20.5299 32.9348C20.3023 32.9348 20.2373 32.8369 20.2048 32.6086C20.1398 31.5322 20.1398 31.5322 21.2127 31.5322C22.1881 31.5322 23.1961 31.5322 24.1715 31.5322C24.269 31.5322 24.3666 31.5322 24.4966 31.5648C24.4966 32.0215 24.4966 32.4455 24.4966 32.9348C24.1715 32.9348 23.8464 32.9674 23.5212 32.9348C23.131 32.8696 23.066 33.0653 23.066 33.4241C23.0986 34.7288 23.066 36.0009 23.066 37.3056C23.066 37.4035 23.066 37.5013 23.066 37.6318C22.6108 37.6318 22.1231 37.6318 21.6354 37.6318C21.6029 36.0988 21.6029 34.5657 21.6029 32.9348Z" fill="white"/>
<path d="M51.5098 31.5654C51.965 31.5654 52.4527 31.5654 52.9404 31.5654C52.9404 33.5877 52.9404 35.5774 52.9404 37.6324C52.4852 37.6324 52.03 37.6324 51.5098 37.6324C51.5098 35.6101 51.5098 33.6204 51.5098 31.5654Z" fill="white"/>
<path d="M66.7567 32.9679C66.4637 33.0983 66.2363 33.1962 66.0083 33.3266C65.8134 33.4245 65.716 33.3593 65.651 33.1636C65.4561 32.6091 65.4886 32.5112 66.0083 32.185C66.4962 31.8915 67.0166 31.7283 67.6344 31.7609C67.8942 31.7609 67.9917 31.8262 67.9917 32.1198C67.9917 33.9464 67.9917 35.8056 67.9917 37.6649C67.6019 37.6649 67.2115 37.6649 66.7892 37.6649C66.7567 36.1318 66.7567 34.5662 66.7567 32.9679Z" fill="white"/>
<path d="M8.58789 24.4209C9.01056 24.4209 9.40074 24.4209 9.85595 24.4209C9.85595 26.2149 9.85595 28.0089 9.85595 29.8355C9.43329 29.8355 9.0431 29.8355 8.58789 29.8355C8.58789 28.0742 8.58789 26.2801 8.58789 24.4209Z" fill="white"/>
<path d="M1.76897 26.8663H1.80149C2.09411 26.8663 2.41926 26.7684 2.64685 26.8989C2.84194 27.0294 2.84194 27.3882 2.93948 27.6491C3.29714 28.6277 4.01245 29.2801 4.92285 29.6715C5.80073 30.0302 6.77616 30.2586 7.68658 30.5195C7.81664 30.5522 8.01167 30.5522 8.10925 30.6174C8.20676 30.6826 8.23931 30.8457 8.23931 30.9436C8.23931 31.0088 8.0767 31.1066 8.01167 31.1066C6.06085 30.9436 4.30508 30.389 2.972 28.8886C2.71188 28.5951 2.54931 28.2363 2.41926 27.8775C2.2892 27.5513 2.12663 27.3882 1.76897 27.4208C1.50886 27.4534 1.24874 27.4534 0.988629 27.4208C0.891087 27.3882 0.76103 27.2251 0.728516 27.1272C0.728516 27.062 0.891087 26.8989 0.988629 26.8989C1.24874 26.8663 1.50886 26.8663 1.76897 26.8663Z" fill="white"/>
<path d="M9.17691 22.5622C9.20946 23.3124 9.20946 23.3124 8.46164 23.345C7.29109 23.4103 6.15311 23.6712 5.08015 24.1931C4.33232 24.5519 3.68204 25.0738 3.19432 25.7588C3.16181 25.824 3.09678 25.9219 3.03175 25.9545C2.90169 26.0523 2.73912 26.0849 2.57655 26.1502C2.57655 25.9545 2.47901 25.7261 2.57655 25.5631C3.25935 24.4541 4.29981 23.7364 5.53535 23.3776C6.3482 23.1493 7.19358 22.9862 8.00642 22.8232C8.52667 22.7253 8.55915 22.7579 8.5917 22.2034C8.5917 22.0403 8.68921 21.812 8.78679 21.7794C9.01436 21.6815 9.20946 21.7794 9.17691 22.1055C9.17691 22.2686 9.17691 22.3991 9.17691 22.5622Z" fill="white"/>
<path d="M13.6317 23.9974C13.2415 23.9647 12.8514 23.9647 12.4612 23.8669C11.7459 23.7038 11.0306 23.5407 10.3153 23.3124C10.1527 23.2798 10.0552 23.1166 9.89258 23.0188C10.0552 22.9536 10.2177 22.8231 10.3803 22.8557C11.3883 22.9536 12.3637 23.1166 13.2741 23.606C13.4042 23.6712 13.5667 23.769 13.6968 23.8669C13.6642 23.8995 13.6317 23.9321 13.6317 23.9974Z" fill="white"/>
<path d="M8.85352 20.4424V17.1153L11.6172 14.669C15.6164 11.1462 17.6649 9.0913 17.6973 7.03631C17.6973 5.60113 16.7544 4.55735 14.7385 4.55735C13.0804 4.55735 11.5847 5.3728 10.4792 6.18826L8.98358 2.24147C10.5117 1.13245 13.0153 0.186523 15.8441 0.186523C20.461 0.186523 23.1922 2.69812 23.1922 6.64491C23.1922 9.84146 20.9162 12.3857 18.5752 14.3102L16.6244 15.8432V15.9085H23.5499V20.4424H8.85352Z" fill="white"/>
<path d="M41.6569 10.428C41.6569 16.2993 39.1858 20.768 33.821 20.768C28.131 20.768 26.0176 15.7122 26.0176 10.4933C26.0176 5.11127 28.2286 0.15332 33.8535 0.15332C39.6736 0.15332 41.6569 5.37222 41.6569 10.428ZM31.545 10.4606C31.545 14.7989 32.4229 16.6255 33.9186 16.6255C35.3167 16.6255 36.1946 14.7663 36.1946 10.4606C36.1946 6.25291 35.3492 4.32844 33.9186 4.32844C32.4554 4.32844 31.5125 6.15506 31.545 10.4606Z" fill="white"/>
<path d="M43.8691 20.4424V17.1153L46.6328 14.669C50.6646 11.1462 52.713 9.0913 52.7455 7.03631C52.7455 5.60113 51.8026 4.55735 49.7867 4.55735C48.1285 4.55735 46.6328 5.3728 45.5273 6.18826L43.9991 2.24147C45.5273 1.13245 48.0309 0.186523 50.8597 0.186523C55.4767 0.186523 58.2079 2.69812 58.2079 6.64491C58.2079 9.84146 55.9319 12.3857 53.5908 14.3102L51.64 15.8432V15.9085H58.5655V20.4424H43.8691Z" fill="white"/>
<path d="M62.2755 15.2229C63.1208 15.6469 65.1042 16.4298 66.9903 16.4298C68.9412 16.4298 70.2412 15.7122 70.2412 14.3096C70.2412 12.6787 68.5508 11.9285 66.7298 11.9285H64.6816V8.01428H66.6324C68.0304 8.01428 69.754 7.59025 69.754 6.18767C69.754 5.17651 68.8107 4.49153 67.0878 4.49153C65.4292 4.49153 63.6411 5.20913 62.8608 5.63317L61.7878 1.65375C63.0558 0.870916 65.5923 0.15332 68.3559 0.15332C72.745 0.15332 75.3462 2.33873 75.3462 5.20913C75.3462 7.32928 74.1755 8.96024 71.7374 9.8083V9.87353C74.0781 10.2976 75.9965 12.059 75.9965 14.6031C75.9965 18.2564 72.6475 20.7354 67.4776 20.7354C64.7466 20.7354 62.5031 20.083 61.2676 19.3328L62.2755 15.2229Z" fill="white"/>
</g>
<defs>
<clipPath id="clip0_336_29944">
<rect width="76.6593" height="37.68" fill="white" transform="translate(0.337891 0.15332)"/>
</clipPath>
</defs>
</svg>
