<svg width="77" height="77" viewBox="0 0 77 77" fill="none" xmlns="http://www.w3.org/2000/svg">
<g clip-path="url(#clip0_336_29981)">
<mask id="mask0_336_29981" style="mask-type:luminance" maskUnits="userSpaceOnUse" x="0" y="0" width="77" height="77">
<path d="M76.4498 0.380859H0.549805V76.2809H76.4498V0.380859Z" fill="white"/>
</mask>
<g mask="url(#mask0_336_29981)">
<path d="M58.4553 20.7613C58.4553 31.6885 49.4988 40.5942 38.496 40.5942C27.4878 40.5942 18.5366 31.6992 18.542 20.7667C18.5474 9.81814 27.4931 0.94976 38.5067 0.955081C49.5095 0.965722 58.4499 9.83945 58.4553 20.7613ZM57.8928 20.7667C57.8928 10.148 49.1827 1.50836 38.4906 1.519C27.7825 1.52964 19.1045 10.148 19.1099 20.7773C19.1099 31.4013 27.8146 40.0409 38.5013 40.0356C49.188 40.0356 57.8981 31.38 57.8928 20.7667Z" fill="white"/>
<path d="M26.3635 76.2811C25.6403 74.3021 24.9225 72.355 24.2101 70.4079C24.1833 70.4079 24.1619 70.4079 24.135 70.4079C23.3958 72.3496 22.6566 74.2915 21.9174 76.2279C21.8799 76.2279 21.8692 76.2226 21.8584 76.2173C21.8477 76.2173 21.8317 76.212 21.8317 76.2013C20.6531 73.2807 19.4747 70.3654 18.2962 67.4447C18.2748 67.3967 18.2694 67.3383 18.2373 67.2318C18.6819 67.2318 19.0997 67.2318 19.5122 67.2318C19.6783 67.2318 19.6943 67.3862 19.7371 67.4979C20.0425 68.2639 20.3425 69.0353 20.6425 69.8068C20.996 70.7005 21.3442 71.5995 21.6977 72.4933C21.7406 72.5997 21.7834 72.7008 21.8584 72.8763C22.0673 72.4561 22.1905 72.0624 22.3406 71.6794C22.4959 71.2804 22.6512 70.876 22.8012 70.4717C22.9512 70.0781 23.1012 69.6897 23.2459 69.296C23.4012 68.8917 23.5511 68.4927 23.7066 68.0884C23.8565 67.7 24.0065 67.3117 24.194 66.918C24.4458 67.3862 24.5957 67.8862 24.7779 68.3756C24.96 68.8651 25.1368 69.3545 25.3136 69.844C25.4957 70.344 25.6778 70.8441 25.86 71.3442C26.0368 71.8337 26.2188 72.3178 26.4278 72.8923C26.5135 72.7062 26.5724 72.5891 26.6206 72.472C27.3009 70.8388 27.9813 69.2109 28.6615 67.5777C28.8276 67.1733 28.7847 67.2266 29.2079 67.2213C29.5239 67.2213 29.84 67.2213 30.1614 67.2213C30.1347 67.4979 26.6045 75.8821 26.3528 76.2652L26.3635 76.2811Z" fill="white"/>
<path d="M14.0997 44.9367C14.03 44.8516 13.9603 44.7665 13.8907 44.6813C13.5693 44.3089 13.2908 43.9099 13.114 43.4471C12.7551 42.5267 13.0016 41.5319 13.7515 40.8775C13.7783 40.8882 13.8211 40.8882 13.8371 40.9094C14.4479 41.5426 14.9782 42.2341 15.3157 43.0534C15.5888 43.729 15.5781 44.3994 15.3049 45.0697C15.2782 45.1282 15.246 45.1867 15.2032 45.2612C15.1014 45.0271 15.0371 44.8036 14.9192 44.6121C14.8014 44.426 14.63 44.277 14.4693 44.0908C14.2229 44.3355 14.2068 44.5909 14.2978 44.8462C14.3996 45.1441 14.5496 45.4208 14.8335 45.607C15.6209 46.1284 16.3816 46.6923 17.1852 47.1817C17.8923 47.6126 18.6529 47.9638 19.3814 48.3574C19.5689 48.4585 19.7403 48.5915 19.901 48.7298C20.0028 48.8202 20.0511 48.9586 19.9921 49.1022C19.9225 49.2618 19.7778 49.315 19.6279 49.2937C19.4403 49.2671 19.2421 49.2299 19.0761 49.1447C16.2477 47.7775 13.7515 45.9581 11.6195 43.6546C8.39473 40.17 6.34307 36.0843 5.30921 31.4824C4.83781 29.3758 4.60212 27.2372 4.63961 25.0772C4.7414 19.2306 6.38592 13.884 9.87854 9.13862C10.7785 7.92031 11.7909 6.80313 12.9051 5.77638C12.9962 5.69658 13.0873 5.61678 13.2265 5.57422C13.1836 5.62742 13.1408 5.68594 13.0926 5.73382C8.9143 9.71316 6.43949 14.5756 5.44849 20.2148C5.01459 22.6726 4.93424 25.1411 5.17529 27.6255C5.59312 31.9027 6.91089 35.8714 9.23569 39.505C10.5053 41.484 12.0427 43.2396 13.8265 44.777C13.9015 44.8409 13.9872 44.9048 14.0622 44.9686C14.0783 44.958 14.0943 44.942 14.1104 44.9314L14.0997 44.9367Z" fill="white"/>
<path d="M39.1875 57.96C39.1821 60.4391 37.184 62.3384 34.6342 62.3649C32.7219 62.3862 30.1614 60.8274 30.1828 57.8536C30.2042 55.5235 32.2879 53.4593 34.7628 53.4806C37.1305 53.5019 39.2625 55.5554 39.1875 57.9547V57.96ZM34.6556 61.136C36.4502 61.1467 37.8269 59.7741 37.8697 57.9919C37.918 56.1459 36.4234 54.7414 34.7521 54.7148C33.0647 54.6882 31.5166 56.0395 31.5166 57.8749C31.5166 59.689 32.8879 61.1254 34.661 61.1307L34.6556 61.136Z" fill="white"/>
<path d="M19.339 55.2463C19.0443 55.5282 18.7497 55.8049 18.4444 56.1028C18.2676 55.9166 18.1177 55.7517 17.9622 55.5921C16.3981 54.0333 13.5912 54.5972 12.8412 56.821C12.0752 59.082 13.5751 60.6833 15.1178 61.0663C16.1999 61.3323 17.3462 60.8854 17.9569 59.9651C18.1444 59.6778 18.2837 59.3745 18.2944 58.9756C17.5926 58.9543 16.907 58.9756 16.1999 58.9596V57.8158C16.441 57.7254 19.2854 57.7041 19.7193 57.7892C19.73 57.869 19.7514 57.9541 19.7461 58.0392C19.7139 58.4436 19.6872 58.8532 19.6336 59.2523C19.4622 60.529 18.2461 62.0824 16.3178 62.3271C14.1429 62.6091 12.0913 61.2685 11.4966 59.1777C10.7949 56.7146 12.2895 54.145 14.7804 53.6024C16.5642 53.2087 18.0641 53.7461 19.2586 55.1133C19.2854 55.1452 19.3068 55.1878 19.3443 55.2463H19.339Z" fill="white"/>
<path d="M52.727 75.7535V67.2735C52.8074 67.2576 52.8717 67.2363 52.936 67.2363C53.8145 67.2523 54.693 67.2363 55.5662 67.3001C57.291 67.4225 58.6945 68.5397 59.1713 70.1303C59.4444 71.0401 59.4712 71.971 59.1713 72.8755C58.6249 74.5087 57.4678 75.4929 55.7536 75.711C54.8001 75.8333 53.8199 75.7748 52.8503 75.7961C52.8181 75.7961 52.786 75.7801 52.7217 75.7589L52.727 75.7535ZM54.0502 68.4812C53.9698 69.1568 54.0019 74.3172 54.0876 74.5619C54.3984 74.5619 54.7198 74.5726 55.0358 74.5619C55.2608 74.5512 55.4911 74.5194 55.7108 74.4768C56.1286 74.397 56.5143 74.2267 56.8518 73.9661C57.8481 73.2053 58.1642 72.1786 57.9927 70.9869C57.8642 70.0559 57.3928 69.327 56.5518 68.8855C55.7697 68.4759 54.918 68.4439 54.0394 68.4865L54.0502 68.4812Z" fill="white"/>
<path d="M46.7978 57.5705C47.0495 57.746 47.2959 57.8737 47.4941 58.0546C48.3083 58.7888 48.4584 60.1187 47.837 61.0391C47.4245 61.6509 46.8567 62.0392 46.1068 62.135C45.7799 62.1776 45.4478 62.1988 45.1211 62.2041C44.5747 62.2148 44.0283 62.2041 43.4819 62.2041C43.3695 62.2041 43.2569 62.2041 43.1552 62.2041C43.0641 61.8743 43.0695 53.9529 43.1552 53.6656C43.7551 53.6656 44.3551 53.6549 44.955 53.6709C45.239 53.6815 45.5229 53.7188 45.796 53.7933C46.696 54.0327 47.1727 54.6711 47.3817 55.5329C47.5531 56.2404 47.3977 56.8789 46.9102 57.4322C46.8727 57.4747 46.8406 57.5173 46.8031 57.5652L46.7978 57.5705ZM44.414 58.427C44.3979 59.2781 44.4033 60.1028 44.4087 60.954C44.8479 60.954 45.2443 60.9646 45.6407 60.9486C45.8068 60.9433 45.9782 60.8901 46.1335 60.8316C46.6263 60.6507 46.9102 60.2304 46.9102 59.7091C46.9102 59.1771 46.6156 58.7356 46.1121 58.5653C45.5764 58.3791 45.0193 58.3951 44.414 58.4323V58.427ZM44.4087 57.2885C44.7997 57.3257 45.1372 57.3364 45.4693 57.2247C45.8175 57.1076 46.0639 56.8736 46.1282 56.5171C46.1764 56.2564 46.1764 55.9798 46.1443 55.7138C46.0907 55.3095 45.8228 55.0541 45.4318 54.9317C45.1104 54.8307 44.7889 54.8413 44.4087 54.8839C44.4033 55.6819 44.4087 56.4639 44.4087 57.2832V57.2885Z" fill="white"/>
<path d="M44.8852 72.3496V75.7811C44.4406 75.813 44.0281 75.8023 43.5889 75.7811V67.301C43.6264 67.2745 43.6425 67.2532 43.6638 67.2532C44.5745 67.2265 45.4851 67.184 46.3904 67.3596C47.3975 67.5564 48.0939 68.115 48.335 69.1311C48.6617 70.5303 47.9172 71.7485 46.7119 72.1049C46.669 72.1156 46.6262 72.1369 46.5405 72.1741C46.7386 72.488 46.9637 72.7699 47.1726 73.0572C47.3921 73.3605 47.6118 73.6637 47.8368 73.9616C48.051 74.2542 48.2653 74.5468 48.4796 74.8394C48.6939 75.132 48.9028 75.4193 49.1438 75.7545C49.0153 75.7757 48.9403 75.7917 48.8653 75.7917C48.5814 75.7917 48.2921 75.7651 48.0135 75.8023C47.6708 75.8449 47.4779 75.6906 47.2958 75.4246C46.6368 74.4564 45.9619 73.5095 45.287 72.5572C45.2066 72.4454 45.153 72.2752 44.8906 72.3496H44.8852ZM44.9334 71.1526C45.453 71.1846 45.9512 71.174 46.4226 70.9611C46.9315 70.7271 47.1511 70.2962 47.1136 69.6418C47.0869 69.1418 46.8136 68.7853 46.3154 68.6151C45.8655 68.4661 45.4048 68.4449 44.9441 68.4874C44.8638 68.764 44.8584 70.8122 44.9387 71.1526H44.9334Z" fill="white"/>
<path d="M16.4387 75.7916C16.0369 75.7916 15.6298 75.7916 15.2174 75.7916C15.0728 75.7916 15.0299 75.6851 14.9871 75.5787C14.7674 75.0787 14.5371 74.5893 14.3388 74.0785C14.2317 73.8072 14.0871 73.7008 13.7871 73.7062C12.7962 73.7274 11.8052 73.7221 10.8141 73.7062C10.5838 73.7062 10.4606 73.7806 10.3749 73.9881C10.1552 74.4988 9.89808 74.9935 9.68924 75.5043C9.59279 75.7331 9.45886 75.8022 9.22318 75.7916C8.8857 75.7756 8.54821 75.7916 8.13574 75.7916C9.56067 72.7485 10.9588 69.7693 12.3515 66.8008C12.389 66.8008 12.3997 66.8008 12.4104 66.8008C12.4212 66.8008 12.4372 66.8061 12.4426 66.8167C13.7497 69.6949 15.062 72.5676 16.3691 75.4457C16.4066 75.5255 16.4387 75.6107 16.4655 75.7011C16.4709 75.717 16.4601 75.7436 16.4495 75.7968L16.4387 75.7916ZM11.082 72.4453C11.4944 72.5251 13.3318 72.5144 13.6157 72.4346C13.2086 71.5249 12.8283 70.6046 12.373 69.6417C11.923 70.6153 11.5105 71.5143 11.082 72.4453Z" fill="white"/>
<path d="M40.1557 75.7916C39.7432 75.7916 39.3361 75.7916 38.929 75.7916C38.7629 75.7916 38.7307 75.6638 38.6825 75.5521C38.4629 75.0521 38.2326 74.5627 38.0397 74.0572C37.9379 73.7913 37.7826 73.7114 37.5041 73.7114C36.5238 73.7274 35.5435 73.7274 34.5632 73.7114C34.29 73.7114 34.1561 73.8019 34.0543 74.0466C33.8079 74.6265 33.5294 75.201 33.2615 75.7809H31.917C31.9437 75.5309 35.822 67.1998 36.0899 66.8008C36.272 67.0082 40.0967 75.467 40.1503 75.7968L40.1557 75.7916ZM36.122 69.7108C36.122 69.7108 36.0685 69.7108 36.0417 69.7108C35.6238 70.6153 35.206 71.5249 34.7882 72.44C35.1149 72.5304 37.0166 72.5251 37.3165 72.44C36.9148 71.5303 36.5184 70.6258 36.122 69.7215V69.7108Z" fill="white"/>
<path d="M62.6925 45.1225C62.8319 45.032 62.9872 44.9523 63.1104 44.8459C65.9334 42.4412 68.0762 39.5312 69.5921 36.1637C70.7759 33.5409 71.5098 30.7958 71.8045 27.9337C72.3615 22.5658 71.4884 17.4427 69.0511 12.6068C67.7065 9.93624 65.9227 7.59011 63.7157 5.56321C63.6354 5.48873 63.5443 5.43021 63.4586 5.36105C63.48 5.33445 63.5068 5.30785 63.5282 5.28125C63.6407 5.38233 63.7586 5.47809 63.8711 5.57917C66.8655 8.27641 69.0457 11.5269 70.4974 15.2615C71.4134 17.6182 71.9919 20.0602 72.2276 22.5765C72.7472 28.1252 71.7991 33.4079 69.1743 38.3502C66.6298 43.1328 62.8854 46.7185 58.0054 49.1231C57.8179 49.2189 57.6037 49.2668 57.3947 49.3093C57.2448 49.3359 57.0947 49.288 57.0251 49.1284C56.9609 48.9795 57.0037 48.8252 57.1162 48.7241C57.2662 48.5911 57.4322 48.4635 57.6144 48.3783C58.7768 47.8251 59.9071 47.2079 60.9677 46.4791C61.482 46.1227 61.9694 45.729 62.4676 45.3565C62.5051 45.3299 62.548 45.314 62.5908 45.2981C62.6283 45.2448 62.6604 45.1916 62.6979 45.1331L62.6925 45.1225Z" fill="white"/>
<path d="M56.7559 56.9054V58.129H53.5097C53.4133 58.395 53.3919 60.4858 53.4776 60.9699C54.5864 60.9805 55.7113 60.9699 56.863 60.9753V62.1403C56.6274 62.2201 52.5723 62.2414 52.1759 62.1669C52.1062 61.9009 52.1009 54.022 52.1651 53.6975C52.4169 53.6337 56.4184 53.6123 56.8577 53.6816V54.8466C56.4934 54.9105 56.1238 54.8679 55.7542 54.8732C55.3792 54.8786 55.0042 54.8732 54.6239 54.8732H53.4615C53.4079 55.5542 53.4294 56.2139 53.4455 56.9054H56.7559Z" fill="white"/>
<path d="M60.8623 62.1827V53.708C61.1301 53.6335 65.1424 53.6175 65.5709 53.6867V54.8624C64.4513 54.889 63.3317 54.8624 62.18 54.8784C62.1426 55.554 62.1587 56.203 62.1747 56.9H65.4852V58.1129C65.1263 58.1608 64.762 58.1289 64.4031 58.1342C64.0388 58.1395 63.6746 58.1342 63.3103 58.1342H62.2336C62.1533 58.4109 62.1372 60.5335 62.2122 60.9698H65.587V62.1774H60.873L60.8623 62.1827Z" fill="white"/>
<path d="M62.8467 73.4303C63.286 73.3345 63.6984 73.244 64.143 73.143C64.1698 73.2706 64.1966 73.3717 64.2234 73.4781C64.2823 73.7547 64.352 74.0314 64.5448 74.2548C64.9626 74.7336 65.5036 74.8188 66.0715 74.6645C66.6286 74.5155 66.9446 74.1112 67.025 73.542C67.1054 72.9568 66.9071 72.4887 66.3983 72.1801C66.1679 72.0364 65.9161 71.9247 65.6697 71.8076C65.3912 71.68 65.1019 71.5736 64.8234 71.4459C64.4591 71.281 64.1216 71.0735 63.8324 70.7862C63.0663 70.0201 63.0235 68.8072 63.7252 67.9773C64.7269 66.7856 67.1429 66.6047 68.1231 68.5252C67.8071 68.754 67.4589 68.9348 67.1 69.1424C67.0089 69.02 66.9232 68.9136 66.8482 68.8072C66.3929 68.1422 65.3483 68.2379 64.9197 68.6103C64.443 69.0253 64.4323 69.6531 64.9358 70.0414C65.1019 70.1744 65.3001 70.2701 65.4983 70.3553C65.809 70.4989 66.1358 70.6053 66.4411 70.749C66.741 70.8873 67.0357 71.0363 67.3089 71.2171C67.9731 71.6534 68.3213 72.2758 68.3642 73.0632C68.4606 74.8666 67.0625 75.9094 65.7769 75.9413C65.3537 75.9519 64.9305 75.9253 64.5341 75.7711C63.6127 75.4146 63.1253 74.6964 62.9056 73.776C62.8842 73.6803 62.8735 73.5792 62.8467 73.4303Z" fill="white"/>
<path d="M72.817 29.5032C73.6204 29.1308 73.6687 28.4072 73.7972 27.6678C73.0794 27.5986 72.7688 28.0402 72.4795 28.5403C72.5009 28.386 72.5224 28.2317 72.5491 28.0828C72.7044 27.2582 72.8866 26.4389 73.2241 25.6675C73.3955 25.2738 73.5937 24.8855 73.8401 24.5344C74.3436 23.8161 75.0614 23.3906 75.9239 23.215C76.0739 23.183 76.2346 23.1884 76.406 23.1777C76.4274 23.3001 76.4542 23.3852 76.4542 23.4757C76.4863 24.6567 76.3899 25.8271 76.0471 26.9709C75.8703 27.5614 75.6078 28.1093 75.1953 28.5828C74.6329 29.2319 73.9204 29.5564 73.0634 29.5723C73.0044 29.5723 72.9508 29.5723 72.892 29.5617C72.8759 29.5617 72.8598 29.5351 72.8116 29.4978L72.817 29.5032Z" fill="white"/>
<path d="M0.633397 23.1869C1.04587 23.1656 1.40477 23.2774 1.75296 23.421C2.54041 23.7508 3.11358 24.3148 3.50462 25.0596C3.9171 25.8363 4.15279 26.6768 4.34028 27.528C4.42063 27.8792 4.47955 28.2356 4.55991 28.6665C4.36706 28.3793 4.2385 28.1345 4.06708 27.9324C3.87424 27.7089 3.60105 27.6291 3.30106 27.6557C3.12429 28.2781 3.54212 29.1506 4.22243 29.5283C4.12065 29.5497 4.05101 29.5709 3.98137 29.5709C3.07073 29.5709 2.32613 29.2145 1.74761 28.5122C1.228 27.8792 0.970874 27.1397 0.7941 26.3576C0.579829 25.416 0.526261 24.4531 0.558402 23.4901C0.558402 23.421 0.569116 23.3572 0.579829 23.288C0.585186 23.2561 0.606614 23.2295 0.62804 23.1816L0.633397 23.1869Z" fill="white"/>
<path d="M23.6592 62.1618V53.6605C23.8788 53.6552 24.0769 53.6498 24.2806 53.6445C24.4841 53.6445 24.6877 53.6445 24.9341 53.6445C24.9716 54.0169 24.9501 54.3627 24.9555 54.7085C24.9555 55.049 24.9555 55.3895 24.9555 55.7247V60.9595C25.7965 60.9967 26.6107 60.9542 27.4517 60.9861V62.1405C27.2268 62.2203 24.1038 62.2416 23.6592 62.1564V62.1618Z" fill="white"/>
<path d="M72.6059 33.531C71.9684 33.3448 71.6202 33.6587 71.3042 34.1056C71.2881 34.0524 71.2721 34.0205 71.2774 34.0045C71.647 33.0416 72.0702 32.1 72.7076 31.2753C73.0665 30.8072 73.5058 30.4401 74.0576 30.2166C74.5075 30.0358 74.9789 29.9666 75.461 30.0039C75.5682 30.0145 75.6753 30.0464 75.8253 30.073C75.7878 30.3071 75.7557 30.5199 75.7128 30.7274C75.5253 31.6265 75.2521 32.4989 74.8128 33.3182C74.5343 33.8342 74.1968 34.2971 73.7254 34.6535C73.0451 35.1695 72.2844 35.2973 71.4649 35.0844C71.4327 35.0738 71.4059 35.0525 71.3417 35.0153C72.172 34.8557 72.3648 34.2066 72.6005 33.5363L72.6059 33.531Z" fill="white"/>
<path d="M1.20872 30.0618C1.69618 29.9342 2.15151 29.9767 2.61219 30.0991C3.23893 30.264 3.74783 30.6151 4.16029 31.0993C4.59955 31.61 4.93167 32.1899 5.21558 32.7963C5.41378 33.222 5.59591 33.6582 5.7459 34.105C5.56377 33.9294 5.39235 33.7326 5.18879 33.589C4.96381 33.4294 4.70133 33.4347 4.44421 33.5145C4.50848 34.2646 4.99059 34.8551 5.71376 35.0094C5.56377 35.0573 5.4727 35.0946 5.38164 35.1105C4.63705 35.2701 3.95674 35.1371 3.34071 34.6956C2.91753 34.3924 2.59077 34.004 2.32828 33.5571C1.71761 32.5304 1.39085 31.4025 1.19265 30.2374C1.18729 30.1949 1.19265 30.147 1.198 30.0672L1.20872 30.0618Z" fill="white"/>
<path d="M72.5769 22.7098C72.5125 21.566 72.5072 20.4275 72.8286 19.3103C73.1179 18.3101 73.7232 17.5706 74.6981 17.1451C74.8213 17.0919 74.9498 17.0599 75.1266 16.9961C75.1963 17.3259 75.2713 17.6185 75.3248 17.9164C75.4802 18.8102 75.5606 19.7093 75.4374 20.619C75.3624 21.1989 75.2016 21.7468 74.8856 22.2469C74.5214 22.8161 74.0124 23.1938 73.3589 23.3747C73.2732 23.396 73.1875 23.4013 73.0107 23.4333C73.6642 22.9013 73.6 22.2522 73.5678 21.6085C73.0536 21.566 72.7858 21.8798 72.5769 22.7098Z" fill="white"/>
<path d="M4.37165 22.571C4.26987 22.0763 4.07167 21.6613 3.51457 21.5603C3.24137 22.0923 3.45564 22.9434 4.01274 23.4435C3.8574 23.4169 3.75027 23.4063 3.64848 23.3797C2.8664 23.1615 2.31465 22.6721 1.95039 21.9592C1.72541 21.5177 1.60221 21.0495 1.55399 20.5601C1.4415 19.4217 1.55399 18.2991 1.82718 17.1926C1.8379 17.1394 1.8754 17.0915 1.9129 17.0117C2.06824 17.0648 2.22359 17.1075 2.36286 17.1713C3.2628 17.5863 3.84669 18.2779 4.14131 19.2141C4.40915 20.0654 4.45736 20.9485 4.46807 21.8316C4.46807 22.0763 4.45736 22.321 4.452 22.5658L4.37165 22.5763V22.571Z" fill="white"/>
<path d="M71.5382 28.4174C71.3989 27.8588 71.1525 27.4225 70.4615 27.348C70.4079 28.0556 70.3919 28.7153 70.9864 29.2366C70.8793 29.2047 70.7722 29.1834 70.6704 29.1409C69.6633 28.7579 68.9348 28.0876 68.5223 27.0874C68.201 26.3054 68.0509 25.486 67.9706 24.6508C67.9438 24.3688 67.9331 24.0869 67.917 23.805C68.1527 23.6933 68.383 23.7304 68.6027 23.7411C69.5294 23.7943 70.3062 24.1561 70.8365 24.9328C71.5543 25.9861 71.6078 27.1885 71.5382 28.4174Z" fill="white"/>
<path d="M9.08725 23.7893C9.05513 24.183 9.03903 24.5661 8.99618 24.9437C8.91046 25.7204 8.74977 26.4812 8.42838 27.2048C7.95696 28.2687 7.13202 28.9177 6.00175 29.2316C6.58564 28.7262 6.60706 28.0772 6.54278 27.3963C6.00175 27.3431 5.59999 27.6836 5.45536 28.6252C5.3643 27.5505 5.41251 26.4866 5.85176 25.4811C6.49457 23.9968 7.96232 23.5925 9.08725 23.7946V23.7893Z" fill="white"/>
<path d="M73.9558 36.1423C73.929 36.254 73.9183 36.3125 73.8968 36.3657C73.554 37.2435 73.1201 38.0734 72.5202 38.8129C72.1827 39.2278 71.797 39.5949 71.3042 39.8343C70.5596 40.2014 69.8204 40.1695 69.0811 39.7598C69.8096 39.7172 70.1149 39.1906 70.4203 38.6639C70.0721 38.3873 69.9167 38.4085 69.1775 38.8341C69.1775 38.8235 69.1668 38.8129 69.1721 38.8075C69.7132 37.9084 70.3238 37.0679 71.1756 36.4295C71.8827 35.8976 72.6809 35.7698 73.5379 35.9827C73.6772 36.0199 73.8057 36.0837 73.9611 36.1423H73.9558Z" fill="white"/>
<path d="M6.5692 38.6332C6.87454 39.1811 7.16916 39.6971 7.92446 39.729C7.68341 39.9472 7.40485 40.0057 7.13166 40.0536C6.5692 40.1493 6.04424 40.0376 5.55141 39.7556C5.17108 39.5375 4.84968 39.2503 4.57112 38.9204C3.91224 38.1384 3.44085 37.2553 3.08194 36.303C3.06587 36.2604 3.06052 36.2179 3.0498 36.1647C3.28014 35.9785 3.55334 35.9412 3.81582 35.904C4.56041 35.8082 5.25679 35.9626 5.84068 36.436C6.23172 36.7605 6.59598 37.1223 6.9281 37.5106C7.28165 37.9256 7.57627 38.3831 7.85484 38.8619C7.66198 38.7449 7.47985 38.5959 7.27629 38.5161C7.06202 38.431 6.82632 38.4469 6.57455 38.6278L6.5692 38.6332Z" fill="white"/>
<path d="M68.0015 28.7045C68.6871 28.7896 69.2817 29.0397 69.7746 29.5078C70.321 30.0239 70.5674 30.6835 70.6317 31.4124C70.7013 32.1731 70.5995 32.9232 70.4174 33.6627C70.4067 33.7159 70.3745 33.7638 70.3317 33.8117C70.3477 33.2478 70.2513 32.7477 69.5925 32.5189C69.3996 33.1361 69.2764 33.7213 69.6781 34.317C69.6031 34.2799 69.5228 34.2479 69.4532 34.2053C68.5211 33.5989 67.9908 32.7424 67.8408 31.6464C67.7176 30.7208 67.7818 29.7951 67.9425 28.8801C67.9533 28.8269 67.9747 28.7737 67.9961 28.6992L68.0015 28.7045Z" fill="white"/>
<path d="M8.99185 28.7381C8.99185 28.7381 9.03471 28.786 9.04007 28.8179C9.23826 29.9404 9.32397 31.0682 9.04007 32.1854C8.79367 33.175 8.16692 33.8772 7.25626 34.356C7.71158 33.7868 7.59373 33.1803 7.40624 32.5259C6.78486 32.7387 6.65094 33.2069 6.59737 33.7655C6.53845 33.4622 6.46346 33.159 6.41524 32.8504C6.31882 32.1961 6.2974 31.5417 6.44739 30.8927C6.72058 29.7117 7.70087 28.8445 8.9115 28.7168C8.93289 28.7168 8.95436 28.7275 8.98111 28.7381H8.99185Z" fill="white"/>
<path d="M71.6375 22.7901C71.241 22.0506 71.0161 21.8963 70.4643 22.0187C70.5554 22.6039 70.6465 23.1731 71.241 23.5455C71.1499 23.5455 71.0536 23.5561 70.9625 23.5455C70.1054 23.4285 69.3769 23.0667 68.8412 22.3698C68.3698 21.758 68.0699 21.0664 67.8395 20.3376C67.727 19.9971 67.6413 19.646 67.5342 19.2682C67.9948 19.0927 68.4395 19.0235 68.8948 19.0714C69.6769 19.1513 70.2929 19.5236 70.7428 20.162C71.2089 20.8217 71.4392 21.5771 71.6 22.3591C71.6214 22.4708 71.6428 22.5826 71.6588 22.6943C71.6588 22.7156 71.6481 22.7369 71.6375 22.7954V22.7901Z" fill="white"/>
<path d="M9.45973 19.2769C9.19722 20.3675 8.8651 21.3943 8.21696 22.2934C7.68662 23.0222 6.94739 23.4052 6.06352 23.5329C5.96709 23.5489 5.85996 23.5329 5.68319 23.5329C6.34742 23.1871 6.45456 22.6125 6.54027 22.0221C6.04209 21.8784 5.8171 22.0167 5.3725 22.7296C5.3725 22.6391 5.36714 22.5859 5.3725 22.5327C5.50641 21.7826 5.70997 21.0538 6.10638 20.3941C6.79204 19.245 7.99195 18.7875 9.27757 19.1865C9.33116 19.2025 9.37938 19.2344 9.4651 19.2716L9.45973 19.2769Z" fill="white"/>
<path d="M72.8605 11.7832C72.9034 11.8364 72.9409 11.8683 72.9569 11.9056C73.4444 12.9909 73.7872 14.108 73.7766 15.305C73.7766 15.8211 73.6586 16.3158 73.4069 16.768C73.1658 17.2042 72.8177 17.5394 72.373 17.7682C72.3355 17.7894 72.2927 17.8054 72.2498 17.8214C72.2338 17.8214 72.207 17.8107 72.1856 17.8054C72.4748 17.2042 72.4909 16.6616 72.2284 16.1189C71.6981 16.2839 71.6499 16.7414 71.5642 17.1936C71.3767 16.5552 71.2749 15.9168 71.2267 15.2624C71.1892 14.7517 71.1946 14.2463 71.3124 13.7463C71.4892 13.0014 71.8963 12.4057 72.5337 11.9694C72.6355 11.9002 72.7426 11.8471 72.8552 11.7832H72.8605Z" fill="white"/>
<path d="M5.39454 17.3096C5.33562 16.5116 5.21777 16.3041 4.78387 16.1392C4.51068 16.6605 4.45711 17.2989 4.90708 17.8948C4.45175 17.7138 4.10892 17.4691 3.83573 17.1286C3.47682 16.6818 3.29469 16.1604 3.24648 15.5965C3.19827 15.0751 3.21434 14.5485 3.34826 14.0484C3.51968 13.4047 3.73394 12.7716 3.9375 12.1386C3.975 12.0215 4.04464 11.9151 4.11428 11.7715C4.24819 11.8459 4.3714 11.9044 4.47854 11.9789C5.29812 12.5535 5.71059 13.3568 5.78023 14.3357C5.84987 15.2827 5.69452 16.2083 5.48025 17.1234C5.46954 17.1659 5.44811 17.2032 5.3999 17.3096H5.39454Z" fill="white"/>
<path d="M5.84668 41.3285C6.52163 40.855 7.21801 40.706 7.98405 40.9029C8.16077 40.9455 8.3322 41.0146 8.49289 41.0944C9.36068 41.5307 10.0357 42.1903 10.7535 42.9298C9.96604 42.6053 9.83747 42.6053 9.47859 42.9298C9.85357 43.3448 10.2124 43.7703 10.9303 43.6693C10.5874 43.9884 10.2338 44.1428 9.83747 44.2066C9.33929 44.2864 8.85184 44.2066 8.41254 43.9618C8.0483 43.7544 7.70012 43.515 7.38407 43.2383C6.7734 42.7063 6.28593 42.0679 5.84668 41.3285Z" fill="white"/>
<path d="M71.1198 41.3187C71.1037 41.3772 71.0983 41.4144 71.0823 41.441C70.5412 42.3029 69.9091 43.0849 69.0681 43.6808C68.511 44.0744 67.9057 44.3031 67.2093 44.2074C66.7915 44.1543 66.4272 43.9893 66.0576 43.6542C66.4165 43.7179 66.6897 43.6701 66.92 43.4892C67.129 43.3243 67.3218 43.1328 67.5522 42.9307C67.145 42.5529 66.77 42.6699 66.3736 42.8402C66.4165 42.7817 66.454 42.7231 66.5022 42.6699C67.0325 42.122 67.595 41.6059 68.2593 41.2176C68.8271 40.8824 69.4323 40.7228 70.0912 40.8505C70.4662 40.925 70.809 41.0527 71.1251 41.308L71.1198 41.3187Z" fill="white"/>
<path d="M9.89503 33.2793C10.2004 34.0294 10.4093 34.7423 10.5164 35.4818C10.586 35.9659 10.6129 36.45 10.5164 36.9342C10.3611 37.6843 9.97001 38.2854 9.37009 38.7748C9.64862 38.179 9.44507 37.6577 9.1772 37.1363C8.65763 37.3491 8.60941 37.7428 8.69512 38.3439C8.67373 38.3333 8.6469 38.328 8.64153 38.312C8.18621 37.381 7.86482 36.4181 8.04698 35.3701C8.22906 34.3327 8.89867 33.6889 9.9004 33.2793H9.89503Z" fill="white"/>
<path d="M68.3321 38.2872C68.4071 37.8084 68.3374 37.3881 67.8392 37.0956C67.5875 37.6329 67.3464 38.1276 67.5928 38.7288C67.534 38.6915 67.4696 38.6596 67.4214 38.6117C66.7572 37.9574 66.4144 37.17 66.425 36.2391C66.4411 35.2548 66.6929 34.3186 67.0518 33.4088C67.0625 33.3769 67.0893 33.3556 67.1161 33.3184C67.1696 33.329 67.2232 33.3343 67.2768 33.3556C68.3214 33.7652 68.991 34.7335 69.0017 35.8613C69.007 36.638 68.7124 37.7393 68.3268 38.2926L68.3321 38.2872Z" fill="white"/>
<path d="M6.51854 18.3943C7.06493 18.091 7.31135 17.7825 7.46134 17.1441C7.07029 16.9313 6.83995 17.0057 6.33105 17.5431C6.35784 17.4313 6.3632 17.3622 6.38462 17.2984C6.62033 16.6919 6.9203 16.1226 7.3542 15.6279C8.19524 14.6703 9.33082 14.5214 10.445 15.1171C10.4719 15.1332 10.4986 15.1598 10.5415 15.197C10.5147 15.2715 10.4932 15.3566 10.4558 15.4364C10.129 16.1492 9.74329 16.8249 9.21835 17.4207C8.70944 18.0006 8.08269 18.3624 7.30064 18.4049C7.0435 18.4209 6.78103 18.3943 6.5239 18.3836L6.51854 18.3943Z" fill="white"/>
<path d="M70.5306 18.363C69.6681 18.512 68.9182 18.3949 68.2754 17.8842C67.3969 17.1873 66.8987 16.2244 66.4326 15.1976C67.1719 14.7773 67.9111 14.6178 68.6986 14.9423C68.9182 15.0327 69.1271 15.1604 69.3039 15.3094C69.9735 15.8732 70.3484 16.6234 70.6377 17.4426C70.3163 17.1767 70.011 16.8734 69.5503 17.1181C69.636 17.6927 69.9146 18.0598 70.5306 18.363Z" fill="white"/>
<path d="M7.21022 12.5528C7.24772 12.1272 7.22629 11.7549 6.8406 11.5314C6.50313 11.9251 6.41742 12.4571 6.61027 13.0636C6.52455 13.0104 6.45492 12.9838 6.40671 12.9412C5.89246 12.5103 5.61391 11.9623 5.56034 11.2973C5.52284 10.8292 5.58712 10.3717 5.7264 9.92476C5.9621 9.14805 6.33171 8.43521 6.78168 7.76483C6.81918 7.71163 6.86739 7.65847 6.92631 7.58398C7.01202 7.64782 7.09773 7.70105 7.16737 7.7702C7.76733 8.34474 8.05122 9.05759 8.01373 9.87692C7.97087 10.7919 7.67626 11.6485 7.30129 12.4837C7.29593 12.4996 7.26915 12.5103 7.20486 12.5582L7.21022 12.5528Z" fill="white"/>
<path d="M70.1925 11.5062C69.7587 11.7882 69.7265 12.1659 69.8176 12.6553C69.7372 12.5383 69.6943 12.4958 69.673 12.4425C69.3783 11.7562 69.1319 11.0487 69.0195 10.3092C68.8909 9.41544 69.0623 8.59618 69.6837 7.90994C69.7908 7.79287 69.914 7.69711 70.0372 7.58008C70.0908 7.62264 70.1336 7.6386 70.155 7.67587C70.7925 8.61213 71.3068 9.60695 71.4354 10.7455C71.5317 11.6073 71.28 12.3574 70.5997 12.9373C70.5515 12.9798 70.4872 13.0118 70.3747 13.0915C70.6211 12.4958 70.4711 12.0116 70.1872 11.5115L70.1925 11.5062Z" fill="white"/>
<path d="M65.6992 42.1228C65.7689 41.4471 65.742 41.3248 65.3992 41.0322C65.0671 41.4259 64.826 41.8408 64.9117 42.4473C64.8154 42.3516 64.7511 42.3143 64.7136 42.2558C64.2904 41.6015 64.1136 40.8992 64.2529 40.1225C64.435 39.1383 64.8796 38.2712 65.4314 37.4199C65.5385 37.4838 65.6242 37.5317 65.7046 37.5902C66.5027 38.2339 66.867 39.0479 66.6848 40.0693C66.5456 40.8407 66.1706 41.5057 65.6938 42.1228H65.6992Z" fill="white"/>
<path d="M11.5721 37.3926C11.7597 37.7171 11.9365 38.0044 12.0971 38.3023C12.4507 38.9779 12.7399 39.6802 12.7935 40.4515C12.8417 41.1591 12.6328 41.7922 12.2203 42.3614C12.1935 42.3933 12.156 42.4199 12.081 42.4891C12.2257 41.872 11.9471 41.4464 11.6204 41.0314C11.2668 41.3134 11.2347 41.457 11.3632 42.1699C11.3526 42.1699 11.3418 42.1699 11.3365 42.1699C10.699 41.3453 10.2169 40.4569 10.2919 39.3769C10.3508 38.5098 10.8329 37.8926 11.5721 37.3979V37.3926Z" fill="white"/>
<path d="M67.7214 45.3831C67.6893 45.431 67.6624 45.4842 67.6249 45.5267C67.0357 46.1492 66.3875 46.6918 65.6162 47.0802C65.1287 47.3249 64.6198 47.4633 64.0681 47.3994C63.5859 47.3462 63.1842 47.1334 62.8467 46.7664C63.1092 46.7184 63.3556 46.7078 63.5699 46.6227C63.7948 46.5322 63.9931 46.3727 64.202 46.2449C63.9662 45.8779 63.7895 45.8406 63.1467 46.0056C63.227 45.9258 63.2699 45.8672 63.3288 45.83C63.9341 45.3991 64.5555 45.0054 65.2626 44.7713C66.05 44.5107 66.7893 44.6064 67.4589 45.1118C67.5232 45.1597 67.5821 45.2129 67.6357 45.2714C67.6678 45.3033 67.6893 45.3459 67.716 45.3884L67.7214 45.3831Z" fill="white"/>
<path d="M13.7711 45.9583C13.1551 45.8678 13.0694 45.8891 12.7801 46.2189C13.1872 46.5328 13.5783 46.852 14.2103 46.6658C14.1407 46.7616 14.1086 46.8201 14.055 46.868C13.514 47.3734 12.8658 47.5223 12.1587 47.3521C11.8213 47.2723 11.4891 47.1339 11.1785 46.969C10.4874 46.602 9.90888 46.0966 9.37858 45.5327C9.34109 45.4901 9.31433 45.4422 9.26074 45.3731C9.74282 44.857 10.3267 44.5964 11.0231 44.6443C11.3445 44.6655 11.6713 44.756 11.9766 44.8677C12.6033 45.0911 13.1497 45.4582 13.6854 45.8466C13.7122 45.8625 13.7229 45.8998 13.7711 45.9583Z" fill="white"/>
<path d="M8.05068 13.8468C8.64531 13.7564 8.91847 13.384 9.13812 12.9478C8.77387 12.703 8.6292 12.7243 8.01855 13.1127C8.15249 12.8998 8.2382 12.7509 8.33994 12.6073C8.66669 12.1391 9.04167 11.7135 9.52383 11.3996C10.4398 10.8038 11.5433 11.0698 12.1754 11.7028C12.1379 11.772 12.1004 11.8572 12.0522 11.9263C11.6129 12.5541 11.1308 13.1339 10.5041 13.5862C9.83985 14.0702 9.11665 14.1714 8.32921 13.9532C8.25423 13.9319 8.18462 13.8947 8.04531 13.8415L8.05068 13.8468Z" fill="white"/>
<path d="M68.8681 13.054C68.5735 12.8093 68.252 12.6817 67.8396 12.9264C68.0807 13.3573 68.3217 13.7509 68.9377 13.8414C68.7931 13.9053 68.7181 13.9478 68.6377 13.9691C67.8931 14.1712 67.1914 14.0861 66.5539 13.6392C65.8254 13.1286 65.2844 12.4582 64.8076 11.724C65.5093 11.0112 66.5593 10.9154 67.2503 11.2878C67.9896 11.6815 68.4931 12.2933 68.8895 13.0115C68.8895 13.0115 68.8788 13.0274 68.8627 13.0593L68.8681 13.054Z" fill="white"/>
<path d="M66.9549 4.36133C67.0193 4.40921 67.0729 4.44113 67.121 4.48901C67.646 5.05824 68.1067 5.67004 68.4227 6.38291C68.6584 6.92023 68.7977 7.47351 68.6638 8.064C68.5727 8.45768 68.4013 8.80352 68.0477 9.12806C68.1602 8.56946 67.9567 8.17041 67.6406 7.80333C67.3514 8.06937 67.3246 8.18107 67.405 8.7024C67.3889 8.7024 67.3567 8.71835 67.3514 8.71306C66.8317 7.96295 66.3979 7.17027 66.28 6.24992C66.1943 5.59024 66.3979 4.99972 66.8157 4.48369C66.8478 4.44113 66.8961 4.40921 66.9496 4.36665L66.9549 4.36133Z" fill="white"/>
<path d="M62.6935 45.123C62.6561 45.1762 62.6239 45.2294 62.5864 45.2879C62.6132 45.1762 62.6346 45.0539 62.6775 44.9474C62.7953 44.6655 62.7899 44.3995 62.5917 44.1548C62.19 44.3356 61.9382 44.724 61.8472 45.3358C61.7829 45.2294 61.7293 45.1656 61.6972 45.0858C61.4562 44.5006 61.4026 43.8994 61.6007 43.2929C61.9115 42.346 62.5221 41.5905 63.2185 40.8457C63.6363 41.2288 63.8988 41.6597 64.0059 42.1864C64.1131 42.729 64.0113 43.2451 63.7649 43.7345C63.497 44.2665 63.1274 44.724 62.6989 45.1283L62.6935 45.123Z" fill="white"/>
<path d="M10.0744 4.37197C10.4548 4.74436 10.6691 5.21252 10.7066 5.74452C10.728 6.03179 10.7066 6.33503 10.6423 6.61699C10.4655 7.40967 10.053 8.10126 9.58699 8.77155C9.62985 8.4205 9.70483 8.07466 9.36205 7.7821C9.03522 8.15976 8.83704 8.55881 8.92275 9.07485C8.54241 8.73437 8.34423 8.31938 8.296 7.82994C8.25315 7.38307 8.32813 6.95216 8.49955 6.53188C8.82102 5.74452 9.3192 5.06888 9.89772 4.45176C9.91911 4.42517 9.94587 4.40389 9.97807 4.38793C9.99409 4.37729 10.0209 4.37729 10.0691 4.36133L10.0744 4.37197Z" fill="white"/>
<path d="M10.3371 9.38826C10.921 8.7126 11.5477 8.08485 12.5012 8.00504C13.1762 7.94654 13.7065 8.26042 14.1351 8.74449C14.1297 8.78704 14.1351 8.81901 14.1243 8.82967C13.5887 9.44147 12.9834 9.9628 12.2281 10.3033C11.6174 10.5799 11.012 10.5321 10.4121 10.2448C10.3639 10.2235 10.321 10.1862 10.2139 10.1171C10.712 10.0586 11.0228 9.81913 11.2531 9.44676C10.9532 9.14883 10.6478 9.26053 10.3318 9.38826H10.3371Z" fill="white"/>
<path d="M66.631 9.36024C66.3149 9.23788 66.0257 9.17401 65.731 9.44005C65.9774 9.79647 66.2721 10.0732 66.8131 10.0944C66.3524 10.3976 65.9078 10.5147 65.4364 10.4668C65.19 10.4402 64.9436 10.371 64.7186 10.27C63.9794 9.94015 63.3955 9.3975 62.8545 8.82296C63.1544 8.29097 63.9258 7.91323 64.5526 8.00362C64.7883 8.03559 65.0239 8.09945 65.2382 8.19521C65.806 8.45588 66.2507 8.8708 66.631 9.36024Z" fill="white"/>
<path d="M63.8029 1.97266C64.5583 2.57381 65.2118 3.19093 65.5921 4.04213C65.8546 4.622 65.86 5.20188 65.5546 5.77111C65.5225 5.82963 65.4796 5.87751 65.3993 5.99455C65.3832 5.51043 65.201 5.17528 64.8475 4.9146C64.5744 5.17528 64.7028 5.45723 64.7618 5.74451C64.3815 5.37744 64.0654 4.97312 63.8029 4.52624C63.6155 4.21237 63.4708 3.88252 63.4119 3.52076C63.3262 2.97281 63.4494 2.47273 63.8029 1.97266Z" fill="white"/>
<path d="M12.2121 5.76546C12.3085 5.47287 12.4157 5.20154 12.1478 4.8983C11.8318 5.16963 11.6175 5.47818 11.5907 5.94102C11.355 5.71226 11.2639 5.45158 11.2532 5.1909C11.2371 4.89298 11.2371 4.56847 11.3282 4.28651C11.6496 3.297 12.3888 2.632 13.1816 1.98828C13.4388 2.27024 13.5406 2.5788 13.5887 2.90331C13.6477 3.30232 13.5995 3.69599 13.4334 4.06307C13.1495 4.71211 12.7209 5.26538 12.2174 5.76546H12.2121Z" fill="white"/>
<path d="M68.7816 53.2567C67.4049 53.2567 66.4514 51.9905 66.8799 50.735C67.2174 49.7455 68.3531 49.1976 69.4084 49.5167C70.4154 49.82 70.9885 50.8308 70.7154 51.8363C70.4904 52.6822 69.7083 53.2567 68.7763 53.2567H68.7816ZM67.2977 51.3521C67.2977 52.2087 67.9566 52.8523 68.8137 52.8471C69.6387 52.8471 70.2868 52.1714 70.2762 51.3309C70.2654 50.4744 69.6066 49.8253 68.7548 49.8306C67.9299 49.8413 67.2924 50.501 67.2977 51.3469V51.3521Z" fill="white"/>
<path d="M12.6567 7.09583C13.1013 7.13839 13.3852 6.95219 13.653 6.68087C13.4709 6.38295 13.1977 6.43083 12.9192 6.45211C13.562 5.92544 14.2209 5.44664 15.1208 5.59027C15.6511 5.6754 16.0153 5.99992 16.3207 6.44147C15.694 6.95219 15.0566 7.38311 14.2851 7.56399C13.7762 7.68633 13.2888 7.58526 12.8496 7.28734C12.7906 7.24479 12.7424 7.18627 12.6514 7.09583H12.6567Z" fill="white"/>
<path d="M64.1344 6.49967C63.8398 6.41988 63.5719 6.38263 63.3577 6.64863C63.513 6.91463 63.8237 7.10615 64.3326 7.12742C64.0647 7.38811 63.7755 7.53175 63.4541 7.57963C63.2344 7.61154 62.9934 7.62219 62.7791 7.57963C61.9756 7.42002 61.3328 6.96783 60.7061 6.4784C61.0114 5.8666 61.6703 5.49952 62.3184 5.574C63.0363 5.6538 63.6041 6.03683 64.1344 6.50499V6.49967Z" fill="white"/>
<path d="M14.9213 3.48294C15.0339 3.21694 15.1571 3.00946 14.991 2.79135C14.6589 2.91371 14.4875 3.1265 14.3535 3.59466C14.1179 3.20631 14.1125 2.82326 14.2142 2.43491C14.2571 2.27531 14.3268 2.11039 14.4178 1.97207C14.8463 1.28048 15.4785 0.81232 16.1963 0.386719C16.4105 0.716557 16.4855 1.05171 16.432 1.40283C16.3945 1.64223 16.3141 1.88695 16.2069 2.10507C15.982 2.56259 15.4356 3.13714 14.9213 3.48826V3.48294Z" fill="white"/>
<path d="M62.65 3.5853C62.5482 3.19163 62.35 2.94691 62.0447 2.76603C61.8518 2.99478 61.9804 3.21823 62.0286 3.44699C61.4768 3.01075 60.968 2.54791 60.6947 1.88823C60.4912 1.39348 60.5127 0.904038 60.7698 0.419922C60.8287 0.425242 60.8662 0.419922 60.8876 0.435882C61.4554 0.7604 61.9643 1.15408 62.3768 1.66479C62.5857 1.92016 62.7411 2.20743 62.816 2.53727C62.891 2.88307 62.8535 3.18098 62.65 3.5853Z" fill="white"/>
<path d="M60.4694 3.28125C59.1356 3.29188 57.7589 2.38217 57.0732 1.23837C58.1499 0.775536 60.1802 1.70653 60.6569 2.87692C60.307 2.6925 60.0212 2.6127 59.7998 2.63753C59.907 2.94076 60.1534 3.09505 60.4641 3.28125H60.4694Z" fill="white"/>
<path d="M19.9802 1.21634C19.1338 2.39737 18.0946 3.17941 16.5625 3.30709C16.8197 3.07301 17.1089 2.94533 17.1947 2.62081C16.8733 2.56229 16.6321 2.71125 16.3857 2.86553C16.584 1.82282 18.566 0.897144 19.9802 1.21634Z" fill="white"/>
<path d="M61.463 4.26047C61.2094 4.2924 61.0255 4.38106 60.9112 4.52648C61.163 4.76588 61.3076 4.81908 61.7791 4.84567C61.4308 5.22871 61.0184 5.40427 60.5256 5.37235C59.8024 5.31915 59.1756 5.00527 58.5811 4.63288C58.7364 4.10088 59.2613 3.71252 59.8506 3.70188C60.4559 3.68592 60.9701 3.94128 61.463 4.26047Z" fill="white"/>
<path d="M18.4551 4.61056C17.8391 4.98295 17.2392 5.29151 16.5427 5.36068C16.0285 5.41387 15.5946 5.24364 15.1982 4.81804C15.5786 4.84996 15.8625 4.75952 16.0982 4.5414C15.9911 4.38889 15.7768 4.29845 15.4554 4.27008C16.0768 3.91365 16.6499 3.61573 17.3302 3.71148C17.8498 3.78064 18.2141 4.09453 18.4605 4.61056H18.4551Z" fill="white"/>
<path d="M13.746 5.13718C13.6281 5.24358 13.5049 5.34998 13.3871 5.45638L13.3389 5.40318C13.4621 5.29678 13.58 5.19038 13.7032 5.08398C13.7192 5.09994 13.7353 5.1159 13.7513 5.13718H13.746Z" fill="white"/>
<path d="M63.311 5.1693C63.2414 5.11078 63.1663 5.05226 63.0967 4.99374C63.1074 4.97778 63.1181 4.96713 63.1288 4.95117C63.1985 5.00969 63.2735 5.06821 63.3431 5.12673L63.311 5.1693Z" fill="white"/>
<path d="M14.1353 4.80125C14.0924 4.83317 14.0549 4.87041 14.0121 4.90233L13.9639 4.84912C14.0067 4.81721 14.0549 4.77997 14.0977 4.74805C14.1085 4.76401 14.1246 4.77997 14.1353 4.80125Z" fill="white"/>
<path d="M62.7197 4.62695C62.7626 4.65356 62.8001 4.68015 62.8429 4.70143C62.8375 4.71208 62.8268 4.72272 62.8214 4.73867C62.7786 4.71208 62.7411 4.69079 62.6982 4.6642C62.7036 4.65356 62.7143 4.63759 62.7197 4.62695Z" fill="white"/>
<path d="M53.6688 20.7791C53.6688 29.0782 46.8443 35.8399 38.4824 35.8345C30.1259 35.8345 23.3281 29.0569 23.3389 20.7418C23.3495 12.4267 30.1526 5.69696 38.5306 5.71292C46.8818 5.72888 53.6688 12.4799 53.6688 20.7791ZM53.235 20.8004C53.251 12.7619 46.6622 6.19172 38.5842 6.14383C30.4634 6.09595 23.8102 12.6555 23.762 20.6992C23.7139 28.6047 30.142 35.3771 38.461 35.409C46.5818 35.4409 53.2189 28.8654 53.235 20.8057V20.8004Z" fill="white"/>
<path d="M47.403 35.5141C48.1315 35.3066 48.6511 35.5354 49.0528 36.0833C48.635 36.5036 47.9601 36.5781 47.5154 36.2483C47.0494 35.9025 46.8083 35.4237 46.7923 34.8491C46.7816 34.3809 47.0441 34.0458 47.4137 33.7852C47.869 34.1841 47.8744 34.7321 47.403 35.5141Z" fill="white"/>
<path d="M23.5338 29.4432C23.491 28.5334 23.6731 28.1877 24.3426 27.9004C24.5677 28.3207 24.6373 28.7569 24.3748 29.1718C24.0266 29.7198 23.5231 30.055 22.8481 30.0177C22.3124 29.9911 22.0232 29.6187 21.7607 29.1665C22.441 28.8261 23.0142 28.9165 23.5392 29.4379L23.5338 29.4432Z" fill="white"/>
<path d="M54.4412 14.1062C54.3341 13.3508 54.6394 12.8719 55.2393 12.5527C55.6572 13.1486 55.5447 13.8721 54.9876 14.2764C54.6876 14.4945 54.3448 14.6169 53.9752 14.6381C53.3806 14.67 52.9896 14.3722 52.7217 13.8774C53.1931 13.4784 53.7395 13.5369 54.4466 14.1062H54.4412Z" fill="white"/>
<path d="M55.4823 24.0818C55.8037 23.3954 56.3072 23.1401 56.9929 23.2146C57.0893 23.8211 56.5911 24.4329 55.9537 24.4914C55.493 24.5393 55.0698 24.4275 54.6895 24.1616C54.2717 23.8743 54.0895 23.3529 54.2288 22.8848C54.8877 22.8954 55.2358 23.2093 55.4769 24.0765L55.4823 24.0818Z" fill="white"/>
<path d="M51.2497 30.1465C51.8604 30.5136 52.005 30.9445 51.7853 31.817C52.3961 31.3648 52.9746 31.3914 53.5531 31.7957C53.237 32.4022 52.5781 32.6469 51.9889 32.3969C51.5764 32.2213 51.2711 31.9234 51.0676 31.5297C50.8158 31.0403 50.939 30.5934 51.2497 30.1465Z" fill="white"/>
<path d="M54.4374 30.5033C54.041 31.296 53.3178 31.4449 52.8197 31.1896C52.5626 31.0566 52.3108 30.8864 52.1126 30.6789C51.6519 30.2001 51.6358 29.6468 52.0001 29.0723C52.5947 29.2957 52.7929 29.7426 52.6804 30.6629C53.2321 30.1788 53.8106 30.1469 54.4428 30.5033H54.4374Z" fill="white"/>
<path d="M53.2219 26.7051C53.9718 26.9498 54.2236 27.4765 54.1057 28.168C54.2825 28.0191 54.4271 27.8595 54.6039 27.7744C54.7914 27.684 55.011 27.6255 55.2199 27.6148C55.4288 27.6041 55.6378 27.6626 55.8467 27.6946C55.7127 28.3702 55.1128 28.8011 54.4861 28.7001C54.0308 28.6256 53.645 28.4181 53.3504 28.067C53.0183 27.6733 52.9754 27.1786 53.2272 26.7104L53.2219 26.7051Z" fill="white"/>
<path d="M30.843 36.1579C30.318 35.6365 30.318 35.0832 30.6448 34.498C31.068 34.6098 31.4108 35.0407 31.4322 35.4982C31.459 36.0621 31.2608 36.5462 30.843 36.9292C30.4305 37.3017 29.793 37.2963 29.2842 36.9186C29.627 36.3228 30.1305 36.0674 30.8483 36.1579H30.843Z" fill="white"/>
<path d="M54.0317 17.5862C54.6585 17.3309 55.162 17.549 55.6495 18.3045C55.6923 17.5383 56.0994 17.1234 56.7905 16.9531C57.0315 17.4 56.8709 18.0863 56.4369 18.3789C55.8959 18.746 55.3066 18.7832 54.7121 18.5279C54.321 18.3577 54.1282 18.0065 54.0264 17.5809L54.0317 17.5862Z" fill="white"/>
<path d="M54.6729 26.8908C55.0961 26.2418 55.6586 26.0556 56.3603 26.2577C56.2318 27.0238 55.6104 27.4653 54.8765 27.3058C54.6569 27.2579 54.4372 27.1728 54.2444 27.0663C53.6069 26.7152 53.4034 26.0875 53.6337 25.4863C54.2765 25.5129 54.6569 26.013 54.6675 26.8908H54.6729Z" fill="white"/>
<path d="M20.5967 26.3052C21.1912 26.0232 21.7215 26.1881 22.3001 26.8265C22.3429 26.4967 22.3215 26.1775 22.5358 25.9274C22.7394 25.6881 23.0019 25.5391 23.2964 25.4434C23.5161 25.8051 23.4947 26.3105 23.2161 26.6509C22.7982 27.1617 22.2519 27.4117 21.5877 27.3107C21.0198 27.2256 20.7841 26.784 20.5967 26.3052Z" fill="white"/>
<path d="M22.6633 21.5661C22.7116 22.1938 22.4759 22.63 21.9562 22.8694C21.5974 23.0343 21.2224 23.1088 20.8259 23.029C20.1885 22.9014 19.7868 22.3587 19.835 21.6937C20.4403 21.5714 20.917 21.8693 21.3349 22.6726C21.4045 22.3321 21.4849 22.0289 21.7581 21.8373C22.0206 21.6512 22.3098 21.5341 22.6633 21.5714V21.5661Z" fill="white"/>
<path d="M27.4845 32.1421C28.1273 32.6741 28.1219 33.504 27.4845 34.1902C27.0131 34.6956 26.2739 34.9351 25.5186 34.1796C25.8721 33.6742 26.381 33.5678 27.2434 33.8179C26.9006 33.0092 26.9702 32.5517 27.4898 32.1367L27.4845 32.1421Z" fill="white"/>
<path d="M51.5003 34.1583C50.8039 34.8766 50.0272 34.7701 49.5237 34.1849C49.3469 33.9828 49.2022 33.7433 49.1059 33.4933C48.913 32.9879 49.079 32.5038 49.5183 32.1367C50.0486 32.557 50.1236 33.0624 49.7486 33.8232C50.0647 33.7274 50.3593 33.5997 50.6754 33.6689C50.9914 33.7381 51.2699 33.8817 51.5003 34.1477V34.1583Z" fill="white"/>
<path d="M48.5133 32.998C48.9953 33.5353 49.0114 33.9131 48.5989 34.7377C49.2953 34.4664 49.8578 34.6313 50.3184 35.1792C49.756 35.7378 49.0061 35.7591 48.4864 35.2165C48.3096 35.0303 48.1597 34.8015 48.0579 34.5674C47.7901 33.961 47.9561 33.4343 48.5133 32.998Z" fill="white"/>
<path d="M55.6872 22.6988C55.9336 21.9646 56.4211 21.6561 57.1228 21.6561C57.2728 22.1828 56.8925 22.8318 56.3461 22.9914C55.7836 23.1511 55.2587 23.0446 54.7872 22.7147C54.407 22.4488 54.3213 22.0444 54.2998 21.5657C54.6588 21.5231 54.9533 21.6348 55.2265 21.821C55.5104 22.0126 55.5801 22.3317 55.6819 22.6935L55.6872 22.6988Z" fill="white"/>
<path d="M54.3389 20.2418C55.0727 20.162 55.4745 20.4386 55.7798 21.2633C55.962 20.5025 56.4333 20.1514 57.1512 20.1035C57.2958 20.7419 56.9155 21.4761 56.2084 21.5665C55.9405 21.6037 55.6566 21.6037 55.3941 21.5558C54.7085 21.4282 54.3442 20.96 54.3389 20.2471V20.2418Z" fill="white"/>
<path d="M54.9374 15.4371C54.8946 14.7136 55.2427 14.256 55.8748 13.9688C56.2123 14.4955 56.1159 15.1817 55.6553 15.5435C55.2428 15.8733 54.7607 15.9957 54.2411 15.9159C53.7429 15.8414 53.4429 15.5169 53.2607 15.07C53.7268 14.7508 54.4393 14.7827 54.9321 15.4371H54.9374Z" fill="white"/>
<path d="M53.9843 24.1777C54.7182 24.2947 55.0396 24.6459 55.12 25.396C55.3449 25.2045 55.5592 24.9757 55.8217 24.8267C56.1002 24.6725 56.427 24.6459 56.7431 24.747C56.727 25.38 56.2395 25.8908 55.6396 25.9227C55.2753 25.944 54.9378 25.8535 54.6218 25.6832C54.0379 25.3588 53.8236 24.864 53.9843 24.1777Z" fill="white"/>
<path d="M28.4772 33.0098C28.9378 33.3077 29.1468 33.8025 29.0236 34.3185C28.9378 34.6803 28.7557 34.9888 28.4879 35.2441C27.9629 35.7442 27.2237 35.7176 26.6826 35.1697C27.1379 34.627 27.7004 34.4674 28.4022 34.7282C27.9736 33.9354 28.0004 33.5152 28.4772 33.0098Z" fill="white"/>
<path d="M53.4356 29.4921C53.9766 28.9069 54.5498 28.8484 55.1873 29.1357C55.0854 29.6411 54.539 30.0667 54.0141 30.0294C53.3766 29.9816 52.8945 29.6624 52.5892 29.1091C52.3695 28.7101 52.4446 28.3058 52.6481 27.9121C53.3124 28.1355 53.5588 28.609 53.4409 29.4921H53.4356Z" fill="white"/>
<path d="M57.034 18.5488C57.2 19.4267 56.734 20.081 55.9037 20.1448C55.6144 20.1661 55.309 20.1342 55.0305 20.0597C54.5431 19.9214 54.2538 19.4852 54.2217 18.9638C54.827 18.751 55.3305 19.0117 55.7269 19.7724C55.8287 19.4479 55.9037 19.1394 56.1501 18.9266C56.3965 18.7137 56.6804 18.5914 57.0286 18.5542L57.034 18.5488Z" fill="white"/>
<path d="M21.6271 16.8638C22.2002 16.1722 22.7252 16.0126 23.2769 16.3052C23.0466 17.1618 22.2645 17.5128 21.3271 17.183C20.5611 16.917 20.2504 16.2095 20.5771 15.4434C21.2467 15.6509 21.611 16.0871 21.6271 16.8638Z" fill="white"/>
<path d="M19.9639 23.2086C20.7031 23.1287 21.2227 23.3948 21.5388 24.0651C21.5923 23.7087 21.6781 23.3894 21.9673 23.166C22.203 22.9798 22.4709 22.8734 22.8084 22.8574C22.8726 23.3256 22.7923 23.7353 22.444 24.0438C22.0209 24.4215 21.512 24.5545 20.9549 24.464C20.3817 24.3683 20.0282 23.9108 19.9692 23.2033L19.9639 23.2086Z" fill="white"/>
<path d="M22.9528 17.5435C22.8296 18.2245 22.4279 18.6128 21.8011 18.666C21.5868 18.682 21.3672 18.682 21.1529 18.6394C20.3226 18.4852 19.9316 17.8202 20.1619 16.9902C20.7619 17.0062 21.1154 17.368 21.3779 18.2777C21.6993 17.5808 22.235 17.3999 22.9474 17.5435H22.9528Z" fill="white"/>
<path d="M20.1826 24.7618C20.9486 24.5916 21.4843 24.8363 21.8592 25.5013C21.9824 24.6182 22.2396 24.3203 23.0056 24.166C23.1449 24.6075 23.086 25.0225 22.7753 25.3576C22.3146 25.8418 21.7307 26.044 21.0664 25.8684C20.5254 25.7247 20.3487 25.2673 20.1826 24.7618Z" fill="white"/>
<path d="M46.3033 34.4609C46.7104 35.078 46.6515 35.6792 46.0622 36.1846C46.4212 36.1686 46.7479 36.1101 47.0479 36.2644C47.3372 36.4133 47.5621 36.6262 47.7121 36.9134C47.1283 37.3603 46.4104 37.2858 45.9712 36.7432C45.7141 36.424 45.5748 36.0569 45.5587 35.6526C45.5373 35.1046 45.8265 34.7429 46.298 34.4662L46.3033 34.4609Z" fill="white"/>
<path d="M25.2428 31.7955C24.8892 31.0879 25.1463 30.5772 25.7141 30.125C26.0356 30.5187 26.1588 30.9337 25.982 31.3965C25.7891 31.9125 25.4088 32.2636 24.8838 32.4445C24.3482 32.6307 23.7589 32.37 23.4482 31.8274C23.9303 31.3965 24.3803 31.3805 25.2428 31.8008V31.7955Z" fill="white"/>
<path d="M23.7786 26.6836C24.1483 27.5614 23.7358 28.3381 22.7877 28.636C22.027 28.8754 21.3413 28.4977 21.1592 27.7369C21.4538 27.5774 21.7752 27.5508 22.0752 27.6465C22.3537 27.7369 22.6001 27.9284 22.884 28.0881C22.7662 27.3805 23.1251 26.9549 23.7786 26.6836Z" fill="white"/>
<path d="M22.5493 14.1384C23.1814 13.5426 23.6743 13.4681 24.2795 13.8565C24.0706 14.2715 23.76 14.58 23.2832 14.6226C22.6457 14.6811 22.0779 14.4842 21.6922 13.9522C21.3654 13.5053 21.4994 13.0319 21.7029 12.5371C22.0351 12.6701 22.2493 12.8882 22.4208 13.1596C22.6029 13.4415 22.5654 13.7607 22.5493 14.1384Z" fill="white"/>
<path d="M55.3564 16.8679C55.4206 16.0487 55.726 15.6496 56.4009 15.4688C56.6955 15.9954 56.5348 16.6871 56.0259 17.0115C55.6081 17.2775 55.1421 17.3626 54.6546 17.2616C54.1243 17.1552 53.8671 16.7828 53.6904 16.3146C54.3064 16.0167 54.7832 16.1763 55.3564 16.8732V16.8679Z" fill="white"/>
<path d="M21.0962 13.9941C21.7551 14.2016 22.039 14.6485 22.0283 15.5262C22.2532 15.2443 22.4461 14.9837 22.7729 14.9144C23.0889 14.8453 23.4049 14.8773 23.6996 15.0049C23.6246 15.473 23.2175 15.8614 22.7247 15.9253C22.2693 15.9838 21.8408 15.888 21.4551 15.6327C20.9087 15.2762 20.7587 14.574 21.0962 13.9941Z" fill="white"/>
<path d="M50.8365 32.854C51.4686 32.4976 52.0418 32.5562 52.5721 33.0083C52.3043 33.519 51.5222 33.7744 51.0294 33.5137C50.6437 33.3116 50.3491 33.0243 50.1616 32.6359C49.9151 32.1198 50.0062 31.6145 50.4294 31.1836C50.9705 31.5507 51.0776 31.9549 50.8312 32.854H50.8365Z" fill="white"/>
<path d="M22.542 30.5135C23.1848 30.141 23.7687 30.173 24.3258 30.6837C24.1865 29.774 24.3418 29.3909 24.9686 29.0664C25.4667 29.7048 25.2686 30.5188 24.4919 31.0348C23.7526 31.5243 22.9919 31.3327 22.542 30.5188V30.5135Z" fill="white"/>
<path d="M29.6137 35.5037C29.1209 34.8121 29.0995 34.3547 29.5334 33.8066C30.0155 34.0301 30.2833 34.5462 30.1923 35.0834C30.1334 35.4239 29.9941 35.7271 29.7691 35.9932C29.2816 36.5677 28.5585 36.6209 27.9639 36.1262C28.2692 35.5516 28.7192 35.3814 29.6191 35.5037H29.6137Z" fill="white"/>
<path d="M19.8341 20.123C20.5412 20.123 20.9162 20.4103 21.2376 21.2243C21.3662 20.8572 21.5 20.522 21.8644 20.3624C22.1161 20.2561 22.3732 20.1815 22.6464 20.2295C22.7 20.7348 22.4535 21.1923 22.0089 21.4104C21.5857 21.6233 21.1358 21.6552 20.6805 21.5382C20.0752 21.3733 19.7431 20.8252 19.8288 20.123H19.8341Z" fill="white"/>
<path d="M26.5456 31.1738C26.9528 31.5462 27.0706 32.0463 26.8831 32.5357C26.7706 32.8176 26.5938 33.0464 26.3743 33.2486C25.8118 33.7593 25.0243 33.7859 24.4404 33.0571C24.8208 32.5729 25.4047 32.5038 26.2028 32.8656C26.0796 32.5517 25.9511 32.2644 26.0314 31.9505C26.1171 31.6367 26.2832 31.3759 26.5456 31.1791V31.1738Z" fill="white"/>
<path d="M22.7651 18.943C22.749 19.4644 22.4544 19.8847 21.9777 20.0602C21.6241 20.1879 21.2598 20.2039 20.901 20.1188C20.1564 19.9485 19.7921 19.3421 19.9689 18.5547C20.7027 18.6504 21.1313 19.0548 21.2491 19.8208C21.6134 19.0282 22.0848 18.7674 22.7651 18.943Z" fill="white"/>
<path d="M43.0333 3.22763C43.2422 3.1904 43.285 3.30744 43.2797 3.47767C43.2744 3.87135 43.2797 4.27035 43.2744 4.66402C43.2744 4.77574 43.2744 4.88215 43.2744 5.0843C43.5583 4.83426 43.7404 4.59487 43.944 4.37674C44.1475 4.15331 44.3511 3.92987 44.5546 3.70643C44.5814 3.71175 44.6029 3.72239 44.6296 3.72771C44.6457 4.02563 44.6671 4.31822 44.6778 4.61614C44.6939 4.91938 44.7046 5.22262 44.7261 5.57906C44.8171 5.49926 44.876 5.4567 44.9189 5.39818C45.2028 5.0577 45.4814 4.71722 45.7599 4.37142C45.867 4.23843 45.9742 4.16927 46.1509 4.35015C45.6152 4.98854 45.0796 5.62694 44.4903 6.32918C44.41 5.94082 44.4422 5.62694 44.4261 5.31838C44.41 5.02046 44.3993 4.72254 44.3832 4.42462L44.3082 4.40335C43.9011 4.85554 43.494 5.30242 43.0815 5.76526C42.9905 5.52586 42.9637 3.66387 43.0386 3.22231L43.0333 3.22763Z" fill="white"/>
<path d="M32.3795 37.3985C32.0955 37.473 31.8062 37.5475 31.517 37.6273C31.5063 37.606 31.4956 37.5847 31.4795 37.5634C31.6563 37.3346 31.8331 37.1006 32.0259 36.8452C31.8652 36.5952 31.6991 36.3398 31.5384 36.0898C31.5492 36.0738 31.5598 36.0525 31.5706 36.0366C31.8545 36.127 32.1384 36.2228 32.4384 36.3239C32.6312 36.0898 32.8187 35.861 33.0115 35.627C33.033 35.6376 33.049 35.6429 33.0705 35.6536V36.5526C33.3651 36.6643 33.6383 36.7707 33.9115 36.8772C33.9115 36.8984 33.9115 36.9144 33.9168 36.9357C33.6329 37.0261 33.349 37.1165 33.0384 37.2176C33.0223 37.5102 33.0115 37.7975 32.9955 38.1486C32.7009 37.9411 32.6205 37.6113 32.3795 37.3985Z" fill="white"/>
<path d="M41.0125 37.8931C40.7339 37.7494 40.4661 37.6165 40.1982 37.4782C40.1982 37.4569 40.2036 37.4355 40.209 37.4143C40.5036 37.3558 40.7982 37.3026 41.1035 37.244C41.1517 36.9461 41.2 36.6588 41.2589 36.3184C41.5053 36.5737 41.5749 36.877 41.7731 37.127C42.0678 37.0845 42.3624 37.0419 42.657 36.994C42.6678 37.0153 42.6784 37.0366 42.6945 37.0579C42.5392 37.2174 42.3891 37.3823 42.2285 37.5367C42.0999 37.659 42.0785 37.7707 42.1696 37.9197C42.2874 38.1112 42.3839 38.3187 42.4535 38.574C42.1856 38.4517 41.9178 38.3293 41.6178 38.1963C41.3982 38.4091 41.1732 38.622 40.9482 38.8401C40.9322 38.8294 40.9161 38.8241 40.8946 38.8135C40.9322 38.5155 40.9697 38.2176 41.0072 37.8984L41.0125 37.8931Z" fill="white"/>
<path d="M35.4053 38.1917C35.1213 38.3247 34.8482 38.4524 34.575 38.5854C34.5589 38.5694 34.5428 38.5535 34.5268 38.5322C34.666 38.2662 34.8 38.0002 34.9446 37.7183C34.7303 37.4895 34.5268 37.2714 34.3232 37.0479C34.3339 37.0319 34.35 37.0107 34.3607 36.9947C34.65 37.0372 34.9393 37.0852 35.2553 37.1331C35.4053 36.867 35.5499 36.6064 35.6946 36.3457L35.7588 36.3563C35.7803 36.4947 35.807 36.6383 35.8284 36.7766C35.8553 36.9202 35.882 37.0638 35.9088 37.2341C36.2034 37.2926 36.498 37.3565 36.7873 37.415C36.7873 37.4363 36.798 37.4575 36.8034 37.4735C36.5463 37.6065 36.2945 37.7395 36.0052 37.8885C36.0374 38.1811 36.0642 38.479 36.0963 38.7769C36.0802 38.7875 36.0588 38.8035 36.0427 38.8141C35.8338 38.6067 35.6195 38.3992 35.3946 38.1757L35.4053 38.1917Z" fill="white"/>
<path d="M37.7272 38.9446C37.8075 38.668 37.8879 38.386 37.979 38.0775C37.7326 37.902 37.4915 37.7264 37.2451 37.5508C37.2451 37.5295 37.2558 37.5029 37.2611 37.4817H38.1665C38.2736 37.1571 38.3647 36.8752 38.4611 36.5879C38.4825 36.5879 38.5093 36.5879 38.5307 36.5879C38.6325 36.8699 38.7343 37.1465 38.8414 37.4444H39.7842C39.57 37.7317 39.2646 37.8381 39.061 38.0775C39.1521 38.3594 39.2378 38.6467 39.3288 38.9287C39.3128 38.9393 39.2914 38.95 39.2753 38.9659C39.0343 38.801 38.7932 38.6414 38.5307 38.4605C38.279 38.6414 38.0326 38.8117 37.7862 38.9872L37.7272 38.9446Z" fill="white"/>
<path d="M45.5014 37.6108C45.2121 37.5363 44.9175 37.4619 44.6229 37.3873C44.4407 37.6427 44.2694 37.8768 44.1033 38.1108C44.0818 38.1108 44.0551 38.1003 44.0336 38.0949C44.0282 37.9672 44.0176 37.8395 44.0122 37.7119C43.9854 37.0948 44.0604 37.2224 43.5087 37.0575C43.3801 37.0203 43.2515 36.9777 43.1123 36.8767C43.3855 36.7649 43.6586 36.6585 43.9586 36.5362V35.6424C43.9586 35.6424 43.9961 35.6265 44.0176 35.6211C44.1997 35.8446 44.3818 36.068 44.58 36.3074C44.8693 36.2117 45.1532 36.1159 45.4371 36.0254C45.4532 36.0467 45.4639 36.0627 45.4799 36.0839C45.3246 36.3286 45.1639 36.5734 44.9978 36.8287C45.18 37.0735 45.3621 37.3129 45.5442 37.5522C45.5335 37.5682 45.5175 37.5895 45.5068 37.6055L45.5014 37.6108Z" fill="white"/>
<path d="M28.9885 7.54249C28.9885 8.23408 28.4153 8.79804 27.7243 8.78738C27.0386 8.77672 26.4976 8.22342 26.503 7.54249C26.5083 6.86153 27.0601 6.32422 27.7511 6.32422C28.4528 6.32422 28.9885 6.8509 28.9885 7.54249ZM28.71 7.56377C28.71 7.02645 28.2868 6.59021 27.7511 6.58489C27.2315 6.57957 26.7976 6.99985 26.7869 7.52121C26.7762 8.07446 27.2154 8.52135 27.7672 8.51606C28.2921 8.51606 28.71 8.09577 28.71 7.56377Z" fill="white"/>
<path d="M24.8608 10.8517C24.7269 11.0378 24.609 11.2027 24.4751 11.3837C24.4055 11.3464 24.3466 11.3145 24.2555 11.2719C24.3894 11.0644 24.5126 10.8729 24.6412 10.6867C24.6894 10.6122 24.7483 10.5484 24.8019 10.4846C25.2572 10.708 25.4768 11.1017 25.4072 11.5645C25.3215 12.1763 24.7965 12.6126 24.1698 12.6073C23.5377 12.6019 23.0181 12.1231 22.9538 11.4954C22.8949 10.8889 23.3127 10.309 23.8966 10.176C24.1108 10.1281 24.1323 10.1441 24.1698 10.3835C24.0787 10.4101 23.977 10.4314 23.8859 10.4633C23.4842 10.5909 23.227 10.9368 23.227 11.3571C23.227 11.772 23.4734 12.1338 23.8591 12.2774C24.234 12.4157 24.7001 12.2933 24.9465 11.9901C25.2197 11.655 25.1983 11.2081 24.8554 10.857L24.8608 10.8517Z" fill="white"/>
<path d="M30.2298 7.26423C29.8442 6.55667 29.4746 5.88104 29.0889 5.17348C29.2817 5.0724 29.4317 4.97664 29.5978 4.9128C30.112 4.70532 30.5084 4.966 30.5352 5.51928C30.5352 5.55119 30.5352 5.58844 30.5352 5.61504C30.5567 5.631 30.578 5.65227 30.5941 5.65227C30.9316 5.67888 31.1458 5.85976 31.2262 6.17895C31.3065 6.51411 31.1191 6.74287 30.8566 6.91311C30.6691 7.03547 30.4656 7.13123 30.2298 7.26423ZM30.353 6.89183C30.4763 6.82799 30.5673 6.78011 30.6584 6.73223C30.7066 6.70563 30.7548 6.66839 30.7923 6.63115C30.9691 6.47155 31.0012 6.30131 30.8994 6.12043C30.8031 5.95551 30.6477 5.88635 30.4281 5.95551C30.2727 6.00339 30.1281 6.08851 29.962 6.16832C30.1013 6.42899 30.2192 6.64179 30.353 6.89715V6.89183ZM29.4746 5.2852C29.6031 5.51396 29.721 5.72143 29.8388 5.92892C30.2674 5.71079 30.3477 5.56184 30.2031 5.30115C30.0585 5.04048 29.887 5.02984 29.4692 5.2852H29.4746Z" fill="white"/>
<path d="M49.7842 9.79195C50.3895 9.25996 50.9681 8.75986 51.5412 8.25977C52.093 8.62156 52.3662 9.17486 52.2591 9.69083C52.0715 10.5739 50.9948 10.9464 50.3092 10.3505C50.127 10.1909 49.9717 9.99412 49.7842 9.79195ZM51.568 8.6109C51.0966 9.02053 50.6466 9.41421 50.1806 9.81855C50.4484 10.1803 50.743 10.425 51.1984 10.3505C51.5787 10.292 51.8412 10.0633 51.9644 9.70148C52.1144 9.26525 51.9055 8.94072 51.5733 8.6109H51.568Z" fill="white"/>
<path d="M49.634 6.46821C49.8269 6.6544 50.0143 6.80337 50.1644 6.97893C50.3411 7.1864 50.3787 7.4258 50.2179 7.6652C50.0626 7.89932 49.859 8.03762 49.5644 8.00565C49.4787 7.99507 49.393 7.97376 49.2751 7.95245C49.2376 8.34613 49.2055 8.72387 49.168 9.11755C48.9645 9.075 48.9001 8.97388 48.9216 8.79839C48.9484 8.56425 48.9645 8.32489 48.9859 8.09083C48.9966 7.98442 49.002 7.878 48.9484 7.7397C48.7448 7.97376 48.5413 8.20782 48.3216 8.45791C48.252 8.40999 48.193 8.36744 48.0967 8.29829C48.6109 7.68649 49.1091 7.09597 49.634 6.46289V6.46821ZM49.1412 7.49496C49.3341 7.64392 49.484 7.80885 49.7304 7.72904C49.8911 7.67583 50.0037 7.54816 50.0197 7.38324C50.0412 7.13852 49.8751 7.00552 49.6555 6.88316C49.484 7.08532 49.3233 7.28217 49.1412 7.49496Z" fill="white"/>
<path d="M47.8204 5.18945C47.7026 6.07257 47.5901 6.90781 47.4776 7.75368C47.2687 7.75368 47.2098 7.65792 47.2311 7.49832C47.2526 7.32276 47.274 7.14188 47.3008 6.94504C47.0222 6.78013 46.7544 6.61521 46.4598 6.43965C46.3045 6.54605 46.1438 6.64712 45.9937 6.76416C45.8705 6.85992 45.7688 6.83864 45.667 6.73225C45.7956 6.54073 47.3758 5.40225 47.8258 5.18945H47.8204ZM47.4669 5.74805C47.1562 5.89169 46.9366 6.06193 46.7008 6.28536C46.9259 6.41305 47.1133 6.51944 47.3437 6.64712C47.3865 6.32792 47.424 6.06193 47.4669 5.74805Z" fill="white"/>
<path d="M41.2812 2.86556C41.4954 3.69016 41.7044 4.52008 41.924 5.36063C41.7365 5.39255 41.6348 5.36063 41.5919 5.20635C41.5812 5.17443 41.5758 5.1372 41.5651 5.11059C41.5062 4.95632 41.4419 4.80735 41.383 4.65308C41.0883 4.61052 40.7991 4.56263 40.5045 4.53072C40.4616 4.53072 40.3974 4.6052 40.3598 4.65308C40.2848 4.75416 40.2206 4.86055 40.1562 4.96695C40.0652 5.12124 39.9527 5.12656 39.792 5.01484C40.258 4.286 40.7241 3.5678 41.1848 2.84961C41.2116 2.84961 41.2437 2.86024 41.2705 2.86556H41.2812ZM41.3776 4.3658C41.2973 4.04128 41.2277 3.76464 41.1633 3.49333C41.1419 3.49333 41.1151 3.49333 41.0937 3.49333C40.9437 3.7274 40.7991 3.9668 40.6169 4.24876C40.8794 4.29132 41.0991 4.32323 41.3776 4.37112V4.3658Z" fill="white"/>
<path d="M32.0897 4.76926C32.4004 4.66286 32.6683 4.57242 32.9361 4.47666C33.0539 4.60966 33.0593 4.7001 32.8932 4.76394C32.6683 4.84906 32.4486 4.92886 32.1915 5.02994C32.2933 5.31721 32.395 5.58322 32.5022 5.88114C32.7646 5.78537 32.995 5.70026 33.2307 5.61513C33.3914 5.55661 33.4717 5.60449 33.4611 5.81198C33.1021 5.94498 32.7325 6.07797 32.3254 6.22693C32.0469 5.47682 31.779 4.76394 31.4951 3.99787C31.8808 3.85422 32.2451 3.71591 32.6308 3.57227C32.6683 3.64675 32.7004 3.71059 32.7486 3.80102C32.4433 3.91806 32.1594 4.02978 31.8594 4.14682C31.9397 4.35962 32.004 4.55114 32.0897 4.77458V4.76926Z" fill="white"/>
<path d="M33.9512 3.19683C34.3422 3.11172 34.685 3.03191 35.0279 2.96807C35.0761 2.95743 35.1351 3.01595 35.1886 3.04787C35.1511 3.10639 35.1243 3.20215 35.0761 3.21811C34.8297 3.28727 34.5725 3.33515 34.3208 3.39367C34.3208 3.47879 34.31 3.53731 34.3208 3.59051C34.3476 3.73415 34.3851 3.87247 34.428 4.05335C34.6744 4.00546 34.8993 3.95759 35.1297 3.91503C35.2743 3.88843 35.2743 3.89375 35.3867 4.10655C35.0975 4.18102 34.819 4.25018 34.5029 4.32999C34.5029 4.62258 34.5886 4.89922 34.685 5.20246C34.9368 5.14926 35.1779 5.09606 35.4243 5.05882C35.5635 5.03222 35.5689 5.04286 35.6546 5.2663C35.2583 5.35142 34.8672 5.43122 34.444 5.52165C34.2725 4.7343 34.1119 3.98951 33.9404 3.19683H33.9512Z" fill="white"/>
<path d="M51.9218 11.4837C51.97 11.521 52.0236 11.5582 52.0878 11.6061C52.045 11.7125 51.986 11.8136 51.9593 11.9146C51.9111 12.1062 51.9646 12.2711 52.1307 12.3934C52.2807 12.5051 52.4467 12.5212 52.6128 12.436C52.7842 12.3509 52.8432 12.1913 52.8271 12.0104C52.811 11.8295 52.7736 11.654 52.7682 11.4731C52.7521 11.1432 52.8753 10.9411 53.1271 10.8454C53.3681 10.7549 53.652 10.8347 53.8342 11.0475C54.0431 11.2869 54.0592 11.5369 53.8931 11.8189C53.7698 11.8189 53.7056 11.7657 53.7217 11.6327C53.7323 11.5423 53.7323 11.4518 53.711 11.3667C53.6574 11.1805 53.4699 11.0741 53.2878 11.106C53.1217 11.1379 53.0413 11.239 53.0467 11.4571C53.0467 11.6167 53.0788 11.771 53.0949 11.9306C53.1432 12.3349 52.9985 12.6115 52.6717 12.7286C52.3396 12.851 51.97 12.718 51.7772 12.4147C51.5843 12.1062 51.6272 11.7816 51.9111 11.4891L51.9218 11.4837Z" fill="white"/>
<path d="M26.7936 9.58566C26.9757 9.67076 27.0508 9.73462 26.9543 9.85162C26.8633 9.96332 26.7615 10.0751 26.6597 10.1814C26.5847 10.2612 26.5044 10.3411 26.4079 10.4315C25.8187 9.89417 25.2509 9.37812 24.667 8.8515C24.7313 8.77698 24.7742 8.71848 24.8492 8.63867C25.3741 9.11217 25.883 9.575 26.4294 10.0697C26.558 9.89953 26.6758 9.7452 26.7936 9.59095V9.58566Z" fill="white"/>
<path d="M37.7596 3.37087C37.7488 3.78583 37.4275 4.08375 37.0043 4.06779C36.6079 4.05183 36.2972 3.72199 36.3079 3.33895C36.3186 2.95591 36.6507 2.63672 37.0417 2.63672C37.4488 2.63672 37.7703 2.96123 37.7649 3.37619L37.7596 3.37087ZM37.6417 3.36024C37.6417 3.05168 37.3792 2.77504 37.0578 2.7644C36.7257 2.75376 36.4418 3.02507 36.4365 3.35492C36.4365 3.68475 36.715 3.96139 37.0471 3.95607C37.3632 3.95075 37.6364 3.67411 37.6364 3.36555L37.6417 3.36024Z" fill="white"/>
<path d="M68.4947 51.6223C68.484 51.8564 68.4733 52.0799 68.4625 52.3192H68.0447C68.0018 51.6969 68.0233 51.0797 68.0287 50.436C68.4251 50.3402 68.8108 50.335 69.1911 50.4041C69.4 50.4413 69.5714 50.5636 69.6196 50.7924C69.6732 51.0159 69.5875 51.1914 69.3947 51.3138C69.3678 51.3298 69.3411 51.351 69.2928 51.3776C69.5928 51.6277 69.5928 51.9682 69.6839 52.2767C69.2714 52.3991 69.2232 52.3724 69.116 51.9947C69.0036 51.6011 68.9554 51.5691 68.4894 51.617L68.4947 51.6223ZM68.5269 50.7286V51.2606C68.6876 51.2393 68.8215 51.234 68.9447 51.2074C69.0625 51.1754 69.1375 51.0904 69.1268 50.9573C69.116 50.8297 69.0304 50.7499 68.9125 50.7339C68.7947 50.718 68.6715 50.7339 68.5269 50.7339V50.7286Z" fill="white"/>
<path d="M43.8093 8.26039C43.954 8.0849 43.9754 8.3136 44.0879 8.3402C44.12 8.19124 44.1522 8.04227 44.195 7.85076C44.3129 7.7018 44.4735 7.70716 44.6771 7.80292C47.6394 9.22869 49.8785 11.3939 51.3838 14.2986C51.4481 14.4263 51.4802 14.5752 51.4909 14.7189C51.507 14.9529 51.4909 15.1924 51.4802 15.4317C51.4802 15.4903 51.4802 15.5701 51.4534 15.5967C51.1588 15.8467 51.3195 16.2084 51.223 16.5117C51.1963 16.5968 51.2499 16.7032 51.2659 16.8043C51.3195 17.081 51.3785 17.3576 51.4159 17.6342C51.432 17.7619 51.3998 17.8843 51.2391 17.8896C51.1534 17.4959 51.0624 17.1129 50.9714 16.6926C50.891 16.7511 50.8267 16.7936 50.7463 16.8522C50.7356 16.7405 50.7196 16.6447 50.7088 16.5489C50.6981 16.5489 50.6821 16.5436 50.6714 16.5383C50.6445 16.6234 50.6231 16.7139 50.5964 16.799C50.5535 16.9408 50.6053 17.0366 50.7517 17.0863C50.9553 17.1554 50.9981 17.2246 50.8803 17.4054C50.741 17.613 50.7517 17.7991 50.8321 18.0385C51.0035 18.5652 51.0731 19.1132 50.8695 19.6611C50.8267 19.7782 50.6981 19.9484 50.9445 20.0229C50.9606 20.0229 50.966 20.0867 50.9606 20.1187C50.9285 20.3048 50.8963 20.4857 50.8642 20.6719C50.8428 20.6719 50.8159 20.6719 50.7946 20.6666C50.7838 20.5283 50.7785 20.3846 50.7677 20.2622C50.5856 20.4272 50.3928 20.5868 50.216 20.7676C50.1517 20.8315 50.1142 20.9326 50.0928 21.023C50.0607 21.1613 50.0767 21.3156 49.9214 21.3955C49.6696 21.2252 50.0339 21.0443 49.8732 20.8581C49.691 20.9486 49.6482 21.1135 49.6482 21.2943C49.6482 21.3848 49.675 21.4752 49.7071 21.5604C49.9803 22.1881 49.8196 22.6988 49.3108 23.1191C49.2411 22.8957 49.1714 22.6828 49.1018 22.4647H49.0161C48.9786 22.5498 48.9143 22.6403 48.9197 22.7201C48.9304 22.9755 48.9572 23.2308 49.0108 23.4809C49.0643 23.7096 49.0161 24.1831 48.925 24.4438C48.8822 24.5662 48.925 24.7204 48.9464 24.8534C48.9572 24.9226 49.0268 24.9864 49.0429 25.013C48.9464 25.1566 48.8661 25.279 48.7804 25.3961C48.8768 25.5344 48.9304 25.6567 49.1072 25.6248C49.1393 25.6195 49.2143 25.662 49.2197 25.6886C49.2572 25.9866 49.4928 25.9015 49.6643 25.9227C49.7767 25.9387 49.8893 25.9227 50.0607 25.9227C49.9321 26.0504 49.8303 26.1515 49.691 26.2898C49.6964 26.1728 49.7018 26.1089 49.7071 26.0132C49.6107 26.077 49.5411 26.1196 49.5036 26.1462C49.3054 26.0504 49.1286 25.9653 48.9518 25.8749C48.8126 25.8057 48.7215 25.7259 48.6679 25.5397C48.5822 25.2417 48.5233 24.9598 48.5126 24.6513C48.5018 24.364 48.4108 24.082 48.3519 23.7947C48.3412 23.7415 48.3412 23.6883 48.3358 23.6245C48.6625 23.5819 48.5554 23.9278 48.7697 24.0395C48.7429 23.7734 48.7161 23.5341 48.7 23.2946C48.6947 23.1829 48.6947 23.0712 48.7215 22.9648C48.8232 22.5764 48.8286 22.1827 48.7911 21.7625C48.7 21.7838 48.6143 21.8051 48.5018 21.837C48.5715 21.4114 48.4161 21.055 48.2929 20.6879C47.9448 20.7038 47.8376 20.9964 47.6662 21.1986C47.5055 21.3848 47.3609 21.5923 47.2109 21.7891C47.1895 21.8157 47.152 21.8423 47.152 21.8689C47.1466 22.2041 46.9484 22.5179 47.0769 22.8637C47.1145 22.9701 47.1359 23.0872 47.1359 23.1936C47.1359 23.316 47.1091 23.4383 46.9484 23.4915C46.7984 23.3638 46.8787 23.1989 46.8627 23.0233C46.793 23.0446 46.7288 23.0659 46.6163 23.0978C46.4824 22.3477 46.2895 21.6082 46.2734 20.8474C46.027 20.8208 46.0163 20.8156 45.9199 20.6347C45.8074 20.4166 45.7003 20.1985 45.5985 19.9963C45.2021 19.959 44.8378 19.9218 44.4468 19.8792C44.4093 19.9909 44.4575 20.0654 44.5646 20.1346C44.8593 20.3314 44.886 20.4432 44.7146 20.7411C44.5914 20.9486 44.5164 21.1773 44.3075 21.3369C43.9432 21.6082 43.579 21.8849 43.1504 22.0604C43.0058 22.119 42.8665 22.1775 42.7058 22.2413C42.7487 22.3371 42.7755 22.4062 42.8129 22.4966C43.1076 22.4275 43.3915 22.3637 43.6861 22.2945C43.7718 22.4647 43.7129 22.6243 43.6432 22.7733C43.4129 23.2521 43.204 23.7362 42.7541 24.0767C42.5237 24.2522 42.3576 24.513 42.1755 24.7417C41.9344 25.0449 41.9773 25.4067 42.0577 25.7366C42.1273 26.0291 42.0576 26.2951 42.0041 26.5665C41.9826 26.6782 41.8381 26.7686 41.7416 26.859C41.6345 26.9601 41.5113 27.0453 41.3988 27.1356C41.313 27.2048 41.2863 27.2846 41.3078 27.407C41.3506 27.6357 41.3452 27.8592 41.0827 27.9816C41.0345 28.0028 41.0024 28.0879 40.9863 28.1465C40.9006 28.4763 40.6756 28.721 40.4614 28.971C40.3328 29.1254 40.1614 29.2105 39.9524 29.1998C39.8775 29.1998 39.7971 29.2211 39.7168 29.2317C39.465 29.2743 39.4114 29.2264 39.3472 28.971C39.2936 28.7423 39.2025 28.5295 39.1275 28.306C39.0793 28.1677 39.0364 28.0294 38.9936 27.8911C38.9026 27.6145 38.8597 27.3112 38.7204 27.0612C38.5382 26.7314 38.5865 26.4228 38.7097 26.1196C38.7794 25.9493 38.8008 25.811 38.7418 25.6408C38.6936 25.5024 38.7043 25.3482 38.6614 25.2099C38.5918 24.9864 38.5061 24.7683 38.3293 24.5874C38.1901 24.4438 38.1365 24.2629 38.1901 24.0554C38.2222 23.9224 38.233 23.7894 38.2543 23.6564C38.2008 23.6085 38.1472 23.5607 38.099 23.5075C38.0776 23.4862 38.0615 23.4277 38.0562 23.433C37.7937 23.4862 37.7133 23.2946 37.5955 23.1297C37.5526 23.0712 37.3437 23.0712 37.2526 23.1244C37.033 23.2414 36.8241 23.316 36.5777 23.2361C36.5402 23.2255 36.4759 23.2255 36.4438 23.2468C36.2081 23.4117 36.0688 23.2574 35.9241 23.1084C35.7367 22.9169 35.517 22.7574 35.4582 22.4647C35.4313 22.3371 35.2921 22.2254 35.201 22.1136C34.9975 21.8636 34.9546 21.5923 35.0189 21.2677C35.0671 21.0337 35.0189 20.7783 35.0081 20.5283C35.0081 20.4644 34.9546 20.3953 34.9653 20.3314C35.0457 19.858 35.1957 19.4057 35.5331 19.0547C35.6831 18.9003 35.8009 18.7673 35.8063 18.5386C35.8117 18.3258 35.8706 18.113 36.0688 17.98C36.0956 17.9587 36.1224 17.9375 36.1438 17.9109C36.3742 17.6501 36.2991 17.3895 35.967 17.2725C35.9135 17.0331 35.8866 16.799 35.9777 16.5489C36.026 16.416 35.9938 16.2563 35.9938 16.1127C35.9938 15.8733 36.0902 15.7882 36.3366 15.8201C36.5027 15.8413 36.6687 15.8679 36.8509 15.8893C36.9634 15.5435 36.9795 15.2561 36.6687 15.0275C36.5188 14.9157 36.5509 14.7561 36.7277 14.7455C36.8884 14.7348 36.8884 14.5912 36.9902 14.554C37.0866 14.5221 37.183 14.5114 37.2741 14.4475C37.0116 14.3997 36.7652 14.506 36.4598 14.5752C36.5616 14.389 36.6848 14.2613 36.5991 14.0964C36.6581 13.9262 36.7223 13.7613 36.7813 13.6017C36.5455 13.6761 36.5134 13.7613 36.6045 14.1018C36.4813 14.0379 36.3688 14.0698 36.2509 14.1284C36.1974 14.155 36.0849 14.155 36.0688 14.1284C36.0313 14.0752 36.0367 13.9847 36.0421 13.9156C36.0527 13.8198 36.0742 13.724 36.1009 13.6336C36.1224 13.5644 36.1438 13.4846 36.192 13.4314C36.2885 13.3251 36.4063 13.2399 36.5241 13.1282C36.3742 12.7026 36.583 12.4845 37.0116 12.41C36.942 12.6281 37.0759 12.8356 37.0437 13.0803C37.0169 13.2772 37.1509 13.5166 37.2741 13.7027C37.3812 13.8623 37.4455 14.006 37.3437 14.2081C37.3758 14.2081 37.408 14.2135 37.4401 14.2188C37.5205 14.0964 37.5741 13.9474 37.6812 13.8571C37.7937 13.7559 37.9543 13.7027 38.1098 13.6229C38.1098 13.5644 38.1258 13.4953 38.1098 13.4314C38.024 13.1495 38.0829 12.9154 38.3562 12.7665C38.4579 12.7079 38.4686 12.6387 38.4258 12.5111C38.2918 12.5962 38.1686 12.676 38.0348 12.7611C37.7348 12.5484 37.8205 12.2451 37.7883 11.9791C37.7454 11.628 38.0133 11.4205 38.2436 11.2502C38.399 11.1279 38.4847 10.9843 38.5757 10.8353C38.699 10.6384 38.7686 10.4044 38.8704 10.1597C38.8221 10.1597 38.774 10.1703 38.6722 10.181C38.7954 10.0107 38.8757 9.85644 38.9989 9.73937C39.2132 9.53191 39.4757 9.38823 39.7275 9.22332C39.931 9.09031 40.2739 9.15417 40.4506 9.38294C40.5632 9.52654 40.7024 9.58511 40.8524 9.65956C41.072 9.77126 41.2755 9.92022 41.4631 10.0798C41.5381 10.1437 41.5542 10.2767 41.6023 10.3937C41.6399 10.3937 41.7041 10.3937 41.7952 10.4044C41.7523 10.2076 41.7148 10.016 41.6774 9.82983C41.9934 9.82983 42.0041 9.82983 42.0041 10.2129C42.1541 10.0532 42.2987 9.89899 42.4487 9.74473C42.529 9.65956 42.6255 9.60106 42.7541 9.64361C42.9094 9.69682 43.0112 9.62237 43.0916 9.49465C43.0219 9.39889 42.9523 9.30842 42.8451 9.16483C43.0219 9.22332 43.1344 9.26058 43.2469 9.29248C43.354 9.32445 43.4665 9.34568 43.5736 9.37229C43.5254 8.952 43.4718 8.52113 43.4183 8.0583C43.5844 8.14869 43.6915 8.20726 43.8039 8.26576C43.8254 8.33491 43.8414 8.40406 43.8629 8.47322C43.8897 8.45727 43.9165 8.44132 43.9432 8.42538C43.895 8.37217 43.8468 8.32425 43.7986 8.27105L43.8093 8.26039ZM41.5702 17.6662C41.4202 17.6555 41.2595 17.7619 41.1256 17.6076C41.1095 17.5864 41.0291 17.6182 40.9756 17.6342C40.7024 17.7087 40.5578 17.6555 40.4614 17.4054C40.3649 17.1607 40.2953 16.9 40.2096 16.6394C40.1131 16.7192 40.0328 16.783 39.9524 16.8468C40.0274 16.9746 40.0917 17.0915 40.1506 17.198C40.065 17.3363 39.9899 17.448 39.9149 17.565C39.8721 17.5331 39.8185 17.5118 39.8025 17.4746C39.7275 17.3203 39.6311 17.1873 39.5775 17.0064C39.5239 16.8202 39.4275 16.65 39.406 16.4372C39.3954 16.3468 39.2936 16.235 39.2078 16.1872C39.0364 16.1021 38.9026 16.001 38.8169 15.8308C38.7794 15.7616 38.7043 15.7137 38.6347 15.6498C38.624 15.703 38.6026 15.735 38.6133 15.7456C38.7579 15.9372 38.7954 16.2031 39.0472 16.3308C39.1596 16.3894 39.2453 16.5117 39.3311 16.6181C39.4221 16.7245 39.3954 16.7617 39.1811 16.8043C39.2614 17.1129 38.9829 17.2618 38.8918 17.5225C38.7472 17.4108 38.5811 17.3735 38.5543 17.1661C38.6508 17.1501 38.7418 17.1448 38.8275 17.1182C39.0043 17.0703 39.0525 16.9586 38.9454 16.8149C38.7686 16.5702 38.5329 16.384 38.2812 16.2031C38.1258 16.4638 38.4204 16.7936 38.1044 16.9958C37.9222 16.6128 37.9972 16.1712 38.2651 15.9744C38.183 15.8679 38.0329 15.8982 37.8151 16.0648C37.7133 16.0435 37.6222 16.0276 37.5044 16.001C37.4776 16.2404 37.408 16.4265 37.2151 16.5649C37.124 16.6287 37.0759 16.7405 37.0866 16.8894C37.108 17.1607 36.9205 17.3469 36.6259 17.4001C36.5295 17.4161 36.4492 17.4427 36.4652 17.5864C36.6473 17.6448 36.8188 17.6767 36.9902 17.5278C37.1509 17.3842 37.3544 17.3522 37.5633 17.3416C37.7669 17.331 37.9651 17.2991 38.1686 17.3044C38.249 17.3044 38.3775 17.3735 38.399 17.4374C38.4365 17.5598 38.4258 17.6981 38.4097 17.8311C38.3883 18.0598 38.4258 18.1183 38.6401 18.1875C38.7472 18.2194 38.9026 18.246 38.9401 18.3205C39.0525 18.5652 39.3043 18.5865 39.5078 18.7727C39.5186 18.6556 39.5078 18.5918 39.5292 18.5333C39.5453 18.4588 39.5614 18.3684 39.6097 18.3205C39.7168 18.2087 39.8507 18.2087 39.9846 18.2833C40.3274 18.4748 40.6649 18.7035 41.0935 18.5226C41.1202 18.512 41.1631 18.5226 41.1952 18.5333C41.4898 18.5865 41.4898 18.5865 41.5648 18.3311C41.6023 18.2141 41.6452 18.0917 41.6559 17.9694C41.6666 17.847 41.6399 17.7193 41.6238 17.5969C41.597 17.6076 41.5755 17.613 41.5488 17.6235C41.5594 17.6396 41.5702 17.6555 41.5809 17.6715L41.5702 17.6662ZM41.0131 15.4105L40.9059 15.4211C40.8256 15.6232 40.7506 15.8361 40.6595 16.0329C40.5953 16.1659 40.5632 16.3042 40.6756 16.4106C40.7988 16.5224 40.9434 16.4958 41.0827 16.4106C41.2863 16.2829 41.4952 16.2829 41.688 16.4265C41.8594 16.5489 42.0362 16.5702 42.2344 16.5064C42.4112 16.1765 42.0684 16.1021 41.9452 15.9372C41.7737 15.7137 41.5381 15.6711 41.2917 15.8627C41.1898 15.6977 41.0988 15.5541 41.0131 15.4105ZM38.8436 13.6176C39.0739 13.3356 39.3793 13.4155 39.7007 13.4687C39.5132 13.2719 39.5507 13.0803 39.6097 12.8622C39.6632 12.6547 39.6257 12.4206 39.8989 12.3036C39.6472 12.1972 39.5186 12.0642 39.5561 11.7982C39.5775 11.6546 39.5132 11.5003 39.4917 11.3407C39.165 11.5854 39.1168 11.7556 39.2882 12.0589C39.3632 12.1866 39.4007 12.3249 39.2989 12.4366C39.1596 12.5855 39.1436 12.7452 39.1543 12.9314C39.1543 13.0165 39.0954 13.1282 39.0258 13.1814C38.9186 13.2665 38.7794 13.3144 38.6508 13.3836C38.715 13.458 38.7686 13.5219 38.849 13.6176H38.8436ZM43.6432 15.3679C43.6432 15.3679 43.6111 15.3147 43.595 15.2881C43.504 15.3041 43.3861 15.2881 43.3219 15.3413C43.204 15.4371 43.1076 15.5647 43.0165 15.6871C43.0005 15.7137 43.0165 15.7776 43.038 15.8148C43.1772 16.118 43.3165 16.416 43.4772 16.7564C43.4612 16.9054 43.2736 17.1235 43.4665 17.3203C43.5844 17.4427 43.7343 17.5864 43.9754 17.4054C43.7665 16.8841 43.7611 16.2723 43.3486 15.8095C43.4612 15.6445 43.5522 15.5062 43.6486 15.3626L43.6432 15.3679ZM42.6523 21.938C42.604 21.6348 42.6201 21.3848 42.4648 21.156C42.3416 20.9752 42.1862 20.773 42.1648 20.5655C42.1166 20.1558 41.8488 19.858 41.7202 19.4962C41.7041 19.4484 41.6452 19.4111 41.6023 19.3685C41.5809 19.3791 41.5595 19.3898 41.5381 19.3952C41.5648 19.5069 41.5755 19.6292 41.613 19.7356C41.747 20.1187 42.0041 20.4644 41.9934 20.8954C41.9934 20.9486 42.0577 21.0071 42.0898 21.0656C42.1273 21.1347 42.1809 21.2039 42.1916 21.2731C42.2238 21.555 42.4219 21.7146 42.6523 21.9327V21.938ZM43.8414 20.0069C44.1468 20.0282 44.1468 20.0229 44.2593 19.7303C44.0986 19.6133 43.9486 19.5015 43.7879 19.4004C43.6326 19.2994 43.6915 19.0227 43.3915 18.9855C43.4397 19.1291 43.4772 19.2408 43.504 19.3472C43.5736 19.5867 43.8736 19.6984 43.8414 20.0069ZM41.1845 10.7608C41.2809 10.8033 41.3559 10.8353 41.4362 10.8672V10.5693H40.9649C40.9809 10.6916 40.997 10.7928 41.0185 10.9311C41.0827 10.8566 41.1256 10.814 41.1845 10.7555V10.7608ZM39.8775 10.7608C39.7168 10.7821 39.6293 10.9381 39.615 11.229C39.7757 11.1066 39.8667 10.9736 39.8775 10.7608ZM40.1239 12.144C40.2042 12.2398 40.2899 12.3302 40.381 12.1281C40.2738 12.1334 40.1988 12.1387 40.1239 12.144ZM38.5008 13.1016C38.5008 13.1016 38.5543 13.0856 38.5811 13.075C38.5543 13.0165 38.5276 12.9526 38.5008 12.8941C38.4794 12.9048 38.4579 12.9101 38.4365 12.9207C38.4579 12.9792 38.4794 13.0431 38.5008 13.1016ZM44.4629 9.97343H44.4843V9.76068H44.4629V9.97343Z" fill="white"/>
<path d="M30.0093 12.7184C30.0093 12.8834 29.9932 12.9844 30.0093 13.0855C30.0254 13.1653 30.0629 13.261 30.1218 13.3089C30.229 13.3888 30.3147 13.2823 30.379 13.2132C30.4593 13.1281 30.5183 13.0163 30.5986 12.8939C30.8182 13.0855 30.9736 13.3249 30.9842 13.559C30.995 13.7505 31.1022 13.8675 31.1932 13.8994C31.3807 13.974 31.5146 14.0804 31.6217 14.2399C31.6485 14.2772 31.7128 14.2931 31.8092 14.341C31.7235 14.4634 31.6646 14.591 31.5735 14.6656C31.236 14.9475 30.8879 15.2028 30.4057 15.1124C30.3629 15.1018 30.3147 15.1177 30.2719 15.1337C30.1379 15.1762 29.8433 15.4848 29.7843 15.6923C29.8915 15.5859 29.9932 15.4742 30.1004 15.3678C30.229 15.2454 30.3629 15.1815 30.5236 15.3518C30.5075 15.4955 30.3254 15.6284 30.47 15.8199C30.545 15.836 30.6468 15.8572 30.7647 15.8838C30.7432 15.937 30.7164 15.9902 30.695 16.0434C30.7057 16.0541 30.7111 16.0647 30.7218 16.0807C30.8182 16.0062 30.9146 15.9263 31.0325 15.836C31.0486 15.8945 31.0861 15.9529 31.0753 15.9689C30.8718 16.187 30.604 16.2988 30.2719 16.4105C30.3307 16.2828 30.3682 16.2083 30.4057 16.1285C30.3843 16.1285 30.3629 16.1126 30.3522 16.1179C30.1754 16.2243 30.0093 16.3413 29.8272 16.4371C29.629 16.5488 29.554 16.6924 29.629 16.9052C29.3772 17.0489 29.1362 17.1818 29.0344 17.4692C28.9969 17.5809 28.9059 17.8948 28.8737 17.9905C28.8255 18.1341 28.7612 18.2991 28.6487 18.3842C28.2952 18.6502 28.2041 18.996 28.263 19.4056C28.2844 19.5386 28.322 19.6716 28.3326 19.8046C28.3434 19.9057 28.3326 20.0121 28.3326 20.1557C28.1077 20.06 28.0809 19.8897 28.0274 19.7568C27.8452 19.3099 27.6899 19.1982 27.2184 19.2514C27.1971 19.2514 27.1756 19.2673 27.1381 19.2779C27.1327 19.3365 27.1274 19.4003 27.1167 19.4641C27.0952 19.4641 27.0739 19.4854 27.0578 19.4748C26.6453 19.2673 26.1257 19.5599 26.115 20.0121C26.115 20.2037 26.0935 20.3952 26.1043 20.5867C26.1096 20.7196 26.1364 20.858 26.1792 20.9857C26.2757 21.2889 26.3774 21.3527 26.7042 21.358C26.7631 21.358 26.8167 21.358 26.881 21.3474C26.9399 21.2251 26.9828 21.0974 27.0631 20.9963C27.1113 20.9377 27.2238 20.8792 27.2881 20.8952C27.347 20.9111 27.406 21.0229 27.4166 21.0974C27.4327 21.2038 27.4006 21.3208 27.3845 21.4325C27.3685 21.5495 27.3417 21.6719 27.3203 21.8156C27.4595 21.8156 27.5559 21.8156 27.6577 21.8156C27.9363 21.8156 28.0541 21.922 28.0595 22.2039C28.0595 22.3157 28.0274 22.4274 28.0274 22.5391C28.0274 22.7997 28.1345 22.9009 28.3916 22.9275C28.5791 22.9487 28.7666 22.9753 28.9648 23.0019C29.1523 22.688 29.254 22.587 29.57 22.4061C29.5969 22.5018 29.629 22.5976 29.6772 22.7626C29.7522 22.6348 29.8058 22.5497 29.854 22.4699C29.9986 22.5604 30.0843 22.6402 30.1861 22.6721C30.3307 22.7146 30.5396 22.7838 30.6361 22.7146C30.8235 22.5816 30.92 22.7891 31.0593 22.7626C31.1235 23.0338 31.4503 23.0392 31.5735 23.2679C31.6271 23.369 31.7396 23.4541 31.9056 23.4595C32.4895 23.4807 32.9073 23.8531 32.8163 24.4596C32.8752 24.4596 32.9502 24.4383 32.9931 24.4596C33.0466 24.4915 33.0734 24.5607 33.1324 24.6458C33.3841 24.5341 33.5983 24.5979 33.7323 24.8639C34.2144 24.6777 34.5947 24.7894 34.9108 25.1884C35.2001 25.5502 35.2268 25.9598 34.9429 26.3482C34.7876 26.5663 34.7394 26.7897 34.734 27.0451C34.734 27.3058 34.7072 27.5665 34.6698 27.8218C34.6429 28.0187 34.5412 28.141 34.3108 28.157C34.0323 28.1782 33.8395 28.3591 33.668 28.556C33.8555 29.221 33.5983 29.6679 32.8216 30.003C32.8377 30.0615 32.8538 30.12 32.8699 30.1785C32.9127 30.3488 32.8377 30.4765 32.677 30.5244C32.4788 30.5776 32.3021 30.6308 32.2056 30.8382C32.1895 30.8701 32.1253 30.8755 32.0609 30.9021C32.2538 31.1574 32.0342 31.3543 31.9592 31.5724C32.1414 31.7249 32.1699 31.8952 32.0449 32.0831C31.9377 32.2481 31.9538 32.3651 32.1145 32.4927C32.1949 32.5566 32.286 32.5991 32.4145 32.6736C32.3235 32.7055 32.2646 32.7481 32.2163 32.7374C32.0396 32.7215 31.8092 32.7374 31.7074 32.6417C31.6003 32.5353 31.4396 32.4715 31.3699 32.3438C31.2842 32.1788 31.0164 32.1044 31.1128 31.8437C31.1289 31.8065 31.0271 31.7267 30.9789 31.6682C31.1235 31.5033 31.1289 31.216 30.9521 31.0138C30.7968 30.833 30.7593 30.6361 30.7486 30.418C30.7272 29.886 30.7111 29.354 30.6896 28.822C30.6843 28.673 30.679 28.5294 30.6736 28.3804C30.6468 27.7792 30.4057 27.2898 29.9022 26.9387C29.5326 26.678 29.2487 26.3482 29.0558 25.9332C29.0184 25.8535 28.9755 25.763 28.9112 25.7045C28.713 25.5183 28.6005 25.3215 28.7505 25.0501C28.7666 25.0182 28.7666 24.9437 28.7505 24.9224C28.5309 24.715 28.6916 24.5287 28.7773 24.3372C28.8202 24.2468 28.8844 24.1616 28.9273 24.0713C29.0719 23.7414 28.9648 23.4222 28.8308 23.1243C28.7719 22.986 28.6219 23.0338 28.4773 23.236C28.1184 23.0977 27.8345 22.8636 27.6363 22.5338C27.5506 22.3955 27.4595 22.305 27.2881 22.2518C27.1221 22.2039 26.9828 22.0656 26.8327 21.9645C26.7042 21.8741 26.6078 21.7571 26.4096 21.8475C26.3185 21.8847 26.1632 21.8315 26.056 21.7783C25.6168 21.5602 25.2632 21.2517 25.0489 20.7994C24.9097 20.5015 24.7704 20.2036 24.6204 19.911C24.5347 19.7514 24.4437 19.5865 24.3312 19.4535C24.1919 19.2886 24.1651 19.1237 24.1919 18.9215C24.583 16.0594 25.7132 13.5324 27.6202 11.3565C27.6524 11.3246 27.6845 11.2873 27.7166 11.2607C27.7327 11.2448 27.7541 11.2395 27.7863 11.2182C27.8131 11.2767 27.8398 11.3352 27.8773 11.415C27.9952 11.2661 28.1612 11.1437 28.2041 10.9841C28.3166 10.5532 28.6648 10.3616 28.9915 10.1542C29.1147 10.0744 29.2808 10.0637 29.3236 9.87758C29.3344 9.84032 29.4094 9.819 29.4683 9.78711C29.5861 9.94136 29.6933 10.085 29.8112 10.2447C29.9183 10.2606 30.1058 10.1116 30.1487 10.3564C30.1487 10.3723 30.229 10.3723 30.2719 10.3777C30.5879 10.4308 30.6361 10.5372 30.4539 10.8299C30.7164 10.9734 30.9789 11.1118 31.2896 11.2767C31.1235 11.3937 30.9682 11.5001 30.8129 11.6119C30.8289 11.6332 30.845 11.6598 30.861 11.681C30.7432 11.5852 30.6307 11.4895 30.4968 11.3778C30.379 11.5586 30.4593 11.6491 30.5664 11.7502C30.7914 11.963 30.7914 11.9683 30.6468 12.2396C30.5343 12.2024 30.4218 12.1652 30.2665 12.1119C30.3629 12.229 30.4272 12.3141 30.5343 12.4418C30.1915 12.4045 29.9236 12.3939 29.7468 12.1172C29.6022 11.8938 29.5754 11.9045 29.2915 11.9736C29.2004 11.9949 29.0987 11.9736 29.0076 11.9683C29.0023 11.9683 28.9862 11.8885 28.9915 11.8779C29.0719 11.83 29.1629 11.7502 29.2433 11.7555C29.4576 11.7715 29.5487 11.6703 29.6022 11.4842C29.6397 11.3565 29.7254 11.2448 29.7951 11.1065C29.6129 10.9575 29.4362 10.8085 29.254 10.6649C29.2273 10.6436 29.1898 10.6223 29.1629 10.6277C28.9648 10.6596 28.7719 10.7021 28.5362 10.7447C28.6541 10.8724 28.7345 10.9682 28.6005 11.1065C28.5469 11.165 28.5738 11.298 28.5577 11.4203C28.3487 11.3991 28.2363 11.5906 28.0274 11.6172C27.9042 11.6332 27.8131 11.8513 27.7006 11.9683C27.5988 12.0747 27.4702 12.1545 27.3791 12.2662C27.1274 12.5854 26.7417 12.8248 26.7524 13.2983C26.7524 13.3728 26.7739 13.4473 26.8006 13.5164C26.8435 13.6281 26.9024 13.7292 26.9667 13.8569C27.2559 13.8569 27.5559 13.8782 27.7916 14.1282C27.8506 14.1921 28.0005 14.1655 28.1291 14.1814C28.2309 14.4527 28.172 14.8039 28.5041 15.0486C28.5309 14.8198 28.563 14.6336 28.5684 14.4474C28.5738 14.2931 28.6165 14.1761 28.7505 14.0697C28.9915 13.8782 29.0076 13.7877 28.8844 13.5111C28.8041 13.3355 28.7933 13.1866 28.8737 12.9951C28.938 12.8514 28.9165 12.6705 28.938 12.4684C29.3236 12.4152 29.6558 12.6014 30.0201 12.6971L30.0093 12.7184ZM28.3595 16.3147C28.0648 16.1392 27.6684 16.1232 27.4917 16.2615C27.3363 16.3839 27.2988 16.7137 27.4274 17.0542C27.481 16.8414 27.5292 16.6871 27.5667 16.5275C27.6095 16.3466 27.7059 16.2828 27.8827 16.3413C27.9113 16.4974 27.9774 16.6055 28.0809 16.6659C28.1523 16.4991 28.2469 16.3821 28.3648 16.3147H28.3595ZM27.422 15.538C27.2345 15.7029 27.0952 15.8253 26.9613 15.9477C27.2345 15.8785 27.4649 16.203 27.7435 15.9796C27.647 15.8465 27.5506 15.7136 27.4274 15.538H27.422Z" fill="white"/>
<path d="M33.5425 11.8674C33.3228 11.777 33.1835 11.6227 32.9853 11.7344C32.9586 11.7504 32.8836 11.6919 32.8407 11.6599C32.5193 11.362 32.2836 11.0003 32.1443 10.58C32.0962 10.4363 32.1283 10.3353 32.23 10.2502C32.3532 10.149 32.4229 10.032 32.4282 9.84053C32.3265 9.83516 32.2354 9.82987 32.1389 9.8245C31.8872 9.80856 31.8068 9.70214 31.839 9.45213C31.8925 9.03721 31.5283 8.64353 31.1158 8.68071C31.0141 8.69137 30.9176 8.70732 30.7998 8.71797C31.3676 8.00513 34.962 6.6432 36.1619 6.68044C36.1405 6.75492 36.119 6.81876 36.0923 6.90387C36.2155 6.96239 36.344 7.01559 36.5208 7.09539C36.3387 7.15923 36.2047 7.20711 36.0494 7.26031C36.1994 7.32947 36.3119 7.38267 36.4672 7.45715C36.3601 7.51567 36.2958 7.55291 36.2423 7.57951C36.2637 7.63271 36.3173 7.72315 36.3065 7.7338C36.2047 7.81361 36.3173 8.02107 36.1244 8.04231C36.0226 8.05297 35.9208 8.06891 35.8191 8.07957C35.6637 8.09023 35.6584 8.19664 35.6369 8.30305C35.8405 8.36155 36.0173 8.41476 36.1887 8.4626C36.2316 8.63287 36.1833 8.71268 36.0387 8.72863C35.9155 8.73929 35.787 8.73929 35.6637 8.76052C35.6209 8.76589 35.5887 8.82968 35.5887 8.9308C35.7334 8.89883 35.878 8.86694 36.028 8.84033C36.0387 8.86165 36.0494 8.88288 36.0601 8.9042C35.7334 9.11695 35.412 9.35109 35.0691 9.53723C34.9567 9.6011 34.8816 9.65959 34.7959 9.75535C34.6085 9.96289 34.4799 10.2554 34.1317 10.2661C34.0888 10.2661 34.0299 10.3566 34.0032 10.4151C33.8531 10.7342 33.6871 11.0535 33.671 11.4206C33.6657 11.5589 33.596 11.6972 33.5425 11.8727V11.8674ZM32.1122 9.4309C32.0318 9.68091 32.1658 9.65959 32.3693 9.64901C32.2515 9.54789 32.1818 9.48939 32.1122 9.4309Z" fill="white"/>
<path d="M47.4344 29.7784C47.2737 29.6933 47.1076 29.672 46.9255 29.7466C46.7915 29.7997 46.7862 29.7784 46.6201 29.5869C46.8826 29.2731 46.9094 28.8794 46.9844 28.4964C47.038 28.241 47.1398 27.991 47.2415 27.7462C47.3487 27.4855 47.5736 27.3845 47.8415 27.3845C48.1468 27.3845 48.3933 27.326 48.6128 27.0599C48.7682 26.8737 49.0628 26.794 49.3093 26.6556C49.3521 26.7461 49.3843 26.8152 49.4271 26.9057C49.6146 26.7408 49.7753 26.5279 50.1288 26.645C50.1717 26.6928 50.2734 26.7993 50.386 26.9216C50.2788 27.0387 50.1771 27.145 50.0645 27.2674C50.1288 27.4962 50.1877 27.7196 50.2574 27.9697C50.6859 27.8366 50.6805 27.326 51.0502 27.0972C51.0341 27.1982 51.0288 27.2674 51.018 27.3365C50.9698 27.5973 50.9217 27.8579 50.8627 28.1186C50.8413 28.2144 50.7877 28.3101 50.7341 28.3952C50.1449 29.3263 49.4592 30.1828 48.6664 30.9541C48.6236 30.9967 48.5646 31.0339 48.5165 31.0712C48.5165 30.8637 48.5057 30.6722 48.5165 30.4807C48.5218 30.3902 48.5325 30.3318 48.42 30.3264C48.4039 30.3264 48.3825 30.2306 48.3879 30.1828C48.4147 29.9647 48.3879 29.7518 48.1736 29.6614C47.9647 29.571 47.729 29.5497 47.5308 29.72C47.504 29.7412 47.4719 29.7571 47.429 29.7784H47.4344Z" fill="white"/>
<path d="M39.9518 6.71289C40.0963 6.77141 40.2464 6.83525 40.4124 6.90441C40.3535 7.14381 40.2839 7.33532 39.9785 7.31405C40.0803 7.47897 40.1607 7.61196 40.2624 7.78218C40.2089 7.83539 40.1553 7.94709 40.0857 7.96312C39.866 8.0003 40.0106 7.73963 39.8768 7.67577C39.8124 7.87265 39.7536 8.05887 39.6785 8.29294C39.6035 8.19718 39.5178 8.13861 39.5072 8.06416C39.4643 7.79813 39.2125 7.61728 39.2393 7.32468C39.2554 7.14381 39.2875 7.04805 39.5018 7.00549C39.6518 6.97889 39.7803 6.82993 39.9518 6.71289Z" fill="white"/>
<path d="M43.0345 26.0664C43.1898 26.3217 43.1631 26.5239 43.0881 26.7101C42.9327 27.0984 42.756 27.4815 42.5792 27.8592C42.5471 27.9337 42.4667 28.0029 42.3917 28.0401C42.2524 28.1093 42.1506 28.0507 42.1185 27.9017C42.1131 27.8698 42.1078 27.8326 42.1185 27.8007C42.1988 27.4549 42.2846 27.1144 42.3703 26.774C42.3756 26.742 42.397 26.7101 42.4239 26.6888C42.5417 26.6037 42.6809 26.5452 42.7827 26.4441C42.8738 26.3537 42.9327 26.2259 43.0345 26.0664Z" fill="white"/>
<path d="M50.0403 24.5016C49.9867 24.5495 49.9117 24.5867 49.8743 24.6506C49.7724 24.8367 49.6814 25.0283 49.5904 25.2198C49.21 25.0921 49.2046 25.0868 49.2475 24.7304C49.2743 24.5016 49.3386 24.3208 49.5314 24.1505C49.7724 23.943 49.9492 23.6611 50.1635 23.4004C50.1956 23.5014 50.2278 23.6132 50.2653 23.7462C50.0724 23.9537 49.9867 24.2144 50.0296 24.5123L50.0403 24.5016Z" fill="white"/>
<path d="M51.5255 18.7837C51.4826 18.6029 51.3916 18.4166 51.4022 18.2358C51.413 18.0443 51.4826 17.8314 51.5898 17.6665C51.7076 17.4803 51.7343 17.2782 51.7987 17.0813C51.9219 16.7036 51.8415 16.3472 51.804 15.9801C51.7826 15.7513 51.7558 15.5173 51.7772 15.2832C51.9165 15.4375 52.0183 15.5971 51.9486 15.8205C51.9219 15.9003 51.9272 16.0014 51.9486 16.0812C52.0987 16.5546 52.0183 17.0495 52.0612 17.5282C52.0665 17.6187 52.0076 17.7197 51.9594 17.8048C51.7826 18.1134 51.5362 18.3954 51.6058 18.7997C51.579 18.7997 51.5523 18.7891 51.5255 18.7837Z" fill="white"/>
<path d="M42.9438 7.14305C42.526 7.80804 42.2206 8.43578 42.7992 9.13268C42.6546 9.24446 42.5314 9.16994 42.4296 9.09013C42.3225 9.00503 42.1618 8.95183 42.1671 8.76031C42.1778 8.43049 42.1618 8.09531 42.1992 7.77078C42.2367 7.45161 42.4349 7.22285 42.7349 7.09518C42.7831 7.07389 42.8528 7.12177 42.9385 7.14305H42.9438Z" fill="white"/>
<path d="M50.5239 25.2406C50.5508 25.1341 50.5721 25.0278 50.5989 24.9214C50.6204 24.8416 50.6418 24.7671 50.674 24.666C50.8882 24.8752 51.0471 25.1395 51.1507 25.4587C51.2096 25.4268 51.2631 25.3949 51.3167 25.3629C51.365 25.4427 51.29 25.6502 51.1775 25.7034C51.0114 25.7779 50.9257 25.863 50.9579 26.0652C50.9739 26.1556 50.8989 26.262 50.856 26.3843C50.7597 26.2886 50.6793 26.2301 50.6257 26.1556C50.556 26.0545 50.5132 25.9481 50.5936 25.8151C50.7221 25.613 50.6953 25.4108 50.5293 25.2299L50.5186 25.2406H50.5239Z" fill="white"/>
<path d="M36.241 10.362C36.3214 10.8142 36.1607 11.0802 35.7696 11.1866C35.5768 11.2398 35.4375 11.1174 35.3892 10.9046C35.3411 10.6758 35.3089 10.4631 35.5339 10.3301C35.6625 10.3567 35.7803 10.3939 35.8928 10.3992C36 10.4045 36.1124 10.3779 36.2356 10.362H36.241Z" fill="white"/>
<path d="M50.8495 21.3843C50.8549 21.4587 50.8923 21.5492 50.8655 21.6077C50.737 21.9003 50.8549 22.1716 50.8923 22.4589C50.9406 22.8313 50.887 23.1984 50.753 23.5548C50.737 23.592 50.6995 23.6186 50.6406 23.6932C50.5977 23.4803 50.5013 23.358 50.6298 23.1452C50.7209 22.9909 50.6513 22.7249 50.6298 22.5121C50.5816 22.1184 50.6138 21.7407 50.7745 21.3789H50.8495V21.3843Z" fill="white"/>
<path d="M31.6085 15.0176C31.7263 15.0867 31.8495 15.1559 31.9781 15.2303C32.0156 15.3527 32.0638 15.4911 32.1174 15.656C31.8388 15.624 31.5603 15.5921 31.2764 15.5655C31.3085 15.2942 31.3246 15.2676 31.6085 15.0229V15.0176Z" fill="white"/>
<path d="M28.6247 12.1975C28.3944 12.2507 28.2176 12.2933 27.998 12.3465C27.9659 12.3251 27.8855 12.2719 27.7998 12.2134C27.8694 12.0485 27.9498 11.8783 28.1426 11.8677C28.3676 11.857 28.4962 12.0219 28.6301 12.1975H28.6247Z" fill="white"/>
<path d="M29.1026 21.0761C28.958 21.1027 28.8455 21.0974 28.6955 20.9751C28.4705 20.7941 28.2026 20.5921 27.8545 20.6984C27.9937 20.5122 28.1759 20.5069 28.358 20.5921C28.6205 20.7144 28.8722 20.8634 29.124 20.9963C29.1133 21.0229 29.108 21.0495 29.0973 21.0761H29.1026Z" fill="white"/>
<path d="M50.081 24.6777C50.1239 24.7043 50.1614 24.7309 50.2203 24.7735C50.1667 24.8745 50.0918 24.9757 50.0543 25.0927C50.0114 25.215 50.0061 25.348 49.9793 25.4863C49.8775 25.4863 49.8025 25.481 49.7061 25.4758C49.8293 25.1938 49.7435 24.8426 50.0864 24.6884V24.683L50.081 24.6777Z" fill="white"/>
<path d="M29.9397 21.3052C29.7255 21.3956 29.5326 21.4754 29.3076 21.4116C29.3397 21.3105 29.3719 21.2201 29.4094 21.1031C29.5915 21.087 29.7843 21.0765 29.9397 21.3052Z" fill="white"/>
<path d="M24.3755 20.3691C24.2308 20.1616 24.0862 19.9595 24.1826 19.6562C24.2736 19.8797 24.3647 20.1084 24.4558 20.3318C24.429 20.3425 24.4022 20.3531 24.3701 20.3638L24.3755 20.3691Z" fill="white"/>
<path d="M29.4184 11.0636C29.4344 11.3136 29.4291 11.3189 29.1826 11.2657C29.1987 11.1221 29.2683 11.053 29.4184 11.0636Z" fill="white"/>
<path d="M50.0342 24.5132C50.1574 24.4813 50.2752 24.444 50.3984 24.4121C50.4092 24.4333 50.4199 24.4599 50.4305 24.4813C50.3717 24.5185 50.3181 24.5664 50.2592 24.5823C50.1895 24.5983 50.0931 24.5504 50.0878 24.6781C50.0878 24.6781 50.0878 24.6834 50.0931 24.6887C50.077 24.6302 50.0609 24.5664 50.0449 24.5079L50.0342 24.5185V24.5132Z" fill="white"/>
<path d="M48.4062 22.237L48.3045 22.5722C48.3045 22.5722 48.2562 22.5562 48.2295 22.5509C48.267 22.4339 48.3045 22.3221 48.342 22.2051L48.4062 22.237Z" fill="white"/>
<path d="M50.5357 25.2314H50.1982C50.3411 25.1356 50.45 25.1391 50.5251 25.242L50.5357 25.2314Z" fill="white"/>
<path d="M42.3002 9.65896C42.236 9.70151 42.1985 9.72811 42.161 9.75471C42.1395 9.71216 42.102 9.66961 42.0967 9.6217C42.0967 9.59509 42.161 9.54189 42.1717 9.54725C42.2145 9.56849 42.2467 9.60575 42.3002 9.65896Z" fill="white"/>
<path d="M30.7915 15.3152C30.7326 15.2939 30.6791 15.2673 30.6201 15.2461C30.6255 15.2248 30.6309 15.2088 30.6362 15.1875C30.7005 15.2034 30.7594 15.2195 30.8237 15.2354C30.8129 15.262 30.8023 15.2886 30.7915 15.3152Z" fill="white"/>
<path d="M48.3108 23.0918C48.3162 23.1557 48.3216 23.2248 48.3269 23.2887L48.2948 23.3046C48.2787 23.2727 48.2519 23.2408 48.2466 23.2089C48.2412 23.1716 48.2519 23.1343 48.2573 23.0972C48.2733 23.0972 48.2894 23.0972 48.3108 23.0972V23.0918Z" fill="white"/>
<path d="M50.5264 24.5445C50.5478 24.4807 50.5746 24.4115 50.596 24.3477C50.6121 24.3477 50.6335 24.3583 50.6496 24.3636C50.6282 24.4328 50.6121 24.502 50.5907 24.5711C50.5692 24.5605 50.5478 24.5551 50.5264 24.5445Z" fill="white"/>
<path d="M40.3467 7.41445C40.4003 7.37722 40.4538 7.33997 40.5074 7.30273C40.5181 7.3187 40.5288 7.33465 40.5395 7.35061C40.4859 7.38254 40.4324 7.41977 40.3788 7.45169C40.3681 7.43574 40.3574 7.42509 40.3467 7.40913V7.41445Z" fill="white"/>
<path d="M28.2786 12.5756C28.2411 12.5437 28.2196 12.5224 28.1982 12.5011C28.2357 12.4745 28.2732 12.4426 28.3107 12.416C28.3268 12.4373 28.3697 12.4692 28.3643 12.4852C28.3482 12.5171 28.3161 12.5437 28.284 12.5809L28.2786 12.5756Z" fill="white"/>
<path d="M37.2997 3.71199C37.1926 3.61091 37.0854 3.50983 36.9409 3.37151C36.914 3.51515 36.898 3.62155 36.8765 3.72263C36.7212 3.49387 36.7694 3.24915 36.7373 2.98847C36.9622 2.95655 37.1712 2.86612 37.3319 3.04699C37.4658 3.20127 37.2997 3.30235 37.214 3.40343C37.2622 3.50451 37.3051 3.59495 37.348 3.68538C37.3319 3.69603 37.3158 3.70667 37.2997 3.71199ZM37.2408 3.15871C37.1176 3.04167 37.0051 3.07891 36.8712 3.13743C36.9605 3.23319 37.0837 3.24028 37.2408 3.15871Z" fill="white"/>
<path d="M41.5732 17.666C41.5357 17.7564 41.5143 17.8575 41.4553 17.9373C41.4232 17.9799 41.3375 17.9799 41.2732 17.9852C41.2571 17.9852 41.2089 17.9267 41.2143 17.916C41.2411 17.8628 41.2732 17.799 41.3215 17.7724C41.3964 17.7245 41.4875 17.7032 41.5679 17.666H41.5732Z" fill="white"/>
<path d="M40.3387 17.8853C40.2476 17.864 40.1565 17.8374 40.0654 17.8161C40.0654 17.7895 40.0762 17.7629 40.0815 17.7363C40.1779 17.7469 40.269 17.7576 40.3654 17.7735C40.3601 17.8108 40.3493 17.848 40.344 17.8853H40.3387Z" fill="white"/>
<path d="M37.3311 16.7715C37.3953 16.7396 37.4596 16.7077 37.5239 16.6758C37.5346 16.6917 37.5453 16.7077 37.556 16.729L37.3793 16.8513C37.3793 16.8513 37.3471 16.7981 37.3311 16.7715Z" fill="white"/>
</g>
</g>
<defs>
<clipPath id="clip0_336_29981">
<rect width="76.6667" height="76.6667" fill="white" transform="translate(0.166992)"/>
</clipPath>
</defs>
</svg>
