<svg width="77" height="60" viewBox="0 0 77 60" fill="none" xmlns="http://www.w3.org/2000/svg">
<g clip-path="url(#clip0_336_29920)">
<mask id="mask0_336_29920" style="mask-type:luminance" maskUnits="userSpaceOnUse" x="0" y="0" width="77" height="60">
<path d="M76.825 0.439514H0.15918V59.5631H76.825V0.439514Z" fill="white"/>
</mask>
<g mask="url(#mask0_336_29920)">
<path d="M22.8091 19.3396V11.5705C22.2902 11.5705 21.8366 11.5666 21.3869 11.5705C21.1985 11.5705 21.0832 11.5124 21.0832 11.3112C21.0755 10.3246 21.0678 9.33799 21.0717 8.34751C21.0717 8.28169 21.1908 8.17339 21.2677 8.15792C21.4522 8.1231 21.6482 8.12693 21.8404 8.12693C24.7618 8.12693 27.6831 8.12693 30.6044 8.1192C30.9081 8.1192 31.0311 8.18502 31.0273 8.51773C31.008 9.39601 31.0196 10.2782 31.0273 11.1565C31.0273 11.4466 30.9696 11.6053 30.6237 11.5627C30.2931 11.524 29.9549 11.5705 29.6204 11.5472C29.3782 11.5317 29.3129 11.6207 29.3129 11.8529C29.309 14.0583 29.2898 16.2598 29.2821 18.4652C29.2821 19.328 29.286 19.328 30.1432 19.328C30.9811 19.328 30.9926 19.328 31.0234 20.156C31.0465 20.8176 31.0427 21.4792 31.0349 22.1447C31.0273 22.6206 31.0042 22.6322 30.5468 22.6322C27.5178 22.6322 24.4888 22.6438 21.4599 22.6322C20.9179 22.6322 20.5719 22.8488 20.2914 23.3016C19.488 24.5861 18.6731 25.8629 17.5776 26.9269C15.3674 29.0665 12.7382 30.2852 9.68617 30.4362C7.89875 30.5213 6.09982 30.3936 4.30859 30.3511C4.12408 30.3472 4.01261 30.3588 3.97417 30.5638C3.71279 32.007 3.44372 33.4463 3.17849 34.8895C3.16696 34.9437 3.17849 35.0056 3.17849 35.1293C3.57825 34.8817 3.93189 34.638 4.30475 34.4329C8.37538 32.2043 12.4576 32.1308 16.4859 34.5065C18.6577 35.7871 19.7609 37.8029 19.9031 40.314C20.08 43.3667 19.069 45.9667 16.7857 48.0173C15.7864 48.915 14.5909 49.476 13.3263 49.8629C10.4895 50.7334 7.61431 50.9037 4.72372 50.1762C3.50522 49.8706 2.35975 49.3638 1.49104 48.4081C0.395537 47.201 0.0688087 45.7423 0.203344 44.1521C0.287909 43.1693 0.480102 42.2137 1.1105 41.4205C1.89849 40.4339 2.95939 40.1089 4.15868 40.3101C5.28492 40.4997 6.13827 41.1149 6.46115 42.2717C6.75715 43.3357 6.60721 44.4036 6.30355 45.4405C6.12289 46.0634 5.87688 46.6631 5.64241 47.2706C5.07351 48.7563 5.57706 49.6617 7.14152 49.9635C8.43307 50.215 9.44396 49.7507 10.2204 48.7254C11.0853 47.5879 11.5004 46.2608 11.7311 44.8678C12.0463 42.9527 12.2807 41.022 12.0155 39.0835C11.8925 38.1937 11.7465 37.2922 11.4582 36.4487C10.6932 34.2124 8.90197 33.3457 6.64181 34.0344C5.63856 34.3401 4.81213 34.9127 4.1433 35.7175C3.68204 36.2708 3.23231 36.8356 2.77873 37.3928C2.71723 37.4663 2.66726 37.5591 2.58654 37.6056C2.47122 37.6713 2.32131 37.7526 2.21368 37.7255C2.13296 37.7023 2.04455 37.5205 2.04455 37.4083C2.0484 37.0987 2.07915 36.7815 2.13681 36.4797C2.66726 33.6823 3.21308 30.885 3.74354 28.0876C4.04721 26.482 4.31627 24.8685 4.64684 23.2667C4.87363 22.1795 4.86595 22.3381 5.68853 22.7637C6.9993 23.437 8.41768 23.7194 9.84756 23.94C12.8266 24.4004 15.7633 24.2224 18.6346 23.2628C18.8269 23.1971 19.0229 23.1391 19.2112 23.0617C19.7532 22.845 20.0492 22.4426 20.0722 21.8506C20.0991 21.1774 20.1261 20.5042 20.1414 19.8271C20.153 19.3628 20.1414 19.3551 20.6181 19.3473C21.3331 19.3396 22.048 19.3473 22.8321 19.3473L22.8091 19.3396Z" fill="white"/>
<path d="M37.8733 13.4316C37.9808 13.3272 38.0962 13.2305 38.1999 13.1221C39.4684 11.8221 41.0559 11.4894 42.7818 11.6248C43.2546 11.6596 43.7313 11.7602 44.181 11.9111C45.6763 12.4063 46.4604 13.4897 46.4835 15.076C46.5027 16.3876 46.495 17.7032 46.4835 19.0148C46.4835 19.2818 46.5258 19.4481 46.8333 19.3862C47.0678 19.3398 47.456 19.5526 47.4098 19.0148C47.356 18.3802 47.3522 17.7418 47.3253 17.1034C47.2523 15.2772 47.9365 13.8224 49.5009 12.8745C52.0532 11.323 54.7401 11.0831 57.5039 12.2323C59.0029 12.859 59.837 14.0585 60.1215 15.6525C60.2176 16.1826 60.1753 16.2329 59.6448 16.2909C58.5647 16.4109 57.4808 16.5308 56.4006 16.6469C56.2699 16.6624 56.1393 16.6469 55.9855 16.6469C55.9086 16.3025 55.8394 15.9659 55.7626 15.6332C55.4704 14.3409 54.5364 14.1165 53.4139 14.4492C53.0526 14.5576 52.8028 14.8323 52.6721 15.1883C52.1608 16.5617 52.157 17.943 52.6721 19.3127C52.9373 20.0091 53.7483 20.338 54.6479 20.1639C55.2936 20.0401 55.751 19.6918 55.9048 19.0341C55.997 18.6279 56.1969 18.5157 56.6043 18.5272C57.6806 18.5582 58.757 18.535 59.837 18.535C60.1984 18.535 60.2445 18.5931 60.1753 18.9683C59.8409 20.8139 58.7492 21.9669 56.9849 22.497C54.7823 23.1547 52.6145 23.027 50.4888 22.1642C49.6662 21.8276 48.9782 21.2936 48.3746 20.6437C48.2055 20.4579 48.0364 20.2722 47.825 20.0439C47.8019 20.1716 47.7827 20.2412 47.7789 20.3148C47.7789 20.9416 47.7673 21.5683 47.7789 22.1952C47.7865 22.4428 47.702 22.5395 47.456 22.5434C46.6065 22.5434 45.757 22.5666 44.9075 22.5666C43.4469 22.5666 41.9862 22.5434 40.5255 22.5473C40.1988 22.5473 40.0912 22.4428 40.0988 22.11C40.1181 21.3865 40.095 20.6669 40.0873 19.9434C40.0847 19.5822 40.2693 19.403 40.6408 19.4055C40.8561 19.4055 41.0713 19.4055 41.2866 19.3978C41.3212 19.3978 41.3558 19.3823 41.4404 19.3591C41.4404 19.2314 41.4404 19.0883 41.4404 18.949C41.4404 18.1055 41.4404 17.2621 41.4365 16.4186C41.4326 15.4552 41.1636 15.0219 40.4371 14.7936C39.6798 14.5576 38.7804 14.8632 38.3499 15.5287C38.223 15.726 38.0885 15.9621 38.0808 16.1865C38.0539 17.2272 38.0693 18.2719 38.0693 19.3823C38.3844 19.3823 38.7304 19.3901 39.0725 19.3823C39.2916 19.3746 39.3685 19.4597 39.3685 19.6764C39.3647 20.543 39.3647 21.4097 39.3723 22.2764C39.3723 22.5124 39.2916 22.5821 39.0572 22.5821C36.7009 22.5705 34.3407 22.5705 31.9844 22.5821C31.7 22.5821 31.6077 22.4931 31.6116 22.2106C31.6231 21.4058 31.6193 20.5972 31.6077 19.7886C31.6039 19.51 31.7039 19.394 31.9844 19.4133C32.2535 19.4326 32.5302 19.4172 32.8993 19.4172C32.8993 17.9198 32.8993 16.4534 32.8878 14.987C32.8878 14.9058 32.7532 14.7897 32.661 14.7549C32.5302 14.7046 32.3803 14.7201 32.2343 14.7084C31.5962 14.6543 31.5846 14.6543 31.5693 13.9966C31.5539 13.3117 31.5693 12.623 31.5577 11.9382C31.5539 11.6596 31.6347 11.5242 31.946 11.528C33.7642 11.5358 35.5861 11.5319 37.4043 11.5203C37.7118 11.5203 37.7963 11.6364 37.7848 11.9266C37.7656 12.418 37.781 12.9093 37.781 13.4007L37.8655 13.4433L37.8733 13.4316Z" fill="white"/>
<path d="M21.05 37.3313C21.0309 33.8646 22.2417 30.9589 24.6249 28.5756C27.6884 25.5074 32.9237 25.5112 35.9873 28.5717C37.3941 29.9762 38.2436 31.7327 38.7203 33.6557C39.785 37.9465 38.9009 41.8466 36.241 45.3249C34.9187 47.0544 33.1006 47.9636 30.9211 48.1764C28.7609 48.3892 26.7813 47.9598 24.9977 46.71C23.6793 45.7891 22.8298 44.4969 22.2032 43.0305C21.4152 41.1888 21.0462 39.2697 21.0539 37.3352L21.05 37.3313ZM27.0734 37.4899C27.1157 38.3179 27.1695 39.5909 27.2386 40.8638C27.3425 42.7442 27.6461 44.5859 28.2803 46.3695C28.5494 47.1318 29.0184 47.6309 29.8371 47.7121C30.652 47.7934 31.1979 47.3794 31.5822 46.6945C32.0588 45.8356 32.424 44.9225 32.5394 43.9552C32.77 42.0361 33.016 40.1093 33.0775 38.1786C33.1352 36.4531 32.9853 34.7158 32.8699 32.9902C32.793 31.8527 32.6739 30.7113 32.4548 29.5932C32.2818 28.7071 31.8897 27.8791 31.2055 27.2408C30.8903 26.9467 30.5213 26.7223 30.0716 26.8461C29.5296 26.9931 28.9992 27.233 28.7455 27.7553C28.4072 28.4517 28.0881 29.1753 27.8921 29.922C27.2809 32.2512 27.1695 34.6462 27.0734 37.4899Z" fill="white"/>
<path d="M39.9359 37.9261C39.9436 33.9371 41.1429 30.9849 43.603 28.5281C46.9548 25.1813 53.228 25.7153 55.838 29.5495C56.8989 31.1049 57.5023 32.8499 57.8253 34.6877C58.3941 37.93 57.8137 40.9828 56.1608 43.8187C55.2499 45.3858 54.1005 46.7322 52.4054 47.4712C48.5385 49.1504 43.2493 48.0709 41.1775 43.1378C40.4048 41.2961 39.8859 39.4196 39.9359 37.9261ZM45.9708 36.6532C45.9708 36.6532 46.0015 36.657 46.0169 36.6609C46.0169 37.2142 45.9862 37.7675 46.0207 38.3208C46.1437 40.205 46.2668 42.0893 46.4321 43.9735C46.5243 45.0298 46.8472 46.028 47.4776 46.8908C48.3271 48.0554 49.5955 48.0167 50.3489 46.798C50.6526 46.3027 50.9178 45.761 51.0831 45.2039C51.6712 43.2345 51.8557 41.1916 51.9441 39.1487C52.0671 36.2934 51.898 33.4457 51.5098 30.6136C51.3637 29.5341 51.0331 28.501 50.445 27.5763C49.953 26.7986 49.1266 26.5278 48.4078 26.9573C48.081 27.1507 47.7889 27.4564 47.5737 27.7736C46.7741 28.9614 46.5089 30.3427 46.359 31.7317C46.1784 33.3683 46.0938 35.0127 45.9669 36.657L45.9708 36.6532Z" fill="white"/>
<path d="M76.8277 36.9363C76.8277 39.1571 76.4704 41.3084 75.425 43.2816C74.1022 45.7733 72.1115 47.4641 69.332 48.0831C66.0646 48.8105 62.6862 47.3712 60.8681 44.5313C59.7187 42.7322 59.1306 40.7474 58.9308 38.6309C58.727 36.4681 59.0307 34.371 59.934 32.3978C60.6989 30.7341 61.6022 29.1362 63.0591 27.9639C64.7581 26.598 66.726 26.1647 68.8558 26.3582C69.8973 26.4549 70.9082 26.6754 71.8613 27.1359C73.8793 28.1147 75.1443 29.7552 75.9513 31.8097C76.601 33.4579 76.8355 35.172 76.8316 36.9324L76.8277 36.9363ZM70.9543 36.3869C70.8199 34.9476 70.6236 32.7073 70.3852 30.4749C70.278 29.4612 69.9817 28.4901 69.4093 27.6389C68.6479 26.5091 67.4719 26.482 66.6533 27.5653C66.1419 28.2424 65.8034 29.0163 65.6072 29.8403C64.9464 32.6261 64.8542 35.4699 64.8965 38.3059C64.9234 40.1282 65.1732 41.9506 65.3461 43.7691C65.4422 44.7983 65.7424 45.7733 66.253 46.6709C67.0528 48.0715 68.4906 48.1179 69.3171 46.7328C69.6705 46.1447 69.959 45.4831 70.1123 44.8176C70.6893 42.3143 70.9043 39.7607 70.9543 36.383V36.3869Z" fill="white"/>
<path d="M38.6976 3.4931C38.5593 4.0193 38.4785 4.61127 38.2556 5.14133C37.8751 6.03509 36.9948 6.4723 35.9569 6.39105C35.0575 6.32141 34.2926 5.69075 34.0043 4.72347C33.7313 3.81423 33.7352 2.89726 34.0619 1.99576C34.3963 1.07105 35.1958 0.475205 36.1107 0.451991C37.1639 0.428776 37.9904 0.939494 38.3478 1.91838C38.5208 2.39427 38.5746 2.9166 38.7015 3.4931H38.6976ZM37.5829 3.45828C37.5829 3.45828 37.5521 3.45054 37.5329 3.4428C37.5137 3.20292 37.506 2.96303 37.4715 2.72315C37.4522 2.56838 37.4099 2.41749 37.3561 2.27046C37.1447 1.69784 36.7411 1.39605 36.2068 1.39992C35.6994 1.39992 35.2766 1.70557 35.0844 2.25885C34.8038 3.07137 34.8 3.88775 35.1266 4.69252C35.3189 5.16842 35.6725 5.44312 36.203 5.44312C36.7295 5.44312 37.1101 5.18776 37.2869 4.708C37.433 4.30948 37.4868 3.87614 37.579 3.45828H37.5829Z" fill="white"/>
<path d="M41.9095 59.4621C41.0677 59.4621 40.2797 59.2725 39.5571 58.8121C39.2457 58.6148 39.3764 58.4059 39.4802 58.2008C39.6032 57.9609 39.7685 58.0886 39.9299 58.1776C40.8332 58.6767 41.7826 58.874 42.7974 58.5799C43.324 58.4252 43.6008 58.1041 43.6162 57.6553C43.6315 57.2142 43.4086 56.8853 42.8858 56.7034C42.3669 56.5255 41.8288 56.4094 41.3022 56.2546C41.0408 56.1772 40.7756 56.096 40.5219 55.9915C39.8761 55.7246 39.4994 55.2409 39.4764 54.5329C39.4533 53.8248 39.7531 53.2638 40.3719 52.9195C41.283 52.4126 42.2516 52.4165 43.2279 52.6796C43.4893 52.7492 43.743 52.8731 43.9891 52.9853C44.3273 53.14 44.1082 53.3567 44.039 53.554C43.9544 53.7977 43.816 53.732 43.6469 53.6469C42.9127 53.2871 42.1363 53.1942 41.3406 53.3722C41.1062 53.4263 40.8601 53.5424 40.6756 53.7011C40.1759 54.1266 40.2374 54.885 40.8217 55.179C41.2753 55.4034 41.7865 55.5156 42.2747 55.6704C42.6821 55.802 43.1049 55.8987 43.5009 56.0612C44.1197 56.3127 44.4772 56.777 44.4926 57.4734C44.5079 58.1853 44.2427 58.7773 43.5931 59.0675C43.0704 59.3035 42.4899 59.4041 41.9325 59.5666C41.9249 59.5317 41.9134 59.4969 41.9056 59.466L41.9095 59.4621Z" fill="white"/>
<path d="M40.7825 5.38063H43.4617C43.4617 5.64373 43.4771 5.90296 43.4502 6.15832C43.4425 6.22023 43.3041 6.31308 43.2272 6.31308C41.9472 6.32469 40.6672 6.32469 39.3872 6.31308C39.318 6.31308 39.1989 6.19314 39.195 6.1235C39.1758 5.82171 39.2181 5.547 39.4756 5.31099C40.2021 4.64938 40.9209 3.97615 41.609 3.27198C41.8396 3.03597 42.0164 2.70709 42.1163 2.38596C42.2585 1.92167 42.0087 1.5541 41.5283 1.44963C40.9402 1.32195 40.3866 1.39547 39.9138 1.80946C39.8677 1.84815 39.8215 1.88684 39.7716 1.9178C39.7524 1.92941 39.7293 1.93714 39.6793 1.95262C39.4679 1.78625 39.245 1.61214 38.9951 1.41482C39.4718 0.768672 40.1252 0.536529 40.8363 0.463016C41.1746 0.428194 41.5321 0.463016 41.8665 0.528791C43.0735 0.77641 43.627 1.98357 42.9928 3.05531C42.7391 3.48091 42.3624 3.83686 42.0164 4.19669C41.6474 4.57974 41.2438 4.93569 40.7787 5.37677L40.7825 5.38063Z" fill="white"/>
<path d="M28.8427 1.39922C29.6499 0.424212 31.2989 0.149506 32.3137 0.78017C32.9825 1.19803 33.2439 2.09566 32.8749 2.88496C32.7211 3.21383 32.4713 3.50401 32.233 3.78646C31.764 4.3436 31.272 4.88141 30.8184 5.396C30.9953 5.396 31.3104 5.396 31.6257 5.396C32.0677 5.396 32.5097 5.41921 32.9518 5.39987C33.2016 5.38826 33.2708 5.49273 33.2631 5.7094C33.2593 5.81773 33.2631 5.92606 33.2631 6.0344C33.2708 6.2472 33.1824 6.32458 32.9633 6.32458C31.8025 6.31297 30.6416 6.31684 29.4808 6.30911C29.0387 6.30911 28.8696 6.00344 29.0887 5.60493C29.1464 5.50046 29.2347 5.41535 29.3193 5.33023C29.9766 4.68022 30.6455 4.04181 31.2874 3.37633C31.5218 3.13258 31.7448 2.8424 31.8716 2.529C32.0831 2.00667 31.814 1.5772 31.2643 1.44566C30.7339 1.31797 30.2226 1.38374 29.7998 1.71649C29.5384 1.92155 29.377 1.90994 29.1733 1.68941C29.0772 1.58494 28.9619 1.49982 28.8389 1.39148L28.8427 1.39922Z" fill="white"/>
<path d="M43.8076 1.40657C44.5956 0.41221 46.3292 0.133635 47.3286 0.802988C47.9513 1.22085 48.2319 2.0527 47.886 2.78397C47.6668 3.24826 47.3017 3.65451 46.9519 4.03755C46.5598 4.47089 46.1101 4.85393 45.6834 5.26405C45.6681 5.27566 45.6719 5.30662 45.645 5.384H48.1435C48.1896 5.46525 48.2088 5.48459 48.2127 5.50394C48.3318 6.27388 48.2934 6.32031 47.5477 6.32031C46.5291 6.32031 45.5143 6.32031 44.4957 6.30871C44.338 6.30871 44.0536 6.26615 44.0498 6.22359C44.0305 5.9837 44.0613 5.73221 44.1151 5.4962C44.1344 5.40721 44.2535 5.3337 44.3304 5.26019C45.0492 4.57149 45.768 3.88279 46.4829 3.19022C46.7674 2.91551 46.9481 2.59051 46.925 2.16878C46.9058 1.7896 46.729 1.55746 46.3792 1.46073C45.8333 1.30984 45.2836 1.36014 44.8416 1.70449C44.5264 1.95211 44.3265 1.90181 44.0882 1.65806C44.0075 1.57294 43.9114 1.5033 43.8076 1.40657Z" fill="white"/>
<path d="M61.7479 22.8228C60.737 22.8228 59.9913 22.0606 59.9951 21.0353C59.9951 19.9636 60.7293 19.2207 61.7902 19.2091C62.7858 19.1975 63.5853 20.0061 63.5853 21.016C63.5853 22.0451 62.7935 22.8228 61.7518 22.8228H61.7479Z" fill="white"/>
<path d="M52.9175 53.3618C52.2141 53.3618 51.5337 53.3695 50.8534 53.3579C50.592 53.354 50.5381 53.443 50.542 53.6945C50.5574 55.4859 50.5535 57.2773 50.565 59.0726C50.565 59.3782 50.419 59.4478 50.1653 59.4247C49.9155 59.4015 49.6503 59.4827 49.6579 59.0378C49.6886 57.2347 49.681 55.4317 49.6925 53.6249C49.6925 53.4121 49.6003 53.3579 49.408 53.3618C48.8084 53.3696 48.2126 53.354 47.613 53.3695C47.367 53.3734 47.2593 53.2999 47.2785 53.0445C47.2978 52.8163 47.2632 52.5879 47.6245 52.5918C49.189 52.6073 50.7573 52.5996 52.3217 52.6034C53.0021 52.6034 53.0098 52.6267 52.9098 53.3657L52.9175 53.3618Z" fill="white"/>
<path d="M25.9677 52.6555C26.5238 52.5832 26.8019 52.8141 26.8019 53.348C26.8019 54.9963 26.8095 56.6445 26.7941 58.2928C26.7941 58.5868 26.8902 58.6642 27.1632 58.6603C28.1318 58.6448 29.1005 58.6487 30.0691 58.6448C30.5919 58.6448 30.6034 58.6565 30.5573 59.1942C30.5496 59.2639 30.5304 59.3296 30.515 59.4109H25.9639V52.6555H25.9677Z" fill="white"/>
<path d="M35.1108 59.4077H34.2998V52.6406H35.1108V59.4077Z" fill="white"/>
</g>
</g>
<defs>
<clipPath id="clip0_336_29920">
<rect width="76.6658" height="59.7733" fill="white" transform="translate(0.166992 0.113342)"/>
</clipPath>
</defs>
</svg>
