<svg width="242" height="224" viewBox="0 0 242 224" fill="none" xmlns="http://www.w3.org/2000/svg">
<g opacity="0.2">
<path d="M64.2851 208.945C63.5778 209.958 62.7524 210.716 61.8091 211.219C60.8538 211.714 59.8869 211.93 58.9083 211.867C57.9176 211.795 56.9964 211.457 56.1446 210.853C55.4007 210.325 54.8581 209.715 54.5167 209.022C54.1633 208.32 53.9786 207.621 53.9627 206.925L52.9648 208.354L50.4272 206.554L57.4252 196.531L59.9627 198.331L58.9396 199.796C59.5919 199.556 60.3155 199.483 61.1104 199.578C61.8848 199.676 62.644 199.99 63.3878 200.517C64.2277 201.113 64.844 201.875 65.2367 202.803C65.6174 203.722 65.7381 204.718 65.5986 205.792C65.4388 206.869 65.0009 207.92 64.2851 208.945ZM56.4638 203.342C56.0343 203.958 55.788 204.567 55.7248 205.172C55.6531 205.788 55.7413 206.356 55.9892 206.874C56.2287 207.405 56.5824 207.836 57.0504 208.168C57.5183 208.5 58.0302 208.692 58.5861 208.744C59.1421 208.795 59.7018 208.687 60.2653 208.42C60.8085 208.156 61.2905 207.722 61.7116 207.119C62.1326 206.516 62.3832 205.9 62.4632 205.272C62.5229 204.647 62.4389 204.073 62.2114 203.551C61.9719 203.021 61.6242 202.594 61.1683 202.27C60.7003 201.938 60.1824 201.742 59.6145 201.682C59.0381 201.634 58.4784 201.742 57.9353 202.006C57.3838 202.282 56.8932 202.727 56.4638 203.342Z" fill="white"/>
<path d="M41.985 183.649L32.8228 187.267L30.7372 184.725L42.9954 180.394L45.375 183.294L38.8419 194.601L36.7422 192.043L41.985 183.649Z" fill="white"/>
<path d="M23.1451 156.81C23.5461 156.625 23.9192 156.486 24.2643 156.393L27.945 164.536C28.7167 164.101 29.2178 163.531 29.4481 162.826C29.6785 162.121 29.63 161.407 29.3029 160.683C28.8303 159.637 28.0462 159.099 26.9506 159.068L25.5783 156.032C26.7932 155.863 27.9541 156.074 29.0613 156.666C30.155 157.265 31.0018 158.227 31.6016 159.555C32.0863 160.627 32.2886 161.699 32.2085 162.772C32.109 163.838 31.7338 164.811 31.083 165.693C30.4261 166.561 29.5296 167.256 28.3933 167.778C27.2437 168.306 26.1284 168.535 25.0474 168.465C23.9664 168.394 23.0011 168.045 22.1516 167.415C21.302 166.785 20.6288 165.921 20.132 164.822C19.6533 163.763 19.4534 162.713 19.5323 161.674C19.6051 160.62 19.9596 159.673 20.5958 158.83C21.2125 157.98 22.0623 157.307 23.1451 156.81ZM23.6608 160.093C22.945 160.438 22.4883 160.964 22.2908 161.669C22.0799 162.381 22.141 163.106 22.4743 163.843C22.7893 164.54 23.2698 165.032 23.9157 165.318C24.5422 165.597 25.2539 165.618 26.051 165.381L23.6608 160.093Z" fill="white"/>
<path d="M14.9091 138.416C14.204 138.136 13.6165 137.717 13.1466 137.157C12.6742 136.583 12.3679 135.89 12.2277 135.078L15.4224 134.517L15.5614 135.322C15.7267 136.279 16.0764 136.964 16.6107 137.378C17.1425 137.777 17.9662 137.879 19.0819 137.683L25.0802 136.631L25.606 139.675L13.5659 141.788L13.0401 138.744L14.9091 138.416Z" fill="white"/>
<path d="M17.9408 116.38C16.7097 116.274 15.6385 115.938 14.727 115.372C13.8168 114.791 13.1407 114.061 12.6989 113.181C12.2582 112.286 12.0822 111.319 12.1707 110.278C12.248 109.369 12.4985 108.594 12.9223 107.951C13.3473 107.294 13.8557 106.784 14.4475 106.422L12.7108 106.272L12.9745 103.172L25.1533 104.224L24.8896 107.324L23.1089 107.171C23.6468 107.616 24.0764 108.207 24.3976 108.943C24.7054 109.664 24.8206 110.478 24.7433 111.387C24.656 112.413 24.3124 113.328 23.7125 114.133C23.1138 114.923 22.317 115.526 21.322 115.942C20.3136 116.342 19.1865 116.488 17.9408 116.38ZM18.8002 106.798C18.0528 106.734 17.4028 106.825 16.8502 107.073C16.2831 107.319 15.839 107.679 15.5182 108.153C15.1827 108.626 14.9906 109.149 14.942 109.72C14.8934 110.292 14.9877 110.832 15.225 111.339C15.4623 111.847 15.839 112.278 16.3551 112.633C16.8577 112.972 17.4755 113.173 18.2082 113.236C18.941 113.3 19.5983 113.209 20.1802 112.964C20.7486 112.703 21.2 112.343 21.5342 111.885C21.8697 111.412 22.0612 110.897 22.1085 110.34C22.1572 109.768 22.0635 109.221 21.8274 108.699C21.5767 108.175 21.2 107.744 20.6973 107.405C20.18 107.065 19.5476 106.863 18.8002 106.798Z" fill="white"/>
<path d="M19.2857 81.2227C19.6027 80.3676 20.0535 79.6807 20.638 79.1621C21.2087 78.6382 21.8315 78.2913 22.5065 78.1211L20.8752 77.5066L21.9568 74.5895L33.4788 78.9298C34.5388 79.3291 35.4025 79.8981 36.0699 80.6368C36.7511 81.3807 37.1741 82.2709 37.3388 83.3076C37.5173 84.3494 37.3816 85.4772 36.9316 86.691C36.3282 88.3185 35.4536 89.5138 34.3078 90.2768C33.1672 91.0261 31.9174 91.2233 30.5585 90.8686L31.6247 87.9929C32.2041 88.0382 32.7372 87.8696 33.2241 87.4872C33.73 87.0961 34.1158 86.542 34.3818 85.8248C34.6937 84.9834 34.6922 84.2047 34.3771 83.4887C34.0759 82.7779 33.4159 82.2307 32.3973 81.8469L30.6215 81.178C31.0203 81.7526 31.2759 82.4384 31.3883 83.2353C31.5059 84.0184 31.4087 84.8306 31.0968 85.6719C30.7388 86.6374 30.1638 87.4268 29.3716 88.0401C28.5794 88.6534 27.649 89.026 26.5804 89.1579C25.5031 89.2708 24.3794 89.1069 23.2093 88.6661C22.0529 88.2305 21.1118 87.6166 20.3857 86.8244C19.6648 86.0184 19.2092 85.1315 19.0189 84.1638C18.8337 83.1824 18.9226 82.202 19.2857 81.2227ZM26.5949 79.6612C25.8929 79.3968 25.2429 79.3091 24.6451 79.3983C24.0335 79.4823 23.51 79.7095 23.0745 80.0799C22.6254 80.4451 22.3011 80.8967 22.1016 81.4346C21.9022 81.9726 21.8489 82.5184 21.9417 83.072C22.0345 83.6257 22.2818 84.1433 22.6838 84.6248C23.0771 85.0874 23.6179 85.4483 24.3062 85.7076C24.9945 85.9668 25.6513 86.0571 26.2767 85.9783C26.8934 85.8805 27.4238 85.6559 27.8679 85.3044C28.317 84.9392 28.6388 84.4945 28.8331 83.9704C29.0326 83.4325 29.0884 82.8798 29.0007 82.3123C28.8993 81.7396 28.6519 81.222 28.2586 80.7595C27.8516 80.2918 27.297 79.9257 26.5949 79.6612Z" fill="white"/>
<path d="M42.5889 53.3714C42.9453 53.6317 43.2489 53.8898 43.4997 54.1458L38.2844 61.4025C39.0402 61.8633 39.7788 62.0202 40.5004 61.8731C41.2219 61.7261 41.8145 61.3301 42.2781 60.685C42.9477 59.7533 43.0262 58.7997 42.5135 57.8243L44.4579 55.1187C45.2023 56.0993 45.5915 57.2214 45.6255 58.4847C45.6476 59.7394 45.2338 60.9581 44.3839 62.1407C43.6971 63.0963 42.8711 63.8045 41.9058 64.2654C40.9373 64.7057 39.9124 64.8589 38.8312 64.7251C37.7585 64.5793 36.7172 64.1378 35.7074 63.4004C34.6857 62.6544 33.939 61.7904 33.4673 60.8084C32.9955 59.8265 32.8222 58.8074 32.9472 57.7513C33.0723 56.6951 33.4867 55.6772 34.1907 54.6977C34.8689 53.754 35.6761 53.0594 36.6123 52.6137C37.557 52.1561 38.5496 51.9975 39.5899 52.1378C40.6269 52.2576 41.6266 52.6688 42.5889 53.3714ZM40.0089 55.4491C39.3588 54.9926 38.6805 54.8525 37.9742 55.0288C37.2559 55.1965 36.6607 55.6088 36.1885 56.2658C35.7421 56.887 35.5545 57.5513 35.6256 58.259C35.6934 58.946 36.0256 59.5801 36.6222 60.1615L40.0089 55.4491Z" fill="white"/>
<path d="M73.3624 29.6209C72.8116 28.482 72.5624 27.3752 72.6147 26.3006C72.6606 25.2128 72.9807 24.2361 73.5752 23.3704C74.1632 22.4915 74.9854 21.7926 76.0416 21.2736C77.4015 20.6055 78.6902 20.3985 79.9078 20.6526C81.1322 20.8869 82.194 21.5453 83.0932 22.6277L80.1027 24.0969C79.7138 23.698 79.2638 23.4601 78.7528 23.3834C78.2487 23.2869 77.7193 23.3749 77.1648 23.6473C76.3727 24.0365 75.8864 24.6359 75.7061 25.4457C75.5193 26.2421 75.6821 27.1701 76.1944 28.2296C76.7003 29.2758 77.3251 29.9767 78.069 30.3324C78.8064 30.6748 79.5713 30.6515 80.3634 30.2623C81.4857 29.7109 81.9751 28.8477 81.8317 27.6726L84.8221 26.2034C85.0948 27.5445 84.9519 28.7865 84.3935 29.9295C83.8351 31.0724 82.8826 31.9747 81.5359 32.6363C80.4796 33.1552 79.4302 33.384 78.3875 33.3227C77.3384 33.2481 76.3779 32.9005 75.5059 32.28C74.6276 31.6462 73.9131 30.7598 73.3624 29.6209Z" fill="white"/>
<path d="M100.381 9.55102L103.71 25.5363L100.687 26.1758L97.3583 10.1905L100.381 9.55102Z" fill="white"/>
<path d="M125.037 10.3953C124.493 10.3813 124.041 10.2006 123.682 9.85293C123.338 9.49096 123.173 9.05263 123.186 8.53794C123.199 8.02325 123.386 7.60131 123.748 7.27213C124.124 6.92861 124.585 6.76382 125.129 6.77775C125.673 6.79168 126.117 6.97963 126.461 7.34159C126.82 7.68923 126.993 8.1204 126.98 8.63509C126.967 9.14977 126.772 9.57888 126.395 9.92239C126.034 10.2516 125.581 10.4092 125.037 10.3953ZM126.522 11.8901L126.211 24.1103L123.123 24.0312L123.434 11.811L126.522 11.8901Z" fill="white"/>
<path d="M157.895 24.0652C157.776 24.4902 157.641 24.8647 157.489 25.1885L148.894 22.7444C148.727 23.6145 148.837 24.3648 149.226 24.9953C149.615 25.6258 150.191 26.0497 150.955 26.2669C152.059 26.5807 152.977 26.3295 153.71 25.5131L156.914 26.4244C156.258 27.4611 155.345 28.211 154.177 28.674C153.012 29.1229 151.73 29.1482 150.329 28.7499C149.197 28.428 148.248 27.8905 147.481 27.1372C146.732 26.3737 146.232 25.4592 145.98 24.3936C145.743 23.332 145.793 22.1992 146.13 20.9951C146.471 19.7768 147.017 18.7777 147.77 17.9977C148.523 17.2177 149.415 16.7066 150.445 16.4642C151.475 16.2219 152.57 16.2657 153.731 16.5956C154.848 16.9134 155.779 17.4378 156.521 18.1689C157.278 18.904 157.772 19.7862 158.003 20.8154C158.252 21.8345 158.216 22.9178 157.895 24.0652ZM155.056 22.3402C155.256 21.5713 155.15 20.8837 154.739 20.2775C154.333 19.6571 153.74 19.2363 152.962 19.015C152.226 18.8058 151.54 18.8555 150.904 19.1639C150.286 19.4623 149.809 19.992 149.474 20.7531L155.056 22.3402Z" fill="white"/>
<path d="M181.293 29.7748C182.539 30.5296 183.308 31.5376 183.6 32.7985C183.9 34.0469 183.628 35.3785 182.784 36.7934L179.11 42.9521L176.469 41.3509L179.928 35.5523C180.425 34.7185 180.598 33.9547 180.447 33.2609C180.303 32.5545 179.872 31.984 179.155 31.5494C178.426 31.1072 177.711 30.9838 177.012 31.1794C176.334 31.3699 175.745 31.8821 175.248 32.7159L171.789 38.5144L169.147 36.9132L175.41 26.4152L178.051 28.0164L177.271 29.3239C177.895 29.0826 178.553 28.9996 179.244 29.0748C179.956 29.1449 180.639 29.3783 181.293 29.7748Z" fill="white"/>
<path d="M199.122 48.6214L194.923 52.785C194.63 53.075 194.483 53.3557 194.48 53.6272C194.499 53.8989 194.673 54.2032 195.001 54.5401L196.003 55.5666L194.154 57.3998L192.798 56.0101C190.98 54.1466 190.969 52.3242 192.765 50.5428L196.949 46.3948L195.932 45.3525L197.734 43.5659L198.751 44.6082L200.898 42.4798L203.071 44.7065L200.924 46.8349L202.835 48.7931L201.033 50.5797L199.122 48.6214Z" fill="white"/>
<path d="M223.833 91.019C224.569 91.1991 225.208 91.5342 225.749 92.0243C226.295 92.5284 226.692 93.1731 226.941 93.9583L223.854 94.9533L223.607 94.1751C223.314 93.2496 222.874 92.6185 222.289 92.2816C221.708 91.9588 220.879 91.9711 219.801 92.3186L214.004 94.1866L213.07 91.2421L224.705 87.4924L225.639 90.4369L223.833 91.019Z" fill="white"/>
<path d="M223.803 113.266C225.037 113.202 226.144 113.388 227.124 113.823C228.104 114.273 228.873 114.903 229.43 115.714C229.988 116.539 230.293 117.473 230.347 118.516C230.393 119.427 230.25 120.23 229.918 120.925C229.586 121.635 229.151 122.21 228.614 122.65L230.355 122.559L230.514 125.667L218.306 126.301L218.147 123.194L219.932 123.101C219.339 122.734 218.833 122.208 218.415 121.523C218.012 120.851 217.788 120.06 217.741 119.15C217.689 118.121 217.905 117.167 218.39 116.288C218.876 115.423 219.584 114.716 220.513 114.167C221.458 113.631 222.555 113.331 223.803 113.266ZM224.251 122.877C225 122.838 225.632 122.658 226.145 122.336C226.674 122.014 227.065 121.596 227.319 121.082C227.587 120.567 227.706 120.024 227.677 119.451C227.648 118.878 227.481 118.356 227.177 117.886C226.873 117.415 226.442 117.04 225.882 116.76C225.338 116.494 224.699 116.38 223.965 116.418C223.23 116.456 222.591 116.636 222.048 116.959C221.52 117.296 221.122 117.714 220.853 118.214C220.585 118.729 220.465 119.266 220.493 119.824C220.523 120.397 220.69 120.926 220.994 121.411C221.314 121.895 221.745 122.27 222.289 122.537C222.848 122.802 223.502 122.916 224.251 122.877Z" fill="white"/>
<path d="M224.85 146.558L219.061 145.353C218.658 145.269 218.343 145.302 218.118 145.45C217.903 145.616 217.749 145.929 217.655 146.39L217.367 147.796L214.818 147.265L215.207 145.363C215.73 142.812 217.23 141.794 219.707 142.31L225.475 143.51L225.767 142.083L228.251 142.6L227.959 144.027L230.918 144.643L230.294 147.691L227.335 147.075L226.786 149.755L224.301 149.239L224.85 146.558Z" fill="white"/>
<path d="M220.649 170.449C220.879 169.956 221.224 169.615 221.685 169.426C222.153 169.257 222.62 169.283 223.086 169.503C223.551 169.723 223.862 170.066 224.019 170.53C224.183 171.015 224.15 171.504 223.92 171.997C223.69 172.49 223.341 172.822 222.873 172.991C222.412 173.179 221.949 173.164 221.484 172.943C221.018 172.723 220.703 172.371 220.54 171.887C220.383 171.422 220.419 170.943 220.649 170.449ZM218.69 171.207L207.64 165.979L208.944 163.179L219.994 168.406L218.69 171.207Z" fill="white"/>
<path d="M202.606 195.533C201.686 196.661 200.585 197.277 199.304 197.381C198.035 197.494 196.766 197.025 195.498 195.974L189.977 191.397L191.93 189.003L197.128 193.313C197.875 193.932 198.601 194.218 199.304 194.171C200.018 194.133 200.641 193.789 201.171 193.139C201.71 192.478 201.934 191.785 201.843 191.059C201.753 190.354 201.335 189.692 200.587 189.073L195.389 184.763L197.342 182.37L206.753 190.172L204.8 192.565L203.628 191.593C203.775 192.251 203.762 192.918 203.589 193.596C203.417 194.295 203.09 194.94 202.606 195.533Z" fill="white"/>
<path d="M182.124 213.487C181.38 214.015 180.621 214.328 179.846 214.427C179.08 214.537 178.371 214.472 177.719 214.232L178.717 215.661L176.179 217.461L169.131 207.366C168.482 206.437 168.091 205.479 167.958 204.491C167.816 203.492 167.97 202.517 168.419 201.567C168.86 200.605 169.608 199.75 170.664 199.001C172.08 197.997 173.475 197.503 174.85 197.519C176.213 197.544 177.354 198.087 178.274 199.148L175.773 200.922C175.321 200.558 174.786 200.396 174.169 200.437C173.532 200.474 172.901 200.714 172.277 201.157C171.545 201.676 171.107 202.321 170.963 203.09C170.81 203.848 171.045 204.673 171.668 205.566L172.754 207.121C172.75 206.421 172.926 205.71 173.283 204.988C173.628 204.274 174.167 203.658 174.898 203.139C175.738 202.543 176.658 202.215 177.657 202.156C178.656 202.097 179.633 202.314 180.588 202.809C181.54 203.324 182.374 204.094 183.09 205.119C183.797 206.132 184.226 207.171 184.378 208.236C184.517 209.31 184.392 210.3 184.003 211.207C183.602 212.123 182.976 212.883 182.124 213.487ZM175.218 210.649C175.647 211.264 176.133 211.704 176.677 211.968C177.228 212.244 177.788 212.352 178.356 212.292C178.932 212.244 179.454 212.054 179.922 211.722C180.39 211.39 180.742 210.969 180.978 210.459C181.214 209.949 181.302 209.381 181.242 208.756C181.179 208.152 180.937 207.548 180.516 206.945C180.095 206.342 179.604 205.896 179.044 205.608C178.481 205.341 177.917 205.227 177.353 205.266C176.776 205.314 176.26 205.5 175.804 205.824C175.336 206.156 174.978 206.581 174.73 207.099C174.491 207.63 174.403 208.198 174.466 208.802C174.538 209.418 174.788 210.034 175.218 210.649Z" fill="white"/>
</g>
</svg>
