<svg width="16" height="17" viewBox="0 0 16 17" fill="none" xmlns="http://www.w3.org/2000/svg">
<path d="M8.66797 4.83317C8.66797 4.46498 8.36949 4.1665 8.0013 4.1665C7.63311 4.1665 7.33463 4.46498 7.33463 4.83317V8.49984C7.33463 8.67665 7.40487 8.84622 7.5299 8.97124L9.5299 10.9712C9.79025 11.2316 10.2124 11.2316 10.4727 10.9712C10.7331 10.7109 10.7331 10.2888 10.4727 10.0284L8.66797 8.22369V4.83317Z" fill="#6B6B6B"/>
<path fill-rule="evenodd" clip-rule="evenodd" d="M8.0013 1.1665C3.95121 1.1665 0.667969 4.44975 0.667969 8.49984C0.667969 12.5499 3.95121 15.8332 8.0013 15.8332C12.0514 15.8332 15.3346 12.5499 15.3346 8.49984C15.3346 4.44975 12.0514 1.1665 8.0013 1.1665ZM2.0013 8.49984C2.0013 5.18613 4.68759 2.49984 8.0013 2.49984C11.315 2.49984 14.0013 5.18613 14.0013 8.49984C14.0013 11.8135 11.315 14.4998 8.0013 14.4998C4.68759 14.4998 2.0013 11.8135 2.0013 8.49984Z" fill="#6B6B6B"/>
</svg>
