<svg xmlns="http://www.w3.org/2000/svg" xmlns:svg="http://www.w3.org/2000/svg" version="1.1" id="svg7482" xml:space="preserve" width="40" height="40" viewBox="0 0 682.66669 682.66669"><defs id="defs7486"><clipPath clipPathUnits="userSpaceOnUse" id="clipPath7500"><path d="M 0,512 H 512 V 0 H 0 Z" id="path7498"/></clipPath></defs><g id="g7488" transform="matrix(1.3333333,0,0,-1.3333333,0,682.66667)"><g id="g7490" transform="translate(359.3105,298.3174)"><path d="M 0,0 V -99.62" style="fill:none;stroke:#000000;stroke-width:15;stroke-linecap:round;stroke-linejoin:round;stroke-miterlimit:10;stroke-dasharray:none;stroke-opacity:1" id="path7492"/></g><g id="g7494"><g id="g7496" clip-path="url(#clipPath7500)"><g id="g7502" transform="translate(190.4707,334.3545)"><path d="m 0,0 -16.48,20.613 c -1.319,1.649 -3.315,2.609 -5.426,2.609 h -42.749 c -2.112,0 -4.108,-0.96 -5.426,-2.609 L -86.562,0 h -32.131 V -123.437 H 24.072 c 4.451,0 8.06,3.609 8.06,8.06 V -8.06 c 0,4.452 -3.609,8.06 -8.06,8.06 z" style="fill:#30569f;fill-opacity:1;fill-rule:nonzero;stroke:none" id="path7504"/></g><g id="g7506" transform="translate(214.543,229.668)"><path d="M 0,0 H -142.766 V -18.75 H 0 c 4.451,0 8.06,3.608 8.06,8.06 V 8.059 C 8.06,3.608 4.451,0 0,0" style="fill:#26447e;fill-opacity:1;fill-rule:nonzero;stroke:none" id="path7508"/></g><g id="g7510" transform="translate(71.7773,210.918)"><path d="m 0,0 h 142.766 c 4.451,0 8.059,3.608 8.059,8.06 v 107.317 c 0,4.451 -3.608,8.06 -8.059,8.06 h -24.073 l -16.48,20.613 c -1.318,1.648 -3.315,2.608 -5.426,2.608 H 54.038 c -2.111,0 -4.107,-0.96 -5.426,-2.608 L 32.132,123.437 H 0" style="fill:none;stroke:#000000;stroke-width:15;stroke-linecap:round;stroke-linejoin:round;stroke-miterlimit:10;stroke-dasharray:none;stroke-opacity:1" id="path7512"/></g><g id="g7514" transform="translate(147.1895,310.9258)"><path d="m 0,0 c -21.146,0 -38.289,-17.143 -38.289,-38.29 0,-21.147 17.143,-38.29 38.289,-38.29 21.147,0 38.29,17.143 38.29,38.29 C 38.29,-17.143 21.147,0 0,0" style="fill:#5392f9;fill-opacity:1;fill-rule:nonzero;stroke:none" id="path7516"/></g><g id="g7518" transform="translate(147.1895,310.9258)"><path d="m 0,0 c -21.146,0 -38.289,-17.143 -38.289,-38.29 0,-21.147 17.143,-38.29 38.289,-38.29 21.147,0 38.29,17.143 38.29,38.29 C 38.29,-17.143 21.147,0 0,0 Z" style="fill:none;stroke:#000000;stroke-width:15;stroke-linecap:round;stroke-linejoin:round;stroke-miterlimit:10;stroke-dasharray:none;stroke-opacity:1" id="path7520"/></g><g id="g7522" transform="translate(35.6602,210.918)"><path d="m 0,0 h 36.721 c 4.101,0 7.426,3.325 7.426,7.427 V 116.01 c 0,4.101 -3.325,7.426 -7.426,7.426 H 0 c -4.102,0 -7.426,-3.325 -7.426,-7.426 V 7.427 C -7.426,3.325 -4.102,0 0,0" style="fill:#75cff9;fill-opacity:1;fill-rule:nonzero;stroke:none" id="path7524"/></g><g id="g7526" transform="translate(72.3809,229.668)"><path d="m 0,0 h -36.721 c -4.101,0 -7.425,3.325 -7.425,7.427 v -18.75 c 0,-4.102 3.324,-7.427 7.425,-7.427 H 0 c 4.102,0 7.427,3.325 7.427,7.427 V 7.427 C 7.427,3.325 4.102,0 0,0" style="fill:#5fa7ee;fill-opacity:1;fill-rule:nonzero;stroke:none" id="path7528"/></g><g id="g7530" transform="translate(79.8076,307.7295)"><path d="m 0,0 v 19.291 c 0,4.102 -3.325,7.427 -7.427,7.427 h -36.72 c -4.102,0 -7.426,-3.325 -7.426,-7.427 V -89.291 c 0,-4.102 3.324,-7.427 7.426,-7.427 h 36.72 c 4.102,0 7.427,3.325 7.427,7.427 V -35" style="fill:none;stroke:#000000;stroke-width:15;stroke-linecap:round;stroke-linejoin:round;stroke-miterlimit:10;stroke-dasharray:none;stroke-opacity:1" id="path7532"/></g><g id="g7534" transform="translate(169.9336,180.9648)"><path d="m 0,0 h -45.487 c -1.538,0 -2.785,1.247 -2.785,2.785 V 29.953 H 2.785 V 2.785 C 2.785,1.247 1.538,0 0,0" style="fill:#bed9fd;fill-opacity:1;fill-rule:nonzero;stroke:none" id="path7536"/></g><g id="g7538" transform="translate(169.9336,180.9648)"><path d="m 0,0 h -45.487 c -1.538,0 -2.785,1.247 -2.785,2.785 V 29.953 H 2.785 V 2.785 C 2.785,1.247 1.538,0 0,0 Z" style="fill:none;stroke:#000000;stroke-width:15;stroke-linecap:round;stroke-linejoin:round;stroke-miterlimit:10;stroke-dasharray:none;stroke-opacity:1" id="path7540"/></g><g id="g7542" transform="translate(147.1895,180.9648)"><path d="M 0,0 V -43.133" style="fill:none;stroke:#000000;stroke-width:15;stroke-linecap:round;stroke-linejoin:round;stroke-miterlimit:10;stroke-dasharray:none;stroke-opacity:1" id="path7544"/></g><g id="g7546" transform="translate(417.3896,504.5)"><path d="m 0,0 h -116.158 c -2.965,0 -5.704,-1.582 -7.187,-4.148 l -58.079,-100.597 c -1.482,-2.568 -1.482,-5.731 0,-8.298 l 58.079,-100.596 c 1.483,-2.567 4.222,-4.148 7.187,-4.148 H 0 c 2.964,0 5.703,1.581 7.186,4.148 l 58.079,100.596 c 1.482,2.567 1.482,5.73 0,8.298 L 7.186,-4.148 C 5.703,-1.582 2.964,0 0,0" style="fill:#75cff9;fill-opacity:1;fill-rule:nonzero;stroke:none" id="path7548"/></g><g id="g7550" transform="translate(482.6543,399.7549)"><path d="m 0,0 -10.401,18.017 c 0.199,-1.752 -0.149,-3.552 -1.059,-5.129 L -69.979,-88.468 c -1.493,-2.588 -4.252,-4.18 -7.24,-4.18 h -117.036 c -1.628,0 -3.181,0.487 -4.505,1.336 l 10.151,-17.582 c 1.482,-2.567 4.221,-4.148 7.186,-4.148 h 116.158 c 2.964,0 5.703,1.581 7.186,4.148 L 0,-8.298 C 1.482,-5.73 1.482,-2.567 0,0" style="fill:#5fa7ee;fill-opacity:1;fill-rule:nonzero;stroke:none" id="path7552"/></g><g id="g7554" transform="translate(438.0732,476.9717)"><path d="m 0,0 -13.498,23.38 c -1.482,2.566 -4.222,4.148 -7.186,4.148 h -116.158 c -2.965,0 -5.704,-1.582 -7.186,-4.148 l -58.079,-100.597 c -1.483,-2.567 -1.483,-5.73 0,-8.298 l 58.079,-100.595 c 1.482,-2.568 4.221,-4.149 7.186,-4.149 h 116.158 c 2.964,0 5.704,1.581 7.186,4.149 l 58.079,100.595 c 1.482,2.568 1.482,5.731 0,8.298 l -26.093,45.195" style="fill:none;stroke:#000000;stroke-width:15;stroke-linecap:round;stroke-linejoin:round;stroke-miterlimit:10;stroke-dasharray:none;stroke-opacity:1" id="path7556"/></g><g id="g7558" transform="translate(421.5312,503.3779)"><path d="m 0,0 -62.219,-107.766 v -0.012 l -62.231,-107.766" style="fill:none;stroke:#000000;stroke-width:15;stroke-linecap:round;stroke-linejoin:round;stroke-miterlimit:10;stroke-dasharray:none;stroke-opacity:1" id="path7560"/></g><g id="g7562" transform="translate(297.0811,503.3779)"><path d="m 0,0 62.218,-107.766 0.013,-0.012 62.219,-107.766" style="fill:none;stroke:#000000;stroke-width:15;stroke-linecap:round;stroke-linejoin:round;stroke-miterlimit:10;stroke-dasharray:none;stroke-opacity:1" id="path7564"/></g><g id="g7566" transform="translate(483.7627,395.6123)"><path d="M 0,0 H -248.9" style="fill:none;stroke:#000000;stroke-width:15;stroke-linecap:round;stroke-linejoin:round;stroke-miterlimit:10;stroke-dasharray:none;stroke-opacity:1" id="path7568"/></g><g id="g7570" transform="translate(359.3105,425.6094)"><path d="m 0,0 c -16.57,0 -30.004,-13.433 -30.004,-30.003 0,-16.57 13.434,-30.004 30.004,-30.004 16.57,0 30.003,13.434 30.003,30.004 C 30.003,-13.433 16.57,0 0,0" style="fill:#f4daa7;fill-opacity:1;fill-rule:nonzero;stroke:none" id="path7572"/></g><g id="g7574" transform="translate(359.3105,425.6094)"><path d="m 0,0 c -16.57,0 -30.004,-13.433 -30.004,-30.003 0,-16.57 13.434,-30.004 30.004,-30.004 16.57,0 30.003,13.434 30.003,30.004 C 30.003,-13.433 16.57,0 0,0 Z" style="fill:none;stroke:#000000;stroke-width:15;stroke-linecap:round;stroke-linejoin:round;stroke-miterlimit:10;stroke-dasharray:none;stroke-opacity:1" id="path7576"/></g><g id="g7578" transform="translate(340.8662,206.918)"><path d="m 0,0 v -195.418 c 0,-2.209 1.791,-4 4,-4 h 28.888 c 2.21,0 4,1.791 4,4 L 36.888,0 c 0,2.209 -1.79,4 -4,4 H 4 C 1.791,4 0,2.209 0,0" style="fill:#30569f;fill-opacity:1;fill-rule:nonzero;stroke:none" id="path7580"/></g><g id="g7582" transform="translate(340.8662,131.167)"><path d="m 0,0 v -119.667 c 0,-2.209 1.791,-4 4,-4 h 28.888 c 2.21,0 4,1.791 4,4 V 75.751 c 0,2.209 -1.79,4 -4,4 H 4 c -2.209,0 -4,-1.791 -4,-4 V 35" style="fill:none;stroke:#000000;stroke-width:15;stroke-linecap:round;stroke-linejoin:round;stroke-miterlimit:10;stroke-dasharray:none;stroke-opacity:1" id="path7584"/></g><g id="g7586" transform="translate(127.9424,120.6592)"><path d="M 0,0 -27.307,-113.159" style="fill:none;stroke:#000000;stroke-width:15;stroke-linecap:round;stroke-linejoin:round;stroke-miterlimit:10;stroke-dasharray:none;stroke-opacity:1" id="path7588"/></g><g id="g7590" transform="translate(166.4375,120.6592)"><path d="M 0,0 27.307,-113.159" style="fill:none;stroke:#000000;stroke-width:15;stroke-linecap:round;stroke-linejoin:round;stroke-miterlimit:10;stroke-dasharray:none;stroke-opacity:1" id="path7592"/></g><g id="g7594" transform="translate(187.1191,103.4854)"><path d="m 0,0 h -79.859 c -5.273,0 -9.548,4.274 -9.548,9.548 v 15.251 c 0,5.273 4.275,9.548 9.548,9.548 H 0 c 5.273,0 9.549,-4.275 9.549,-9.548 V 9.548 C 9.549,4.274 5.273,0 0,0" style="fill:#75cff9;fill-opacity:1;fill-rule:nonzero;stroke:none" id="path7596"/></g><g id="g7598" transform="translate(187.1191,137.832)"><path d="m 0,0 h -25.528 c 5.273,0 9.548,-4.274 9.548,-9.548 v -15.251 c 0,-5.273 -4.275,-9.548 -9.548,-9.548 H 0 c 5.273,0 9.549,4.275 9.549,9.548 V -9.548 C 9.549,-4.274 5.273,0 0,0" style="fill:#5fa7ee;fill-opacity:1;fill-rule:nonzero;stroke:none" id="path7600"/></g><g id="g7602" transform="translate(187.1191,103.4854)"><path d="m 0,0 h -79.859 c -5.273,0 -9.548,4.274 -9.548,9.548 v 15.251 c 0,5.273 4.275,9.548 9.548,9.548 H 0 c 5.273,0 9.549,-4.275 9.549,-9.548 V 9.548 C 9.549,4.274 5.273,0 0,0 Z" style="fill:none;stroke:#000000;stroke-width:15;stroke-linecap:round;stroke-linejoin:round;stroke-miterlimit:10;stroke-dasharray:none;stroke-opacity:1" id="path7604"/></g></g></g></g></svg>