<svg width="191" height="36" viewBox="0 0 191 36" fill="none" xmlns="http://www.w3.org/2000/svg">
<path d="M25.0213 30.126V35.166C22.855 35.5185 20.7173 35.2911 18.6065 34.7587C15.1031 33.8748 12.1773 32.0492 9.80727 29.353C4.92946 23.7986 4.33551 15.7554 7.8944 9.6373C11.8837 2.78214 19.3142 0.331297 25.0146 1.16688V6.18793C20.8828 5.63656 17.2569 6.67677 14.2796 9.59846C11.9057 11.928 10.6958 14.791 10.692 18.1058C10.6862 21.8612 12.1544 24.9941 15.039 27.4175C17.9236 29.8409 21.2787 30.6613 25.0213 30.126Z" fill="#272829"/>
<path d="M90.5681 6.53711H94.763C94.7898 6.62448 94.8078 6.7143 94.8166 6.80521C94.808 10.5464 94.8586 14.2894 94.7687 18.0277C94.6731 21.9356 92.2265 24.7541 88.3903 25.4267C85.7017 25.8956 83.1815 25.4485 81.0535 23.6021C79.4218 22.1876 78.6146 20.3289 78.5667 18.2494C78.4711 14.3652 78.539 10.481 78.539 6.56174H82.7473V7.11785C82.7473 10.3541 82.7339 13.5903 82.7578 16.8265C82.7567 17.5041 82.8379 18.1794 82.9998 18.8377C83.5115 20.8168 84.884 21.8551 86.8169 21.8096C88.6198 21.767 89.9732 20.5856 90.3778 18.6388C90.5013 18.0204 90.5634 17.3915 90.5633 16.7611C90.5815 13.5401 90.5719 10.319 90.5719 7.09795L90.5681 6.53711Z" fill="white"/>
<path d="M130.899 8.59503C130.198 9.5964 129.494 10.6025 128.77 11.6389L128.277 11.3064C127.016 10.4538 125.647 9.88534 124.111 9.8124C123.605 9.78282 123.097 9.83205 122.606 9.95829C121.891 10.1525 121.434 10.6461 121.369 11.4144C121.304 12.1827 121.595 12.753 122.392 13.0496C123.504 13.4645 124.654 13.7876 125.798 14.1134C127.137 14.4924 128.427 14.9727 129.534 15.8424C130.267 16.4125 130.794 17.2021 131.036 18.0933C132.013 21.5313 130.109 24.6529 126.495 25.3701C122.573 26.1488 119.169 25.0053 116.24 22.3669C116.212 22.328 116.19 22.286 116.172 22.2419C116.99 21.2481 117.821 20.2391 118.647 19.234C119.269 19.6859 119.843 20.1349 120.449 20.5366C121.466 21.2092 122.56 21.7464 123.797 21.825C124.459 21.8609 125.123 21.786 125.76 21.6033C126.455 21.4072 126.841 20.853 126.869 20.1065C126.896 19.3827 126.582 18.8086 125.918 18.5519C124.899 18.1587 123.837 17.8792 122.803 17.524C121.751 17.163 120.691 16.8248 119.679 16.3767C118.102 15.6785 117.26 14.4261 117.011 12.7227C116.596 9.89292 117.85 7.6344 120.561 6.65292C121.427 6.34081 122.336 6.15725 123.256 6.10818C125.791 5.96329 128.299 6.68023 130.366 8.14029C130.51 8.23503 130.646 8.34966 130.782 8.45766C130.825 8.49986 130.864 8.54584 130.899 8.59503Z" fill="white"/>
<path d="M46.8035 5.37109H49.8421V25.3606H46.836V23.3616C46.749 23.408 46.6678 23.4642 46.594 23.5293C44.7041 26.0275 40.5197 26.2009 38.077 24.3999C35.6993 22.6492 34.8758 20.2552 35.0757 17.4283C35.2784 14.5511 36.7074 12.4858 39.3749 11.3452C41.7038 10.3486 44.7089 10.5314 46.594 12.9358C46.6604 13.0062 46.7303 13.0733 46.8035 13.1367V5.37109ZM46.9221 18.2553C46.837 17.7437 46.793 17.2208 46.6591 16.7225C46.1885 14.9641 44.7462 13.6956 43.0093 13.4787C41.3384 13.2693 39.6513 14.1494 38.7465 15.7192C38.1382 16.7746 38.01 17.9161 38.1592 19.107C38.493 21.7672 41.326 23.5596 43.8978 22.7278C45.7017 22.1405 46.8657 20.3897 46.9221 18.2534V18.2553Z" fill="white"/>
<path d="M102.048 23.3883V30.594H99.0312V11.0441H102.038V13.4523C102.107 13.3958 102.17 13.3344 102.23 13.2685C104.429 10.1024 107.988 10.4264 110.247 11.6864C112.332 12.8517 113.509 14.6545 113.758 17.0135C114.034 19.6045 113.496 21.9474 111.492 23.7957C108.843 26.239 105.217 26.2276 102.583 23.7692C102.445 23.6179 102.32 23.4554 102.209 23.2832L102.048 23.3883ZM101.88 18.1873L101.997 18.2233C102.015 18.4743 102.02 18.7282 102.054 18.9812C102.278 20.6571 103.116 21.9313 104.706 22.5812C106.276 23.2263 107.775 22.9601 109.1 21.9C111.124 20.2781 111.367 17.0154 109.629 15.0079C107.549 12.6035 103.919 13.0364 102.541 15.8947C102.201 16.6023 102.094 17.4199 101.88 18.1892V18.1873Z" fill="white"/>
<path d="M17.6563 17.9345C17.6544 16.6659 18.0319 15.4252 18.7412 14.3689C19.4505 13.3127 20.4598 12.4882 21.6417 11.9995C22.8236 11.5108 24.1251 11.3798 25.3821 11.6231C26.639 11.8663 27.7951 12.4729 28.7043 13.3663C29.6136 14.2597 30.2354 15.3999 30.4911 16.6429C30.7469 17.8859 30.6252 19.1761 30.1414 20.3507C29.6576 21.5253 28.8334 22.5317 27.7728 23.2428C26.7122 23.9539 25.4627 24.3379 24.182 24.3463C23.3283 24.3504 22.4821 24.1877 21.692 23.8676C20.9018 23.5475 20.1831 23.0762 19.5769 22.4807C18.9708 21.8851 18.4892 21.1771 18.1596 20.397C17.8301 19.6169 17.659 18.7801 17.6563 17.9345Z" fill="white"/>
<path d="M67.7065 19.5341H56.3861C56.398 19.9653 56.5016 20.3892 56.6901 20.7781C56.8787 21.1669 57.1479 21.512 57.4803 21.7908C59.4715 23.5434 62.9386 23.4146 64.8037 21.5246C64.8591 21.4677 64.906 21.4033 64.9883 21.3057L66.8055 23.2611C66.6142 23.4022 66.4229 23.5188 66.2651 23.6666C63.6971 26.0028 58.6395 26.4281 55.7357 23.8702C54.1461 22.47 53.4403 20.7117 53.3073 18.6521C53.0577 14.8295 55.3857 11.6928 59.1311 10.9595C61.284 10.5379 63.3174 10.9074 65.1394 12.175C66.7299 13.2824 67.5601 14.8276 67.6931 16.729C67.7591 17.6356 67.7065 18.5517 67.7065 19.5341ZM56.4033 17.1231H64.6286C64.8018 15.019 63.1098 13.4208 60.7274 13.4094C58.2693 13.398 56.2818 15.091 56.4033 17.1231Z" fill="white"/>
<path d="M175.935 19.517C175.996 20.526 176.414 21.2517 177.103 21.8523C179.031 23.5367 182.772 23.4164 184.563 21.3256L186.368 23.2677C186.179 23.3896 185.998 23.5218 185.824 23.6637C183.254 26.0037 178.195 26.4262 175.294 23.873C173.704 22.4738 172.998 20.7164 172.862 18.6559C172.611 14.8342 174.938 11.6956 178.681 10.9604C180.834 10.5379 182.868 10.9055 184.691 12.1721C186.282 13.2786 187.114 14.8247 187.248 16.7242C187.312 17.6337 187.259 18.5507 187.259 19.517H175.935ZM184.194 17.1306C184.29 14.9214 182.568 13.3506 180.17 13.4141C177.718 13.4795 175.765 15.1951 175.969 17.1306H184.194Z" fill="white"/>
<path d="M162.064 25.3702H159.34V23.5304C159.182 23.6716 159.09 23.7464 159.008 23.8288C157.227 25.608 154.213 26.1537 151.924 25.086C149.561 23.9851 148.91 21.8251 149.437 19.686C149.682 18.6941 150.35 18.0082 151.247 17.5317C152.509 16.8619 153.879 16.7226 155.277 16.7198C156.52 16.7198 157.764 16.7198 158.991 16.7198C159.423 14.9472 158.344 13.5177 156.51 13.3557C155.112 13.2325 153.824 13.5631 152.607 14.2197C152.301 14.3845 152.004 14.5674 151.656 14.7691L150.247 12.8185C151.049 12.3789 151.793 11.8948 152.596 11.5462C154.314 10.7929 156.229 10.597 158.067 10.9863C160.564 11.4912 162.028 13.1065 162.084 15.6284C162.155 18.8315 162.103 22.0374 162.103 25.2414C162.095 25.2857 162.082 25.3289 162.064 25.3702ZM159.029 18.8618C157.594 18.8618 156.214 18.8485 154.831 18.8703C154.481 18.8883 154.136 18.952 153.803 19.0598C152.861 19.3326 152.375 19.9124 152.339 20.7594C152.299 21.7238 152.712 22.3936 153.644 22.7337C154.888 23.1884 156.142 23.1714 157.351 22.5944C158.261 22.1596 158.903 21.4794 159.018 20.4458C159.076 19.9361 159.029 19.415 159.029 18.8618Z" fill="white"/>
<path d="M145.384 15.2316C142.332 12.6605 139.427 13.5671 137.935 15.2174C136.405 16.9056 136.52 19.6625 138.177 21.3829C139.195 22.4411 140.454 22.9091 141.919 22.8352C143.385 22.7613 144.494 22.0072 145.514 21.0163L147.295 22.9432C144.034 26.548 138.19 26.4684 135.286 22.8068C131.92 18.5616 134.386 12.0409 139.764 10.9969C142.433 10.4787 144.861 10.9552 146.924 12.8121C146.995 12.8755 147.075 12.9286 147.198 13.0233L145.384 15.2316Z" fill="white"/>
<path d="M169.376 25.3722H166.359V5.38086H169.376V25.3722Z" fill="white"/>
</svg>
