<svg xmlns="http://www.w3.org/2000/svg" xmlns:xlink="http://www.w3.org/1999/xlink" height="40" viewBox="0 0 512 512" width="40"><linearGradient id="linear-gradient" gradientUnits="userSpaceOnUse" x1="256" x2="256" y1="1.841" y2="518.013"><stop offset="0" stop-color="#2ab793"/><stop offset="1" stop-color="#2c98b5"/></linearGradient><linearGradient id="linear-gradient-2" x1="320" x2="320" xlink:href="#linear-gradient" y1="1.841" y2="518.013"/><linearGradient id="linear-gradient-3" x1="249.172" x2="249.172" xlink:href="#linear-gradient" y1="1.841" y2="518.013"/><linearGradient id="linear-gradient-4" gradientTransform="matrix(.486 .874 -.874 .486 379.96 -157.722)" x1="324" x2="324" xlink:href="#linear-gradient" y1="1.841" y2="518.013"/><linearGradient id="linear-gradient-5" x1="390.828" x2="390.828" xlink:href="#linear-gradient" y1="1.841" y2="518.013"/><linearGradient id="linear-gradient-6" x1="175.015" x2="175.015" xlink:href="#linear-gradient" y1="1.841" y2="518.013"/><linearGradient id="linear-gradient-7" x1="137.78" x2="137.78" xlink:href="#linear-gradient" y1="1.841" y2="518.013"/><g id="GRADIENT"><path d="m472 16h-432a24.0275 24.0275 0 0 0 -24 24v352a24.0275 24.0275 0 0 0 24 24h165.24774l-19.2 64h-26.04774v16h192v-16h-26.04773l-19.20007-64h165.2478a24.0275 24.0275 0 0 0 24-24v-352a24.0275 24.0275 0 0 0 -24-24zm-162.7522 464h-106.49554l19.2-64h68.09546zm170.7522-88a8.00917 8.00917 0 0 1 -8 8h-432a8.00917 8.00917 0 0 1 -8-8v-24h448zm0-40h-448v-312a8.00917 8.00917 0 0 1 8-8h432a8.00917 8.00917 0 0 1 8 8z" fill="url(#linear-gradient)"/><path d="m440 152h-105.37256a7.94677 7.94677 0 0 1 -5.65723-2.34375l-22.627-22.62695a23.84254 23.84254 0 0 0 -16.97065-7.0293h-89.37256a24.0275 24.0275 0 0 0 -24 24v168a24.0275 24.0275 0 0 0 24 24h240a24.0275 24.0275 0 0 0 24-24v-136a24.0275 24.0275 0 0 0 -24-24zm8 160a8.00917 8.00917 0 0 1 -8 8h-240a8.00917 8.00917 0 0 1 -8-8v-168a8.00917 8.00917 0 0 1 8-8h89.37256a7.94677 7.94677 0 0 1 5.65723 2.34375l22.627 22.62695a23.84254 23.84254 0 0 0 16.97065 7.0293h105.37256a8.00917 8.00917 0 0 1 8 8z" fill="url(#linear-gradient-2)"/><path d="m266.343 194.343-45.656 45.657 45.656 45.657 11.314-11.314-34.344-34.343 34.344-34.343z" fill="url(#linear-gradient-3)"/><path d="m282.817 236h82.365v15.999h-82.365z" fill="url(#linear-gradient-4)" transform="matrix(.486 -.874 .874 .486 -46.637 408.743)"/><path d="m362.343 205.657 34.344 34.343-34.344 34.343 11.314 11.314 45.656-45.657-45.656-45.657z" fill="url(#linear-gradient-5)"/><path d="m202.794 64 12.955 30.219 28.57 11.838 30.579-12.219 15.819 15.819 11.313-11.314-23.275-23.277-34.326 13.717-16.54-6.853-14.546-33.93h-42.686l-14.545 33.93-16.541 6.853-34.325-13.717-30.179 30.18 13.716 34.325-6.853 16.54-33.93 14.546v42.686l33.929 14.546 6.854 16.54-13.717 34.325 30.179 30.18 34.326-13.717 17.366 7.196 6.126-14.781-23.382-9.689-30.579 12.219-15.264-15.264 12.219-30.579-11.839-28.571-30.218-12.954v-21.588l30.219-12.954 11.838-28.571-12.219-30.579 15.265-15.264 30.578 12.219 28.57-11.838 12.955-30.219z" fill="url(#linear-gradient-6)"/><path d="m163.56006 134.64844-7.12012-14.32813a80.02808 80.02808 0 0 0 0 143.35938l7.12012-14.32813a64.02857 64.02857 0 0 1 0-114.70312z" fill="url(#linear-gradient-7)"/></g></svg>