<svg width="144" height="64" viewBox="0 0 144 64" fill="none" xmlns="http://www.w3.org/2000/svg">
<g clip-path="url(#clip0_333_25353)">
<path d="M17.7586 25.0164V29.9281H29.2725C28.8822 32.6787 28.1016 34.6433 26.7355 36.0187C24.9792 37.7869 22.4423 39.5551 17.9538 39.5551C10.9284 39.5551 5.4642 33.8576 5.4642 26.7846C5.4642 19.7116 10.9284 14.014 17.9538 14.014C21.6617 14.014 24.589 15.5858 26.5404 17.5505L29.858 14.2105C26.9307 11.0669 23.2229 8.90576 17.7586 8.90576C8.00114 8.90576 0 16.7646 0 26.5881C0 36.4117 8.19629 44.2704 17.7586 44.2704C23.0276 44.2704 26.9307 42.5022 30.0531 39.3586C33.1754 36.2151 34.1512 31.6963 34.1512 27.9633C34.1512 26.7846 34.1512 25.8023 33.956 25.0164H17.7586Z" fill="#52606D"/>
<path d="M48.5922 21.0874C42.3474 21.0874 37.2734 25.8027 37.2734 32.4827C37.2734 38.9662 42.3474 43.878 48.5922 43.878C54.837 43.878 59.9109 38.9662 59.9109 32.4827C59.9109 25.8027 54.837 21.0874 48.5922 21.0874ZM48.5922 39.3591C45.0795 39.3591 42.1522 36.6086 42.1522 32.4827C42.1522 28.3568 45.0795 25.6062 48.5922 25.6062C52.1049 25.6062 55.0322 28.3568 55.0322 32.4827C55.0322 36.6086 52.1049 39.3591 48.5922 39.3591Z" fill="#52606D"/>
<path d="M104.408 23.6415C103.042 22.2662 100.895 21.0874 98.1631 21.0874C92.5037 21.0874 87.625 25.9992 87.625 32.4827C87.625 38.9662 92.5037 43.878 98.1631 43.878C100.895 43.878 103.042 42.6991 104.213 41.3239H104.408V42.8957C104.408 47.218 102.066 49.5756 98.3582 49.5756C95.2358 49.5756 93.4794 47.4144 92.6988 45.4498L88.4056 47.218C89.5765 50.1651 92.894 53.8979 98.5534 53.8979C104.408 53.8979 109.287 50.3615 109.287 41.9132V21.6768H104.603L104.408 23.6415ZM98.7485 39.3591C95.2358 39.3591 92.6988 36.4121 92.6988 32.4827C92.6988 28.3568 95.2358 25.6062 98.7485 25.6062C102.066 25.6062 104.798 28.5533 104.798 32.4827C104.798 36.4121 102.066 39.3591 98.7485 39.3591Z" fill="#52606D"/>
<path d="M73.9593 21.0874C67.7146 21.0874 62.6406 25.8027 62.6406 32.4827C62.6406 38.9662 67.7146 43.878 73.9593 43.878C80.2041 43.878 85.278 38.9662 85.278 32.4827C85.278 25.8027 80.2041 21.0874 73.9593 21.0874ZM73.9593 39.3591C70.4466 39.3591 67.5194 36.6086 67.5194 32.4827C67.5194 28.3568 70.4466 25.6062 73.9593 25.6062C77.4721 25.6062 80.3992 28.3568 80.3992 32.4827C80.3992 36.6086 77.4721 39.3591 73.9593 39.3591Z" fill="#52606D"/>
<path d="M112.992 9.29834H117.871V43.8771H112.992V9.29834Z" fill="#52606D"/>
<path d="M133.092 39.3593C130.555 39.3593 128.799 38.1805 127.628 35.8229L142.849 29.5358L142.264 28.1606C141.289 25.6063 138.361 20.8911 132.507 20.8911C126.652 20.8911 121.773 25.6063 121.773 32.2864C121.773 38.77 126.652 43.6817 133.092 43.6817C138.361 43.6817 141.289 40.5382 142.46 38.5734L138.557 36.0193C137.386 38.1805 135.629 39.3593 133.092 39.3593ZM132.702 25.4099C134.653 25.4099 136.41 26.3922 136.996 27.964L126.652 32.0899C126.652 27.3747 130.165 25.4099 132.702 25.4099Z" fill="#52606D"/>
</g>
<defs>
<clipPath id="clip0_333_25353">
<rect width="144" height="46.1887" fill="white" transform="translate(0 8.90576)"/>
</clipPath>
</defs>
</svg>
