<svg width="144" height="64" viewBox="0 0 144 64" fill="none" xmlns="http://www.w3.org/2000/svg">
<g clip-path="url(#clip0_333_25440)">
<path fill-rule="evenodd" clip-rule="evenodd" d="M82.5039 24.1019H78.3634L72.5611 40.0187H76.7016L82.5039 24.1019ZM66.7589 58.0649C66.5018 58.0649 66.2447 58.0558 65.9877 58.0558L71.3033 43.4517H78.6113C79.8965 43.4517 81.3104 42.4696 81.742 41.2578L87.5074 25.4237C88.4531 22.8261 86.9658 20.7148 84.2024 20.7148H74.0667L65.5561 44.1035L60.7271 57.3582C49.2786 54.6319 40.7588 44.342 40.7588 32.0603C40.7588 20.1274 48.792 10.0761 59.7447 7.01947L54.7596 20.7056L46.4784 43.4425H51.9869L59.0286 24.1203H63.1692L56.1275 43.4425H61.6359L68.2094 25.4146C69.1551 22.8168 67.6678 20.7056 64.9135 20.7056H60.2772L65.5929 6.0832C65.9877 6.06484 66.3732 6.05566 66.7589 6.05566C81.1269 6.05566 92.7681 17.6949 92.7681 32.0603C92.7681 46.4166 81.1269 58.0649 66.7589 58.0649Z" fill="#52606D"/>
</g>
<defs>
<clipPath id="clip0_333_25440">
<rect width="62.8148" height="64" fill="white" transform="translate(40.5928)"/>
</clipPath>
</defs>
</svg>
