<svg width="160" height="64" viewBox="0 0 160 64" fill="none" xmlns="http://www.w3.org/2000/svg">
<g clip-path="url(#clip0_333_25499)">
<path d="M0 37.6689L10.067 31.9998L20.134 37.6689L10.067 43.3357L0 37.6689Z" fill="black"/>
<path d="M5.03236 23.498L0 26.3302L5.03462 29.1647L10.067 26.3302L5.03236 23.498Z" fill="black"/>
<path d="M10.0613 20.664L5.03125 23.4962L10.0636 26.3308L15.096 23.4985L10.0613 20.664Z" fill="black"/>
<path d="M15.1027 23.498L10.0703 26.3302L15.1027 29.1647L20.135 26.3302L15.1027 23.498Z" fill="black"/>
<path d="M30.2656 40.3363V23.4765H33.0594V40.3363H30.2656Z" fill="black"/>
<path d="M37.9766 40.3363V23.4765H40.7703L44.3118 33.8992V23.4765H46.8653V40.3363H44.2143L40.5301 29.3766V40.3363H37.9766Z" fill="black"/>
<path d="M71.5326 25.9326H68.714V40.3363H65.9202V25.9326H63.1016V23.4765H71.5326V25.9326Z" fill="black"/>
<path d="M81.718 40.3363L79.5723 33.616H78.1675V40.3363H75.3828V23.4765H79.7536C82.3071 23.4765 83.9929 24.487 83.9929 27.0406V30.0518C83.9929 31.6651 83.3131 32.6779 82.1621 33.1832L84.5707 40.3363H81.718ZM78.1675 31.2074H79.6357C80.5421 31.2074 81.1788 30.8698 81.1788 29.6667V27.4734C81.1788 26.2702 80.5511 25.9326 79.6357 25.9326H78.1675V31.2074Z" fill="black"/>
<path d="M97.0177 36.9648C97.0177 39.566 95.3795 40.5289 92.826 40.5289H92.7308C90.1772 40.5289 88.5391 39.5909 88.5391 36.9648V23.4765H91.3328V36.5253C91.3328 37.7284 91.863 38.066 92.7784 38.066C93.6938 38.066 94.224 37.7284 94.224 36.5253V23.4765H97.0177V36.9648Z" fill="black"/>
<path d="M110.214 36.9641C110.214 39.5652 108.528 40.5282 105.974 40.5282H105.927C103.373 40.5282 101.688 39.5901 101.688 36.9641V26.8472C101.688 24.3412 103.373 23.2831 105.927 23.2831H105.974C108.528 23.2831 110.214 24.3412 110.214 26.8472V28.7981H107.42V27.28C107.42 26.0995 106.842 25.7392 105.949 25.7392C105.057 25.7392 104.481 26.0995 104.481 27.28V36.5245C104.481 37.7027 105.059 38.0652 105.949 38.0652C106.84 38.0652 107.42 37.7027 107.42 36.5245V34.6031H110.214V36.9641Z" fill="black"/>
<path d="M122.212 25.9326H119.394V40.3363H116.6V25.9326H113.781V23.4765H122.212V25.9326Z" fill="black"/>
<path d="M134.494 36.9648C134.494 39.566 132.856 40.5289 130.303 40.5289H130.205C127.654 40.5289 126.016 39.5909 126.016 36.9648V23.4765H128.809V36.5253C128.809 37.7284 129.34 38.066 130.255 38.066C131.17 38.066 131.701 37.7284 131.701 36.5253V23.4765H134.494V36.9648Z" fill="black"/>
<path d="M145.601 40.3363L143.455 33.616H142.066V40.3363H139.266V23.4765H143.625C146.179 23.4765 147.864 24.487 147.864 27.0406V30.0518C147.864 31.6651 147.185 32.6779 146.034 33.1832L148.442 40.3363H145.601ZM142.066 31.2074H143.534C144.441 31.2074 145.077 30.8698 145.077 29.6667V27.4734C145.077 26.2702 144.45 25.9326 143.534 25.9326H142.066V31.2074Z" fill="black"/>
<path d="M56.9312 28.3676V27.1372C56.9312 26.0769 56.3308 25.6917 55.5106 25.6917C54.6903 25.6917 54.0899 26.0769 54.0899 27.1372V28.2928C54.0899 29.1606 54.3777 29.5458 55.173 30.0035L57.1487 31.1115C58.762 32.0178 59.7272 32.7723 59.7272 34.5804V37.0116C59.7272 39.6128 58.1117 40.5282 55.5582 40.5282H55.5106C52.957 40.5282 51.3438 39.6377 51.3438 37.0116V35.199H54.0899V36.6197C54.0899 37.6551 54.6926 38.1128 55.5355 38.1128C56.3784 38.1128 56.9811 37.6597 56.9811 36.6197V35.301C56.9811 34.4354 56.716 34.0004 55.8731 33.5427L53.9245 32.446C52.2863 31.508 51.346 30.7376 51.346 28.9771V26.7498C51.346 24.2574 53.1768 23.2831 55.4902 23.2831H55.5378C57.8489 23.2831 59.6797 24.2461 59.6797 26.7498V28.3676H56.9312Z" fill="black"/>
<path d="M152.539 40.3273V23.4765H159.93V25.9303H155.333V30.5526H159.182V33.0087H155.333V37.8711H160.003V40.3273H152.539Z" fill="black"/>
</g>
<defs>
<clipPath id="clip0_333_25499">
<rect width="160" height="22.6717" fill="white" transform="translate(0 20.664)"/>
</clipPath>
</defs>
</svg>
