<svg xmlns="http://www.w3.org/2000/svg" xmlns:xlink="http://www.w3.org/1999/xlink" id="Layer_1" enable-background="new 0 0 512 512" height="40" viewBox="0 0 512 512" width="40"><linearGradient id="SVGID_1_" gradientUnits="userSpaceOnUse" x1="48.267" x2="463.733" y1="430.058" y2="14.592"><stop offset="0" stop-color="#294074"/><stop offset="1" stop-color="#f494be"/></linearGradient><path clip-rule="evenodd" d="m46 29.252h420c16.523 0 30 13.476 30 30v51.116h-480v-51.116c0-16.523 13.477-30 30-30zm306.045 341.571v-73.764h-263.601c-7.843 0-14.254 6.41-14.254 14.254v45.257c0 7.843 6.413 14.254 14.254 14.254h263.601zm12-73.765v73.764h59.511c7.84 0 14.254-6.413 14.254-14.254v-45.257c0-7.841-6.412-14.254-14.254-14.254h-59.511zm33.153 21.177c6.616 0 11.976 5.36 11.976 11.976s-5.36 11.976-11.976 11.976-11.976-5.36-11.976-11.976 5.36-11.976 11.976-11.976zm20.66 24.152 9.018 9.018c2.342 2.342 2.342 6.142 0 8.484-2.343 2.342-6.142 2.342-8.484 0l-9.018-9.018c-15.772 9.311-36.152-1.965-36.152-20.66 0-13.24 10.736-23.976 23.976-23.976 18.694 0 29.971 20.379 20.66 36.152zm-155.858-157.253v64.88c18.41-.362 36.173-2.382 52.99-5.85-10.299-27.155-28.468-54.922-52.99-59.03zm64.759 56.331c-7.203-19.479-17.634-38.412-31.723-51.68 26.058 7.039 49.318 20.963 67.669 39.717-11.311 4.754-23.339 8.774-35.946 11.963zm44.403-2.564c-12.678 5.581-26.261 10.27-40.563 13.937 3.099 10.086 5.638 20.88 7.536 32.22h58.987c-5.882-16.986-14.743-32.581-25.96-46.157zm-33.027 143.922c-1.898 11.341-4.437 22.134-7.536 32.221 14.302 3.668 27.885 8.357 40.563 13.938 11.217-13.577 20.078-29.172 25.96-46.158h-58.987zm24.571 55.557c-18.372 18.762-41.589 32.672-67.669 39.717 14.087-13.266 24.521-32.202 31.723-51.68 12.606 3.189 24.634 7.209 35.946 11.963zm-145.743 39.717c-14.088-13.267-24.519-32.201-31.722-51.68-12.607 3.189-24.636 7.209-35.947 11.963 18.351 18.755 41.611 32.678 67.669 39.717zm-76.126-49.116c-11.217-13.577-20.078-29.172-25.961-46.158h58.988c1.898 11.341 4.437 22.134 7.536 32.221-14.302 3.667-27.884 8.357-40.563 13.937zm33.028-143.923c1.898-11.341 4.437-22.134 7.536-32.22-14.302-3.668-27.885-8.357-40.563-13.937-11.217 13.577-20.078 29.172-25.96 46.158h58.987zm-24.571-55.556c18.372-18.762 41.59-32.672 67.669-39.717-14.087 13.266-24.521 32.202-31.722 51.68-12.608-3.189-24.636-7.209-35.947-11.963zm169.623 26.069c-18.194 3.845-37.16 6.067-56.917 6.445v23.043h63.981c-1.815-10.392-4.193-20.267-7.064-29.488zm-56.917 127.252v23.043c19.755.378 38.725 2.6 56.917 6.445 2.871-9.222 5.249-19.097 7.064-29.488zm52.99 40.895c-16.816-3.468-34.58-5.488-52.99-5.85v64.88c24.52-4.108 42.692-31.876 52.99-59.03zm-64.99 59.03c-24.522-4.108-42.692-31.875-52.99-59.03 16.816-3.468 34.58-5.488 52.99-5.85zm-56.918-70.437c18.192-3.845 37.162-6.067 56.917-6.445v-23.043h-63.982c1.816 10.391 4.194 20.267 7.065 29.488zm56.918-127.253v-23.043c-19.757-.378-38.724-2.599-56.917-6.445-2.871 9.221-5.249 19.096-7.064 29.487h63.981zm-52.99-40.894c16.816 3.468 34.58 5.488 52.99 5.85v-64.88c-24.522 4.108-42.692 31.875-52.99 59.03zm136.053-158.252h115.3c7.236 0 13.102-5.866 13.102-13.102s-5.866-13.102-13.102-13.102h-115.3c-7.236 0-13.102 5.866-13.102 13.102s5.866 13.102 13.102 13.102zm-154.126-26.204c-7.236 0-13.102 5.866-13.102 13.102s5.866 13.102 13.102 13.102 13.102-5.866 13.102-13.102-5.866-13.102-13.102-13.102zm-57.649 0c-7.236 0-13.102 5.866-13.102 13.102s5.866 13.102 13.102 13.102 13.102-5.866 13.102-13.102-5.866-13.102-13.102-13.102zm-57.65 0c-7.236 0-13.102 5.866-13.102 13.102s5.866 13.102 13.102 13.102 13.102-5.866 13.102-13.102-5.866-13.102-13.102-13.102zm432.362 62.66v263.03c0 16.523-13.477 30-30 30h-70.74c5.977-10.197 10.866-21.108 14.509-32.574h13.787c14.464 0 26.254-11.79 26.254-26.254v-45.257c0-14.464-11.788-26.254-26.254-26.254h-13.788c-20.963-65.998-82.558-112.429-153.768-112.429-71.209 0-132.805 46.431-153.768 112.428h-13.788c-14.467 0-26.254 11.787-26.254 26.254v45.257c0 14.466 11.789 26.254 26.254 26.254h13.787c3.643 11.466 8.531 22.378 14.508 32.574h-70.739c-16.523 0-30-13.477-30-30v-263.03h480z" fill="url(#SVGID_1_)" fill-rule="evenodd"/></svg>