<svg width="144" height="64" viewBox="0 0 144 64" fill="none" xmlns="http://www.w3.org/2000/svg">
<g clip-path="url(#clip0_333_25414)">
<path d="M43.5137 63.3263C40.7562 62.9724 39.3094 59.6476 39.792 54.7735C40.3138 49.5029 42.128 44.1307 44.8358 39.8374C45.4455 38.8707 45.4455 38.8707 44.1456 37.467C41.6665 34.7899 40.3167 32.927 39.182 30.6164C37.7222 27.6441 37.0974 24.7886 37.0909 21.0595C37.0848 17.6371 37.7163 14.9569 39.2491 11.8988C41.787 6.83553 46.8258 2.33946 51.4538 1.0088C52.5326 0.698606 53.7297 0.64745 53.9827 0.900718C54.2269 1.14497 54.1663 2.01553 53.7582 4.12453C52.9385 8.36057 52.7539 10.268 52.7615 14.4241C52.7683 18.2082 52.8305 19.091 53.5516 25.634C53.7959 27.8505 53.9957 29.8225 53.9957 30.0164C53.9957 30.2103 54.0185 30.3689 54.0463 30.3689C54.0742 30.3689 54.4655 30.1724 54.9159 29.9325C57.5354 28.5371 60.5062 27.7996 63.5235 27.7957C67.131 27.7912 70.0437 28.7487 71.909 30.5527C72.4438 31.07 72.4805 31.0892 72.4805 30.852C72.4805 29.9402 71.7 27.9975 70.7994 26.6675C70.5215 26.257 70.2941 25.8332 70.2941 25.7257C70.2941 25.4168 70.5577 25.2256 71.8334 24.6088C73.2978 23.9006 73.7274 23.8522 74.1039 24.3524C75.0141 25.5622 75.5662 28.0564 75.7266 31.6827C75.7829 32.9557 75.8117 33.1394 75.9495 33.0993C76.0367 33.074 76.4434 32.9867 76.8532 32.9052C79.0616 32.4668 79.5303 32.4123 81.1514 32.4058C82.0669 32.4021 82.816 32.397 82.816 32.3944C82.816 32.3918 82.4887 31.7428 82.0885 30.952C80.4263 27.6668 79.7496 24.4362 79.8638 20.3297C79.9088 18.7102 79.9681 18.1038 80.1798 17.0982C81.2835 11.8565 84.4108 7.08809 88.9617 3.70789C91.3277 1.95042 94.0751 0.772815 95.8731 0.745544C97.0841 0.727175 97.1318 0.965695 96.5273 4.01623C95.3909 9.75157 95.1878 14.3392 95.7885 20.7129C95.9944 22.8974 96.6447 28.9108 96.692 29.0693C96.7195 29.1609 96.9039 29.0464 97.2529 28.7209C99.2938 26.8179 103.059 24.0264 104.531 23.3246C105.333 22.9423 105.973 22.9337 106.263 23.3012C106.531 23.6405 106.526 24.1298 106.251 24.478C106.131 24.6298 105.528 25.0811 104.91 25.4808C102.427 27.0871 100.168 28.8673 98.1425 30.8145C96.9062 32.0028 96.9062 32.003 97.0141 33.3612C97.2601 36.4579 97.3636 40.5984 97.2428 42.5218C96.8461 48.846 94.9373 55.3094 92.2456 59.4429C91.2803 60.9253 89.8181 62.3769 88.779 62.8847C87.0747 63.7173 85.2179 63.433 84.0872 62.1663C81.6128 59.3944 82.0342 52.1013 85.0717 45.1251C85.8745 43.2814 87.1998 40.8168 88.235 39.2425C88.3827 39.0177 88.354 38.9778 87.0807 37.6425C86.3627 36.8894 85.4202 35.8412 84.9867 35.3132C84.106 34.241 84.1956 34.2849 82.5726 34.129C80.9866 33.9766 78.6611 34.2695 76.3563 34.9119C75.7636 35.0772 75.7083 35.1157 75.6849 35.3796C75.5395 37.0207 75.105 38.8781 74.7092 39.5511C74.3979 40.0803 73.9469 40.3382 73.6045 40.1827C73.1891 39.9941 73.0617 39.4773 72.9466 37.5155C72.8401 35.6995 72.8401 35.6995 72.5402 35.7593C69.6807 36.3292 66.0801 36.1723 63.6818 35.3731C61.9857 34.8079 60.7117 33.8335 60.1301 32.6562C59.8457 32.0805 59.8101 31.9156 59.8152 31.1995C59.8209 30.392 59.8209 30.392 59.1195 30.5846C57.6704 30.9825 56.0782 31.6951 54.7702 32.5311C54.3342 32.8098 54.2124 32.9395 54.244 33.092C54.2877 33.3038 54.451 36.6499 54.5413 39.1829C54.8317 47.3342 51.9462 57.1559 48.0476 61.2856C46.5167 62.9073 45.1262 63.5332 43.5137 63.3263ZM46.2257 59.2462C46.9312 58.8891 47.5738 58.271 48.174 57.372C50.6504 53.6631 51.3333 47.344 50.1608 38.9849C50.0194 37.9772 49.8677 37.115 49.8234 37.0691C49.7793 37.023 49.4183 37.4018 49.0211 37.9109C46.4203 41.2444 44.4414 45.3208 43.3691 49.5533C42.821 51.7171 42.6358 53.1057 42.6257 55.1276C42.6175 56.7825 42.6389 57.0305 42.847 57.6907C43.116 58.544 43.6688 59.2071 44.3061 59.4409C44.8276 59.6321 45.6225 59.5516 46.2257 59.2462ZM88.9646 59.2627C89.6138 58.9628 90.6515 57.8935 91.1994 56.9597C91.8213 55.9002 92.3924 54.4166 92.7502 52.9313C93.7135 48.9328 93.7443 44.4418 92.8489 38.5496C92.7422 37.8471 92.6548 37.2289 92.6548 37.1757C92.6548 36.6465 89.8522 40.9618 88.5856 43.4415C86.3536 47.811 85.1514 52.3472 85.3341 55.7112C85.4329 57.531 85.8042 58.5839 86.5464 59.1479C87.1815 59.6307 88.0757 59.6731 88.9646 59.2627ZM90.8163 35.6059C91.3081 34.9521 91.7941 34.3134 91.896 34.1864C92.0781 33.9594 92.0736 33.912 91.6263 31.3452C90.3527 24.0367 90.1934 20.8006 90.8734 16.0582C91.362 12.651 92.1633 9.94789 94.2863 4.54453C94.5914 3.76785 94.8412 3.04665 94.8412 2.94188C94.8412 2.65791 94.5198 2.60811 93.8276 2.78482C90.9046 3.53107 87.5535 7.72165 85.9062 12.691C84.9442 15.593 84.5988 17.8099 84.6006 21.0725C84.6036 26.5161 85.5856 30.3074 88.0183 34.267C88.7047 35.3843 89.7338 36.8092 89.848 36.8004C89.8886 36.7973 90.3243 36.2598 90.8163 35.6059ZM48.6697 34.8499C49.3588 34.1317 49.3588 34.1317 48.8975 31.4827C47.9539 26.0632 47.7868 24.5244 47.7868 21.2576C47.7868 15.9063 48.5715 12.174 51.0143 5.90716C52.1247 3.05862 52.1596 2.94553 51.9823 2.76902C51.8559 2.64295 51.7469 2.63785 51.2732 2.73584C48.8978 3.22729 46.1629 6.05075 44.2684 9.96768C42.3804 13.8712 41.5674 18.2433 41.8662 22.8856C42.123 26.8753 42.8165 29.6059 44.3285 32.5797C44.9456 33.7934 46.0246 35.5276 46.674 36.3496C46.9784 36.7348 46.9784 36.7348 47.4795 36.1514C47.7551 35.8306 48.2907 35.245 48.6697 34.8499ZM72.1575 33.6852C72.2805 33.646 72.3811 33.5754 72.3811 33.5283C72.3811 33.3537 71.022 32.0144 70.4563 31.6315C69.6973 31.1179 68.6229 30.6313 67.8033 30.43C66.9867 30.2295 65.6361 30.2204 65.1751 30.4124C64.1593 30.8353 64.2272 32.2702 65.2948 32.9466C65.7868 33.2583 66.7331 33.586 67.577 33.7369C68.1257 33.835 71.8187 33.7934 72.1575 33.6852Z" fill="#52606D"/>
</g>
<defs>
<clipPath id="clip0_333_25414">
<rect width="69.8182" height="64" fill="white" transform="translate(37.0908)"/>
</clipPath>
</defs>
</svg>
