<svg width="37" height="37" viewBox="0 0 37 37" fill="none" xmlns="http://www.w3.org/2000/svg">
<path opacity="0.1" fill-rule="evenodd" clip-rule="evenodd" d="M18.5 36C28.165 36 36 28.165 36 18.5C36 8.83502 28.165 1 18.5 1C8.83502 1 1 8.83502 1 18.5C1 28.165 8.83502 36 18.5 36Z" stroke="#272829" stroke-width="1.5"/>
<path d="M14.4835 14.9671C15.3029 14.9671 15.9671 14.3029 15.9671 13.4835C15.9671 12.6642 15.3029 12 14.4835 12C13.6642 12 13 12.6642 13 13.4835C13 14.3029 13.6642 14.9671 14.4835 14.9671Z" fill="#272829"/>
<path d="M15.7198 15.957H13.2473C13.1108 15.957 13 16.0678 13 16.2043V23.622C13 23.7585 13.1108 23.8693 13.2473 23.8693H15.7198C15.8563 23.8693 15.9671 23.7585 15.9671 23.622V16.2043C15.9671 16.0678 15.8563 15.957 15.7198 15.957Z" fill="#272829"/>
<path d="M23.0836 15.5444C22.0269 15.1825 20.705 15.5004 19.9123 16.0706C19.8851 15.9643 19.7882 15.8852 19.673 15.8852H17.2004C17.0639 15.8852 16.9531 15.9959 16.9531 16.1324V23.5502C16.9531 23.6867 17.0639 23.7974 17.2004 23.7974H19.673C19.8095 23.7974 19.9202 23.6867 19.9202 23.5502V18.2193C20.3198 17.8751 20.8346 17.7653 21.2559 17.9443C21.6644 18.1169 21.8983 18.5383 21.8983 19.0995V23.5502C21.8983 23.6867 22.0091 23.7974 22.1456 23.7974H24.6181C24.7546 23.7974 24.8654 23.6867 24.8654 23.5502V18.6015C24.8372 16.5696 23.8813 15.8174 23.0836 15.5444Z" fill="#272829"/>
</svg>
