<svg width="144" height="64" viewBox="0 0 144 64" fill="none" xmlns="http://www.w3.org/2000/svg">
<path d="M91.4073 36.0066C88.9028 36.0066 86.865 33.9582 86.865 31.441C86.865 28.9237 88.9028 26.8754 91.4073 26.8754C93.9116 26.8754 95.9495 28.9237 95.9495 31.441C95.9495 33.9829 93.8871 36.0066 91.4073 36.0066ZM91.4073 24.1606C87.4051 24.1606 84.1641 27.4182 84.1641 31.441C84.1641 35.4636 87.4051 38.7212 91.4073 38.7212C95.4093 38.7212 98.6503 35.4636 98.6503 31.441C98.6503 27.4429 95.4093 24.1606 91.4073 24.1606Z" fill="#52606D"/>
<path d="M82.5468 36.3765H83.136V39.1159H82.5468C79.4285 39.1159 76.875 36.5493 76.875 33.415V20.9028H79.6004V24.5553H83.1115V27.2947H79.6004V33.4397C79.6004 35.0438 80.9262 36.3765 82.5468 36.3765Z" fill="#52606D"/>
<path d="M115.743 36.0066C113.239 36.0066 111.201 33.9582 111.201 31.441C111.201 28.9237 113.239 26.8754 115.743 26.8754C118.248 26.8754 120.286 28.9237 120.286 31.441C120.261 33.9829 118.223 36.0066 115.743 36.0066ZM115.743 24.1606C111.741 24.1606 108.5 27.4182 108.5 31.441C108.5 35.4636 111.741 38.7212 115.743 38.7212C119.745 38.7212 122.986 35.4636 122.986 31.441C122.986 27.4429 119.745 24.1606 115.743 24.1606Z" fill="#52606D"/>
<path d="M136.587 36.0066C134.083 36.0066 132.045 33.9582 132.045 31.441C132.045 28.9237 134.083 26.8754 136.587 26.8754C139.092 26.8754 141.13 28.9237 141.13 31.441C141.13 33.9829 139.067 36.0066 136.587 36.0066ZM136.587 24.1606C132.585 24.1606 129.344 27.4182 129.344 31.441C129.344 35.4636 132.585 38.7212 136.587 38.7212C138.355 38.7212 139.976 38.0796 141.228 37.0183V38.4498H143.831V31.663C143.831 31.589 143.831 31.5149 143.831 31.441C143.831 27.4429 140.589 24.1606 136.587 24.1606Z" fill="#52606D"/>
<path d="M106.141 24.1606H107.442V26.9H106.141C104.52 26.9 103.194 28.2326 103.194 29.8615V31.6383V35.0194V38.5485H100.469V29.8615C100.469 26.7272 103.022 24.1606 106.141 24.1606Z" fill="#52606D"/>
<path d="M127.53 20.5317H124.805V38.498H127.53V20.5317Z" fill="#52606D"/>
<path d="M58.7585 30.2316V38.8939H56.0331V30.2316C56.0331 28.6028 54.7073 27.2701 53.0867 27.2701C51.4662 27.2701 50.1404 28.6028 50.1404 30.2316V38.8939H47.4149V30.2316C47.4149 28.6028 46.0891 27.2701 44.4686 27.2701C42.8481 27.2701 41.5222 28.6028 41.5222 30.2316V38.8939H38.7969V30.2316C38.7969 27.0973 41.3504 24.5308 44.4441 24.5308C46.1873 24.5308 47.7096 25.2958 48.7654 26.5298C49.8212 25.2958 51.3435 24.5308 53.0867 24.5308C56.205 24.5308 58.7585 27.0973 58.7585 30.2316Z" fill="#52606D"/>
<path d="M67.838 36.3766C65.3335 36.3766 63.2957 34.3283 63.2957 31.811C63.2957 29.2938 65.3335 27.2454 67.838 27.2454C70.3423 27.2454 72.3803 29.2938 72.3803 31.811C72.3803 34.3283 70.3179 36.3766 67.838 36.3766ZM67.838 24.5308C63.8112 24.5308 60.5703 27.7884 60.5703 31.811C60.5703 35.8337 63.8112 39.0914 67.8134 39.0914C71.8156 39.0914 75.0565 35.8337 75.0565 31.811C75.0811 27.8131 71.8401 24.5308 67.838 24.5308Z" fill="#52606D"/>
<path fill-rule="evenodd" clip-rule="evenodd" d="M0 31.8354C0 22.6796 7.36591 15.2759 16.4751 15.2759C25.6824 15.2759 32.9502 22.7289 32.9502 31.8354C32.9502 40.9913 25.5842 48.395 16.4751 48.395C7.36591 48.395 0 40.9913 0 31.8354ZM16.4985 35.6362L21.3846 19.3481L27.6701 40.2017H26.4915C26.4915 40.2017 25.7058 36.5739 24.4046 34.4023C23.717 33.2176 22.6122 32.2551 21.1635 32.2799C20.1323 32.3046 19.2485 32.8721 18.1435 34.4269C17.4806 35.3647 16.4494 37.7338 16.4494 37.7338C16.4494 37.7338 16.0566 36.7961 15.5901 35.883C15.5433 35.7969 15.4966 35.7102 15.4501 35.6238C15.2032 35.1656 14.9618 34.7176 14.7552 34.4269C13.6503 32.8721 12.7664 32.3046 11.7352 32.2799C10.2866 32.2552 9.20624 33.2176 8.49421 34.4023C7.19289 36.5739 6.40719 40.2017 6.40719 40.2017H5.22865L11.5387 19.3481L16.4248 35.6362L16.4739 35.6609L16.4985 35.6362Z" fill="#52606D"/>
</svg>
