<svg width="144" height="64" viewBox="0 0 144 64" fill="none" xmlns="http://www.w3.org/2000/svg">
<g clip-path="url(#clip0_333_25361)">
<mask id="mask0_333_25361" style="mask-type:luminance" maskUnits="userSpaceOnUse" x="0" y="21" width="144" height="22">
<path d="M143.558 21.0435H0.601562V42.2746H143.558V21.0435Z" fill="white"/>
</mask>
<g mask="url(#mask0_333_25361)">
<path d="M112.528 41.2277L107.603 34.0799C107.518 33.9525 107.575 33.7826 107.717 33.7261C110.533 32.8343 112.161 30.5414 112.161 27.569C112.161 23.7332 109.457 21.0581 105.013 21.0581H98.1196C96.8458 21.0581 95.8125 22.0914 95.8125 23.3652V41.3551C95.8125 41.4824 95.9115 41.5816 96.0389 41.5816H99.8747C100.002 41.5816 100.101 41.4824 100.101 41.3551V34.3346C100.101 34.2073 100.2 34.1082 100.328 34.1082H102.734C102.819 34.1082 102.89 34.1507 102.932 34.2073L107.56 41.4684C107.603 41.5391 107.674 41.5674 107.758 41.5674H112.344C112.528 41.5816 112.642 41.3834 112.528 41.2277ZM104.899 30.3291H100.342C100.214 30.3291 100.115 30.23 100.115 30.1026V25.4883C100.115 25.361 100.214 25.2619 100.342 25.2619H104.899C106.753 25.2619 107.717 26.1394 107.717 27.8096C107.717 29.4515 106.753 30.3291 104.899 30.3291Z" fill="#52606D"/>
<path d="M143.531 41.0863C143.588 41.1853 143.545 41.3269 143.446 41.3835C142.64 41.8647 141.719 42.2045 140.714 42.2045C137.756 42.2045 136.383 40.1804 136.383 37.3071V22.5444C136.383 22.4453 136.454 22.3462 136.553 22.3179L140.162 21.4545C140.304 21.4262 140.445 21.5253 140.445 21.681V37.3354C140.445 38.1422 140.842 38.6377 141.549 38.6377C141.706 38.6377 141.875 38.6093 142.059 38.5527C142.172 38.5243 142.286 38.5668 142.327 38.6659L143.531 41.0863Z" fill="#52606D"/>
<path d="M136.453 41.0858C136.509 41.1848 136.467 41.3264 136.368 41.383C135.561 41.8642 134.641 42.204 133.636 42.204C130.678 42.204 129.305 40.18 129.305 37.3066V24.2282C129.305 24.1292 129.376 24.0301 129.475 24.0018L133.07 23.1101C133.211 23.0676 133.353 23.1808 133.353 23.3365V37.3349C133.353 38.1417 133.735 38.6371 134.457 38.6371C134.613 38.6371 134.797 38.6088 134.967 38.5522C135.079 38.5239 135.193 38.5663 135.236 38.6655L136.453 41.0858Z" fill="#52606D"/>
<path d="M119.961 26.7056C115.347 26.7056 111.992 29.9044 111.992 34.4762C111.992 39.0762 115.347 42.2751 119.961 42.2751C124.575 42.2751 127.958 39.0762 127.958 34.4762C127.972 29.8619 124.589 26.7056 119.961 26.7056ZM119.961 38.3968C117.668 38.3968 116.139 36.7833 116.139 34.3771C116.139 31.9709 117.668 30.3573 119.961 30.3573C122.254 30.3573 123.782 31.9992 123.782 34.3771C123.797 36.7833 122.268 38.3968 119.961 38.3968Z" fill="#52606D"/>
<path d="M70.6225 35.7075H60.5165C60.3891 35.7075 60.2759 35.8208 60.2901 35.9482C60.3324 37.1229 61.1817 38.2836 62.8377 38.595C64.4089 38.8781 65.8243 38.5384 67.084 37.5334C67.1406 37.491 67.2114 37.4485 67.2256 37.4202C67.9615 38.1562 68.6976 38.8922 69.4336 39.6282C69.5327 39.7273 69.5185 39.8688 69.4195 39.968C68.9807 40.3784 68.457 40.7181 67.8766 40.987C65.3714 42.1902 62.7953 42.2751 60.2051 41.2701C58.5632 40.6332 57.445 39.416 56.8506 37.7882C55.9447 35.283 55.874 33.1173 56.8223 30.6121C57.7706 28.0926 59.6955 26.7905 62.3141 26.4224C63.4889 26.2526 64.6495 26.3092 65.796 26.6064C68.3862 27.3 69.8723 29.0551 70.5518 31.5745C70.8915 32.8342 70.9198 34.1223 70.849 35.4811C70.849 35.6084 70.7499 35.7075 70.6225 35.7075ZM66.801 32.8626C66.9283 32.8626 67.0274 32.7635 67.0274 32.6361C67.0415 31.0084 65.5271 29.6071 63.6445 29.5647C61.8329 29.5222 60.2617 30.9376 60.1909 32.6361C60.1909 32.7635 60.2901 32.8767 60.4174 32.8767H66.801V32.8626Z" fill="#52606D"/>
<path d="M85.8261 41.2128C85.9393 41.3685 85.8261 41.5808 85.6421 41.5808C84.1984 41.5808 82.8255 41.5808 81.4525 41.5666C81.3392 41.5666 81.1977 41.4251 81.1128 41.3119C80.1361 39.9814 79.1595 38.651 78.197 37.3062C78.1687 37.2639 78.1263 37.2072 78.0838 37.1647C77.9848 37.0515 77.8149 37.0515 77.7158 37.1647C77.5318 37.4195 77.3619 37.646 77.1779 37.8866C76.3429 39.0189 75.5219 40.1654 74.6727 41.2977C74.5877 41.411 74.3896 41.5384 74.2481 41.5526C72.7901 41.5666 71.3323 41.5666 69.8886 41.5666C69.8462 41.5666 69.8178 41.5526 69.7188 41.5242C71.6578 38.9906 73.5829 37.009 75.5078 34.5038C75.5644 34.4188 75.5785 34.3056 75.5078 34.2207C73.7668 31.9419 72.0259 29.5215 70.2566 27.2002C70.1433 27.0445 70.2425 26.8322 70.4406 26.8322C70.4972 26.8322 70.5679 26.8322 70.6388 26.8464C71.7993 26.9596 72.9742 26.9879 74.1349 26.8464C74.6019 26.7898 74.8284 26.8464 75.0265 27.1295C75.8758 28.3326 76.7534 29.7055 77.6309 30.8945C77.6592 30.9369 77.6875 30.9794 77.7299 31.0218C77.8291 31.1351 77.9989 31.1351 78.098 31.0218C78.1121 31.0077 78.1263 30.9794 78.1405 30.9652C79.0321 29.748 79.9239 28.3609 80.7872 27.1295C80.9996 26.8322 81.2402 26.7898 81.7355 26.8605C82.8113 27.0021 83.9012 27.0162 84.9769 26.8605C85.1184 26.8464 85.2316 26.8322 85.359 26.8322C85.543 26.8322 85.6421 27.0445 85.543 27.2002C85.543 27.2002 85.543 27.2144 85.5289 27.2144C83.8303 29.4224 82.1461 31.8286 80.4334 34.0225C80.2352 34.2773 80.221 34.433 80.4192 34.7019C82.231 37.0373 84.0144 38.8207 85.812 41.1703C85.812 41.1986 85.812 41.2128 85.8261 41.2128Z" fill="#52606D"/>
<path d="M90.1415 22.416C90.2689 22.416 90.368 22.5151 90.368 22.6425C90.368 23.2794 90.368 23.2936 90.368 24.0296C90.368 24.7656 90.368 26.1102 90.368 26.9736C90.368 27.101 90.4671 27.2001 90.5945 27.2001H94.1754C94.3028 27.2001 94.4019 27.2992 94.4019 27.4266V30.1442C94.4019 30.2715 94.3028 30.3706 94.1754 30.3706H90.6086C90.4813 30.3706 90.3822 30.4697 90.3822 30.5829C90.3822 30.6112 90.3822 30.6537 90.3822 30.682C90.3822 32.9042 90.368 34.3904 90.3822 36.6126C90.3963 37.9997 90.9484 38.6367 92.1373 38.5942C92.1373 38.5942 92.5052 38.6649 93.0007 38.1837C93.0998 38.0847 93.2555 38.0987 93.3403 38.212L94.9822 40.3351C95.053 40.4342 95.0389 40.5758 94.9398 40.6465C93.0431 42.1327 91.189 41.9487 91.0474 41.9346H91.0333C90.3822 41.9346 89.7452 41.8496 89.0941 41.6515C87.6645 41.2127 86.9286 40.1511 86.7021 38.7215C86.6313 38.2686 86.6172 37.8156 86.6172 37.3628C86.6172 34.9424 86.6172 32.5221 86.6313 30.1158C86.6313 29.9743 86.6313 29.6346 86.6313 29.6346V26.4924L86.6172 24.1287C86.6172 23.1803 87.3815 22.4019 88.3298 22.4019H90.1415V22.416Z" fill="#52606D"/>
<path d="M54.7853 41.3551V41.072C54.7713 34.5752 54.7713 28.0785 54.7853 21.5818V21.0581H50.7797V21.3695C50.7797 21.3978 50.7797 21.4261 50.7797 21.4686C50.7939 25.8705 50.7939 30.2866 50.7939 34.6885C50.7939 34.8159 50.7939 34.9433 50.7939 35.0565C50.7657 35.0707 50.7373 35.0707 50.709 35.0848C50.6382 34.9858 50.5675 34.8725 50.4966 34.7734C47.3969 30.3149 44.3113 25.8422 41.2116 21.3836C41.0984 21.2138 40.9993 21.0723 40.7303 21.0723H39.3149C38.0411 21.0723 37.0078 22.1055 37.0078 23.3794V23.5917V30.6121V37.0381V41.072V41.3551V41.5816H37.2342H37.2484H41.0418H41.0559H41.2823V41.44V41.3551V41.072V34.3346V27.9087C44.4245 32.4239 47.6517 37.0664 50.7797 41.5816C50.7797 41.5816 50.8647 41.5816 51.1336 41.5816C52.266 41.5674 53.4124 41.5674 54.5447 41.5816H54.7995V41.3551C54.7853 41.3551 54.7853 41.3551 54.7853 41.3551Z" fill="#52606D"/>
<path d="M16.525 36.2163H7.55123H5.0318C2.58314 36.2163 0.601562 38.2403 0.601562 40.7314V41.5807H16.525V36.2163Z" fill="#52606D"/>
<path d="M16.4566 21.0435V21.0576C10.8233 21.1001 6.26562 25.6718 6.26562 31.3193C6.26562 36.981 10.8658 41.5811 16.5274 41.5811C22.189 41.5811 26.7891 36.981 26.7891 31.3193C26.7891 29.5501 26.3362 27.8799 25.5435 26.422H27.9497C30.3984 26.422 32.38 24.398 32.38 21.8927V21.0435H16.4566ZM16.5274 36.2167C13.8239 36.2167 11.63 34.0228 11.63 31.3193C11.63 28.6159 13.8239 26.422 16.5274 26.422C19.2308 26.422 21.4247 28.6159 21.4247 31.3193C21.4247 34.0228 19.2308 36.2167 16.5274 36.2167Z" fill="#52606D"/>
</g>
</g>
<defs>
<clipPath id="clip0_333_25361">
<rect width="144" height="21.913" fill="white" transform="translate(0 21.0435)"/>
</clipPath>
</defs>
</svg>
