<svg width="48" height="48" viewBox="0 0 48 48" fill="none" xmlns="http://www.w3.org/2000/svg">
<g clip-path="url(#clip0_333_25555)">
<path d="M48 24C48 10.7452 37.2548 0 24 0C10.7452 0 0 10.7452 0 24C0 37.2548 10.7452 48 24 48C37.2548 48 48 37.2548 48 24Z" fill="#272829"/>
<mask id="mask0_333_25555" style="mask-type:alpha" maskUnits="userSpaceOnUse" x="12" y="12" width="25" height="24">
<path d="M36.1352 12H12.625V36H36.1352V12Z" fill="#D9D9D9"/>
</mask>
<g mask="url(#mask0_333_25555)">
<path d="M24.8699 23.95C25.3433 23.4167 25.7068 22.8083 25.9602 22.125C26.2129 21.4417 26.3393 20.7333 26.3393 20C26.3393 19.2667 26.2129 18.5583 25.9602 17.875C25.7068 17.1917 25.3433 16.5833 24.8699 16.05C25.8495 16.1833 26.6658 16.625 27.3189 17.375C27.9719 18.125 28.2985 19 28.2985 20C28.2985 21 27.9719 21.875 27.3189 22.625C26.6658 23.375 25.8495 23.8167 24.8699 23.95ZM29.7923 32C29.9393 31.8833 30.0535 31.7373 30.1352 31.562C30.2168 31.3873 30.2577 31.1917 30.2577 30.975V29C30.2577 28.4 30.127 27.8293 29.8658 27.288C29.6046 26.746 29.2617 26.2667 28.8372 25.85C29.6699 26.15 30.4414 26.5373 31.152 27.012C31.8618 27.4873 32.2168 28.15 32.2168 29V31C32.2168 31.2833 32.1228 31.5207 31.9347 31.712C31.7472 31.904 31.5148 32 31.2372 32H29.7923ZM33.1964 25C32.9188 25 32.6864 24.904 32.499 24.712C32.3109 24.5207 32.2168 24.2833 32.2168 24V23H31.2372C30.9596 23 30.7272 22.904 30.5398 22.712C30.3517 22.5207 30.2577 22.2833 30.2577 22C30.2577 21.7167 30.3517 21.479 30.5398 21.287C30.7272 21.0957 30.9596 21 31.2372 21H32.2168V20C32.2168 19.7167 32.3109 19.479 32.499 19.287C32.6864 19.0957 32.9188 19 33.1964 19C33.4739 19 33.7064 19.0957 33.8939 19.287C34.082 19.479 34.176 19.7167 34.176 20V21H35.1556C35.4331 21 35.6656 21.0957 35.8531 21.287C36.0412 21.479 36.1352 21.7167 36.1352 22C36.1352 22.2833 36.0412 22.5207 35.8531 22.712C35.6656 22.904 35.4331 23 35.1556 23H34.176V24C34.176 24.2833 34.082 24.5207 33.8939 24.712C33.7064 24.904 33.4739 25 33.1964 25ZM20.4617 24C19.3842 24 18.4617 23.6083 17.6944 22.825C16.927 22.0417 16.5434 21.1 16.5434 20C16.5434 18.9 16.927 17.9583 17.6944 17.175C18.4617 16.3917 19.3842 16 20.4617 16C21.5393 16 22.4617 16.3917 23.2291 17.175C23.9964 17.9583 24.3801 18.9 24.3801 20C24.3801 21.1 23.9964 22.0417 23.2291 22.825C22.4617 23.6083 21.5393 24 20.4617 24ZM13.6046 32C13.327 32 13.0945 31.904 12.9071 31.712C12.719 31.5207 12.625 31.2833 12.625 31V29.2C12.625 28.6333 12.768 28.1123 13.0541 27.637C13.3394 27.1623 13.7188 26.8 14.1923 26.55C15.2046 26.0333 16.2331 25.6457 17.2781 25.387C18.3229 25.129 19.3842 25 20.4617 25C21.5393 25 22.6005 25.129 23.6454 25.387C24.6902 25.6457 25.7188 26.0333 26.7311 26.55C27.2046 26.8 27.584 27.1623 27.8694 27.637C28.1554 28.1123 28.2985 28.6333 28.2985 29.2V31C28.2985 31.2833 28.2047 31.5207 28.0173 31.712C27.8292 31.904 27.5964 32 27.3189 32H13.6046ZM20.4617 22C21.0005 22 21.4619 21.804 21.8459 21.412C22.2292 21.0207 22.4209 20.55 22.4209 20C22.4209 19.45 22.2292 18.9793 21.8459 18.588C21.4619 18.196 21.0005 18 20.4617 18C19.923 18 19.4619 18.196 19.0786 18.588C18.6946 18.9793 18.5026 19.45 18.5026 20C18.5026 20.55 18.6946 21.0207 19.0786 21.412C19.4619 21.804 19.923 22 20.4617 22ZM14.5842 30H26.3393V29.2C26.3393 29.0167 26.2945 28.85 26.2051 28.7C26.115 28.55 25.9964 28.4333 25.8495 28.35C24.9679 27.9 24.078 27.5623 23.1801 27.337C22.2821 27.1123 21.376 27 20.4617 27C19.5474 27 18.6413 27.1123 17.7434 27.337C16.8454 27.5623 15.9556 27.9 15.074 28.35C14.927 28.4333 14.8088 28.55 14.7194 28.7C14.6292 28.85 14.5842 29.0167 14.5842 29.2V30Z" fill="white"/>
</g>
</g>
<defs>
<clipPath id="clip0_333_25555">
<rect width="48" height="48" fill="white"/>
</clipPath>
</defs>
</svg>
