<svg width="48" height="48" viewBox="0 0 48 48" fill="none" xmlns="http://www.w3.org/2000/svg">
<g clip-path="url(#clip0_333_25562)">
<path d="M48 24C48 10.7452 37.2548 0 24 0C10.7452 0 0 10.7452 0 24C0 37.2548 10.7452 48 24 48C37.2548 48 48 37.2548 48 24Z" fill="#272829"/>
<mask id="mask0_333_25562" style="mask-type:alpha" maskUnits="userSpaceOnUse" x="12" y="12" width="25" height="24">
<path d="M36.1352 12H12.625V36H36.1352V12Z" fill="#D9D9D9"/>
</mask>
<g mask="url(#mask0_333_25562)">
<path d="M32.1666 33C30.0605 33 28.0075 32.5207 26.0079 31.562C24.0076 30.604 22.2361 29.3373 20.6936 27.762C19.1504 26.1873 17.9096 24.379 16.9712 22.337C16.032 20.2957 15.5625 18.2 15.5625 16.05C15.5625 15.75 15.6605 15.5 15.8564 15.3C16.0523 15.1 16.2972 15 16.5911 15H20.5584C20.787 15 20.991 15.075 21.1707 15.225C21.3502 15.375 21.4563 15.5667 21.489 15.8L22.1258 19.3C22.1584 19.5333 22.1545 19.7457 22.114 19.937C22.0729 20.129 21.9788 20.3 21.8319 20.45L19.4564 22.9C20.1421 24.1 21.0034 25.225 22.0405 26.275C23.0769 27.325 24.2155 28.2333 25.4564 29L27.7584 26.65C27.9054 26.5 28.0974 26.3873 28.3344 26.312C28.5708 26.2373 28.8033 26.2167 29.0319 26.25L32.4115 26.95C32.64 27 32.8278 27.1123 32.9747 27.287C33.1217 27.4623 33.1952 27.6667 33.1952 27.9V31.95C33.1952 32.25 33.0972 32.5 32.9013 32.7C32.7054 32.9 32.4605 33 32.1666 33ZM18.5258 21L20.1421 19.35L19.7258 17H17.5462C17.6278 17.6833 17.7421 18.3583 17.889 19.025C18.036 19.6917 18.2481 20.35 18.5258 21ZM31.236 30.95V28.75L28.9339 28.275L27.2931 29.95C27.9298 30.2333 28.5789 30.4583 29.2405 30.625C29.9014 30.7917 30.5665 30.9 31.236 30.95Z" fill="white"/>
</g>
</g>
<defs>
<clipPath id="clip0_333_25562">
<rect width="48" height="48" fill="white"/>
</clipPath>
</defs>
</svg>
