<svg width="144" height="64" viewBox="0 0 144 64" fill="none" xmlns="http://www.w3.org/2000/svg">
<g clip-path="url(#clip0_333_25377)">
<path d="M89.781 30.0669C89.4941 30.2841 89.2074 30.5014 88.9922 30.791C89.2791 30.5014 89.4941 30.2841 89.781 30.0669Z" fill="#52606D"/>
<path d="M88.4922 31.8765C88.6355 31.5144 88.7789 31.1524 88.9942 30.8628C88.7789 31.1524 88.6355 31.4421 88.4922 31.8765Z" fill="#52606D"/>
<path d="M61.1038 26.8071H56.5859V41.289H61.1038V26.8071Z" fill="#52606D"/>
<path d="M70.9938 26.3726C68.9859 26.3726 67.7668 27.1691 66.6194 28.7621H66.476V26.8071H62.1016L62.1732 41.1441H66.6911V33.1791C66.6911 31.5136 67.6233 30.2102 69.201 30.2102C70.707 30.2102 71.4241 31.1515 71.4241 32.7446V41.0717H75.9419V31.7308C75.9419 28.6173 73.0018 26.3726 70.9938 26.3726Z" fill="#52606D"/>
<path d="M58.8018 25.6498C60.2672 25.6498 61.4551 24.4503 61.4551 22.9707C61.4551 21.491 60.2672 20.2915 58.8018 20.2915C57.3364 20.2915 56.1484 21.491 56.1484 22.9707C56.1484 24.4503 57.3364 25.6498 58.8018 25.6498Z" fill="#52606D"/>
<path d="M107.853 26.6626H107.423C105.702 26.6626 104.483 27.3867 103.479 29.0521H103.335V26.8074H98.9609V41.2893H103.479V34.7724C103.479 31.8036 105.2 30.3555 107.71 30.645L107.853 26.6626Z" fill="#52606D"/>
<path d="M130.082 32.1665C128.29 31.8768 126.713 31.732 126.713 30.5734C126.713 29.415 127.573 29.2701 128.648 29.2701C129.796 29.2701 130.729 29.7045 130.872 31.0079H135.103C134.816 28.1839 132.736 26.3013 128.648 26.3013C124.561 26.3013 122.481 27.8943 122.481 31.0079C122.481 34.1215 125.134 35.1353 127.573 35.5698C129.94 36.0041 131.23 36.0041 131.23 37.3075C131.23 38.6109 130.369 38.7557 129.008 38.7557C127.573 38.7557 126.784 38.1765 126.497 37.0179H122.266C122.552 39.9867 125.207 41.8694 129.15 41.8694C133.095 41.8694 135.604 40.2763 135.604 37.0179C135.533 33.7594 132.593 32.6009 130.082 32.1665Z" fill="#52606D"/>
<path d="M119.685 28.257C118.035 26.6639 116.888 26.4468 114.737 26.4468C110.362 26.4468 107.422 29.7051 107.422 34.1221C107.422 38.5391 110.434 41.7251 115.024 41.7251C116.816 41.7251 118.251 41.2907 119.541 40.4217C120.76 39.6253 121.549 38.3942 121.907 37.0185H117.39C117.175 37.8874 116.314 38.3219 115.166 38.3219C113.374 38.3219 112.227 37.0185 111.94 35.2082H122.194C122.194 32.2394 121.334 29.8499 119.685 28.257ZM111.94 32.4567C112.011 32.0223 112.083 31.6601 112.298 31.2981C112.729 30.2844 113.589 29.6327 114.88 29.6327C116.458 29.6327 117.39 30.7913 117.533 32.4567H111.94Z" fill="#52606D"/>
<path d="M143.638 29.6314V26.8074H141.272V22.2456H136.755V26.8074H135.32V29.6314H136.755V37.4516C136.755 40.5652 138.547 41.4342 141.272 41.4342H143.495L143.567 37.8861H142.85C141.846 37.8861 141.272 37.5964 141.272 36.4378V29.6314H143.638Z" fill="#52606D"/>
<path d="M83.4033 37.8861C82.3993 37.8861 81.8256 37.5964 81.8256 36.4378V29.6314H83.9053V26.8074H81.8256V22.2456H77.3795V26.8074H75.9453V29.6314H77.523V37.4516C77.523 40.5652 79.3157 41.4342 82.0408 41.4342H84.1204L83.977 37.8861H83.4033Z" fill="#52606D"/>
<path d="M96.0909 28.1828C94.8001 27.0966 93.0791 26.3726 91.1428 26.3726C86.7683 26.3726 83.8281 29.7758 83.8281 34.048C83.8281 38.3201 86.6249 41.7234 91.4296 41.5062C93.2941 41.5062 94.6567 41.0717 95.9475 40.2028C97.0948 39.4063 97.9554 38.1753 98.314 36.7995H93.7961C93.3658 37.6684 93.2225 38.2477 91.4296 38.2477C89.6369 38.2477 88.4894 37.0892 88.2026 35.1341H98.6008C98.6008 32.3101 97.3817 29.3413 96.0909 28.1828ZM88.346 32.4549C88.346 32.2378 88.4178 32.0205 88.4894 31.8757C88.6328 31.5136 88.7763 31.1515 88.9914 30.862C89.2066 30.5724 89.4935 30.2827 89.7803 30.1379C90.2105 29.8482 90.7126 29.7034 91.2862 29.7034C92.6488 29.7034 93.7961 30.7895 93.9395 32.5274H88.346V32.4549Z" fill="#52606D"/>
<path d="M48.4757 21.1606H40.5873H40.5156V41.1456H45.1769V34.484H49.121C53.2086 34.484 55.8619 31.8048 55.8619 27.9672C55.8619 25.9397 55.1449 24.1294 53.9258 22.9709C52.7066 21.8847 50.8421 21.1606 48.4757 21.1606ZM48.5473 30.6462L45.1769 30.7187V25.4328H48.5473C50.3402 25.4328 51.3441 26.3741 51.3441 27.9672C51.3441 29.4878 50.3402 30.6462 48.5473 30.6462Z" fill="#52606D"/>
<path d="M48.5502 30.7174V30.645L45.1797 30.7174H48.5502Z" fill="#52606D"/>
<path d="M17.2109 14.4263C18.7887 14.4987 20.3664 14.7159 21.8722 15.2228C30.9797 17.9019 36.143 27.5323 33.4896 36.7284C32.4856 40.204 30.5494 43.028 27.9677 45.2002C31.8402 42.0143 34.3501 37.1629 34.3501 31.7321C34.3501 22.1741 26.677 14.4263 17.2109 14.4263Z" fill="#52606D"/>
<path d="M12.267 48.3133C12.267 48.3857 12.1953 48.3857 12.1953 48.4581C17.8605 50.1236 23.7409 48.7478 27.9719 45.1997C25.0317 47.5892 21.3027 49.0374 17.2151 49.0374C15.494 49.0374 13.8446 48.8202 12.267 48.3133Z" fill="#52606D"/>
<path d="M0.0717119 31.7316C0.0717119 22.1736 7.74489 14.4258 17.2108 14.4258C7.74489 14.3534 0 22.1012 0 31.6593C0 38.5381 3.94415 44.693 10.1114 47.5169C4.15929 44.7653 0.0717119 38.7554 0.0717119 31.7316Z" fill="#52606D"/>
<path d="M33.488 36.7284C36.1414 27.5323 30.9781 17.9019 21.8707 15.2228C20.3648 14.7159 18.7871 14.4987 17.2095 14.4263C7.74348 14.4263 0.0703125 22.1741 0.0703125 31.7321C0.0703125 38.7558 4.1579 44.7658 10.11 47.5174C10.3968 47.6622 10.6837 47.807 10.9705 47.8794C10.6837 47.7346 10.4685 47.6622 10.1817 47.5174C10.3968 47.5898 10.612 47.7346 10.9705 47.8794C10.8271 46.4313 10.6837 44.4761 10.9705 42.8832L12.9067 34.1941C12.5482 33.3976 12.3331 32.5286 12.3331 31.6597C12.3331 29.2702 13.7673 27.3875 15.4167 27.3875C17.066 27.3875 17.4963 28.5461 17.4963 29.777C17.4963 31.0804 16.4923 33.4699 16.0621 35.5698C15.6318 37.6697 16.9226 38.6834 18.572 38.6834C20.2213 38.6834 23.8787 35.425 23.8787 30.7184C23.8787 26.0118 20.9385 23.6223 16.7075 23.6223C12.4765 23.6223 9.17772 27.46 9.17772 31.2977C9.17772 32.7458 9.75142 34.4112 10.4685 35.2802C10.5402 35.425 10.612 35.5698 10.612 35.7146L10.1817 37.6697C10.0383 37.9593 9.89484 38.1042 9.60799 37.9593C7.52835 36.9456 6.09412 33.8319 6.09412 31.2977C6.09412 25.9394 10.0383 20.7983 17.4963 20.7983C24.9544 20.7983 28.0379 25.0705 28.0379 30.7184C28.0379 36.3663 24.3807 41.7246 19.3608 41.7246C17.6398 41.7246 15.9903 40.8557 15.4167 39.7696L14.2692 43.8969C13.8389 45.4175 12.9067 47.1553 12.2613 48.3139C13.8389 48.7483 15.4884 49.038 17.2095 49.038C21.297 49.038 25.026 47.5898 27.9663 45.2002C30.5478 43.028 32.4841 40.204 33.488 36.7284Z" fill="#52606D"/>
<path d="M10.9685 47.8792C10.6817 47.7343 10.3948 47.5895 10.1797 47.5171C10.4665 47.662 10.6817 47.7343 10.9685 47.8792Z" fill="#52606D"/>
<path d="M12.2656 48.314C13.8433 48.8208 15.4927 49.038 17.2138 49.038C15.4927 49.038 13.8433 48.7485 12.2656 48.314Z" fill="#52606D"/>
</g>
<defs>
<clipPath id="clip0_333_25377">
<rect width="144" height="35.1496" fill="white" transform="translate(0 14.4253)"/>
</clipPath>
</defs>
</svg>
