<svg width="144" height="64" viewBox="0 0 144 64" fill="none" xmlns="http://www.w3.org/2000/svg">
<g clip-path="url(#clip0_333_25417)">
<path d="M90.144 4.51034V59.4532C90.144 59.8012 90.1026 60.1353 90.006 60.4554C90.1164 60.1353 90.1854 59.8012 90.1854 59.4393V4.51034C90.1854 4.13449 90.1164 3.77257 89.9922 3.43848C90.0888 3.77257 90.144 4.13449 90.144 4.51034Z" fill="#52606D"/>
<path d="M67.2238 5.17927C66.9615 5.01223 66.6716 4.92871 66.3403 4.92871C66.0228 4.92871 65.7467 4.99831 65.4844 5.15143C65.236 5.30455 65.0289 5.51336 64.877 5.79176C64.7252 6.07016 64.6562 6.39033 64.6562 6.75225C64.6562 7.08633 64.7252 7.39258 64.8632 7.67098C65.0013 7.94938 65.1946 8.17211 65.4569 8.32523C65.7192 8.49227 66.009 8.57579 66.3403 8.57579C66.6578 8.57579 66.9477 8.50619 67.1962 8.35307C67.4585 8.19995 67.6517 7.99115 67.8036 7.71274C67.9554 7.43434 68.0245 7.11418 68.0245 6.75225C68.0245 6.41817 67.9554 6.11192 67.8174 5.83352C67.6794 5.55512 67.4723 5.3324 67.2238 5.17927Z" fill="#52606D"/>
<path d="M60.2982 5.16486C60.1187 5.02566 59.8564 4.95605 59.5113 4.95605H58.9591L58.9453 6.65431H59.4699C60.2015 6.65431 60.5604 6.36199 60.5604 5.79126C60.5604 5.51286 60.4776 5.30406 60.2982 5.16486Z" fill="#52606D"/>
<path d="M89.206 4.49651C89.206 3.27153 88.1845 2.2832 86.9007 2.2832H57.0139C55.7715 2.2832 54.75 3.27153 54.75 4.49651V10.9833H89.206V4.49651ZM60.9344 9.41032L59.8025 7.48934C59.7196 7.48934 59.6506 7.50326 59.6092 7.50326C59.554 7.50326 59.4987 7.50326 59.4573 7.50326H58.9466V9.41032H57.925V4.0789H59.6506C60.258 4.0789 60.7412 4.23202 61.0863 4.52435C61.4314 4.83059 61.6108 5.23428 61.6108 5.76324C61.6108 6.0834 61.528 6.36181 61.3762 6.61237C61.2243 6.86293 61.0034 7.07174 60.7135 7.22486L62.1354 9.41032H60.9344ZM68.803 8.12967C68.5683 8.54727 68.237 8.89528 67.8091 9.14584C67.3673 9.3964 66.8842 9.52168 66.3458 9.52168C65.835 9.52168 65.3657 9.41032 64.9515 9.17368C64.5236 8.93704 64.1923 8.61687 63.9438 8.18535C63.6953 7.76774 63.5711 7.28054 63.5711 6.73765C63.5711 6.23653 63.6815 5.77716 63.9162 5.35956C64.1509 4.94195 64.4822 4.60787 64.9101 4.34339C65.3381 4.09282 65.8212 3.96754 66.3596 3.96754C66.8704 3.96754 67.3397 4.0789 67.7677 4.31554C68.1956 4.55219 68.5269 4.87235 68.7754 5.30388C69.0239 5.72148 69.1481 6.20869 69.1481 6.75157C69.1481 7.2527 69.0377 7.71206 68.803 8.12967ZM74.6699 9.41032H71.205V4.0789H72.2679V8.53335H74.6699V9.41032ZM80.2331 9.41032H76.7682V4.0789H77.8311V8.53335H80.2331V9.41032ZM85.3822 9.10408C84.9957 9.38248 84.4987 9.52168 83.8775 9.52168C83.5462 9.52168 83.2149 9.47992 82.8836 9.3964C82.5523 9.31288 82.29 9.20152 82.0967 9.07624L82.2072 8.15751C82.428 8.29671 82.6903 8.42199 82.994 8.50551C83.2977 8.58903 83.5738 8.63079 83.8499 8.63079C84.1674 8.63079 84.4159 8.57511 84.5953 8.44983C84.7748 8.32455 84.8576 8.15751 84.8576 7.94871C84.8576 7.76774 84.7886 7.61462 84.6368 7.50326C84.4849 7.3919 84.2088 7.26662 83.8085 7.14134C83.2287 6.96037 82.8284 6.73765 82.5799 6.48709C82.3314 6.23653 82.2072 5.90244 82.2072 5.48484C82.2072 5.17859 82.2762 4.92803 82.428 4.69139C82.5799 4.46867 82.8008 4.2877 83.0907 4.1485C83.3805 4.02322 83.7119 3.95362 84.0984 3.95362C84.3745 3.95362 84.6506 3.99538 84.9405 4.06498C85.2304 4.13458 85.4788 4.23202 85.6859 4.35731L85.5341 5.2482C85.3408 5.13683 85.1061 5.03939 84.8576 4.96979C84.6091 4.90019 84.3607 4.85843 84.1398 4.85843C83.8361 4.85843 83.6152 4.91411 83.4634 5.02547C83.3115 5.13683 83.2425 5.28996 83.2425 5.48484C83.2425 5.61012 83.2701 5.72148 83.3253 5.79108C83.3805 5.8746 83.4772 5.9442 83.6152 6.0138C83.7533 6.0834 83.9327 6.15301 84.1812 6.23653C84.8162 6.43141 85.258 6.66805 85.5202 6.93253C85.7825 7.19702 85.9206 7.5311 85.9206 7.94871C85.9206 8.43591 85.7411 8.82568 85.3822 9.10408Z" fill="#52606D"/>
<path d="M54.75 59.4546C54.75 60.6796 55.7715 61.6679 57.0139 61.6679H86.9007C88.1845 61.6679 89.206 60.6656 89.206 59.4546V52.9678H54.75V59.4546ZM82.7593 54.6521H86.2657V55.543H83.7947V56.8237H85.9758V57.7146H83.7947V59.0787H86.3623V59.9696H82.7593V54.6521ZM76.5197 55.9328C76.7544 55.5152 77.0857 55.1811 77.5274 54.9445C77.9692 54.7078 78.4661 54.5825 79.0321 54.5825C79.322 54.5825 79.6119 54.6243 79.9156 54.6939C80.2193 54.7774 80.4678 54.8748 80.6887 55.0001L80.5092 55.9049C79.9984 55.6544 79.5153 55.5291 79.0459 55.5291C78.7008 55.5291 78.3971 55.5987 78.121 55.7518C77.8449 55.891 77.6379 56.0998 77.486 56.3782C77.3342 56.6427 77.2513 56.9629 77.2513 57.3387C77.2513 57.8816 77.417 58.3131 77.7345 58.6333C78.0658 58.9535 78.4938 59.1205 79.0459 59.1205C79.2806 59.1205 79.5429 59.0787 79.819 59.0091C80.0951 58.9395 80.3436 58.8421 80.592 58.7168L80.7025 59.6495C80.4678 59.7887 80.1917 59.8861 79.888 59.9696C79.5981 60.0114 79.2806 60.0532 78.9769 60.0532C78.4247 60.0532 77.9416 59.9418 77.5274 59.733C77.0995 59.5103 76.7682 59.204 76.5335 58.7864C76.2988 58.3688 76.1746 57.8955 76.1746 57.3387C76.1746 56.8098 76.285 56.3504 76.5197 55.9328ZM71.1912 54.6521L72.5026 56.9211L73.8278 54.6521H74.9736L73.0134 57.7563V59.9696H71.9504V57.7563L70.004 54.6521H71.1912ZM63.5987 55.9328C63.8334 55.5152 64.1647 55.1672 64.5926 54.9166C65.0206 54.666 65.5037 54.5408 66.0421 54.5408C66.5529 54.5408 67.0222 54.6521 67.4501 54.8888C67.8781 55.1254 68.2094 55.4456 68.4579 55.8771C68.7064 56.2947 68.8306 56.7819 68.8306 57.3248C68.8306 57.8259 68.7202 58.2853 68.4855 58.7029C68.2508 59.1205 67.9195 59.4685 67.4916 59.7191C67.0498 59.9557 66.5667 60.0949 66.0283 60.0949C65.5175 60.0949 65.0482 59.9836 64.634 59.7469C64.2061 59.5103 63.8748 59.1901 63.6263 58.7586C63.3778 58.341 63.2536 57.8538 63.2536 57.3109C63.2536 56.8098 63.364 56.3504 63.5987 55.9328ZM57.6075 54.6521H59.3331C59.9405 54.6521 60.4237 54.8053 60.7688 55.1115C61.1139 55.4177 61.2933 55.8214 61.2933 56.3504C61.2933 56.6706 61.2105 56.949 61.0587 57.1995C60.9068 57.4501 60.6859 57.6589 60.396 57.812L61.8179 59.9975H60.6169L59.485 58.0765C59.4021 58.0765 59.3331 58.0904 59.2917 58.0904C59.2365 58.0904 59.1813 58.0904 59.1398 58.0904H58.6291V59.9975H57.6075V54.6521Z" fill="#52606D"/>
<path d="M65.1445 58.8828C65.393 59.0499 65.6967 59.1334 66.028 59.1334C66.3455 59.1334 66.6353 59.0638 66.8839 58.9107C67.146 58.7576 67.3393 58.5488 67.4913 58.2704C67.643 57.992 67.7121 57.6718 67.7121 57.3099C67.7121 56.9758 67.643 56.6695 67.505 56.3911C67.3669 56.1127 67.1599 55.89 66.9115 55.7369C66.6492 55.5699 66.3593 55.4863 66.028 55.4863C65.7105 55.4863 65.4344 55.5559 65.1721 55.7091C64.9236 55.8622 64.7165 56.071 64.5647 56.3494C64.4128 56.6278 64.3438 56.9479 64.3438 57.3099C64.3438 57.644 64.4127 57.9502 64.5508 58.2286C64.6888 58.507 64.8822 58.7297 65.1445 58.8828Z" fill="#52606D"/>
<path d="M60.2323 56.3498C60.2323 56.0714 60.1357 55.8626 59.97 55.7234C59.7906 55.5842 59.5283 55.5146 59.1832 55.5146H58.631L58.6172 57.2128H59.1418C59.8734 57.2128 60.2323 56.9205 60.2323 56.3498Z" fill="#52606D"/>
<path d="M86.887 0.0976562H57.0003C54.5155 0.0976562 52.5 2.07432 52.5 4.51034V59.4393C52.5 61.8753 54.5155 63.8519 57.0003 63.8519H86.9008C89.3856 63.8519 91.4287 61.8753 91.4149 59.4532V4.51034C91.4149 2.07432 89.3856 0.0976562 86.887 0.0976562ZM90.1863 59.4393C90.1863 59.8012 90.1173 60.1353 90.0069 60.4554C89.5651 62.0563 88.1018 63.2395 86.3625 63.2395H57.4282C55.3575 63.2395 53.6734 61.5412 53.6734 59.4532V4.51034C53.6734 2.42232 55.3575 0.724063 57.4282 0.724063H86.3625C88.088 0.724063 89.5375 1.86551 89.993 3.43849C90.1173 3.77258 90.1863 4.1345 90.1863 4.51034V59.4393Z" fill="#52606D"/>
<path d="M54.75 52.0337H89.2198V11.9854H54.75V52.0337ZM69.5346 45.5608C69.5346 46.7441 70.0316 47.5236 70.9703 47.8298V48.2474H65.2138V47.8298C66.1249 47.5374 66.5943 46.7997 66.6495 45.5748V45.5608C66.6495 45.4495 66.6495 39.0045 66.6495 33.0188C67.3397 32.9353 68.872 32.7125 69.5346 32.5177V34.7866H69.7831C70.1282 34.7726 70.6804 34.7588 71.0117 34.7449C71.1912 35.065 71.4258 35.5801 71.5639 36.123C71.0255 36.1508 70.3077 36.1647 69.7693 36.1647H69.5208L69.5346 45.5608ZM80.8129 21.4233C82.6765 22.704 83.9741 24.9869 83.9465 27.2002C83.9465 30.2069 82.2624 32.7265 79.2116 34.2994C79.1564 34.3273 79.115 34.3412 79.0597 34.369C79.0045 34.3969 78.9493 34.4247 78.8803 34.4526L78.5904 34.5918L78.7974 34.8423C80.7853 37.1531 82.0277 40.4243 82.5937 42.1643C82.8422 42.8882 83.0216 43.6538 83.3529 45.0319L83.422 45.3102C83.8775 47.1338 84.9266 47.6906 85.4374 47.8438V48.2335H79.5015V47.8298C80.3298 47.5513 80.454 46.9389 80.4816 46.4935V46.4517C80.4816 46.4239 80.4816 46.396 80.4816 46.3542V46.2569C80.4816 45.7 80.3159 44.1688 80.3159 44.1549C79.8742 40.9254 78.4937 37.5846 76.7268 35.427L76.6301 35.3017L76.4783 35.3435C76.4093 35.3574 76.1746 35.413 76.1056 35.427C75.9675 35.1068 75.7052 34.5361 75.3877 33.9792C80.3159 32.3228 80.9924 28.9123 80.9924 27.228C80.9924 25.2792 80.2055 23.6505 78.7974 22.6344C78.687 22.5648 78.5766 22.4952 78.4661 22.4256C78.4109 21.9105 78.1486 20.783 77.7897 20.1287C78.9631 20.3375 80.0122 20.8804 80.8129 21.4233ZM58.5462 15.7856H68.099C70.9013 15.7856 72.7235 16.3981 74.1867 17.3865C76.0504 18.6671 77.348 20.95 77.3204 23.1633C77.3204 26.1701 75.6362 28.6896 72.5854 30.2626C72.5302 30.2904 72.475 30.3183 72.4336 30.3322C72.3784 30.36 72.3231 30.3879 72.2541 30.4157L71.9642 30.5549L72.1713 30.8055C74.1591 33.1023 75.4015 36.3735 75.9675 38.1275C76.2022 38.8653 76.3955 39.6169 76.7268 40.995L76.7958 41.2734C77.2513 43.1109 78.2867 43.6538 78.8113 43.8069V44.2105L72.8615 44.1967V43.793C73.676 43.5285 73.814 42.916 73.8416 42.4566V42.4149C73.8416 42.3869 73.8416 42.3453 73.8416 42.3174V42.22C73.8416 41.6632 73.676 40.1181 73.676 40.1181C73.2342 36.8886 71.8538 33.5478 70.0868 31.3901L69.9902 31.2648L69.8383 31.3066C67.8229 31.8356 65.4899 32.1279 63.1293 32.1279H62.8809L62.8947 41.524C62.8947 42.7072 63.3916 43.4867 64.3303 43.793V44.2105H58.5739V43.793C59.485 43.5007 59.9543 42.7629 60.0095 41.5379V41.524C60.0095 41.3013 60.0095 18.7785 60.0095 18.514C59.9819 17.2194 59.5125 16.4816 58.5462 16.1893V15.7856Z" fill="#52606D"/>
<path d="M63.1138 30.7217C73.2464 30.5408 74.3369 25.3903 74.3369 23.177C74.3369 21.2282 73.5639 19.5995 72.142 18.5834C71.0652 17.8177 69.7124 17.4419 67.9178 17.4141H62.8516V30.7217H62.8654H63.1138ZM65.1707 19.8083H71.9487C72.1696 20.0311 72.6804 20.6296 72.9427 21.4509H69.5191V28.3135C69.0636 28.5502 68.0282 28.9956 66.634 29.2184C66.634 25.5991 66.634 22.648 66.634 22.5506C66.6202 21.2699 66.1508 20.5183 65.1707 20.212V19.8083Z" fill="#52606D"/>
</g>
<defs>
<clipPath id="clip0_333_25417">
<rect width="39" height="64" fill="white" transform="translate(52.5)"/>
</clipPath>
</defs>
</svg>
