<svg width="144" height="64" viewBox="0 0 144 64" fill="none" xmlns="http://www.w3.org/2000/svg">
<g clip-path="url(#clip0_333_25399)">
<path fill-rule="evenodd" clip-rule="evenodd" d="M63.9991 7.03739C66.8963 4.0308 70.9128 2.14757 75.3572 2.14757C81.2832 2.14757 86.4191 5.4515 89.1845 10.3743C91.6536 9.28407 94.2874 8.68935 96.987 8.72239C107.654 8.72239 116.312 17.4778 116.312 28.2817C116.312 39.0855 107.654 47.841 96.987 47.841C95.6701 47.841 94.4191 47.7088 93.168 47.4776C90.7318 51.8057 86.1227 54.7462 80.8552 54.7462C78.7153 54.7462 76.6083 54.2506 74.6658 53.3255C72.2296 59.1074 66.5012 63.1713 59.8509 63.1713C52.9044 63.1713 47.0114 58.777 44.7398 52.5987C43.7192 52.7969 42.6986 52.9291 41.678 52.9291C33.4146 52.9291 26.7314 46.1229 26.7314 37.764C26.7314 32.1473 29.7273 27.2574 34.2047 24.6143C33.25 22.4338 32.7562 20.0549 32.7562 17.676C32.7562 7.99553 40.5587 0.198242 50.1719 0.198242C55.8016 0.198242 60.8387 2.87443 63.9991 7.03739Z" fill="#52606D"/>
<path fill-rule="evenodd" clip-rule="evenodd" d="M39.7619 32.808C39.6961 32.9401 39.7948 32.9731 39.7948 33.0063C39.9595 33.1384 40.124 33.2045 40.2886 33.3036C41.2105 33.7991 42.0664 33.9313 42.9554 33.9313C44.799 33.9313 45.9183 32.9401 45.9183 31.3543V31.3212C45.9183 29.8675 44.6343 29.3389 43.4163 28.9424L43.2516 28.8763C42.3298 28.579 41.5397 28.3147 41.5397 27.72V27.753C41.5397 27.2243 42.0006 26.8609 42.7249 26.8609C43.515 26.8609 44.4697 27.1253 45.0623 27.4556C45.0623 27.4556 45.227 27.5548 45.2928 27.3895C45.3257 27.2905 45.6221 26.4644 45.655 26.3653C45.6879 26.2662 45.6221 26.2001 45.5562 26.1671C44.8648 25.7376 43.9101 25.4402 42.9224 25.4402H42.7249C41.0458 25.4402 39.8606 26.4644 39.8606 27.9182V27.9512C39.8606 29.504 41.1446 29.9997 42.3627 30.33L42.5603 30.3961C43.4492 30.6604 44.2063 30.8917 44.2063 31.5194V31.5525C44.2063 32.1141 43.7125 32.5436 42.9224 32.5436C42.6261 32.5436 41.6384 32.5436 40.552 31.8499C40.4204 31.7838 40.3545 31.7177 40.2557 31.6516C40.1899 31.6186 40.0582 31.5525 40.0253 31.7507L39.7619 32.808ZM66.6592 32.808C66.5933 32.9401 66.6921 32.9731 66.6921 33.0063C66.8567 33.1384 67.0213 33.2045 67.2188 33.3036C68.1407 33.7991 68.9967 33.9313 69.8856 33.9313C71.7292 33.9313 72.8815 32.9401 72.8815 31.3543V31.3212C72.8815 29.8675 71.5975 29.3389 70.3794 28.9424L70.2147 28.8763C69.2929 28.579 68.5028 28.3147 68.5028 27.72V27.753C68.5028 27.2243 68.9637 26.8609 69.688 26.8609C70.4781 26.8609 71.3999 27.1253 72.0255 27.4556C72.0255 27.4556 72.1901 27.5548 72.2559 27.3895C72.2888 27.2905 72.5852 26.4644 72.6181 26.3653C72.651 26.2662 72.5851 26.2001 72.5193 26.1671C71.8279 25.7376 70.8732 25.4402 69.8856 25.4402H69.688C68.0089 25.4402 66.8238 26.4644 66.8238 27.9182V27.9512C66.8238 29.504 68.1077 29.9997 69.3258 30.33L69.5234 30.3961C70.4123 30.6604 71.1695 30.8917 71.1695 31.5194V31.5525C71.1695 32.1141 70.6756 32.5436 69.8856 32.5436C69.5892 32.5436 68.6016 32.5436 67.5151 31.8499C67.3835 31.7838 67.3176 31.7177 67.2188 31.6516C67.1859 31.6186 67.0213 31.5856 66.9884 31.7507L66.6592 32.808ZM85.0296 29.7023C85.0296 30.5944 84.865 31.2882 84.5358 31.7838C84.2066 32.2794 83.7127 32.5106 83.0543 32.5106C82.3958 32.5106 81.8691 32.2794 81.5729 31.7838C81.2436 31.2882 81.079 30.5944 81.079 29.7023C81.079 28.8102 81.2436 28.1164 81.5729 27.6208C81.902 27.1253 82.3629 26.894 83.0543 26.894C83.7457 26.894 84.2396 27.1253 84.5358 27.6208C84.865 28.1164 85.0296 28.8102 85.0296 29.7023ZM86.5441 28.0503C86.3795 27.5217 86.149 27.0922 85.8527 26.6958C85.5235 26.3323 85.1614 26.0019 84.6675 25.8036C84.2066 25.5724 83.6469 25.4733 83.0214 25.4733C82.3958 25.4733 81.8362 25.5724 81.3753 25.8036C80.9144 26.0349 80.5193 26.3323 80.1901 26.6958C79.8939 27.0591 79.6304 27.5217 79.4988 28.0503C79.3341 28.5459 79.2683 29.1075 79.2683 29.7023C79.2683 30.297 79.3341 30.8587 79.4988 31.3543C79.6633 31.8829 79.8939 32.3124 80.1901 32.7089C80.5193 33.0723 80.9144 33.4027 81.3753 33.601C81.8362 33.7992 82.3958 33.9313 83.0214 33.9313C83.6469 33.9313 84.2066 33.8322 84.6675 33.601C85.1284 33.4027 85.5235 33.0723 85.8527 32.7089C86.149 32.3454 86.4124 31.8829 86.5441 31.3543C86.7086 30.8587 86.7746 30.297 86.7746 29.7023C86.7746 29.1407 86.7086 28.579 86.5441 28.0503ZM99.1532 32.2794C99.0874 32.1141 98.9557 32.1803 98.9557 32.1803C98.7252 32.2794 98.4948 32.3454 98.2314 32.3785C97.968 32.4116 97.7046 32.4446 97.3754 32.4446C96.6511 32.4446 96.0256 32.2133 95.6305 31.7838C95.2025 31.3543 94.972 30.6274 94.972 29.6692C94.972 28.8102 95.1696 28.1495 95.5647 27.6538C95.9269 27.1583 96.5194 26.894 97.2767 26.894C97.9021 26.894 98.3959 26.96 98.8898 27.1253C98.8898 27.1253 99.0215 27.1913 99.0544 27.0261C99.1861 26.6626 99.2848 26.3983 99.4166 25.9688C99.4495 25.8367 99.3508 25.8036 99.3177 25.8036C99.1203 25.7376 98.6594 25.6054 98.2972 25.5393C97.968 25.4733 97.5729 25.4733 97.1449 25.4733C96.4865 25.4733 95.9269 25.5724 95.4329 25.8036C94.9391 26.0349 94.5111 26.3323 94.182 26.6958C93.8528 27.0591 93.5893 27.5217 93.4248 28.0503C93.2601 28.5459 93.1614 29.1075 93.1614 29.7023C93.1614 30.9909 93.4906 32.0151 94.182 32.7749C94.8733 33.5348 95.894 33.9313 97.2108 33.9313C98.0009 33.9313 98.791 33.7661 99.3837 33.5348C99.3837 33.5348 99.4824 33.4688 99.4495 33.3366L99.1532 32.2794ZM101.853 28.8433C101.919 28.3477 102.05 27.9182 102.281 27.6208C102.61 27.1253 103.071 26.8609 103.762 26.8609C104.454 26.8609 104.882 27.1253 105.211 27.6208C105.408 27.9512 105.507 28.3807 105.54 28.8433H101.853ZM107.022 27.753C106.89 27.2573 106.561 26.7618 106.363 26.5305C106.034 26.1671 105.705 25.9028 105.375 25.7706C104.915 25.5724 104.388 25.4733 103.894 25.4733C103.235 25.4733 102.643 25.5724 102.182 25.8036C101.721 26.0349 101.293 26.3323 100.997 26.7288C100.668 27.1253 100.437 27.5548 100.305 28.0833C100.141 28.612 100.075 29.1407 100.075 29.7354C100.075 30.33 100.141 30.8917 100.305 31.3873C100.47 31.8829 100.701 32.3454 101.063 32.7089C101.392 33.0723 101.853 33.3696 102.38 33.5679C102.906 33.7661 103.532 33.8653 104.256 33.8653C105.77 33.8653 106.561 33.5348 106.857 33.3366C106.923 33.3036 106.956 33.2375 106.89 33.0723L106.561 32.1141C106.495 31.9821 106.363 32.0151 106.363 32.0151C106.001 32.1472 105.474 32.4116 104.223 32.4116C103.433 32.4116 102.807 32.1803 102.445 31.7838C102.05 31.3873 101.886 30.8587 101.853 30.0657H107.054C107.054 30.0657 107.186 30.0657 107.219 29.9336C107.186 29.9336 107.351 28.9424 107.022 27.753ZM60.2723 28.8433C60.3382 28.3477 60.4698 27.9182 60.7002 27.6208C61.0295 27.1253 61.4904 26.8609 62.1818 26.8609C62.8731 26.8609 63.3011 27.1253 63.6303 27.6208C63.8279 27.9512 63.9267 28.3807 63.9596 28.8433H60.2723ZM65.441 27.753C65.3094 27.2573 64.9801 26.7618 64.7826 26.5305C64.4534 26.1671 64.1241 25.9028 63.795 25.7706C63.3341 25.5724 62.8073 25.4733 62.3135 25.4733C61.6551 25.4733 61.0624 25.5724 60.6015 25.8036C60.1406 26.0349 59.7126 26.3323 59.4163 26.7288C59.0871 27.1253 58.8566 27.5548 58.725 28.0833C58.5603 28.612 58.4945 29.1407 58.4945 29.7354C58.4945 30.33 58.5603 30.8917 58.725 31.3873C58.8896 31.8829 59.1201 32.3454 59.4822 32.7089C59.8114 33.0723 60.2723 33.3696 60.7991 33.5679C61.3258 33.7661 61.9513 33.8653 62.6756 33.8653C64.19 33.8653 64.9801 33.5348 65.2765 33.3366C65.3423 33.3036 65.3752 33.2375 65.3094 33.0723L64.9801 32.1141C64.9143 31.9821 64.7826 32.0151 64.7826 32.0151C64.4205 32.1472 63.8937 32.4116 62.6427 32.4116C61.8526 32.4116 61.2271 32.1803 60.8649 31.7838C60.4699 31.3873 60.3053 30.8587 60.2723 30.0657H65.4739C65.4739 30.0657 65.6057 30.0657 65.6386 29.9336C65.6057 29.9336 65.7703 28.9424 65.441 27.753ZM49.0459 32.2463C48.8484 32.0811 48.8154 32.0481 48.7496 31.9489C48.6509 31.7838 48.585 31.5525 48.585 31.2551C48.585 30.7926 48.7496 30.4622 49.0459 30.2309C49.0459 30.2309 49.5069 29.8345 50.5603 29.8675C51.0212 29.8675 51.515 29.9005 51.9759 29.9997V32.3785C51.9759 32.3785 51.3175 32.5106 50.5603 32.5767C49.5069 32.6098 49.0459 32.2463 49.0459 32.2463ZM51.12 28.579C50.9225 28.579 50.6261 28.5459 50.2969 28.5459C49.8689 28.5459 49.408 28.612 49.0129 28.7112C48.618 28.8102 48.2558 28.9754 47.9266 29.2067C47.5973 29.438 47.3669 29.7354 47.1693 30.0657C46.9718 30.3961 46.906 30.8256 46.906 31.2551C46.906 31.7177 46.9718 32.1141 47.1364 32.4446C47.3011 32.7749 47.5315 33.0393 47.8278 33.2706C48.124 33.4688 48.4862 33.634 48.8813 33.7331C49.2764 33.8322 49.7373 33.8653 50.264 33.8653C50.7908 33.8653 51.3175 33.8322 51.8443 33.7331C52.2723 33.667 52.7332 33.5679 53.1611 33.4688C53.3257 33.4358 53.5233 33.3696 53.5233 33.3696C53.655 33.3366 53.655 33.2045 53.655 33.2045V28.4468C53.655 27.3895 53.3917 26.6296 52.8319 26.1341C52.2723 25.6715 51.4821 25.4072 50.4616 25.4072C50.0665 25.4072 49.4409 25.4733 49.0789 25.5393C49.0789 25.5393 47.9595 25.7706 47.4657 26.1341C47.4657 26.1341 47.3669 26.2001 47.4327 26.3323L47.7949 27.3235C47.8278 27.4556 47.9595 27.4226 47.9595 27.4226C47.9595 27.4226 47.9924 27.4226 48.0582 27.3895C49.046 26.8278 50.3299 26.8609 50.3299 26.8609C50.8896 26.8609 51.3175 26.96 51.6138 27.1913C51.9101 27.4226 52.0418 27.753 52.0418 28.4468V28.678C51.515 28.645 51.12 28.612 51.12 28.579ZM92.931 25.9028C92.9639 25.8367 92.931 25.7376 92.8651 25.7046C92.7663 25.6715 92.3383 25.5724 92.0092 25.5724C91.3507 25.5393 90.9885 25.6384 90.6593 25.8036C90.3301 25.9358 89.968 26.2001 89.7704 26.4644V25.8367C89.7704 25.7376 89.7045 25.6715 89.6058 25.6715H88.2889C88.1902 25.6715 88.1244 25.7376 88.1244 25.8367V33.601C88.1244 33.7001 88.1902 33.7661 88.2889 33.7661H89.6387C89.7375 33.7661 89.8033 33.7001 89.8033 33.601V29.6692C89.8033 29.1407 89.8692 28.612 89.968 28.3147C90.0667 27.9843 90.2314 27.72 90.4289 27.5548C90.5934 27.3895 90.8239 27.2573 91.0543 27.1583C91.2848 27.0922 91.5152 27.0591 91.7457 27.0591C92.0092 27.0591 92.3054 27.1253 92.3054 27.1253C92.4041 27.1253 92.4701 27.0591 92.503 26.9931C92.6346 26.7288 92.8651 26.0349 92.931 25.9028Z" fill="#FFFFFE"/>
<path fill-rule="evenodd" clip-rule="evenodd" d="M80.1925 22.3017C80.0278 22.2357 79.8633 22.2027 79.6657 22.1695C79.4353 22.1365 79.2048 22.1035 78.9744 22.1035C78.0197 22.1035 77.2953 22.3678 76.7686 22.8965C76.2418 23.4251 75.9126 24.2181 75.7151 25.2753L75.6492 25.6388H74.464C74.464 25.6388 74.3324 25.6388 74.2994 25.8039L74.102 26.8943C74.102 26.9933 74.1349 27.0595 74.2665 27.0595H75.4188L74.2665 33.5681C74.1678 34.0968 74.0689 34.5263 73.9702 34.8567C73.8715 35.1871 73.7398 35.4184 73.608 35.5835C73.4764 35.7487 73.3447 35.8809 73.1471 35.947C72.9826 36.0131 72.7521 36.0462 72.5217 36.0462C72.39 36.0462 72.2253 36.0131 72.0937 36.0131C71.962 35.98 71.8961 35.947 71.7973 35.914C71.7973 35.914 71.6657 35.8479 71.5999 36.0131C71.5669 36.1122 71.2377 36.9712 71.2048 37.0704C71.1719 37.1694 71.2048 37.2686 71.2706 37.2686C71.4352 37.3347 71.534 37.3677 71.7315 37.4007C72.0278 37.4668 72.2582 37.4668 72.4887 37.4668C72.9826 37.4668 73.4105 37.4007 73.7727 37.2686C74.1349 37.1364 74.464 36.9052 74.7274 36.6077C75.0238 36.2774 75.2212 35.914 75.4188 35.4514C75.5834 34.9888 75.748 34.3942 75.8797 33.7003L77.0648 27.0595H78.7768C78.7768 27.0595 78.9086 27.0595 78.9415 26.8943L79.139 25.8039C79.139 25.7048 79.106 25.6388 78.9744 25.6388H77.3283C77.3283 25.6056 77.427 25.0109 77.5917 24.4493C77.6575 24.2181 77.8221 24.0198 77.9537 23.8876C78.0855 23.7555 78.2171 23.6564 78.3817 23.6234C78.5464 23.5572 78.7439 23.5242 78.9415 23.5572C79.106 23.5572 79.2377 23.5902 79.3695 23.5902C79.534 23.6234 79.5999 23.6564 79.6328 23.6564C79.7974 23.7224 79.8304 23.6564 79.8633 23.5902L80.2583 22.5C80.3242 22.3678 80.2254 22.3348 80.1925 22.3017ZM56.9825 33.6012C56.9825 33.7003 56.9166 33.7664 56.8179 33.7664H55.4352C55.3363 33.7664 55.2705 33.7003 55.2705 33.6012V22.467C55.2705 22.3678 55.3363 22.3017 55.4352 22.3017H56.8179C56.9166 22.3017 56.9825 22.3678 56.9825 22.467V33.6012Z" fill="#FFFFFE"/>
</g>
<defs>
<clipPath id="clip0_333_25399">
<rect width="90.4127" height="64" fill="white" transform="translate(26.7939)"/>
</clipPath>
</defs>
</svg>
