<svg xmlns="http://www.w3.org/2000/svg" id="Capa_1" enable-background="new 0 0 512 512" height="40" viewBox="0 0 512 512" width="40"><g><g><path d="m460.776 150.079-36.139-38.42c-2.038-2.167-5.481-2.167-7.519 0l-36.139 38.42c-3.099 3.294-.763 8.698 3.759 8.698h9.034v57.717l15.334 45.373 4.611 3.916 34.265-1.597v-105.41h9.034c4.523 0 6.859-5.403 3.76-8.697z" fill="#b3e59f"/><path d="m409.107 252.867c-3.157-13.075-8.397-25.316-15.334-36.373v59.016l10.461 17.506 43.749-8.743v-20.086c-10.924-4.023-22.431-6.53-34.265-7.403-2.226-.166-4.088-1.749-4.611-3.917z" fill="#95d6a4"/><path d="m273.947 82.363h9.034v76.317l27.105 13.786 27.105-4.214v-85.89h9.034c4.522 0 6.858-5.403 3.759-8.697l-36.139-38.42c-2.038-2.167-5.481-2.167-7.519 0l-36.139 38.42c-3.098 3.295-.763 8.698 3.76 8.698z" fill="#ffe07d"/><path d="m337.191 188.722v-20.469c-14.788-6.268-31.018-9.735-48.002-9.735-2.074 0-4.144.059-6.208.163v18.621l27.105 14.71z" fill="#ffd064"/><path d="m239.192 128.22-36.139-38.42c-2.038-2.167-5.481-2.167-7.519 0l-36.139 38.42c-3.099 3.294-.763 8.697 3.759 8.697h9.034v104.059l54.21-65.272v-38.786h9.034c4.523 0 6.859-5.403 3.76-8.698z" fill="#e7a561"/><path d="m172.189 259.904 13.774 12.997 40.436-74.873v-22.324c-5.991 3.543-11.705 7.599-17.061 12.154-16.768 14.259-29.945 32.608-37.149 53.118z" fill="#e49542"/><path d="m61.397 70.196v218.109l54.21-42.385v-175.724h9.034c4.523 0 6.858-5.404 3.76-8.698l-36.139-38.42c-2.038-2.167-5.481-2.167-7.519 0l-36.139 38.42c-3.099 3.294-.763 8.698 3.76 8.698z" fill="#de5974"/><path d="m115.607 265.987v-20.067c-15.091 5.452-28.925 14.2-40.608 25.883-5.111 5.111-9.643 10.643-13.602 16.502v54.82z" fill="#c7495d"/><path d="m.625 410.903c0 40.203 33.992 70.063 69.687 70.063h333.922c56.387 0 107.363-48.947 107.363-107.476-4.712-55.167-50.976-98.476-107.363-98.476-3.529 0-7.018.175-10.461.507-3.297-54.907-48.85-98.422-104.585-98.422-51.738 0-94.689 37.503-103.225 86.802-10.147-3.842-21.14-5.962-32.633-5.962-50.919 0-92.196 41.278-92.196 92.196 0 .136.01.269.01.404-31.44 4.096-56.35 28.949-60.519 60.364z" fill="#a2dafd"/><path d="m404.234 471.966c-58.304 0-302.302 0-333.922 0-35.695 0-65.156-26.605-69.687-61.063-.406 3.054-.625 6.167-.625 9.332 0 38.832 31.479 70.311 70.311 70.311h333.922c59.518 0 107.766-48.249 107.766-107.766 0-3.131-.141-6.228-.403-9.29-4.711 55.167-50.975 98.476-107.362 98.476z" fill="#83c8ea"/></g><g fill="#fff"><path d="m284.054 342.546c4.284 0 7.757-3.473 7.757-7.757 0-4.285-3.473-7.757-7.757-7.757h-36.324c-4.284 0-7.757 3.472-7.757 7.757v86.209c0 4.284 3.473 7.757 7.757 7.757h36.324c4.284 0 7.757-3.473 7.757-7.757 0-4.285-3.473-7.757-7.757-7.757h-28.567v-27.59h25.889c4.284 0 7.757-3.473 7.757-7.757 0-4.285-3.473-7.757-7.757-7.757h-25.889v-27.59h28.567z"/><path d="m192.104 413.638c-9.513 0-18.698-3.868-24.57-10.349-2.877-3.175-7.782-3.415-10.957-.54-3.175 2.877-3.416 7.782-.539 10.957 8.764 9.671 22.246 15.445 36.066 15.445 16.551 0 30.97-10.855 33.541-25.25 2.965-16.605-10.093-27.729-23.301-32.6-11.196-4.13-21.582-8.639-24.203-9.79-2.78-2.037-4.129-5.292-3.624-8.811.636-4.431 4.041-7.987 9.108-9.514 13.958-4.207 26.572 5.908 26.82 6.11 3.279 2.732 8.153 2.301 10.901-.969 2.756-3.28 2.333-8.173-.946-10.93-.77-.646-19.078-15.744-41.251-9.067-10.836 3.265-18.495 11.758-19.989 22.164-1.391 9.69 2.805 19.008 10.951 24.319.343.224.703.42 1.077.587.499.222 12.389 5.515 25.786 10.456 9.619 3.548 14.502 9.132 13.398 15.319-1.079 6.042-7.848 12.463-18.268 12.463z"/><path d="m401.965 377.894c0-28.264-22.995-51.258-51.258-51.258-28.264 0-51.258 22.995-51.258 51.258 0 28.264 22.995 51.258 51.258 51.258s51.258-22.994 51.258-51.258zm-87.003 0c0-19.71 16.035-35.744 35.744-35.744s35.744 16.034 35.744 35.744-16.035 35.744-35.744 35.744-35.744-16.034-35.744-35.744z"/></g></g></svg>