<svg width="408" height="477" viewBox="0 0 408 477" fill="none" xmlns="http://www.w3.org/2000/svg">
<circle cx="287.5" cy="356.5" r="120.5" fill="#4B7CFD"/>
<circle cx="120.5" cy="356.5" r="120.5" fill="#3A64FF"/>
<path fill-rule="evenodd" clip-rule="evenodd" d="M203.997 443.733C181.197 421.81 167.008 390.995 167.008 356.867C167.008 322.738 181.197 291.924 203.997 270C226.797 291.924 240.986 322.738 240.986 356.867C240.986 390.995 226.797 421.81 203.997 443.733Z" fill="#1A5AFF"/>
<path opacity="0.4" d="M204 288L138.182 172.5H269.818L204 288Z" fill="#195AFF"/>
<path d="M60.1332 337.436V345.212C60.1332 346.064 60.3552 346.718 60.7992 347.174C61.2432 347.618 61.8672 347.84 62.6712 347.84C63.4872 347.84 64.1172 347.618 64.5612 347.174C65.0052 346.718 65.2272 346.064 65.2272 345.212V337.436H67.7652V345.194C67.7652 346.262 67.5312 347.168 67.0632 347.912C66.6072 348.644 65.9892 349.196 65.2092 349.568C64.4412 349.94 63.5832 350.126 62.6352 350.126C61.6992 350.126 60.8472 349.94 60.0792 349.568C59.3232 349.196 58.7232 348.644 58.2792 347.912C57.8352 347.168 57.6132 346.262 57.6132 345.194V337.436H60.1332ZM74.538 350.126C73.662 350.126 72.87 349.976 72.162 349.676C71.466 349.376 70.914 348.944 70.506 348.38C70.098 347.816 69.888 347.15 69.876 346.382H72.576C72.612 346.898 72.792 347.306 73.116 347.606C73.452 347.906 73.908 348.056 74.484 348.056C75.072 348.056 75.534 347.918 75.87 347.642C76.206 347.354 76.374 346.982 76.374 346.526C76.374 346.154 76.26 345.848 76.032 345.608C75.804 345.368 75.516 345.182 75.168 345.05C74.832 344.906 74.364 344.75 73.764 344.582C72.948 344.342 72.282 344.108 71.766 343.88C71.262 343.64 70.824 343.286 70.452 342.818C70.092 342.338 69.912 341.702 69.912 340.91C69.912 340.166 70.098 339.518 70.47 338.966C70.842 338.414 71.364 337.994 72.036 337.706C72.708 337.406 73.476 337.256 74.34 337.256C75.636 337.256 76.686 337.574 77.49 338.21C78.306 338.834 78.756 339.71 78.84 340.838H76.068C76.044 340.406 75.858 340.052 75.51 339.776C75.174 339.488 74.724 339.344 74.16 339.344C73.668 339.344 73.272 339.47 72.972 339.722C72.684 339.974 72.54 340.34 72.54 340.82C72.54 341.156 72.648 341.438 72.864 341.666C73.092 341.882 73.368 342.062 73.692 342.206C74.028 342.338 74.496 342.494 75.096 342.674C75.912 342.914 76.578 343.154 77.094 343.394C77.61 343.634 78.054 343.994 78.426 344.474C78.798 344.954 78.984 345.584 78.984 346.364C78.984 347.036 78.81 347.66 78.462 348.236C78.114 348.812 77.604 349.274 76.932 349.622C76.26 349.958 75.462 350.126 74.538 350.126ZM88.8368 342.512V344.636H81.2048V342.512H88.8368ZM98.7909 343.556C99.4989 343.688 100.081 344.042 100.537 344.618C100.993 345.194 101.221 345.854 101.221 346.598C101.221 347.27 101.053 347.864 100.717 348.38C100.393 348.884 99.9189 349.28 99.2949 349.568C98.6709 349.856 97.9329 350 97.0809 350H91.6629V337.436H96.8469C97.6989 337.436 98.4309 337.574 99.0429 337.85C99.6669 338.126 100.135 338.51 100.447 339.002C100.771 339.494 100.933 340.052 100.933 340.676C100.933 341.408 100.735 342.02 100.339 342.512C99.9549 343.004 99.4389 343.352 98.7909 343.556ZM94.1829 342.62H96.4869C97.0869 342.62 97.5489 342.488 97.8729 342.224C98.1969 341.948 98.3589 341.558 98.3589 341.054C98.3589 340.55 98.1969 340.16 97.8729 339.884C97.5489 339.608 97.0869 339.47 96.4869 339.47H94.1829V342.62ZM96.7209 347.948C97.3329 347.948 97.8069 347.804 98.1429 347.516C98.4909 347.228 98.6649 346.82 98.6649 346.292C98.6649 345.752 98.4849 345.332 98.1249 345.032C97.7649 344.72 97.2789 344.564 96.6669 344.564H94.1829V347.948H96.7209ZM102.581 344.978C102.581 343.97 102.779 343.076 103.175 342.296C103.583 341.516 104.129 340.916 104.813 340.496C105.509 340.076 106.283 339.866 107.135 339.866C107.879 339.866 108.527 340.016 109.079 340.316C109.643 340.616 110.093 340.994 110.429 341.45V340.028H112.967V350H110.429V348.542C110.105 349.01 109.655 349.4 109.079 349.712C108.515 350.012 107.861 350.162 107.117 350.162C106.277 350.162 105.509 349.946 104.813 349.514C104.129 349.082 103.583 348.476 103.175 347.696C102.779 346.904 102.581 345.998 102.581 344.978ZM110.429 345.014C110.429 344.402 110.309 343.88 110.069 343.448C109.829 343.004 109.505 342.668 109.097 342.44C108.689 342.2 108.251 342.08 107.783 342.08C107.315 342.08 106.883 342.194 106.487 342.422C106.091 342.65 105.767 342.986 105.515 343.43C105.275 343.862 105.155 344.378 105.155 344.978C105.155 345.578 105.275 346.106 105.515 346.562C105.767 347.006 106.091 347.348 106.487 347.588C106.895 347.828 107.327 347.948 107.783 347.948C108.251 347.948 108.689 347.834 109.097 347.606C109.505 347.366 109.829 347.03 110.069 346.598C110.309 346.154 110.429 345.626 110.429 345.014ZM119.245 350.162C118.429 350.162 117.697 350.018 117.049 349.73C116.401 349.43 115.885 349.028 115.501 348.524C115.129 348.02 114.925 347.462 114.889 346.85H117.427C117.475 347.234 117.661 347.552 117.985 347.804C118.321 348.056 118.735 348.182 119.227 348.182C119.707 348.182 120.079 348.086 120.343 347.894C120.619 347.702 120.757 347.456 120.757 347.156C120.757 346.832 120.589 346.592 120.253 346.436C119.929 346.268 119.407 346.088 118.687 345.896C117.943 345.716 117.331 345.53 116.851 345.338C116.383 345.146 115.975 344.852 115.627 344.456C115.291 344.06 115.123 343.526 115.123 342.854C115.123 342.302 115.279 341.798 115.591 341.342C115.915 340.886 116.371 340.526 116.959 340.262C117.559 339.998 118.261 339.866 119.065 339.866C120.253 339.866 121.201 340.166 121.909 340.766C122.617 341.354 123.007 342.152 123.079 343.16H120.667C120.631 342.764 120.463 342.452 120.163 342.224C119.875 341.984 119.485 341.864 118.993 341.864C118.537 341.864 118.183 341.948 117.931 342.116C117.691 342.284 117.571 342.518 117.571 342.818C117.571 343.154 117.739 343.412 118.075 343.592C118.411 343.76 118.933 343.934 119.641 344.114C120.361 344.294 120.955 344.48 121.423 344.672C121.891 344.864 122.293 345.164 122.629 345.572C122.977 345.968 123.157 346.496 123.169 347.156C123.169 347.732 123.007 348.248 122.683 348.704C122.371 349.16 121.915 349.52 121.315 349.784C120.727 350.036 120.037 350.162 119.245 350.162ZM134.507 344.798C134.507 345.158 134.483 345.482 134.435 345.77H127.145C127.205 346.49 127.457 347.054 127.901 347.462C128.345 347.87 128.891 348.074 129.539 348.074C130.475 348.074 131.141 347.672 131.537 346.868H134.255C133.967 347.828 133.415 348.62 132.599 349.244C131.783 349.856 130.781 350.162 129.593 350.162C128.633 350.162 127.769 349.952 127.001 349.532C126.245 349.1 125.651 348.494 125.219 347.714C124.799 346.934 124.589 346.034 124.589 345.014C124.589 343.982 124.799 343.076 125.219 342.296C125.639 341.516 126.227 340.916 126.983 340.496C127.739 340.076 128.609 339.866 129.593 339.866C130.541 339.866 131.387 340.07 132.131 340.478C132.887 340.886 133.469 341.468 133.877 342.224C134.297 342.968 134.507 343.826 134.507 344.798ZM131.897 344.078C131.885 343.43 131.651 342.914 131.195 342.53C130.739 342.134 130.181 341.936 129.521 341.936C128.897 341.936 128.369 342.128 127.937 342.512C127.517 342.884 127.259 343.406 127.163 344.078H131.897ZM135.698 344.978C135.698 343.97 135.896 343.076 136.292 342.296C136.7 341.516 137.252 340.916 137.948 340.496C138.644 340.076 139.418 339.866 140.27 339.866C140.918 339.866 141.536 340.01 142.124 340.298C142.712 340.574 143.18 340.946 143.528 341.414V336.68H146.084V350H143.528V348.524C143.216 349.016 142.778 349.412 142.214 349.712C141.65 350.012 140.996 350.162 140.252 350.162C139.412 350.162 138.644 349.946 137.948 349.514C137.252 349.082 136.7 348.476 136.292 347.696C135.896 346.904 135.698 345.998 135.698 344.978ZM143.546 345.014C143.546 344.402 143.426 343.88 143.186 343.448C142.946 343.004 142.622 342.668 142.214 342.44C141.806 342.2 141.368 342.08 140.9 342.08C140.432 342.08 140 342.194 139.604 342.422C139.208 342.65 138.884 342.986 138.632 343.43C138.392 343.862 138.272 344.378 138.272 344.978C138.272 345.578 138.392 346.106 138.632 346.562C138.884 347.006 139.208 347.348 139.604 347.588C140.012 347.828 140.444 347.948 140.9 347.948C141.368 347.948 141.806 347.834 142.214 347.606C142.622 347.366 142.946 347.03 143.186 346.598C143.426 346.154 143.546 345.626 143.546 345.014ZM77.7179 370.7C77.7179 369.464 77.9939 368.36 78.5459 367.388C79.1099 366.404 79.8719 365.642 80.8319 365.102C81.8039 364.55 82.8899 364.274 84.0899 364.274C85.4939 364.274 86.7239 364.634 87.7799 365.354C88.8359 366.074 89.5739 367.07 89.9939 368.342H87.0959C86.8079 367.742 86.3999 367.292 85.8719 366.992C85.3559 366.692 84.7559 366.542 84.0719 366.542C83.3399 366.542 82.6859 366.716 82.1099 367.064C81.5459 367.4 81.1019 367.88 80.7779 368.504C80.4659 369.128 80.3099 369.86 80.3099 370.7C80.3099 371.528 80.4659 372.26 80.7779 372.896C81.1019 373.52 81.5459 374.006 82.1099 374.354C82.6859 374.69 83.3399 374.858 84.0719 374.858C84.7559 374.858 85.3559 374.708 85.8719 374.408C86.3999 374.096 86.8079 373.64 87.0959 373.04H89.9939C89.5739 374.324 88.8359 375.326 87.7799 376.046C86.7359 376.754 85.5059 377.108 84.0899 377.108C82.8899 377.108 81.8039 376.838 80.8319 376.298C79.8719 375.746 79.1099 374.984 78.5459 374.012C77.9939 373.04 77.7179 371.936 77.7179 370.7ZM94.6663 363.68V377H92.1463V363.68H94.6663ZM98.4341 365.84C97.9901 365.84 97.6181 365.702 97.3181 365.426C97.0301 365.138 96.8861 364.784 96.8861 364.364C96.8861 363.944 97.0301 363.596 97.3181 363.32C97.6181 363.032 97.9901 362.888 98.4341 362.888C98.8781 362.888 99.2441 363.032 99.5321 363.32C99.8321 363.596 99.9821 363.944 99.9821 364.364C99.9821 364.784 99.8321 365.138 99.5321 365.426C99.2441 365.702 98.8781 365.84 98.4341 365.84ZM99.6761 367.028V377H97.1561V367.028H99.6761ZM111.436 371.798C111.436 372.158 111.412 372.482 111.364 372.77H104.074C104.134 373.49 104.386 374.054 104.83 374.462C105.274 374.87 105.82 375.074 106.468 375.074C107.404 375.074 108.07 374.672 108.466 373.868H111.184C110.896 374.828 110.344 375.62 109.528 376.244C108.712 376.856 107.71 377.162 106.522 377.162C105.562 377.162 104.698 376.952 103.93 376.532C103.174 376.1 102.58 375.494 102.148 374.714C101.728 373.934 101.518 373.034 101.518 372.014C101.518 370.982 101.728 370.076 102.148 369.296C102.568 368.516 103.156 367.916 103.912 367.496C104.668 367.076 105.538 366.866 106.522 366.866C107.47 366.866 108.316 367.07 109.06 367.478C109.816 367.886 110.398 368.468 110.806 369.224C111.226 369.968 111.436 370.826 111.436 371.798ZM108.826 371.078C108.814 370.43 108.58 369.914 108.124 369.53C107.668 369.134 107.11 368.936 106.45 368.936C105.826 368.936 105.298 369.128 104.866 369.512C104.446 369.884 104.188 370.406 104.092 371.078H108.826ZM118.801 366.884C119.989 366.884 120.949 367.262 121.681 368.018C122.413 368.762 122.779 369.806 122.779 371.15V377H120.259V371.492C120.259 370.7 120.061 370.094 119.665 369.674C119.269 369.242 118.729 369.026 118.045 369.026C117.349 369.026 116.797 369.242 116.389 369.674C115.993 370.094 115.795 370.7 115.795 371.492V377H113.275V367.028H115.795V368.27C116.131 367.838 116.557 367.502 117.073 367.262C117.601 367.01 118.177 366.884 118.801 366.884ZM128.11 369.098V373.922C128.11 374.258 128.188 374.504 128.344 374.66C128.512 374.804 128.788 374.876 129.172 374.876H130.342V377H128.758C126.634 377 125.572 375.968 125.572 373.904V369.098H124.384V367.028H125.572V364.562H128.11V367.028H130.342V369.098H128.11Z" fill="white"/>
<circle cx="203.5" cy="99.5" r="99.5" fill="#1355FF"/>
<path d="M159.633 66.436V74.212C159.633 75.064 159.855 75.718 160.299 76.174C160.743 76.618 161.367 76.84 162.171 76.84C162.987 76.84 163.617 76.618 164.061 76.174C164.505 75.718 164.727 75.064 164.727 74.212V66.436H167.265V74.194C167.265 75.262 167.031 76.168 166.563 76.912C166.107 77.644 165.489 78.196 164.709 78.568C163.941 78.94 163.083 79.126 162.135 79.126C161.199 79.126 160.347 78.94 159.579 78.568C158.823 78.196 158.223 77.644 157.779 76.912C157.335 76.168 157.113 75.262 157.113 74.194V66.436H159.633ZM174.038 79.126C173.162 79.126 172.37 78.976 171.662 78.676C170.966 78.376 170.414 77.944 170.006 77.38C169.598 76.816 169.388 76.15 169.376 75.382H172.076C172.112 75.898 172.292 76.306 172.616 76.606C172.952 76.906 173.408 77.056 173.984 77.056C174.572 77.056 175.034 76.918 175.37 76.642C175.706 76.354 175.874 75.982 175.874 75.526C175.874 75.154 175.76 74.848 175.532 74.608C175.304 74.368 175.016 74.182 174.668 74.05C174.332 73.906 173.864 73.75 173.264 73.582C172.448 73.342 171.782 73.108 171.266 72.88C170.762 72.64 170.324 72.286 169.952 71.818C169.592 71.338 169.412 70.702 169.412 69.91C169.412 69.166 169.598 68.518 169.97 67.966C170.342 67.414 170.864 66.994 171.536 66.706C172.208 66.406 172.976 66.256 173.84 66.256C175.136 66.256 176.186 66.574 176.99 67.21C177.806 67.834 178.256 68.71 178.34 69.838H175.568C175.544 69.406 175.358 69.052 175.01 68.776C174.674 68.488 174.224 68.344 173.66 68.344C173.168 68.344 172.772 68.47 172.472 68.722C172.184 68.974 172.04 69.34 172.04 69.82C172.04 70.156 172.148 70.438 172.364 70.666C172.592 70.882 172.868 71.062 173.192 71.206C173.528 71.338 173.996 71.494 174.596 71.674C175.412 71.914 176.078 72.154 176.594 72.394C177.11 72.634 177.554 72.994 177.926 73.474C178.298 73.954 178.484 74.584 178.484 75.364C178.484 76.036 178.31 76.66 177.962 77.236C177.614 77.812 177.104 78.274 176.432 78.622C175.76 78.958 174.962 79.126 174.038 79.126ZM188.337 71.512V73.636H180.705V71.512H188.337ZM198.291 72.556C198.999 72.688 199.581 73.042 200.037 73.618C200.493 74.194 200.721 74.854 200.721 75.598C200.721 76.27 200.553 76.864 200.217 77.38C199.893 77.884 199.419 78.28 198.795 78.568C198.171 78.856 197.433 79 196.581 79H191.163V66.436H196.347C197.199 66.436 197.931 66.574 198.543 66.85C199.167 67.126 199.635 67.51 199.947 68.002C200.271 68.494 200.433 69.052 200.433 69.676C200.433 70.408 200.235 71.02 199.839 71.512C199.455 72.004 198.939 72.352 198.291 72.556ZM193.683 71.62H195.987C196.587 71.62 197.049 71.488 197.373 71.224C197.697 70.948 197.859 70.558 197.859 70.054C197.859 69.55 197.697 69.16 197.373 68.884C197.049 68.608 196.587 68.47 195.987 68.47H193.683V71.62ZM196.221 76.948C196.833 76.948 197.307 76.804 197.643 76.516C197.991 76.228 198.165 75.82 198.165 75.292C198.165 74.752 197.985 74.332 197.625 74.032C197.265 73.72 196.779 73.564 196.167 73.564H193.683V76.948H196.221ZM202.081 73.978C202.081 72.97 202.279 72.076 202.675 71.296C203.083 70.516 203.629 69.916 204.313 69.496C205.009 69.076 205.783 68.866 206.635 68.866C207.379 68.866 208.027 69.016 208.579 69.316C209.143 69.616 209.593 69.994 209.929 70.45V69.028H212.467V79H209.929V77.542C209.605 78.01 209.155 78.4 208.579 78.712C208.015 79.012 207.361 79.162 206.617 79.162C205.777 79.162 205.009 78.946 204.313 78.514C203.629 78.082 203.083 77.476 202.675 76.696C202.279 75.904 202.081 74.998 202.081 73.978ZM209.929 74.014C209.929 73.402 209.809 72.88 209.569 72.448C209.329 72.004 209.005 71.668 208.597 71.44C208.189 71.2 207.751 71.08 207.283 71.08C206.815 71.08 206.383 71.194 205.987 71.422C205.591 71.65 205.267 71.986 205.015 72.43C204.775 72.862 204.655 73.378 204.655 73.978C204.655 74.578 204.775 75.106 205.015 75.562C205.267 76.006 205.591 76.348 205.987 76.588C206.395 76.828 206.827 76.948 207.283 76.948C207.751 76.948 208.189 76.834 208.597 76.606C209.005 76.366 209.329 76.03 209.569 75.598C209.809 75.154 209.929 74.626 209.929 74.014ZM218.745 79.162C217.929 79.162 217.197 79.018 216.549 78.73C215.901 78.43 215.385 78.028 215.001 77.524C214.629 77.02 214.425 76.462 214.389 75.85H216.927C216.975 76.234 217.161 76.552 217.485 76.804C217.821 77.056 218.235 77.182 218.727 77.182C219.207 77.182 219.579 77.086 219.843 76.894C220.119 76.702 220.257 76.456 220.257 76.156C220.257 75.832 220.089 75.592 219.753 75.436C219.429 75.268 218.907 75.088 218.187 74.896C217.443 74.716 216.831 74.53 216.351 74.338C215.883 74.146 215.475 73.852 215.127 73.456C214.791 73.06 214.623 72.526 214.623 71.854C214.623 71.302 214.779 70.798 215.091 70.342C215.415 69.886 215.871 69.526 216.459 69.262C217.059 68.998 217.761 68.866 218.565 68.866C219.753 68.866 220.701 69.166 221.409 69.766C222.117 70.354 222.507 71.152 222.579 72.16H220.167C220.131 71.764 219.963 71.452 219.663 71.224C219.375 70.984 218.985 70.864 218.493 70.864C218.037 70.864 217.683 70.948 217.431 71.116C217.191 71.284 217.071 71.518 217.071 71.818C217.071 72.154 217.239 72.412 217.575 72.592C217.911 72.76 218.433 72.934 219.141 73.114C219.861 73.294 220.455 73.48 220.923 73.672C221.391 73.864 221.793 74.164 222.129 74.572C222.477 74.968 222.657 75.496 222.669 76.156C222.669 76.732 222.507 77.248 222.183 77.704C221.871 78.16 221.415 78.52 220.815 78.784C220.227 79.036 219.537 79.162 218.745 79.162ZM234.007 73.798C234.007 74.158 233.983 74.482 233.935 74.77H226.645C226.705 75.49 226.957 76.054 227.401 76.462C227.845 76.87 228.391 77.074 229.039 77.074C229.975 77.074 230.641 76.672 231.037 75.868H233.755C233.467 76.828 232.915 77.62 232.099 78.244C231.283 78.856 230.281 79.162 229.093 79.162C228.133 79.162 227.269 78.952 226.501 78.532C225.745 78.1 225.151 77.494 224.719 76.714C224.299 75.934 224.089 75.034 224.089 74.014C224.089 72.982 224.299 72.076 224.719 71.296C225.139 70.516 225.727 69.916 226.483 69.496C227.239 69.076 228.109 68.866 229.093 68.866C230.041 68.866 230.887 69.07 231.631 69.478C232.387 69.886 232.969 70.468 233.377 71.224C233.797 71.968 234.007 72.826 234.007 73.798ZM231.397 73.078C231.385 72.43 231.151 71.914 230.695 71.53C230.239 71.134 229.681 70.936 229.021 70.936C228.397 70.936 227.869 71.128 227.437 71.512C227.017 71.884 226.759 72.406 226.663 73.078H231.397ZM235.198 73.978C235.198 72.97 235.396 72.076 235.792 71.296C236.2 70.516 236.752 69.916 237.448 69.496C238.144 69.076 238.918 68.866 239.77 68.866C240.418 68.866 241.036 69.01 241.624 69.298C242.212 69.574 242.68 69.946 243.028 70.414V65.68H245.584V79H243.028V77.524C242.716 78.016 242.278 78.412 241.714 78.712C241.15 79.012 240.496 79.162 239.752 79.162C238.912 79.162 238.144 78.946 237.448 78.514C236.752 78.082 236.2 77.476 235.792 76.696C235.396 75.904 235.198 74.998 235.198 73.978ZM243.046 74.014C243.046 73.402 242.926 72.88 242.686 72.448C242.446 72.004 242.122 71.668 241.714 71.44C241.306 71.2 240.868 71.08 240.4 71.08C239.932 71.08 239.5 71.194 239.104 71.422C238.708 71.65 238.384 71.986 238.132 72.43C237.892 72.862 237.772 73.378 237.772 73.978C237.772 74.578 237.892 75.106 238.132 75.562C238.384 76.006 238.708 76.348 239.104 76.588C239.512 76.828 239.944 76.948 240.4 76.948C240.868 76.948 241.306 76.834 241.714 76.606C242.122 76.366 242.446 76.03 242.686 75.598C242.926 75.154 243.046 74.626 243.046 74.014ZM156.117 93.436V106H153.597V97.828L150.231 106H148.323L144.939 97.828V106H142.419V93.436H145.281L149.277 102.778L153.273 93.436H156.117ZM157.96 100.978C157.96 99.97 158.158 99.076 158.554 98.296C158.962 97.516 159.508 96.916 160.192 96.496C160.888 96.076 161.662 95.866 162.514 95.866C163.258 95.866 163.906 96.016 164.458 96.316C165.022 96.616 165.472 96.994 165.808 97.45V96.028H168.346V106H165.808V104.542C165.484 105.01 165.034 105.4 164.458 105.712C163.894 106.012 163.24 106.162 162.496 106.162C161.656 106.162 160.888 105.946 160.192 105.514C159.508 105.082 158.962 104.476 158.554 103.696C158.158 102.904 157.96 101.998 157.96 100.978ZM165.808 101.014C165.808 100.402 165.688 99.88 165.448 99.448C165.208 99.004 164.884 98.668 164.476 98.44C164.068 98.2 163.63 98.08 163.162 98.08C162.694 98.08 162.262 98.194 161.866 98.422C161.47 98.65 161.146 98.986 160.894 99.43C160.654 99.862 160.534 100.378 160.534 100.978C160.534 101.578 160.654 102.106 160.894 102.562C161.146 103.006 161.47 103.348 161.866 103.588C162.274 103.828 162.706 103.948 163.162 103.948C163.63 103.948 164.068 103.834 164.476 103.606C164.884 103.366 165.208 103.03 165.448 102.598C165.688 102.154 165.808 101.626 165.808 101.014ZM176.333 95.884C177.521 95.884 178.481 96.262 179.213 97.018C179.945 97.762 180.311 98.806 180.311 100.15V106H177.791V100.492C177.791 99.7 177.593 99.094 177.197 98.674C176.801 98.242 176.261 98.026 175.577 98.026C174.881 98.026 174.329 98.242 173.921 98.674C173.525 99.094 173.327 99.7 173.327 100.492V106H170.807V96.028H173.327V97.27C173.663 96.838 174.089 96.502 174.605 96.262C175.133 96.01 175.709 95.884 176.333 95.884ZM182.06 100.978C182.06 99.97 182.258 99.076 182.654 98.296C183.062 97.516 183.608 96.916 184.292 96.496C184.988 96.076 185.762 95.866 186.614 95.866C187.358 95.866 188.006 96.016 188.558 96.316C189.122 96.616 189.572 96.994 189.908 97.45V96.028H192.446V106H189.908V104.542C189.584 105.01 189.134 105.4 188.558 105.712C187.994 106.012 187.34 106.162 186.596 106.162C185.756 106.162 184.988 105.946 184.292 105.514C183.608 105.082 183.062 104.476 182.654 103.696C182.258 102.904 182.06 101.998 182.06 100.978ZM189.908 101.014C189.908 100.402 189.788 99.88 189.548 99.448C189.308 99.004 188.984 98.668 188.576 98.44C188.168 98.2 187.73 98.08 187.262 98.08C186.794 98.08 186.362 98.194 185.966 98.422C185.57 98.65 185.246 98.986 184.994 99.43C184.754 99.862 184.634 100.378 184.634 100.978C184.634 101.578 184.754 102.106 184.994 102.562C185.246 103.006 185.57 103.348 185.966 103.588C186.374 103.828 186.806 103.948 187.262 103.948C187.73 103.948 188.168 103.834 188.576 103.606C188.984 103.366 189.308 103.03 189.548 102.598C189.788 102.154 189.908 101.626 189.908 101.014ZM198.813 95.866C199.557 95.866 200.211 96.016 200.775 96.316C201.339 96.604 201.783 96.982 202.107 97.45V96.028H204.645V106.072C204.645 106.996 204.459 107.818 204.087 108.538C203.715 109.27 203.157 109.846 202.413 110.266C201.669 110.698 200.769 110.914 199.713 110.914C198.297 110.914 197.133 110.584 196.221 109.924C195.321 109.264 194.811 108.364 194.691 107.224H197.193C197.325 107.68 197.607 108.04 198.039 108.304C198.483 108.58 199.017 108.718 199.641 108.718C200.373 108.718 200.967 108.496 201.423 108.052C201.879 107.62 202.107 106.96 202.107 106.072V104.524C201.783 104.992 201.333 105.382 200.757 105.694C200.193 106.006 199.545 106.162 198.813 106.162C197.973 106.162 197.205 105.946 196.509 105.514C195.813 105.082 195.261 104.476 194.853 103.696C194.457 102.904 194.259 101.998 194.259 100.978C194.259 99.97 194.457 99.076 194.853 98.296C195.261 97.516 195.807 96.916 196.491 96.496C197.187 96.076 197.961 95.866 198.813 95.866ZM202.107 101.014C202.107 100.402 201.987 99.88 201.747 99.448C201.507 99.004 201.183 98.668 200.775 98.44C200.367 98.2 199.929 98.08 199.461 98.08C198.993 98.08 198.561 98.194 198.165 98.422C197.769 98.65 197.445 98.986 197.193 99.43C196.953 99.862 196.833 100.378 196.833 100.978C196.833 101.578 196.953 102.106 197.193 102.562C197.445 103.006 197.769 103.348 198.165 103.588C198.573 103.828 199.005 103.948 199.461 103.948C199.929 103.948 200.367 103.834 200.775 103.606C201.183 103.366 201.507 103.03 201.747 102.598C201.987 102.154 202.107 101.626 202.107 101.014ZM216.376 100.798C216.376 101.158 216.352 101.482 216.304 101.77H209.014C209.074 102.49 209.326 103.054 209.77 103.462C210.214 103.87 210.76 104.074 211.408 104.074C212.344 104.074 213.01 103.672 213.406 102.868H216.124C215.836 103.828 215.284 104.62 214.468 105.244C213.652 105.856 212.65 106.162 211.462 106.162C210.502 106.162 209.638 105.952 208.87 105.532C208.114 105.1 207.52 104.494 207.088 103.714C206.668 102.934 206.458 102.034 206.458 101.014C206.458 99.982 206.668 99.076 207.088 98.296C207.508 97.516 208.096 96.916 208.852 96.496C209.608 96.076 210.478 95.866 211.462 95.866C212.41 95.866 213.256 96.07 214 96.478C214.756 96.886 215.338 97.468 215.746 98.224C216.166 98.968 216.376 99.826 216.376 100.798ZM213.766 100.078C213.754 99.43 213.52 98.914 213.064 98.53C212.608 98.134 212.05 97.936 211.39 97.936C210.766 97.936 210.238 98.128 209.806 98.512C209.386 98.884 209.128 99.406 209.032 100.078H213.766ZM230.6 95.884C231.824 95.884 232.808 96.262 233.552 97.018C234.308 97.762 234.686 98.806 234.686 100.15V106H232.166V100.492C232.166 99.712 231.968 99.118 231.572 98.71C231.176 98.29 230.636 98.08 229.952 98.08C229.268 98.08 228.722 98.29 228.314 98.71C227.918 99.118 227.72 99.712 227.72 100.492V106H225.2V100.492C225.2 99.712 225.002 99.118 224.606 98.71C224.21 98.29 223.67 98.08 222.986 98.08C222.29 98.08 221.738 98.29 221.33 98.71C220.934 99.118 220.736 99.712 220.736 100.492V106H218.216V96.028H220.736V97.234C221.06 96.814 221.474 96.484 221.978 96.244C222.494 96.004 223.058 95.884 223.67 95.884C224.45 95.884 225.146 96.052 225.758 96.388C226.37 96.712 226.844 97.18 227.18 97.792C227.504 97.216 227.972 96.754 228.584 96.406C229.208 96.058 229.88 95.884 230.6 95.884ZM246.347 100.798C246.347 101.158 246.323 101.482 246.275 101.77H238.985C239.045 102.49 239.297 103.054 239.741 103.462C240.185 103.87 240.731 104.074 241.379 104.074C242.315 104.074 242.981 103.672 243.377 102.868H246.095C245.807 103.828 245.255 104.62 244.439 105.244C243.623 105.856 242.621 106.162 241.433 106.162C240.473 106.162 239.609 105.952 238.841 105.532C238.085 105.1 237.491 104.494 237.059 103.714C236.639 102.934 236.429 102.034 236.429 101.014C236.429 99.982 236.639 99.076 237.059 98.296C237.479 97.516 238.067 96.916 238.823 96.496C239.579 96.076 240.449 95.866 241.433 95.866C242.381 95.866 243.227 96.07 243.971 96.478C244.727 96.886 245.309 97.468 245.717 98.224C246.137 98.968 246.347 99.826 246.347 100.798ZM243.737 100.078C243.725 99.43 243.491 98.914 243.035 98.53C242.579 98.134 242.021 97.936 241.361 97.936C240.737 97.936 240.209 98.128 239.777 98.512C239.357 98.884 239.099 99.406 239.003 100.078H243.737ZM253.712 95.884C254.9 95.884 255.86 96.262 256.592 97.018C257.324 97.762 257.69 98.806 257.69 100.15V106H255.17V100.492C255.17 99.7 254.972 99.094 254.576 98.674C254.18 98.242 253.64 98.026 252.956 98.026C252.26 98.026 251.708 98.242 251.3 98.674C250.904 99.094 250.706 99.7 250.706 100.492V106H248.186V96.028H250.706V97.27C251.042 96.838 251.468 96.502 251.984 96.262C252.512 96.01 253.088 95.884 253.712 95.884ZM263.021 98.098V102.922C263.021 103.258 263.099 103.504 263.255 103.66C263.423 103.804 263.699 103.876 264.083 103.876H265.253V106H263.669C261.545 106 260.483 104.968 260.483 102.904V98.098H259.295V96.028H260.483V93.562H263.021V96.028H265.253V98.098H263.021ZM170.614 115.954L165.754 136.258H163.288L168.148 115.954H170.614ZM176.956 133.126C176.08 133.126 175.288 132.976 174.58 132.676C173.884 132.376 173.332 131.944 172.924 131.38C172.516 130.816 172.306 130.15 172.294 129.382H174.994C175.03 129.898 175.21 130.306 175.534 130.606C175.87 130.906 176.326 131.056 176.902 131.056C177.49 131.056 177.952 130.918 178.288 130.642C178.624 130.354 178.792 129.982 178.792 129.526C178.792 129.154 178.678 128.848 178.45 128.608C178.222 128.368 177.934 128.182 177.586 128.05C177.25 127.906 176.782 127.75 176.182 127.582C175.366 127.342 174.7 127.108 174.184 126.88C173.68 126.64 173.242 126.286 172.87 125.818C172.51 125.338 172.33 124.702 172.33 123.91C172.33 123.166 172.516 122.518 172.888 121.966C173.26 121.414 173.782 120.994 174.454 120.706C175.126 120.406 175.894 120.256 176.758 120.256C178.054 120.256 179.104 120.574 179.908 121.21C180.724 121.834 181.174 122.71 181.258 123.838H178.486C178.462 123.406 178.276 123.052 177.928 122.776C177.592 122.488 177.142 122.344 176.578 122.344C176.086 122.344 175.69 122.47 175.39 122.722C175.102 122.974 174.958 123.34 174.958 123.82C174.958 124.156 175.066 124.438 175.282 124.666C175.51 124.882 175.786 125.062 176.11 125.206C176.446 125.338 176.914 125.494 177.514 125.674C178.33 125.914 178.996 126.154 179.512 126.394C180.028 126.634 180.472 126.994 180.844 127.474C181.216 127.954 181.402 128.584 181.402 129.364C181.402 130.036 181.228 130.66 180.88 131.236C180.532 131.812 180.022 132.274 179.35 132.622C178.678 132.958 177.88 133.126 176.956 133.126ZM193.001 123.028V133H190.463V131.74C190.139 132.172 189.713 132.514 189.185 132.766C188.669 133.006 188.105 133.126 187.493 133.126C186.713 133.126 186.023 132.964 185.423 132.64C184.823 132.304 184.349 131.818 184.001 131.182C183.665 130.534 183.497 129.766 183.497 128.878V123.028H186.017V128.518C186.017 129.31 186.215 129.922 186.611 130.354C187.007 130.774 187.547 130.984 188.231 130.984C188.927 130.984 189.473 130.774 189.869 130.354C190.265 129.922 190.463 129.31 190.463 128.518V123.028H193.001ZM198.007 124.468C198.331 124.012 198.775 123.634 199.339 123.334C199.915 123.022 200.569 122.866 201.301 122.866C202.153 122.866 202.921 123.076 203.605 123.496C204.301 123.916 204.847 124.516 205.243 125.296C205.651 126.064 205.855 126.958 205.855 127.978C205.855 128.998 205.651 129.904 205.243 130.696C204.847 131.476 204.301 132.082 203.605 132.514C202.921 132.946 202.153 133.162 201.301 133.162C200.569 133.162 199.921 133.012 199.357 132.712C198.805 132.412 198.355 132.034 198.007 131.578V137.752H195.487V123.028H198.007V124.468ZM203.281 127.978C203.281 127.378 203.155 126.862 202.903 126.43C202.663 125.986 202.339 125.65 201.931 125.422C201.535 125.194 201.103 125.08 200.635 125.08C200.179 125.08 199.747 125.2 199.339 125.44C198.943 125.668 198.619 126.004 198.367 126.448C198.127 126.892 198.007 127.414 198.007 128.014C198.007 128.614 198.127 129.136 198.367 129.58C198.619 130.024 198.943 130.366 199.339 130.606C199.747 130.834 200.179 130.948 200.635 130.948C201.103 130.948 201.535 130.828 201.931 130.588C202.339 130.348 202.663 130.006 202.903 129.562C203.155 129.118 203.281 128.59 203.281 127.978ZM210.206 124.468C210.53 124.012 210.974 123.634 211.538 123.334C212.114 123.022 212.768 122.866 213.5 122.866C214.352 122.866 215.12 123.076 215.804 123.496C216.5 123.916 217.046 124.516 217.442 125.296C217.85 126.064 218.054 126.958 218.054 127.978C218.054 128.998 217.85 129.904 217.442 130.696C217.046 131.476 216.5 132.082 215.804 132.514C215.12 132.946 214.352 133.162 213.5 133.162C212.768 133.162 212.12 133.012 211.556 132.712C211.004 132.412 210.554 132.034 210.206 131.578V137.752H207.686V123.028H210.206V124.468ZM215.48 127.978C215.48 127.378 215.354 126.862 215.102 126.43C214.862 125.986 214.538 125.65 214.13 125.422C213.734 125.194 213.302 125.08 212.834 125.08C212.378 125.08 211.946 125.2 211.538 125.44C211.142 125.668 210.818 126.004 210.566 126.448C210.326 126.892 210.206 127.414 210.206 128.014C210.206 128.614 210.326 129.136 210.566 129.58C210.818 130.024 211.142 130.366 211.538 130.606C211.946 130.834 212.378 130.948 212.834 130.948C213.302 130.948 213.734 130.828 214.13 130.588C214.538 130.348 214.862 130.006 215.102 129.562C215.354 129.118 215.48 128.59 215.48 127.978ZM224.314 133.162C223.354 133.162 222.49 132.952 221.722 132.532C220.954 132.1 220.348 131.494 219.904 130.714C219.472 129.934 219.256 129.034 219.256 128.014C219.256 126.994 219.478 126.094 219.922 125.314C220.378 124.534 220.996 123.934 221.776 123.514C222.556 123.082 223.426 122.866 224.386 122.866C225.346 122.866 226.216 123.082 226.996 123.514C227.776 123.934 228.388 124.534 228.832 125.314C229.288 126.094 229.516 126.994 229.516 128.014C229.516 129.034 229.282 129.934 228.814 130.714C228.358 131.494 227.734 132.1 226.942 132.532C226.162 132.952 225.286 133.162 224.314 133.162ZM224.314 130.966C224.77 130.966 225.196 130.858 225.592 130.642C226 130.414 226.324 130.078 226.564 129.634C226.804 129.19 226.924 128.65 226.924 128.014C226.924 127.066 226.672 126.34 226.168 125.836C225.676 125.32 225.07 125.062 224.35 125.062C223.63 125.062 223.024 125.32 222.532 125.836C222.052 126.34 221.812 127.066 221.812 128.014C221.812 128.962 222.046 129.694 222.514 130.21C222.994 130.714 223.594 130.966 224.314 130.966ZM233.884 124.576C234.208 124.048 234.628 123.634 235.144 123.334C235.672 123.034 236.272 122.884 236.944 122.884V125.53H236.278C235.486 125.53 234.886 125.716 234.478 126.088C234.082 126.46 233.884 127.108 233.884 128.032V133H231.364V123.028H233.884V124.576ZM241.575 125.098V129.922C241.575 130.258 241.653 130.504 241.809 130.66C241.977 130.804 242.253 130.876 242.637 130.876H243.807V133H242.223C240.099 133 239.037 131.968 239.037 129.904V125.098H237.849V123.028H239.037V120.562H241.575V123.028H243.807V125.098H241.575Z" fill="white"/>
<path d="M279.819 350.126C278.643 350.126 277.563 349.85 276.579 349.298C275.595 348.746 274.815 347.984 274.239 347.012C273.663 346.028 273.375 344.918 273.375 343.682C273.375 342.458 273.663 341.36 274.239 340.388C274.815 339.404 275.595 338.636 276.579 338.084C277.563 337.532 278.643 337.256 279.819 337.256C281.007 337.256 282.087 337.532 283.059 338.084C284.043 338.636 284.817 339.404 285.381 340.388C285.957 341.36 286.245 342.458 286.245 343.682C286.245 344.918 285.957 346.028 285.381 347.012C284.817 347.984 284.043 348.746 283.059 349.298C282.075 349.85 280.995 350.126 279.819 350.126ZM279.819 347.876C280.575 347.876 281.241 347.708 281.817 347.372C282.393 347.024 282.843 346.532 283.167 345.896C283.491 345.26 283.653 344.522 283.653 343.682C283.653 342.842 283.491 342.11 283.167 341.486C282.843 340.85 282.393 340.364 281.817 340.028C281.241 339.692 280.575 339.524 279.819 339.524C279.063 339.524 278.391 339.692 277.803 340.028C277.227 340.364 276.777 340.85 276.453 341.486C276.129 342.11 275.967 342.842 275.967 343.682C275.967 344.522 276.129 345.26 276.453 345.896C276.777 346.532 277.227 347.024 277.803 347.372C278.391 347.708 279.063 347.876 279.819 347.876ZM292.278 347.678L294.798 340.028H297.48L293.79 350H290.73L287.058 340.028H289.758L292.278 347.678ZM308.165 344.798C308.165 345.158 308.141 345.482 308.093 345.77H300.803C300.863 346.49 301.115 347.054 301.559 347.462C302.003 347.87 302.549 348.074 303.197 348.074C304.133 348.074 304.799 347.672 305.195 346.868H307.913C307.625 347.828 307.073 348.62 306.257 349.244C305.441 349.856 304.439 350.162 303.251 350.162C302.291 350.162 301.427 349.952 300.659 349.532C299.903 349.1 299.309 348.494 298.877 347.714C298.457 346.934 298.247 346.034 298.247 345.014C298.247 343.982 298.457 343.076 298.877 342.296C299.297 341.516 299.885 340.916 300.641 340.496C301.397 340.076 302.267 339.866 303.251 339.866C304.199 339.866 305.045 340.07 305.789 340.478C306.545 340.886 307.127 341.468 307.535 342.224C307.955 342.968 308.165 343.826 308.165 344.798ZM305.555 344.078C305.543 343.43 305.309 342.914 304.853 342.53C304.397 342.134 303.839 341.936 303.179 341.936C302.555 341.936 302.027 342.128 301.595 342.512C301.175 342.884 300.917 343.406 300.821 344.078H305.555ZM312.525 341.576C312.849 341.048 313.269 340.634 313.785 340.334C314.313 340.034 314.913 339.884 315.585 339.884V342.53H314.919C314.127 342.53 313.527 342.716 313.119 343.088C312.723 343.46 312.525 344.108 312.525 345.032V350H310.005V340.028H312.525V341.576ZM321.098 350.162C320.282 350.162 319.55 350.018 318.902 349.73C318.254 349.43 317.738 349.028 317.354 348.524C316.982 348.02 316.778 347.462 316.742 346.85H319.28C319.328 347.234 319.514 347.552 319.838 347.804C320.174 348.056 320.588 348.182 321.08 348.182C321.56 348.182 321.932 348.086 322.196 347.894C322.472 347.702 322.61 347.456 322.61 347.156C322.61 346.832 322.442 346.592 322.106 346.436C321.782 346.268 321.26 346.088 320.54 345.896C319.796 345.716 319.184 345.53 318.704 345.338C318.236 345.146 317.828 344.852 317.48 344.456C317.144 344.06 316.976 343.526 316.976 342.854C316.976 342.302 317.132 341.798 317.444 341.342C317.768 340.886 318.224 340.526 318.812 340.262C319.412 339.998 320.114 339.866 320.918 339.866C322.106 339.866 323.054 340.166 323.762 340.766C324.47 341.354 324.86 342.152 324.932 343.16H322.52C322.484 342.764 322.316 342.452 322.016 342.224C321.728 341.984 321.338 341.864 320.846 341.864C320.39 341.864 320.036 341.948 319.784 342.116C319.544 342.284 319.424 342.518 319.424 342.818C319.424 343.154 319.592 343.412 319.928 343.592C320.264 343.76 320.786 343.934 321.494 344.114C322.214 344.294 322.808 344.48 323.276 344.672C323.744 344.864 324.146 345.164 324.482 345.572C324.83 345.968 325.01 346.496 325.022 347.156C325.022 347.732 324.86 348.248 324.536 348.704C324.224 349.16 323.768 349.52 323.168 349.784C322.58 350.036 321.89 350.162 321.098 350.162ZM336.361 344.798C336.361 345.158 336.337 345.482 336.289 345.77H328.999C329.059 346.49 329.311 347.054 329.755 347.462C330.199 347.87 330.745 348.074 331.393 348.074C332.329 348.074 332.995 347.672 333.391 346.868H336.109C335.821 347.828 335.269 348.62 334.453 349.244C333.637 349.856 332.635 350.162 331.447 350.162C330.487 350.162 329.623 349.952 328.855 349.532C328.099 349.1 327.505 348.494 327.073 347.714C326.653 346.934 326.443 346.034 326.443 345.014C326.443 343.982 326.653 343.076 327.073 342.296C327.493 341.516 328.081 340.916 328.837 340.496C329.593 340.076 330.463 339.866 331.447 339.866C332.395 339.866 333.241 340.07 333.985 340.478C334.741 340.886 335.323 341.468 335.731 342.224C336.151 342.968 336.361 343.826 336.361 344.798ZM333.751 344.078C333.739 343.43 333.505 342.914 333.049 342.53C332.593 342.134 332.035 341.936 331.375 341.936C330.751 341.936 330.223 342.128 329.791 342.512C329.371 342.884 329.113 343.406 329.017 344.078H333.751ZM337.552 344.978C337.552 343.97 337.75 343.076 338.146 342.296C338.554 341.516 339.1 340.916 339.784 340.496C340.48 340.076 341.254 339.866 342.106 339.866C342.85 339.866 343.498 340.016 344.05 340.316C344.614 340.616 345.064 340.994 345.4 341.45V340.028H347.938V350H345.4V348.542C345.076 349.01 344.626 349.4 344.05 349.712C343.486 350.012 342.832 350.162 342.088 350.162C341.248 350.162 340.48 349.946 339.784 349.514C339.1 349.082 338.554 348.476 338.146 347.696C337.75 346.904 337.552 345.998 337.552 344.978ZM345.4 345.014C345.4 344.402 345.28 343.88 345.04 343.448C344.8 343.004 344.476 342.668 344.068 342.44C343.66 342.2 343.222 342.08 342.754 342.08C342.286 342.08 341.854 342.194 341.458 342.422C341.062 342.65 340.738 342.986 340.486 343.43C340.246 343.862 340.126 344.378 340.126 344.978C340.126 345.578 340.246 346.106 340.486 346.562C340.738 347.006 341.062 347.348 341.458 347.588C341.866 347.828 342.298 347.948 342.754 347.948C343.222 347.948 343.66 347.834 344.068 347.606C344.476 347.366 344.8 347.03 345.04 346.598C345.28 346.154 345.4 345.626 345.4 345.014ZM354.215 350.162C353.399 350.162 352.667 350.018 352.019 349.73C351.371 349.43 350.855 349.028 350.471 348.524C350.099 348.02 349.895 347.462 349.859 346.85H352.397C352.445 347.234 352.631 347.552 352.955 347.804C353.291 348.056 353.705 348.182 354.197 348.182C354.677 348.182 355.049 348.086 355.313 347.894C355.589 347.702 355.727 347.456 355.727 347.156C355.727 346.832 355.559 346.592 355.223 346.436C354.899 346.268 354.377 346.088 353.657 345.896C352.913 345.716 352.301 345.53 351.821 345.338C351.353 345.146 350.945 344.852 350.597 344.456C350.261 344.06 350.093 343.526 350.093 342.854C350.093 342.302 350.249 341.798 350.561 341.342C350.885 340.886 351.341 340.526 351.929 340.262C352.529 339.998 353.231 339.866 354.035 339.866C355.223 339.866 356.171 340.166 356.879 340.766C357.587 341.354 357.977 342.152 358.049 343.16H355.637C355.601 342.764 355.433 342.452 355.133 342.224C354.845 341.984 354.455 341.864 353.963 341.864C353.507 341.864 353.153 341.948 352.901 342.116C352.661 342.284 352.541 342.518 352.541 342.818C352.541 343.154 352.709 343.412 353.045 343.592C353.381 343.76 353.903 343.934 354.611 344.114C355.331 344.294 355.925 344.48 356.393 344.672C356.861 344.864 357.263 345.164 357.599 345.572C357.947 345.968 358.127 346.496 358.139 347.156C358.139 347.732 357.977 348.248 357.653 348.704C357.341 349.16 356.885 349.52 356.285 349.784C355.697 350.036 355.007 350.162 354.215 350.162ZM261.917 364.436C263.237 364.436 264.395 364.694 265.391 365.21C266.399 365.726 267.173 366.464 267.713 367.424C268.265 368.372 268.541 369.476 268.541 370.736C268.541 371.996 268.265 373.1 267.713 374.048C267.173 374.984 266.399 375.71 265.391 376.226C264.395 376.742 263.237 377 261.917 377H257.525V364.436H261.917ZM261.827 374.858C263.147 374.858 264.167 374.498 264.887 373.778C265.607 373.058 265.967 372.044 265.967 370.736C265.967 369.428 265.607 368.408 264.887 367.676C264.167 366.932 263.147 366.56 261.827 366.56H260.045V374.858H261.827ZM279.698 371.798C279.698 372.158 279.674 372.482 279.626 372.77H272.336C272.396 373.49 272.648 374.054 273.092 374.462C273.536 374.87 274.082 375.074 274.73 375.074C275.666 375.074 276.332 374.672 276.728 373.868H279.446C279.158 374.828 278.606 375.62 277.79 376.244C276.974 376.856 275.972 377.162 274.784 377.162C273.824 377.162 272.96 376.952 272.192 376.532C271.436 376.1 270.842 375.494 270.41 374.714C269.99 373.934 269.78 373.034 269.78 372.014C269.78 370.982 269.99 370.076 270.41 369.296C270.83 368.516 271.418 367.916 272.174 367.496C272.93 367.076 273.8 366.866 274.784 366.866C275.732 366.866 276.578 367.07 277.322 367.478C278.078 367.886 278.66 368.468 279.068 369.224C279.488 369.968 279.698 370.826 279.698 371.798ZM277.088 371.078C277.076 370.43 276.842 369.914 276.386 369.53C275.93 369.134 275.372 368.936 274.712 368.936C274.088 368.936 273.56 369.128 273.128 369.512C272.708 369.884 272.45 370.406 272.354 371.078H277.088ZM285.695 374.678L288.215 367.028H290.897L287.207 377H284.147L280.475 367.028H283.175L285.695 374.678ZM301.582 371.798C301.582 372.158 301.558 372.482 301.51 372.77H294.22C294.28 373.49 294.532 374.054 294.976 374.462C295.42 374.87 295.966 375.074 296.614 375.074C297.55 375.074 298.216 374.672 298.612 373.868H301.33C301.042 374.828 300.49 375.62 299.674 376.244C298.858 376.856 297.856 377.162 296.668 377.162C295.708 377.162 294.844 376.952 294.076 376.532C293.32 376.1 292.726 375.494 292.294 374.714C291.874 373.934 291.664 373.034 291.664 372.014C291.664 370.982 291.874 370.076 292.294 369.296C292.714 368.516 293.302 367.916 294.058 367.496C294.814 367.076 295.684 366.866 296.668 366.866C297.616 366.866 298.462 367.07 299.206 367.478C299.962 367.886 300.544 368.468 300.952 369.224C301.372 369.968 301.582 370.826 301.582 371.798ZM298.972 371.078C298.96 370.43 298.726 369.914 298.27 369.53C297.814 369.134 297.256 368.936 296.596 368.936C295.972 368.936 295.444 369.128 295.012 369.512C294.592 369.884 294.334 370.406 294.238 371.078H298.972ZM305.942 363.68V377H303.422V363.68H305.942ZM312.859 377.162C311.899 377.162 311.035 376.952 310.267 376.532C309.499 376.1 308.893 375.494 308.449 374.714C308.017 373.934 307.801 373.034 307.801 372.014C307.801 370.994 308.023 370.094 308.467 369.314C308.923 368.534 309.541 367.934 310.321 367.514C311.101 367.082 311.971 366.866 312.931 366.866C313.891 366.866 314.761 367.082 315.541 367.514C316.321 367.934 316.933 368.534 317.377 369.314C317.833 370.094 318.061 370.994 318.061 372.014C318.061 373.034 317.827 373.934 317.359 374.714C316.903 375.494 316.279 376.1 315.487 376.532C314.707 376.952 313.831 377.162 312.859 377.162ZM312.859 374.966C313.315 374.966 313.741 374.858 314.137 374.642C314.545 374.414 314.869 374.078 315.109 373.634C315.349 373.19 315.469 372.65 315.469 372.014C315.469 371.066 315.217 370.34 314.713 369.836C314.221 369.32 313.615 369.062 312.895 369.062C312.175 369.062 311.569 369.32 311.077 369.836C310.597 370.34 310.357 371.066 310.357 372.014C310.357 372.962 310.591 373.694 311.059 374.21C311.539 374.714 312.139 374.966 312.859 374.966ZM322.43 368.468C322.754 368.012 323.198 367.634 323.762 367.334C324.338 367.022 324.992 366.866 325.724 366.866C326.576 366.866 327.344 367.076 328.028 367.496C328.724 367.916 329.27 368.516 329.666 369.296C330.074 370.064 330.278 370.958 330.278 371.978C330.278 372.998 330.074 373.904 329.666 374.696C329.27 375.476 328.724 376.082 328.028 376.514C327.344 376.946 326.576 377.162 325.724 377.162C324.992 377.162 324.344 377.012 323.78 376.712C323.228 376.412 322.778 376.034 322.43 375.578V381.752H319.91V367.028H322.43V368.468ZM327.704 371.978C327.704 371.378 327.578 370.862 327.326 370.43C327.086 369.986 326.762 369.65 326.354 369.422C325.958 369.194 325.526 369.08 325.058 369.08C324.602 369.08 324.17 369.2 323.762 369.44C323.366 369.668 323.042 370.004 322.79 370.448C322.55 370.892 322.43 371.414 322.43 372.014C322.43 372.614 322.55 373.136 322.79 373.58C323.042 374.024 323.366 374.366 323.762 374.606C324.17 374.834 324.602 374.948 325.058 374.948C325.526 374.948 325.958 374.828 326.354 374.588C326.762 374.348 327.086 374.006 327.326 373.562C327.578 373.118 327.704 372.59 327.704 371.978ZM344.493 366.884C345.717 366.884 346.701 367.262 347.445 368.018C348.201 368.762 348.579 369.806 348.579 371.15V377H346.059V371.492C346.059 370.712 345.861 370.118 345.465 369.71C345.069 369.29 344.529 369.08 343.845 369.08C343.161 369.08 342.615 369.29 342.207 369.71C341.811 370.118 341.613 370.712 341.613 371.492V377H339.093V371.492C339.093 370.712 338.895 370.118 338.499 369.71C338.103 369.29 337.563 369.08 336.879 369.08C336.183 369.08 335.631 369.29 335.223 369.71C334.827 370.118 334.629 370.712 334.629 371.492V377H332.109V367.028H334.629V368.234C334.953 367.814 335.367 367.484 335.871 367.244C336.387 367.004 336.951 366.884 337.563 366.884C338.343 366.884 339.039 367.052 339.651 367.388C340.263 367.712 340.737 368.18 341.073 368.792C341.397 368.216 341.865 367.754 342.477 367.406C343.101 367.058 343.773 366.884 344.493 366.884ZM360.241 371.798C360.241 372.158 360.217 372.482 360.169 372.77H352.879C352.939 373.49 353.191 374.054 353.635 374.462C354.079 374.87 354.625 375.074 355.273 375.074C356.209 375.074 356.875 374.672 357.271 373.868H359.989C359.701 374.828 359.149 375.62 358.333 376.244C357.517 376.856 356.515 377.162 355.327 377.162C354.367 377.162 353.503 376.952 352.735 376.532C351.979 376.1 351.385 375.494 350.953 374.714C350.533 373.934 350.323 373.034 350.323 372.014C350.323 370.982 350.533 370.076 350.953 369.296C351.373 368.516 351.961 367.916 352.717 367.496C353.473 367.076 354.343 366.866 355.327 366.866C356.275 366.866 357.121 367.07 357.865 367.478C358.621 367.886 359.203 368.468 359.611 369.224C360.031 369.968 360.241 370.826 360.241 371.798ZM357.631 371.078C357.619 370.43 357.385 369.914 356.929 369.53C356.473 369.134 355.915 368.936 355.255 368.936C354.631 368.936 354.103 369.128 353.671 369.512C353.251 369.884 352.993 370.406 352.897 371.078H357.631ZM367.606 366.884C368.794 366.884 369.754 367.262 370.486 368.018C371.218 368.762 371.584 369.806 371.584 371.15V377H369.064V371.492C369.064 370.7 368.866 370.094 368.47 369.674C368.074 369.242 367.534 369.026 366.85 369.026C366.154 369.026 365.602 369.242 365.194 369.674C364.798 370.094 364.6 370.7 364.6 371.492V377H362.08V367.028H364.6V368.27C364.936 367.838 365.362 367.502 365.878 367.262C366.406 367.01 366.982 366.884 367.606 366.884ZM376.914 369.098V373.922C376.914 374.258 376.992 374.504 377.148 374.66C377.316 374.804 377.592 374.876 377.976 374.876H379.146V377H377.562C375.438 377 374.376 375.968 374.376 373.904V369.098H373.188V367.028H374.376V364.562H376.914V367.028H379.146V369.098H376.914Z" fill="white"/>
<path d="M204 368V344M204 344L198 350.479M204 344L210 350.479" stroke="white" stroke-width="2" stroke-linecap="round"/>
</svg>
