<svg width="48" height="48" viewBox="0 0 48 48" fill="none" xmlns="http://www.w3.org/2000/svg">
<g clip-path="url(#clip0_333_25548)">
<path d="M48 24C48 10.7452 37.2548 0 24 0C10.7452 0 0 10.7452 0 24C0 37.2548 10.7452 48 24 48C37.2548 48 48 37.2548 48 24Z" fill="#272829"/>
<mask id="mask0_333_25548" style="mask-type:alpha" maskUnits="userSpaceOnUse" x="12" y="12" width="24" height="24">
<path d="M35.3906 12.5H12.3906V35.5H35.3906V12.5Z" fill="#D9D9D9"/>
</mask>
<g mask="url(#mask0_333_25548)">
<path d="M18.8104 30.9962C18.6347 30.8205 18.5469 30.5969 18.5469 30.3253C18.5469 30.0538 18.6347 29.8302 18.8104 29.6545L22.9313 25.5337V19.0889L21.1344 20.8857C20.9587 21.0614 20.7392 21.1493 20.476 21.1493C20.2122 21.1493 19.9844 21.0535 19.7927 20.8618C19.6011 20.6701 19.5052 20.4424 19.5052 20.1785C19.5052 19.9153 19.6011 19.6878 19.7927 19.4962L23.2188 16.0701C23.3146 15.9743 23.4184 15.9062 23.5302 15.866C23.642 15.8264 23.7618 15.8066 23.8896 15.8066C24.0174 15.8066 24.1372 15.8264 24.249 15.866C24.3608 15.9062 24.4646 15.9743 24.5604 16.0701L28.0344 19.5441C28.2101 19.7198 28.3021 19.9392 28.3104 20.2024C28.3181 20.4663 28.2261 20.6941 28.0344 20.8857C27.8427 21.0774 27.6153 21.1732 27.3521 21.1732C27.0882 21.1732 26.8604 21.0774 26.6688 20.8857L24.8479 19.0889V26.3003L20.1281 31.0201C19.9524 31.1958 19.7368 31.2837 19.4813 31.2837C19.2257 31.2837 19.0021 31.1878 18.8104 30.9962ZM27.6271 31.0201L25.2313 28.6482L26.5969 27.2826L28.9927 29.7024C29.1684 29.8781 29.2563 30.0937 29.2563 30.3493C29.2563 30.6048 29.1604 30.8285 28.9688 31.0201C28.7931 31.1958 28.5736 31.2837 28.3104 31.2837C28.0465 31.2837 27.8188 31.1958 27.6271 31.0201Z" fill="white"/>
</g>
</g>
<defs>
<clipPath id="clip0_333_25548">
<rect width="48" height="48" fill="white"/>
</clipPath>
</defs>
</svg>
