<svg width="74" height="102" viewBox="0 0 74 102" fill="none" xmlns="http://www.w3.org/2000/svg">
<g clip-path="url(#clip0_344_32234)">
<path d="M38.74 37.1048C38.702 37.2907 39.1189 41.7258 39.0839 41.9117C39.0989 42.1267 39.1319 42.3386 39.1839 42.5476L39.2239 41.2799L40.6596 38.2365C40.7066 37.7436 38.775 37.2337 38.74 37.1048ZM60.0804 74.0468C60.0994 74.3467 59.8804 81.4452 59.8944 81.7451C59.9124 82.0021 59.8454 82.451 59.8394 82.7639L59.8194 80.7333L59.0536 75.8594C59.0286 75.0656 60.0634 74.2567 60.0804 74.0468ZM31.7625 6.27344C31.7815 6.57337 31.5626 13.6718 31.5795 13.9718C31.5955 14.2307 31.5326 14.6796 31.5226 14.9916L31.5026 12.961L30.7357 8.08405C30.7127 7.29522 31.7475 6.48139 31.7625 6.27344Z" fill="#485754"/>
<path d="M57.1266 98.8546C57.8955 98.8546 58.633 99.1601 59.1768 99.7038C59.7205 100.248 60.026 100.985 60.026 101.754H64.0691C64.038 101.227 64.1516 100.701 64.3976 100.233C64.6436 99.7659 65.0126 99.3745 65.4648 99.1015C65.917 98.8285 66.4352 98.6842 66.9635 98.6842C67.4917 98.6842 68.0099 98.8285 68.4621 99.1016C68.9143 99.3746 69.2833 99.766 69.5293 100.233C69.7753 100.701 69.8889 101.227 69.8578 101.754H73.9419V98.0298C73.4146 98.0609 72.8888 97.9473 72.4214 97.7013C71.9539 97.4553 71.5625 97.0863 71.2895 96.634C71.0164 96.1818 70.8721 95.6636 70.8721 95.1354C70.8721 94.6072 71.0165 94.089 71.2895 93.6367C71.5626 93.1846 71.9539 92.8156 72.4214 92.5696C72.8889 92.3236 73.4146 92.21 73.9419 92.2411V88.1979C73.433 88.1978 72.9331 88.0638 72.4924 87.8093C72.0517 87.5548 71.6858 87.1888 71.4314 86.748C71.177 86.3073 71.043 85.8073 71.043 85.2984C71.0431 84.7895 71.177 84.2896 71.4315 83.8489C71.6859 83.4082 72.0519 83.0422 72.4925 82.7877C72.9332 82.5333 73.4331 82.3993 73.9419 82.3992V78.3601C73.4146 78.3911 72.8888 78.2775 72.4214 78.0315C71.9539 77.7855 71.5625 77.4165 71.2895 76.9643C71.0164 76.5121 70.8721 75.9939 70.8721 75.4656C70.8721 74.9374 71.0165 74.4192 71.2895 73.967C71.5626 73.5148 71.9539 73.1458 72.4214 72.8998C72.8889 72.6539 73.4146 72.5403 73.9419 72.5713V68.5282C73.4146 68.5592 72.8888 68.4456 72.4214 68.1996C71.9539 67.9537 71.5625 67.5846 71.2895 67.1324C71.0164 66.6802 70.8721 66.162 70.8721 65.6338C70.8721 65.1055 71.0165 64.5873 71.2895 64.1351C71.5626 63.6829 71.9539 63.3139 72.4214 63.068C72.8889 62.822 73.4146 62.7084 73.9419 62.7394V58.6973C73.4146 58.7284 72.8888 58.6148 72.4214 58.3688C71.9539 58.1228 71.5625 57.7538 71.2895 57.3016C71.0164 56.8493 70.8721 56.3311 70.8721 55.8029C70.8721 55.2747 71.0165 54.7565 71.2895 54.3043C71.5626 53.8521 71.9539 53.4831 72.4214 53.2371C72.8889 52.9911 73.4146 52.8775 73.9419 52.9086V48.8654C73.173 48.8654 72.4355 48.56 71.8918 48.0162C71.348 47.4725 71.0426 46.735 71.0426 45.9661C71.0426 45.1971 71.348 44.4596 71.8918 43.9159C72.4355 43.3722 73.173 43.0667 73.9419 43.0667V39.0276C73.433 39.0275 72.9331 38.8934 72.4924 38.6389C72.0517 38.3844 71.6858 38.0184 71.4314 37.5777C71.177 37.1369 71.043 36.637 71.043 36.1281C71.0431 35.6192 71.177 35.1192 71.4315 34.6785C71.6859 34.2378 72.0519 33.8718 72.4925 33.6174C72.9332 33.3629 73.4331 33.2289 73.9419 33.2288V29.1937C73.4146 29.2247 72.8888 29.1111 72.4214 28.8652C71.9539 28.6192 71.5625 28.2501 71.2895 27.7979C71.0164 27.3457 70.8721 26.8275 70.8721 26.2993C70.8721 25.771 71.0165 25.2528 71.2895 24.8006C71.5626 24.3484 71.9539 23.9794 72.4214 23.7335C72.8889 23.4875 73.4146 23.3739 73.9419 23.4049V19.3578C73.173 19.3578 72.4355 19.0523 71.8918 18.5086C71.348 17.9649 71.0426 17.2274 71.0426 16.4584C71.0426 15.6895 71.348 14.952 71.8918 14.4083C72.4355 13.8645 73.173 13.5591 73.9419 13.5591V9.51994C73.4146 9.55099 72.8888 9.43739 72.4214 9.1914C71.9539 8.94542 71.5625 8.57639 71.2895 8.12419C71.0164 7.67198 70.8721 7.15377 70.8721 6.62553C70.8721 6.09729 71.0165 5.57909 71.2895 5.12689C71.5626 4.6747 71.9539 4.3057 72.4214 4.05972C72.8889 3.81374 73.4146 3.70015 73.9419 3.73119V0H69.8548C69.8548 0.767834 69.5499 1.50367 69.007 2.04556C68.4641 2.58744 67.7283 2.89337 66.9615 2.89337C66.1946 2.89179 65.4595 2.58644 64.9173 2.04417C64.375 1.5019 64.0697 0.766884 64.0681 0L60.025 0C60.0234 0.767922 59.7172 1.50385 59.1736 2.04629C58.6301 2.58873 57.8935 2.89338 57.1256 2.89337C56.3577 2.89437 55.6209 2.59044 55.077 2.04756C54.5331 1.50467 54.2322 0.767834 54.2332 0H50.1901C50.1901 1.59765 48.8944 2.89337 47.2967 2.89337C46.5289 2.89337 45.793 2.58844 45.2512 2.04556C44.7093 1.50268 44.4033 0.767834 44.4033 0H40.3612C40.3612 0.768834 40.0553 1.50567 39.5114 2.04756C38.9675 2.58944 38.2297 2.89437 37.4618 2.89337C35.8652 2.89137 34.5725 1.59665 34.5725 0H30.5303C30.5303 1.59765 29.2346 2.89337 27.637 2.89337C27.2556 2.89519 26.8777 2.82176 26.5248 2.67731C26.1719 2.53286 25.851 2.32022 25.5804 2.05156C25.31 1.78262 25.0953 1.46298 24.9486 1.11094C24.8019 0.758897 24.7261 0.381377 24.7256 0H20.6825C20.6825 1.59765 19.3867 2.89337 17.7891 2.89337C17.0203 2.89437 16.2834 2.59044 15.7395 2.04756C15.1957 1.50467 14.8897 0.767834 14.8897 0H10.8466C10.8467 0.38079 10.7718 0.75787 10.6261 1.10971C10.4805 1.46154 10.267 1.78125 9.99777 2.05056C9.72846 2.31976 9.40876 2.53329 9.05692 2.67893C8.70509 2.82457 8.32801 2.89948 7.94722 2.89937C7.17947 2.89752 6.4438 2.59123 5.90157 2.0477C5.35935 1.50416 5.05484 0.767751 5.05484 0L0.969727 0V3.7182C1.73765 3.71978 2.47358 4.02596 3.01602 4.56952C3.55846 5.11309 3.8631 5.84965 3.8631 6.61757C3.8611 8.21422 2.56638 9.50694 0.969727 9.50694V13.5501C1.73765 13.5517 2.47358 13.8578 3.01602 14.4014C3.55846 14.945 3.8631 15.6815 3.8631 16.4494C3.86178 17.2165 3.55655 17.9518 3.01425 18.4943C2.47195 19.0367 1.73678 19.3422 0.969727 19.3438V23.3869C1.73756 23.3869 2.4734 23.6919 3.01528 24.2348C3.55717 24.7776 3.8631 25.5135 3.8631 26.2803C3.86284 27.0481 3.55808 27.7844 3.01566 28.3277C2.47325 28.8711 1.73748 29.1771 0.969727 29.1787L0.969727 33.2218C1.73856 33.2218 2.4754 33.5277 3.01728 34.0716C3.55917 34.6155 3.8641 35.3534 3.8631 36.1212C3.8621 36.889 3.55817 37.6249 3.01528 38.1667C2.4724 38.7086 1.73656 39.0146 0.969727 39.0146V43.0577C1.73765 43.0593 2.47358 43.3655 3.01602 43.909C3.55846 44.4526 3.8631 45.1891 3.8631 45.9571C3.8621 47.5547 2.56738 48.8494 0.969727 48.8494V52.8886C1.73856 52.8886 2.4754 53.1945 3.01828 53.7394C3.56117 54.2843 3.8651 55.0221 3.8631 55.7909C3.86231 56.5583 3.55731 57.2941 3.01496 57.837C2.4726 58.38 1.73713 58.6857 0.969727 58.6873L0.969727 62.7304C1.73856 62.7304 2.4764 63.0364 3.01928 63.5813C3.56217 64.1261 3.8661 64.865 3.8631 65.6338C3.8601 67.2295 2.56538 68.5222 0.969727 68.5222V72.5653C1.35056 72.5657 1.72757 72.6412 2.07924 72.7873C2.43091 72.9335 2.75034 73.1475 3.01928 73.4171C3.28795 73.6872 3.50075 74.0076 3.64554 74.3599C3.79033 74.7123 3.86425 75.0897 3.8631 75.4707C3.8591 77.0663 2.56538 78.3571 0.969727 78.3571V82.4002C1.73765 82.4018 2.47358 82.7079 3.01602 83.2515C3.55846 83.7951 3.8631 84.5316 3.8631 85.2996C3.86178 86.0666 3.55655 86.8019 3.01425 87.3444C2.47195 87.8869 1.73678 88.1923 0.969727 88.1939V92.2371C1.73756 92.2371 2.4734 92.542 3.01528 93.0849C3.55717 93.6278 3.8631 94.3636 3.8631 95.1304C3.8631 95.8984 3.55846 96.6349 3.01602 97.1785C2.47358 97.722 1.73765 98.0282 0.969727 98.0298V101.751H5.05484C5.05484 100.153 6.35056 98.8576 7.94822 98.8576C9.54587 98.8576 10.8416 100.153 10.8416 101.751H14.8847C14.8847 100.153 16.1804 98.8576 17.7781 98.8576C19.3757 98.8576 20.6715 100.153 20.6715 101.751H24.7146C24.6835 101.224 24.7971 100.698 25.0431 100.23C25.2891 99.7629 25.6581 99.3716 26.1103 99.0985C26.5626 98.8255 27.0808 98.6812 27.609 98.6812C28.1372 98.6812 28.6554 98.8255 29.1076 99.0986C29.5598 99.3716 29.9288 99.763 30.1748 100.23C30.4208 100.698 30.5344 101.224 30.5033 101.751H34.5455C34.5455 100.153 35.8412 98.8576 37.4388 98.8576C39.0365 98.8576 40.3322 100.153 40.3322 101.751H44.3753C44.3753 100.153 45.6711 98.8576 47.2687 98.8576C48.8664 98.8576 50.1621 100.153 50.1621 101.751H54.2052C54.2032 100.978 54.5112 100.236 55.06 99.6914C55.6089 99.1466 56.3527 98.8446 57.1256 98.8516L57.1266 98.8546Z" fill="#EAE3DD"/>
<path d="M7.21191 6.03906H67.6978V95.7117H7.21191V6.03906Z" fill="#A7C5B1"/>
<path d="M67.1275 6.61459V95.1355H7.79135V6.61459H67.1275ZM68.2773 5.46484H6.6416V96.2852H68.2763L68.2773 5.46484Z" fill="white"/>
<path d="M47.0147 45.8648L47.2007 45.6788V42.8904L10.9225 6.61328H7.78223V15.2024L38.4446 45.8648H47.0147ZM59.732 55.8826V67.1502L67.1184 74.5366V62.8071L60.1939 55.8826H59.732Z" fill="#9DBAA7"/>
<path d="M60.1939 55.8826L67.1184 62.8071V61.3584L61.6426 55.8826H60.1939ZM47.2007 41.4417L12.3712 6.61328H10.9225L47.2007 42.8904V41.4417ZM38.4446 45.8638L7.78223 15.2014V16.6501L36.9959 45.8638H38.4446ZM59.732 68.5999L67.1184 75.9863V74.5376L59.732 67.1512V68.5999Z" fill="#C5D9CC"/>
<path d="M59.732 45.8639H60.1939L67.1184 38.9394V27.2109L59.732 34.5993V45.8639ZM47.2007 55.8827H38.4446L7.78223 86.5451V95.1343H10.9225L47.2007 58.8571V55.8827Z" fill="#9DBAA7"/>
<path d="M47.2007 45.8644V45.6784L47.0147 45.8644H47.2007ZM61.6426 45.8644L67.1184 40.3886V38.9399L60.1939 45.8644H61.6426ZM59.732 34.5968L67.1184 27.2114V25.7617L59.732 33.1481V34.5968ZM47.2007 58.8576L10.9225 95.1347H12.3712L47.2007 60.3063V58.8576ZM36.9959 55.8832L7.78223 85.0969V86.5456L38.4446 55.8832H36.9959Z" fill="#C5D9CC"/>
<path d="M48.0635 55.0208V95.1351H58.8692V55.0208H67.1184V46.7226H58.8692V6.61328H48.0635V46.7276H7.78223V55.0258L48.0635 55.0208Z" fill="#9DBAA7"/>
<path d="M59.731 67.1512V55.8836H67.1174V55.0208H58.8682V95.1351H48.0635V55.0208H7.78223V55.8836H47.2007V95.1351H59.731V67.1512ZM48.0635 46.7276V6.61328H47.2007V45.8648H7.78223V46.7276H48.0635ZM58.8692 46.7276H67.1184V45.8648H59.732V6.61328H58.8692V46.7276Z" fill="#C5D9CC"/>
<path d="M44.8291 6.61328H67.1243V21.0412H44.8291V6.61328Z" fill="#37443F"/>
<path d="M17.0511 90.0582L17.9609 90.968V81.655H17.0511V90.0582ZM15.4334 82.4138L17.333 82.6268H17.7279L19.1616 82.4138V81.655H15.4324L15.4334 82.4138ZM10.8824 90.941H11.7922V82.4248L10.8824 81.655V90.941ZM16.7641 90.968H17.9639V88.6145L12.894 81.655H9.70066V82.4248L11.2333 82.5598L10.4245 82.1599L16.7641 90.968ZM9.68066 90.941H13.4099V90.1822L11.5903 89.9692H11.1903L9.68466 90.1822L9.68066 90.941ZM14.4246 67.2591C12.1051 67.2591 9.93661 68.9058 9.93661 72.1651C9.93661 75.4583 12.0931 77.071 14.4246 77.071C16.7561 77.071 18.9087 75.4243 18.9087 72.1651C18.9087 68.8668 16.7391 67.2591 14.4246 67.2591ZM12.4401 72.1651C12.4401 69.8306 13.0029 68.0659 14.4256 68.0659C15.8483 68.0659 16.4052 69.8286 16.4052 72.1651C16.4052 74.5015 15.8473 76.2512 14.4256 76.2512C13.0039 76.2512 12.4401 74.5095 12.4401 72.1651ZM12.1781 62.6751H13.8518C16.9411 62.6751 18.9297 60.9565 18.9297 58.0071C18.9297 55.1497 17.1161 53.3901 14.1037 53.3901H12.1781V54.1989H13.8848C15.4764 54.1989 16.4782 55.5346 16.4782 58.0221C16.4782 60.4726 15.4784 61.8573 13.8598 61.8573H12.1781V62.6751ZM11.9562 61.7043L9.90462 61.9163V62.6751H12.1781V61.7043H11.9562ZM11.9562 54.3609H12.1781V53.3901L9.90462 53.3891V54.1489L11.9562 54.3609ZM10.9924 58.2461L10.9494 62.6741H13.4079L13.3659 58.2361V57.7712L13.4079 53.3881H10.9484L10.9914 57.7712L10.9924 58.2461ZM17.0571 47.6584L17.9669 48.5692V39.2552H17.0571V47.6584ZM15.4394 40.016L17.339 40.228H17.7389L19.1676 40.016V39.2562H15.4384L15.4394 40.016ZM10.8824 48.5412H11.7922V40.026L10.8824 39.2562V48.5412ZM16.7641 48.5692H17.9639V46.2147L12.894 39.2552H9.70066V40.026L11.2333 40.161L10.4245 39.7611L16.7641 48.5692ZM9.68066 48.5412H13.4099V47.7823L11.5903 47.5734H11.1903L9.68466 47.7853L9.68066 48.5412ZM14.4246 24.8593C12.1051 24.8593 9.93661 26.5079 9.93661 29.7662C9.93661 33.0595 12.0931 34.6722 14.4246 34.6722C16.7561 34.6722 18.9087 33.0235 18.9087 29.7662C18.9087 26.4729 16.7441 24.8593 14.4246 24.8593ZM12.4401 29.7662C12.4401 27.4317 13.0029 25.6671 14.4256 25.6671C15.8483 25.6671 16.4052 27.4297 16.4052 29.7662C16.4052 32.1027 15.8473 33.8523 14.4256 33.8523C13.0039 33.8523 12.4401 32.1107 12.4401 29.7662ZM17.1151 17.5019L16.5602 20.2713L17.6379 19.4624H13.0619V20.2713H18.1058L18.2478 17.5019H17.1151ZM11.8752 15.3713V16.1892L11.8322 20.2753H14.2897L14.2477 16.1152V15.3713L14.2897 10.9883H11.8312L11.8752 15.3723V15.3713ZM12.839 11.9601H13.3569L15.4484 11.7481V10.9883H10.7874V11.7481L12.839 11.9601ZM12.839 19.3035L10.7874 19.5154V20.2753H13.0619V19.3035H12.839Z" fill="white"/>
<path d="M20.751 68.3947C20.752 68.5677 20.8919 68.7076 21.0649 68.7096H22.4006V95.1339H27.3875V70.1683C27.5615 70.0343 27.6705 69.8334 27.6875 69.6144C27.7045 69.8334 27.8135 70.0343 27.9874 70.1683V95.1339H28.8282V70.1683C28.7323 70.0193 28.7602 69.8214 28.8942 69.7054C29.0282 69.5894 29.2281 69.5894 29.3621 69.7054C29.4961 69.8214 29.5241 70.0193 29.4281 70.1683V95.1339H30.2689V70.1683C30.1729 70.0193 30.2009 69.8214 30.3349 69.7054C30.4689 69.5894 30.6688 69.5894 30.8028 69.7054C30.9368 69.8214 30.9648 70.0193 30.8688 70.1683V95.1339H31.7126V70.1683C31.6166 70.0193 31.6446 69.8214 31.7786 69.7054C31.9126 69.5894 32.1125 69.5894 32.2465 69.7054C32.3805 69.8214 32.4085 70.0193 32.3125 70.1683V95.1339H33.1533V70.1683C33.0573 70.0193 33.0853 69.8214 33.2193 69.7054C33.3533 69.5894 33.5532 69.5894 33.6872 69.7054C33.8212 69.8214 33.8491 70.0193 33.7532 70.1683V95.1339H34.594V70.1683C34.498 70.0193 34.526 69.8214 34.66 69.7054C34.7939 69.5894 34.9939 69.5894 35.1279 69.7054C35.2618 69.8214 35.2898 70.0193 35.1939 70.1683V95.1339H36.0377V70.1683C35.9417 70.0193 35.9697 69.8214 36.1037 69.7054C36.2376 69.5894 36.4376 69.5894 36.5716 69.7054C36.7055 69.8214 36.7335 70.0193 36.6375 70.1683V95.1339H41.6365V68.7096H42.9682C42.9263 68.6271 42.9013 68.5372 42.8944 68.4449C42.8876 68.3527 42.8991 68.26 42.9283 68.1723C42.9575 68.0845 43.0038 68.0034 43.0645 67.9336C43.1252 67.8639 43.1992 67.8068 43.2821 67.7658C43.2811 67.5929 43.1411 67.4529 42.9682 67.4509H42.4963V49.8907H42.9682C42.9262 49.8082 42.901 49.7181 42.8941 49.6258C42.8872 49.5334 42.8986 49.4406 42.9278 49.3527C42.957 49.2649 43.0034 49.1837 43.0642 49.1138C43.125 49.044 43.1991 48.9869 43.2821 48.9459C43.1141 48.9429 42.9782 48.8089 42.9732 48.641C42.9682 48.473 43.0961 48.331 43.2631 48.317C43.2631 48.1511 43.1341 48.0131 42.9682 48.0021H41.6065V43.825H42.1523C41.9864 43.4821 42.1154 43.0692 42.4473 42.8812C42.2733 42.8812 42.1324 42.7402 42.1324 42.5663C42.1324 42.3923 42.2733 42.2514 42.4473 42.2514C42.4473 42.0854 42.3183 41.9474 42.1523 41.9364H41.6805V38.2492C41.7341 38.2636 41.7827 38.2927 41.8209 38.3331C41.859 38.3735 41.8852 38.4237 41.8964 38.4782V37.2784C41.8852 37.3328 41.859 37.3831 41.8209 37.4235C41.7827 37.4639 41.7341 37.493 41.6805 37.5074V36.9025H41.9014V36.6246H41.6805V36.4766H41.5385V36.6246H41.3175V36.9025H41.5385V37.5074C41.4285 37.4794 41.3445 37.3904 41.3225 37.2784V38.4782C41.3338 38.4237 41.3599 38.3735 41.3981 38.3331C41.4362 38.2927 41.4848 38.2636 41.5385 38.2492V41.9394H41.3745C41.3745 41.9394 38.6681 37.8213 38.2752 34.2721H38.3052C38.4791 34.2721 38.6201 34.1311 38.6201 33.9571C38.6201 33.7832 38.4791 33.6422 38.3052 33.6422H38.0952V26.0099H38.3052C38.4791 26.0099 38.6201 25.8689 38.6201 25.6949C38.6201 25.521 38.4791 25.38 38.3052 25.38H37.3434V21.9667C37.4534 21.9947 37.5373 22.0837 37.5593 22.1947V20.9949C37.5373 21.1069 37.4534 21.1959 37.3434 21.2239V20.617H37.5643V20.3471H37.3434V20.2011H37.1874V20.3491H36.9665V20.619H37.1874V21.2239C37.0774 21.1959 36.9935 21.1069 36.9715 20.9949V22.1947C36.9935 22.0837 37.0774 21.9947 37.1874 21.9667V25.384H37.1094C34.3002 20.9698 32.5635 15.9591 32.0385 10.7532C32.1365 10.7382 32.2115 10.6582 32.2195 10.5592C32.2275 10.4602 32.1665 10.3692 32.0725 10.3383V9.39346C32.4065 9.42245 32.6814 9.6694 32.7464 9.99833L32.7614 9.85236C32.7614 9.46244 32.4634 9.13751 32.0755 9.10152V8.89356C32.1765 8.86057 32.2385 8.75859 32.2215 8.65462C32.2045 8.55064 32.1145 8.47266 32.0085 8.47266C31.9026 8.47266 31.8126 8.54964 31.7956 8.65462C31.7786 8.75959 31.8406 8.86057 31.9416 8.89356V9.09352C31.5536 9.12951 31.2557 9.45444 31.2557 9.84436L31.2707 9.99033C31.3357 9.6614 31.6106 9.41445 31.9446 9.38546V10.3293C31.8426 10.3542 31.7746 10.4482 31.7816 10.5522C31.7886 10.6562 31.8706 10.7402 31.9745 10.7502C31.4464 15.9571 29.7089 20.9686 26.9006 25.385H26.8227V21.9667C26.9326 21.9947 27.0166 22.0837 27.0386 22.1947V20.9949C27.0166 21.1069 26.9326 21.1959 26.8227 21.2239V20.617H27.0436V20.3471H26.8227V20.2011H26.6727V20.3491H26.4467V20.619H26.6667V21.2239C26.5567 21.1959 26.4727 21.1069 26.4507 20.9949V22.1947C26.4727 22.0837 26.5567 21.9947 26.6667 21.9667V25.384H25.7009C25.5879 25.384 25.484 25.444 25.428 25.541C25.372 25.6379 25.372 25.7589 25.428 25.8559C25.484 25.9529 25.5879 26.0139 25.7009 26.0129H25.9099V33.6412H25.7009C25.5879 33.6412 25.484 33.7012 25.428 33.7982C25.372 33.8952 25.372 34.0161 25.428 34.1131C25.484 34.2101 25.5879 34.2711 25.7009 34.2701H25.7229C25.336 37.8183 22.6236 41.9374 22.6236 41.9374H22.4606V38.2472C22.5143 38.2616 22.5629 38.2907 22.601 38.3311C22.6392 38.3715 22.6653 38.4217 22.6766 38.4762V37.2764C22.6653 37.3309 22.6392 37.3811 22.601 37.4215C22.5629 37.4619 22.5143 37.491 22.4606 37.5054V36.9005H22.6816V36.6226H22.4606V36.4746H22.3186V36.6226H22.0987V36.9005H22.3186V37.5054C22.2653 37.4906 22.2171 37.4615 22.1794 37.4211C22.1416 37.3807 22.1158 37.3306 22.1047 37.2764V38.4762C22.1158 38.422 22.1416 38.3719 22.1794 38.3315C22.2171 38.2911 22.2653 38.2619 22.3186 38.2472V41.9374H21.8487C22.0137 42.2803 21.8847 42.6933 21.5538 42.8812C21.7278 42.8812 21.8687 43.0222 21.8687 43.1962C21.8687 43.3701 21.7278 43.5111 21.5538 43.5111C21.5538 43.677 21.6828 43.815 21.8487 43.826H22.3996V48.0041H21.0679C21.1097 48.0866 21.1348 48.1766 21.1416 48.2688C21.1485 48.361 21.137 48.4537 21.1078 48.5415C21.0786 48.6292 21.0323 48.7104 20.9716 48.7801C20.9108 48.8499 20.8369 48.9069 20.754 48.9479C20.9279 48.9479 21.0689 49.0889 21.0689 49.2628C21.0689 49.4368 20.9279 49.5778 20.754 49.5778C20.754 49.7517 20.8949 49.8927 21.0689 49.8927H21.5408V67.4489H21.0689C21.1107 67.5314 21.1358 67.6214 21.1426 67.7136C21.1495 67.8058 21.138 67.8985 21.1088 67.9863C21.0796 68.074 21.0333 68.1551 20.9726 68.2249C20.9118 68.2947 20.8379 68.3517 20.755 68.3927L20.751 68.3947ZM27.2996 65.0814H27.0546C27.1771 65.0375 27.2914 64.9733 27.3925 64.8915C27.3525 64.9499 27.3212 65.0139 27.2996 65.0814ZM26.6577 64.9005C26.5267 64.9005 26.3978 64.8725 26.2788 64.8185C26.5527 64.7105 26.8007 64.5435 27.0046 64.3306C27.1926 64.1486 27.3456 63.9347 27.4575 63.6987L27.4925 63.6047C27.6245 63.8887 27.6015 64.2206 27.4325 64.4845C27.2636 64.7485 26.9706 64.9065 26.6567 64.9045L26.6577 64.9005ZM26.2828 61.8261C26.4867 62.1938 26.725 62.5413 26.9946 62.8639C26.8375 62.8166 26.6721 62.8032 26.5094 62.8246C26.3467 62.846 26.1904 62.9016 26.0508 62.9879C26.2318 62.7499 26.3268 62.459 26.3208 62.16C26.3226 62.0464 26.3108 61.933 26.2858 61.8221L26.2828 61.8261ZM26.6577 63.0648C26.7887 63.0648 26.9186 63.0928 27.0376 63.1468L26.9436 63.1828C26.7067 63.2938 26.4927 63.4468 26.3118 63.6357C26.0983 63.84 25.9316 64.0879 25.8229 64.3626C25.7594 64.2226 25.732 64.069 25.7432 63.9157C25.7544 63.7624 25.8038 63.6144 25.8869 63.4851C25.97 63.3559 26.0842 63.2495 26.219 63.1757C26.3539 63.102 26.505 63.0632 26.6587 63.0629L26.6577 63.0648ZM26.4228 63.7497C26.5899 63.5762 26.787 63.4342 27.0046 63.3308C27.0766 63.2971 27.1543 63.2771 27.2336 63.2718L27.3685 63.4068C27.3645 63.4858 27.3446 63.5637 27.3106 63.6357C27.2065 63.8535 27.0639 64.0506 26.8897 64.2176C26.6819 64.4637 26.3967 64.6319 26.0808 64.6945L25.9459 64.5595C26.0057 64.2402 26.1755 63.9519 26.4258 63.7447L26.4228 63.7497ZM27.5315 65.0834C27.7175 64.7795 28.0564 64.6045 28.4113 64.6295C28.7662 64.6065 29.1052 64.7815 29.2931 65.0834H27.5315ZM29.5311 65.0834C29.4364 64.8707 29.2788 64.692 29.0794 64.5715C28.8801 64.4511 28.6487 64.3945 28.4163 64.4096C28.1253 64.406 27.8412 64.498 27.6075 64.6715C27.8244 64.3796 27.8914 64.0017 27.7865 63.6527C28.6311 64.3729 29.6461 64.8648 30.7348 65.0814L29.5311 65.0834ZM32.0025 64.9584C30.3518 64.9371 28.7758 64.2665 27.6158 63.0918C26.4559 61.9171 25.8053 60.3327 25.8049 58.6818C25.8055 57.0311 26.4563 55.447 27.6162 54.2724C28.7761 53.0979 30.3519 52.4274 32.0025 52.4062L32.0095 52.1552V52.4062C33.6603 52.4301 35.2352 53.1032 36.3933 54.2798C37.5514 55.4565 38.1995 57.0419 38.1972 58.6928C38.1939 60.3439 37.5404 61.9272 36.3781 63.0999C35.2159 64.2726 33.6385 64.9403 31.9875 64.9584H32.0025ZM26.0528 54.3737C26.1925 54.4598 26.3488 54.5153 26.5115 54.5365C26.6742 54.5577 26.8396 54.5441 26.9966 54.4967C26.7273 54.8195 26.489 55.167 26.2848 55.5345C26.3111 55.4251 26.3241 55.313 26.3238 55.2006C26.33 54.9016 26.2344 54.6093 26.0528 54.3717V54.3737ZM30.7318 52.2812C29.6431 52.4978 28.6281 52.9897 27.7835 53.7099C27.8884 53.361 27.8214 52.983 27.6045 52.6901C27.8382 52.8636 28.1223 52.9556 28.4133 52.952C28.8902 52.985 29.3351 52.7151 29.5281 52.2782L30.7318 52.2812ZM30.2679 48.0101V44.4729C30.1709 44.3229 30.1979 44.1249 30.3329 44.008C30.4679 43.891 30.6678 43.891 30.8028 44.008C30.9378 44.1249 30.9648 44.3239 30.8678 44.4729V48.0081L30.2679 48.0101ZM29.4271 48.0101H28.8272V44.4729C28.7303 44.3229 28.7572 44.1249 28.8922 44.008C29.0272 43.891 29.2271 43.891 29.3621 44.008C29.4971 44.1249 29.5241 44.3239 29.4271 44.4729V48.0101ZM29.2921 52.2812C29.0892 52.5651 28.7612 52.7341 28.4113 52.7341C28.0614 52.7341 27.7335 52.5651 27.5305 52.2812H29.2921ZM27.5805 53.3729C27.5805 53.5039 27.5515 53.6339 27.4965 53.7529L27.4615 53.6589C27.3502 53.4225 27.1967 53.2084 27.0086 53.027C26.8047 52.8131 26.5567 52.6461 26.2818 52.5381C26.4217 52.4746 26.5754 52.4473 26.7286 52.4584C26.8819 52.4696 27.03 52.519 27.1592 52.6022C27.2885 52.6853 27.3948 52.7995 27.4686 52.9343C27.5424 53.0691 27.5812 53.2203 27.5815 53.374L27.5805 53.3729ZM26.8976 53.138C27.0726 53.305 27.2146 53.5019 27.3186 53.7199C27.3525 53.7909 27.3725 53.8688 27.3765 53.9478L27.2416 54.0828C27.1623 54.0781 27.0846 54.0584 27.0126 54.0248C26.7949 53.9208 26.5977 53.7782 26.4307 53.6039C26.1845 53.396 26.0158 53.111 25.9519 52.7951L26.0868 52.6601C26.4038 52.7231 26.6907 52.8931 26.8986 53.14L26.8976 53.138ZM26.3118 53.7229C26.4937 53.9108 26.7077 54.0638 26.9436 54.1758L27.0376 54.2108C26.8679 54.2856 26.6796 54.3074 26.4973 54.2733C26.315 54.2391 26.1472 54.1507 26.0161 54.0196C25.8849 53.8884 25.7965 53.7207 25.7624 53.5384C25.7283 53.3561 25.75 53.1677 25.8249 52.998C25.9333 53.2698 26.0986 53.5153 26.3098 53.7179L26.3118 53.7229ZM31.7026 48.0071V44.4779C31.6056 44.3279 31.6326 44.1299 31.7676 44.013C31.9026 43.896 32.1025 43.896 32.2375 44.013C32.3725 44.1299 32.3995 44.3289 32.3025 44.4779V48.0131L31.7026 48.0071ZM37.7183 55.5285C37.5142 55.1607 37.2755 54.8132 37.0055 54.4907C37.3234 54.5857 37.6663 54.5407 37.9493 54.3677C37.7686 54.6046 37.6735 54.8957 37.6793 55.1936C37.6789 55.305 37.6916 55.4161 37.7173 55.5245L37.7183 55.5285ZM37.3424 54.2918C37.2122 54.2914 37.0836 54.2627 36.9655 54.2078C37.5124 53.9778 37.9483 53.5419 38.1782 52.995C38.3102 53.279 38.2872 53.6109 38.1182 53.8748C37.9493 54.1388 37.6563 54.2967 37.3424 54.2948V54.2918ZM37.5783 53.6089C37.3704 53.8551 37.0854 54.0239 36.7695 54.0878L36.6345 53.9528C36.6962 53.6361 36.8653 53.3503 37.1134 53.144C37.3232 52.8998 37.6074 52.7312 37.9223 52.6641L38.0572 52.7991C37.9942 53.117 37.8253 53.4029 37.5783 53.6119V53.6089ZM36.9965 53.027C36.783 53.2312 36.6163 53.4792 36.5076 53.7539C36.4526 53.6349 36.4226 53.5049 36.4196 53.374C36.4199 53.2203 36.4587 53.0691 36.5325 52.9343C36.6062 52.7995 36.7126 52.6853 36.8419 52.6022C36.9711 52.519 37.1192 52.4696 37.2724 52.4584C37.4257 52.4473 37.5793 52.4746 37.7193 52.5381C37.4464 52.6481 37.2004 52.8161 36.9985 53.03L36.9965 53.027ZM35.5898 52.7271C35.4156 52.7379 35.2418 52.7015 35.0866 52.6218C34.9314 52.5421 34.8006 52.422 34.708 52.2742H36.4696C36.3783 52.423 36.2481 52.5441 36.0931 52.6245C35.938 52.7048 35.764 52.7413 35.5898 52.7301V52.7271ZM35.1749 48.0031H34.575V44.4729C34.478 44.3229 34.505 44.1249 34.64 44.008C34.7749 43.891 34.9749 43.891 35.1099 44.008C35.2448 44.1249 35.2718 44.3239 35.1749 44.4729V48.0031ZM35.5898 52.944C35.8808 52.9476 36.1649 52.8556 36.3986 52.6821C36.1816 52.975 36.1147 53.353 36.2196 53.7019C35.375 52.9817 34.3599 52.4898 33.2713 52.2732H34.471C34.667 52.7081 35.1129 52.977 35.5898 52.946V52.944ZM33.7382 48.0061H33.1383V44.4769C33.0413 44.3269 33.0683 44.1289 33.2033 44.012C33.3383 43.895 33.5382 43.895 33.6732 44.012C33.8082 44.1289 33.8351 44.3279 33.7382 44.4769V48.0061ZM37.9533 62.9869C37.8137 62.9006 37.6574 62.845 37.4947 62.8236C37.332 62.8022 37.1666 62.8156 37.0095 62.8629C37.2794 62.541 37.5184 62.193 37.7223 61.8251C37.6962 61.9345 37.6831 62.0466 37.6833 62.159C37.6783 62.456 37.7723 62.7449 37.9513 62.9819L37.9533 62.9869ZM37.6903 63.6347C37.4864 63.4208 37.2384 63.2538 36.9635 63.1458C37.3114 62.9889 37.7193 63.0639 37.9892 63.3328C38.2592 63.6017 38.3332 64.0107 38.1762 64.3586C38.0684 64.0837 37.9019 63.8356 37.6883 63.6317L37.6903 63.6347ZM38.0572 64.5575L37.9223 64.6925C37.6055 64.6322 37.3196 64.4636 37.1134 64.2156C36.9392 64.0486 36.7966 63.8515 36.6925 63.6337C36.6585 63.5617 36.6385 63.4838 36.6345 63.4048L36.7695 63.2698C37.0863 63.3314 37.372 63.5006 37.5783 63.7487C37.8234 63.9576 37.9919 64.2422 38.0572 64.5575ZM34.475 65.0794H33.2753C34.3639 64.8628 35.379 64.3709 36.2236 63.6507C36.1187 63.9997 36.1856 64.3776 36.4026 64.6695C36.1686 64.4965 35.8847 64.4046 35.5938 64.4076C35.1159 64.3736 34.667 64.6425 34.473 65.0814L34.475 65.0794ZM34.708 65.0794C34.7989 64.9299 34.9293 64.8083 35.0849 64.7282C35.2405 64.6481 35.4152 64.6126 35.5898 64.6255C35.7638 64.6141 35.9377 64.6503 36.0927 64.7303C36.2477 64.8102 36.378 64.931 36.4696 65.0794H34.708ZM36.7025 65.0794C36.6798 65.0124 36.6485 64.9486 36.6095 64.8895C36.7107 64.9713 36.825 65.0355 36.9475 65.0794H36.7025ZM37.3424 64.8985C37.0991 64.8979 36.866 64.8011 36.694 64.6291C36.522 64.457 36.4251 64.2239 36.4246 63.9807C36.425 63.85 36.4529 63.7209 36.5066 63.6017C36.6155 63.8757 36.7825 64.1236 36.9955 64.3286C37.1994 64.5415 37.4464 64.7075 37.7203 64.8165C37.6013 64.8705 37.4734 64.8985 37.3424 64.8985ZM38.4042 65.0794H37.7383C38.0332 64.9724 38.2732 64.7515 38.4042 64.4666V65.0794ZM38.4042 63.4958C38.3589 63.398 38.3 63.3071 38.2292 63.2258L38.4042 63.2928V63.4958ZM38.4042 63.0629C38.2492 62.9682 38.1212 62.8353 38.0324 62.677C37.9436 62.5186 37.897 62.3401 37.897 62.1586C37.897 61.977 37.9436 61.7985 38.0324 61.6401C38.1212 61.4818 38.2492 61.3489 38.4042 61.2542V63.0629ZM38.4042 61.0283C38.2352 61.0733 38.0852 61.1713 37.9753 61.3062C38.1675 60.8704 38.3113 60.4148 38.4042 59.9475V61.0283ZM38.4042 57.4071C38.3113 56.9405 38.1674 56.4855 37.9753 56.0504C38.0862 56.1846 38.236 56.281 38.4042 56.3263V57.4071ZM38.4042 56.0994C38.2495 56.0046 38.1217 55.8718 38.033 55.7135C37.9443 55.5553 37.8978 55.3769 37.8978 55.1956C37.8978 55.0142 37.9443 54.8358 38.033 54.6776C38.1217 54.5193 38.2495 54.3865 38.4042 54.2918V56.0994ZM38.4042 54.0648L38.2292 54.1318C38.3001 54.0506 38.359 53.9597 38.4042 53.8618V54.0648ZM41.2345 49.8937H41.5405V67.7678H41.2405L41.2345 49.8937ZM38.4042 52.2762V52.8881C38.3393 52.747 38.2471 52.6202 38.1327 52.5152C38.0184 52.4101 37.8843 52.3289 37.7383 52.2762H38.4042ZM36.9215 39.7659C36.909 39.6735 36.9232 39.5795 36.9622 39.4949C37.0013 39.4103 37.0637 39.3386 37.1421 39.2882C37.2206 39.2378 37.3117 39.2109 37.4049 39.2105C37.4981 39.2101 37.5895 39.2363 37.6683 39.286C37.7468 39.3368 37.8091 39.4089 37.8479 39.494C37.8867 39.579 37.9004 39.6733 37.8873 39.7659V41.3266H36.9215V39.7659ZM36.9495 52.2762C36.8267 52.3196 36.7124 52.3838 36.6115 52.4661L36.7045 52.2762H36.9495ZM36.1137 30.189H36.4536V27.9334H36.5886V33.0813H36.1167L36.1137 30.189ZM36.3136 43.917C36.3222 44.0253 36.3533 44.1306 36.405 44.2261C36.4566 44.3217 36.5277 44.4054 36.6135 44.4719V48.0071H36.0137V44.4729C36.0994 44.4049 36.1702 44.32 36.2218 44.2235C36.2734 44.1271 36.3046 44.021 36.3136 43.912V43.917ZM36.0887 36.7645V38.3252H35.1229V36.7605C35.2401 36.7109 35.3445 36.6352 35.4281 36.5392C35.5118 36.4433 35.5725 36.3295 35.6058 36.2067C35.6391 36.3296 35.7 36.4434 35.7839 36.5394C35.8677 36.6354 35.9723 36.711 36.0897 36.7605L36.0887 36.7645ZM34.1471 30.189H34.485V27.9334H35.4148V30.189H35.7547V33.0883H34.1471V30.189ZM34.2821 39.7669V41.3266H33.3183V39.7629C33.5562 39.6619 33.7342 39.458 33.8022 39.209C33.8354 39.3319 33.8961 39.4456 33.9798 39.5416C34.0635 39.6375 34.1678 39.7132 34.2851 39.7629L34.2821 39.7669ZM32.1825 30.189H32.5224V27.9334H33.4552V30.189H33.7952V33.0883H32.1835L32.1825 30.189ZM31.9985 36.2087C32.0318 36.3315 32.0925 36.4453 32.1762 36.5412C32.2599 36.6372 32.3642 36.7129 32.4814 36.7625V38.3232H31.5166V36.7605C31.6339 36.7109 31.7382 36.6352 31.8219 36.5392C31.9055 36.4433 31.9663 36.3295 31.9995 36.2067L31.9985 36.2087ZM30.2189 30.189H30.5589V27.9334H31.4877V30.189H31.8276V33.0883H30.2189V30.189ZM30.2059 39.218C30.2393 39.341 30.3002 39.4548 30.384 39.5507C30.4679 39.6467 30.5724 39.7223 30.6898 39.7719V41.3325H29.723V39.7629C29.959 39.6609 30.1349 39.457 30.2019 39.209L30.2059 39.218ZM28.2504 30.189H28.5913V27.9334H29.5201V30.189H29.86V33.0883H28.2464L28.2504 30.189ZM27.9214 36.7645C28.1594 36.6636 28.3373 36.4596 28.4053 36.2107C28.4386 36.3335 28.4993 36.4473 28.583 36.5432C28.6666 36.6392 28.771 36.7149 28.8882 36.7645V38.3252H27.9224L27.9214 36.7645ZM27.4215 27.9374H27.5565V30.189H27.8964V33.0883H27.4245L27.4215 27.9374ZM27.3875 44.4749C27.5615 44.3409 27.6705 44.1389 27.6875 43.92C27.7045 44.1389 27.8135 44.3409 27.9874 44.4749V48.0101H27.3875V44.4749ZM27.3875 52.4731C27.2867 52.3908 27.1724 52.3266 27.0496 52.2832H27.2946L27.3875 52.4731ZM26.1098 39.7759C26.2272 39.7263 26.3318 39.6507 26.4156 39.5547C26.4995 39.4588 26.5604 39.345 26.5937 39.222C26.627 39.3449 26.6877 39.4586 26.7714 39.5546C26.855 39.6505 26.9594 39.7262 27.0766 39.7759V41.3366H26.1098V39.7759ZM25.5919 52.2862H26.2578C25.9629 52.3922 25.7229 52.6131 25.5919 52.898V52.2862ZM25.5919 53.8698C25.6371 53.9677 25.696 54.0586 25.7669 54.1398L25.5919 54.0728V53.8698ZM25.5919 54.3027C25.7466 54.3975 25.8744 54.5303 25.9631 54.6886C26.0517 54.8468 26.0983 55.0252 26.0983 55.2066C26.0983 55.3879 26.0517 55.5663 25.9631 55.7245C25.8744 55.8828 25.7466 56.0156 25.5919 56.1104V54.3027ZM25.5919 56.3363C25.76 56.291 25.9099 56.1946 26.0208 56.0604C25.8309 56.4965 25.6894 56.9521 25.5989 57.4191L25.5919 56.3363ZM25.5919 59.9575C25.6847 60.4248 25.8286 60.8804 26.0208 61.3162C25.9109 61.1813 25.7609 61.0843 25.5919 61.0383V59.9575ZM25.5919 61.2652C25.7469 61.3599 25.8749 61.4928 25.9637 61.6511C26.0525 61.8095 26.0991 61.988 26.0991 62.1695C26.0991 62.3511 26.0525 62.5296 25.9637 62.688C25.8749 62.8463 25.7469 62.9792 25.5919 63.0738V61.2652ZM25.5919 63.2998L25.7669 63.2328C25.6961 63.3141 25.6372 63.405 25.5919 63.5028V63.2998ZM25.5919 64.4765C25.6567 64.6178 25.7489 64.7448 25.8632 64.85C25.9775 64.9552 26.1117 65.0366 26.2578 65.0894H25.5919V64.4765ZM22.4696 49.8987H22.7695V67.7728H22.4696V49.8987Z" fill="#37443F"/>
<path d="M36.8919 58.5709H37.5167C37.4918 57.1672 36.931 55.8262 35.9491 54.8227L35.5062 55.2676C36.3702 56.1532 36.8655 57.3339 36.8919 58.5709ZM35.8331 54.7097C34.8267 53.7364 33.4869 53.1836 32.0869 53.1641V53.7889C33.3212 53.8091 34.502 54.2964 35.3912 55.1526L35.8331 54.7097Z" fill="#37443F"/>
<path d="M33.6787 54.8495C34.1228 55.047 34.5289 55.3207 34.8785 55.6584L35.2664 55.2705C34.8639 54.8851 34.3973 54.5729 33.8877 54.3477L33.6787 54.8495ZM35.5243 62.061L35.9672 62.5039C36.9481 61.4912 37.5025 60.1405 37.5159 58.7307H36.889C36.8762 59.9744 36.3879 61.1659 35.5243 62.061ZM31.6342 60.1824C31.7342 60.1434 31.8041 59.6825 31.8041 59.6825L31.8151 59.2716C31.6852 59.2305 31.572 59.1484 31.4927 59.0375C31.4134 58.9266 31.3721 58.793 31.3752 58.6567C31.3822 58.3768 31.5752 58.1348 31.8471 58.0659L31.9041 55.9943C30.4444 56.0533 29.2997 57.269 29.3297 58.7297C29.3597 60.1904 30.5514 61.3591 32.0121 61.3591C33.4728 61.3591 34.6655 60.1904 34.6945 58.7297C34.7235 57.269 33.5798 56.0533 32.1201 55.9943L32.1771 58.0699C32.437 58.1468 32.619 58.3828 32.626 58.6537C32.6291 58.786 32.5905 58.9159 32.5157 59.025C32.4409 59.1341 32.3336 59.2169 32.2091 59.2616L32.2211 59.6825C32.2211 59.6825 32.287 60.1424 32.389 60.1824C32.1061 60.1484 32.0121 60.5823 32.0121 60.6503C32.0111 60.5873 31.9171 60.1484 31.6342 60.1824Z" fill="#37443F"/>
<path d="M31.9088 55.8299L31.9158 55.56V54.6602C30.915 54.6802 29.9582 55.0751 29.2354 55.7669L30.0592 56.5887C30.5628 56.1191 31.2204 55.8493 31.9088 55.8299ZM32.1147 55.8309C32.7948 55.8586 33.4423 56.1297 33.9393 56.5947L34.7632 55.7729C34.0396 55.0816 33.0832 54.6867 32.0827 54.6662L32.1147 55.8309Z" fill="#37443F"/>
<path d="M33.7292 54.2819C33.2028 54.0732 32.6428 53.9617 32.0766 53.953V54.4999C32.571 54.5097 33.0598 54.6072 33.5202 54.7878L33.7292 54.2819ZM31.9126 53.785V53.1602C30.5114 53.1802 29.1707 53.7345 28.1644 54.7098L28.6093 55.1527C29.4971 54.2949 30.6779 53.806 31.9126 53.785ZM27.6085 60.4276L28.1154 60.2186C27.9256 59.7469 27.824 59.2444 27.8155 58.7359H27.2666C27.2752 59.3161 27.3911 59.8896 27.6085 60.4276ZM29.2102 61.5593C29.9356 62.262 30.8999 62.6641 31.9096 62.6851V61.5223C31.2076 61.5026 30.538 61.2225 30.031 60.7365L29.2102 61.5593Z" fill="#37443F"/>
<path d="M28.9799 61.5571C28.6473 61.2104 28.3767 60.8093 28.1799 60.3711L27.6729 60.5801C27.896 61.0846 28.2056 61.5463 28.5879 61.9441L28.9799 61.5571ZM30.3089 63.0871C30.8225 63.2844 31.3667 63.3903 31.9169 63.4001V62.8511C31.438 62.8431 30.9643 62.7518 30.5169 62.5811L30.3089 63.0871Z" fill="#37443F"/>
<path d="M29.1559 58.7363H27.9932C28.009 59.7434 28.4042 60.7074 29.0999 61.4357L29.9237 60.6119C29.445 60.103 29.1715 59.4349 29.1559 58.7363ZM32.0863 61.5197V62.6825C33.0959 62.6615 34.0603 62.2593 34.7857 61.5567L33.9619 60.7329C33.4553 61.2178 32.7872 61.4981 32.0863 61.5197Z" fill="#37443F"/>
<path d="M32.0791 63.3989C32.674 63.3896 33.2616 63.2671 33.8107 63.038L33.6108 62.5511L33.7647 62.4881L33.9647 62.971C34.4543 62.7454 34.902 62.4381 35.2884 62.0622L34.9005 61.6753C34.1437 62.4103 33.1359 62.8302 32.0811 62.8501L32.0791 63.3989ZM36.7241 58.7369H36.1752C36.1672 59.2831 36.0524 59.8225 35.8373 60.3246L36.3442 60.5336C36.5871 59.9657 36.7161 59.3548 36.7241 58.7369ZM35.9023 57.1953C36.0692 57.6352 36.1602 58.1001 36.1722 58.57H36.7211C36.7101 58.0282 36.6052 57.4923 36.4112 56.9863L35.9023 57.1953ZM35.0155 61.5573L35.4034 61.9443C35.7612 61.5754 36.0564 61.1506 36.2772 60.6865L35.7723 60.4776C35.5783 60.875 35.3229 61.2394 35.0155 61.5573Z" fill="#37443F"/>
<path d="M27.7041 56.7093L28.209 56.9183C28.4071 56.495 28.674 56.1075 28.9988 55.7715L28.6109 55.3906C28.2359 55.7755 27.9293 56.2214 27.7041 56.7093ZM30.3605 62.5171C29.8913 62.3157 29.463 62.03 29.0968 61.6743L28.7089 62.0612C29.1271 62.4681 29.6164 62.7947 30.1526 63.025L30.3605 62.5171ZM36.0103 58.5699C35.9846 57.5669 35.5828 56.6101 34.8846 55.8895L34.0607 56.7113C34.5406 57.2142 34.8206 57.8751 34.8466 58.5699H36.0103Z" fill="#37443F"/>
<path d="M35.0015 55.7696C35.3584 56.1375 35.6444 56.5684 35.8463 57.0393L36.3532 56.8304C36.1234 56.2946 35.7966 55.8059 35.3894 55.3887L35.0015 55.7696ZM27.1102 58.736H26.4854C26.4983 60.1454 27.0519 61.4961 28.032 62.5091L28.4739 62.0662C27.6116 61.1705 27.1238 59.9793 27.1102 58.736ZM28.149 62.6221C29.1593 63.609 30.51 64.1702 31.9222 64.1898V63.5649C30.6777 63.5449 29.4881 63.049 28.5979 62.1792L28.149 62.6221ZM34.0347 63.123L34.0437 63.147L33.8888 63.212L33.8808 63.19C33.3099 63.428 32.699 63.5559 32.0811 63.5649V64.1898C33.4935 64.1713 34.8446 63.6099 35.8543 62.6221L35.4114 62.1792C35.0084 62.5707 34.541 62.89 34.0297 63.123H34.0347ZM30.2415 54.8858L30.0326 54.3789C29.5527 54.5999 29.1138 54.8998 28.7329 55.2657L29.1208 55.6536C29.45 55.3383 29.8286 55.0789 30.2415 54.8858ZM29.1198 55.8886C28.4216 56.6092 28.0197 57.5659 27.994 58.569H29.1568C29.1848 57.8732 29.4667 57.2123 29.9496 56.7104L29.1198 55.8886Z" fill="#37443F"/>
<path d="M27.2822 58.5711H27.8311C27.8432 58.0559 27.9511 57.5473 28.149 57.0715L27.6421 56.8625C27.4169 57.4047 27.2949 57.9842 27.2822 58.5711ZM31.9212 53.9531C31.3257 53.9614 30.7372 54.0836 30.1876 54.313L30.3966 54.8199C30.8799 54.6174 31.3973 54.5085 31.9212 54.499V53.9531Z" fill="#37443F"/>
<path d="M28.4959 55.2652L28.051 54.8203C27.0702 55.8241 26.5103 57.1648 26.4854 58.5685H27.1102C27.1356 57.3313 27.631 56.1502 28.4959 55.2652ZM34.9045 61.4379C35.6009 60.7099 35.9969 59.7458 36.0133 58.7385H34.8505C34.8363 59.4378 34.5634 60.1071 34.0847 60.6171L34.9045 61.4379Z" fill="#37443F"/>
<path d="M57.812 17.7892H59.3216V15.3637L60.0665 14.6509L62.232 17.7892H64.0646L61.1213 13.6601L63.9606 10.7217H62.13L59.3196 13.881V10.7207H57.81L57.812 17.7892ZM56.4833 17.7892V15.9896H54.9066V17.7892H56.4833ZM47.9541 10.7207V14.8848C47.9541 17.2443 49.3278 17.8842 50.9195 17.8842C52.4791 17.8842 53.8928 17.2683 53.8928 14.8518V10.7207H52.3671V14.9308C52.3671 16.2135 51.8183 16.6824 50.9445 16.6824C50.1816 16.6824 49.4848 16.2825 49.4848 14.9308V10.7207H47.9541Z" fill="white"/>
</g>
<defs>
<clipPath id="clip0_344_32234">
<rect width="72.9682" height="101.75" fill="white" transform="translate(0.969727)"/>
</clipPath>
</defs>
</svg>
