<svg width="23" height="16" viewBox="0 0 23 16" fill="none" xmlns="http://www.w3.org/2000/svg">
<g clip-path="url(#clip0_344_32264)">
<path d="M21.2884 0.794922H2.58865C2.15184 0.795134 1.73298 0.968751 1.42411 1.27762C1.11523 1.5865 0.941618 2.00536 0.941406 2.44217L0.941406 13.5577C0.941618 13.9945 1.11523 14.4133 1.42411 14.7222C1.73298 15.0311 2.15184 15.2047 2.58865 15.2049H21.2884C21.7252 15.2047 22.144 15.0311 22.4529 14.7222C22.7618 14.4133 22.9354 13.9945 22.9356 13.5577V2.44217C22.9354 2.00536 22.7618 1.5865 22.4529 1.27762C22.144 0.968751 21.7252 0.795134 21.2884 0.794922Z" fill="#41479B"/>
<path d="M22.9132 2.17016C22.8487 1.78596 22.6502 1.43703 22.3529 1.18527C22.0556 0.933517 21.6787 0.795221 21.2892 0.794922H20.862L13.837 5.39745V0.794922H10.0449V5.39745L3.01746 0.794922H2.58865C2.19908 0.795221 1.8222 0.933517 1.5249 1.18527C1.2276 1.43703 1.02909 1.78596 0.964607 2.17016L6.96877 6.10387H0.941406V9.89597H6.96877L0.964607 13.8297C1.02909 14.2139 1.2276 14.5628 1.5249 14.8146C1.8222 15.0663 2.19908 15.2046 2.58865 15.2049H3.01746L10.0425 10.6024V15.2049H13.8346V10.6024L20.8596 15.2049H21.2884C21.6779 15.2046 22.0548 15.0663 22.3521 14.8146C22.6494 14.5628 22.8479 14.2139 22.9124 13.8297L16.9083 9.89597H22.9356V6.10387H16.9083L22.9132 2.17016Z" fill="#F5F5F5"/>
<path d="M13.0761 0.794922H10.8009V6.86229H0.941406V9.13435H10.8009V15.2017H13.0761V9.13435H22.9356V6.86229H13.0761V0.794922ZM2.00624 15.0985L10.0217 9.89837H8.62802L1.33742 14.6313C1.51768 14.8406 1.74766 15.0013 2.00624 15.0985ZM15.8202 9.89597H14.4282L22.1884 14.9361C22.4059 14.7935 22.5868 14.6016 22.7164 14.3761L15.8202 9.89597ZM1.11501 1.70535L7.8904 6.10547H9.28404L1.60382 1.12133C1.39742 1.27494 1.23021 1.47494 1.11501 1.70535ZM15.2274 6.10387L22.5316 1.36214C22.3497 1.15233 22.1177 0.991893 21.8572 0.895725L13.8346 6.10387H15.2274Z" fill="#FF4B55"/>
</g>
<defs>
<clipPath id="clip0_344_32264">
<rect width="21.9942" height="14.41" fill="white" transform="translate(0.941406 0.794922)"/>
</clipPath>
</defs>
</svg>
