<svg width="73" height="102" viewBox="0 0 73 102" fill="none" xmlns="http://www.w3.org/2000/svg">
<g clip-path="url(#clip0_344_32160)">
<path d="M36.6585 17.3325C36.6225 17.5175 37.0394 21.9524 37.0034 22.1384C37.0189 22.3528 37.0523 22.5655 37.1034 22.7742L37.1454 21.5075L38.5741 18.4633C38.6191 17.9704 36.6865 17.4605 36.6585 17.3325ZM43.6429 78.0012C43.6049 78.1872 44.0228 82.6211 43.9868 82.8081C44.0016 83.0225 44.0351 83.2353 44.0868 83.4439L44.1288 82.1762L45.5624 79.133C45.6084 78.6401 43.6759 78.1302 43.6429 78.0012ZM24.6434 1.69922C24.6654 1.99915 24.4434 9.09747 24.4604 9.3974C24.4784 9.65634 24.4114 10.1052 24.4054 10.4172L24.3854 8.38364L23.6196 3.50779C23.5946 2.72098 24.6284 1.90517 24.6434 1.69922ZM22.4389 92.2329C22.4579 92.5328 22.2389 99.6311 22.2529 99.9311C22.2709 100.19 22.2039 100.639 22.1989 100.95L22.1769 98.9193L21.4101 94.0434C21.3881 93.2596 22.4219 92.4388 22.4389 92.2329ZM3.81727 41.6578C3.77328 41.9577 4.25917 49.056 4.21718 49.356C4.23497 49.6978 4.27504 50.0381 4.33715 50.3747L4.38414 48.3442L6.05575 43.4674C6.10473 42.6805 3.85326 41.8657 3.81727 41.6578ZM55.5061 57.738V57.4311C55.5102 57.0651 55.5931 56.7044 55.749 56.3733L52.3908 55.2876C52.277 56.9514 52.254 58.6201 52.3218 60.2864C52.8317 60.7363 53.1706 61.3471 53.2836 62.018L56.6608 59.9535C55.956 59.4316 55.5301 58.6148 55.5061 57.738Z" fill="#485754"/>
<path d="M48.6987 58.8633C48.5507 59.1632 50.2363 66.2615 50.0913 66.5615C49.9714 66.8214 50.4632 67.2693 50.5162 67.5812L50.6762 65.5507C50.7612 65.5737 56.3749 60.6079 56.4878 60.6739C56.6578 59.883 48.8276 59.0712 48.6987 58.8633Z" fill="#485754"/>
<path d="M47.6504 53.6367C47.6434 53.7217 50.5037 67.7254 50.5037 67.7254L47.6504 53.6367Z" fill="#485754"/>
<path d="M56.1587 98.8527C56.9275 98.8527 57.6643 99.1586 58.2062 99.7025C58.7481 100.246 59.053 100.984 59.052 101.752H63.0951C63.064 101.225 63.1776 100.699 63.4236 100.231C63.6696 99.764 64.0386 99.3726 64.4908 99.0996C64.943 98.8265 65.4612 98.6822 65.9894 98.6823C66.5177 98.6823 67.0358 98.8266 67.488 99.0996C67.9402 99.3727 68.3092 99.764 68.5552 100.231C68.8012 100.699 68.9147 101.225 68.8837 101.752H72.9677V98.0329C71.3701 98.0329 70.0744 96.7372 70.0744 95.1396C70.0744 93.5419 71.3701 92.2462 72.9677 92.2462V88.2002C72.4404 88.2312 71.9146 88.1176 71.4472 87.8717C70.9797 87.6257 70.5883 87.2567 70.3153 86.8045C70.0423 86.3523 69.898 85.8341 69.898 85.3058C69.898 84.7776 70.0423 84.2594 70.3154 83.8072C70.5884 83.355 70.9798 82.9861 71.4472 82.7401C71.9147 82.4941 72.4404 82.3805 72.9677 82.4116V78.3695C72.4404 78.4006 71.9146 78.287 71.4472 78.041C70.9797 77.795 70.5883 77.426 70.3153 76.9738C70.0423 76.5216 69.898 76.0034 69.898 75.4752C69.898 74.9469 70.0423 74.4287 70.3154 73.9766C70.5884 73.5244 70.9798 73.1554 71.4472 72.9094C71.9147 72.6634 72.4404 72.5498 72.9677 72.5809V68.5378C71.3701 68.5378 70.0744 67.2421 70.0744 65.6445C70.0744 64.0469 71.3701 62.7512 72.9677 62.7512V58.7081C72.4404 58.7392 71.9146 58.6256 71.4472 58.3796C70.9797 58.1336 70.5883 57.7646 70.3153 57.3124C70.0423 56.8602 69.898 56.342 69.898 55.8138C69.898 55.2856 70.0423 54.7674 70.3154 54.3152C70.5884 53.863 70.9798 53.494 71.4472 53.248C71.9147 53.0021 72.4404 52.8885 72.9677 52.9195V48.8765C72.1988 48.8765 71.4613 48.571 70.9176 48.0273C70.3739 47.4836 70.0684 46.7461 70.0684 45.9772C70.0684 45.2082 70.3739 44.4708 70.9176 43.927C71.4613 43.3833 72.1988 43.0778 72.9677 43.0778V39.0388C71.3701 39.0388 70.0744 37.7431 70.0744 36.1455C70.0744 34.5478 71.3701 33.2522 72.9677 33.2522V29.2081C71.3701 29.2081 70.0744 27.9124 70.0744 26.3148C70.0744 24.7172 71.3701 23.4215 72.9677 23.4215V19.3784C72.1988 19.3784 71.4613 19.073 70.9176 18.5292C70.3739 17.9855 70.0684 17.2481 70.0684 16.4791C70.0684 15.7102 70.3739 14.9727 70.9176 14.429C71.4613 13.8853 72.1988 13.5798 72.9677 13.5798V9.54075C72.4404 9.5718 71.9146 9.4582 71.4472 9.21222C70.9797 8.96624 70.5883 8.59722 70.3153 8.14502C70.0423 7.69282 69.898 7.17463 69.898 6.6464C69.898 6.11817 70.0423 5.59997 70.3154 5.14779C70.5884 4.69561 70.9798 4.32661 71.4472 4.08064C71.9147 3.83466 72.4404 3.72107 72.9677 3.75211V0H68.8857C68.8857 0.767819 68.5808 1.50365 68.0379 2.04552C67.495 2.58739 66.7592 2.89332 65.9924 2.89332C65.2259 2.8912 64.4914 2.58563 63.9495 2.04343C63.4077 1.50123 63.1026 0.766523 63.1011 0L59.057 0C59.057 1.59762 57.7613 2.89332 56.1637 2.89332C55.3949 2.89432 54.6581 2.59039 54.1142 2.04752C53.5703 1.50465 53.2654 0.767819 53.2654 0H49.2223C49.2223 1.59762 47.9266 2.89332 46.329 2.89332C45.5612 2.89332 44.8254 2.58839 44.2825 2.04652C43.7396 1.50464 43.4347 0.767819 43.4347 0H39.3927C39.3927 1.59762 38.097 2.89332 36.4993 2.89332C35.7315 2.89332 34.9957 2.58839 34.4528 2.04652C33.91 1.50464 33.605 0.767819 33.605 0H29.562C29.562 1.59762 28.2663 2.89332 26.6687 2.89332C26.2874 2.89513 25.9094 2.82171 25.5566 2.67726C25.2037 2.53281 24.8827 2.32017 24.6121 2.05152C24.3417 1.78259 24.1271 1.46295 23.9804 1.11092C23.8337 0.758882 23.7579 0.381369 23.7573 0L19.7143 0C19.7143 1.59762 18.4186 2.89332 16.821 2.89332C15.2234 2.89332 13.9277 1.59762 13.9277 0H9.88462C9.88472 0.380782 9.80982 0.757855 9.66418 1.10969C9.51854 1.46152 9.30502 1.78121 9.03582 2.05052C8.76652 2.31972 8.44682 2.53324 8.09499 2.67887C7.74316 2.82451 7.36609 2.89942 6.98531 2.89932C6.21653 2.89905 5.47934 2.59347 4.93583 2.04977C4.39231 1.50607 4.08699 0.768773 4.08699 0L0.00195313 0V3.71812C0.769772 3.71812 1.5056 4.02305 2.04747 4.56592C2.58934 5.10879 2.89527 5.84462 2.89527 6.61144C2.89421 7.37866 2.58911 8.11417 2.04679 8.65687C1.50448 9.19956 0.769167 9.50517 0.00195312 9.50676L0.00195313 13.5498C0.76986 13.5514 1.50577 13.8576 2.0482 14.4011C2.59063 14.9447 2.89527 15.6812 2.89527 16.4491C2.89627 17.2169 2.59134 17.9528 2.04947 18.4956C1.5076 19.0385 0.769772 19.3434 0.00195313 19.3424V23.3855C0.7709 23.3855 1.50835 23.6909 2.05208 24.2347C2.59581 24.7784 2.90127 25.5159 2.90127 26.2848C2.90127 27.0537 2.59581 27.7912 2.05208 28.3349C1.50835 28.8787 0.7709 29.1841 0.00195313 29.1841L0.00195313 33.2272C1.59958 33.2272 2.89527 34.5229 2.89527 36.1205C2.89527 37.7181 1.59758 39.0078 0.00195313 39.0078V43.0508C0.382776 43.0513 0.759785 43.1267 1.11145 43.2729C1.46311 43.419 1.78253 43.633 2.05147 43.9026C2.32013 44.1727 2.53293 44.4931 2.67771 44.8454C2.8225 45.1978 2.89642 45.5752 2.89527 45.9562C2.89527 47.5538 1.59958 48.8495 0.00195312 48.8495V52.8925C0.770573 52.8934 1.5074 53.1994 2.05047 53.7433C2.59268 54.2879 2.89654 55.0254 2.89527 55.7938C2.89427 57.3915 1.59958 58.6862 0.00195313 58.6862V62.7292C0.769772 62.7292 1.5056 63.0341 2.04747 63.577C2.58934 64.1199 2.89527 64.8557 2.89527 65.6225C2.89427 67.2201 1.59958 68.5148 0.00195313 68.5148V72.5579C0.772771 72.5579 1.5116 72.8648 2.05447 73.4117C2.59734 73.9585 2.90027 74.6994 2.89527 75.4702C2.89227 77.0658 1.59758 78.3575 0.00195313 78.3575V82.4006C0.76986 82.4021 1.50577 82.7083 2.0482 83.2519C2.59063 83.7954 2.89527 84.532 2.89527 85.2999C2.89627 86.0677 2.59234 86.8045 2.04947 87.3484C1.5066 87.8923 0.769772 88.1932 0.00195313 88.1922V92.2352C0.769772 92.2352 1.5056 92.5402 2.04747 93.083C2.58934 93.6259 2.89527 94.3617 2.89527 95.1286C2.89527 95.8954 2.59034 96.6322 2.04847 97.1751C1.5066 97.7179 0.769772 98.0229 0.00195312 98.0229V101.751H4.08699C4.08699 100.153 5.38268 98.8577 6.98031 98.8577C8.57793 98.8577 9.87362 100.153 9.87362 101.751H13.9167C13.9167 100.153 15.2124 98.8577 16.81 98.8577C18.4076 98.8577 19.7033 100.153 19.7033 101.751H23.7464C23.7153 101.224 23.8289 100.698 24.0749 100.23C24.3209 99.763 24.6899 99.3716 25.1421 99.0986C25.5943 98.8255 26.1125 98.6812 26.6407 98.6813C27.1689 98.6813 27.6871 98.8256 28.1393 99.0986C28.5915 99.3717 28.9605 99.763 29.2065 100.23C29.4524 100.698 29.566 101.224 29.535 101.751H33.577C33.577 100.153 34.8727 98.8577 36.4704 98.8577C38.068 98.8577 39.3637 100.153 39.3637 101.751H43.4067C43.4067 100.153 44.7024 98.8577 46.3 98.8577C47.8977 98.8577 49.1933 100.153 49.1933 101.751H53.2364C53.2364 101.368 53.3121 100.99 53.4591 100.637C53.6061 100.283 53.8215 99.9629 54.093 99.6934C54.3644 99.4239 54.6866 99.2108 55.0407 99.0663C55.3949 98.9219 55.7742 98.8489 56.1567 98.8517L56.1587 98.8527Z" fill="#EAE3DD"/>
<path d="M6.38477 6.17969H66.5816V95.5646H6.38477V6.17969Z" fill="#C1D2DF"/>
<path d="M66.1509 6.6138V95.1349H6.81787V6.6138H66.1509ZM67.0117 5.75H5.95508V95.9977H67.0147L67.0117 5.75Z" fill="#446F80"/>
<path d="M13.1577 13.5234L14.4244 16.0908L17.2587 16.5027L15.2072 18.5023L15.6911 21.3246L13.1577 19.9909L10.6223 21.3236L11.1062 18.5013L9.05664 16.5017L11.891 16.0898L13.1577 13.5234ZM13.1577 35.8222L14.4244 38.3906L17.2587 38.8015L15.2072 40.801L15.6911 43.6233L13.1577 42.2906L10.6223 43.6223L11.1062 40.8L9.05664 38.8005L11.891 38.3896L13.1577 35.8222ZM13.1577 58.1229L14.4244 60.6903L17.2587 61.1012L15.2072 63.1007L15.6911 65.9231L13.1577 64.5904L10.6223 65.9231L11.1062 63.1007L9.05664 61.1012L11.891 60.6903L13.1577 58.1229ZM13.1577 80.4227L14.4244 82.9891L17.2587 83.4019L15.2072 85.4015L15.6911 88.2238L13.1577 86.8901L10.6223 88.2218L11.1062 85.3995L9.05664 83.3999L11.891 82.9871L13.1577 80.4227ZM23.4752 24.6728L24.7429 27.2402L27.5763 27.6521L25.5268 29.6516L26.0106 32.474L23.4752 31.1423L20.9418 32.474L21.4257 29.6516L19.3762 27.6521L22.2085 27.2402L23.4752 24.6728ZM23.4752 69.2723L24.7429 71.8397L27.5763 72.2516L25.5268 74.2511L26.0106 77.0734L23.4752 75.7408L20.9418 77.0734L21.4257 74.2511L19.3762 72.2516L22.2085 71.8397L23.4752 69.2723Z" fill="#DFE8EE"/>
<path d="M36.1113 24.7383H66.1562V95.1357H36.1113V24.7383Z" fill="#96C1DA"/>
<path d="M37.233 80.5117C37.1382 80.5819 37.0234 80.6198 36.9055 80.6198C36.7876 80.6198 36.6728 80.5819 36.5781 80.5117V81.0836L37.233 81.0946V80.5117ZM23.8151 84.0499L23.7841 84.0569H23.7441V84.6827H23.8151V84.0499Z" fill="#88B0C8"/>
<path d="M18.8566 78.3216H18.8676L18.8996 78.2776L18.8676 78.2346H18.6517C18.6693 78.134 18.6647 78.0308 18.6382 77.9322C18.6117 77.8335 18.5639 77.7419 18.4982 77.6637C18.4325 77.5855 18.3505 77.5226 18.2579 77.4795C18.1654 77.4364 18.0645 77.414 17.9623 77.414C17.8602 77.414 17.7593 77.4364 17.6668 77.4795C17.5742 77.5226 17.4922 77.5855 17.4265 77.6637C17.3608 77.7419 17.313 77.8335 17.2865 77.9322C17.26 78.0308 17.2554 78.134 17.273 78.2346H17.0571L17.0231 78.2776L17.0571 78.3216H17.068V79.1924H16.7471L16.7031 79.2364L16.7471 79.2794H16.7621V80.708H16.4622L16.4082 80.763L16.4622 80.817H16.4812V83.3924L17.4969 83.3764V86.3657H18.6437V84.0562H18.6007C18.5537 84.0602 18.5087 84.0382 18.4837 83.9982C18.4587 83.9583 18.4587 83.9083 18.4837 83.8683C18.5087 83.8283 18.5537 83.8053 18.6007 83.8103H19.0006V79.1924H18.8446L18.8566 78.3216ZM54.8291 79.1894H55.49V78.1006H55.501L55.535 78.0666L55.501 78.0347H55.283C55.262 77.7047 55.0101 77.4368 54.6832 77.3928V79.1924L54.8291 79.1894ZM37.2843 80.4781C37.4572 80.3241 37.5162 80.0802 37.4342 79.8642C37.3523 79.6483 37.1453 79.5053 36.9134 79.5053C36.8005 79.5057 36.6903 79.5401 36.5974 79.6042C36.5044 79.6682 36.433 79.7589 36.3925 79.8642C36.3095 80.0802 36.3695 80.3241 36.5425 80.4781V81.0849L35.9796 81.0759V88.3742H36.2975V84.919H36.8734V83.2344L38.1171 82.3476V81.1159L37.2843 81.1029V80.4781ZM37.2413 81.0949L36.5864 81.0839V80.5121C36.6812 80.5823 36.796 80.6202 36.9139 80.6202C37.0318 80.6202 37.1466 80.5823 37.2413 80.5121V81.0949ZM65.5406 82.9485V81.4968H65.5666L65.6436 81.4169L65.5666 81.3399H65.3137V78.0926H65.3227L65.4006 78.0147L65.3227 77.9367H65.0777V76.553H65.3777L64.4779 74.9844H63.4161L63.3061 75.1773V83.3014L64.6218 84.0502V83.3104H65.2447V82.2857H65.3327V83.3104H66.1735V82.9475L65.5406 82.9485Z" fill="#488BA9"/>
<path d="M58.9399 77.5448H58.9699L59.0618 77.4528L58.9699 77.3608H58.7879V76.2081H58.9319L58.7879 75.3163V74.5984H56.4964V74.6774H56.1485L55.8976 76.2081H56.0665V77.3558H55.8666L55.7746 77.4478L55.8666 77.5397H55.8966V80.539H55.7966V79.2733H55.8096L55.8536 79.2304L55.8096 79.1864H54.6789V81.4778H54.9888L55.0888 81.5778L54.9888 81.6778H54.9788V85.8268H55.3037L55.4037 85.9268L55.3037 86.0267H55.2717V88.8461H55.5127V85.7658H55.4907L55.4257 85.7008L55.4907 85.6358H56.5504V85.097C56.2765 84.852 56.1825 84.4641 56.3135 84.1202C56.4445 83.7763 56.7734 83.5503 57.1413 83.5503C57.5092 83.5503 57.8381 83.7773 57.9691 84.1202C58.1001 84.4631 58.0061 84.852 57.7321 85.097V85.6358H59.0518L59.1178 85.7008L59.0518 85.7658H59.0368V88.8431H59.2528V84.0132H58.9469L58.9399 77.5448ZM31.8073 76.551H32.1072V77.9347H31.8622L31.7843 78.0126L31.8622 78.0906H31.8732V80.601L32.825 77.6257V74.9824H32.719L31.8073 76.551ZM38.6876 81.9297L38.7776 81.8667V81.7338H38.6876V81.9297ZM40.9721 79.6862H40.8371V81.6308L39.3695 82.4666V82.9475H38.9776V84.914H39.5534V88.3682H40.0843V90.3597H40.4202V87.2854H40.3872L40.2873 87.1855L40.3872 87.0855H40.7711V82.9765H40.7432L40.6572 82.8905L40.7432 82.8025H41.212V81.4158L40.9721 81.5528V79.6862ZM49.5301 80.764H49.6581V81.6928H49.4991L49.4301 81.7438H48.9162V78.1376H48.9552C48.987 78.1376 49.0176 78.125 49.0401 78.1025C49.0625 78.08 49.0752 78.0495 49.0752 78.0176L48.9552 77.8977H48.6983V75.6912H48.9062L48.5803 74.9044H47.7325V73.8946H47.8475L47.9625 73.7796L47.8475 73.6647H47.4476V72.9248H47.5186L47.5925 72.8509L47.5186 72.7769H46.9797V70.7773H46.8797V72.7769H46.3408L46.2668 72.8509L46.3408 72.9248H46.4138V73.6647H46.0139L45.8989 73.7796L46.0139 73.8946H46.1269V74.9044H45.2651L44.9372 75.6912H45.1461V77.8987H44.8902L44.7702 78.0186C44.7702 78.0505 44.7828 78.081 44.8053 78.1035C44.8278 78.126 44.8584 78.1386 44.8902 78.1386H44.9282V80.3931H45.0491L45.1191 80.4631L45.0491 80.533H45.0261V82.8035H45.494L45.582 82.8915L45.494 82.9775H45.467V87.0865H46.1949V82.9785H46.1669L46.0789 82.8925L46.1669 82.8045H50.9198L51.0077 82.8925L50.9198 82.9785H50.8928V87.0875H51.1687V86.0267H51.1367L51.0367 85.9268L51.1367 85.8268H51.4616V81.6768H51.4486L51.3487 81.5768L51.4486 81.4768H51.7626V79.5303H49.729L49.5301 80.764ZM44.4663 78.4975H44.1663C44.1928 78.5792 44.2093 78.6638 44.2153 78.7495H44.4493V78.5915H44.4643L44.5113 78.5455L44.4663 78.4975ZM41.8469 78.5465L41.8939 78.5925H41.9089V78.7505H42.0238C42.0309 78.6649 42.0477 78.5803 42.0738 78.4985H41.8949L41.8469 78.5465ZM56.6204 85.154V85.6388H57.6622V85.154C57.3522 85.3799 56.9303 85.3799 56.6204 85.154ZM15.3671 81.6928H15.2142V80.764H15.3411L15.1412 79.5313H13.0977L12.8977 80.764H13.0327V81.6928H12.8687L12.7997 81.7438H12.2859V78.1376H12.3239C12.3397 78.1377 12.3554 78.1347 12.3701 78.1288C12.3847 78.1228 12.3981 78.114 12.4093 78.1028C12.4206 78.0917 12.4295 78.0784 12.4356 78.0638C12.4417 78.0492 12.4448 78.0335 12.4448 78.0176L12.3239 77.8977H12.0679V75.6912H12.2679L11.9419 74.9044H11.0991V73.8946H11.2151L11.3301 73.7796L11.2151 73.6647H10.8152V72.9248H10.8882L10.9622 72.8509L10.8882 72.7769H10.3493V70.7773H10.2493V72.7769H9.71047L9.63649 72.8509L9.71047 72.9248H9.78146V73.6647H9.38155L9.26658 73.7796L9.38155 73.8946H9.49453V74.9044H8.64373L8.3158 75.6912H8.51576V77.8987H8.25882L8.13984 78.0186C8.13984 78.0506 8.15184 78.0806 8.17384 78.1036C8.19583 78.1266 8.22682 78.1386 8.25882 78.1386H8.29781V82.4916H7.81592V78.5925H7.83092L7.87791 78.5465L7.83092 78.4975H7.41602V83.2964L8.7327 84.0462V83.3064H9.35356V82.2826H9.43754V83.3124H10.6313V82.2886H10.7152V83.3124H11.2621V85.4979L11.4451 85.6028V86.3667H13.4446V83.4424L16.3229 83.3954V81.7448H15.4231L15.3671 81.6928ZM31.6023 78.7755H29.0669L28.9959 78.8464L29.0669 78.9174H29.0759V81.8887H28.844L28.773 81.9597L28.844 82.0307H28.867V84.0132H28.2511V77.5487H28.2811L28.3731 77.4568L28.2811 77.3648H28.0811V76.2091H28.2401L27.9892 74.6794H25.4578L25.2068 76.2091H25.3658V77.3618H25.1658L25.0739 77.4538L25.1658 77.5458H25.1958V79.7312H27.8262L27.9412 79.8442L27.8262 79.9572H27.8112V84.6821H28.1801L28.2931 84.797L28.1801 84.91H28.1441V88.0633H29.6598V87.4634L31.6203 81.3369H31.6023H31.5823V78.9184H31.5913L31.6643 78.8474L31.6023 78.7755Z" fill="#488BA9"/>
<path d="M65.3185 83.3108V82.2871H65.2325V83.3108H64.6096V84.0506L63.2939 83.3018V73.7751H63.3179L63.3919 73.7011L63.3179 73.6261H59.2199L59.1459 73.7011L59.2199 73.7751H59.2439V88.8455H59.03V85.7692H59.0499L59.1159 85.7043L59.0499 85.6393H57.7303V85.1004C58.0052 84.8555 58.0992 84.4665 57.9682 84.1226C57.8372 83.7787 57.5073 83.5518 57.1394 83.5518C56.7715 83.5518 56.4416 83.7787 56.3106 84.1226C56.1796 84.4665 56.2746 84.8555 56.5485 85.1004V85.6393H55.4888L55.4238 85.7043L55.4888 85.7692H55.5108V88.8455H55.2678V86.0262H55.2998L55.3998 85.9262L55.2998 85.8262H54.9799V81.6772H54.9929L55.0929 81.5772L54.9929 81.4773H54.679V67.4106H55.0579L53.9392 65.474H54.0201L54.1201 65.3741L54.0201 65.2741H53.9202V64.3093H54.0201L54.1201 64.2093L54.0201 64.1094H53.6742V55.2734L52.7654 61.472V64.1094H52.4255L52.3255 64.2093L52.4255 64.3093H52.5255V65.2741H52.4255L52.3255 65.3741L52.4255 65.474H52.5095L51.3918 67.4106H51.7707V81.4773H51.4567L51.3568 81.5772L51.4567 81.6772H51.4697V85.8262H51.1448L51.0448 85.9262L51.1448 86.0262H51.1768V87.0869H50.9009V82.9779H50.9279L51.0158 82.8919L50.9279 82.8039H46.171L46.083 82.8919L46.171 82.9779H46.199V87.0869H45.4711V82.9779H45.4981L45.5861 82.8919L45.4981 82.8039H45.0303V80.5375H45.0532L45.1232 80.4675L45.0532 80.3975H44.5424V78.8599H44.5604L44.6133 78.8069L44.5604 78.7539H44.2184C44.2124 78.6679 44.1964 78.5839 44.1695 78.502C44.0315 78.0371 43.6046 77.7181 43.1197 77.7181C42.6348 77.7181 42.2079 78.0371 42.07 78.502C42.0438 78.5838 42.027 78.6683 42.02 78.7539H41.679L41.6261 78.8069L41.679 78.8599H41.695V80.3975H41.1852L41.1152 80.4675L41.1852 80.5375H41.2082V82.8079H40.7393L40.6533 82.8959L40.7393 82.9819H40.7673V87.0909H40.3834L40.2834 87.1909L40.3834 87.2909H40.4243V90.3652H40.0844V88.3736H39.5545V84.9184H38.9777V81.7302L38.7777 81.8732L38.6878 81.9361L38.1119 82.3501L36.8682 83.2368V84.9214H36.2923V88.3746H35.9754V74.6129H35.9944L36.0524 74.5549L35.9944 74.4969H32.8011L32.7432 74.5549L32.8011 74.6129H32.8201V77.6282L31.8684 80.6035L31.6314 81.3433L29.6709 87.4658V88.0657H28.1552V84.9084H28.1912L28.3042 84.7955L28.1912 84.6805H27.8223V79.9576H27.8373L27.9503 79.8446L27.8373 79.7317H23.8043L23.6913 79.8446L23.8043 79.9576H23.8193V83.8147H23.3844V78.6439H23.4004C23.4683 78.6439 23.5243 78.5879 23.5243 78.52C23.5243 78.452 23.4683 78.396 23.4004 78.396H23.0094V76.1965H23.4813L22.0407 73.7031H20.3541L18.9144 76.1965H19.3843V78.396H18.9924C18.9484 78.396 18.9074 78.42 18.8854 78.458C18.8634 78.496 18.8634 78.5439 18.8854 78.5819C18.9074 78.6199 18.9484 78.6439 18.9924 78.6439H19.0054V83.8097H18.6055C18.5585 83.8057 18.5135 83.8277 18.4885 83.8677C18.4635 83.9077 18.4635 83.9577 18.4885 83.9977C18.5135 84.0377 18.5585 84.0606 18.6055 84.0556H18.6455V86.3651H17.4957V83.3758L16.48 83.3918H16.33L13.4517 83.4388V86.3621H11.4592V85.5983L11.2762 85.4933V83.3108H10.7223V82.2871H10.6314V83.3108H9.43165V82.2871H9.34267V83.3108H8.73181V84.0506L7.41812 83.3018V73.7751H7.44212L7.5171 73.7011L7.44212 73.6261H6.82227V95.134H66.1583V83.3108H65.3185ZM23.8193 84.6825H23.7483V84.0556H23.8193V84.6825ZM57.6623 85.6393H56.6205V85.1544C56.9305 85.3803 57.3523 85.3803 57.6623 85.1544V85.6393Z" fill="#72A7C4"/>
<path d="M66.1541 30.6506H37.9148L36.4861 44.2014L27.9771 30.6506L26.5645 11.0332H66.1551L66.1541 30.6506Z" fill="#DFE8EE"/>
<path d="M43.0528 15.7955C43.0728 15.6215 43.0238 15.4476 42.9179 15.3086L42.379 14.8087L42.291 14.6528C42.291 14.6262 42.3015 14.6008 42.3203 14.5821C42.339 14.5633 42.3645 14.5528 42.391 14.5528H45.0484C45.0619 14.5521 45.0754 14.5542 45.0882 14.5589C45.1009 14.5636 45.1125 14.5709 45.1223 14.5802C45.1321 14.5896 45.1399 14.6008 45.1453 14.6133C45.1506 14.6258 45.1534 14.6392 45.1533 14.6528L45.0654 14.8087L44.5265 15.3086C44.4275 15.4506 44.3805 15.6225 44.3915 15.7955V25.2413C44.3915 26.0051 44.4605 26.7009 45.2773 26.7009C45.9192 26.7009 46.0931 26.0011 46.0931 25.2413V15.7955C46.1131 15.6215 46.0641 15.4476 45.9581 15.3086L45.4193 14.8087L45.3313 14.6528C45.3313 14.6392 45.334 14.6258 45.3394 14.6133C45.3447 14.6008 45.3525 14.5896 45.3623 14.5802C45.3721 14.5709 45.3838 14.5636 45.3965 14.5589C45.4092 14.5542 45.4227 14.5521 45.4363 14.5528H47.8147C47.8278 14.5528 47.8408 14.5554 47.853 14.5604C47.8651 14.5654 47.8761 14.5728 47.8854 14.5821C47.8947 14.5913 47.9021 14.6024 47.9071 14.6145C47.9121 14.6266 47.9147 14.6396 47.9147 14.6528L47.8287 14.8087L47.2898 15.3086C47.1909 15.4506 47.1439 15.6225 47.1549 15.7955V25.6932C47.155 25.9513 47.1019 26.2068 46.9989 26.4435C46.896 26.6803 46.7453 26.8933 46.5564 27.0693C46.3675 27.2452 46.1443 27.3804 45.9009 27.4663C45.6574 27.5523 45.3989 27.5871 45.1413 27.5687C44.877 27.6043 44.608 27.582 44.3531 27.5034C44.0983 27.4247 43.8635 27.2915 43.6652 27.1131C43.4669 26.9347 43.3098 26.7153 43.2048 26.4701C43.0997 26.2249 43.0492 25.9598 43.0568 25.6932L43.0528 15.7955ZM48.9055 26.7009C48.9055 27.1178 48.7315 27.5687 48.2626 27.5687C47.7937 27.5687 47.6378 27.1168 47.6378 26.7009C47.6378 26.285 47.8117 25.8151 48.2626 25.8151C48.7135 25.8151 48.9055 26.267 48.9055 26.7009ZM53.2464 19.0417C53.2464 19.0947 53.2114 19.1297 53.1465 19.1297C53.0815 19.1297 53.0585 19.0767 53.0415 19.0087C52.7635 17.6021 51.9307 15.4096 51.1319 15.4096C50.698 15.4096 50.663 15.7745 50.663 16.2264C50.663 17.0772 50.889 17.926 52.1737 20.6553C53.3864 23.2257 53.5214 23.7986 53.5214 25.1703C53.5214 27.0108 52.5676 27.5697 51.9217 27.5697C51.5708 27.5667 51.2299 27.4507 50.949 27.2398C50.846 27.1588 50.728 27.0998 50.6011 27.0658C50.5321 27.0658 50.3931 27.1888 50.0462 27.4487C49.9772 27.4997 49.9112 27.5697 49.8382 27.5697C49.7653 27.5697 49.7503 27.5357 49.7503 27.4837V23.1078C49.7503 23.0548 49.7683 22.9848 49.8382 22.9848L49.9382 23.1078C50.2511 24.4974 50.789 26.7069 51.8128 26.7069C52.1427 26.7069 52.3127 26.342 52.3127 25.8071C52.3127 24.6424 51.7928 23.3817 50.802 21.2922C50.0282 19.8895 49.5883 18.3259 49.5173 16.7253C49.5173 15.0747 50.2291 14.5538 51.1169 14.5538C51.475 14.5822 51.8152 14.7221 52.0897 14.9537C52.1676 15.0063 52.2565 15.0405 52.3496 15.0537C52.5026 14.9957 52.6396 14.9037 52.7496 14.7837C52.9115 14.6358 53.0105 14.5578 53.1145 14.5578C53.2184 14.5578 53.2354 14.6438 53.2354 14.7477L53.2464 19.0417ZM55.4179 26.7009C55.4179 27.1178 55.244 27.5687 54.7751 27.5687C54.3062 27.5687 54.1502 27.1168 54.1502 26.7009C54.1502 26.285 54.3242 25.8151 54.7751 25.8151C55.226 25.8151 55.4179 26.267 55.4179 26.7009ZM59.0471 24.6684C59.0291 24.5824 58.9781 24.5124 58.8911 24.5124H57.6054C57.5544 24.5124 57.5194 24.5654 57.5054 24.6334L57.2455 26.549C57.2372 26.6042 57.2405 26.6606 57.2553 26.7145C57.2701 26.7684 57.2961 26.8186 57.3315 26.8619L57.7144 27.2618C57.7834 27.3498 57.8883 27.4177 57.8883 27.4707C57.8883 27.5237 57.8533 27.5707 57.7674 27.5707H55.7678C55.7543 27.5714 55.7408 27.5693 55.728 27.5646C55.7153 27.5599 55.7037 27.5526 55.6939 27.5433C55.6841 27.5339 55.6763 27.5227 55.6709 27.5102C55.6656 27.4977 55.6628 27.4843 55.6629 27.4707L55.7838 27.2968L56.2707 26.8099C56.362 26.684 56.4095 26.5315 56.4057 26.376L57.9863 14.7067C58.0043 14.6188 58.0373 14.5508 58.1213 14.5508H58.7641C58.8501 14.5508 58.8991 14.6368 58.9201 14.7407L60.5697 26.394C60.5742 26.5681 60.6417 26.7347 60.7597 26.8629L61.2595 27.3148L61.3595 27.4707C61.3595 27.5217 61.3255 27.5707 61.2385 27.5707H58.7471C58.6612 27.5707 58.6262 27.5177 58.6262 27.4707L58.7471 27.3148L59.216 26.8459C59.295 26.7479 59.326 26.6209 59.302 26.498L59.0471 24.6684ZM58.8041 23.5906C58.8551 23.5906 58.8901 23.5397 58.8731 23.4697L58.2652 19.2147H58.2303L57.6604 23.4867C57.6424 23.5557 57.6784 23.5866 57.7134 23.5866L58.8041 23.5906Z" fill="white"/>
<path d="M58.6349 23.5947C58.5999 23.5947 58.5659 23.5597 58.5819 23.4948L59.1558 19.2228H59.1898L59.7976 23.4778C59.8156 23.5478 59.7816 23.5987 59.7286 23.5987L58.6349 23.5947ZM60.2345 26.4941C60.2605 26.617 60.2285 26.745 60.1485 26.842L59.6796 27.3109L59.5587 27.4668C59.5587 27.5178 59.5937 27.5668 59.6796 27.5668H62.179C62.267 27.5668 62.3 27.5138 62.3 27.4668L62.2 27.3109L61.7002 26.859C61.5818 26.731 61.514 26.5643 61.5092 26.3901L59.8596 14.7368C59.8416 14.6369 59.7906 14.5469 59.7036 14.5469H59.0608C58.9748 14.5469 58.9398 14.6159 58.9258 14.7028L57.3462 26.3721C57.3492 26.5281 57.3022 26.68 57.2112 26.806L56.7263 27.2929L56.6034 27.4668C56.6033 27.4804 56.6061 27.4938 56.6114 27.5063C56.6168 27.5187 56.6246 27.53 56.6344 27.5393C56.6442 27.5487 56.6558 27.556 56.6685 27.5607C56.6813 27.5654 56.6948 27.5675 56.7083 27.5668H58.7079C58.7938 27.5668 58.8288 27.5138 58.8288 27.4668C58.8288 27.4198 58.7239 27.3459 58.6549 27.2579L58.273 26.858C58.2 26.771 58.168 26.657 58.185 26.545L58.4469 24.6345C58.4629 24.5655 58.4979 24.5135 58.5469 24.5135H59.8316C59.9196 24.5135 59.9666 24.5835 59.9876 24.6695L60.2345 26.4941ZM55.7026 25.8202C55.2507 25.8202 55.0777 26.2721 55.0777 26.706C55.0777 27.1399 55.2517 27.5738 55.7026 27.5738C56.1535 27.5738 56.3454 27.1219 56.3454 26.706C56.3454 26.2901 56.1715 25.8182 55.7026 25.8182V25.8202ZM54.1809 14.7368C54.1809 14.6369 54.1459 14.5469 54.06 14.5469C53.974 14.5469 53.851 14.6329 53.695 14.7718C53.5831 14.8918 53.4471 14.9868 53.2951 15.0498C53.202 15.0366 53.1131 15.0024 53.0352 14.9498C52.7609 14.7183 52.4211 14.5785 52.0634 14.5499C51.1766 14.5499 50.4638 15.0698 50.4638 16.7214C50.5378 18.322 50.9777 19.8846 51.7495 21.2883C52.7383 23.3718 53.2601 24.6385 53.2601 25.8032C53.2601 26.3421 53.0862 26.703 52.7603 26.703C51.7365 26.703 51.1966 24.4985 50.8847 23.1039L50.7847 22.9809C50.7157 22.9809 50.6968 23.0509 50.6968 23.1039V27.4798C50.6968 27.5328 50.7157 27.5658 50.7847 27.5658C50.8537 27.5658 50.9197 27.4958 50.9927 27.4448C51.3406 27.1849 51.4796 27.0619 51.5496 27.0619C51.676 27.0961 51.7943 27.1552 51.8975 27.2359C52.1774 27.4468 52.5183 27.5628 52.8692 27.5658C53.5121 27.5658 54.4689 27.0109 54.4689 25.1664C54.4689 23.7947 54.3339 23.2218 53.1212 20.6514C51.8355 17.9251 51.6095 17.0733 51.6095 16.2225C51.6095 15.7696 51.6455 15.4057 52.0794 15.4057C52.8792 15.4057 53.711 17.5932 53.989 19.0048C54.007 19.0748 54.04 19.1258 54.089 19.1258C54.1141 19.1273 54.1388 19.1193 54.1583 19.1033C54.1777 19.0874 54.1905 19.0647 54.1939 19.0398L54.1809 14.7368ZM49.1941 25.8172C48.7422 25.8172 48.5693 26.2691 48.5693 26.703C48.5693 27.1369 48.7432 27.5708 49.1941 27.5708C49.645 27.5708 49.837 27.1189 49.837 26.703C49.837 26.2871 49.657 25.8182 49.1921 25.8182L49.1941 25.8172ZM43.9843 25.6942C43.9767 25.9609 44.0272 26.226 44.1323 26.4712C44.2373 26.7164 44.3944 26.9358 44.5927 27.1142C44.791 27.2926 45.0258 27.4258 45.2806 27.5045C45.5355 27.5831 45.8045 27.6054 46.0688 27.5698C46.3267 27.5879 46.5855 27.5528 46.8292 27.4669C47.073 27.3809 47.2965 27.2459 47.486 27.0701C47.6755 26.8943 47.8269 26.6815 47.9308 26.4448C48.0348 26.2082 48.0891 25.9527 48.0904 25.6942V15.7966C48.0794 15.6246 48.1274 15.4537 48.2253 15.3117L48.7642 14.8118L48.8502 14.6558C48.8502 14.6423 48.8475 14.6289 48.8421 14.6164C48.8368 14.6039 48.829 14.5927 48.8192 14.5833C48.8093 14.574 48.7977 14.5667 48.785 14.562C48.7723 14.5573 48.7588 14.5552 48.7452 14.5559H46.3648C46.3383 14.5559 46.3128 14.5664 46.2941 14.5852C46.2753 14.6039 46.2648 14.6293 46.2648 14.6558L46.3508 14.8118L46.8897 15.3117C46.9956 15.4497 47.0436 15.6236 47.0246 15.7966V25.2444C47.0246 26.0102 46.8507 26.704 46.2078 26.704C45.391 26.704 45.322 26.0102 45.322 25.2444V15.7966C45.312 15.6246 45.359 15.4537 45.457 15.3117L45.9959 14.8118L46.0838 14.6558C46.0838 14.6293 46.0733 14.6039 46.0546 14.5852C46.0358 14.5664 46.0104 14.5559 45.9839 14.5559H43.3285C43.302 14.5559 43.2765 14.5664 43.2578 14.5852C43.239 14.6039 43.2285 14.6293 43.2285 14.6558L43.3145 14.8118L43.8534 15.3117C43.9593 15.4497 44.0073 15.6236 43.9883 15.7966L43.9843 25.6942Z" fill="#446F80"/>
<path d="M59.5523 51.6495L59.4863 51.6815L59.5433 51.7815L59.7633 52.0514L59.8522 52.2384L60.5681 57.7001L60.6331 57.7481H60.869L60.935 57.7001L61.3649 53.879H61.3809L61.9088 57.7001L61.9747 57.7481H62.2107L62.2757 57.6991L62.8755 52.2374L62.9485 52.0504L63.2184 51.7575L63.2504 51.6845L63.1935 51.6525H62.1607L62.0877 51.6845L62.1277 51.7655L62.3796 52.0174L62.4036 52.1644L62.0867 55.0417H62.0757L61.6848 52.1714L61.7088 52.0364L61.9687 51.7765L62.0177 51.6875L61.9597 51.6555H60.926L60.86 51.6875L60.91 51.7685L61.1619 52.0204L61.2019 52.1674L60.877 55.0447H60.859L60.4861 52.1584L60.5261 51.9954L60.738 51.7595L60.778 51.6785L60.713 51.6465L59.5523 51.6495ZM61.2129 43.9353H61.6768C61.7249 43.9312 61.7728 43.9447 61.8118 43.9732C61.8507 44.0016 61.8781 44.0432 61.8888 44.0903L62.3267 45.6169L62.3926 45.6749L62.4326 45.6249V43.6024L62.3676 43.5294H60.2621L60.2132 43.5764L60.2701 43.6504L60.5131 43.8863C60.5691 43.9483 60.5961 44.0313 60.5871 44.1143V49.0391C60.5961 49.1221 60.5691 49.2051 60.5131 49.2671L60.2701 49.503L60.2132 49.576L60.2621 49.626H62.3676L62.4326 49.552V47.5085L62.3926 47.4585L62.3347 47.5085L61.8968 49.0691C61.8658 49.1621 61.7748 49.2231 61.6768 49.2151H61.2129V46.7447H61.3919L61.4809 46.8017L61.7568 47.3945L61.8138 47.4525L61.8478 47.4105V45.6869L61.8138 45.6389L61.7648 45.6869L61.4809 46.2558L61.3919 46.3128H61.2129V43.9353ZM60.3571 40.916C60.3601 40.9984 60.3339 41.0791 60.2831 41.144L60.0832 41.3739L60.0262 41.4549L60.0762 41.4949H61.1539L61.2029 41.4549L61.1459 41.3739L60.917 41.133C60.86 41.075 60.83 40.995 60.836 40.913V36.87H60.854L61.8038 41.299C61.8278 41.4219 61.8928 41.4989 61.9657 41.4989H62.3077L62.3886 41.4099V35.9842C62.3856 35.9022 62.4116 35.8212 62.4616 35.7563L62.6696 35.5263L62.7266 35.4443L62.6776 35.4053H61.5958L61.5468 35.4443L61.6038 35.5263L61.8318 35.7703C61.8868 35.8292 61.9138 35.9082 61.9048 35.9882V39.0365H61.8888L61.1419 35.5373C61.1239 35.4563 61.0999 35.4023 61.042 35.4023H60.0672L60.0172 35.4413L60.0742 35.5233L60.2741 35.7583C60.3249 35.8232 60.3511 35.9039 60.3481 35.9862L60.3571 40.916ZM60.4001 91.5981C60.4042 91.6391 60.3999 91.6804 60.3873 91.7197C60.3748 91.7589 60.3543 91.7951 60.3271 91.826L60.0752 92.054L60.0262 92.143L60.0662 92.183H61.3589L61.3989 92.143L61.3499 92.054L61.0979 91.826C61.0708 91.7951 61.0503 91.7589 61.0377 91.7197C61.0252 91.6804 61.0208 91.6391 61.025 91.5981V90.5643L61.3159 89.6885H61.3319L61.7858 91.5501C61.8148 91.6231 61.8058 91.7051 61.7618 91.7701L61.5518 92.054L61.4869 92.143L61.5358 92.183H62.7486L62.7886 92.143L62.7316 92.043L62.4556 91.773C62.4022 91.7179 62.3657 91.6484 62.3507 91.5731L61.6428 88.7118L62.2697 86.8252C62.3012 86.7015 62.3623 86.5873 62.4476 86.4923L62.7236 86.2164L62.7886 86.1164L62.7316 86.0774H61.5458L61.4889 86.1164L61.5458 86.2064L61.7978 86.4183C61.8618 86.4713 61.8818 86.5613 61.8468 86.6363L61.047 89.0287H61.031V86.6743C61.0268 86.6333 61.0312 86.5919 61.0437 86.5527C61.0563 86.5135 61.0768 86.4773 61.1039 86.4463L61.3559 86.2184L61.4049 86.1284L61.3649 86.0894H60.0722L60.0322 86.1284L60.0892 86.2184L60.3331 86.4463C60.362 86.4761 60.3836 86.5122 60.3963 86.5517C60.4089 86.5913 60.4123 86.6332 60.4061 86.6743L60.4001 91.5981ZM61.087 78.3722H61.2079C61.6078 78.3722 61.7688 78.6421 61.7688 79.4719C61.7688 80.4477 61.6068 80.7646 61.2079 80.7646H61.087V78.3722ZM61.087 81.1716H61.2219C61.3719 81.1875 61.5089 81.2635 61.6028 81.3805C61.6495 81.4387 61.6841 81.5057 61.7045 81.5774C61.7249 81.6492 61.7308 81.7243 61.7218 81.7984V83.545C61.7088 83.687 61.7588 83.8269 61.8598 83.9269C61.9095 83.9764 61.9694 84.0144 62.0354 84.0383C62.1014 84.0621 62.1718 84.0712 62.2417 84.0649H62.6646L62.7456 84.0409L62.6806 83.9519L62.4206 83.682L62.3477 83.535V81.8354C62.3527 81.6505 62.3069 81.4678 62.2152 81.3072C62.1235 81.1466 61.9895 81.0143 61.8278 80.9246C62.1117 80.7467 62.4276 80.3857 62.4276 79.479C62.4276 78.4222 61.9887 77.9793 61.1429 77.9793H60.1282L60.0782 78.0283L60.1352 78.1013L60.3791 78.3372C60.4065 78.3681 60.4271 78.4043 60.4399 78.4435C60.4526 78.4827 60.4571 78.5241 60.4531 78.5652V83.479C60.4571 83.52 60.4526 83.5615 60.4399 83.6007C60.4271 83.6399 60.4065 83.6761 60.3791 83.7069L60.1352 83.9429L60.0782 84.0159L60.1282 84.0649H61.4069L61.4569 84.0159L61.3989 83.9429L61.1549 83.7069C61.1278 83.676 61.1073 83.6398 61.0947 83.6006C61.0822 83.5614 61.0778 83.52 61.082 83.479L61.087 81.1716ZM61.3669 70.2551C61.6108 70.2551 61.7898 70.938 61.7898 72.7425C61.7898 74.856 61.6108 75.5419 61.3669 75.5419C61.1229 75.5419 60.952 74.86 60.952 72.7425C60.952 70.935 61.1309 70.2521 61.3669 70.2521V70.2551ZM61.3669 69.8552C60.3911 69.8552 60.2891 71.5708 60.2891 72.7405C60.2891 74.2772 60.3941 75.9508 61.3669 75.9508C62.3397 75.9508 62.4556 74.2772 62.4556 72.7405C62.4556 71.5708 62.3507 69.8512 61.3669 69.8512V69.8552ZM61.048 67.2398C61.0521 67.2808 61.0477 67.3222 61.0352 67.3614C61.0226 67.4006 61.0021 67.4368 60.975 67.4678L60.731 67.7037L60.673 67.7767L60.723 67.8247H61.9997L62.0487 67.7767L61.9917 67.7037L61.7468 67.4678C61.7196 67.4368 61.6991 67.4006 61.6866 67.3614C61.674 67.3222 61.6697 67.2808 61.6738 67.2398V65.0454L62.2617 62.314C62.2722 62.2461 62.3001 62.182 62.3427 62.128L62.6126 61.8521L62.6696 61.7631L62.6066 61.7201H61.5288L61.4559 61.7601L61.5129 61.8421L61.7728 62.0771L61.8048 62.232L61.4219 64.0316H61.4069L61.042 62.232L61.066 62.0771L61.3179 61.8421L61.3749 61.7601L61.3099 61.7201H60.1472L60.0902 61.7541L60.1392 61.8431L60.3671 62.119L60.4561 62.305L61.056 65.2883L61.048 67.2398Z" fill="white"/>
<path d="M45.7594 55.8554C46.403 54.5056 46.7594 53.037 46.8062 51.5424L48.1449 50.7426L49.1087 48.4002L48.7317 47.3534C48.7317 47.3534 49.6525 45.8468 49.4856 45.7628L46.1384 43.9272L44.7997 46.0187L43.417 44.889C43.417 44.889 42.7901 40.79 41.5764 40.495C41.2399 40.4324 40.9304 40.2685 40.6896 40.0251C40.7086 39.4713 40.6017 38.9214 40.3757 38.4155C39.9018 37.4887 41.2055 37.2858 41.1665 36.529C41.1275 35.7721 40.7906 33.1478 40.7316 32.6129C40.5037 32.3799 40.3627 32.076 40.3317 31.7521L40.4797 31.5111L44.5067 32.011L40.8356 30.9333L41.1755 30.3794L43.8889 27.862L40.5427 29.9615C40.3267 29.8625 40.1058 29.7765 39.8808 29.7016L41.0516 25.9025L38.8431 29.4466L38.4572 29.3976L37.8573 24.4908L37.2575 29.3976L36.8715 29.4466L34.6591 25.9025L35.8328 29.7016C35.608 29.7763 35.3874 29.863 35.1719 29.9615L31.8227 27.867L34.5401 30.3844L34.877 30.9373L31.2069 32.022L35.2319 31.5221L35.2859 31.6081C35.0184 33.0383 34.9368 34.497 35.043 35.9481C35.024 36.539 34.892 37.1218 34.6551 37.6637C34.5254 37.4769 34.4557 37.2552 34.4551 37.0278C34.4551 36.149 33.3254 35.8571 33.3254 35.8571C33.0383 35.7693 32.792 35.5819 32.6309 35.3285C32.4697 35.0752 32.4044 34.7727 32.4466 34.4754C32.4886 33.3027 31.9867 32.259 31.1469 32.3409C30.785 32.4039 30.4401 32.5399 30.1331 32.7408C30.0921 32.133 29.9852 31.5321 29.8152 30.9473C29.5913 30.5014 29.4243 29.9475 29.2004 27.3191C29.146 26.6152 29.0153 25.9193 28.8104 25.2436C28.9184 24.9667 28.9734 24.6728 28.9744 24.3758C28.9744 24.1189 29.0454 24.3028 29.0914 23.837C29.1374 23.3711 28.8114 23.2981 28.9744 22.9492C29.1374 22.6002 29.0624 21.8444 28.5375 21.9164L28.5875 21.3845C28.7783 21.4575 28.9621 21.5478 29.1364 21.6545L29.6203 20.8647C29.8522 20.9666 30.0781 21.0846 30.2941 21.2166C30.6533 20.63 31.0126 20.0462 31.3718 19.465C30.7119 19.0606 29.9936 18.7602 29.2423 18.5742C29.6962 18.1043 29.9502 17.4764 29.9512 16.8226C29.9512 16.8226 30.1861 13.9333 29.4353 13.2454C29.7052 14.1362 29.3913 14.1322 29.2793 13.6673C28.7495 11.3469 27.5277 11.049 26.562 11.043C27.5927 11.5119 27.1708 12.9955 25.8761 14.2922C25.5131 14.5975 25.2327 14.9891 25.0606 15.4311C24.8885 15.8731 24.8303 16.3512 24.8914 16.8216C24.8924 17.4755 25.1463 18.1033 25.6002 18.5732C24.8489 18.7592 24.1307 19.0596 23.4707 19.464L24.5484 21.2156C24.7649 21.0832 24.99 20.9656 25.2223 20.8637L25.7062 21.6535C25.8805 21.5468 26.0642 21.4565 26.255 21.3835L26.286 21.7085C25.7002 22.1084 26.0501 25.2076 26.486 25.6655C26.5437 25.7273 26.6073 25.7832 26.6759 25.8325L26.7519 26.6493H27.1518L27.0749 30.6693C26.8749 31.6691 27.5747 33.9346 27.5487 34.3255C27.6577 35.2243 27.8517 36.1101 28.1266 36.9718C27.9167 37.7337 28.0556 38.5495 28.5055 39.1993C29.7602 40.372 28.5685 40.2451 28.5795 40.664C28.5905 41.0829 30.0951 40.2031 29.8452 41.5848C29.5953 42.9664 28.9734 43.9302 29.6452 44.884C30.3171 45.8378 29.8962 47.1834 29.5183 48.3572C28.7405 49.9208 28.9274 51.7914 29.9982 53.17C31.5278 55.5565 29.2653 56.3103 29.9982 58.9867C30.731 61.663 29.5983 65.3492 29.8542 65.935C30.0621 66.3639 30.1491 66.8408 30.1051 67.3147L30.2721 73.8012C30.0202 74.555 31.2339 77.1484 30.0631 77.4003C28.8924 77.6523 27.4258 77.9852 27.4258 78.655H25.7112V81.5253H26.9499V92.2678H25.7132V95.1321H48.2079V92.2648H46.9712V81.5333H48.2079V78.663H46.5083C46.5593 76.7635 43.209 78.0482 43.267 76.6415C43.1618 74.6823 43.2738 72.7174 43.601 70.7829C43.7975 69.6405 43.8912 68.4828 43.8809 67.3237L44.3688 66.6758V65.1932L44.5357 64.4834L43.9969 56.8662C43.9969 56.8662 44.7507 57.697 45.7594 55.8554ZM36.1007 37.9216L35.8068 38.6045C35.5724 38.4682 35.3473 38.3166 35.133 38.1506C35.3859 37.8966 35.7608 37.8077 36.1007 37.9216ZM39.3849 39.7662C39.3481 39.5801 39.3208 39.3922 39.303 39.2033C39.5035 39.3345 39.6896 39.4866 39.8578 39.6572C39.7029 39.7052 39.5449 39.7412 39.3849 39.7662Z" fill="#446F80"/>
</g>
<defs>
<clipPath id="clip0_344_32160">
<rect width="72.9668" height="101.75" fill="white" transform="translate(0.00195312)"/>
</clipPath>
</defs>
</svg>
