<svg width="23" height="16" viewBox="0 0 23 16" fill="none" xmlns="http://www.w3.org/2000/svg">
<g clip-path="url(#clip0_344_32183)">
<path d="M21.3196 0.794922H2.6199C2.18309 0.795134 1.76423 0.968751 1.45536 1.27762C1.14648 1.5865 0.972868 2.00536 0.972656 2.44217L0.972656 13.5577C0.972868 13.9945 1.14648 14.4133 1.45536 14.7222C1.76423 15.0311 2.18309 15.2047 2.6199 15.2049H21.3196C21.7564 15.2047 22.1753 15.0311 22.4842 14.7222C22.793 14.4133 22.9667 13.9945 22.9669 13.5577V2.44217C22.9667 2.00536 22.793 1.5865 22.4842 1.27762C22.1753 0.968751 21.7564 0.795134 21.3196 0.794922Z" fill="#F5F5F5"/>
<path d="M1.06306 1.90375H22.8765C22.7644 1.58005 22.5542 1.29932 22.2752 1.10059C21.9962 0.901868 21.6622 0.795025 21.3196 0.794922L2.6199 0.794922C2.27735 0.795025 1.94334 0.901868 1.66432 1.10059C1.3853 1.29932 1.17514 1.58005 1.06306 1.90375ZM0.972656 5.22864H22.9669V6.33748H0.972656V5.22864ZM0.972656 3.01178H22.9669V4.12061H0.972656V3.01178ZM0.972656 8.17513C0.972656 8.38473 1.14226 8.55434 1.35187 8.55434H22.9669V7.44711H0.972656V8.17513ZM0.972656 11.88H22.9669V12.9889H0.972656V11.88ZM22.8765 14.0961H1.06306C1.17514 14.4198 1.3853 14.7005 1.66432 14.8993C1.94334 15.098 2.27735 15.2048 2.6199 15.2049H21.3196C21.6622 15.2048 21.9962 15.098 22.2752 14.8993C22.5542 14.7005 22.7644 14.4198 22.8765 14.0961ZM0.972656 9.66317H22.9669V10.772H0.972656V9.66317Z" fill="#FF4B55"/>
<path d="M1.35187 8.55434H10.8321C10.9329 8.55514 11.0297 8.51514 11.1009 8.44393C11.1721 8.37273 11.2129 8.27593 11.2129 8.17513V1.17413C11.2129 1.07333 11.1729 0.977327 11.1017 0.906125C11.0305 0.834923 10.9345 0.794922 10.8337 0.794922H2.6199C2.18309 0.795134 1.76423 0.968751 1.45536 1.27762C1.14648 1.5865 0.972868 2.00536 0.972656 2.44217L0.972656 8.17513C0.972656 8.27593 1.01266 8.37193 1.08386 8.44313C1.15506 8.51434 1.25106 8.55434 1.35187 8.55434Z" fill="#41479B"/>
<path d="M2.03976 1.66731L2.11976 1.91931H2.38537C2.40057 1.91931 2.41417 1.92971 2.41897 1.94411C2.42377 1.95852 2.41817 1.97452 2.40617 1.98412L2.19256 2.14412L2.27256 2.39693C2.27736 2.41133 2.27176 2.42733 2.25896 2.43693C2.24616 2.44653 2.22936 2.44573 2.21736 2.43693L2.00136 2.28252L1.78535 2.43693C1.77255 2.44573 1.75575 2.44573 1.74375 2.43693C1.73175 2.42813 1.72615 2.41213 1.73015 2.39693L1.81015 2.14412L1.59655 1.98412C1.58455 1.97452 1.57895 1.95932 1.58375 1.94411C1.58855 1.92891 1.60215 1.91931 1.61735 1.91931H1.88295L1.96296 1.66731C1.96296 1.64571 1.97976 1.62891 2.00136 1.62891C2.02296 1.62891 2.03976 1.64571 2.03976 1.66731Z" fill="#F5F5F5"/>
<path d="M2.03976 2.98176L2.11976 3.23377H2.38537C2.40057 3.23377 2.41417 3.24417 2.41897 3.25857C2.42377 3.27297 2.41817 3.28897 2.40617 3.29857L2.19256 3.45857L2.27256 3.71138C2.27736 3.72578 2.27176 3.74178 2.25896 3.75138C2.24616 3.76098 2.22936 3.76018 2.21736 3.75138L2.00136 3.59698L1.78535 3.75138C1.77255 3.76018 1.75575 3.76018 1.74375 3.75138C1.73175 3.74258 1.72615 3.72658 1.73015 3.71138L1.81015 3.45857L1.59655 3.29857C1.58455 3.28897 1.57895 3.27377 1.58375 3.25857C1.58855 3.24337 1.60215 3.23377 1.61735 3.23377H1.88295L1.96296 2.98176C1.96296 2.96016 1.97976 2.94336 2.00136 2.94336C2.02296 2.94336 2.03976 2.96016 2.03976 2.98176Z" fill="#F5F5F5"/>
<path d="M2.03976 4.30012L2.11976 4.55213H2.38537C2.40057 4.55213 2.41417 4.56253 2.41897 4.57693C2.42377 4.59133 2.41817 4.60733 2.40617 4.61693L2.19256 4.77693L2.27256 5.02974C2.27736 5.04414 2.27176 5.06014 2.25896 5.06974C2.24616 5.07934 2.22936 5.07854 2.21736 5.06974L2.00136 4.91534L1.78535 5.06974C1.77255 5.07854 1.75575 5.07854 1.74375 5.06974C1.73175 5.06094 1.72615 5.04494 1.73015 5.02974L1.81015 4.77693L1.59655 4.61693C1.58455 4.60733 1.57895 4.59213 1.58375 4.57693C1.58855 4.56173 1.60215 4.55213 1.61735 4.55213H1.88295L1.96296 4.30012C1.96296 4.27852 1.97976 4.26172 2.00136 4.26172C2.02296 4.26172 2.03976 4.27852 2.03976 4.30012Z" fill="#F5F5F5"/>
<path d="M2.03976 5.61653L2.11976 5.86853H2.38537C2.40057 5.86853 2.41417 5.87893 2.41897 5.89333C2.42377 5.90773 2.41817 5.92373 2.40617 5.93333L2.19256 6.09334L2.27256 6.34615C2.27736 6.36055 2.27176 6.37655 2.25896 6.38615C2.24616 6.39575 2.22936 6.39495 2.21736 6.38615L2.00136 6.23174L1.78535 6.38615C1.77255 6.39495 1.75575 6.39495 1.74375 6.38615C1.73175 6.37735 1.72615 6.36135 1.73015 6.34615L1.81015 6.09334L1.59655 5.93333C1.58455 5.92373 1.57895 5.90853 1.58375 5.89333C1.58855 5.87813 1.60215 5.86853 1.61735 5.86853H1.88295L1.96296 5.61653C1.96296 5.59493 1.97976 5.57812 2.00136 5.57812C2.02296 5.57812 2.03976 5.59493 2.03976 5.61653Z" fill="#F5F5F5"/>
<path d="M2.03976 6.93293L2.11976 7.18494H2.38537C2.40057 7.18494 2.41417 7.19534 2.41897 7.20974C2.42377 7.22414 2.41817 7.24014 2.40617 7.24974L2.19256 7.40975L2.27256 7.66255C2.27736 7.67695 2.27176 7.69295 2.25896 7.70255C2.24616 7.71215 2.22936 7.71135 2.21736 7.70255L2.00136 7.54815L1.78535 7.70255C1.77255 7.71135 1.75575 7.71135 1.74375 7.70255C1.73175 7.69375 1.72615 7.67775 1.73015 7.66255L1.81015 7.40975L1.59655 7.24974C1.58455 7.24014 1.57895 7.22494 1.58375 7.20974C1.58855 7.19454 1.60215 7.18494 1.61735 7.18494H1.88295L1.96296 6.93293C1.96296 6.91133 1.97976 6.89453 2.00136 6.89453C2.02296 6.89453 2.03976 6.91133 2.03976 6.93293Z" fill="#F5F5F5"/>
<path d="M3.0632 2.31184L3.1432 2.56385H3.40881C3.42401 2.56385 3.43761 2.57425 3.44241 2.58865C3.44721 2.60305 3.44161 2.61905 3.42961 2.62865L3.216 2.78865L3.296 3.04146C3.3008 3.05586 3.2952 3.07186 3.2824 3.08146C3.2696 3.09106 3.2528 3.09026 3.2408 3.08146L3.02479 2.92706L2.80879 3.08146C2.79599 3.09026 2.77919 3.09026 2.76719 3.08146C2.75519 3.07266 2.74959 3.05666 2.75359 3.04146L2.83359 2.78865L2.61998 2.62865C2.60798 2.61905 2.60238 2.60385 2.60718 2.58865C2.61198 2.57345 2.62558 2.56385 2.64078 2.56385H2.90639L2.98639 2.31184C2.98639 2.29024 3.00319 2.27344 3.02479 2.27344C3.0464 2.27344 3.0632 2.29024 3.0632 2.31184Z" fill="#F5F5F5"/>
<path d="M3.06799 3.62729L3.148 3.8793H3.4136C3.4288 3.8793 3.4424 3.8897 3.4472 3.9041C3.452 3.9185 3.4464 3.9345 3.4344 3.9441L3.2208 4.10411L3.3008 4.35691C3.3056 4.37131 3.3 4.38731 3.2872 4.39691C3.2744 4.40651 3.2576 4.40571 3.2456 4.39691L3.02959 4.24251L2.81359 4.39691C2.80079 4.40571 2.78399 4.40571 2.77198 4.39691C2.75998 4.38811 2.75438 4.37211 2.75838 4.35691L2.83839 4.10411L2.62478 3.9441C2.61358 3.9337 2.61038 3.9177 2.61598 3.9033C2.62158 3.8889 2.63598 3.8809 2.65118 3.8817H2.91679L2.99679 3.62969C2.99839 3.61209 3.01359 3.59849 3.03119 3.59769C3.04879 3.59689 3.06479 3.60969 3.06799 3.62729Z" fill="#F5F5F5"/>
<path d="M3.0632 4.94465L3.1432 5.19666H3.40881C3.42401 5.19666 3.43761 5.20706 3.44241 5.22146C3.44721 5.23586 3.44161 5.25186 3.42961 5.26146L3.216 5.42146L3.296 5.67427C3.3008 5.68867 3.2952 5.70467 3.2824 5.71427C3.2696 5.72387 3.2528 5.72307 3.2408 5.71427L3.02479 5.55987L2.80879 5.71427C2.79599 5.72307 2.77919 5.72307 2.76719 5.71427C2.75519 5.70547 2.74959 5.68947 2.75359 5.67427L2.83359 5.42146L2.61998 5.26146C2.60798 5.25186 2.60238 5.23666 2.60718 5.22146C2.61198 5.20626 2.62558 5.19666 2.64078 5.19666H2.90639L2.98639 4.94465C2.98639 4.92305 3.00319 4.90625 3.02479 4.90625C3.0464 4.90625 3.0632 4.92305 3.0632 4.94465Z" fill="#F5F5F5"/>
<path d="M3.0632 6.26301L3.1432 6.51502H3.40881C3.42401 6.51502 3.43761 6.52542 3.44241 6.53982C3.44721 6.55422 3.44161 6.57022 3.42961 6.57982L3.216 6.73982L3.296 6.99263C3.3008 7.00703 3.2952 7.02303 3.2824 7.03263C3.2696 7.04223 3.2528 7.04143 3.2408 7.03263L3.02479 6.87823L2.80879 7.03263C2.79599 7.04143 2.77919 7.04143 2.76719 7.03263C2.75519 7.02383 2.74959 7.00783 2.75359 6.99263L2.83359 6.73982L2.61998 6.57982C2.60798 6.57022 2.60238 6.55502 2.60718 6.53982C2.61198 6.52462 2.62558 6.51502 2.64078 6.51502H2.90639L2.98639 6.26301C2.98639 6.24141 3.00319 6.22461 3.02479 6.22461C3.0464 6.22461 3.0632 6.24141 3.0632 6.26301Z" fill="#F5F5F5"/>
<path d="M4.08663 1.66731L4.16664 1.91931H4.43224C4.44744 1.91931 4.46104 1.92971 4.46584 1.94411C4.47064 1.95852 4.46504 1.97452 4.45304 1.98412L4.23944 2.14412L4.31944 2.39693C4.32424 2.41133 4.31864 2.42733 4.30584 2.43693C4.29304 2.44653 4.27624 2.44573 4.26424 2.43693L4.04823 2.28252L3.83223 2.43693C3.81943 2.44573 3.80263 2.44573 3.79063 2.43693C3.77862 2.42813 3.77302 2.41213 3.77702 2.39693L3.85703 2.14412L3.64342 1.98412C3.63142 1.97452 3.62582 1.95932 3.63062 1.94411C3.63542 1.92891 3.64902 1.91931 3.66422 1.91931H3.92983L4.00983 1.66731C4.00983 1.64571 4.02663 1.62891 4.04823 1.62891C4.06983 1.62891 4.08663 1.64571 4.08663 1.66731Z" fill="#F5F5F5"/>
<path d="M4.08663 2.98371L4.16664 3.23572H4.43224C4.44744 3.23572 4.46104 3.24612 4.46584 3.26052C4.47064 3.27492 4.46504 3.29092 4.45304 3.30052L4.23944 3.46053L4.31944 3.71333C4.32424 3.72773 4.31864 3.74373 4.30584 3.75333C4.29304 3.76294 4.27624 3.76214 4.26424 3.75333L4.04823 3.59893L3.83223 3.75333C3.81943 3.76214 3.80263 3.76214 3.79063 3.75333C3.77862 3.74453 3.77302 3.72853 3.77702 3.71333L3.85703 3.46053L3.64342 3.30052C3.63142 3.29092 3.62582 3.27572 3.63062 3.26052C3.63542 3.24532 3.64902 3.23572 3.66422 3.23572H3.92983L4.00983 2.98371C4.00983 2.96211 4.02663 2.94531 4.04823 2.94531C4.06983 2.94531 4.08663 2.96211 4.08663 2.98371Z" fill="#F5F5F5"/>
<path d="M4.08663 4.30012L4.16664 4.55213H4.43224C4.44744 4.55213 4.46104 4.56253 4.46584 4.57693C4.47064 4.59133 4.46504 4.60733 4.45304 4.61693L4.23944 4.77693L4.31944 5.02974C4.32424 5.04414 4.31864 5.06014 4.30584 5.06974C4.29304 5.07934 4.27624 5.07854 4.26424 5.06974L4.04823 4.91534L3.83223 5.06974C3.81943 5.07854 3.80263 5.07854 3.79063 5.06974C3.77862 5.06094 3.77302 5.04494 3.77702 5.02974L3.85703 4.77693L3.64342 4.61693C3.63142 4.60733 3.62582 4.59213 3.63062 4.57693C3.63542 4.56173 3.64902 4.55213 3.66422 4.55213H3.92983L4.00983 4.30012C4.00983 4.27852 4.02663 4.26172 4.04823 4.26172C4.06983 4.26172 4.08663 4.27852 4.08663 4.30012Z" fill="#F5F5F5"/>
<path d="M4.08663 5.61653L4.16664 5.86853H4.43224C4.44744 5.86853 4.46104 5.87893 4.46584 5.89333C4.47064 5.90773 4.46504 5.92373 4.45304 5.93333L4.23944 6.09334L4.31944 6.34615C4.32424 6.36055 4.31864 6.37655 4.30584 6.38615C4.29304 6.39575 4.27624 6.39495 4.26424 6.38615L4.04823 6.23174L3.83223 6.38615C3.81943 6.39495 3.80263 6.39495 3.79063 6.38615C3.77862 6.37735 3.77302 6.36135 3.77702 6.34615L3.85703 6.09334L3.64342 5.93333C3.63142 5.92373 3.62582 5.90853 3.63062 5.89333C3.63542 5.87813 3.64902 5.86853 3.66422 5.86853H3.92983L4.00983 5.61653C4.00983 5.59493 4.02663 5.57812 4.04823 5.57812C4.06983 5.57812 4.08663 5.59493 4.08663 5.61653Z" fill="#F5F5F5"/>
<path d="M4.08663 6.93293L4.16664 7.18494H4.43224C4.44744 7.18494 4.46104 7.19534 4.46584 7.20974C4.47064 7.22414 4.46504 7.24014 4.45304 7.24974L4.23944 7.40975L4.31944 7.66255C4.32424 7.67695 4.31864 7.69295 4.30584 7.70255C4.29304 7.71215 4.27624 7.71135 4.26424 7.70255L4.04823 7.54815L3.83223 7.70255C3.81943 7.71135 3.80263 7.71135 3.79063 7.70255C3.77862 7.69375 3.77302 7.67775 3.77702 7.66255L3.85703 7.40975L3.64342 7.24974C3.63142 7.24014 3.62582 7.22494 3.63062 7.20974C3.63542 7.19454 3.64902 7.18494 3.66422 7.18494H3.92983L4.00983 6.93293C4.00983 6.91133 4.02663 6.89453 4.04823 6.89453C4.06983 6.89453 4.08663 6.91133 4.08663 6.93293Z" fill="#F5F5F5"/>
<path d="M5.10226 2.31184L5.18226 2.56385H5.44787C5.46307 2.56385 5.47667 2.57425 5.48147 2.58865C5.48627 2.60305 5.48067 2.61905 5.46867 2.62865L5.25506 2.78865L5.33506 3.04146C5.33986 3.05586 5.33426 3.07186 5.32146 3.08146C5.30866 3.09106 5.29186 3.09026 5.27986 3.08146L5.06386 2.92706L4.84785 3.08146C4.83505 3.09026 4.81825 3.09026 4.80625 3.08146C4.79425 3.07266 4.78865 3.05666 4.79265 3.04146L4.87265 2.78865L4.65905 2.62865C4.64705 2.61905 4.64145 2.60385 4.64625 2.58865C4.65105 2.57345 4.66465 2.56385 4.67985 2.56385H4.94545L5.02546 2.31184C5.02546 2.29024 5.04226 2.27344 5.06386 2.27344C5.08546 2.27344 5.10226 2.29024 5.10226 2.31184Z" fill="#F5F5F5"/>
<path d="M5.10226 3.62824L5.18226 3.88025H5.44787C5.46307 3.88025 5.47667 3.89065 5.48147 3.90505C5.48627 3.91945 5.48067 3.93545 5.46867 3.94505L5.25506 4.10506L5.33506 4.35786C5.33986 4.37227 5.33426 4.38827 5.32146 4.39787C5.30866 4.40747 5.29186 4.40667 5.27986 4.39787L5.06386 4.24346L4.84785 4.39787C4.83505 4.40667 4.81825 4.40667 4.80625 4.39787C4.79425 4.38907 4.78865 4.37307 4.79265 4.35786L4.87265 4.10506L4.65905 3.94505C4.64705 3.93545 4.64145 3.92025 4.64625 3.90505C4.65105 3.88985 4.66465 3.88025 4.67985 3.88025H4.94545L5.02546 3.62824C5.02546 3.60664 5.04226 3.58984 5.06386 3.58984C5.08546 3.58984 5.10226 3.60664 5.10226 3.62824Z" fill="#F5F5F5"/>
<path d="M5.10226 4.94465L5.18226 5.19666H5.44787C5.46307 5.19666 5.47667 5.20706 5.48147 5.22146C5.48627 5.23586 5.48067 5.25186 5.46867 5.26146L5.25506 5.42146L5.33506 5.67427C5.33986 5.68867 5.33426 5.70467 5.32146 5.71427C5.30866 5.72387 5.29186 5.72307 5.27986 5.71427L5.06386 5.55987L4.84785 5.71427C4.83505 5.72307 4.81825 5.72307 4.80625 5.71427C4.79425 5.70547 4.78865 5.68947 4.79265 5.67427L4.87265 5.42146L4.65905 5.26146C4.64705 5.25186 4.64145 5.23666 4.64625 5.22146C4.65105 5.20626 4.66465 5.19666 4.67985 5.19666H4.94545L5.02546 4.94465C5.02546 4.92305 5.04226 4.90625 5.06386 4.90625C5.08546 4.90625 5.10226 4.92305 5.10226 4.94465Z" fill="#F5F5F5"/>
<path d="M5.10226 6.26301L5.18226 6.51502H5.44787C5.46307 6.51502 5.47667 6.52542 5.48147 6.53982C5.48627 6.55422 5.48067 6.57022 5.46867 6.57982L5.25506 6.73982L5.33506 6.99263C5.33986 7.00703 5.33426 7.02303 5.32146 7.03263C5.30866 7.04223 5.29186 7.04143 5.27986 7.03263L5.06386 6.87823L4.84785 7.03263C4.83505 7.04143 4.81825 7.04143 4.80625 7.03263C4.79425 7.02383 4.78865 7.00783 4.79265 6.99263L4.87265 6.73982L4.65905 6.57982C4.64705 6.57022 4.64145 6.55502 4.64625 6.53982C4.65105 6.52462 4.66465 6.51502 4.67985 6.51502H4.94545L5.02546 6.26301C5.02546 6.24141 5.04226 6.22461 5.06386 6.22461C5.08546 6.22461 5.10226 6.24141 5.10226 6.26301Z" fill="#F5F5F5"/>
<path d="M6.13351 1.66731L6.21351 1.91931H6.47912C6.49432 1.91931 6.50792 1.92971 6.51272 1.94411C6.51752 1.95852 6.51192 1.97452 6.49992 1.98412L6.28631 2.14412L6.36631 2.39693C6.37111 2.41133 6.36551 2.42733 6.35271 2.43693C6.33991 2.44653 6.32311 2.44573 6.31111 2.43693L6.09511 2.28252L5.8791 2.43693C5.8663 2.44573 5.8495 2.44573 5.8375 2.43693C5.8255 2.42813 5.8199 2.41213 5.8239 2.39693L5.9039 2.14412L5.6903 1.98412C5.6783 1.97452 5.6727 1.95932 5.6775 1.94411C5.6823 1.92891 5.6959 1.91931 5.7111 1.91931H5.9767L6.05671 1.66731C6.05671 1.64571 6.07351 1.62891 6.09511 1.62891C6.11671 1.62891 6.13351 1.64571 6.13351 1.66731Z" fill="#F5F5F5"/>
<path d="M6.13351 2.98371L6.21351 3.23572H6.47912C6.49432 3.23572 6.50792 3.24612 6.51272 3.26052C6.51752 3.27492 6.51192 3.29092 6.49992 3.30052L6.28631 3.46053L6.36631 3.71333C6.37111 3.72773 6.36551 3.74373 6.35271 3.75333C6.33991 3.76294 6.32311 3.76214 6.31111 3.75333L6.09511 3.59893L5.8791 3.75333C5.8663 3.76214 5.8495 3.76214 5.8375 3.75333C5.8255 3.74453 5.8199 3.72853 5.8239 3.71333L5.9039 3.46053L5.6903 3.30052C5.6783 3.29092 5.6727 3.27572 5.6775 3.26052C5.6823 3.24532 5.6959 3.23572 5.7111 3.23572H5.9767L6.05671 2.98371C6.05671 2.96211 6.07351 2.94531 6.09511 2.94531C6.11671 2.94531 6.13351 2.96211 6.13351 2.98371Z" fill="#F5F5F5"/>
<path d="M6.13351 4.30012L6.21351 4.55213H6.47912C6.49432 4.55213 6.50792 4.56253 6.51272 4.57693C6.51752 4.59133 6.51192 4.60733 6.49992 4.61693L6.28631 4.77693L6.36631 5.02974C6.37111 5.04414 6.36551 5.06014 6.35271 5.06974C6.33991 5.07934 6.32311 5.07854 6.31111 5.06974L6.09511 4.91534L5.8791 5.06974C5.8663 5.07854 5.8495 5.07854 5.8375 5.06974C5.8255 5.06094 5.8199 5.04494 5.8239 5.02974L5.9039 4.77693L5.6903 4.61693C5.6783 4.60733 5.6727 4.59213 5.6775 4.57693C5.6823 4.56173 5.6959 4.55213 5.7111 4.55213H5.9767L6.05671 4.30012C6.05671 4.27852 6.07351 4.26172 6.09511 4.26172C6.11671 4.26172 6.13351 4.27852 6.13351 4.30012Z" fill="#F5F5F5"/>
<path d="M6.13351 5.61653L6.21351 5.86853H6.47912C6.49432 5.86853 6.50792 5.87893 6.51272 5.89333C6.51752 5.90773 6.51192 5.92373 6.49992 5.93333L6.28631 6.09334L6.36631 6.34615C6.37111 6.36055 6.36551 6.37655 6.35271 6.38615C6.33991 6.39575 6.32311 6.39495 6.31111 6.38615L6.09511 6.23174L5.8791 6.38615C5.8663 6.39495 5.8495 6.39495 5.8375 6.38615C5.8255 6.37735 5.8199 6.36135 5.8239 6.34615L5.9039 6.09334L5.6903 5.93333C5.6783 5.92373 5.6727 5.90853 5.6775 5.89333C5.6823 5.87813 5.6959 5.86853 5.7111 5.86853H5.9767L6.05671 5.61653C6.05671 5.59493 6.07351 5.57812 6.09511 5.57812C6.11671 5.57812 6.13351 5.59493 6.13351 5.61653Z" fill="#F5F5F5"/>
<path d="M6.13351 6.93293L6.21351 7.18494H6.47912C6.49432 7.18494 6.50792 7.19534 6.51272 7.20974C6.51752 7.22414 6.51192 7.24014 6.49992 7.24974L6.28631 7.40975L6.36631 7.66255C6.37111 7.67695 6.36551 7.69295 6.35271 7.70255C6.33991 7.71215 6.32311 7.71135 6.31111 7.70255L6.09511 7.54815L5.8791 7.70255C5.8663 7.71135 5.8495 7.71135 5.8375 7.70255C5.8255 7.69375 5.8199 7.67775 5.8239 7.66255L5.9039 7.40975L5.6903 7.24974C5.6783 7.24014 5.6727 7.22494 5.6775 7.20974C5.6823 7.19454 5.6959 7.18494 5.7111 7.18494H5.9767L6.05671 6.93293C6.05671 6.91133 6.07351 6.89453 6.09511 6.89453C6.11671 6.89453 6.13351 6.91133 6.13351 6.93293Z" fill="#F5F5F5"/>
<path d="M7.14913 2.31184L7.22914 2.56385H7.49474C7.50994 2.56385 7.52354 2.57425 7.52834 2.58865C7.53314 2.60305 7.52754 2.61905 7.51554 2.62865L7.30194 2.78865L7.38194 3.04146C7.38674 3.05586 7.38114 3.07186 7.36834 3.08146C7.35554 3.09106 7.33874 3.09026 7.32674 3.08146L7.11073 2.92706L6.89473 3.08146C6.88193 3.09026 6.86513 3.09026 6.85313 3.08146C6.84112 3.07266 6.83552 3.05666 6.83952 3.04146L6.91953 2.78865L6.70592 2.62865C6.69392 2.61905 6.68832 2.60385 6.69312 2.58865C6.69792 2.57345 6.71152 2.56385 6.72672 2.56385H6.99233L7.07233 2.31184C7.07233 2.29024 7.08913 2.27344 7.11073 2.27344C7.13233 2.27344 7.14913 2.29024 7.14913 2.31184Z" fill="#F5F5F5"/>
<path d="M7.14913 3.62824L7.22914 3.88025H7.49474C7.50994 3.88025 7.52354 3.89065 7.52834 3.90505C7.53314 3.91945 7.52754 3.93545 7.51554 3.94505L7.30194 4.10506L7.38194 4.35786C7.38674 4.37227 7.38114 4.38827 7.36834 4.39787C7.35554 4.40747 7.33874 4.40667 7.32674 4.39787L7.11073 4.24346L6.89473 4.39787C6.88193 4.40667 6.86513 4.40667 6.85313 4.39787C6.84112 4.38907 6.83552 4.37307 6.83952 4.35786L6.91953 4.10506L6.70592 3.94505C6.69392 3.93545 6.68832 3.92025 6.69312 3.90505C6.69792 3.88985 6.71152 3.88025 6.72672 3.88025H6.99233L7.07233 3.62824C7.07233 3.60664 7.08913 3.58984 7.11073 3.58984C7.13233 3.58984 7.14913 3.60664 7.14913 3.62824Z" fill="#F5F5F5"/>
<path d="M7.14913 4.94465L7.22914 5.19666H7.49474C7.50994 5.19666 7.52354 5.20706 7.52834 5.22146C7.53314 5.23586 7.52754 5.25186 7.51554 5.26146L7.30194 5.42146L7.38194 5.67427C7.38674 5.68867 7.38114 5.70467 7.36834 5.71427C7.35554 5.72387 7.33874 5.72307 7.32674 5.71427L7.11073 5.55987L6.89473 5.71427C6.88193 5.72307 6.86513 5.72307 6.85313 5.71427C6.84112 5.70547 6.83552 5.68947 6.83952 5.67427L6.91953 5.42146L6.70592 5.26146C6.69392 5.25186 6.68832 5.23666 6.69312 5.22146C6.69792 5.20626 6.71152 5.19666 6.72672 5.19666H6.99233L7.07233 4.94465C7.07233 4.92305 7.08913 4.90625 7.11073 4.90625C7.13233 4.90625 7.14913 4.92305 7.14913 4.94465Z" fill="#F5F5F5"/>
<path d="M7.14913 6.26301L7.22914 6.51502H7.49474C7.50994 6.51502 7.52354 6.52542 7.52834 6.53982C7.53314 6.55422 7.52754 6.57022 7.51554 6.57982L7.30194 6.73982L7.38194 6.99263C7.38674 7.00703 7.38114 7.02303 7.36834 7.03263C7.35554 7.04223 7.33874 7.04143 7.32674 7.03263L7.11073 6.87823L6.89473 7.03263C6.88193 7.04143 6.86513 7.04143 6.85313 7.03263C6.84112 7.02383 6.83552 7.00783 6.83952 6.99263L6.91953 6.73982L6.70592 6.57982C6.69392 6.57022 6.68832 6.55502 6.69312 6.53982C6.69792 6.52462 6.71152 6.51502 6.72672 6.51502H6.99233L7.07233 6.26301C7.07233 6.24141 7.08913 6.22461 7.11073 6.22461C7.13233 6.22461 7.14913 6.24141 7.14913 6.26301Z" fill="#F5F5F5"/>
<path d="M8.17257 1.66731L8.25257 1.91931H8.51818C8.53338 1.91931 8.54698 1.92971 8.55178 1.94411C8.55658 1.95852 8.55098 1.97452 8.53898 1.98412L8.32538 2.14412L8.40538 2.39693C8.41018 2.41133 8.40458 2.42733 8.39178 2.43693C8.37898 2.44653 8.36218 2.44573 8.35018 2.43693L8.13417 2.28252L7.91816 2.43693C7.90536 2.44573 7.88856 2.44573 7.87656 2.43693C7.86456 2.42813 7.85896 2.41213 7.86296 2.39693L7.94296 2.14412L7.72936 1.98412C7.71736 1.97452 7.71176 1.95932 7.71656 1.94411C7.72136 1.92891 7.73496 1.91931 7.75016 1.91931H8.01577L8.09577 1.66731C8.09577 1.64571 8.11257 1.62891 8.13417 1.62891C8.15577 1.62891 8.17257 1.64571 8.17257 1.66731Z" fill="#F5F5F5"/>
<path d="M8.17257 2.98371L8.25257 3.23572H8.51818C8.53338 3.23572 8.54698 3.24612 8.55178 3.26052C8.55658 3.27492 8.55098 3.29092 8.53898 3.30052L8.32538 3.46053L8.40538 3.71333C8.41018 3.72773 8.40458 3.74373 8.39178 3.75333C8.37898 3.76294 8.36218 3.76214 8.35018 3.75333L8.13417 3.59893L7.91816 3.75333C7.90536 3.76214 7.88856 3.76214 7.87656 3.75333C7.86456 3.74453 7.85896 3.72853 7.86296 3.71333L7.94296 3.46053L7.72936 3.30052C7.71736 3.29092 7.71176 3.27572 7.71656 3.26052C7.72136 3.24532 7.73496 3.23572 7.75016 3.23572H8.01577L8.09577 2.98371C8.09577 2.96211 8.11257 2.94531 8.13417 2.94531C8.15577 2.94531 8.17257 2.96211 8.17257 2.98371Z" fill="#F5F5F5"/>
<path d="M8.17257 4.30012L8.25257 4.55213H8.51818C8.53338 4.55213 8.54698 4.56253 8.55178 4.57693C8.55658 4.59133 8.55098 4.60733 8.53898 4.61693L8.32538 4.77693L8.40538 5.02974C8.41018 5.04414 8.40458 5.06014 8.39178 5.06974C8.37898 5.07934 8.36218 5.07854 8.35018 5.06974L8.13417 4.91534L7.91816 5.06974C7.90536 5.07854 7.88856 5.07854 7.87656 5.06974C7.86456 5.06094 7.85896 5.04494 7.86296 5.02974L7.94296 4.77693L7.72936 4.61693C7.71736 4.60733 7.71176 4.59213 7.71656 4.57693C7.72136 4.56173 7.73496 4.55213 7.75016 4.55213H8.01577L8.09577 4.30012C8.09577 4.27852 8.11257 4.26172 8.13417 4.26172C8.15577 4.26172 8.17257 4.27852 8.17257 4.30012Z" fill="#F5F5F5"/>
<path d="M8.17257 5.61653L8.25257 5.86853H8.51818C8.53338 5.86853 8.54698 5.87893 8.55178 5.89333C8.55658 5.90773 8.55098 5.92373 8.53898 5.93333L8.32538 6.09334L8.40538 6.34615C8.41018 6.36055 8.40458 6.37655 8.39178 6.38615C8.37898 6.39575 8.36218 6.39495 8.35018 6.38615L8.13417 6.23174L7.91816 6.38615C7.90536 6.39495 7.88856 6.39495 7.87656 6.38615C7.86456 6.37735 7.85896 6.36135 7.86296 6.34615L7.94296 6.09334L7.72936 5.93333C7.71736 5.92373 7.71176 5.90853 7.71656 5.89333C7.72136 5.87813 7.73496 5.86853 7.75016 5.86853H8.01577L8.09577 5.61653C8.09577 5.59493 8.11257 5.57812 8.13417 5.57812C8.15577 5.57812 8.17257 5.59493 8.17257 5.61653Z" fill="#F5F5F5"/>
<path d="M8.17257 6.93293L8.25257 7.18494H8.51818C8.53338 7.18494 8.54698 7.19534 8.55178 7.20974C8.55658 7.22414 8.55098 7.24014 8.53898 7.24974L8.32538 7.40975L8.40538 7.66255C8.41018 7.67695 8.40458 7.69295 8.39178 7.70255C8.37898 7.71215 8.36218 7.71135 8.35018 7.70255L8.13417 7.54815L7.91816 7.70255C7.90536 7.71135 7.88856 7.71135 7.87656 7.70255C7.86456 7.69375 7.85896 7.67775 7.86296 7.66255L7.94296 7.40975L7.72936 7.24974C7.71736 7.24014 7.71176 7.22494 7.71656 7.20974C7.72136 7.19454 7.73496 7.18494 7.75016 7.18494H8.01577L8.09577 6.93293C8.09577 6.91133 8.11257 6.89453 8.13417 6.89453C8.15577 6.89453 8.17257 6.91133 8.17257 6.93293Z" fill="#F5F5F5"/>
<path d="M9.19601 2.31184L9.27601 2.56385H9.54162C9.55682 2.56385 9.57042 2.57425 9.57522 2.58865C9.58002 2.60305 9.57442 2.61905 9.56242 2.62865L9.34881 2.78865L9.42881 3.04146C9.43361 3.05586 9.42801 3.07186 9.41521 3.08146C9.40241 3.09106 9.38561 3.09026 9.37361 3.08146L9.15761 2.92706L8.9416 3.08146C8.9288 3.09026 8.912 3.09026 8.9 3.08146C8.888 3.07266 8.8824 3.05666 8.8864 3.04146L8.9664 2.78865L8.7528 2.62865C8.7408 2.61905 8.7352 2.60385 8.74 2.58865C8.7448 2.57345 8.7584 2.56385 8.7736 2.56385H9.0392L9.11921 2.31184C9.11921 2.29024 9.13601 2.27344 9.15761 2.27344C9.17921 2.27344 9.19601 2.29024 9.19601 2.31184Z" fill="#F5F5F5"/>
<path d="M9.19601 3.62824L9.27601 3.88025H9.54162C9.55682 3.88025 9.57042 3.89065 9.57522 3.90505C9.58002 3.91945 9.57442 3.93545 9.56242 3.94505L9.34881 4.10506L9.42881 4.35786C9.43361 4.37227 9.42801 4.38827 9.41521 4.39787C9.40241 4.40747 9.38561 4.40667 9.37361 4.39787L9.15761 4.24346L8.9416 4.39787C8.9288 4.40667 8.912 4.40667 8.9 4.39787C8.888 4.38907 8.8824 4.37307 8.8864 4.35786L8.9664 4.10506L8.7528 3.94505C8.7408 3.93545 8.7352 3.92025 8.74 3.90505C8.7448 3.88985 8.7584 3.88025 8.7736 3.88025H9.0392L9.11921 3.62824C9.11921 3.60664 9.13601 3.58984 9.15761 3.58984C9.17921 3.58984 9.19601 3.60664 9.19601 3.62824Z" fill="#F5F5F5"/>
<path d="M9.19601 4.94465L9.27601 5.19666H9.54162C9.55682 5.19666 9.57042 5.20706 9.57522 5.22146C9.58002 5.23586 9.57442 5.25186 9.56242 5.26146L9.34881 5.42146L9.42881 5.67427C9.43361 5.68867 9.42801 5.70467 9.41521 5.71427C9.40241 5.72387 9.38561 5.72307 9.37361 5.71427L9.15761 5.55987L8.9416 5.71427C8.9288 5.72307 8.912 5.72307 8.9 5.71427C8.888 5.70547 8.8824 5.68947 8.8864 5.67427L8.9664 5.42146L8.7528 5.26146C8.7408 5.25186 8.7352 5.23666 8.74 5.22146C8.7448 5.20626 8.7584 5.19666 8.7736 5.19666H9.0392L9.11921 4.94465C9.11921 4.92305 9.13601 4.90625 9.15761 4.90625C9.17921 4.90625 9.19601 4.92305 9.19601 4.94465Z" fill="#F5F5F5"/>
<path d="M9.19601 6.26301L9.27601 6.51502H9.54162C9.55682 6.51502 9.57042 6.52542 9.57522 6.53982C9.58002 6.55422 9.57442 6.57022 9.56242 6.57982L9.34881 6.73982L9.42881 6.99263C9.43361 7.00703 9.42801 7.02303 9.41521 7.03263C9.40241 7.04223 9.38561 7.04143 9.37361 7.03263L9.15761 6.87823L8.9416 7.03263C8.9288 7.04143 8.912 7.04143 8.9 7.03263C8.888 7.02383 8.8824 7.00783 8.8864 6.99263L8.9664 6.73982L8.7528 6.57982C8.7408 6.57022 8.7352 6.55502 8.74 6.53982C8.7448 6.52462 8.7584 6.51502 8.7736 6.51502H9.0392L9.11921 6.26301C9.11921 6.24141 9.13601 6.22461 9.15761 6.22461C9.17921 6.22461 9.19601 6.24141 9.19601 6.26301Z" fill="#F5F5F5"/>
<path d="M10.2116 1.66731L10.2916 1.91931H10.5572C10.5724 1.91931 10.586 1.92971 10.5908 1.94411C10.5956 1.95852 10.59 1.97452 10.578 1.98412L10.3644 2.14412L10.4444 2.39693C10.4492 2.41133 10.4436 2.42733 10.4308 2.43693C10.418 2.44653 10.4012 2.44573 10.3892 2.43693L10.1732 2.28252L9.95723 2.43693C9.94443 2.44573 9.92763 2.44573 9.91563 2.43693C9.90362 2.42813 9.89802 2.41213 9.90202 2.39693L9.98203 2.14412L9.76842 1.98412C9.75642 1.97452 9.75082 1.95932 9.75562 1.94411C9.76042 1.92891 9.77402 1.91931 9.78922 1.91931H10.0548L10.1348 1.66731C10.1348 1.64571 10.1516 1.62891 10.1732 1.62891C10.1948 1.62891 10.2116 1.64571 10.2116 1.66731Z" fill="#F5F5F5"/>
<path d="M10.2116 2.98371L10.2916 3.23572H10.5572C10.5724 3.23572 10.586 3.24612 10.5908 3.26052C10.5956 3.27492 10.59 3.29092 10.578 3.30052L10.3644 3.46053L10.4444 3.71333C10.4492 3.72773 10.4436 3.74373 10.4308 3.75333C10.418 3.76294 10.4012 3.76214 10.3892 3.75333L10.1732 3.59893L9.95723 3.75333C9.94443 3.76214 9.92763 3.76214 9.91563 3.75333C9.90362 3.74453 9.89802 3.72853 9.90202 3.71333L9.98203 3.46053L9.76842 3.30052C9.75642 3.29092 9.75082 3.27572 9.75562 3.26052C9.76042 3.24532 9.77402 3.23572 9.78922 3.23572H10.0548L10.1348 2.98371C10.1348 2.96211 10.1516 2.94531 10.1732 2.94531C10.1948 2.94531 10.2116 2.96211 10.2116 2.98371Z" fill="#F5F5F5"/>
<path d="M10.2116 4.30012L10.2916 4.55213H10.5572C10.5724 4.55213 10.586 4.56253 10.5908 4.57693C10.5956 4.59133 10.59 4.60733 10.578 4.61693L10.3644 4.77693L10.4444 5.02974C10.4492 5.04414 10.4436 5.06014 10.4308 5.06974C10.418 5.07934 10.4012 5.07854 10.3892 5.06974L10.1732 4.91534L9.95723 5.06974C9.94443 5.07854 9.92763 5.07854 9.91563 5.06974C9.90362 5.06094 9.89802 5.04494 9.90202 5.02974L9.98203 4.77693L9.76842 4.61693C9.75642 4.60733 9.75082 4.59213 9.75562 4.57693C9.76042 4.56173 9.77402 4.55213 9.78922 4.55213H10.0548L10.1348 4.30012C10.1348 4.27852 10.1516 4.26172 10.1732 4.26172C10.1948 4.26172 10.2116 4.27852 10.2116 4.30012Z" fill="#F5F5F5"/>
<path d="M10.2116 5.61653L10.2916 5.86853H10.5572C10.5724 5.86853 10.586 5.87893 10.5908 5.89333C10.5956 5.90773 10.59 5.92373 10.578 5.93333L10.3644 6.09334L10.4444 6.34615C10.4492 6.36055 10.4436 6.37655 10.4308 6.38615C10.418 6.39575 10.4012 6.39495 10.3892 6.38615L10.1732 6.23174L9.95723 6.38615C9.94443 6.39495 9.92763 6.39495 9.91563 6.38615C9.90362 6.37735 9.89802 6.36135 9.90202 6.34615L9.98203 6.09334L9.76842 5.93333C9.75642 5.92373 9.75082 5.90853 9.75562 5.89333C9.76042 5.87813 9.77402 5.86853 9.78922 5.86853H10.0548L10.1348 5.61653C10.1348 5.59493 10.1516 5.57812 10.1732 5.57812C10.1948 5.57812 10.2116 5.59493 10.2116 5.61653Z" fill="#F5F5F5"/>
<path d="M10.2116 6.93293L10.2916 7.18494H10.5572C10.5724 7.18494 10.586 7.19534 10.5908 7.20974C10.5956 7.22414 10.59 7.24014 10.578 7.24974L10.3644 7.40975L10.4444 7.66255C10.4492 7.67695 10.4436 7.69295 10.4308 7.70255C10.418 7.71215 10.4012 7.71135 10.3892 7.70255L10.1732 7.54815L9.95723 7.70255C9.94443 7.71135 9.92763 7.71135 9.91563 7.70255C9.90362 7.69375 9.89802 7.67775 9.90202 7.66255L9.98203 7.40975L9.76842 7.24974C9.75642 7.24014 9.75082 7.22494 9.75562 7.20974C9.76042 7.19454 9.77402 7.18494 9.78922 7.18494H10.0548L10.1348 6.93293C10.1348 6.91133 10.1516 6.89453 10.1732 6.89453C10.1948 6.89453 10.2116 6.91133 10.2116 6.93293Z" fill="#F5F5F5"/>
</g>
<defs>
<clipPath id="clip0_344_32183">
<rect width="21.9942" height="14.41" fill="white" transform="translate(0.972656 0.794922)"/>
</clipPath>
</defs>
</svg>
