<svg width="40" height="40" viewBox="0 0 40 40" fill="none" xmlns="http://www.w3.org/2000/svg">
<mask id="mask0_780_14098" style="mask-type:luminance" maskUnits="userSpaceOnUse" x="5" y="0" width="30" height="40">
<path d="M34.6744 0H5V40H34.6744V0Z" fill="white"/>
</mask>
<g mask="url(#mask0_780_14098)">
<path d="M32.0921 28.3871C32.0921 28.5896 32.0921 28.7361 32.0921 28.8826C32.0921 31.4627 32.0954 34.0416 32.0921 36.6217C32.0889 38.6125 30.71 39.9968 28.7246 39.9978C22.7996 40.0011 16.8736 40.0011 10.9486 39.9978C8.9632 39.9978 7.5832 38.6114 7.58 36.6228C7.5768 34.0427 7.58 31.4637 7.58 28.8837V28.3871C6.9886 28.3871 6.4166 28.3892 5.8445 28.3871C5.2143 28.3849 5 28.1716 5 27.5393C5 21.0089 5 14.4795 5 7.94922C5 7.31462 5.2122 7.10242 5.8424 7.09922C6.4047 7.09702 6.967 7.09922 7.58 7.09922C7.58 6.93012 7.58 6.78793 7.58 6.64573C7.58 5.51673 7.5725 4.38882 7.5822 3.25982C7.5951 1.42202 8.9912 0.009725 10.8247 0.006525C16.8305 -0.002175 22.8363 -0.002175 28.842 0.006525C30.6766 0.008625 32.0717 1.41772 32.0889 3.25662C32.1008 4.49222 32.0932 5.72893 32.0954 6.96453C32.0954 6.99043 32.1061 7.01523 32.1245 7.09813C32.6825 7.09813 33.2545 7.09703 33.8255 7.09813C34.4567 7.10033 34.67 7.31252 34.67 7.94592C34.67 14.4752 34.67 21.0056 34.67 27.5349C34.67 28.1684 34.4557 28.3828 33.8265 28.3849C33.2642 28.3871 32.703 28.3849 32.09 28.3849L32.0921 28.3871ZM6.3164 13.5682V27.0663H33.3601V13.5682H6.3164ZM30.8016 7.08302C30.8016 5.79033 30.807 4.54282 30.7994 3.29432C30.7919 2.11682 29.9699 1.29493 28.7882 1.29493C22.8255 1.29163 16.8628 1.29163 10.9001 1.29493C9.6936 1.29493 8.8749 2.11362 8.8695 3.31582C8.8641 4.47072 8.8673 5.62552 8.8695 6.78032C8.8695 6.88163 8.8878 6.98392 8.8986 7.08302H30.8016ZM6.3056 12.2313H33.3633V8.41133H6.3056V12.2313ZM30.7973 33.5773H8.8684C8.8684 34.5727 8.8684 35.539 8.8684 36.5053C8.8684 37.9553 9.6257 38.7084 11.0854 38.7084C16.9178 38.7084 22.7512 38.7084 28.5835 38.7084C28.7181 38.7084 28.8528 38.7116 28.9864 38.703C29.9484 38.6416 30.7574 37.8702 30.7886 36.9082C30.8231 35.8084 30.7973 34.7084 30.7973 33.5773ZM8.8878 32.2297H30.7693V28.4075H8.8867V32.2297H8.8878Z" fill="#272829"/>
<path d="M21.7241 14.843C22.2595 14.8311 22.5482 15.3062 22.3338 15.8168C21.9202 16.8057 21.4893 17.7871 21.067 18.7728C20.2547 20.6699 19.4424 22.567 18.6302 24.464C18.5828 24.575 18.5386 24.6881 18.4804 24.7926C18.3005 25.1158 17.9784 25.2364 17.666 25.105C17.3332 24.965 17.177 24.631 17.317 24.2755C17.554 23.6776 17.8147 23.0894 18.0679 22.498C19.0816 20.1334 20.0985 17.7699 21.1068 15.4042C21.2372 15.0994 21.4009 14.8634 21.723 14.8408L21.7241 14.843Z" fill="#272829"/>
<path d="M27.0376 20.0456C26.1219 19.132 25.287 18.2993 24.4522 17.4655C24.3574 17.3707 24.255 17.2802 24.1775 17.1714C23.9685 16.8795 23.9846 16.5843 24.2389 16.3333C24.4931 16.0823 24.7861 16.0748 25.0791 16.2827C25.1438 16.329 25.2009 16.3882 25.258 16.4443C26.2555 17.4407 27.2552 18.4361 28.2495 19.4358C28.6492 19.8377 28.6578 20.1565 28.27 20.5476C27.2584 21.5677 26.248 22.5901 25.2138 23.5876C25.0533 23.7427 24.757 23.8645 24.5437 23.8386C24.0137 23.7751 23.8694 23.1373 24.2776 22.7215C25.0673 21.9157 25.8688 21.1218 26.6692 20.3267C26.764 20.233 26.8825 20.163 27.0387 20.0456H27.0376Z" fill="#272829"/>
<path d="M12.6676 19.9781C13.5455 20.856 14.3686 21.6791 15.1916 22.5032C15.2961 22.6077 15.4071 22.7079 15.4943 22.8253C15.7076 23.1129 15.6958 23.4092 15.4469 23.6634C15.1981 23.9176 14.9029 23.9338 14.6088 23.728C14.5216 23.6677 14.4472 23.5869 14.3718 23.5115C13.4033 22.5441 12.436 21.5767 11.4697 20.6083C11.0129 20.1504 11.0075 19.8606 11.4535 19.4136C12.4381 18.4246 13.4152 17.4282 14.4224 16.4629C14.6002 16.2927 14.9234 16.1505 15.1528 16.1829C15.6624 16.254 15.796 16.8777 15.4049 17.2806C14.7424 17.9647 14.0626 18.6326 13.3872 19.3037C13.1685 19.5202 12.938 19.7249 12.6687 19.977L12.6676 19.9781Z" fill="#272829"/>
<path d="M19.8456 2.58594C20.6514 2.58594 21.4582 2.58374 22.264 2.58594C22.7714 2.58804 23.0666 2.83044 23.0634 3.23444C23.0601 3.63514 22.765 3.87324 22.2554 3.87434C20.6428 3.87644 19.0301 3.87644 17.4174 3.87434C16.9111 3.87434 16.6159 3.62764 16.6192 3.22474C16.6224 2.82294 16.9154 2.58694 17.4271 2.58594C18.2329 2.58264 19.0398 2.58594 19.8456 2.58594Z" fill="#272829"/>
<path d="M25.6347 3.23207C25.6347 3.58107 25.3395 3.87407 24.9915 3.87297C24.6414 3.87297 24.3506 3.57887 24.3516 3.22877C24.3516 2.87757 24.6436 2.58787 24.9948 2.58887C25.3449 2.58887 25.6358 2.88187 25.6347 3.23207Z" fill="#272829"/>
<path d="M26.2825 10.9687C25.9324 10.9676 25.6415 10.6746 25.6426 10.3245C25.6437 9.97327 25.9356 9.68347 26.2857 9.68457C26.6359 9.68567 26.9267 9.97867 26.9256 10.3277C26.9246 10.6768 26.6305 10.9687 26.2814 10.9676L26.2825 10.9687Z" fill="#272829"/>
<path d="M29.5057 10.3202C29.5089 10.6693 29.2192 10.9644 28.8701 10.9687C28.5211 10.972 28.2259 10.6822 28.2227 10.3321C28.2195 9.9809 28.5071 9.6879 28.8583 9.6846C29.2084 9.6814 29.5025 9.9701 29.5057 10.3202Z" fill="#272829"/>
<path d="M31.4451 10.9687C31.095 10.9644 30.8063 10.6703 30.8106 10.3202C30.8149 9.969 31.1079 9.6814 31.458 9.6846C31.8081 9.689 32.0968 9.983 32.0936 10.3332C32.0893 10.6822 31.7941 10.9731 31.4451 10.9687Z" fill="#272829"/>
<path d="M21.7686 36.1213C21.7729 37.1911 20.8982 38.0658 19.8242 38.0636C18.7749 38.0626 17.9034 37.1889 17.9023 36.1396C17.9023 35.0656 18.7771 34.1919 19.8468 34.1973C20.9014 34.2027 21.7643 35.0678 21.7686 36.1202V36.1213ZM20.4781 36.1375C20.4824 35.7906 20.2001 35.4965 19.8533 35.4879C19.4902 35.4782 19.1864 35.7798 19.194 36.1429C19.2004 36.4897 19.4913 36.7741 19.8382 36.7731C20.185 36.772 20.4738 36.4854 20.4781 36.1386V36.1375Z" fill="#272829"/>
<path d="M13.3806 36.7719C12.9637 36.7719 12.5468 36.7815 12.131 36.7697C11.7194 36.7578 11.4501 36.4918 11.4512 36.1255C11.4523 35.7592 11.7216 35.4921 12.1353 35.4867C12.968 35.477 13.8018 35.4759 14.6345 35.4867C15.046 35.4921 15.3164 35.7635 15.3154 36.1298C15.3143 36.495 15.0428 36.7589 14.6302 36.7697C14.2144 36.7815 13.7975 36.7719 13.3806 36.7719Z" fill="#272829"/>
<path d="M26.2769 36.7757C25.874 36.7757 25.4701 36.7832 25.0683 36.7735C24.633 36.7638 24.3519 36.4945 24.3616 36.1153C24.3702 35.7512 24.6427 35.4937 25.0586 35.4894C25.8784 35.4808 26.6982 35.4808 27.5169 35.4894C27.9521 35.4937 28.2343 35.7684 28.2246 36.1466C28.216 36.5096 27.9424 36.7638 27.5266 36.7735C27.1108 36.7832 26.6938 36.7757 26.2769 36.7757Z" fill="#272829"/>
</g>
</svg>
