<svg width="48" height="48" viewBox="0 0 48 48" fill="none" xmlns="http://www.w3.org/2000/svg">
<g clip-path="url(#clip0_780_14637)">
<path fill-rule="evenodd" clip-rule="evenodd" d="M39.545 39.8441L36.433 46.3453L34.2915 38.25L39.545 39.8441ZM10.8906 39.8441L13.0093 46.3453L15.1509 38.25L10.8906 39.8441Z" fill="#7F8082"/>
<path fill-rule="evenodd" clip-rule="evenodd" d="M1.00162 18.3555L1 18.3579L5.41777 46.347H13.0105L12.3903 39.8459H16.286L16.7822 46.347H32.6889L33.185 39.8459H37.056L36.4357 46.347H44.0779L48.4407 18.3555H1.00162Z" fill="url(#paint0_linear_780_14637)" stroke="#D6D6D6" stroke-width="0.143667" stroke-linejoin="round"/>
<path fill-rule="evenodd" clip-rule="evenodd" d="M11.8473 35.5596L14.1311 27.0031L13.9705 9.72266L9.6875 18.3553L11.8473 35.5596Z" fill="url(#paint1_radial_780_14637)"/>
<path fill-rule="evenodd" clip-rule="evenodd" d="M28.2522 8.02734H37.7167L37.5223 28.9463H27.521L28.2522 8.02734ZM21.4062 8.04054L12.1875 8.0462L12.4059 28.8719H21.7915L21.4062 8.04054Z" fill="#293441"/>
<path fill-rule="evenodd" clip-rule="evenodd" d="M13.1419 27.0039L11.8516 35.5606H37.6612L36.1258 27.0651L13.1419 27.0039Z" fill="#2D3948"/>
<path fill-rule="evenodd" clip-rule="evenodd" d="M37.663 35.5613L35.4219 27.0656L35.506 9.66797L39.8423 18.3548L37.663 35.5613Z" fill="url(#paint2_linear_780_14637)"/>
<path fill-rule="evenodd" clip-rule="evenodd" d="M11.8679 35.5598L14.1307 27.0031L13.9701 9.72266L9.6875 18.3561L11.8679 35.5598Z" fill="url(#paint3_linear_780_14637)"/>
<path fill-rule="evenodd" clip-rule="evenodd" d="M20.4375 12.8633L21.2896 31.03H27.9277L28.9972 12.8633H20.4375Z" fill="#2D3B48"/>
<path fill-rule="evenodd" clip-rule="evenodd" d="M48.4392 18.3538L37.59 1H11.7973L1 18.3538H9.69278L13.9523 9.75472H20.9561L20.4396 12.8629H28.999L28.5464 9.66058H35.5226L39.8407 18.3538H48.4392Z" fill="url(#paint4_linear_780_14637)" stroke="#D6D6D6" stroke-width="0.143667" stroke-linejoin="round"/>
<path opacity="0.45" fill-rule="evenodd" clip-rule="evenodd" d="M28.544 9.66016L35.5794 9.66594L39.8383 18.3533L37.659 35.5591H21.2891L29.7504 18.3533L28.544 9.66016Z" fill="#363F49"/>
<path opacity="0.3" fill-rule="evenodd" clip-rule="evenodd" d="M29.748 18.3555L21.2866 35.5613H11.8472L9.6875 18.3556L29.748 18.3555Z" fill="url(#paint5_linear_780_14637)"/>
<path opacity="0.2" fill-rule="evenodd" clip-rule="evenodd" d="M13.9472 9.75391H20.951L20.4345 12.8621H28.9939L29.7479 18.353H9.6875L13.9472 9.75391Z" fill="url(#paint6_linear_780_14637)"/>
<g opacity="0.8" filter="url(#filter0_f_780_14637)">
<path d="M31.7596 29.9148C32.425 29.9148 32.9645 28.0022 32.9645 25.6429C32.9645 23.2836 32.425 21.3711 31.7596 21.3711C31.0941 21.3711 30.5547 23.2836 30.5547 25.6429C30.5547 28.0022 31.0941 29.9148 31.7596 29.9148Z" fill="#05F0FF"/>
</g>
<g filter="url(#filter1_f_780_14637)">
<path opacity="0.9" d="M31.7569 29.4901C32.2741 29.4901 32.6934 27.7968 32.6934 25.708C32.6934 23.6191 32.2741 21.9258 31.7569 21.9258C31.2397 21.9258 30.8203 23.6191 30.8203 25.708C30.8203 27.7968 31.2397 29.4901 31.7569 29.4901Z" fill="white" stroke="#06EFFE" stroke-width="0.143707"/>
<path opacity="0.9" d="M31.7569 29.2178C32.2741 29.2178 32.6934 27.6518 32.6934 25.7202C32.6934 23.7885 32.2741 22.2227 31.7569 22.2227C31.2397 22.2227 30.8203 23.7885 30.8203 25.7202C30.8203 27.6518 31.2397 29.2178 31.7569 29.2178Z" fill="#FEFFFF" stroke="#06EFFE" stroke-width="0.143614"/>
</g>
<g opacity="0.8" filter="url(#filter2_f_780_14637)">
<path d="M18.1268 30.5163C18.7923 30.5163 19.3317 28.6038 19.3317 26.2445C19.3317 23.8852 18.7923 21.9727 18.1268 21.9727C17.4613 21.9727 16.9219 23.8852 16.9219 26.2445C16.9219 28.6038 17.4613 30.5163 18.1268 30.5163Z" fill="#05F0FF"/>
</g>
<g filter="url(#filter3_f_780_14637)">
<path opacity="0.9" d="M18.1241 30.0916C18.6413 30.0916 19.0606 28.3983 19.0606 26.3095C19.0606 24.2207 18.6413 22.5273 18.1241 22.5273C17.6069 22.5273 17.1875 24.2207 17.1875 26.3095C17.1875 28.3983 17.6069 30.0916 18.1241 30.0916Z" fill="white" stroke="#06EFFE" stroke-width="0.143707"/>
<path opacity="0.9" d="M18.1241 29.8193C18.6413 29.8193 19.0606 28.2535 19.0606 26.3217C19.0606 24.3901 18.6413 22.8242 18.1241 22.8242C17.6069 22.8242 17.1875 24.3901 17.1875 26.3217C17.1875 28.2535 17.6069 29.8193 18.1241 29.8193Z" fill="#FEFFFF" stroke="#06EFFE" stroke-width="0.143614"/>
</g>
<path d="M13.9472 9.7543H20.951L20.4345 12.8625H28.9939L28.5414 9.66016L35.5767 9.66594L39.8357 18.3533L37.6564 35.5591H11.8472L9.6875 18.3535L13.9472 9.7543Z" stroke="#D6D6D6" stroke-width="0.143667" stroke-linejoin="round"/>
<g opacity="0.343">
<path d="M39.7706 18.3555H9.67188" stroke="white" stroke-width="0.143667"/>
</g>
</g>
<defs>
<filter id="filter0_f_780_14637" x="29.6893" y="20.5057" width="4.14099" height="10.2745" filterUnits="userSpaceOnUse" color-interpolation-filters="sRGB">
<feFlood flood-opacity="0" result="BackgroundImageFix"/>
<feBlend mode="normal" in="SourceGraphic" in2="BackgroundImageFix" result="shape"/>
<feGaussianBlur stdDeviation="0.432707" result="effect1_foregroundBlur_780_14637"/>
</filter>
<filter id="filter1_f_780_14637" x="30.4489" y="21.5548" width="2.61595" height="8.30641" filterUnits="userSpaceOnUse" color-interpolation-filters="sRGB">
<feFlood flood-opacity="0" result="BackgroundImageFix"/>
<feBlend mode="normal" in="SourceGraphic" in2="BackgroundImageFix" result="shape"/>
<feGaussianBlur stdDeviation="0.149593" result="effect1_foregroundBlur_780_14637"/>
</filter>
<filter id="filter2_f_780_14637" x="16.0565" y="21.1072" width="4.14099" height="10.2745" filterUnits="userSpaceOnUse" color-interpolation-filters="sRGB">
<feFlood flood-opacity="0" result="BackgroundImageFix"/>
<feBlend mode="normal" in="SourceGraphic" in2="BackgroundImageFix" result="shape"/>
<feGaussianBlur stdDeviation="0.432707" result="effect1_foregroundBlur_780_14637"/>
</filter>
<filter id="filter3_f_780_14637" x="16.816" y="22.1563" width="2.61595" height="8.30632" filterUnits="userSpaceOnUse" color-interpolation-filters="sRGB">
<feFlood flood-opacity="0" result="BackgroundImageFix"/>
<feBlend mode="normal" in="SourceGraphic" in2="BackgroundImageFix" result="shape"/>
<feGaussianBlur stdDeviation="0.149593" result="effect1_foregroundBlur_780_14637"/>
</filter>
<linearGradient id="paint0_linear_780_14637" x1="17640.5" y1="10985.1" x2="7945.73" y2="399.122" gradientUnits="userSpaceOnUse">
<stop stop-color="#ACACAC"/>
<stop offset="1" stop-color="#E9E9E9"/>
</linearGradient>
<radialGradient id="paint1_radial_780_14637" cx="0" cy="0" r="1" gradientUnits="userSpaceOnUse" gradientTransform="translate(52075.6 -13728.5) rotate(-85.4139) scale(833.627 2483.58)">
<stop stop-color="#25303B"/>
<stop offset="1" stop-color="#25303B" stop-opacity="0"/>
</radialGradient>
<linearGradient id="paint2_linear_780_14637" x1="1481.73" y1="8068.7" x2="-433.323" y2="4185.21" gradientUnits="userSpaceOnUse">
<stop stop-color="#24303A"/>
<stop offset="1" stop-color="#394958"/>
</linearGradient>
<linearGradient id="paint3_linear_780_14637" x1="612.655" y1="8051.27" x2="2515.03" y2="4165.18" gradientUnits="userSpaceOnUse">
<stop stop-color="#24303A"/>
<stop offset="1" stop-color="#394958"/>
</linearGradient>
<linearGradient id="paint4_linear_780_14637" x1="16743.5" y1="1861.15" x2="5122.03" y2="5048.11" gradientUnits="userSpaceOnUse">
<stop stop-color="#E5E5E5"/>
<stop offset="1" stop-color="white"/>
</linearGradient>
<linearGradient id="paint5_linear_780_14637" x1="3665.26" y1="3290.8" x2="3665.26" y2="5488.79" gradientUnits="userSpaceOnUse">
<stop stop-color="white"/>
<stop offset="0.5" stop-color="white" stop-opacity="0.532"/>
<stop offset="1" stop-color="white" stop-opacity="0"/>
</linearGradient>
<linearGradient id="paint6_linear_780_14637" x1="3901.29" y1="1645.24" x2="3901.29" y2="1096.24" gradientUnits="userSpaceOnUse">
<stop stop-color="white"/>
<stop offset="1" stop-color="white" stop-opacity="0"/>
</linearGradient>
<clipPath id="clip0_780_14637">
<rect width="48" height="48" fill="white"/>
</clipPath>
</defs>
</svg>
