<svg width="36" height="36" viewBox="0 0 36 36" fill="none" xmlns="http://www.w3.org/2000/svg">
<path d="M4.53038 10.1165C3.78572 9.37175 3.375 8.37839 3.375 7.32286C3.375 6.26733 3.78572 5.27397 4.53038 4.52925C6.01603 3.03616 8.62537 3.03494 10.1183 4.52925L16.3559 10.7673L15.4943 11.6291L9.25669 5.38976C8.22319 4.35739 6.42066 4.35983 5.39325 5.38976C4.87772 5.90534 4.59375 6.59033 4.59375 7.32286C4.59375 8.05539 4.8765 8.73917 5.39203 9.25474L11.6296 15.494L10.7679 16.3558L4.53038 10.1165ZM25.2552 19.6662L24.3936 20.5279L31.4062 27.5412V31.4061H27.5416L20.5289 24.3929L19.6672 25.2546L27.037 32.625H32.625V27.0366L25.2552 19.6662ZM16.7471 24.7147C16.9238 26.4783 16.3388 28.3042 14.9909 29.6522C12.7435 31.8998 4.99472 32.4702 4.11844 32.5287L3.42497 32.5738L3.47006 31.8803C3.52856 31.0039 4.10016 23.2545 6.34631 21.0069C7.69425 19.6589 9.51994 19.0738 11.2835 19.2505L26.0316 4.50488C27.5379 2.99837 29.9876 2.99837 31.494 4.50488C33.0004 6.01138 32.9992 8.46005 31.494 9.96655L16.7471 24.7147ZM12.6948 19.5638C13.5333 19.8575 14.3206 20.3378 14.9909 21.0069C15.66 21.6761 16.1414 22.4634 16.4351 23.3032L30.6323 9.10482C31.6622 8.07367 31.6634 6.39653 30.6323 5.3666C29.6013 4.33667 27.9231 4.33545 26.8932 5.3666L12.6948 19.5638ZM14.1293 21.8686C13.175 20.9155 11.9209 20.4377 10.668 20.4377C9.41513 20.4377 8.16103 20.9155 7.20797 21.8686C5.72597 23.3508 4.97766 28.6186 4.74122 31.2574C7.37981 31.021 12.6473 30.2714 14.1293 28.7905C16.0366 26.883 16.0354 23.7786 14.1293 21.8686Z" fill="#272829"/>
</svg>
