<svg width="48" height="48" viewBox="0 0 48 48" fill="none" xmlns="http://www.w3.org/2000/svg">
<g clip-path="url(#clip0_780_14763)">
<path d="M40 0H8C3.58172 0 0 3.58172 0 8V40C0 44.4183 3.58172 48 8 48H40C44.4183 48 48 44.4183 48 40V8C48 3.58172 44.4183 0 40 0Z" fill="#F5F8FF"/>
<path d="M26.25 13.5H21.75C20.9217 13.5 20.25 14.1717 20.25 15V19.5C20.25 20.3283 20.9217 21 21.75 21H26.25C27.0783 21 27.75 20.3283 27.75 19.5V15C27.75 14.1717 27.0783 13.5 26.25 13.5ZM18.75 16.125H14.7773C14.332 15.0263 13.2581 14.25 12 14.25C10.3434 14.25 9 15.593 9 17.25C9 18.907 10.3434 20.25 12 20.25C13.2581 20.25 14.332 19.4738 14.7773 18.375H18.5147C15.9192 19.8994 14.0213 22.4681 13.38 25.5H15.6956C16.2253 23.5495 17.4192 21.8808 19.0256 20.7394C18.8522 20.3606 18.75 19.943 18.75 19.5V16.125ZM16.5 27H12C11.1717 27 10.5 27.6717 10.5 28.5V33C10.5 33.8283 11.1717 34.5 12 34.5H16.5C17.3283 34.5 18 33.8283 18 33V28.5C18 27.6717 17.3283 27 16.5 27ZM36 14.25C34.7419 14.25 33.668 15.0263 33.2227 16.125H29.25V19.5C29.25 19.943 29.1473 20.3606 28.9744 20.7394C30.5808 21.8808 31.7747 23.5495 32.3044 25.5H34.62C33.9788 22.4681 32.0808 19.8994 29.4853 18.375H33.2227C33.668 19.4738 34.7419 20.25 36 20.25C37.6566 20.25 39 18.907 39 17.25C39 15.593 37.6566 14.25 36 14.25ZM36 27H31.5C30.6717 27 30 27.6717 30 28.5V33C30 33.8283 30.6717 34.5 31.5 34.5H36C36.8283 34.5 37.5 33.8283 37.5 33V28.5C37.5 27.6717 36.8283 27 36 27Z" fill="#272829"/>
</g>
<defs>
<clipPath id="clip0_780_14763">
<rect width="48" height="48" fill="white"/>
</clipPath>
</defs>
</svg>
