<svg width="48" height="48" viewBox="0 0 48 48" fill="none" xmlns="http://www.w3.org/2000/svg">
<path d="M6.13281 38.746L6.42341 38.3391L20.1701 12.2553L20.1992 11.9792L14.1393 0.596681C13.6316 -0.356809 12.2023 -0.115734 12.0357 0.951628L6.13281 38.746Z" fill="#FFC24A"/>
<path d="M6.30469 38.4373L6.52452 38.0086L20.1272 12.1981L14.0825 0.769348C13.5801 -0.174153 12.3044 0.0663648 12.1395 1.12254L6.30469 38.4373Z" fill="#FFA712"/>
<g filter="url(#filter0_i_780_14692)">
<path d="M6.30469 38.4333L6.52452 38.0047L20.1272 12.1942L14.0825 0.765442C13.5801 -0.178059 12.3044 0.0624586 12.1395 1.11863L6.30469 38.4333Z" fill="black"/>
</g>
<path d="M24.6174 20.5917L29.1294 15.9707L24.6161 7.35474C24.1877 6.53918 22.9914 6.53683 22.5675 7.35474L20.1562 11.9535V12.3451L24.6174 20.5917Z" fill="#F4BD62"/>
<path d="M24.5324 20.3967L28.9189 15.9042L24.5324 7.55155C24.1158 6.75868 23.1039 6.6756 22.6918 7.47077L20.2678 12.1407L20.1953 12.3795L24.5324 20.3967Z" fill="#FFA50E"/>
<g filter="url(#filter1_i_780_14692)">
<path d="M24.5324 20.3967L28.9189 15.9042L24.5324 7.55155C24.1158 6.75868 23.1039 6.6756 22.6918 7.47077L20.2678 12.1407L20.1953 12.3795L24.5324 20.3967Z" fill="black"/>
</g>
<path d="M6.13281 38.7461L6.26454 38.6137L6.74313 38.4191L24.3334 20.8942L24.5562 20.2876L20.1682 11.9258L6.13281 38.7461Z" fill="#F6820C"/>
<path d="M25.1802 47.5801L41.0998 38.7016L36.5536 10.7037C36.4115 9.82777 35.3368 9.48144 34.7098 10.1095L6.13281 38.7419L21.9611 47.5793C22.9614 48.1378 24.1797 48.1381 25.1802 47.5801Z" fill="#FDE068"/>
<path d="M40.9603 38.6305L36.4487 10.8451C36.3076 9.97571 35.4139 9.61601 34.7917 10.2394L6.3125 38.6908L21.9669 47.4407C22.9596 47.995 24.1686 47.9953 25.1616 47.4415L40.9603 38.6305Z" fill="#FCCA3F"/>
<path d="M25.1802 47.3176C24.1797 47.8757 22.9614 47.8754 21.9611 47.3169L6.2603 38.6064L6.13281 38.741L21.9611 47.5784C22.9614 48.137 24.1797 48.1372 25.1802 47.5792L41.0998 38.7007L41.0608 38.4609L25.1802 47.3176Z" fill="#EEAB37"/>
<defs>
<filter id="filter0_i_780_14692" x="6.30469" y="0.175781" width="13.8223" height="38.2576" filterUnits="userSpaceOnUse" color-interpolation-filters="sRGB">
<feFlood flood-opacity="0" result="BackgroundImageFix"/>
<feBlend mode="normal" in="SourceGraphic" in2="BackgroundImageFix" result="shape"/>
<feColorMatrix in="SourceAlpha" type="matrix" values="0 0 0 0 0 0 0 0 0 0 0 0 0 0 0 0 0 0 127 0" result="hardAlpha"/>
<feOffset/>
<feGaussianBlur stdDeviation="19.0896"/>
<feComposite in2="hardAlpha" operator="arithmetic" k2="-1" k3="1"/>
<feColorMatrix type="matrix" values="0 0 0 0 0 0 0 0 0 0 0 0 0 0 0 0 0 0 0.06 0"/>
<feBlend mode="normal" in2="shape" result="effect1_innerShadow_780_14692"/>
</filter>
<filter id="filter1_i_780_14692" x="20.1953" y="-0.721771" width="9.81349" height="21.1184" filterUnits="userSpaceOnUse" color-interpolation-filters="sRGB">
<feFlood flood-opacity="0" result="BackgroundImageFix"/>
<feBlend mode="normal" in="SourceGraphic" in2="BackgroundImageFix" result="shape"/>
<feColorMatrix in="SourceAlpha" type="matrix" values="0 0 0 0 0 0 0 0 0 0 0 0 0 0 0 0 0 0 127 0" result="hardAlpha"/>
<feOffset dx="1.09083" dy="-9.8175"/>
<feGaussianBlur stdDeviation="3.81792"/>
<feComposite in2="hardAlpha" operator="arithmetic" k2="-1" k3="1"/>
<feColorMatrix type="matrix" values="0 0 0 0 0 0 0 0 0 0 0 0 0 0 0 0 0 0 0.09 0"/>
<feBlend mode="normal" in2="shape" result="effect1_innerShadow_780_14692"/>
</filter>
</defs>
</svg>
