<svg width="48" height="48" viewBox="0 0 48 48" fill="none" xmlns="http://www.w3.org/2000/svg">
<g clip-path="url(#clip0_780_14615)">
<mask id="mask0_780_14615" style="mask-type:luminance" maskUnits="userSpaceOnUse" x="0" y="0" width="48" height="48">
<path d="M48 0H0V48H48V0Z" fill="white"/>
</mask>
<g mask="url(#mask0_780_14615)">
<path d="M24.0013 13.0625C21.8378 13.0625 19.7229 13.704 17.924 14.906C16.1252 16.1079 14.7231 17.8163 13.8952 19.8151C13.0673 21.8139 12.8506 24.0134 13.2727 26.1353C13.6948 28.2572 14.7366 30.2063 16.2664 31.7361C17.7962 33.2659 19.7453 34.3078 21.8673 34.7299C23.9892 35.1519 26.1886 34.9353 28.1874 34.1074C30.1862 33.2795 31.8946 31.8774 33.0965 30.0785C34.2985 28.2796 34.9401 26.1647 34.9401 24.0012C34.9366 21.1011 33.783 18.3208 31.7324 16.2702C29.6817 14.2195 26.9014 13.0659 24.0013 13.0625Z" fill="#478AFF"/>
<path d="M39.7094 14.0321C42.4614 14.0321 44.6922 11.8013 44.6922 9.04925C44.6922 6.29731 42.4614 4.06641 39.7094 4.06641C36.9574 4.06641 34.7266 6.29731 34.7266 9.04925C34.7266 11.8013 36.9574 14.0321 39.7094 14.0321Z" fill="#478AFF"/>
<path d="M45.8447 14.0585L45.6358 13.6014L45.3092 13.9802C44.4923 14.9071 43.4594 15.6182 42.3018 16.0504L41.9754 16.168L42.1059 16.4945C43.8657 20.7265 44.0884 25.4409 42.7355 29.82C41.3826 34.199 38.5394 37.9662 34.6992 40.4681C30.859 42.97 26.2642 44.0485 21.7119 43.5168C17.1596 42.9849 12.9371 40.8763 9.77697 37.5566C6.6169 34.237 4.71861 29.9158 4.41149 25.3429C4.10437 20.7699 5.4078 16.2337 8.0956 12.5213C10.7834 8.80893 14.6861 6.15459 19.1264 5.01883C23.5666 3.88307 28.2645 4.33756 32.4047 6.30346L32.7117 6.4504L32.8455 6.12386C33.3335 4.98888 34.0939 3.9918 35.0594 3.221L35.4513 2.89448L35.0039 2.66264C31.6054 0.896308 27.8299 -0.0212389 23.9998 -0.0116443C18.8142 -0.0108996 13.7682 1.66916 9.61721 4.77709C5.46614 7.88503 2.43319 12.2537 0.972261 17.2293C-0.488665 22.2049 -0.298993 27.5197 1.51289 32.3785C3.32477 37.2373 6.66142 41.3786 11.0234 44.1828C15.3855 46.9869 20.5384 48.3029 25.7109 47.9341C30.8834 47.5652 35.7973 45.5311 39.7172 42.1363C43.6371 38.7415 46.3522 34.1685 47.4562 29.1018C48.5602 24.0351 47.9937 18.747 45.8414 14.0292L45.8447 14.0585Z" fill="#478AFF"/>
</g>
</g>
<defs>
<clipPath id="clip0_780_14615">
<rect width="48" height="48" fill="white"/>
</clipPath>
</defs>
</svg>
