<svg width="40" height="40" viewBox="0 0 40 40" fill="none" xmlns="http://www.w3.org/2000/svg">
<g clip-path="url(#clip0_780_14119)">
<path d="M6.06881 40C5.65411 39.8299 5.20721 39.7151 4.82961 39.4793C3.86351 38.8772 3.34331 37.9632 3.27101 36.7872C3.26091 36.6181 3.25891 36.4491 3.25891 36.2801C3.25891 25.4218 3.26091 14.5636 3.25391 3.7064C3.25391 2.7881 3.43371 1.9481 4.01511 1.2375C4.71711 0.380901 5.61991 -0.000998041 6.70051 1.95854e-06C12.2019 0.00630196 17.7032 0.00210193 23.2055 0.00630193C23.4546 0.00630193 23.7067 0.0271025 23.9517 0.0720025C25.424 0.345402 26.5327 1.6372 26.607 3.1815C26.6351 3.7752 26.612 4.3711 26.612 4.9846H25.2512C25.2512 4.4869 25.2532 4.0079 25.2512 3.53C25.2442 2.2414 24.4528 1.4254 23.1885 1.4254C18.3891 1.4212 13.5887 1.4243 8.78941 1.4243C8.08741 1.4243 7.38541 1.4202 6.6845 1.4254C5.42711 1.4348 4.64081 2.2507 4.63681 3.5467C4.63381 4.4838 4.63681 5.4197 4.63681 6.4027H15.6314C15.3161 6.8983 15.0429 7.3543 14.7366 7.7853C14.6794 7.8656 14.4866 7.8646 14.356 7.8646C11.298 7.8687 8.2401 7.8677 5.18311 7.8677C5.02041 7.8677 4.85871 7.8677 4.63481 7.8677C4.63481 8.0242 4.63481 8.1609 4.63481 8.2976C4.63481 17.671 4.63481 27.0454 4.63481 36.4188C4.63481 37.766 5.41611 38.5788 6.72061 38.5799C12.1968 38.583 17.6731 38.5819 23.1503 38.5799C24.4759 38.5799 25.2482 37.7712 25.2502 36.3938C25.2522 35.4724 25.2502 34.5511 25.2502 33.5921H6.03171V32.1532H16.3485C15.5832 31.1306 15.6204 30.0235 15.6214 28.9132C15.6294 22.664 15.6234 16.4147 15.6264 10.1654C15.6264 8.3466 16.6648 6.9286 18.2927 6.5321C18.606 6.4559 18.9374 6.4277 19.2608 6.4277C23.7097 6.4215 28.1586 6.4204 32.6074 6.4246C34.7897 6.4267 36.2479 7.9272 36.2499 10.1883C36.2559 16.7235 36.2549 23.2598 36.2499 29.795C36.2479 32.0791 34.7937 33.5754 32.5884 33.5796C30.7586 33.5827 28.9288 33.5796 27.0991 33.5796H26.6461C26.6381 33.7413 26.6271 33.878 26.6261 34.0147C26.622 34.8996 26.6441 35.7865 26.615 36.6703C26.5598 38.3409 25.5244 39.5899 23.9477 39.9364C23.9015 39.9468 23.8593 39.9781 23.8161 40H6.06881ZM34.8751 20.001C34.8751 16.7465 34.8751 13.4919 34.8751 10.2374C34.8751 8.7181 34.0566 7.8677 32.5954 7.8677C28.1596 7.8677 23.7227 7.8666 19.2869 7.8677C17.8338 7.8677 17.0022 8.7285 17.0012 10.2395C16.9992 16.7486 16.9992 23.2577 17.0012 29.7668C17.0012 31.2735 17.8358 32.1407 19.2889 32.1427C23.7247 32.1459 28.1616 32.1459 32.5974 32.1427C34.0526 32.1417 34.874 31.2788 34.8751 29.7647C34.8751 26.5102 34.8751 23.2556 34.8751 20.001Z" fill="#FE5000"/>
<path d="M12.9121 4.27354V2.89404H16.9814V4.27354H12.9121Z" fill="#FE5000"/>
<path d="M30.7289 27.1704V28.5613H21.1523V27.1704H30.7289Z" fill="#FE5000"/>
<path d="M22.1776 17.3719C21.8352 17.7089 21.5279 18.0115 21.2055 18.3298C21.1272 18.2619 21.0579 18.2119 21.0006 18.1492C20.2233 17.304 19.445 16.4588 18.6728 15.6084C18.2721 15.1681 18.2761 14.8373 18.6828 14.3907C19.447 13.5507 20.2163 12.7149 20.9846 11.878C21.0428 11.8144 21.1081 11.757 21.1955 11.6714C21.5239 11.9949 21.8382 12.3048 22.1776 12.6377C21.4616 13.4224 20.7576 14.1945 20.0195 15.0043C20.7345 15.7889 21.4425 16.5663 22.1776 17.3719Z" fill="#FE5000"/>
<path d="M30.8554 18.3308C30.5089 18.0094 30.1846 17.7089 29.8301 17.3813C30.5119 16.5903 31.1848 15.8098 31.8848 14.998C31.2039 14.2092 30.53 13.4286 29.8311 12.6189C30.1715 12.3007 30.4999 11.9928 30.8524 11.6631C31.7 12.6461 32.5325 13.5987 33.349 14.5671C33.5729 14.8321 33.5739 15.1629 33.35 15.4279C32.5345 16.3963 31.702 17.3489 30.8554 18.3308Z" fill="#FE5000"/>
<path d="M24.325 17.5942C24.0398 17.2916 23.7435 16.9775 23.4824 16.701C24.8412 15.2892 26.206 13.8711 27.5687 12.4541C27.8298 12.7212 28.1392 13.0374 28.4214 13.3264C27.0586 14.7456 25.7018 16.1594 24.325 17.5942Z" fill="#FE5000"/>
<path d="M30.7156 25.6967H25.2715V24.3193H30.7156V25.6967Z" fill="#FE5000"/>
<path d="M21.1602 21.4419H25.2255V22.837H21.1602V21.4419Z" fill="#FE5000"/>
<path d="M30.7323 22.8508H26.666V21.4463H30.7323V22.8508Z" fill="#FE5000"/>
<path d="M23.8608 25.6904H21.1523V24.3276H23.8608V25.6904Z" fill="#FE5000"/>
</g>
<defs>
<clipPath id="clip0_780_14119">
<rect width="40" height="40" fill="white"/>
</clipPath>
</defs>
</svg>
