<svg width="45" height="44" viewBox="0 0 45 44" fill="none" xmlns="http://www.w3.org/2000/svg">
<path d="M12.5 0C5.88 0 0.5 5.38 0.5 12V32C0.5 38.62 5.88 44 12.5 44H32.5C39.12 44 44.5 38.62 44.5 32V12C44.5 5.38 39.12 0 32.5 0H12.5ZM9.11917 15.0703C9.81917 15.0703 10.3398 15.5705 10.3398 16.2305C10.3398 16.8805 9.81917 17.3808 9.11917 17.3808C8.40917 17.3808 7.89067 16.8805 7.89067 16.2305C7.89067 15.5705 8.40917 15.0703 9.11917 15.0703ZM19.5391 15.6406C23.1891 15.6406 25.4394 18.1893 25.4394 22.2793C25.4394 26.3593 23.2091 28.9297 19.5391 28.9297C15.8491 28.9297 13.6094 26.3693 13.6094 22.2793C13.6094 18.1793 15.8991 15.6406 19.5391 15.6406ZM32.4707 15.6406C35.0407 15.6406 36.9191 17.1393 37.0391 19.2793H35.1192C34.9292 18.1093 33.9194 17.3808 32.4394 17.3808C30.8794 17.3808 29.8496 18.1195 29.8496 19.2695C29.8496 20.1695 30.5099 20.6901 32.1699 21.0801L33.5606 21.4199C36.1706 22.0299 37.2402 23.0803 37.2402 24.9903C37.2402 27.4203 35.3596 28.9394 32.3496 28.9394C29.5396 28.9394 27.6497 27.4907 27.5097 25.2207H29.4609C29.6309 26.4207 30.81 27.1894 32.5 27.1894C34.08 27.1894 35.2402 26.3703 35.2402 25.2403C35.2402 24.2803 34.5101 23.7008 32.8301 23.3008L31.1894 22.9102C28.8994 22.3702 27.8496 21.2604 27.8496 19.4004C27.8496 17.1404 29.7007 15.6406 32.4707 15.6406ZM19.5391 17.4707C17.1491 17.4707 15.6308 19.3393 15.6308 22.2793C15.6308 25.2093 17.0991 27.0996 19.5391 27.0996C21.9491 27.0996 23.4297 25.2093 23.4297 22.2793C23.4297 19.3393 21.9491 17.4707 19.5391 17.4707ZM8.17967 19.0606H10.0606V28.6308H8.17967V19.0606Z" fill="black"/>
</svg>
