<svg width="40" height="40" viewBox="0 0 40 40" fill="none" xmlns="http://www.w3.org/2000/svg">
<g clip-path="url(#clip0_780_14135)">
<mask id="mask0_780_14135" style="mask-type:luminance" maskUnits="userSpaceOnUse" x="-1" y="0" width="41" height="40">
<path d="M39.6699 0H-0.330078V40H39.6699V0Z" fill="white"/>
</mask>
<g mask="url(#mask0_780_14135)">
<path d="M9.00354 23.9991C8.61064 23.9991 8.27904 24.0002 7.94734 23.9991C7.56334 23.9969 7.31734 23.8144 7.23054 23.436C7.15264 23.0977 7.08034 22.7594 7.00464 22.4211C6.98014 22.3131 6.95674 22.204 6.93114 22.0961C6.84104 21.7266 5.52324 21.1924 5.19934 21.3961C4.82314 21.632 4.44914 21.8724 4.07524 22.1106C3.73354 22.3287 3.42184 22.2908 3.13584 22.0037C2.64614 21.5118 2.15414 21.0222 1.66224 20.5314C1.37504 20.2454 1.34164 19.9316 1.56314 19.5921C1.60884 19.522 1.65224 19.4519 1.69564 19.3807C1.93494 18.9912 2.32894 18.6173 2.36894 18.2088C2.40794 17.8204 2.08854 17.3898 1.90154 16.9891C1.85254 16.8845 1.72344 16.7799 1.61214 16.7499C1.17144 16.6297 0.72284 16.5351 0.27544 16.4394C-0.14306 16.3492 -0.332259 16.0921 -0.330059 15.6704C-0.325559 15.0038 -0.33336 14.3371 -0.32786 13.6705C-0.32446 13.1998 -0.165359 13.005 0.307741 12.8893C0.711741 12.7903 1.11904 12.7079 1.52424 12.6122C1.94934 12.5109 2.48914 11.2022 2.25764 10.8383C2.02724 10.4755 1.79464 10.1138 1.56094 9.7521C1.33944 9.4105 1.37844 9.0977 1.66334 8.8117C2.15304 8.3187 2.64384 7.828 3.13134 7.3338C3.43184 7.0289 3.75244 7.01 4.10524 7.2415C4.44134 7.4629 4.78304 7.6755 5.12144 7.8925C5.19154 7.937 5.25944 7.9882 5.33404 8.0227C5.56994 8.1307 6.87104 7.4963 6.92894 7.2437C7.02794 6.8108 7.11254 6.3757 7.21944 5.945C7.32964 5.4976 7.65464 5.2661 8.02304 5.3507C8.40364 5.4386 8.59844 5.7636 8.50824 6.2243C8.38364 6.8642 8.26674 7.5074 8.08204 8.1307C8.01854 8.3443 7.79594 8.5691 7.58784 8.6715C7.00684 8.9586 6.40474 9.2124 5.79034 9.4205C5.55884 9.4984 5.24164 9.485 5.01684 9.3882C4.65174 9.2313 4.34014 8.9542 3.98724 8.7639C3.88154 8.7071 3.67894 8.7238 3.57774 8.7917C3.33724 8.9508 3.13024 9.1612 2.89874 9.3604C3.19264 9.82 3.42634 10.2095 3.68454 10.5823C3.90714 10.9039 3.90604 11.2 3.73354 11.5527C3.47974 12.0736 3.26044 12.6133 3.06574 13.1597C2.94104 13.5103 2.74624 13.7217 2.37674 13.793C1.92824 13.8798 1.48414 13.9922 1.02114 14.0979V15.2319C1.50194 15.3432 1.97164 15.46 2.44464 15.5591C2.76634 15.627 2.93214 15.8217 3.04454 16.1222C3.26384 16.7042 3.50424 17.2785 3.76354 17.8438C3.89824 18.1376 3.91044 18.398 3.73464 18.6684C3.51534 19.0056 3.28384 19.3373 3.09464 19.6912C3.03904 19.7947 3.05574 20.0117 3.12914 20.0985C3.70234 20.7662 3.70904 20.7607 4.44024 20.2932C4.53374 20.2331 4.63504 20.1831 4.71854 20.1118C5.17484 19.7246 5.61224 19.7479 6.12204 20.0595C6.51714 20.301 6.97904 20.449 7.42754 20.5837C7.83384 20.7061 8.06864 20.9254 8.14094 21.3482C8.21554 21.7834 8.32464 22.2118 8.42034 22.6514H8.97124V18.6974C8.68304 18.6529 8.37804 18.6339 8.08974 18.556C6.50374 18.1287 5.46084 17.1216 5.10584 15.519C4.74964 13.9131 5.28054 12.5666 6.54384 11.5138C6.64954 11.4259 6.76534 11.3357 6.89104 11.2879C7.19164 11.1744 7.47314 11.2211 7.67464 11.4882C7.88614 11.7675 7.87604 12.0613 7.64454 12.324C7.53554 12.4475 7.39084 12.5387 7.26504 12.6467C6.42924 13.3634 6.12314 14.5219 6.49484 15.5602C6.86884 16.6052 7.83384 17.3007 9.00134 17.3185C9.00134 17.1605 9.00134 17.0036 9.00134 16.8456C9.00134 12.4297 9.00134 8.0127 9.00134 3.5968C9.00464 1.3967 10.3936 0 12.5874 0C17.3087 0 22.0311 0 26.7525 0C28.9462 0 30.3352 1.3944 30.3363 3.5957C30.3363 7.5542 30.3363 11.5116 30.3363 15.47V15.9998C30.6903 15.9998 31.0064 15.9964 31.3213 15.9998C31.8155 16.0053 32.0214 16.1678 32.1349 16.6541C32.2329 17.0726 32.3152 17.4944 32.411 17.9139C32.4889 18.2511 33.8233 18.8042 34.1161 18.6206C34.4923 18.3858 34.8673 18.1465 35.238 17.9028C35.593 17.6702 35.9136 17.7002 36.2129 18.0007C36.6927 18.4826 37.1735 18.9656 37.6576 19.443C37.9581 19.7401 38.0038 20.0584 37.7723 20.4157C37.5452 20.7651 37.3226 21.1168 37.0978 21.4673C37.0599 21.5263 37.0188 21.582 36.9887 21.6443C36.8763 21.8735 37.4896 23.1945 37.7378 23.2535C38.1696 23.3559 38.6037 23.446 39.0344 23.5528C39.5041 23.6686 39.6632 23.8667 39.6677 24.3385C39.6733 25.0051 39.6677 25.6718 39.6699 26.3384C39.6721 26.7601 39.4796 27.015 39.0611 27.104C38.6137 27.1997 38.1663 27.2966 37.7244 27.4167C37.6131 27.4468 37.4951 27.5536 37.4372 27.6571C37.3438 27.8241 37.3326 28.0444 37.2236 28.1946C36.8485 28.711 37.0132 29.1239 37.3471 29.598C38.1696 30.7632 38.1496 30.7342 37.1412 31.728C36.834 32.0296 36.5379 32.3423 36.2296 32.6428C35.888 32.9744 35.6364 32.9967 35.2246 32.7474C35.1534 32.704 35.0855 32.6562 35.0154 32.6116C34.2622 32.1272 33.4761 32.0678 32.6569 32.4336C32.5534 32.4803 32.4521 32.615 32.4232 32.7285C32.3108 33.1569 32.234 33.5954 32.1316 34.0272C32.0225 34.4846 31.7164 34.7205 31.3458 34.6538C30.9485 34.5825 30.7415 34.242 30.835 33.7612C30.9596 33.1213 31.0765 32.477 31.2623 31.8549C31.3258 31.6434 31.5573 31.4264 31.7665 31.324C32.3353 31.0436 32.9407 30.8355 33.5184 30.5717C33.8133 30.4371 34.0727 30.4282 34.3431 30.6029C34.6815 30.821 35.012 31.0536 35.366 31.2428C35.4684 31.2973 35.6687 31.2673 35.7733 31.1994C36.016 31.0425 36.2274 30.8388 36.4522 30.6541C36.1339 30.1578 35.888 29.7582 35.6253 29.3687C35.4238 29.0694 35.4428 28.7911 35.593 28.4706C35.8446 27.9331 36.0738 27.3834 36.2775 26.8258C36.3988 26.4942 36.5791 26.2838 36.9353 26.2148C37.3961 26.1258 37.8524 26.0112 38.321 25.9044V24.7592C37.9014 24.6668 37.4762 24.56 37.0455 24.4832C36.6147 24.4064 36.3788 24.1761 36.2486 23.7498C36.095 23.2501 35.8957 22.7549 35.6475 22.2953C35.4261 21.8869 35.425 21.5497 35.6976 21.1802C35.9035 20.902 36.0939 20.6082 36.2497 20.2999C36.3031 20.1953 36.282 19.9805 36.2052 19.8926C35.632 19.2327 35.6253 19.2394 34.8929 19.7079C34.7761 19.7824 34.6514 19.847 34.5435 19.9338C34.1472 20.2532 33.7699 20.251 33.3203 19.9928C32.8929 19.7468 32.4187 19.5621 31.9435 19.423C31.4994 19.2928 31.259 19.0535 31.1844 18.6017C31.1154 18.181 31.0086 17.767 30.9173 17.3452H30.363V21.2692C30.8249 21.3772 31.3002 21.4295 31.7298 21.5975C33.2134 22.1762 34.0971 23.2791 34.2975 24.8549C34.4867 26.3484 33.9346 27.5837 32.746 28.5051C32.5512 28.6554 32.2306 28.7433 31.9936 28.7055C31.8211 28.6776 31.5829 28.4039 31.5684 28.2247C31.5506 28.0055 31.6764 27.6938 31.8467 27.5547C32.4321 27.0773 32.8272 26.5086 32.9652 25.7619C33.2568 24.1939 31.9446 22.6336 30.3363 22.6937V23.1823C30.3363 27.5848 30.3363 31.9873 30.3363 36.3898C30.3363 38.6156 28.9506 39.9989 26.7235 39.9989C22.0156 39.9989 17.3076 39.9989 12.5996 39.9989C10.4014 39.9989 9.00464 38.6056 9.00354 36.4154C9.00354 32.4581 9.00354 28.4996 9.00354 24.5422C9.00354 24.3775 9.00354 24.2139 9.00354 24.0002V23.9991ZM10.3369 19.9772C10.3369 25.4625 10.3369 30.9468 10.3369 36.4321C10.3369 37.87 11.1382 38.6657 12.5874 38.6657C17.3087 38.6657 22.03 38.6657 26.7502 38.6657C28.1983 38.6657 29.0018 37.8689 29.003 36.4344C29.003 25.4781 29.003 14.523 29.003 3.5668C29.003 2.1289 28.2005 1.3343 26.7525 1.3343C22.0456 1.3343 17.3376 1.3343 12.6308 1.3343C11.1082 1.3343 10.3369 2.1122 10.3369 3.6491C10.3369 9.0922 10.3369 14.5352 10.3369 19.9783V19.9772Z" fill="#0C8AFF"/>
<path d="M33.008 6.03796C33.0169 5.61736 33.3185 5.31236 33.707 5.33356C34.0643 5.35246 34.3492 5.66296 34.3369 6.02356C34.3247 6.39526 34.0064 6.72686 33.6591 6.73126C33.2685 6.73576 32.9991 6.44976 33.008 6.03906V6.03796Z" fill="#0C8AFF"/>
<path d="M32.9991 8.7363C32.9991 8.3101 33.2841 8.0018 33.6736 8.0074C34.032 8.0129 34.3269 8.3123 34.3281 8.6729C34.3292 9.0602 33.9953 9.4118 33.6324 9.4051C33.2551 9.3985 32.9991 9.128 32.998 8.7363H32.9991Z" fill="#0C8AFF"/>
<path d="M33.0079 11.3866C33.0123 10.9626 33.3062 10.6565 33.6957 10.6699C34.0541 10.6821 34.3424 10.987 34.3368 11.3476C34.3301 11.7371 33.9918 12.081 33.6289 12.0665C33.2516 12.0521 33.0034 11.7805 33.0079 11.3855V11.3866Z" fill="#0C8AFF"/>
<path d="M5.00324 28.5754C5.01214 28.1581 5.31604 27.8509 5.70224 27.8721C6.05944 27.891 6.34444 28.2015 6.33214 28.5598C6.31884 28.956 5.99274 29.2721 5.61314 29.2565C5.23034 29.2409 4.99434 28.9771 5.00214 28.5754H5.00324Z" fill="#0C8AFF"/>
<path d="M5.00234 31.231C5.01234 30.8304 5.29504 30.5343 5.66564 30.5332C6.03964 30.5321 6.34684 30.8526 6.33124 31.2276C6.31454 31.6238 5.98624 31.9365 5.60664 31.9176C5.22494 31.8987 4.99114 31.6338 5.00234 31.231Z" fill="#0C8AFF"/>
<path d="M5.00196 33.9294C5.00306 33.5087 5.29686 33.1982 5.68416 33.2082C6.04146 33.2172 6.33526 33.521 6.33196 33.8793C6.32866 34.2722 6.00586 34.6016 5.62966 34.5938C5.24566 34.586 5.00086 34.3267 5.00196 33.9294Z" fill="#0C8AFF"/>
<path d="M14.6166 20.0191C15.2933 20.6879 15.9344 21.3212 16.5755 21.9544C16.6645 22.0423 16.7569 22.1269 16.8348 22.2248C17.0719 22.5242 17.0607 22.877 16.8125 23.1296C16.5643 23.3822 16.1837 23.4245 15.9121 23.1619C14.9872 22.2627 14.0735 21.3512 13.1764 20.4242C12.907 20.146 12.9449 19.7988 13.2131 19.525C14.0879 18.6347 14.9705 17.75 15.8609 16.8764C16.1514 16.5915 16.5298 16.6026 16.7958 16.8541C17.073 17.1167 17.0886 17.5118 16.7914 17.819C16.1948 18.4377 15.5782 19.0387 14.9705 19.6474C14.8648 19.7542 14.7624 19.8644 14.6155 20.018L14.6166 20.0191Z" fill="#0C8AFF"/>
<path d="M24.7302 19.9774C24.0546 19.3108 23.4124 18.6776 22.7713 18.0444C22.6823 17.9565 22.5888 17.8719 22.5109 17.7751C22.2727 17.4779 22.2849 17.1229 22.5331 16.8703C22.7813 16.6177 23.1631 16.5754 23.4335 16.8391C24.3584 17.7383 25.2722 18.6509 26.1693 19.5768C26.4398 19.8561 26.3986 20.2045 26.1315 20.4771C25.2566 21.3685 24.3751 22.2533 23.4814 23.1257C23.1798 23.4207 22.7747 23.3962 22.5153 23.1157C22.2682 22.8486 22.2671 22.4736 22.5521 22.1798C23.1609 21.5521 23.7853 20.9412 24.403 20.3213C24.4998 20.2245 24.5911 20.1232 24.7291 19.9763L24.7302 19.9774Z" fill="#0C8AFF"/>
<path d="M19.1846 23.3286C18.5858 23.3408 18.2474 22.9569 18.3532 22.5207C18.7872 20.7323 19.2358 18.9461 19.6932 17.1633C19.7901 16.7871 20.1596 16.598 20.5013 16.6925C20.8496 16.7894 21.0678 17.1277 20.9754 17.5027C20.5402 19.2777 20.1061 21.0528 19.632 22.8167C19.5708 23.047 19.2859 23.2173 19.1835 23.3275L19.1846 23.3286Z" fill="#0C8AFF"/>
<path d="M19.6546 3.99609C19.0436 3.99609 18.4325 3.99939 17.8215 3.99609C17.3006 3.99269 16.9945 3.73679 17.0001 3.32049C17.0057 2.91549 17.3006 2.66619 17.7981 2.66509C19.048 2.66169 20.2979 2.66059 21.5467 2.66509C22.032 2.66729 22.3325 2.93549 22.3269 3.33839C22.3214 3.74009 22.022 3.99159 21.5289 3.99489C20.9045 3.99939 20.279 3.99609 19.6546 3.99609Z" fill="#0C8AFF"/>
</g>
</g>
<defs>
<clipPath id="clip0_780_14135">
<rect width="40" height="40" fill="white"/>
</clipPath>
</defs>
</svg>
