<svg width="36" height="30" viewBox="0 0 36 30" fill="none" xmlns="http://www.w3.org/2000/svg">
<path d="M17.5672 30C14.2761 30 10.9851 29.9994 7.69412 29.9983C7.26046 29.9983 7.11069 29.8435 7.10174 29.3852C7.09727 29.1519 7.09616 28.9129 7.0956 28.6823C7.0956 28.5417 7.09449 28.401 7.09337 28.2608C7.09337 28.2083 7.07883 28.1676 7.06598 28.132C7.06095 28.1185 7.0548 28.1009 7.04754 28.0772L7.00115 27.9263L6.84524 27.919C6.81171 27.9173 6.7765 27.9151 6.74018 27.9128C6.65523 27.9077 6.55856 27.9015 6.46187 27.9015C6.31434 27.9015 6.16625 27.9015 6.01872 27.9015H4.93009C4.59814 27.902 4.26675 27.9015 3.93479 27.8993C3.48773 27.8964 3.35081 27.7552 3.34857 27.2941C3.34578 26.711 3.34634 26.1358 3.3469 25.5261C3.3469 25.2645 3.34746 25.0001 3.34746 24.73V24.504H2.08113C1.92968 24.504 1.77823 24.504 1.62735 24.5051C1.47646 24.5051 1.32557 24.5062 1.17525 24.5062C0.916503 24.5062 0.705816 24.5046 0.511339 24.5006C0.174917 24.4938 0.0184418 24.3374 0.00279421 23.9915C-1.74623e-10 23.9237 0 23.8553 0.000558839 23.7825V23.7011C0.000558839 23.7011 0 11.5904 0 6.29834C0 5.59036 0.0871788 5.50109 0.77623 5.50051C1.07241 5.50051 3.1228 5.50051 3.1228 5.50051H3.34634V3.18222C3.34634 2.74998 3.35584 2.38271 3.46929 2.26631C3.57155 2.16178 3.86103 2.14201 4.36007 2.14201H7.10007V1.916C7.10007 1.77079 7.10007 1.6301 7.09896 1.49279C7.09784 1.19616 7.09672 0.915908 7.10119 0.636783C7.10846 0.162162 7.26381 0.00169508 7.71759 0.00169508C11.0103 0.000565025 14.303 0 17.5957 0C20.8883 0 24.2196 0.000565025 27.5318 0.00169508C27.9672 0.00169508 28.1225 0.161032 28.1264 0.609662C28.1292 0.891045 28.1287 1.17243 28.1276 1.47076C28.1276 1.6075 28.127 1.74762 28.127 1.89227V2.10585L28.3382 2.11772C28.3847 2.12054 28.4294 2.12336 28.4723 2.12675C28.5691 2.13353 28.6601 2.14031 28.7552 2.14031C28.9111 2.14031 29.067 2.14031 29.2235 2.14031H30.2802C30.6144 2.13975 30.948 2.14031 31.2822 2.14258C31.7466 2.14597 31.8969 2.29739 31.9009 2.76749C31.9042 3.19578 31.9037 3.63142 31.9031 4.05293C31.9031 4.32583 31.9025 4.59818 31.9031 4.87108C31.9031 4.95865 31.9087 5.04624 31.9142 5.1389C31.9171 5.1841 31.9199 5.23213 31.9226 5.28468L31.9333 5.49939H33.5561C33.8602 5.49939 34.1625 5.49939 34.4654 5.49939C35.1472 5.49939 35.2494 5.60505 35.2494 6.30172C35.2494 12.1023 35.2494 17.9034 35.2494 23.7039C35.2494 24.4046 35.1545 24.5017 34.4681 24.5017H31.9031C31.9031 24.5017 31.9031 25.2578 31.9031 25.516C31.9031 26.107 31.9042 26.6652 31.902 27.2296C31.8998 27.7585 31.7667 27.8959 31.2548 27.8975C30.8714 27.8987 30.4876 27.8993 30.1008 27.8993C29.8175 27.8993 28.1282 27.8987 28.1282 27.8987C28.1282 27.8987 28.1282 28.4015 28.1282 28.5355C28.1287 28.8287 28.1292 29.105 28.127 29.3841C28.1237 29.848 27.9817 29.9972 27.5447 29.9972C24.219 29.9983 20.8928 29.9989 17.5666 29.9989L17.5672 30ZM8.06409 29.027H27.1451V15.358H8.06409V29.027ZM28.1561 26.9308H30.9302V3.1082H28.1561V26.9308ZM3.82247 17.3531C3.98509 17.3553 4.28742 17.3598 4.28798 18.1277C4.28798 20.1426 4.28798 22.1575 4.28798 24.1717V26.9274H7.07436V3.08729H6.85083C6.65635 3.08729 6.46356 3.089 6.27243 3.09069C6.08577 3.09239 5.9008 3.09408 5.71638 3.09408C5.4174 3.09408 5.17375 3.08956 4.9491 3.07939C4.92507 3.07826 4.90159 3.07769 4.87924 3.07769C4.75182 3.07769 4.5674 3.09351 4.4344 3.22798C4.29693 3.36754 4.27905 3.56757 4.28016 3.74386C4.29134 6.03277 4.2891 8.3607 4.28687 10.6111L4.28575 11.8232C4.28575 11.9848 4.28575 12.1526 4.2539 12.2984C4.21086 12.4995 4.03707 12.6289 3.81185 12.6289C3.80515 12.6289 3.79844 12.6289 3.79173 12.6289C3.5682 12.6209 3.38993 12.4684 3.35751 12.2571C3.34355 12.1655 3.3441 12.0655 3.34522 11.9593C3.34522 11.9327 3.34522 11.9057 3.34522 11.8791C3.34467 10.6174 3.34467 9.35625 3.34467 8.09452V6.48818H0.973503V23.5248H3.34634C3.34634 23.5248 3.34634 19.2702 3.34634 18.1407C3.34634 17.3524 3.64812 17.3525 3.81018 17.3525L3.82247 17.3531ZM31.9338 23.5259H34.2653V6.47801H31.9338V23.5259ZM9.88809 14.3878C10.3973 14.3878 10.8086 14.3906 11.1818 14.3957H11.2019C11.5015 14.3957 11.7351 14.294 11.9592 14.0652C13.4318 12.565 14.9361 11.0462 16.3908 9.57772L16.7401 9.22515C16.9105 9.0534 17.0575 8.96977 17.1899 8.96977C17.3224 8.96977 17.4688 9.05392 17.6375 9.22688C17.8645 9.45907 18.0802 9.69525 18.3294 9.96817C18.4462 10.0959 18.5686 10.2298 18.6994 10.3716L18.8849 10.5722L19.0436 10.349C19.0906 10.2829 19.1297 10.2242 19.1643 10.1716C19.2224 10.0846 19.2638 10.0213 19.3102 9.9744C20.5172 8.7477 21.7266 7.5261 22.9622 6.27856C23.1673 6.07176 23.3227 5.97514 23.4506 5.97514C23.5786 5.97514 23.7345 6.07176 23.9408 6.27969C24.4319 6.77522 24.9226 7.2713 25.4133 7.76737C25.7636 8.1222 26.114 8.4765 26.465 8.8308C26.5265 8.8929 26.5896 8.9517 26.6634 9.02003C26.7008 9.05513 26.7422 9.09352 26.7875 9.13643L27.1636 9.49245V4.08908H8.07692V14.39H8.30049C8.57042 14.39 8.83809 14.3895 9.10404 14.3889C9.36677 14.3884 9.62829 14.3878 9.88809 14.3878ZM19.5756 11.1965L19.7343 11.3564C19.9344 11.5582 20.1362 11.7616 20.3396 11.9667C21.0582 12.6922 21.8021 13.442 22.5503 14.1788C22.7392 14.3646 23.0455 14.3833 23.1344 14.3844C23.5334 14.39 23.9609 14.3924 24.5203 14.3924C24.7477 14.3924 24.9757 14.3923 25.2032 14.3917C25.4306 14.3917 25.658 14.3911 25.8855 14.3911H27.1787V14.1652C27.1787 13.9109 27.1792 13.6595 27.1803 13.4109C27.1826 12.6865 27.1842 12.0028 27.1691 11.3067C27.1641 11.0722 27.0535 10.8033 26.8937 10.6383C26.0861 9.80265 25.2545 8.96415 24.4504 8.15333C24.2509 7.95218 24.0519 7.75102 23.8524 7.54987C23.7871 7.48375 23.7183 7.42443 23.6814 7.39223C23.673 7.38488 23.6669 7.37979 23.663 7.37584L23.5054 7.23345L19.5756 11.1965ZM13.0925 14.3652H21.2164L17.1765 10.2608L13.0925 14.3652ZM8.05907 3.08617H27.1479V0.99162H8.05907V3.08617Z" fill="#272829"/>
<path d="M17.631 21.0251H13.8443C12.8652 21.0251 11.8861 21.0251 10.907 21.0251C10.2968 21.0251 10.1817 20.9076 10.1805 20.2872C10.1794 19.5238 10.1794 18.7599 10.1805 17.9965C10.1817 17.3451 10.2856 17.2389 10.9232 17.2389C12.569 17.2383 14.2159 17.2383 15.8617 17.2383H21.2137C21.5222 17.2383 21.8313 17.2383 22.1397 17.2383C22.4482 17.2383 22.7567 17.2383 23.0652 17.2383C23.5005 17.2383 23.9352 17.2383 24.3701 17.2405C24.9306 17.2428 25.0675 17.3801 25.0686 17.9395C25.0703 18.8023 25.0714 19.5809 25.0686 20.3793C25.0664 20.9211 24.8423 21.0245 24.4293 21.0251C23.3921 21.0262 22.3548 21.0268 21.3182 21.0268H17.6316L17.631 21.0251ZM11.139 20.0448H24.094V18.2197H11.1384L11.139 20.0448Z" fill="#272829"/>
<path d="M24.3039 27.0581C22.9632 27.0581 21.6243 27.0581 20.2853 27.0581H14.0788C12.9801 27.0581 11.8809 27.0581 10.7822 27.057C10.225 27.057 10.1982 26.7378 10.1898 26.6332C10.167 26.3614 10.3134 26.166 10.5715 26.123C10.6677 26.1067 10.7744 26.1055 10.8672 26.1055H10.9789C13.0695 26.1055 15.1608 26.1055 17.2508 26.1055C19.5929 26.1055 21.9339 26.1055 24.276 26.1067H24.2838C24.4364 26.1067 24.58 26.1066 24.7113 26.1337C24.9159 26.1756 25.0684 26.371 25.0662 26.588C25.0639 26.8129 24.8924 27.0146 24.6761 27.0474C24.6057 27.0581 24.5292 27.0592 24.4638 27.0592C24.4375 27.0592 24.3313 27.0581 24.3039 27.0581Z" fill="#272829"/>
<path d="M21.1314 24.1324C20.9911 24.1324 20.8509 24.1318 20.7106 24.1313C20.5698 24.1307 20.4289 24.1302 20.2875 24.1302H13.3423C12.4811 24.1302 11.6205 24.1302 10.7593 24.129C10.4463 24.129 10.258 24.0155 10.1988 23.7917C10.1619 23.651 10.1787 23.5137 10.2463 23.4036C10.3128 23.2962 10.4251 23.2216 10.5626 23.1945C10.661 23.1753 10.7694 23.1735 10.8811 23.1735H10.9599C12.9869 23.173 15.0104 23.1724 17.0334 23.1724H21.4863C21.5142 23.1724 21.6176 23.1719 21.6427 23.1719C21.6992 23.1719 21.7657 23.173 21.8289 23.1815C22.1166 23.2194 22.2787 23.4086 22.2636 23.6883C22.2496 23.9465 22.0663 24.1177 21.797 24.1251C21.6042 24.1302 21.3924 24.1324 21.1314 24.1324Z" fill="#272829"/>
<path d="M24.58 24.1205C24.4548 24.1177 24.3319 24.0606 24.243 23.964C24.1559 23.8686 24.1112 23.7493 24.1178 23.6273C24.1313 23.3804 24.3476 23.1719 24.5901 23.1719H24.6007C24.8471 23.1781 25.064 23.4001 25.0651 23.6465C25.0651 23.7696 25.017 23.8866 24.9282 23.977C24.8371 24.0697 24.7169 24.1205 24.5901 24.1205H24.58Z" fill="#272829"/>
<path d="M11.9264 9.68958C11.4033 9.68958 10.9126 9.48333 10.5449 9.1093C10.1799 8.73805 9.98104 8.2465 9.98442 7.72495C9.99109 6.65313 10.8595 5.77961 11.9202 5.77734C12.4399 5.77734 12.9244 5.98076 13.2882 6.35028C13.656 6.72376 13.8566 7.22098 13.8543 7.75158C13.8493 8.8375 13.0032 9.68905 11.928 9.69018L11.9264 9.68958ZM11.9247 6.74354C11.3877 6.74354 10.9557 7.16674 10.9411 7.70748C10.9266 8.25835 11.3396 8.7076 11.8811 8.72958C11.895 8.73018 11.9091 8.7307 11.923 8.7307C12.4707 8.7307 12.9021 8.29735 12.9054 7.74423C12.9082 7.19274 12.4852 6.75371 11.9415 6.74467H11.9241L11.9247 6.74354Z" fill="#272829"/>
<path d="M3.8072 15.2534C3.55404 15.2534 3.35062 15.0528 3.34392 14.7963C3.34056 14.6624 3.38807 14.5375 3.47748 14.4443C3.5641 14.3544 3.68034 14.3047 3.80552 14.3047C4.06761 14.3075 4.26992 14.5155 4.27104 14.7788C4.27215 15.041 4.07153 15.2495 3.81502 15.2534H3.8072Z" fill="#272829"/>
</svg>
