<svg width="48" height="48" viewBox="0 0 48 48" fill="none" xmlns="http://www.w3.org/2000/svg">
<g clip-path="url(#clip0_780_14796)">
<path d="M40 0H8C3.58172 0 0 3.58172 0 8V40C0 44.4183 3.58172 48 8 48H40C44.4183 48 48 44.4183 48 40V8C48 3.58172 44.4183 0 40 0Z" fill="#F5F8FF"/>
<mask id="mask0_780_14796" style="mask-type:luminance" maskUnits="userSpaceOnUse" x="9" y="9" width="30" height="30">
<path d="M39 9H9V38.9937H39V9Z" fill="white"/>
</mask>
<g mask="url(#mask0_780_14796)">
<path d="M31.9605 33.515C31.9097 31.1705 29.9338 29.0593 27.6034 28.8057C27.1597 28.7572 27.0329 28.8355 26.8749 29.2533C26.4452 30.3935 26.0156 31.5329 25.5852 32.6722C25.5539 32.756 25.5133 32.8366 25.4428 32.9954C25.3372 32.4289 25.2401 31.9539 25.1658 31.475C25.147 31.3529 25.1666 31.2034 25.2229 31.0939C25.4851 30.5821 25.7684 30.0813 26.0399 29.5734C26.288 29.1086 26.1009 28.7682 25.5813 28.7643C24.5273 28.7556 23.4724 28.7556 22.4175 28.7643C21.8979 28.769 21.7109 29.1086 21.959 29.5742C22.2297 30.082 22.5075 30.586 22.7806 31.0923C22.8174 31.1604 22.8792 31.2402 22.8683 31.3036C22.7759 31.842 22.6695 32.3772 22.567 32.9133C22.4778 32.8311 22.4434 32.7521 22.4129 32.6722C21.9887 31.5516 21.5646 30.4303 21.1412 29.3089C20.955 28.8143 20.8212 28.7345 20.3078 28.8167C17.8123 29.215 16.0368 31.2832 16.0289 33.8085C16.0242 35.3219 16.0336 36.8345 16.0235 38.3479C16.0219 38.625 16.0923 38.8402 16.3247 38.9943H31.6757C31.7743 38.8175 31.9566 38.6422 31.959 38.4645C31.9793 36.815 31.9965 35.1646 31.9613 33.5158L31.9605 33.515Z" fill="#272829"/>
<path d="M24.7769 34.5447C24.5883 33.5297 24.4044 32.5148 24.2033 31.5022C24.1509 31.2377 24.1775 31.01 24.3152 30.7768C24.5148 30.4395 24.6909 30.0881 24.8857 29.7266H23.1094C23.3175 30.1108 23.5311 30.4512 23.6876 30.8159C23.7737 31.0162 23.8199 31.2682 23.7847 31.4803C23.6164 32.4983 23.4122 33.5101 23.2252 34.5251C23.2087 34.6159 23.1993 34.7223 23.2299 34.806C23.4678 35.454 23.7158 36.098 23.9607 36.7436C23.9842 36.7459 24.0077 36.7491 24.0312 36.7514C24.2855 36.0823 24.5414 35.4141 24.7902 34.7426C24.8114 34.6855 24.7879 34.6096 24.7761 34.5439L24.7769 34.5447Z" fill="#272829"/>
<path d="M37.305 20.7274C36.6602 20.7258 36.0162 20.7227 35.3713 20.7298C35.2031 20.7321 35.1225 20.6875 35.056 20.5153C34.8111 19.8799 34.5467 19.2516 34.2704 18.6287C34.2039 18.4776 34.2085 18.3947 34.3274 18.2796C34.8111 17.8109 35.2868 17.3336 35.7588 16.8523C36.4357 16.1621 36.4412 15.245 35.7643 14.5556C34.9974 13.7754 34.2243 13.003 33.4448 12.2354C32.746 11.5475 31.8265 11.5585 31.1278 12.251C30.6629 12.7111 30.1972 13.1713 29.7418 13.6408C29.6158 13.7707 29.5275 13.7949 29.3483 13.7136C28.7371 13.4358 28.115 13.1807 27.4882 12.9388C27.3215 12.8747 27.2627 12.8066 27.2651 12.6305C27.2745 11.9763 27.2722 11.3221 27.2682 10.6679C27.2619 9.65851 26.6046 9.00275 25.5967 9.00118C24.5325 8.99961 23.4682 8.99961 22.4032 9.00118C21.3914 9.00275 20.7325 9.65616 20.727 10.6648C20.7232 11.319 20.7215 11.9732 20.7294 12.6274C20.7309 12.7949 20.6879 12.8755 20.5149 12.942C19.8795 13.1861 19.2511 13.4514 18.6282 13.7269C18.4764 13.7942 18.3944 13.7863 18.2793 13.6674C17.8168 13.1908 17.3457 12.7229 16.873 12.2565C16.1594 11.5522 15.2455 11.5499 14.5349 12.2534C13.7719 13.0093 13.012 13.7683 12.2561 14.5313C11.5494 15.245 11.5494 16.1558 12.2522 16.8687C12.7115 17.3343 13.1716 17.7992 13.6419 18.2546C13.7726 18.3814 13.7961 18.4714 13.7155 18.649C13.4385 19.2609 13.1834 19.8823 12.9416 20.5091C12.8774 20.6742 12.8085 20.7345 12.6325 20.7321C11.9587 20.7227 11.285 20.7266 10.6112 20.729C10.1166 20.7313 9.68159 20.8972 9.37797 21.2924C9.21598 21.5029 9.12364 21.7666 9 22.0069V25.9899C9.42414 27.0174 9.80367 27.2678 10.9352 27.2678C11.5017 27.2678 12.0683 27.2749 12.634 27.2639C12.8109 27.2608 12.8782 27.3234 12.9424 27.4877C13.1849 28.1137 13.4401 28.7359 13.7171 29.347C13.7977 29.5254 13.7718 29.6154 13.6419 29.7414C13.1654 30.2031 12.6966 30.6734 12.231 31.1476C11.5651 31.8261 11.5549 32.7448 12.2177 33.4217C12.9893 34.2097 13.775 34.9852 14.5583 35.7622C14.6381 35.8413 14.7422 35.9164 14.8478 35.9453C15.0536 36.0017 15.2383 35.9367 15.3518 35.745C15.4856 35.5189 15.4309 35.3146 15.2516 35.1362C14.4855 34.3701 13.7178 33.6048 12.9525 32.8371C12.5707 32.4537 12.5683 32.1344 12.9478 31.7517C13.512 31.1836 14.0809 30.6202 14.6452 30.0521C14.9143 29.7813 14.9042 29.6483 14.75 29.2969C14.3869 28.469 14.0395 27.6341 13.7092 26.792C13.5645 26.4219 13.4862 26.3311 13.0754 26.3304C12.275 26.3288 11.4735 26.3327 10.673 26.3288C10.1777 26.3264 9.93748 26.0839 9.9367 25.5901C9.93435 24.536 9.93435 23.4811 9.9367 22.4271C9.93748 21.8981 10.1722 21.6672 10.7106 21.6664C11.5111 21.6641 12.3124 21.668 13.113 21.6649C13.4807 21.6633 13.5981 21.5757 13.6975 21.222C13.9456 20.3354 14.2922 19.4902 14.7492 18.6897C14.937 18.361 14.9128 18.2116 14.6412 17.9377C14.0833 17.3766 13.5222 16.8202 12.9643 16.2591C12.5675 15.8608 12.5652 15.5478 12.9588 15.1534C13.6897 14.4202 14.4213 13.6885 15.1546 12.9584C15.5466 12.5679 15.8637 12.5703 16.262 12.967C16.8293 13.532 17.3974 14.0962 17.9593 14.6667C18.1768 14.8874 18.4005 14.921 18.6683 14.7653C19.4734 14.2989 20.328 13.9475 21.2256 13.6995C21.5762 13.6024 21.6629 13.4796 21.6645 13.111C21.6669 12.3105 21.6637 11.5099 21.666 10.7094C21.6676 10.1734 21.9 9.94022 22.4314 9.93944C23.4667 9.93787 24.5012 9.93866 25.5365 9.93944C26.1085 9.93944 26.3315 10.1632 26.3331 10.7376C26.3346 11.5287 26.3323 12.3191 26.3346 13.1102C26.3354 13.4819 26.4231 13.5993 26.7721 13.6971C27.6587 13.9452 28.5046 14.2895 29.3051 14.7473C29.6369 14.9374 29.7856 14.9155 30.0579 14.6448C30.619 14.0876 31.1762 13.5258 31.7365 12.9678C32.1434 12.5625 32.4534 12.5656 32.865 12.9764C33.5904 13.7003 34.3158 14.4249 35.0396 15.1511C35.4333 15.5463 35.4324 15.86 35.0364 16.2584C34.4785 16.8194 33.9174 17.3758 33.3596 17.9369C33.0857 18.2116 33.0919 18.3446 33.2437 18.6905C33.6068 19.5184 33.9558 20.3526 34.2853 21.1946C34.4332 21.5718 34.5082 21.6641 34.9128 21.6649C35.6937 21.6672 36.4755 21.6649 37.2565 21.6657C37.8324 21.6664 38.061 21.8903 38.0618 22.4545C38.0626 23.489 38.0634 24.5243 38.0618 25.5588C38.061 26.0932 37.8294 26.3272 37.2965 26.3288C36.4959 26.3311 35.6954 26.328 34.8941 26.3304C34.5114 26.3319 34.4307 26.4282 34.2883 26.7905C33.9581 27.6317 33.6107 28.4674 33.2476 29.2954C33.0927 29.6483 33.0825 29.7805 33.3517 30.0505C33.9088 30.6116 34.4708 31.1688 35.0287 31.7291C35.4348 32.1368 35.4347 32.4474 35.0262 32.8567C34.2883 33.5962 33.5489 34.3341 32.8102 35.0736C32.5268 35.3577 32.4956 35.6222 32.7155 35.8358C32.9198 36.0346 33.2007 36.004 33.4613 35.745C34.2297 34.9805 34.9997 34.2175 35.7596 33.4451C36.4482 32.7456 36.4396 31.8261 35.7486 31.1273C35.2822 30.6554 34.8151 30.1828 34.3377 29.7219C34.2078 29.5966 34.2133 29.5059 34.2829 29.3486C34.5553 28.7351 34.8134 28.1145 35.056 27.4885C35.1194 27.3257 35.1844 27.26 35.3628 27.2631C36.017 27.2733 36.6712 27.2694 37.3254 27.2663C38.3365 27.2616 38.9953 26.605 38.9977 25.5979C39 24.5337 39 23.4694 38.9977 22.4052C38.9953 21.3808 38.3388 20.7298 37.3067 20.7274H37.305Z" fill="#272829"/>
<path d="M23.9607 36.7436C23.7158 36.098 23.4678 35.454 23.2299 34.806C23.1993 34.7223 23.208 34.6159 23.2252 34.5251C23.4122 33.5101 23.6157 32.4983 23.7847 31.4802C23.8199 31.2682 23.7737 31.017 23.6876 30.8159C23.5311 30.4512 23.3175 30.1108 23.1094 29.7266H24.8857C24.6909 30.0873 24.5148 30.4387 24.3152 30.7768C24.1775 31.0099 24.1501 31.2369 24.2033 31.5022C24.4044 32.5148 24.5883 33.5297 24.7769 34.5447C24.7895 34.6104 24.8121 34.6863 24.791 34.7434C24.5422 35.4148 24.2863 36.0831 24.032 36.7522C24.0085 36.7498 23.985 36.7467 23.9615 36.7444L23.9607 36.7436Z" fill="white"/>
<path d="M29.6684 28.1488C29.4297 28.4782 29.4994 28.828 29.8218 28.9446C30.1019 29.0456 30.2819 28.8992 30.4376 28.6833C31.4463 27.2864 31.9456 25.7245 31.9659 23.8832C31.955 23.7322 31.9401 23.4591 31.9135 23.1875C31.4761 18.7247 27.3638 15.4897 22.9089 16.1017C17.0477 16.9077 14.0709 23.6586 17.4343 28.5213C17.5117 28.6332 17.5876 28.7513 17.6855 28.8437C17.8631 29.0119 18.0736 29.0299 18.2724 28.8844C18.468 28.7412 18.5267 28.5408 18.4226 28.3155C18.378 28.2192 18.3076 28.1347 18.2465 28.0471C17.1799 26.5102 16.7636 24.8082 17.0414 22.9637C17.6072 19.2005 20.9878 16.6182 24.7854 17.0172C28.9719 17.457 31.8564 21.6115 30.8172 25.7018C30.591 26.5915 30.2068 27.4054 29.6684 28.1488Z" fill="#272829"/>
<path d="M23.9891 19.7344C21.6134 19.7399 19.6672 21.6908 19.6719 24.0626C19.6766 26.4361 21.6282 28.3822 24.0009 28.3791C26.3735 28.376 28.3228 26.422 28.3189 24.0509C28.315 21.6783 26.3602 19.7297 23.9891 19.7344Z" fill="#272829"/>
</g>
</g>
<defs>
<clipPath id="clip0_780_14796">
<rect width="48" height="48" fill="white"/>
</clipPath>
</defs>
</svg>
