<svg width="48" height="43" viewBox="0 0 48 43" fill="none" xmlns="http://www.w3.org/2000/svg">
<path d="M47.68 21.2354C47.68 18.0769 43.7245 15.0834 37.66 13.2272C39.0595 7.04605 38.4375 2.1284 35.6968 0.553967C35.0651 0.184659 34.3265 0.00971582 33.5198 0.00971582V2.17699C33.9669 2.17699 34.3265 2.26447 34.6278 2.42968C35.9495 3.18771 36.5229 6.07417 36.0758 9.78673C35.969 10.7003 35.7941 11.6625 35.5802 12.644C33.6754 12.1775 31.5955 11.8179 29.4088 11.5847C28.0968 9.78673 26.7362 8.15402 25.3659 6.72532C28.5341 3.78054 31.5081 2.16728 33.5296 2.16728V0C30.8569 0 27.3581 1.90487 23.8205 5.20924C20.2829 1.9243 16.7843 0.0388732 14.1116 0.0388732V2.20615C16.1233 2.20615 19.107 3.8097 22.2753 6.7351C20.9147 8.16371 19.5541 9.78673 18.2615 11.5847C16.065 11.8179 13.9853 12.1775 12.0804 12.6538C11.8568 11.6819 11.6916 10.7392 11.575 9.83535C11.1182 6.1228 11.6819 3.23634 12.9939 2.46856C13.2855 2.29361 13.6645 2.21587 14.1116 2.21587V0.0485981C13.2952 0.0485981 12.5566 0.223532 11.9151 0.59284C9.18422 2.16728 8.57191 7.07521 9.98115 13.2369C3.93608 15.1029 0 18.0865 0 21.2354C0 24.394 3.95551 27.3873 10.02 29.2436C8.6205 35.4247 9.24253 40.3424 11.9832 41.9169C12.6149 42.2861 13.3535 42.4611 14.1699 42.4611C16.8426 42.4611 20.3412 40.5562 23.8789 37.2518C27.4165 40.5368 30.9152 42.4222 33.5879 42.4222C34.4043 42.4222 35.1429 42.2473 35.7843 41.8779C38.5153 40.3035 39.1276 35.3955 37.7183 29.2339C43.7439 27.3776 47.68 24.3843 47.68 21.2354ZM35.0263 14.753C34.6666 16.0067 34.2196 17.2993 33.7142 18.5919C33.3158 17.8144 32.8978 17.0369 32.4411 16.2594C31.994 15.4819 31.5178 14.7239 31.0415 13.9853C32.4216 14.1894 33.7531 14.442 35.0263 14.753ZM30.5751 25.1034C29.817 26.4155 29.0395 27.6595 28.2329 28.816C26.7848 28.9423 25.3172 29.0104 23.84 29.0104C22.3725 29.0104 20.9049 28.9423 19.4666 28.8257C18.6599 27.6692 17.8728 26.4349 17.1147 25.1326C16.3761 23.8595 15.7054 22.5669 15.0931 21.2646C15.6958 19.9623 16.3761 18.6599 17.1049 17.3868C17.863 16.0748 18.6405 14.8307 19.4472 13.6742C20.8952 13.5479 22.3628 13.4799 23.84 13.4799C25.3075 13.4799 26.7751 13.5479 28.2134 13.6645C29.0201 14.821 29.8073 16.0553 30.5653 17.3576C31.304 18.6307 31.9746 19.9233 32.5869 21.2256C31.9746 22.528 31.304 23.8303 30.5751 25.1034ZM33.7142 23.84C34.239 25.1423 34.6861 26.4447 35.0554 27.708C33.7822 28.0191 32.4411 28.2815 31.0513 28.4856C31.5275 27.7372 32.0037 26.9694 32.4508 26.1822C32.8978 25.4047 33.3158 24.6175 33.7142 23.84ZM23.8595 34.2099C22.9556 33.2768 22.0517 32.237 21.1576 31.0998C22.0324 31.1388 22.9264 31.1679 23.8303 31.1679C24.7439 31.1679 25.6477 31.1485 26.5321 31.0998C25.6574 32.237 24.7536 33.2768 23.8595 34.2099ZM16.6287 28.4856C15.2486 28.2815 13.9172 28.0287 12.644 27.7178C13.0036 26.464 13.4507 25.1714 13.9561 23.8788C14.3545 24.6564 14.7724 25.4339 15.2292 26.2114C15.686 26.9889 16.1525 27.747 16.6287 28.4856ZM23.8108 8.26087C24.7147 9.19389 25.6185 10.2338 26.5127 11.3709C25.638 11.3321 24.7439 11.3029 23.84 11.3029C22.9264 11.3029 22.0226 11.3223 21.1382 11.3709C22.0129 10.2338 22.9168 9.19389 23.8108 8.26087ZM16.619 13.9853C16.1428 14.7336 15.6666 15.5013 15.2195 16.2886C14.7724 17.066 14.3545 17.8436 13.9561 18.6211C13.4313 17.3188 12.9842 16.0165 12.6149 14.753C13.888 14.4518 15.2292 14.1894 16.619 13.9853ZM7.82357 26.1531C4.38315 24.6855 2.15755 22.7612 2.15755 21.2354C2.15755 19.7096 4.38315 17.7755 7.82357 16.3177C8.65938 15.9582 9.57295 15.6374 10.5157 15.3362C11.0696 17.241 11.7985 19.2236 12.7024 21.2548C11.8083 23.2763 11.089 25.2492 10.5448 27.1443C9.58263 26.8431 8.66909 26.5127 7.82357 26.1531ZM13.0522 40.0411C11.7305 39.283 11.1571 36.3966 11.6042 32.684C11.711 31.7705 11.886 30.8084 12.0998 29.8267C14.0046 30.2932 16.0845 30.6528 18.2712 30.8861C19.5833 32.684 20.9439 34.3168 22.3141 35.7454C19.1459 38.6902 16.172 40.3035 14.1504 40.3035C13.7131 40.2937 13.3438 40.2064 13.0522 40.0411ZM36.105 32.6355C36.5618 36.348 35.9982 39.2345 34.6861 40.0023C34.3945 40.1772 34.0155 40.2549 33.5684 40.2549C31.5567 40.2549 28.5731 38.6513 25.4047 35.7259C26.7653 34.2973 28.1259 32.6743 29.4185 30.8764C31.615 30.6431 33.6947 30.2835 35.5996 29.8073C35.8232 30.7889 35.9982 31.7316 36.105 32.6355ZM39.8467 26.1531C39.0109 26.5127 38.0974 26.8334 37.1547 27.1347C36.6007 25.2298 35.8717 23.2472 34.968 21.2159C35.8621 19.1944 36.5812 17.2216 37.1255 15.3264C38.0877 15.6277 39.0012 15.9582 39.8565 16.3177C43.2968 17.7853 45.5225 19.7096 45.5225 21.2354C45.5127 22.7612 43.2872 24.6952 39.8467 26.1531Z" fill="#61DAFB"/>
</svg>
