<svg width="48" height="48" viewBox="0 0 48 48" fill="none" xmlns="http://www.w3.org/2000/svg">
<path d="M13.8467 3C12.5506 3.00274 11.2819 3.73492 10.6295 4.85188L0.48172 22.3953C-0.160573 23.5153 -0.160573 24.9792 0.48172 26.0991L10.6295 43.6426C11.282 44.7595 12.5506 45.4919 13.8467 45.4945H34.1422C35.4383 45.4918 36.7069 44.7595 37.3594 43.6426L47.5072 26.0991C48.1495 24.9792 48.1494 23.5153 47.5072 22.3953L37.3594 4.85188C36.7069 3.73492 35.4383 3.00253 34.1422 3H13.8467ZM14.0309 13.2631C14.0588 13.2604 14.088 13.2604 14.116 13.2631H17.6166C17.7716 13.2663 17.9219 13.3554 17.9994 13.4893L23.9377 24.0211C23.9677 24.0731 23.9869 24.1311 23.9942 24.1907C24.0016 24.1311 24.0208 24.0731 24.0507 24.0211L29.9749 13.4893C30.0547 13.3514 30.2121 13.2618 30.3717 13.2631H33.8724C34.1824 13.2659 34.4145 13.6544 34.2693 13.9275L28.4726 24.2472L34.2693 34.5528C34.4283 34.8275 34.1904 35.2341 33.8724 35.2313H30.3717C30.2093 35.23 30.051 35.1342 29.9749 34.991L24.0507 24.4593C24.0208 24.4072 24.0016 24.3492 23.9942 24.2896C23.9869 24.3492 23.9677 24.4072 23.9377 24.4593L17.9994 34.991C17.9254 35.1301 17.7744 35.225 17.6166 35.2313H14.116C13.798 35.2341 13.5602 34.8275 13.7192 34.5528L19.5158 24.2472L13.7192 13.9275C13.5802 13.6784 13.7498 13.3163 14.0309 13.2631Z" fill="#3498DB"/>
</svg>
