<svg width="54" height="52" viewBox="0 0 54 52" fill="none" xmlns="http://www.w3.org/2000/svg">
<path fill-rule="evenodd" clip-rule="evenodd" d="M43.6776 43.7774L40.1765 51.0915L37.7671 41.9839L43.6776 43.7774ZM11.4399 43.7774L13.8235 51.0915L16.2329 41.9839L11.4399 43.7774Z" fill="#7F8082"/>
<path fill-rule="evenodd" clip-rule="evenodd" d="M0.314319 19.5996L0.3125 19.6023L5.28273 51.0916H13.825L13.1272 43.7775H17.5101L18.0683 51.0916H35.9642L36.5224 43.7775H40.8774L40.1796 51.0916H48.7775L53.6859 19.5996H0.314319Z" fill="url(#paint0_linear_348_1152)" stroke="#D6D6D6" stroke-width="0.161633" stroke-linejoin="round"/>
<path fill-rule="evenodd" clip-rule="evenodd" d="M12.5237 38.9571L15.0931 29.3306L14.9124 9.88916L10.0938 19.6013L12.5237 38.9571Z" fill="url(#paint1_radial_348_1152)"/>
<path fill-rule="evenodd" clip-rule="evenodd" d="M30.9755 7.98291H41.6236L41.4049 31.5179H30.1529L30.9755 7.98291ZM23.2734 7.99776L12.9019 8.00412L13.1476 31.4342H23.7069L23.2734 7.99776Z" fill="#293441"/>
<path fill-rule="evenodd" clip-rule="evenodd" d="M13.9756 29.3286L12.5239 38.9554H41.5611L39.8337 29.3974L13.9756 29.3286Z" fill="#2D3948"/>
<path fill-rule="evenodd" clip-rule="evenodd" d="M41.561 38.9571L39.0396 29.399L39.1343 9.82568L44.0128 19.5988L41.561 38.9571Z" fill="url(#paint2_linear_348_1152)"/>
<path fill-rule="evenodd" clip-rule="evenodd" d="M12.5459 38.9569L15.0916 29.3301L14.911 9.88867L10.0928 19.6018L12.5459 38.9569Z" fill="url(#paint3_linear_348_1152)"/>
<path fill-rule="evenodd" clip-rule="evenodd" d="M22.1851 13.4224L23.1438 33.8609H30.612L31.8152 13.4224H22.1851Z" fill="#2D3B48"/>
<path fill-rule="evenodd" clip-rule="evenodd" d="M53.6861 19.5996L41.4802 0.0756836H12.462L0.314453 19.5996H10.0943L14.8865 9.92522H22.7661L22.185 13.4221H31.8148L31.3056 9.8193H39.1542L44.0123 19.5996H53.6861Z" fill="url(#paint4_linear_348_1152)" stroke="#D6D6D6" stroke-width="0.161633" stroke-linejoin="round"/>
<path opacity="0.45" fill-rule="evenodd" clip-rule="evenodd" d="M31.3058 9.81934L39.221 9.82585L44.0125 19.5996L41.5607 38.9571H23.1436L32.6631 19.5996L31.3058 9.81934Z" fill="#363F49"/>
<path opacity="0.3" fill-rule="evenodd" clip-rule="evenodd" d="M32.6633 19.5996L23.1438 38.9571H12.524L10.0942 19.5998L32.6633 19.5996Z" fill="url(#paint5_linear_348_1152)"/>
<path opacity="0.2" fill-rule="evenodd" clip-rule="evenodd" d="M14.8862 9.92529H22.7659L22.1847 13.4222H31.8146L32.6628 19.5997H10.0938L14.8862 9.92529Z" fill="url(#paint6_linear_348_1152)"/>
<g opacity="0.8" filter="url(#filter0_f_348_1152)">
<path d="M34.9196 32.6053C35.6682 32.6053 36.2752 30.4535 36.2752 27.7992C36.2752 25.1449 35.6682 22.9932 34.9196 22.9932C34.1709 22.9932 33.564 25.1449 33.564 27.7992C33.564 30.4535 34.1709 32.6053 34.9196 32.6053Z" fill="#05F0FF"/>
</g>
<g filter="url(#filter1_f_348_1152)">
<path opacity="0.9" d="M34.9194 32.1255C35.5013 32.1255 35.973 30.2204 35.973 27.8704C35.973 25.5203 35.5013 23.6152 34.9194 23.6152C34.3375 23.6152 33.8657 25.5203 33.8657 27.8704C33.8657 30.2204 34.3375 32.1255 34.9194 32.1255Z" fill="white" stroke="#06EFFE" stroke-width="0.161678"/>
<path opacity="0.9" d="M34.9194 31.8172C35.5013 31.8172 35.973 30.0554 35.973 27.8822C35.973 25.709 35.5013 23.9473 34.9194 23.9473C34.3375 23.9473 33.8657 25.709 33.8657 27.8822C33.8657 30.0554 34.3375 31.8172 34.9194 31.8172Z" fill="#FEFFFF" stroke="#06EFFE" stroke-width="0.161573"/>
</g>
<g opacity="0.8" filter="url(#filter2_f_348_1152)">
<path d="M19.5856 33.2835C20.3343 33.2835 20.9412 31.1318 20.9412 28.4774C20.9412 25.8231 20.3343 23.6714 19.5856 23.6714C18.8369 23.6714 18.23 25.8231 18.23 28.4774C18.23 31.1318 18.8369 33.2835 19.5856 33.2835Z" fill="#05F0FF"/>
</g>
<g filter="url(#filter3_f_348_1152)">
<path opacity="0.9" d="M19.5854 32.8037C20.1673 32.8037 20.639 30.8986 20.639 28.5486C20.639 26.1986 20.1673 24.2935 19.5854 24.2935C19.0035 24.2935 18.5317 26.1986 18.5317 28.5486C18.5317 30.8986 19.0035 32.8037 19.5854 32.8037Z" fill="white" stroke="#06EFFE" stroke-width="0.161678"/>
<path opacity="0.9" d="M19.5854 32.4954C20.1673 32.4954 20.639 30.7337 20.639 28.5604C20.639 26.3872 20.1673 24.6255 19.5854 24.6255C19.0035 24.6255 18.5317 26.3872 18.5317 28.5604C18.5317 30.7337 19.0035 32.4954 19.5854 32.4954Z" fill="#FEFFFF" stroke="#06EFFE" stroke-width="0.161573"/>
</g>
<path d="M14.8862 9.92526H22.7659L22.1847 13.4221H31.8145L31.3054 9.81934L39.2206 9.82585L44.0121 19.5996L41.5603 38.9571H12.5236L10.0938 19.5998L14.8862 9.92526Z" stroke="#D6D6D6" stroke-width="0.161633" stroke-linejoin="round"/>
<g opacity="0.343">
<path fill-rule="evenodd" clip-rule="evenodd" d="M43.9325 19.5996H10.0698H43.9325Z" fill="white"/>
<path d="M43.9325 19.5996H10.0698" stroke="white" stroke-width="0.161633"/>
</g>
<defs>
<filter id="filter0_f_348_1152" x="32.5903" y="22.0195" width="4.6587" height="11.5596" filterUnits="userSpaceOnUse" color-interpolation-filters="sRGB">
<feFlood flood-opacity="0" result="BackgroundImageFix"/>
<feBlend mode="normal" in="SourceGraphic" in2="BackgroundImageFix" result="shape"/>
<feGaussianBlur stdDeviation="0.486819" result="effect1_foregroundBlur_348_1152"/>
</filter>
<filter id="filter1_f_348_1152" x="33.4481" y="23.1976" width="2.94224" height="9.34556" filterUnits="userSpaceOnUse" color-interpolation-filters="sRGB">
<feFlood flood-opacity="0" result="BackgroundImageFix"/>
<feBlend mode="normal" in="SourceGraphic" in2="BackgroundImageFix" result="shape"/>
<feGaussianBlur stdDeviation="0.1683" result="effect1_foregroundBlur_348_1152"/>
</filter>
<filter id="filter2_f_348_1152" x="17.2563" y="22.6977" width="4.6587" height="11.5596" filterUnits="userSpaceOnUse" color-interpolation-filters="sRGB">
<feFlood flood-opacity="0" result="BackgroundImageFix"/>
<feBlend mode="normal" in="SourceGraphic" in2="BackgroundImageFix" result="shape"/>
<feGaussianBlur stdDeviation="0.486819" result="effect1_foregroundBlur_348_1152"/>
</filter>
<filter id="filter3_f_348_1152" x="18.1141" y="23.8758" width="2.94224" height="9.34556" filterUnits="userSpaceOnUse" color-interpolation-filters="sRGB">
<feFlood flood-opacity="0" result="BackgroundImageFix"/>
<feBlend mode="normal" in="SourceGraphic" in2="BackgroundImageFix" result="shape"/>
<feGaussianBlur stdDeviation="0.1683" result="effect1_foregroundBlur_348_1152"/>
</filter>
<linearGradient id="paint0_linear_348_1152" x1="19845.7" y1="12357.8" x2="8938.56" y2="447.984" gradientUnits="userSpaceOnUse">
<stop stop-color="#ACACAC"/>
<stop offset="1" stop-color="#E9E9E9"/>
</linearGradient>
<radialGradient id="paint1_radial_348_1152" cx="0" cy="0" r="1" gradientUnits="userSpaceOnUse" gradientTransform="translate(58587.1 -15446.4) rotate(-85.4139) scale(937.876 2794.16)">
<stop stop-color="#25303B"/>
<stop offset="1" stop-color="#25303B" stop-opacity="0"/>
</radialGradient>
<linearGradient id="paint2_linear_348_1152" x1="1666.21" y1="9076.67" x2="-488.322" y2="4707.53" gradientUnits="userSpaceOnUse">
<stop stop-color="#24303A"/>
<stop offset="1" stop-color="#394958"/>
</linearGradient>
<linearGradient id="paint3_linear_348_1152" x1="688.464" y1="9057.06" x2="2828.74" y2="4685" gradientUnits="userSpaceOnUse">
<stop stop-color="#24303A"/>
<stop offset="1" stop-color="#394958"/>
</linearGradient>
<linearGradient id="paint4_linear_348_1152" x1="18836.5" y1="2092.84" x2="5761.75" y2="5678.35" gradientUnits="userSpaceOnUse">
<stop stop-color="#E5E5E5"/>
<stop offset="1" stop-color="white"/>
</linearGradient>
<linearGradient id="paint5_linear_348_1152" x1="4122.81" y1="3701.28" x2="4122.81" y2="6174.13" gradientUnits="userSpaceOnUse">
<stop stop-color="white"/>
<stop offset="0.5" stop-color="white" stop-opacity="0.532"/>
<stop offset="1" stop-color="white" stop-opacity="0"/>
</linearGradient>
<linearGradient id="paint6_linear_348_1152" x1="4388.36" y1="1849.93" x2="4388.36" y2="1232.28" gradientUnits="userSpaceOnUse">
<stop stop-color="white"/>
<stop offset="1" stop-color="white" stop-opacity="0"/>
</linearGradient>
</defs>
</svg>
