<svg width="44" height="60" viewBox="0 0 44 60" fill="none" xmlns="http://www.w3.org/2000/svg">
<g clip-path="url(#clip0_348_1189)">
<path d="M0 48.3757L0.362822 47.8676L17.526 15.3012L17.5623 14.9564L9.99638 0.744977C9.3625 -0.445487 7.578 -0.144497 7.36997 1.18814L0 48.3757Z" fill="#FFC24A"/>
<path d="M0.213867 47.9885L0.488331 47.4533L17.4717 15.2281L9.92474 0.958867C9.2975 -0.219125 7.7047 0.0811693 7.49886 1.39984L0.213867 47.9885Z" fill="#FFA712"/>
<g filter="url(#filter0_i_348_1189)">
<path d="M0.213867 47.9885L0.488331 47.4533L17.4717 15.2281L9.92474 0.958867C9.2975 -0.219125 7.7047 0.0811693 7.49886 1.39984L0.213867 47.9885Z" fill="black"/>
</g>
<path d="M23.0777 25.7061L28.7111 19.9366L23.0761 9.17934C22.5412 8.16109 21.0476 8.15815 20.5183 9.17934L17.5078 14.921V15.41L23.0777 25.7061Z" fill="#F4BD62"/>
<path d="M22.9775 25.4658L28.4542 19.8568L22.9775 9.42825C22.4574 8.43832 21.194 8.3346 20.6795 9.32739L17.653 15.158L17.5625 15.4561L22.9775 25.4658Z" fill="#FFA50E"/>
<g filter="url(#filter1_i_348_1189)">
<path d="M22.9775 25.4658L28.4542 19.8568L22.9775 9.42825C22.4574 8.43832 21.194 8.3346 20.6795 9.32739L17.653 15.158L17.5625 15.4561L22.9775 25.4658Z" fill="black"/>
</g>
<path d="M0 48.3756L0.164461 48.2103L0.762002 47.9674L22.724 26.087L23.0022 25.3296L17.5236 14.8896L0 48.3756Z" fill="#F6820C"/>
<path d="M23.7813 59.4104L43.6574 48.3253L37.9814 13.369C37.8039 12.2754 36.4621 11.843 35.6793 12.6272L0 48.3756L19.7621 59.4094C21.011 60.1068 22.5321 60.1071 23.7813 59.4104Z" fill="#FDE068"/>
<path d="M43.4796 48.2323L37.8468 13.5413C37.6706 12.4559 36.5548 12.0068 35.7779 12.7851L0.220703 48.3076L19.7657 59.2322C21.0052 59.9242 22.5147 59.9246 23.7544 59.2332L43.4796 48.2323Z" fill="#FCCA3F"/>
<path d="M23.7813 59.0838C22.5321 59.7805 21.011 59.7802 19.7621 59.0829L0.159172 48.2075L0 48.3756L19.7621 59.4094C21.011 60.1068 22.5321 60.1071 23.7813 59.4104L43.6574 48.3253L43.6087 48.0259L23.7813 59.0838Z" fill="#EEAB37"/>
</g>
<defs>
<filter id="filter0_i_348_1189" x="0.213867" y="0.222656" width="17.2578" height="47.7656" filterUnits="userSpaceOnUse" color-interpolation-filters="sRGB">
<feFlood flood-opacity="0" result="BackgroundImageFix"/>
<feBlend mode="normal" in="SourceGraphic" in2="BackgroundImageFix" result="shape"/>
<feColorMatrix in="SourceAlpha" type="matrix" values="0 0 0 0 0 0 0 0 0 0 0 0 0 0 0 0 0 0 127 0" result="hardAlpha"/>
<feOffset/>
<feGaussianBlur stdDeviation="17.5"/>
<feComposite in2="hardAlpha" operator="arithmetic" k2="-1" k3="1"/>
<feColorMatrix type="matrix" values="0 0 0 0 0 0 0 0 0 0 0 0 0 0 0 0 0 0 0.06 0"/>
<feBlend mode="normal" in2="shape" result="effect1_innerShadow_348_1189"/>
</filter>
<filter id="filter1_i_348_1189" x="17.5625" y="1.63232" width="11.8916" height="23.8335" filterUnits="userSpaceOnUse" color-interpolation-filters="sRGB">
<feFlood flood-opacity="0" result="BackgroundImageFix"/>
<feBlend mode="normal" in="SourceGraphic" in2="BackgroundImageFix" result="shape"/>
<feColorMatrix in="SourceAlpha" type="matrix" values="0 0 0 0 0 0 0 0 0 0 0 0 0 0 0 0 0 0 127 0" result="hardAlpha"/>
<feOffset dx="1" dy="-9"/>
<feGaussianBlur stdDeviation="3.5"/>
<feComposite in2="hardAlpha" operator="arithmetic" k2="-1" k3="1"/>
<feColorMatrix type="matrix" values="0 0 0 0 0 0 0 0 0 0 0 0 0 0 0 0 0 0 0.09 0"/>
<feBlend mode="normal" in2="shape" result="effect1_innerShadow_348_1189"/>
</filter>
<clipPath id="clip0_348_1189">
<rect width="43.7607" height="60" fill="white"/>
</clipPath>
</defs>
</svg>
