<svg width="60" height="60" viewBox="0 0 60 60" fill="none" xmlns="http://www.w3.org/2000/svg">
<path d="M19.1998 3.6001C11.2558 3.6001 4.7998 10.0561 4.7998 18.0001V42.0001C4.7998 49.9441 11.2558 56.4001 19.1998 56.4001H43.1998C51.1438 56.4001 57.5998 49.9441 57.5998 42.0001V18.0001C57.5998 10.0561 51.1438 3.6001 43.1998 3.6001H19.1998ZM15.1428 21.6845C15.9828 21.6845 16.6076 22.2847 16.6076 23.0767C16.6076 23.8567 15.9828 24.4571 15.1428 24.4571C14.2908 24.4571 13.6686 23.8567 13.6686 23.0767C13.6686 22.2847 14.2908 21.6845 15.1428 21.6845ZM27.6467 22.3688C32.0267 22.3688 34.7271 25.4273 34.7271 30.3353C34.7271 35.2313 32.0507 38.3157 27.6467 38.3157C23.2187 38.3157 20.5311 35.2433 20.5311 30.3353C20.5311 25.4153 23.2787 22.3688 27.6467 22.3688ZM43.1646 22.3688C46.2486 22.3688 48.5027 24.1673 48.6467 26.7353H46.3428C46.1148 25.3313 44.9031 24.4571 43.1271 24.4571C41.2551 24.4571 40.0193 25.3435 40.0193 26.7235C40.0193 27.8035 40.8117 28.4282 42.8037 28.8962L44.4725 29.304C47.6045 30.036 48.8881 31.2964 48.8881 33.5884C48.8881 36.5044 46.6313 38.3274 43.0193 38.3274C39.6473 38.3274 37.3795 36.5889 37.2115 33.8649H39.5529C39.7569 35.3049 41.1718 36.2274 43.1998 36.2274C45.0958 36.2274 46.4881 35.2444 46.4881 33.8884C46.4881 32.7364 45.6119 32.041 43.5959 31.561L41.6271 31.0923C38.8791 30.4443 37.6193 29.1126 37.6193 26.8806C37.6193 24.1686 39.8406 22.3688 43.1646 22.3688ZM27.6467 24.5649C24.7787 24.5649 22.9568 26.8073 22.9568 30.3353C22.9568 33.8513 24.7187 36.1196 27.6467 36.1196C30.5387 36.1196 32.3154 33.8513 32.3154 30.3353C32.3154 26.8073 30.5387 24.5649 27.6467 24.5649ZM14.0154 26.4728H16.2725V37.9571H14.0154V26.4728Z" fill="black"/>
</svg>
