<svg width="60" height="60" viewBox="0 0 60 60" fill="none" xmlns="http://www.w3.org/2000/svg">
<g clip-path="url(#clip0_348_1130)">
<path d="M29.9996 16.3267C27.2953 16.3267 24.6517 17.1286 22.4031 18.6311C20.1545 20.1335 18.4019 22.269 17.367 24.7675C16.3321 27.266 16.0613 30.0153 16.5889 32.6677C17.1165 35.3201 18.4188 37.7565 20.331 39.6687C22.2433 41.581 24.6797 42.8833 27.3321 43.4109C29.9845 43.9385 32.7338 43.6677 35.2323 42.6328C37.7308 41.5979 39.8663 39.8453 41.3687 37.5967C42.8712 35.3481 43.6731 32.7045 43.6731 30.0001C43.6688 26.375 42.2268 22.8996 39.6635 20.3363C37.1001 17.773 33.6248 16.331 29.9996 16.3267V16.3267Z" fill="#478AFF"/>
<path d="M49.6329 17.5387C53.0728 17.5387 55.8614 14.7501 55.8614 11.3101C55.8614 7.87017 53.0728 5.08154 49.6329 5.08154C46.1929 5.08154 43.4043 7.87017 43.4043 11.3101C43.4043 14.7501 46.1929 17.5387 49.6329 17.5387Z" fill="#478AFF"/>
<path d="M57.302 17.5717L57.0408 17.0003L56.6326 17.4738C55.6115 18.6324 54.3203 19.5213 52.8734 20.0615L52.4653 20.2085L52.6285 20.6166C54.8282 25.9066 55.1066 31.7997 53.4155 37.2735C51.7244 42.7473 48.1704 47.4563 43.3701 50.5837C38.5699 53.711 32.8264 55.0592 27.136 54.3945C21.4456 53.7297 16.1675 51.0939 12.2173 46.9443C8.26722 42.7948 5.89436 37.3933 5.51046 31.6771C5.12656 25.9609 6.75584 20.2907 10.1156 15.6502C13.4754 11.0097 18.3537 7.69177 23.9041 6.27207C29.4544 4.85237 35.3267 5.42049 40.502 7.87786L40.8857 8.06153L41.053 7.65336C41.663 6.23464 42.6135 4.98829 43.8204 4.02479L44.3102 3.61663L43.751 3.32683C39.5029 1.11892 34.7835 -0.0280135 29.9959 -0.0160202C23.5139 -0.0150894 17.2064 2.08498 12.0176 5.9699C6.82877 9.85482 3.03758 15.3156 1.21142 21.5351C-0.614737 27.7546 -0.377647 34.3982 1.88721 40.4717C4.15206 46.5451 8.32287 51.7218 13.7754 55.227C19.228 58.7321 25.6691 60.3772 32.1347 59.9161C38.6003 59.455 44.7427 56.9124 49.6426 52.6689C54.5425 48.4254 57.9364 42.7092 59.3164 36.3758C60.6964 30.0424 59.9882 23.4323 57.2979 17.535L57.302 17.5717Z" fill="#478AFF"/>
</g>
<defs>
<clipPath id="clip0_348_1130">
<rect width="60" height="60" fill="white"/>
</clipPath>
</defs>
</svg>
