<svg width="60" height="60" viewBox="0 0 60 60" fill="none" xmlns="http://www.w3.org/2000/svg">
<g clip-path="url(#clip0_348_1140)">
<path d="M60.0002 0H30.1252L1.59766 30H29.9477L30.0802 29.865L60.0002 0Z" fill="url(#paint0_linear_348_1140)"/>
<path d="M60 60.0002H0H60ZM30.08 29.8652L29.9475 30.0002H30.215L30.08 29.8652Z" fill="url(#paint1_linear_348_1140)"/>
<path d="M30.125 0H0V31.68V30H1.5975L30.125 0Z" fill="url(#paint2_linear_348_1140)"/>
<path d="M29.9475 30H1.5975L0 31.68V60L29.9475 30Z" fill="url(#paint3_linear_348_1140)"/>
<path d="M30.215 30H29.9475L0 60H60L30.215 30Z" fill="url(#paint4_linear_348_1140)"/>
<path d="M1.5975 30H0V31.68L1.5975 30Z" fill="url(#paint5_linear_348_1140)"/>
</g>
<defs>
<linearGradient id="paint0_linear_348_1140" x1="-10.7086" y1="54.8317" x2="45.1245" y2="-1.0014" gradientUnits="userSpaceOnUse">
<stop stop-color="#C757BC"/>
<stop offset="0.108" stop-color="#C757BC"/>
<stop offset="0.173" stop-color="#CD5CA9"/>
<stop offset="0.492" stop-color="#E8744F"/>
<stop offset="0.716" stop-color="#F88316"/>
<stop offset="0.823" stop-color="#FF8900"/>
<stop offset="1" stop-color="#FF8900"/>
</linearGradient>
<linearGradient id="paint1_linear_348_1140" x1="19.3823" y1="70.808" x2="46.5964" y2="43.594" gradientUnits="userSpaceOnUse">
<stop stop-color="#00AFFF"/>
<stop offset="0.296" stop-color="#00AFFF"/>
<stop offset="0.694" stop-color="#5282FF"/>
<stop offset="1" stop-color="#945DFF"/>
</linearGradient>
<linearGradient id="paint2_linear_348_1140" x1="-0.632795" y1="16.5817" x2="18.4582" y2="-2.50978" gradientUnits="userSpaceOnUse">
<stop stop-color="#00AFFF"/>
<stop offset="0.296" stop-color="#00AFFF"/>
<stop offset="0.694" stop-color="#5282FF"/>
<stop offset="1" stop-color="#945DFF"/>
</linearGradient>
<linearGradient id="paint3_linear_348_1140" x1="-10.3738" y1="55.1667" x2="45.4594" y2="-0.666408" gradientUnits="userSpaceOnUse">
<stop stop-color="#AD4CA4"/>
<stop offset="0.108" stop-color="#AD4CA4"/>
<stop offset="0.173" stop-color="#B25093"/>
<stop offset="0.492" stop-color="#CA6545"/>
<stop offset="0.716" stop-color="#D87213"/>
<stop offset="0.823" stop-color="#DE7700"/>
<stop offset="1" stop-color="#DE7700"/>
</linearGradient>
<linearGradient id="paint4_linear_348_1140" x1="19.3823" y1="70.8078" x2="46.5964" y2="43.5937" gradientUnits="userSpaceOnUse">
<stop stop-color="#0098DE"/>
<stop offset="0.296" stop-color="#0098DE"/>
<stop offset="0.694" stop-color="#4771DE"/>
<stop offset="1" stop-color="#8151DE"/>
</linearGradient>
<linearGradient id="paint5_linear_348_1140" x1="6.87017" y1="24.0845" x2="25.9612" y2="4.99299" gradientUnits="userSpaceOnUse">
<stop stop-color="#0098DE"/>
<stop offset="0.296" stop-color="#0098DE"/>
<stop offset="0.694" stop-color="#4771DE"/>
<stop offset="1" stop-color="#8151DE"/>
</linearGradient>
<clipPath id="clip0_348_1140">
<rect width="60" height="60" fill="white"/>
</clipPath>
</defs>
</svg>
