<svg width="56" height="60" viewBox="0 0 56 60" fill="none" xmlns="http://www.w3.org/2000/svg">
<path d="M52.1637 8.74334C51.9865 4.11839 47.9214 3.14828 47.9214 3.14828C47.9214 3.14828 33.8315 1.02506 27.659 0.254304C21.4846 -0.520535 21.8689 5.46291 21.8689 5.46291C21.8689 5.46291 23.271 49.0726 23.4166 54.4743C23.582 60.9098 29.5891 59.8741 29.5891 59.8741L50.8173 56.2031C54.6775 55.4304 54.8687 50.6102 54.8687 50.6102C54.8687 50.6102 52.3612 13.7924 52.1637 8.74334C52.3609 13.7924 51.9865 4.11839 52.1637 8.74334ZM47.4153 45.7883L31.6306 47.4233C31.6306 47.4233 27.0336 48.1244 26.9302 42.5395C26.8545 38.4246 25.9442 14.8541 25.9442 14.8541C25.9442 14.8541 25.6274 10.5319 30.3579 10.8863C35.1859 11.2448 46.7543 12.1253 46.7543 12.1253C46.7543 12.1253 49.8515 12.8623 49.9867 16.3917C50.1321 20.2279 51.4687 41.5317 51.4687 41.5317C51.4687 41.5317 51.8171 45.0332 47.4153 45.7883ZM8.7732 39.4343L5.85707 39.6416C5.85707 39.6416 2.91513 40.0399 2.84761 36.8212C2.79986 34.4491 2.50502 20.9846 2.50502 20.9846C2.50502 20.9846 2.3018 18.493 5.32739 18.6962C6.09427 18.7459 7.18158 18.8156 8.38266 18.8874C8.34094 16.6545 8.30524 14.7025 8.27728 13.2169C6.61212 13.0913 5.05449 12.9558 3.94115 12.8384C-0.0564805 12.3982 0.188466 15.7543 0.188466 15.7543C0.188466 15.7543 0.670832 40.4483 0.760509 43.4758C0.870186 47.0848 4.75599 46.4992 4.75599 46.4992L8.90481 46.0552C8.8689 44.2644 8.82094 41.982 8.77341 39.4345L8.7732 39.4343ZM20.3713 16.9891C20.3598 16.6979 20.3109 16.4094 20.2259 16.1306C18.9491 16.0272 15.7442 15.1926 14.7166 16.2782C14.0652 16.9614 14.3341 18.4014 14.35 19.2201L16.6745 19.3513C16.6745 19.3513 18.6562 19.7756 18.742 21.8072C18.8336 24.0223 18.8216 36.4287 18.8216 36.4287C18.8216 36.4287 19.0446 38.4524 16.2323 38.8808L14.7564 38.9904C14.7644 39.4304 14.7723 39.7851 14.7762 40.0479C14.8381 43.5855 18.6005 42.4522 20.9607 42.2229C21.1639 38.4704 20.8033 34.6044 20.7199 30.85C20.6181 26.2311 20.5803 21.6042 20.3713 16.9891C20.4986 19.8134 20.3573 16.6745 20.3713 16.9891Z" fill="black"/>
<path d="M21.592 43.6731L17.3395 44.0834C17.3395 44.0834 13.3739 44.6529 13.2883 40.0839C13.2266 36.7118 12.8281 17.5987 12.8281 17.5987C12.8281 17.5987 12.5533 14.0654 16.6225 14.3482C17.6681 14.42 19.1064 14.5374 20.672 14.663C20.5543 10.9961 20.4606 8.10386 20.4128 6.61418C18.2698 6.40493 16.25 6.19397 14.7563 6.02278C9.37821 5.41289 9.71714 10.1673 9.71714 10.1673C9.71714 10.1673 10.3565 45.2264 10.4819 49.5107C10.6272 54.6316 15.8597 53.809 15.8597 53.809L21.8808 53.038C21.821 51.0445 21.7195 47.6961 21.592 43.6729V43.6731ZM30.2442 12.3763C29.4915 12.3165 28.5771 12.3664 28.0195 12.954C27.4298 13.5714 27.4199 14.4477 27.4539 15.2404C29.587 15.4258 31.1346 15.563 31.1346 15.563C31.1346 15.563 33.7995 16.1628 33.921 19.0507C34.0444 22.1918 34.8075 39.2593 34.8075 39.2593C34.8075 39.2593 35.1062 42.1294 31.3178 42.7488L28.4496 43.0236C28.8303 47.5071 34.6281 45.615 37.5937 45.3084C37.2892 38.5662 36.3451 17.7144 36.132 12.8185C34.1699 12.6646 32.2073 12.5173 30.2442 12.3763C31.7361 12.4817 30.0969 12.3645 30.2442 12.3763Z" fill="black"/>
</svg>
