<svg width="53" height="60" viewBox="0 0 53 60" fill="none" xmlns="http://www.w3.org/2000/svg">
<g clip-path="url(#clip0_348_1118)">
<path d="M52.656 30.0053C52.656 26.5171 48.2877 23.2113 41.5903 21.1613C43.1358 14.3351 42.4489 8.90423 39.4222 7.16549C38.7246 6.75764 37.9089 6.56444 37.018 6.56444V8.9579C37.5118 8.9579 37.9089 9.0545 38.2416 9.23696C39.7013 10.0741 40.3345 13.2618 39.8408 17.3618C39.7228 18.3707 39.5296 19.4333 39.2934 20.5173C37.1898 20.0021 34.8929 19.605 32.478 19.3474C31.029 17.3618 29.5264 15.5587 28.0131 13.9809C31.512 10.7288 34.7963 8.94717 37.0288 8.94717V6.55371C34.0772 6.55371 30.2133 8.65738 26.3065 12.3066C22.3997 8.67884 18.5359 6.59664 15.5843 6.59664V8.9901C17.806 8.9901 21.101 10.761 24.6 13.9917C23.0974 15.5694 21.5948 17.3618 20.1673 19.3474C17.7416 19.605 15.4448 20.0021 13.3411 20.5281C13.0942 19.4548 12.9118 18.4137 12.783 17.4155C12.2785 13.3155 12.901 10.1278 14.35 9.27989C14.672 9.08669 15.0906 9.00083 15.5843 9.00083V6.60738C14.6827 6.60738 13.867 6.80057 13.1586 7.20842C10.1427 8.94717 9.46649 14.3673 11.0228 21.172C4.34686 23.2328 0 26.5278 0 30.0053C0 33.4935 4.36832 36.7992 11.0657 38.8492C9.52015 45.6754 10.2071 51.1063 13.2338 52.8451C13.9314 53.2529 14.7471 53.4461 15.6487 53.4461C18.6003 53.4461 22.4641 51.3424 26.3709 47.6932C30.2777 51.321 34.1416 53.4032 37.0932 53.4032C37.9948 53.4032 38.8105 53.21 39.5188 52.8021C42.5348 51.0634 43.211 45.6432 41.6547 38.8385C48.3091 36.7885 52.656 33.4828 52.656 30.0053ZM38.6817 22.8464C38.2845 24.2309 37.7908 25.6584 37.2327 27.0859C36.7927 26.2273 36.3311 25.3686 35.8267 24.51C35.333 23.6513 34.8071 22.8142 34.2811 21.9985C35.8052 22.2239 37.2756 22.5029 38.6817 22.8464ZM33.766 34.277C32.9288 35.726 32.0701 37.0998 31.1793 38.377C29.5801 38.5165 27.9594 38.5917 26.328 38.5917C24.7073 38.5917 23.0866 38.5165 21.4982 38.3877C20.6073 37.1105 19.738 35.7474 18.9008 34.3092C18.0851 32.9032 17.3445 31.4757 16.6683 30.0375C17.3338 28.5993 18.0851 27.161 18.89 25.755C19.7272 24.3061 20.5859 22.9322 21.4767 21.655C23.0759 21.5155 24.6966 21.4404 26.328 21.4404C27.9487 21.4404 29.5694 21.5155 31.1578 21.6443C32.0487 22.9215 32.9181 24.2846 33.7552 25.7228C34.5709 27.1288 35.3115 28.5563 35.9877 29.9945C35.3115 31.4328 34.5709 32.871 33.766 34.277ZM37.2327 32.8817C37.8123 34.3199 38.306 35.7582 38.7139 37.1534C37.3078 37.4969 35.8267 37.7867 34.2919 38.0121C34.8178 37.1856 35.3437 36.3377 35.8374 35.4684C36.3311 34.6097 36.7927 33.7403 37.2327 32.8817ZM26.3495 44.3338C25.3513 43.3034 24.3531 42.155 23.3657 40.8992C24.3317 40.9422 25.3191 40.9744 26.3173 40.9744C27.3262 40.9744 28.3243 40.9529 29.301 40.8992C28.3351 42.155 27.3369 43.3034 26.3495 44.3338ZM18.3641 38.0121C16.84 37.7867 15.3696 37.5076 13.9636 37.1642C14.3607 35.7796 14.8544 34.3521 15.4126 32.9246C15.8526 33.7833 16.3141 34.6419 16.8186 35.5006C17.323 36.3592 17.8382 37.1964 18.3641 38.0121ZM26.2958 15.6767C27.294 16.7071 28.2921 17.8555 29.2796 19.1113C28.3136 19.0684 27.3262 19.0362 26.328 19.0362C25.3191 19.0362 24.3209 19.0576 23.3442 19.1113C24.3102 17.8555 25.3084 16.7071 26.2958 15.6767ZM18.3534 21.9985C17.8275 22.8249 17.3016 23.6728 16.8078 24.5422C16.3141 25.4008 15.8526 26.2595 15.4126 27.1181C14.833 25.6799 14.3393 24.2417 13.9314 22.8464C15.3374 22.5137 16.8186 22.2239 18.3534 21.9985ZM8.64005 35.4362C4.84058 33.8155 2.38272 31.6903 2.38272 30.0053C2.38272 28.3202 4.84058 26.1843 8.64005 24.5744C9.56309 24.1773 10.572 23.8231 11.6131 23.4904C12.2249 25.594 13.0298 27.7835 14.028 30.0267C13.0406 32.2592 12.2463 34.438 11.6453 36.5309C10.5827 36.1982 9.57382 35.8333 8.64005 35.4362ZM14.4144 50.7736C12.9547 49.9364 12.3215 46.7487 12.8152 42.6487C12.9332 41.6398 13.1264 40.5773 13.3626 39.4932C15.4662 40.0084 17.7631 40.4055 20.178 40.6631C21.627 42.6487 23.1296 44.4519 24.6429 46.0296C21.144 49.2817 17.8597 51.0634 15.6272 51.0634C15.1442 51.0526 14.7364 50.9561 14.4144 50.7736ZM39.873 42.5951C40.3775 46.6951 39.755 49.8828 38.306 50.7307C37.984 50.9239 37.5654 51.0097 37.0717 51.0097C34.85 51.0097 31.555 49.2388 28.056 46.0081C29.5586 44.4304 31.0612 42.638 32.4887 40.6524C34.9144 40.3948 37.2112 39.9977 39.3149 39.4718C39.5618 40.5558 39.755 41.5969 39.873 42.5951ZM44.0052 35.4362C43.0822 35.8333 42.0733 36.1875 41.0322 36.5202C40.4204 34.4165 39.6154 32.227 38.6173 29.9838C39.6047 27.7513 40.3989 25.5726 41 23.4796C42.0626 23.8123 43.0714 24.1773 44.016 24.5744C47.8154 26.1951 50.2733 28.3202 50.2733 30.0053C50.2625 31.6903 47.8047 33.8262 44.0052 35.4362Z" fill="#61DAFB"/>
<path d="M26.3171 34.91C29.026 34.91 31.2221 32.714 31.2221 30.0051C31.2221 27.2961 29.026 25.1001 26.3171 25.1001C23.6081 25.1001 21.4121 27.2961 21.4121 30.0051C21.4121 32.714 23.6081 34.91 26.3171 34.91Z" fill="#61DAFB"/>
</g>
<defs>
<clipPath id="clip0_348_1118">
<rect width="52.656" height="60" fill="white"/>
</clipPath>
</defs>
</svg>
