<svg width="59" height="60" viewBox="0 0 59 60" fill="none" xmlns="http://www.w3.org/2000/svg">
<g clip-path="url(#clip0_348_1180)">
<path d="M43.0454 59.9198L20.6682 38.3197L7.42533 48.3457L0.116211 44.699L0.121805 15.2754L7.45365 11.6081L20.7067 21.6418L43.0292 0.0214844L58.3783 6.14077L58.3835 53.8238L43.0454 59.9198Z" fill="white"/>
<path d="M54.4946 8.75415L43.9294 4.54199L21.0181 26.7323L7.03167 16.1434L4.00575 17.6569L4.00098 42.3153L7.00114 43.8121L20.9753 33.2325L43.9433 55.403L54.4994 51.2076L54.4946 8.75415ZM8.53717 35.7715L8.52948 24.1979L15.0029 29.9457L8.53717 35.7715ZM29.2477 29.9414L42.1897 20.319L42.1948 39.6391L29.2477 29.9414Z" fill="#68217A"/>
</g>
<defs>
<clipPath id="clip0_348_1180">
<rect width="58.5" height="60" fill="white"/>
</clipPath>
</defs>
</svg>
