<svg width="60" height="54" viewBox="0 0 60 54" fill="none" xmlns="http://www.w3.org/2000/svg">
<g clip-path="url(#clip0_348_1185)">
<path d="M17.3124 0C15.6919 0.0034199 14.1057 0.918859 13.2899 2.31539L0.602289 24.2498C-0.200763 25.6501 -0.200763 27.4803 0.602289 28.8806L13.2899 50.815C14.1058 52.2115 15.6919 53.1272 17.3124 53.1304H42.6876C44.3081 53.127 45.8943 52.2115 46.7101 50.815L59.3977 28.8806C60.2008 27.4803 60.2007 25.6501 59.3977 24.2498L46.7101 2.31539C45.8943 0.918859 44.3081 0.00316342 42.6876 0H17.3124ZM17.5427 12.8319C17.5776 12.8285 17.6141 12.8285 17.6491 12.8319H22.0259C22.2197 12.8359 22.4076 12.9473 22.5044 13.1147L29.9291 26.2824C29.9665 26.3475 29.9906 26.42 29.9997 26.4945C30.0089 26.42 30.0329 26.3475 30.0703 26.2824L37.4773 13.1147C37.5771 12.9422 37.7739 12.8302 37.9734 12.8319H42.3503C42.7379 12.8353 43.0281 13.3211 42.8465 13.6626L35.599 26.5652L42.8465 39.4501C43.0453 39.7936 42.7479 40.3019 42.3503 40.2985H37.9734C37.7704 40.2968 37.5725 40.177 37.4773 39.998L30.0703 26.8303C30.0329 26.7652 30.0089 26.6927 29.9997 26.6182C29.9906 26.6927 29.9665 26.7652 29.9291 26.8303L22.5044 39.998C22.412 40.1719 22.2231 40.2906 22.0259 40.2985H17.6491C17.2515 40.3019 16.9542 39.7936 17.153 39.4501L24.4004 26.5652L17.153 13.6626C16.9792 13.3511 17.1912 12.8984 17.5427 12.8319Z" fill="#3498DB"/>
</g>
<defs>
<clipPath id="clip0_348_1185">
<rect width="60" height="53.1818" fill="white"/>
</clipPath>
</defs>
</svg>
