<?xml version="1.0" encoding="UTF-8"?> <!-- Generator: Adobe Illustrator 23.0.3, SVG Export Plug-In . SVG Version: 6.00 Build 0) --> <svg xmlns="http://www.w3.org/2000/svg" xmlns:xlink="http://www.w3.org/1999/xlink" version="1.1" id="Layer_1" x="0px" y="0px" viewBox="0 0 48 48" style="enable-background:new 0 0 48 48;" xml:space="preserve"> <style type="text/css"> .st0{fill:#FFFFFF;} </style> <g> <path d="M47.75,24.12C47.75,37.31,37.06,48,23.88,48C10.69,48,0,37.31,0,24.12C0,10.94,10.69,0.25,23.88,0.25 C37.06,0.25,47.75,10.94,47.75,24.12L47.75,24.12z"></path> <g> <path class="st0" d="M32.99,32.66c-0.45,0-0.91-0.03-1.36-0.1c-3.8-0.54-6.33-3.27-7.75-5.36c-1.43,2.1-3.96,4.82-7.76,5.36 c-0.45,0.06-0.91,0.1-1.36,0.1c-2.36,0-4.57-0.88-6.24-2.47c-1.68-1.61-2.61-3.76-2.61-6.07c0-2.3,0.93-4.46,2.61-6.07 c1.66-1.59,3.88-2.47,6.24-2.47c0.45,0,0.91,0.03,1.36,0.1c3.79,0.54,6.33,3.27,7.76,5.36c1.42-2.1,3.96-4.82,7.75-5.36 c0.45-0.06,0.91-0.1,1.36-0.1c2.36,0,4.58,0.88,6.24,2.47c1.68,1.61,2.61,3.76,2.61,6.07c0,2.3-0.92,4.46-2.61,6.07 C37.57,31.78,35.35,32.66,32.99,32.66 M25.56,24.12c0.74,1.41,2.93,4.93,6.5,5.45c0.31,0.04,0.63,0.07,0.93,0.07 c3.21,0,5.82-2.47,5.82-5.51s-2.61-5.51-5.83-5.51c-0.31,0-0.62,0.02-0.93,0.07C28.49,19.19,26.3,22.71,25.56,24.12 M14.76,18.61 c-3.21,0-5.83,2.47-5.83,5.51s2.61,5.51,5.82,5.51c0.31,0,0.62-0.02,0.94-0.07c3.57-0.51,5.76-4.03,6.5-5.45 c-0.74-1.41-2.93-4.94-6.5-5.45C15.38,18.63,15.07,18.61,14.76,18.61"></path> <path class="st0" d="M12.32,23.29h5.32V25h-5.32V23.29z M35.38,23.29h-1.8v-1.8h-1.72v1.8h-1.8V25h1.8v1.8h1.72V25h1.8V23.29z"></path> </g> </g> </svg> 