<?xml version="1.0" encoding="UTF-8"?> <!-- Generator: Adobe Illustrator 23.0.3, SVG Export Plug-In . SVG Version: 6.00 Build 0) --> <svg xmlns="http://www.w3.org/2000/svg" xmlns:xlink="http://www.w3.org/1999/xlink" version="1.1" id="Layer_1" x="0px" y="0px" viewBox="0 0 48 48" style="enable-background:new 0 0 48 48;" xml:space="preserve"> <g> <path d="M13.21,30.76H5.85c0.97,3.34,2.78,6.34,5.43,8.99c4.22,4.22,9.3,6.33,15.23,6.33c1.19,0,2.34-0.09,3.45-0.26 c4.47-0.67,8.38-2.7,11.74-6.07c2.66-2.65,4.49-5.64,5.47-8.99L13.21,30.76L13.21,30.76z M9.15,20.76H5.31 c-0.14,0.86-0.24,1.72-0.28,2.59H48c-0.04-0.88-0.14-1.75-0.28-2.59 M5.03,25.76c0.04,0.88,0.14,1.75,0.28,2.59h42.41 c0.14-0.86,0.24-1.72,0.28-2.59 M47.17,18.36c-0.98-3.35-2.8-6.36-5.47-9.03C38.36,5.98,34.46,3.98,30,3.3 c-1.15-0.17-2.32-0.26-3.49-0.26c-5.94,0-11.01,2.1-15.23,6.29C8.63,11.99,6.82,15,5.85,18.36"></path> <path d="M3.75,24.56c0-11.35,8.53-20.78,19.62-22.44c-0.28-0.01-0.55-0.02-0.83-0.02C10.09,2.1,0,12.15,0,24.56 s10.09,22.46,22.54,22.46c0.28,0,0.56-0.01,0.83-0.02C12.27,45.34,3.75,35.91,3.75,24.56L3.75,24.56z"></path> </g> </svg> 