<?xml version="1.0" encoding="UTF-8"?> <!-- Generator: Adobe Illustrator 23.0.3, SVG Export Plug-In . SVG Version: 6.00 Build 0) --> <svg xmlns="http://www.w3.org/2000/svg" xmlns:xlink="http://www.w3.org/1999/xlink" version="1.1" id="Layer_1" x="0px" y="0px" viewBox="0 0 48 48" style="enable-background:new 0 0 48 48;" xml:space="preserve"> <g> <path d="M0,15.27c0.44-0.25,0.83-0.18,1.27,0.08c1.44,0.86,2.9,1.69,4.35,2.53c0.35,0.2,0.54,0.5,0.5,0.92 c-0.04,0.35-0.24,0.61-0.57,0.69c-0.21,0.05-0.5,0.06-0.68-0.04C3.23,18.52,1.62,17.57,0,16.63C0,16.17,0,15.72,0,15.27z"></path> <path d="M40.96,27.11c0,11.59-7.7,19.25-17.11,19.23C14.31,46.33,6.6,38.58,6.74,28.93c0.13-9.12,7.37-16.7,16.77-16.85 c4.8-0.07,9.02,1.6,12.43,5.04C39.29,20.49,40.94,24.6,40.96,27.11z M20.97,38.92c0.1-0.02,0.18-0.04,0.26-0.06 c1.98-0.53,3.86-1.29,5.67-2.24c0.46-0.24,0.82-0.55,1.13-0.97c2.5-3.5,4.36-7.28,5.22-11.53c0.04-0.21-0.01-0.34-0.16-0.48 c-1.85-1.68-3.91-3.01-6.19-4.02c-0.12-0.05-0.28-0.06-0.41-0.02c-2.19,0.56-4.24,1.45-6.21,2.53c-0.13,0.07-0.26,0.18-0.34,0.3 c-0.52,0.74-1.06,1.47-1.54,2.24c-1.87,2.96-3.24,6.12-3.97,9.56c-0.06,0.27-0.01,0.45,0.2,0.64c1.81,1.64,3.84,2.94,6.06,3.94 C20.78,38.86,20.88,38.89,20.97,38.92z M37.49,29.77c-0.03,0-0.07,0.01-0.1,0.01c-0.02,0.02-0.04,0.05-0.06,0.07 c-1.85,2.74-4.23,4.94-6.99,6.73c-1.03,0.67-2,1.37-2.71,2.38c-0.03,0.04-0.07,0.08-0.1,0.11c-0.43,0.46-0.86,0.91-1.34,1.43 c0.68,0.05,1.3,0.12,1.92,0.15c1.76,0.1,3.48-0.09,5.13-0.71c1.84-0.68,3.32-1.8,4.21-3.6c0.71-1.44,0.83-2.96,0.55-4.52 C37.88,31.13,37.67,30.45,37.49,29.77z M10.24,28.72c0.09-0.11,0.14-0.19,0.2-0.27c0.72-0.89,1.39-1.82,2.16-2.65 c1.76-1.91,3.81-3.45,6.03-4.78c0.16-0.1,0.31-0.23,0.44-0.38c0.44-0.5,0.87-1.02,1.32-1.52c0.33-0.37,0.68-0.73,1.05-1.12 c-0.3-0.04-0.56-0.07-0.81-0.1c-2-0.22-3.97-0.11-5.89,0.52c-3.24,1.05-5.22,3.55-5.22,6.75C9.53,26.38,9.8,27.55,10.24,28.72z M27.05,14.2c-1.98-0.39-4-0.49-6.03-0.09c-2.02,0.39-3.89,1.14-5.59,2.28c0.17-0.01,0.33-0.04,0.49-0.07 c2.33-0.42,4.65-0.32,6.97,0.15c0.16,0.03,0.36-0.02,0.5-0.11c0.45-0.28,0.87-0.63,1.33-0.9C25.48,15.02,26.27,14.62,27.05,14.2z M32.18,42.12c-0.57,0.08-1.14,0.18-1.71,0.24c-1.93,0.18-3.85,0.03-5.74-0.36c-0.14-0.03-0.32,0.03-0.44,0.11 c-0.94,0.57-1.87,1.16-2.81,1.72c-0.29,0.17-0.61,0.27-1,0.44C24.72,45.1,28.6,44.42,32.18,42.12z M16.1,25.08 c-0.02-0.02-0.04-0.04-0.07-0.06c-0.29,0.25-0.59,0.5-0.88,0.76c-1.5,1.35-2.81,2.86-3.84,4.61c-0.11,0.19-0.13,0.34,0.01,0.53 c0.45,0.62,0.88,1.24,1.32,1.86c0.07,0.09,0.15,0.17,0.25,0.28C13.59,30.21,14.68,27.58,16.1,25.08z M34.86,25.48 c-0.48,1.39-0.9,2.76-1.44,4.09c-0.54,1.34-1.21,2.62-1.81,3.9c0.01-0.01,0.06-0.04,0.11-0.08c1.66-1.4,3.15-2.96,4.33-4.8 c0.48-0.75,0.47-0.75-0.02-1.51C36.01,27.05,36,27.03,35.98,27C35.6,26.49,35.22,25.97,34.86,25.48z M22.29,41.34 c-0.41-0.15-0.77-0.31-1.14-0.41c-0.24-0.07-0.51-0.11-0.74-0.06c-1.51,0.3-3.03,0.45-4.57,0.38c-0.31-0.01-0.61-0.05-0.94-0.07 c0.02,0.07,0.02,0.11,0.04,0.14c0.5,0.86,1.22,1.41,2.2,1.6c1.02,0.2,1.98-0.03,2.93-0.39C20.85,42.23,21.57,41.82,22.29,41.34z M25.36,17.13c0.47,0.17,0.87,0.33,1.28,0.47c0.13,0.04,0.28,0.05,0.41,0.03c1.45-0.28,2.9-0.5,4.38-0.42 c0.44,0.03,0.89,0.04,1.35,0.07c-0.02-0.05-0.02-0.08-0.04-0.1c-0.71-1.2-1.75-1.77-3.16-1.68C28.02,15.6,26.7,16.29,25.36,17.13z M35.33,19.85c-0.01,0.05-0.02,0.08-0.02,0.11c-0.04,1.04-0.08,2.08-0.1,3.11c0,0.12,0.08,0.27,0.16,0.37 c0.38,0.45,0.77,0.88,1.15,1.33c0.28,0.34,0.54,0.7,0.82,1.07C38.26,23.26,37.46,20.91,35.33,19.85z M10.34,32.7 c-0.92,2.54-0.01,4.99,1.98,5.84c0.06-1.06,0.12-2.13,0.17-3.21c0-0.07-0.05-0.15-0.09-0.21C11.71,34.31,11.02,33.51,10.34,32.7z M29.78,19.04c1.25,0.86,2.5,1.72,3.82,2.63c-0.05-0.76-0.1-1.48-0.13-2.2c-0.01-0.25-0.13-0.32-0.36-0.36 c-1.06-0.18-2.13-0.18-3.2-0.09C29.86,19.01,29.81,19.03,29.78,19.04z M17.89,39.44c-1.25-0.86-2.51-1.73-3.81-2.63 c0.03,0.69,0.07,1.36,0.09,2.02c0.01,0.33,0.12,0.52,0.48,0.51c0.17,0,0.34,0.06,0.52,0.07C16.08,39.52,17,39.54,17.89,39.44z M39.18,29.35c0.03,0,0.06,0,0.09,0c-0.07-0.88-0.15-1.77-0.22-2.65c-0.03,0-0.06,0-0.1,0c-0.14,0.34-0.29,0.68-0.42,1.02 c-0.02,0.07-0.01,0.16,0.01,0.23C38.75,28.41,38.96,28.88,39.18,29.35z M8.52,29.15c-0.03,0-0.05,0-0.08,0 c0.07,0.85,0.14,1.7,0.21,2.54c0.03,0,0.07,0,0.1,0c0.13-0.31,0.27-0.62,0.39-0.93c0.03-0.07,0.02-0.17-0.01-0.23 C8.93,30.07,8.72,29.61,8.52,29.15z"></path> <path d="M38.08,6.19c-0.06,0.16-0.11,0.33-0.19,0.48c-0.87,1.53-1.75,3.05-2.64,4.57c-0.27,0.47-0.78,0.61-1.22,0.36 c-0.44-0.25-0.58-0.76-0.31-1.23c0.89-1.55,1.79-3.1,2.68-4.65c0.22-0.37,0.61-0.52,1.01-0.4C37.79,5.42,38.05,5.78,38.08,6.19z"></path> <path d="M9.31,6.19C9.34,5.77,9.6,5.44,9.98,5.33c0.41-0.12,0.77,0.03,1,0.42c0.64,1.09,1.27,2.19,1.9,3.29 c0.26,0.45,0.52,0.89,0.77,1.34c0.26,0.47,0.14,0.99-0.28,1.24c-0.45,0.26-0.96,0.12-1.24-0.37c-0.89-1.53-1.77-3.06-2.65-4.6 C9.39,6.5,9.36,6.34,9.31,6.19z"></path> <path d="M48,15.96c-0.01,0.34-0.17,0.59-0.46,0.75c-1.55,0.9-3.1,1.8-4.65,2.69c-0.43,0.24-0.94,0.1-1.19-0.31 c-0.26-0.43-0.14-0.95,0.31-1.21c1.56-0.92,3.13-1.82,4.71-2.72C47.29,14.85,48.01,15.3,48,15.96z"></path> <path d="M24.57,5.24c0,0.87,0,1.75,0,2.62c0,0.58-0.36,0.98-0.88,0.97c-0.51,0-0.86-0.39-0.86-0.96c0-1.75,0-3.5,0-5.25 c0-0.56,0.38-0.97,0.9-0.97c0.47,0,0.84,0.41,0.84,0.95C24.57,3.49,24.57,4.36,24.57,5.24z"></path> </g> </svg> 