<?xml version="1.0" encoding="UTF-8"?> <!-- Generator: Adobe Illustrator 23.0.3, SVG Export Plug-In . SVG Version: 6.00 Build 0) --> <svg xmlns="http://www.w3.org/2000/svg" xmlns:xlink="http://www.w3.org/1999/xlink" version="1.1" id="Layer_1" x="0px" y="0px" viewBox="0 0 48 48" style="enable-background:new 0 0 48 48;" xml:space="preserve"> <style type="text/css"> .st0{opacity:0.98;enable-background:new ;} .st1{opacity:0.98;fill:#FFFFFF;enable-background:new ;} </style> <g> <path class="st0" d="M23.93-0.2l20.86,12.07v24.08L23.93,48L3.07,35.96v-24.1L23.93-0.2z"></path> <path class="st1" d="M4.69,26.73v8.06c0,0.13,0.07,0.26,0.19,0.32l18.86,10.87c0.12,0.07,0.26,0.07,0.37,0l18.84-10.87 c0.12-0.07,0.2-0.19,0.2-0.32V13.04c0-0.13-0.08-0.26-0.2-0.32L24.12,1.85C24.06,1.82,24,1.8,23.94,1.8 c-0.07,0-0.14,0.02-0.19,0.05L4.88,12.72c-0.12,0.07-0.19,0.19-0.19,0.32v12.03V26.73z M23.93,2.6L42.4,13.26v11.8H35 c-1.31,0-2.43,1.09-2.43,2.4v0.32c-4.45-0.03-5.77-1.18-7.43-2.63c-1.38-1.2-3.1-2.52-6.56-3.07c0.65-0.65,1.03-1.38,1.38-2.01 c0.37-0.67,0.71-1.21,1.25-1.58c0.42-0.29,1.13-0.46,2.06-0.52v0.3c0,1.31,1.02,2.38,2.33,2.38h9.48c1.31,0,2.48-1.07,2.48-2.38 v-2.33c0-1.31-1.17-2.37-2.48-2.37H25.6c-1.31,0-2.33,1.06-2.33,2.37v0.42c-1.22,0.06-2.27,0.3-2.98,0.79 c-0.88,0.6-1.36,1.42-1.75,2.13c-0.39,0.71-0.71,1.32-1.18,1.75c-0.4,0.37-0.96,0.62-1.86,0.73c-0.12-1.2-1.16-2.07-2.4-2.08H5.46 v-6.43L23.93,2.6z M25.6,15.22h9.48c0.44,0,0.77,0.28,0.77,0.73v2.33c0,0.44-0.33,0.74-0.77,0.74H25.6c-0.44,0-0.8-0.3-0.8-0.74 v-2.33C24.79,15.51,25.16,15.22,25.6,15.22L25.6,15.22z M5.46,21.18h7.65c0.44,0,0.77,0.37,0.77,0.81v2.33 c0,0.44-0.33,0.73-0.77,0.73H5.46V21.18z M15.55,23.43c5.34,0.08,6.82,1.43,8.53,2.93c1.65,1.44,3.68,2.95,8.49,3.02v0.4 c0,1.31,1.12,2.34,2.43,2.34h7.4v2.44L23.93,45.23L5.46,34.57v-7.88h7.65c1.31,0,2.44-1.06,2.44-2.37L15.55,23.43z M35,26.69h7.4 v3.8H35c-0.44,0-0.79-0.3-0.79-0.75v-2.29C34.21,27.02,34.56,26.69,35,26.69L35,26.69z"></path> </g> </svg> 