<?xml version="1.0" encoding="UTF-8"?> <!-- Generator: Adobe Illustrator 23.0.3, SVG Export Plug-In . SVG Version: 6.00 Build 0) --> <svg xmlns="http://www.w3.org/2000/svg" xmlns:xlink="http://www.w3.org/1999/xlink" version="1.1" id="Layer_1" x="0px" y="0px" viewBox="0 0 48 48" style="enable-background:new 0 0 48 48;" xml:space="preserve"> <path id="surface1" d="M39.2,21.79l-0.37-0.55c0-4.43-2.03-6.09-4.25-7.38c0.74-0.19,1.48-0.37,1.67-1.29 c1.29-0.37,1.48-0.92,1.66-1.48c0.37-0.19,1.29-0.73,1.29-1.85c0.55-0.37,0.92-0.92,0.74-1.66c0.55-0.74,0.73-1.3,0.55-1.85 c0.74-0.92,0.37-1.48,0.18-2.03c0.56-1.11,0-2.22-1.48-2.03c-0.55-0.92-2.03-0.73-2.22-0.73c-0.18-0.37-0.55-0.55-1.48-0.37 C34.59,0,33.85,0,33.12,0.37c-0.92-0.74-1.48-0.18-2.03,0c-1.12-0.37-1.3,0.19-1.85,0.37c-1.11-0.18-1.48,0.38-2.03,0.92h-0.55 c-1.67,0.92-2.59,3.15-2.96,4.07c-0.37-1.11-1.11-3.15-2.96-4.07h-0.55c-0.56-0.55-0.92-1.1-2.03-0.92 C17.61,0.56,17.42,0,16.31,0.37C15.94,0.19,15.58,0,15.02,0c-0.18,0-0.37,0.19-0.74,0.37C13.54,0,12.81,0,12.25,0.56 c-0.92-0.18-1.29,0.18-1.48,0.37c-0.19,0-1.66-0.19-2.22,0.73C6.89,1.48,6.35,2.58,6.89,3.7C6.53,4.25,6.35,4.62,7.08,5.73 C6.71,6.1,6.89,6.83,7.64,7.39c-0.18,0.73,0,1.29,0.74,1.85c-0.18,0.92,0.92,1.48,1.11,1.85c0.18,0.55,0.37,1.11,1.66,1.48 c0.18,0.92,0.92,1.1,1.67,1.29c-2.4,1.29-4.25,3.14-4.25,7.38L8.2,21.79c-2.59,1.66-4.99,6.83-1.3,11.08 c0.19,1.29,0.56,2.22,0.92,3.33c0.56,4.24,4.07,6.27,4.99,6.46c1.29,1.1,2.77,2.03,4.79,2.77c1.85,1.85,3.88,2.58,5.91,2.58 s4.07-0.73,5.91-2.58c2.03-0.74,3.5-1.67,4.79-2.77c0.92-0.19,4.44-2.22,4.98-6.46c0.37-1.11,0.74-2.03,1.11-3.33 C44.37,28.61,41.97,23.44,39.2,21.79z M36.81,21.04c-0.19,1.85-9.05-6.08-7.57-6.27C33.48,14.04,36.99,16.43,36.81,21.04z M27.02,2.77c0,0.37,0.18,0.55,0.18,0.73c0.56-0.55,0.92-1.1,1.48-1.66c0,0.37-0.18,0.55,0.19,0.92c0.37-0.55,0.73-0.92,1.48-1.29 c-0.37,0.56,0,0.74,0.18,0.92c0.56-0.37,0.92-0.74,1.85-1.11C32.2,1.65,31.83,1.83,32.2,2.2c0.55-0.37,0.92-0.56,2.21-0.92 c-0.19,0.37-0.74,0.55-0.56,0.92c0.55-0.18,1.29-0.37,2.03-0.56C35.5,2.02,35.14,2.2,35.5,2.38c0.74-0.19,1.48-0.56,2.4-0.19 l-0.55,0.56h2.22c-0.38,0.55-0.74,0.92-0.92,1.66h0.92c-0.38,1.11-1.11,1.3-1.3,1.67c0.19,0.18,0.56,0.18,1.11,0 c-0.37,0.73-0.92,1.1-1.48,1.66c0.18,0.19,0.37,0.19,0.92,0c-0.56,0.56-1.1,0.92-1.66,1.48c0.18,0.19,0.56,0.19,0.92,0.19 c-0.55,0.55-1.48,0.92-2.21,1.29c0.18,0.37,0.55,0.18,0.73,0.18c-0.55,0.38-1.48,0.74-2.22,0.92c0.18,0.19,0.37,0.38,0.74,0.38 c-0.92,0.55-2.22,0.18-2.58,0.55c0,0.19,0.37,0.38,0.56,0.56c-1.48,0-5.36,0-6.09-2.95c1.48-1.67,4.06-3.51,8.67-5.91 c-3.5,1.3-6.83,2.77-9.42,4.99C23.33,7.94,25.35,4.25,27.02,2.77z M23.7,13.48c2.22,0,4.98,1.66,4.98,3.33 c0,1.47-2.03,2.58-4.98,2.58s-4.98-1.48-4.98-2.77S21.12,13.48,23.7,13.48z M12.43,12.37c0.38,0,0.56-0.18,0.74-0.37 c-0.92-0.37-1.85-0.55-2.4-1.11c0.37,0,0.55,0,0.92-0.18c-0.73-0.37-1.48-0.74-2.22-1.29c0.37,0,0.74,0,0.92-0.19 C9.85,8.86,9.3,8.31,8.74,7.94h0.92C9.12,7.2,8.56,6.83,8.19,6.09c0.37,0.18,0.73,0.18,1.1,0c-0.18-0.37-1.1-0.55-1.48-1.48h0.92 C8.56,3.88,8.19,3.33,8.01,2.96h2.22L9.66,2.22c0.92-0.18,1.85,0,2.4,0.19c0.37-0.19,0-0.56-0.37-0.74 c0.73,0.19,1.48,0.38,2.03,0.56c0.37-0.37-0.19-0.55-0.56-0.92c1.29,0.19,1.66,0.56,2.21,0.92c0.37-0.37,0-0.55-0.19-0.92 c0.92,0.37,1.3,0.74,1.85,1.11c0.19-0.19,0.38-0.37,0.19-0.92c0.37,0.37,0.92,0.73,1.29,1.29c0.37-0.19,0.18-0.55,0.18-0.92 c0.56,0.55,1.1,1.11,1.48,1.66c0.18,0,0.18-0.37,0.18-0.73c1.48,1.48,3.69,5.17,0.56,6.65C18.33,7.23,15,5.57,11.49,4.46 c4.62,2.4,7.21,4.25,8.68,5.91c-0.74,2.95-4.62,3.14-6.09,2.95c0.37-0.18,0.55-0.37,0.55-0.55C14.47,12.56,13.36,12.74,12.43,12.37 L12.43,12.37z M17.6,14.58c1.48,0.19-7.38,8.13-7.56,6.28C9.85,16.43,13.36,13.85,17.6,14.58z M8.19,32.12 c-2.22-1.85-2.96-6.83,1.1-9.23C11.7,22.16,10.22,32.86,8.19,32.12z M16.68,41.35c-1.29,0.74-4.25,0.38-6.27-2.58 c-1.48-2.58-1.29-5.17-0.19-5.91c1.48-0.92,3.88,0.37,5.54,2.4C17.24,36.92,17.97,40.25,16.68,41.35z M14.28,30.1 c-2.22-1.48-2.58-4.8-0.92-7.57c1.85-2.58,4.99-3.69,7.2-2.21s2.58,4.8,0.92,7.57C19.82,30.65,16.5,31.57,14.28,30.1L14.28,30.1z M23.7,46.52c-2.77,0.19-5.35-2.21-5.35-2.95c0-1.11,3.32-2.03,5.54-2.03c2.21-0.19,5.16,0.73,5.16,1.85 C29.05,44.12,26.28,46.52,23.7,46.52L23.7,46.52z M29.24,34.71c0,2.77-2.4,4.98-5.35,4.98c-2.96,0-5.54-2.22-5.54-4.98 s2.39-4.98,5.35-4.98C26.84,29.73,29.24,31.94,29.24,34.71z M25.91,27.69c-1.85-2.58-1.29-6.09,0.92-7.57 c2.21-1.47,5.54-0.55,7.2,2.22s1.29,6.08-0.92,7.56C30.89,31.2,27.58,30.28,25.91,27.69L25.91,27.69z M36.99,38.77 c-2.4,3.32-5.54,3.32-6.64,2.4c-1.3-1.11-0.38-4.8,1.47-6.83c1.85-2.22,4.07-3.69,5.36-2.59C38.1,33.05,38.65,36.56,36.99,38.77 L36.99,38.77z M38.65,31.94c-2.03,0.92-3.69-9.78-1.11-9.23C41.6,24.92,40.87,30.09,38.65,31.94z"></path> </svg> 