<?xml version="1.0" encoding="UTF-8"?> <svg xmlns="http://www.w3.org/2000/svg" xmlns:xlink="http://www.w3.org/1999/xlink" width="60pt" height="60pt" viewBox="0 0 60 60" version="1.1"><g id="surface1"><path style=" stroke:none;fill-rule:nonzero;fill:rgb(0%,0%,0%);fill-opacity:1;" d="M 29.914062 59.761719 C 13.449219 59.824219 0.0507812 46.460938 0 29.914062 C -0.0507812 13.425781 13.273438 0.0625 29.835938 0 C 46.3125 -0.0625 59.6875 13.289062 59.75 29.851562 C 59.8125 46.324219 46.476562 59.6875 29.914062 59.761719 Z M 22.511719 10.5625 C 22.5 10.851562 22.476562 11.101562 22.476562 11.363281 C 22.476562 19.886719 22.460938 28.425781 22.476562 36.949219 C 22.476562 39.050781 23.050781 41.023438 24.085938 42.835938 C 26.773438 47.539062 31.726562 49.886719 37.148438 49.085938 C 38.949219 48.824219 40.699219 48.363281 42.4375 47.5625 C 41.476562 45.351562 40.523438 43.1875 39.625 41.101562 C 38.300781 41.398438 37.085938 41.773438 35.851562 41.9375 C 32.386719 42.363281 29.835938 40.039062 29.835938 36.550781 C 29.835938 33.113281 29.835938 29.6875 29.835938 26.25 C 29.835938 25.976562 29.863281 25.6875 29.875 25.324219 C 32.363281 25.324219 34.789062 25.324219 37.210938 25.324219 C 37.210938 22.824219 37.210938 20.425781 37.210938 17.9375 C 34.726562 17.9375 32.3125 17.9375 29.8125 17.9375 C 29.8125 15.4375 29.8125 13.023438 29.8125 10.5625 C 27.351562 10.5625 24.960938 10.5625 22.511719 10.5625 Z M 22.511719 10.5625 "></path></g></svg> 