<?xml version="1.0" encoding="UTF-8"?> <!-- Generator: Adobe Illustrator 23.0.3, SVG Export Plug-In . SVG Version: 6.00 Build 0) --> <svg xmlns="http://www.w3.org/2000/svg" xmlns:xlink="http://www.w3.org/1999/xlink" version="1.1" id="Layer_1" x="0px" y="0px" viewBox="0 0 48 48" style="enable-background:new 0 0 48 48;" xml:space="preserve"> <style type="text/css"> .st0{fill:none;stroke:#000000;stroke-width:1.89;stroke-linecap:round;} .st1{fill:none;stroke:#000000;stroke-width:1.89;} </style> <symbol id="A_2" viewBox="-28.88 -32.02 57.75 64.05"> <g> <path class="st0" d="M23.31,16.14c0-1.27,1.03-2.31,2.31-2.31s2.31,1.03,2.31,2.31s-1.03,2.31-2.31,2.31S23.31,17.42,23.31,16.14z M-27.92,16.14c0-1.27,1.02-2.3,2.29-2.31h0.01c1.27,0,2.31,1.03,2.31,2.31s-1.03,2.31-2.31,2.31c-1.27,0-2.3-1.02-2.31-2.29 C-27.92,16.15-27.92,16.15-27.92,16.14z M-2.31-28.73c-0.03-1.27,0.98-2.33,2.26-2.35c1.27-0.03,2.33,0.98,2.35,2.26 c0,0.03,0,0.06,0,0.1c0.03,1.27-0.98,2.33-2.26,2.35c-1.27,0.03-2.33-0.98-2.35-2.26C-2.31-28.66-2.31-28.69-2.31-28.73z"></path> <path class="st1" d="M-7.52-24.24l-18.09,10.8V1.6 M25.61,10.57v-24L10.1-22.69 M-19.11,19.9L0,30.93l14.08-8.13 M25.61,10.57 v1.73 M-19.11,19.9l-3.17-1.88 M-7.52-24.24l4.23-2.52"></path> </g> <path d="M-13.09-2.37h8.47v16.94h4.02V-8.35h-12.49V-2.37z M0.46-8.35v22.91h4.02V-2.37h8.61v-5.98H0.46z"></path> </symbol> <use xlink:href="#A_2" width="57.75" height="64.05" id="XMLID_2_" x="-28.88" y="-32.02" transform="matrix(0.7432 0 0 0.7432 24.5497 23.9571)" style="overflow:visible;"></use> </svg> 