<svg width="60" height="36" viewBox="0 0 60 36" fill="none" xmlns="http://www.w3.org/2000/svg">
<g clip-path="url(#clip0_37_17988)">
<path d="M16.9029 13.0296C16.9029 13.7679 16.9827 14.3665 17.1224 14.8055C17.282 15.2444 17.4815 15.7233 17.7609 16.2421C17.8607 16.4017 17.9006 16.5614 17.9006 16.701C17.9006 16.9006 17.7809 17.1001 17.5215 17.2996L16.2644 18.1377C16.0848 18.2574 15.9052 18.3173 15.7456 18.3173C15.5461 18.3173 15.3465 18.2175 15.147 18.0379C14.8676 17.7386 14.6282 17.4194 14.4287 17.1001C14.2291 16.7609 14.0296 16.3818 13.8101 15.9228C12.2537 17.7586 10.2983 18.6764 7.94381 18.6764C6.26772 18.6764 4.93084 18.1975 3.95312 17.2398C2.9754 16.282 2.47656 15.005 2.47656 13.4087C2.47656 11.7127 3.07517 10.3359 4.29233 9.2983C5.50949 8.26073 7.12571 7.74194 9.18092 7.74194C9.85934 7.74194 10.5577 7.8018 11.296 7.90156C12.0343 8.00133 12.7925 8.16096 13.5906 8.34054V6.88394C13.5906 5.36748 13.2714 4.30994 12.6528 3.69139C12.0143 3.07283 10.9368 2.77353 9.40041 2.77353C8.70204 2.77353 7.98371 2.85334 7.24543 3.03292C6.50716 3.2125 5.78883 3.43199 5.09046 3.71134C4.77121 3.85101 4.53177 3.93083 4.39209 3.97074C4.25242 4.01064 4.15265 4.0306 4.07284 4.0306C3.79349 4.0306 3.65382 3.83106 3.65382 3.41204V2.43432C3.65382 2.11506 3.69372 1.87562 3.79349 1.73595C3.89326 1.59628 4.07284 1.4566 4.35219 1.31693C5.05056 0.957765 5.8886 0.658464 6.86632 0.419022C7.84404 0.159628 8.88162 0.0399069 9.97906 0.0399069C12.3535 0.0399069 14.0895 0.57865 15.2069 1.65614C16.3043 2.73362 16.863 4.3698 16.863 6.56468V13.0296H16.9029ZM8.8018 16.0625C9.46027 16.0625 10.1387 15.9428 10.857 15.7034C11.5753 15.4639 12.2138 15.0249 12.7526 14.4263C13.0718 14.0472 13.3113 13.6282 13.431 13.1493C13.5507 12.6704 13.6305 12.0918 13.6305 11.4134V10.5753C13.0519 10.4357 12.4333 10.3159 11.7948 10.2361C11.1563 10.1563 10.5378 10.1164 9.9192 10.1164C8.58232 10.1164 7.6046 10.3758 6.94613 10.9145C6.28767 11.4533 5.96841 12.2115 5.96841 13.2092C5.96841 14.147 6.20786 14.8454 6.70669 15.3242C7.18557 15.8231 7.88394 16.0625 8.8018 16.0625V16.0625ZM24.8244 18.2175C24.4653 18.2175 24.2258 18.1576 24.0662 18.018C23.9066 17.8982 23.7669 17.6189 23.6472 17.2398L18.9581 1.81576C18.8384 1.41669 18.7785 1.1573 18.7785 1.01763C18.7785 0.69837 18.9382 0.51879 19.2574 0.51879H21.2128C21.592 0.51879 21.8514 0.57865 21.991 0.718324C22.1507 0.838045 22.2704 1.11739 22.3901 1.49651L25.7423 14.7057L28.855 1.49651C28.9548 1.09744 29.0745 0.838045 29.2341 0.718324C29.3938 0.598603 29.6731 0.51879 30.0323 0.51879H31.6285C32.0077 0.51879 32.267 0.57865 32.4267 0.718324C32.5863 0.838045 32.726 1.11739 32.8058 1.49651L35.9584 14.8653L39.4104 1.49651C39.5301 1.09744 39.6698 0.838045 39.8095 0.718324C39.9691 0.598603 40.2285 0.51879 40.5876 0.51879H42.4433C42.7626 0.51879 42.9421 0.678417 42.9421 1.01763C42.9421 1.11739 42.9222 1.21716 42.9022 1.33688C42.8823 1.4566 42.8424 1.61623 42.7626 1.83572L37.9538 17.2597C37.8341 17.6588 37.6944 17.9182 37.5348 18.0379C37.3751 18.1576 37.1157 18.2374 36.7765 18.2374H35.0605C34.6814 18.2374 34.422 18.1776 34.2624 18.0379C34.1028 17.8982 33.9631 17.6388 33.8833 17.2398L30.7905 4.3698L27.7177 17.2198C27.6179 17.6189 27.4982 17.8783 27.3385 18.018C27.1789 18.1576 26.8996 18.2175 26.5404 18.2175H24.8244V18.2175ZM50.4646 18.7562C49.427 18.7562 48.3894 18.6365 47.3918 18.3971C46.3941 18.1576 45.6159 17.8982 45.0971 17.5989C44.7779 17.4194 44.5584 17.2198 44.4786 17.0402C44.3987 16.8607 44.3588 16.6611 44.3588 16.4815V15.4639C44.3588 15.0449 44.5185 14.8454 44.8178 14.8454C44.9375 14.8454 45.0572 14.8653 45.1769 14.9052C45.2966 14.9451 45.4762 15.0249 45.6758 15.1048C46.3542 15.4041 47.0925 15.6435 47.8706 15.8031C48.6688 15.9628 49.447 16.0426 50.2451 16.0426C51.5022 16.0426 52.4799 15.8231 53.1583 15.3841C53.8367 14.9451 54.1959 14.3066 54.1959 13.4885C54.1959 12.9298 54.0163 12.4709 53.6571 12.0918C53.298 11.7127 52.6196 11.3735 51.6418 11.0542L48.7486 10.1563C47.292 9.69737 46.2145 9.01896 45.556 8.12105C44.8976 7.2431 44.5584 6.26538 44.5584 5.2278C44.5584 4.38976 44.7379 3.65148 45.0971 3.01297C45.4563 2.37446 45.9352 1.81576 46.5338 1.37679C47.1324 0.917858 47.8108 0.57865 48.6089 0.339209C49.4071 0.0997672 50.2451 0 51.1231 0C51.562 0 52.021 0.0199534 52.4599 0.0798138C52.9189 0.139674 53.3379 0.219488 53.7569 0.299302C54.156 0.399069 54.5351 0.498836 54.8943 0.618557C55.2534 0.738277 55.5328 0.857998 55.7323 0.977719C56.0116 1.13735 56.2112 1.29697 56.3309 1.47655C56.4506 1.63618 56.5105 1.85567 56.5105 2.13502V3.07283C56.5105 3.49185 56.3509 3.71134 56.0515 3.71134C55.8919 3.71134 55.6325 3.63153 55.2933 3.4719C54.156 2.95311 52.879 2.69371 51.4623 2.69371C50.3249 2.69371 49.427 2.8733 48.8085 3.25241C48.1899 3.63153 47.8706 4.21018 47.8706 5.02827C47.8706 5.58696 48.0702 6.06585 48.4692 6.44496C48.8683 6.82408 49.6066 7.20319 50.6641 7.5424L53.4975 8.44031C54.9342 8.89924 55.9717 9.53775 56.5903 10.3558C57.2089 11.1739 57.5082 12.1117 57.5082 13.1493C57.5082 14.0073 57.3286 14.7855 56.9894 15.4639C56.6302 16.1423 56.1513 16.7409 55.5328 17.2198C54.9142 17.7187 54.1759 18.0778 53.3179 18.3372C52.42 18.6166 51.4822 18.7562 50.4646 18.7562V18.7562Z" fill="#252F3E"/>
<path d="M54.232 28.4547C47.6674 33.3034 38.1296 35.8773 29.9287 35.8773C18.4356 35.8773 8.07972 31.6273 0.257971 24.5637C-0.360586 24.005 0.19811 23.2468 0.936388 23.6858C9.39665 28.5943 19.8323 31.5674 30.6271 31.5674C37.9101 31.5674 45.9115 30.0509 53.2743 26.9382C54.3717 26.4394 55.3095 27.6565 54.232 28.4547Z" fill="#FF9900"/>
<path d="M56.9657 25.3418C56.1276 24.2643 51.4186 24.823 49.2836 25.0824C48.6451 25.1622 48.5453 24.6035 49.124 24.1845C52.8752 21.5506 59.0408 22.3089 59.7592 23.1868C60.4775 24.0847 59.5596 30.2503 56.0478 33.2035C55.5091 33.6624 54.9903 33.4229 55.2297 32.8243C56.0279 30.8489 57.8037 26.3993 56.9657 25.3418V25.3418Z" fill="#FF9900"/>
</g>
<defs>
<clipPath id="clip0_37_17988">
<rect width="60" height="35.88" fill="white"/>
</clipPath>
</defs>
</svg>
