<svg width="60" height="48" viewBox="0 0 60 48" fill="none" xmlns="http://www.w3.org/2000/svg">
<path d="M9.45767 3.9893L32.2939 17.2146L51.5406 3.9893H9.45767ZM36.1324 19.4368L42.3642 23.0473L51.1027 9.15071L36.1324 19.4368ZM8.0466 7.79714L19.4968 26.0073L28.6422 19.7244L8.0466 7.79714ZM45.8502 25.0653L55.9596 30.9198V8.98907L45.8502 25.0653ZM4.04037 8.98907V36.6276L16.1756 28.289L4.04037 8.98907ZM21.631 29.4016L30 42.7092L40.233 26.4367L32.4797 21.9466L21.631 29.4016ZM29.999 47C28.6914 47 27.4872 46.2771 26.6938 45.0158V45.0148L18.3097 31.6834L5.64728 40.3849C4.36176 41.2684 2.96174 41.435 1.81179 40.841C0.659837 40.247 0 39.0194 0 37.4715V4.96903C0 3.03734 1.12182 1.35952 2.75685 0.538452C3.256 0.225099 3.98011 0.000991624 5.02862 0H5.02963H5.03364H54.9664H54.9704H54.9714C55.9486 0.000991624 56.6466 0.203283 57.1457 0.489862C58.833 1.29308 60 2.99867 60 4.96903V31.4275C60 32.9417 59.3522 34.1773 58.2214 34.8179C57.0895 35.4565 55.6804 35.3841 54.3587 34.6186L43.718 28.4556L33.3052 45.0148C32.5118 46.2771 31.3076 47 29.999 47Z" fill="url(#paint0_linear_54_32632)"/>
<defs>
<linearGradient id="paint0_linear_54_32632" x1="0" y1="0" x2="4563.26" y2="5825.44" gradientUnits="userSpaceOnUse">
<stop stop-color="#7D58FF"/>
<stop offset="1" stop-color="#FF007D"/>
</linearGradient>
</defs>
</svg>
