<svg width="60" height="60" viewBox="0 0 60 60" fill="none" xmlns="http://www.w3.org/2000/svg">
<g clip-path="url(#clip0_54_32626)">
<path d="M30.0038 60V48.375C42.3188 48.375 51.8775 36.1875 47.1488 23.2162C46.28 20.8359 44.9013 18.6743 43.1092 16.8828C41.3171 15.0914 39.155 13.7135 36.7744 12.8456C23.8144 8.15433 11.6025 17.6737 11.6025 29.9831H0C0 10.3649 18.9825 -4.93316 39.5625 1.49246C48.5625 4.31434 55.7213 11.4543 58.5094 20.4299C64.9406 41.0362 49.665 60.0056 30.0038 60.0056V60Z" fill="#0080FF"/>
<path d="M18.4688 48.4069V36.8475H30.0338V48.4069H18.4688ZM9.55687 57.3132V48.4069H18.4688V57.3132H9.55687ZM9.55687 48.4069H2.1075V40.9632H9.55687V48.4069Z" fill="#0080FF"/>
</g>
<defs>
<clipPath id="clip0_54_32626">
<rect width="60" height="60" fill="white"/>
</clipPath>
</defs>
</svg>
