<svg width="60" height="54" viewBox="0 0 60 54" fill="none" xmlns="http://www.w3.org/2000/svg">
<g clip-path="url(#clip0_54_32604)">
<path d="M19.1151 44.6443L8.58238 26.4016L19.1151 8.15881H40.1797L50.7124 26.4016L40.1797 44.6443H19.1151Z" fill="#CAC9C2"/>
<path d="M29.9992 34.7287C25.4724 34.7287 21.7895 31.0457 21.7895 26.519C21.7895 21.9923 25.4724 18.3093 29.9992 18.3093C34.5259 18.3093 38.2088 21.9923 38.2088 26.519C38.2088 31.0457 34.5259 34.7287 29.9992 34.7287Z" fill="white"/>
<path d="M46.5152 2.04293C45.8698 0.925031 44.2854 0.010376 42.9944 0.010376H17.0391C15.7482 0.010376 14.1638 0.925031 13.5185 2.04293L5.9344 15.1791C5.87486 16.0278 6.03061 16.9143 6.40466 17.5621L11.5384 26.3394L20.7029 10.5068H49.6693C50.3545 10.5068 51.1215 10.7662 51.7879 11.1751L46.5152 2.04293Z" fill="#5072AA"/>
<path d="M6.26409 14.6042L5.93225 15.1792C5.87263 16.0278 6.02847 16.9143 6.40251 17.5621L11.5363 26.3395L14.2675 21.6209L6.26409 14.6042Z" fill="#4D6796"/>
<path d="M17.7081 6.75877C16.8347 6.75877 16.124 6.04813 16.124 5.17476C16.124 4.30131 16.8347 3.59082 17.7081 3.59082C18.5816 3.59082 19.292 4.30131 19.292 5.17476C19.292 6.04813 18.5816 6.75877 17.7081 6.75877Z" fill="white"/>
<path d="M43.6631 5.17471C43.6631 5.98479 43.0065 6.64141 42.1965 6.64141C41.3865 6.64141 40.7297 5.98479 40.7297 5.17471C40.7297 4.36463 41.3865 3.70801 42.1965 3.70801C43.0065 3.70801 43.6631 4.36463 43.6631 5.17471Z" fill="white"/>
<path d="M59.4931 24.5213L51.7879 11.1751C51.1215 10.7662 50.3545 10.5068 49.6693 10.5068H39.2237L48.2557 26.4268L33.956 51.6909C33.6414 52.2356 33.1032 52.7313 32.4852 53.097H42.9945C44.2855 53.097 45.8698 52.1824 46.5152 51.0646L59.4931 28.5865C60.1386 27.4686 60.1386 25.6393 59.4931 24.5213Z" fill="#CC4232"/>
<path d="M52.1357 11.7737L51.7903 11.1751C51.1241 10.7662 50.3573 10.5068 49.6719 10.5068H39.2263L41.9454 15.2993L52.1357 11.7737Z" fill="#B23F33"/>
<path d="M42.1965 49.2145C41.323 49.2145 40.6125 48.5039 40.6125 47.6304C40.6125 46.757 41.323 46.0465 42.1965 46.0465C43.0699 46.0465 43.7805 46.757 43.7805 47.6304C43.7805 48.5039 43.0699 49.2145 42.1965 49.2145Z" fill="white"/>
<path d="M54.5235 28.1029C53.6501 28.1029 52.9395 27.3924 52.9395 26.519C52.9395 25.6456 53.6501 24.9349 54.5235 24.9349C55.397 24.9349 56.1074 25.6456 56.1074 26.519C56.1074 27.3924 55.397 28.1029 54.5235 28.1029Z" fill="white"/>
<path d="M20.9026 42.3491L6.40465 17.562C6.03061 16.9142 5.87486 16.0277 5.9344 15.1791L0.540614 24.5213C-0.104808 25.6393 -0.104808 27.4686 0.540614 28.5865L13.5185 51.0646C14.1638 52.1824 15.7482 53.097 17.0391 53.097H32.4852C33.1032 52.7313 33.6414 52.2356 33.956 51.6908L39.2432 42.3491H20.9026Z" fill="#ECB02A"/>
<path d="M31.6072 53.097H32.5054C33.1235 52.7313 33.6614 52.2356 33.976 51.6909L39.2635 42.3491H33.6328L31.6072 53.097Z" fill="#C79732"/>
<path d="M17.7081 49.2145C16.8347 49.2145 16.124 48.5039 16.124 47.6304C16.124 46.757 16.8347 46.0465 17.7081 46.0465C18.5816 46.0465 19.292 46.757 19.292 47.6304C19.292 48.5039 18.5816 49.2145 17.7081 49.2145Z" fill="white"/>
<path d="M5.35895 28.1029C4.48558 28.1029 3.77494 27.3924 3.77494 26.519C3.77494 25.6456 4.48558 24.9349 5.35895 24.9349C6.2324 24.9349 6.94297 25.6456 6.94297 26.519C6.94297 27.3924 6.2324 28.1029 5.35895 28.1029Z" fill="white"/>
</g>
<defs>
<clipPath id="clip0_54_32604">
<rect width="60" height="53.2031" fill="white"/>
</clipPath>
</defs>
</svg>
