<svg xmlns="http://www.w3.org/2000/svg" id="Layer_1" enable-background="new 0 0 128 128" height="32" viewBox="0 0 128 128" width="32"><path d="m124 48.4h-12.8c-6.7-20.4-26-34.2-47.2-34.2-22.1 0-40.8 14.6-47.2 34.2h-12.8c-1 0-1.8.8-1.8 1.8v27.7c0 1 .8 1.8 1.8 1.8h12.8c6.5 19.5 25 34.2 47.2 34.2 22.6 0 40.9-15 47.2-34.2h12.8c1 0 1.8-.8 1.8-1.8v-27.7c0-1-.8-1.8-1.8-1.8zm-16.5 0h-25.7c-.4-3.6-1-7.1-1.7-10.2 6-1.2 11.7-3.3 16.9-6.4 4.7 4.7 8.3 10.4 10.5 16.6zm-43.5-30.6c4.6 0 9 6.9 11.9 17.7-4 .5-7.9.8-11.9.8s-7.9-.3-11.9-.9c2.9-10.7 7.3-17.6 11.9-17.6zm-15.3 17c-5.3-1-10.4-2.9-15.1-5.5 6.4-5.6 14.3-9.4 22.7-10.9-3.1 3.5-5.7 9.2-7.6 16.4zm23.1-16.4c8.4 1.5 16.3 5.2 22.7 10.9-4.7 2.6-9.8 4.5-15.1 5.5-2-7.2-4.6-12.9-7.6-16.4zm-7.8 21.4c4.2 0 8.5-.3 12.7-1 .7 3 1.2 6.2 1.6 9.6h-28.6c.4-3.4 1-6.6 1.6-9.6 4.2.7 8.5 1 12.7 1zm-33.1-8c5.2 3.1 11 5.3 16.9 6.4-.7 3.2-1.3 6.6-1.7 10.2h-25.6c2.2-6.2 5.8-11.9 10.4-16.6zm-25.1 20.1h74.5 10.5v24.2h-85zm58.2 58.4c-4.6 0-9-6.9-11.9-17.7 7.9-1.2 15.8-1.2 23.7 0-2.8 10.7-7.2 17.7-11.8 17.7zm15.3-17.1c5.3 1 10.4 2.9 15.1 5.5-6.4 5.6-14.3 9.4-22.7 10.9 3.1-3.5 5.7-9.2 7.6-16.4zm-23.1 16.4c-8.4-1.5-16.3-5.2-22.7-10.9 4.7-2.6 9.8-4.5 15.1-5.5 2 7.2 4.6 12.9 7.6 16.4zm7.8-21.4c-4.2 0-8.5.3-12.7 1-.7-3-1.2-6.2-1.6-9.6h28.6c-.4 3.4-1 6.6-1.6 9.6-4.2-.7-8.5-1-12.7-1zm-43.5-8.6h25.7c.4 3.6 1 7.1 1.7 10.2-6 1.2-11.7 3.3-17 6.4-4.6-4.7-8.2-10.4-10.4-16.6zm76.6 16.6c-5.2-3.1-11-5.3-16.9-6.4.7-3.2 1.3-6.6 1.7-10.2h25.7c-2.3 6.2-5.9 11.9-10.5 16.6zm25.2-20.1h-27.9v-24.2h15.6 12.3z"/><path d="m33.2 56.3c-.9-.3-1.9.3-2.1 1.2l-1.9 6.9-2.8-7.1c-.4-.9-1.4-1.3-2.3-1-.5.2-.8.5-1 1l-2.8 7.1-1.9-6.9c-.3-.9-1.2-1.5-2.1-1.2s-1.5 1.2-1.2 2.1l3.3 12c.3.9 1.2 1.5 2.2 1.2.5-.1 1-.5 1.2-1l3.1-7.9 3.1 7.9c.3.7.9 1.1 1.6 1.1h.1c.8 0 1.4-.6 1.6-1.3l3.3-12c.1-.9-.5-1.8-1.4-2.1z"/><path d="m56.8 56.3c-.9-.3-1.9.3-2.1 1.2l-1.9 6.9-2.8-7.1c-.4-.9-1.4-1.3-2.3-1-.5.2-.8.5-1 1l-2.8 7.1-1.9-6.9c-.3-.9-1.2-1.5-2.1-1.2s-1.5 1.2-1.2 2.1l3.3 12c.3.9 1.2 1.5 2.2 1.2.5-.1 1-.5 1.2-1l3.1-7.9 3.1 7.9c.3.7.9 1.1 1.6 1.1h.1c.8 0 1.4-.6 1.6-1.3l3.3-12c.1-.9-.5-1.8-1.4-2.1z"/><path d="m80.3 56.3c-.9-.3-1.9.3-2.1 1.2l-1.9 6.9-2.8-7.1c-.4-.9-1.4-1.3-2.3-1-.5.2-.8.5-1 1l-2.8 7.1-1.9-6.9c-.3-.9-1.2-1.5-2.1-1.2s-1.5 1.2-1.2 2.1l3.3 12c.2.7.8 1.2 1.6 1.3.8 0 1.4-.4 1.7-1.1l3.1-7.9 3.1 7.9c.3.7.9 1.1 1.6 1.1h.1c.8 0 1.4-.6 1.6-1.3l3.3-12c.2-.9-.3-1.8-1.3-2.1z"/><path d="m106.5 55c-4 0-7.3 3.3-7.3 7.3s3.3 7.3 7.3 7.3c1.3 0 2.7-.4 3.8-1.1l4.3 4.3c.7.7 1.8.7 2.5 0s.7-1.8 0-2.5l-4.3-4.3c2.1-3.4 1-7.9-2.4-10-1.3-.7-2.6-1-3.9-1zm-3.9 7.3c0-2.1 1.7-3.8 3.8-3.8s3.8 1.7 3.8 3.8-1.7 3.8-3.8 3.8c-2 0-3.7-1.7-3.8-3.8z"/></svg>