<svg xmlns="http://www.w3.org/2000/svg" xmlns:svg="http://www.w3.org/2000/svg" version="1.1" id="svg4701" xml:space="preserve" width="32" height="32" viewBox="0 0 682.66669 682.66669"><defs id="defs4705"><clipPath clipPathUnits="userSpaceOnUse" id="clipPath4719"><path d="M 0,512 H 512 V 0 H 0 Z" id="path4717"/></clipPath></defs><g id="g4707" transform="matrix(1.3333333,0,0,-1.3333333,0,682.66667)"><g id="g4709" transform="translate(359.3096,210.9199)"><path d="M 0,0 V 75.79" style="fill:none;stroke:#000000;stroke-width:15;stroke-linecap:round;stroke-linejoin:round;stroke-miterlimit:10;stroke-dasharray:none;stroke-opacity:1" id="path4711"/></g><g id="g4713"><g id="g4715" clip-path="url(#clipPath4719)"><g id="g4721" transform="translate(71.7773,210.918)"><path d="m 0,0 h 142.766 c 4.451,0 8.059,3.608 8.059,8.06 v 107.317 c 0,4.451 -3.608,8.06 -8.059,8.06 h -24.073 l -16.48,20.613 c -1.318,1.648 -3.315,2.608 -5.426,2.608 H 54.038 c -2.111,0 -4.107,-0.96 -5.426,-2.608 L 32.132,123.437 H 0" style="fill:none;stroke:#000000;stroke-width:15;stroke-linecap:round;stroke-linejoin:round;stroke-miterlimit:10;stroke-dasharray:none;stroke-opacity:1" id="path4723"/></g><g id="g4725" transform="translate(147.1895,310.9258)"><path d="m 0,0 c -21.146,0 -38.289,-17.143 -38.289,-38.29 0,-21.147 17.143,-38.29 38.289,-38.29 21.147,0 38.29,17.143 38.29,38.29 C 38.29,-17.143 21.147,0 0,0 Z" style="fill:none;stroke:#000000;stroke-width:15;stroke-linecap:round;stroke-linejoin:round;stroke-miterlimit:10;stroke-dasharray:none;stroke-opacity:1" id="path4727"/></g><g id="g4729" transform="translate(79.8076,307.7295)"><path d="m 0,0 v 19.291 c 0,4.102 -3.325,7.427 -7.427,7.427 h -36.72 c -4.102,0 -7.426,-3.325 -7.426,-7.427 V -89.291 c 0,-4.102 3.324,-7.427 7.426,-7.427 h 36.72 c 4.102,0 7.427,3.325 7.427,7.427 V -35" style="fill:none;stroke:#000000;stroke-width:15;stroke-linecap:round;stroke-linejoin:round;stroke-miterlimit:10;stroke-dasharray:none;stroke-opacity:1" id="path4731"/></g><g id="g4733" transform="translate(169.9336,180.9648)"><path d="m 0,0 h -45.487 c -1.538,0 -2.785,1.247 -2.785,2.785 V 29.953 H 2.785 V 2.785 C 2.785,1.247 1.538,0 0,0 Z" style="fill:none;stroke:#000000;stroke-width:15;stroke-linecap:round;stroke-linejoin:round;stroke-miterlimit:10;stroke-dasharray:none;stroke-opacity:1" id="path4735"/></g><g id="g4737" transform="translate(147.1895,180.9648)"><path d="M 0,0 V -43.133" style="fill:none;stroke:#000000;stroke-width:15;stroke-linecap:round;stroke-linejoin:round;stroke-miterlimit:10;stroke-dasharray:none;stroke-opacity:1" id="path4739"/></g><g id="g4741" transform="translate(438.0732,476.9717)"><path d="m 0,0 -13.498,23.38 c -1.482,2.566 -4.222,4.148 -7.186,4.148 h -116.158 c -2.965,0 -5.704,-1.582 -7.186,-4.148 l -58.079,-100.597 c -1.483,-2.567 -1.483,-5.73 0,-8.298 l 58.079,-100.595 c 1.482,-2.568 4.221,-4.149 7.186,-4.149 h 116.158 c 2.964,0 5.704,1.581 7.186,4.149 l 58.079,100.595 c 1.482,2.568 1.482,5.731 0,8.298 l -26.093,45.195" style="fill:none;stroke:#000000;stroke-width:15;stroke-linecap:round;stroke-linejoin:round;stroke-miterlimit:10;stroke-dasharray:none;stroke-opacity:1" id="path4743"/></g><g id="g4745" transform="translate(344.3096,369.6201)"><path d="M 0,0 -47.229,-81.79" style="fill:none;stroke:#000000;stroke-width:15;stroke-linecap:round;stroke-linejoin:round;stroke-miterlimit:10;stroke-dasharray:none;stroke-opacity:1" id="path4747"/></g><g id="g4749" transform="translate(421.5303,503.3799)"><path d="M 0,0 -47.221,-81.79" style="fill:none;stroke:#000000;stroke-width:15;stroke-linecap:round;stroke-linejoin:round;stroke-miterlimit:10;stroke-dasharray:none;stroke-opacity:1" id="path4751"/></g><g id="g4753" transform="translate(421.5303,287.8301)"><path d="M 0,0 -47.221,81.79" style="fill:none;stroke:#000000;stroke-width:15;stroke-linecap:round;stroke-linejoin:round;stroke-miterlimit:10;stroke-dasharray:none;stroke-opacity:1" id="path4755"/></g><g id="g4757" transform="translate(344.3096,421.5801)"><path d="M 0,0 -47.229,81.8" style="fill:none;stroke:#000000;stroke-width:15;stroke-linecap:round;stroke-linejoin:round;stroke-miterlimit:10;stroke-dasharray:none;stroke-opacity:1" id="path4759"/></g><g id="g4761" transform="translate(329.3086,395.6094)"><path d="M 0,0 H -94.448" style="fill:none;stroke:#000000;stroke-width:15;stroke-linecap:round;stroke-linejoin:round;stroke-miterlimit:10;stroke-dasharray:none;stroke-opacity:1" id="path4763"/></g><g id="g4765" transform="translate(483.7598,395.6094)"><path d="M 0,0 H -94.448" style="fill:none;stroke:#000000;stroke-width:15;stroke-linecap:round;stroke-linejoin:round;stroke-miterlimit:10;stroke-dasharray:none;stroke-opacity:1" id="path4767"/></g><g id="g4769" transform="translate(359.3105,425.6094)"><path d="m 0,0 c -16.57,0 -30.002,-13.43 -30.002,-30 0,-16.57 13.432,-30.007 30.002,-30.007 16.57,0 30.001,13.437 30.001,30.007 C 30.001,-13.43 16.57,0 0,0 Z" style="fill:none;stroke:#000000;stroke-width:15;stroke-linecap:round;stroke-linejoin:round;stroke-miterlimit:10;stroke-dasharray:none;stroke-opacity:1" id="path4771"/></g><g id="g4773" transform="translate(340.8662,131.167)"><path d="m 0,0 v -119.667 c 0,-2.209 1.791,-4 4,-4 h 28.888 c 2.21,0 4,1.791 4,4 V 75.751 c 0,2.209 -1.79,4 -4,4 H 4 c -2.209,0 -4,-1.791 -4,-4 V 35" style="fill:none;stroke:#000000;stroke-width:15;stroke-linecap:round;stroke-linejoin:round;stroke-miterlimit:10;stroke-dasharray:none;stroke-opacity:1" id="path4775"/></g><g id="g4777" transform="translate(123.7998,103.4902)"><path d="M 0,0 -23.16,-95.99" style="fill:none;stroke:#000000;stroke-width:15;stroke-linecap:round;stroke-linejoin:round;stroke-miterlimit:10;stroke-dasharray:none;stroke-opacity:1" id="path4779"/></g><g id="g4781" transform="translate(193.7402,7.5)"><path d="M 0,0 -23.16,95.99" style="fill:none;stroke:#000000;stroke-width:15;stroke-linecap:round;stroke-linejoin:round;stroke-miterlimit:10;stroke-dasharray:none;stroke-opacity:1" id="path4783"/></g><g id="g4785" transform="translate(187.1191,103.4854)"><path d="m 0,0 h -79.859 c -5.273,0 -9.548,4.274 -9.548,9.548 v 15.251 c 0,5.273 4.275,9.548 9.548,9.548 H 0 c 5.273,0 9.549,-4.275 9.549,-9.548 V 9.548 C 9.549,4.274 5.273,0 0,0 Z" style="fill:none;stroke:#000000;stroke-width:15;stroke-linecap:round;stroke-linejoin:round;stroke-miterlimit:10;stroke-dasharray:none;stroke-opacity:1" id="path4787"/></g></g></g></g></svg>