<svg width="78" height="75" viewBox="0 0 78 75" fill="none" xmlns="http://www.w3.org/2000/svg">
<path d="M27.2108 27.9371C30.0032 36.4763 31.0611 51.7095 39.2266 51.7095C39.8483 51.7095 40.4764 51.6487 41.1069 51.5288C33.6841 49.798 32.8044 34.7306 28.2749 26.9277C27.9198 27.2505 27.5672 27.5869 27.2108 27.9371Z" fill="url(#paint0_linear_391_28667)"/>
<path d="M28.2772 26.9277C32.8067 34.7305 33.6864 49.798 41.1092 51.5287C41.6923 51.4215 42.2767 51.2595 42.8624 51.0552C36.1997 47.7905 34.358 33.1593 29.2143 26.1152C28.9027 26.3745 28.59 26.6462 28.2772 26.9277Z" fill="url(#paint1_linear_391_28667)"/>
<path d="M34.8027 22.2871C34.1822 22.2871 33.5528 22.3479 32.9211 22.4678C31.2689 22.7793 29.5905 23.4908 27.8983 24.5674C28.3606 25.0235 28.8004 25.5455 29.2141 26.115C30.9349 24.687 32.6445 23.6316 34.3479 22.9974C34.9871 22.7606 35.6239 22.5825 36.2631 22.4653C35.802 22.3481 35.3161 22.2871 34.8027 22.2871Z" fill="#14559A"/>
<path d="M48.0619 48.0449C48.7435 47.503 49.4264 46.9035 50.1104 46.2494C47.2732 37.75 46.2576 22.2988 38.0349 22.2988C37.4467 22.2988 36.8536 22.3537 36.2617 22.4633C43.7518 24.3262 44.7113 40.6222 48.0619 48.0449Z" fill="url(#paint2_linear_391_28667)"/>
<path d="M36.261 22.4633C35.8 22.3461 35.3141 22.2852 34.8007 22.2852L38.0342 22.297C37.446 22.297 36.8529 22.3518 36.261 22.4628" fill="#3092C4"/>
<path d="M47.917 49.8514C47.5955 49.5449 47.2902 49.2085 46.9899 48.8496C45.6068 49.829 44.2286 50.5717 42.8593 51.0551C43.3464 51.2932 43.8573 51.4701 44.3994 51.5798C44.8192 51.6655 45.2542 51.7094 45.7114 51.7094C47.2479 51.7094 48.4627 51.5275 49.497 51.0315C48.9276 50.7237 48.4054 50.3249 47.917 49.8514Z" fill="#1969BC"/>
<path d="M34.3475 22.9975C41.0563 26.5064 41.6395 42.3962 46.9926 48.8483C47.3514 48.5954 47.7066 48.3274 48.0617 48.0445C44.711 40.6218 43.7528 24.3245 36.264 22.4629C35.6248 22.5825 34.9868 22.7596 34.3475 22.9975Z" fill="url(#paint3_linear_391_28667)"/>
<path d="M29.2108 26.1144C34.3545 33.1584 36.1962 47.7897 42.8589 51.0544C44.2283 50.5709 45.6065 49.8282 46.9896 48.8488C41.6365 42.3967 41.0534 26.5069 34.3446 22.998C32.6412 23.631 30.9316 24.6864 29.2108 26.1144Z" fill="url(#paint4_linear_391_28667)"/>
<path d="M23.9222 27.731C23.116 29.554 22.2924 31.9501 21.2968 35.0778C23.2767 32.2878 25.2505 29.8842 27.2131 27.9366C26.9427 27.1055 26.6523 26.3392 26.3396 25.6562C25.5371 26.2706 24.7284 26.9622 23.9222 27.731Z" fill="url(#paint5_linear_391_28667)"/>
<path d="M27.0537 25.1309C26.8169 25.3003 26.579 25.4736 26.3397 25.6567C26.6524 26.3395 26.9415 27.1059 27.212 27.937C27.5682 27.5881 27.9221 27.2504 28.276 26.9277C27.896 26.2747 27.4923 25.6716 27.0537 25.1309Z" fill="#2B74B1"/>
<path d="M27.8994 24.5664C27.6178 24.7446 27.3375 24.9327 27.0546 25.1296C27.4932 25.6704 27.8969 26.2735 28.2782 26.9277C28.591 26.6448 28.9037 26.372 29.2152 26.114C28.8015 25.5446 28.3617 25.0225 27.8994 24.5664Z" fill="#125A9E"/>
<path d="M73.6561 21.6362C69.8618 36.2687 61.9369 48.0215 55.2929 50.9847H55.2803C55.1595 51.0395 55.0398 51.0894 54.9215 51.1379C54.9052 51.1478 54.8904 51.149 54.8778 51.1549C54.8429 51.169 54.8105 51.1799 54.7756 51.1938C54.7593 51.2037 54.7445 51.2069 54.7296 51.2128C54.6735 51.2328 54.6187 51.2497 54.5638 51.2716C54.5401 51.2815 54.5178 51.2877 54.4952 51.2956C54.4703 51.3054 54.4416 51.3146 54.413 51.3225C54.3881 51.3324 54.362 51.3395 54.3332 51.3504C54.3095 51.3603 54.2846 51.3645 54.2623 51.3743C54.2136 51.3884 54.1689 51.4003 54.1202 51.4172C54.1002 51.4172 54.0816 51.428 54.0604 51.4332C54.0305 51.4431 53.9968 51.4503 53.9644 51.4591C53.942 51.469 53.9233 51.4722 53.8996 51.4772C53.8659 51.487 53.8285 51.4962 53.7949 51.5041C53.7501 51.514 53.7102 51.5231 53.6678 51.532C53.9681 51.6429 54.2809 51.699 54.6186 51.699C60.9187 51.699 67.271 40.4085 77.7816 21.6328H73.6546L73.6561 21.6362Z" fill="url(#paint6_linear_391_28667)"/>
<path d="M19.9269 22.8794C19.9309 22.8794 19.9358 22.8695 19.9383 22.8695C19.9432 22.8695 19.9509 22.8695 19.9533 22.8596H19.9612C19.9961 22.8478 20.0285 22.8337 20.0634 22.8207C20.0723 22.8207 20.077 22.8207 20.0834 22.8109C20.0923 22.8109 20.1009 22.801 20.1096 22.7997C20.147 22.7879 20.1844 22.7738 20.2193 22.7609H20.2252C20.3087 22.736 20.3859 22.7051 20.4669 22.6762C20.4783 22.6762 20.4894 22.6663 20.503 22.6663C20.5367 22.6554 20.5716 22.6433 20.6064 22.6354C20.6227 22.6255 20.6389 22.6255 20.6538 22.6203C20.6899 22.6095 20.7249 22.5974 20.7585 22.5894C20.7735 22.5894 20.7872 22.5795 20.7983 22.5786C20.9142 22.5467 21.0289 22.5168 21.1447 22.4888C21.161 22.4888 21.1747 22.479 21.1921 22.478C21.2257 22.4681 21.2569 22.4629 21.293 22.458C21.3081 22.4481 21.3254 22.4481 21.3429 22.4429C21.3765 22.4331 21.4089 22.4321 21.445 22.4239H21.4687C21.5385 22.4098 21.6096 22.398 21.6793 22.385H21.7217C21.7553 22.3752 21.7852 22.3742 21.8189 22.368C21.8374 22.368 21.8563 22.3581 21.8737 22.3581C21.9048 22.3581 21.936 22.3483 21.9671 22.3441C21.9834 22.3441 21.9995 22.3441 22.0183 22.3342C22.0917 22.3243 22.1678 22.3204 22.245 22.3142C22.027 22.2932 21.8027 22.2793 21.5747 22.2793C14.4796 22.2793 4.70424 35.4439 0.300659 52.4925H1.14923C2.55852 49.9792 3.82452 47.6017 4.98211 45.37C8.06611 33.2945 14.3475 25.0592 19.9274 22.8774" fill="url(#paint7_linear_391_28667)"/>
<path d="M23.9218 27.7304C24.728 26.9616 25.5366 26.27 26.3391 25.6558C26.156 25.2545 25.9666 24.8832 25.7634 24.543C25.1143 25.3305 24.5211 26.3697 23.9218 27.7304Z" fill="#0D82CA"/>
<path d="M24.5037 22.9797C24.9672 23.3684 25.3821 23.903 25.7622 24.5435C25.8818 24.3965 26.0027 24.2606 26.1285 24.1335C25.6015 23.6413 25.032 23.2376 24.4139 22.9336C24.4389 22.9474 24.4638 22.9585 24.4897 22.9695C24.4897 22.9695 24.4996 22.9794 24.5038 22.9794" fill="#0D82CA"/>
<path d="M4.98035 45.3716C11.4499 32.9047 14.5152 25.0146 19.9256 22.8789C14.347 25.0621 8.06435 33.2973 4.98035 45.3716Z" fill="url(#paint8_linear_391_28667)"/>
<path d="M26.1279 24.1328C26.0021 24.2612 25.8825 24.3958 25.7616 24.5428C25.9647 24.8829 26.1541 25.2531 26.3386 25.6555C26.5778 25.4724 26.8158 25.2991 27.0525 25.1297C26.7597 24.7683 26.4507 24.4332 26.1279 24.1328Z" fill="#127BCA"/>
<path d="M7.92064 52.4386C7.88076 52.4484 7.84089 52.4484 7.8035 52.4526H7.78107C7.74737 52.4526 7.71248 52.4625 7.68138 52.4625H7.66514C7.5842 52.4724 7.5044 52.4724 7.42714 52.4786H7.40222C13.9503 52.2953 16.9433 49.0169 18.4286 44.2619C19.5575 40.6571 20.4846 37.6204 21.2971 35.0723C18.5545 38.9326 15.7994 43.5342 13.0294 48.6892C11.6937 51.1739 9.66258 52.2118 7.92058 52.4337" fill="url(#paint9_linear_391_28667)"/>
<path d="M7.91785 52.4367C9.65984 52.2148 11.6909 51.1781 13.0267 48.6922C15.7967 43.5385 18.553 38.9356 21.2931 35.0753C22.2899 31.9464 23.1123 29.5516 23.9198 27.7285C18.4583 32.9271 12.9756 41.5711 7.91785 52.4342" fill="url(#paint10_linear_391_28667)"/>
<path d="M4.9812 45.373C3.82366 47.6048 2.55766 49.9823 1.14832 52.4955H3.61681C3.94328 49.9996 4.40682 47.6196 4.9812 45.3742" fill="#05A1E6"/>
<path d="M22.0192 22.3417C21.9992 22.3417 21.9843 22.3515 21.9669 22.3515C21.937 22.3614 21.9058 22.3614 21.8747 22.3646C21.8562 22.3646 21.8386 22.3646 21.8198 22.3745C21.7862 22.3844 21.755 22.3854 21.7226 22.3915C21.7076 22.3915 21.6927 22.3915 21.6803 22.4014C21.6092 22.4132 21.5395 22.4263 21.4697 22.4383H21.446C21.4099 22.4481 21.3774 22.4533 21.3438 22.4583C21.3263 22.4681 21.3089 22.4681 21.2927 22.4721C21.2591 22.482 21.2254 22.4862 21.193 22.4921C21.1755 22.502 21.1619 22.502 21.1456 22.5029C21.0298 22.5309 20.9151 22.5608 20.7992 22.5927C20.7869 22.5927 20.7743 22.6025 20.7594 22.6045C20.7245 22.6144 20.6908 22.6245 20.6547 22.6354C20.6396 22.6453 20.6223 22.6453 20.6073 22.6492C20.5725 22.6591 20.5376 22.6692 20.5039 22.6801C20.4903 22.6801 20.479 22.69 20.4665 22.69C20.3868 22.7199 20.3083 22.7498 20.2261 22.7748C20.1912 22.7856 20.1538 22.7997 20.1164 22.8126C20.1014 22.8225 20.0877 22.8247 20.0703 22.8316C20.0354 22.8425 20.0006 22.8566 19.9682 22.8695C19.9558 22.8794 19.9433 22.8804 19.9346 22.8856C14.5242 25.0213 11.4589 32.9114 4.98931 45.3783C4.41488 47.6237 3.9501 50.0036 3.62488 52.4995H3.97128C4.94695 52.4995 5.22233 52.4896 6.34503 52.4896H6.40235H6.56932H6.62664H6.64288H6.7002H6.7326H6.75503H6.79989H6.93945H7.07901H7.19614H7.22724H7.43284C7.5101 52.4797 7.58984 52.4797 7.67084 52.4736H7.6858C7.71949 52.4736 7.75308 52.4637 7.78548 52.4637H7.8091C7.84519 52.4637 7.88636 52.4538 7.92623 52.4496C12.984 41.5865 18.4667 32.9425 23.9281 27.7439C24.5287 26.3832 25.1206 25.344 25.7686 24.5578C25.3898 23.9173 24.9748 23.3815 24.5113 22.9926C24.5113 22.9926 24.4987 22.9926 24.4977 22.9828C24.4715 22.9719 24.4467 22.9588 24.4205 22.9459C24.3943 22.9318 24.3718 22.921 24.3445 22.907C24.3208 22.8971 24.2934 22.8841 24.2698 22.8711C24.2374 22.8612 24.2112 22.8472 24.1826 22.8342C24.1589 22.8243 24.1377 22.8142 24.114 22.8043C24.0653 22.7853 24.0168 22.7655 23.9707 22.7445C23.9494 22.7346 23.9296 22.7295 23.9096 22.7216C23.876 22.7095 23.8373 22.6936 23.8024 22.6787C23.7849 22.6688 23.765 22.6668 23.7451 22.6597C23.694 22.6427 23.6442 22.6248 23.5968 22.6088H23.5844C23.5271 22.5898 23.471 22.576 23.4125 22.56C23.3989 22.5501 23.3875 22.5501 23.3739 22.5481C23.3228 22.5341 23.2779 22.5202 23.2293 22.5073C23.217 22.5073 23.2057 22.4974 23.1958 22.4974C23.0786 22.4665 22.9578 22.4416 22.8356 22.4186C22.8231 22.4186 22.8107 22.4088 22.7983 22.4088C22.7459 22.3989 22.6949 22.3898 22.6425 22.3838C22.6299 22.374 22.6225 22.374 22.6114 22.374C22.5491 22.3641 22.4881 22.3569 22.427 22.35H22.3946C22.3448 22.3402 22.2987 22.3392 22.2525 22.334C22.174 22.3439 22.0993 22.3481 22.0258 22.355" fill="url(#paint11_linear_391_28667)"/>
<path d="M58.837 29.7378C57.5922 33.7252 56.5841 37.0148 55.7069 39.7212C59.1223 35.0211 62.4867 29.1085 65.6904 22.2852C61.9534 23.4588 59.9597 26.1454 58.837 29.7378Z" fill="url(#paint12_linear_391_28667)"/>
<path d="M55.8137 50.736C55.6393 50.8247 55.4648 50.9091 55.2928 50.9852C61.9368 48.022 69.8618 36.2692 73.6561 21.6367H72.8872C64.1698 37.2087 61.3662 47.6333 55.8137 50.736Z" fill="url(#paint13_linear_391_28667)"/>
<path d="M51.4773 49.4275C52.9228 47.6631 54.1002 44.6639 55.7078 39.7207C53.8535 42.2676 51.987 44.457 50.1191 46.2426C50.1191 46.2525 50.1191 46.2525 50.1093 46.2586C50.5168 47.4798 50.964 48.5576 51.4737 49.4273" fill="#079AE1"/>
<path d="M51.4747 49.4277C50.9825 50.0284 50.4617 50.4857 49.8822 50.8246C49.7552 50.8984 49.6269 50.9679 49.496 51.0315C50.1079 51.3616 50.7756 51.5822 51.5233 51.6707C51.6328 51.6815 51.7413 51.6916 51.8547 51.6996H51.8747C51.9256 51.6996 51.9794 51.6996 52.0342 51.7094H52.0562H52.2195H52.3952H52.4501H52.5747C52.5947 51.7094 52.6155 51.7094 52.6355 51.6996C52.6743 51.6996 52.7152 51.6996 52.7551 51.6897H52.7692H52.814C52.8549 51.6897 52.8997 51.6798 52.9436 51.6756H52.9535C52.9666 51.6756 52.9804 51.6657 52.9933 51.6657C53.0392 51.6559 53.0871 51.6517 53.1317 51.6448H53.1726C53.2234 51.6349 53.276 51.6287 53.3283 51.6188H53.3382H53.3532C53.4579 51.5988 53.5601 51.579 53.6634 51.5531C52.8062 51.239 52.0884 50.4989 51.4704 49.4447" fill="#1969BC"/>
<path d="M39.2264 51.7089C39.8483 51.7089 40.4763 51.6481 41.1068 51.527C41.69 51.4211 42.2743 51.259 42.86 51.0547C43.3472 51.2927 43.8581 51.4697 44.3989 51.5793C44.8188 51.6651 45.2549 51.7089 45.7122 51.7089H39.2264Z" fill="#1E5CB3"/>
<path d="M45.7152 51.7091C47.2504 51.7091 48.4665 51.5272 49.4995 51.0312C50.1113 51.3614 50.7792 51.582 51.5268 51.6705C51.6365 51.6814 51.745 51.6915 51.8583 51.6994H51.8783C51.9291 51.6994 51.983 51.6994 52.0378 51.7093H52.0608H52.224H45.7108L45.7152 51.7091Z" fill="#1E5CB3"/>
<path d="M52.2264 51.708H52.4034H52.4582H52.5816C52.6026 51.708 52.6225 51.708 52.6424 51.6981C52.6813 51.6981 52.7222 51.6981 52.7634 51.6882H52.7764H52.8223C52.8632 51.6882 52.908 51.6784 52.9507 51.6744H52.9615C52.9746 51.6744 52.9875 51.6645 53.0004 51.6645C53.0463 51.6547 53.0941 51.6507 53.1387 51.6436C53.1538 51.6436 53.1656 51.6436 53.1815 51.6337C53.2324 51.6238 53.285 51.6186 53.3374 51.6088H53.3472H53.3623C53.467 51.5888 53.5692 51.5689 53.6725 51.543C53.9728 51.6538 54.2856 51.71 54.6232 51.71L52.2283 51.7198L52.2264 51.708Z" fill="#1D60B5"/>
<path d="M50.1109 46.2579V46.248C49.4268 46.9022 48.744 47.5016 48.0624 48.0436C47.706 48.3265 47.3509 48.5943 46.9921 48.8473C47.2923 49.2062 47.5977 49.5426 47.9191 49.8492C48.4076 50.3226 48.9296 50.7214 49.4991 51.0292C49.6287 50.9653 49.7583 50.8958 49.8841 50.8223C50.4648 50.4834 50.9856 50.0261 51.4779 49.4255C50.9682 48.5558 50.5209 47.4779 50.1134 46.2567" fill="#175FAB"/>
<path d="M70.4544 21.6367H67.2221H66.9006H66.5966H66.5848C66.3754 21.6466 66.1724 21.6538 65.9717 21.6666C65.877 21.8698 65.7798 22.073 65.6863 22.2773C62.4827 29.1006 59.1184 35.0132 55.7029 39.7134C54.0967 44.6565 52.918 47.6558 51.4725 49.4202C52.0906 50.4744 52.8096 51.2157 53.6644 51.5297C53.6893 51.5199 53.7092 51.5199 53.7316 51.5147H53.7455C53.7605 51.5147 53.7766 51.5048 53.7928 51.5048C53.8277 51.4949 53.8651 51.4888 53.9 51.4779C53.9224 51.468 53.9411 51.4671 53.9636 51.4599C53.996 51.45 54.0296 51.4429 54.0595 51.435C54.0795 51.4251 54.0994 51.4219 54.1193 51.4179C54.1691 51.4019 54.214 51.39 54.2614 51.3751C54.2838 51.3652 54.3075 51.357 54.3324 51.3511C54.3598 51.3412 54.3872 51.3341 54.4122 51.3222C54.4409 51.3123 54.4695 51.3072 54.4944 51.2963C54.5169 51.2864 54.5405 51.2802 54.5617 51.2714C54.6177 51.2514 54.6726 51.2345 54.7287 51.2125C54.7437 51.2125 54.7586 51.1987 54.7748 51.1955C54.8084 51.1814 54.8433 51.1706 54.877 51.1556C54.8894 51.1457 54.9044 51.1448 54.9206 51.1396C55.0377 51.0907 55.1586 51.0409 55.2794 50.9864H55.292C55.464 50.9106 55.6384 50.8256 55.8116 50.7372C61.3653 47.6345 64.169 37.2099 72.8864 21.6379H70.4516L70.4544 21.6367Z" fill="url(#paint14_linear_391_28667)"/>
<path d="M22.246 22.3203C22.2598 22.3203 22.2722 22.3203 22.2858 22.3302C22.3194 22.3302 22.3531 22.3302 22.3868 22.3411H22.4205C22.4815 22.3509 22.5426 22.3561 22.6049 22.365C22.6162 22.365 22.6261 22.365 22.636 22.3749C22.687 22.3847 22.7394 22.3929 22.7917 22.4008C22.8031 22.4008 22.818 22.4107 22.8304 22.4107C22.95 22.4346 23.0722 22.4595 23.1893 22.4904C23.2004 22.4904 23.2117 22.5003 23.2217 22.5003C23.2715 22.5121 23.3164 22.5272 23.3662 22.5411C23.3813 22.5411 23.3923 22.551 23.4061 22.5532C23.4647 22.5683 23.5195 22.5832 23.5768 22.6021C23.5793 22.6021 23.5827 22.6021 23.5894 22.612C23.6379 22.6268 23.6878 22.6459 23.7389 22.6628C23.7589 22.6727 23.7775 22.6769 23.7962 22.6818C23.8311 22.6968 23.8698 22.7117 23.9034 22.7257C23.9234 22.7257 23.9433 22.7395 23.9644 22.7466C24.0104 22.7676 24.0591 22.7865 24.1064 22.8064C24.1314 22.8163 24.1525 22.8274 24.1762 22.8363C24.2036 22.8504 24.2323 22.8633 24.2622 22.8732C24.2871 22.8851 24.3145 22.8981 24.3381 22.9091C24.3643 22.9232 24.3892 22.934 24.4142 22.948C25.0322 23.252 25.6017 23.657 26.1288 24.148C26.3232 23.9436 26.5262 23.7604 26.7368 23.5959C25.5842 22.7785 24.2784 22.3125 22.7719 22.3125C22.5974 22.3125 22.423 22.3224 22.246 22.3355" fill="#7DCBEC"/>
<path d="M26.1288 24.1341C26.4515 24.4343 26.7605 24.7696 27.0534 25.1309C27.3362 24.9341 27.6166 24.7447 27.8982 24.5677C27.5294 24.1989 27.1406 23.8674 26.7356 23.582C26.525 23.7453 26.3232 23.9297 26.1288 24.1341Z" fill="#5EC5ED"/>
<path d="M22.2445 22.321C22.4214 22.3061 22.5959 22.2998 22.7703 22.2998C24.2768 22.2998 25.5827 22.7659 26.7353 23.582C27.9514 22.6226 29.4218 22.2874 31.4641 22.2874H21.5741C21.8021 22.2874 22.0252 22.3011 22.2445 22.321Z" fill="url(#paint15_linear_391_28667)"/>
<path d="M31.4631 22.2861C29.4208 22.2861 27.9504 22.6213 26.7343 23.5808C27.138 23.8661 27.5267 24.1976 27.8956 24.5664C29.589 23.4898 31.2662 22.7771 32.9197 22.4655C33.5502 22.3472 34.1795 22.2861 34.8 22.2861H31.4631Z" fill="url(#paint16_linear_391_28667)"/>
<path d="M55.7083 39.7231C56.5868 37.0141 57.5923 33.7258 58.8396 29.7371C59.9636 26.1435 61.9536 23.457 65.6905 22.2845C65.7892 22.0838 65.8824 21.877 65.9784 21.6738C59.8864 22.039 57.0391 25.1379 55.6061 29.7272C53.1003 37.7393 51.5826 42.9329 50.121 46.2425C51.9876 44.4581 53.8542 42.2675 55.7083 39.7231Z" fill="url(#paint17_linear_391_28667)"/>
<path d="M64.6451 49.5737H63.9548V51.7195H63.6731V49.5737H62.9803V49.3184H64.6451V49.5737Z" fill="black"/>
<path d="M67.4695 51.7195H67.1892V50.107C67.1892 49.98 67.1991 49.8242 67.2122 49.641C67.1832 49.7507 67.1593 49.8267 67.1374 49.8753L66.32 51.7195H66.1829L65.363 49.889C65.3391 49.8382 65.3152 49.7557 65.2893 49.641H65.2794C65.2893 49.7377 65.2925 49.894 65.2925 50.1108V51.7195H65.0233V49.3184H65.3946L66.131 50.9942C66.1868 51.1202 66.2217 51.2173 66.2395 51.2821H66.2503C66.2992 51.1501 66.339 51.0516 66.3663 50.9868L67.1176 49.3184H67.4715V51.7195H67.4695Z" fill="black"/>
<defs>
<linearGradient id="paint0_linear_391_28667" x1="34.1585" y1="22.0913" x2="34.1585" y2="59.0511" gradientUnits="userSpaceOnUse">
<stop stop-color="#0994DC"/>
<stop offset="0.350006" stop-color="#66CEF5"/>
<stop offset="0.846161" stop-color="#127BCA"/>
<stop offset="1" stop-color="#127BCA"/>
</linearGradient>
<linearGradient id="paint1_linear_391_28667" x1="35.5699" y1="21.1555" x2="35.5699" y2="59.0572" gradientUnits="userSpaceOnUse">
<stop stop-color="#0E76BC"/>
<stop offset="0.360001" stop-color="#36AEE8"/>
<stop offset="0.846161" stop-color="#00ADEF"/>
<stop offset="1" stop-color="#00ADEF"/>
</linearGradient>
<linearGradient id="paint2_linear_391_28667" x1="43.186" y1="50.8569" x2="43.186" y2="20.699" gradientUnits="userSpaceOnUse">
<stop stop-color="#1C63B7"/>
<stop offset="0.5" stop-color="#33BDF2"/>
<stop offset="1" stop-color="#33BDF2" stop-opacity="0.419608"/>
</linearGradient>
<linearGradient id="paint3_linear_391_28667" x1="41.2047" y1="17.3138" x2="41.2047" y2="56.6656" gradientUnits="userSpaceOnUse">
<stop stop-color="#166AB8"/>
<stop offset="0.399994" stop-color="#36AEE8"/>
<stop offset="0.846161" stop-color="#0798DD"/>
<stop offset="1" stop-color="#0798DD"/>
</linearGradient>
<linearGradient id="paint4_linear_391_28667" x1="38.1" y1="17.5211" x2="38.1" y2="59.3666" gradientUnits="userSpaceOnUse">
<stop stop-color="#124379"/>
<stop offset="0.389999" stop-color="#1487CB"/>
<stop offset="0.780228" stop-color="#165197"/>
<stop offset="1" stop-color="#165197"/>
</linearGradient>
<linearGradient id="paint5_linear_391_28667" x1="21.2968" y1="30.3671" x2="27.2131" y2="30.3671" gradientUnits="userSpaceOnUse">
<stop stop-color="#33BDF2" stop-opacity="0.698039"/>
<stop offset="1" stop-color="#1DACD8"/>
</linearGradient>
<linearGradient id="paint6_linear_391_28667" x1="65.727" y1="50.1014" x2="65.727" y2="20.7234" gradientUnits="userSpaceOnUse">
<stop stop-color="#136AB4"/>
<stop offset="0.6" stop-color="#59CAF5" stop-opacity="0.54902"/>
<stop offset="1" stop-color="#59CAF5" stop-opacity="0.235294"/>
</linearGradient>
<linearGradient id="paint7_linear_391_28667" x1="0.300492" y1="37.3858" x2="22.2449" y2="37.3858" gradientUnits="userSpaceOnUse">
<stop stop-color="#05A1E6" stop-opacity="0.247059"/>
<stop offset="1" stop-color="#05A1E6"/>
</linearGradient>
<linearGradient id="paint8_linear_391_28667" x1="12.4527" y1="50.8404" x2="12.4527" y2="20.7598" gradientUnits="userSpaceOnUse">
<stop stop-color="#318ED5"/>
<stop offset="1" stop-color="#38A7E4"/>
</linearGradient>
<linearGradient id="paint9_linear_391_28667" x1="14.3494" y1="50.9468" x2="14.3494" y2="21.7068" gradientUnits="userSpaceOnUse">
<stop stop-color="#05A1E6"/>
<stop offset="1" stop-color="#05A1E6" stop-opacity="0.54902"/>
</linearGradient>
<linearGradient id="paint10_linear_391_28667" x1="15.9188" y1="52.4393" x2="15.9188" y2="27.731" gradientUnits="userSpaceOnUse">
<stop stop-color="#1959A6"/>
<stop offset="0.5" stop-color="#05A1E6"/>
<stop offset="0.917587" stop-color="#7EC5EA"/>
<stop offset="1" stop-color="#7EC5EA"/>
</linearGradient>
<linearGradient id="paint11_linear_391_28667" x1="16.8677" y1="50.8608" x2="8.49227" y2="25.2649" gradientUnits="userSpaceOnUse">
<stop stop-color="#165096"/>
<stop offset="1" stop-color="#0D82CA"/>
</linearGradient>
<linearGradient id="paint12_linear_391_28667" x1="60.6981" y1="35.7106" x2="60.6981" y2="21.71" gradientUnits="userSpaceOnUse">
<stop stop-color="#05A1E6"/>
<stop offset="0.873627" stop-color="#0495D6"/>
<stop offset="1" stop-color="#0495D6"/>
</linearGradient>
<linearGradient id="paint13_linear_391_28667" x1="67.2773" y1="20.4154" x2="54.2287" y2="49.3871" gradientUnits="userSpaceOnUse">
<stop stop-color="#38A7E4" stop-opacity="0.329412"/>
<stop offset="0.961533" stop-color="#0E88D3"/>
<stop offset="1" stop-color="#0E88D3"/>
</linearGradient>
<linearGradient id="paint14_linear_391_28667" x1="62.1831" y1="21.5483" x2="62.1831" y2="52.0923" gradientUnits="userSpaceOnUse">
<stop stop-color="#168CD4"/>
<stop offset="0.5" stop-color="#1C87CC"/>
<stop offset="1" stop-color="#154B8D"/>
</linearGradient>
<linearGradient id="paint15_linear_391_28667" x1="23.2231" y1="20.9207" x2="23.3555" y2="24.1241" gradientUnits="userSpaceOnUse">
<stop stop-color="#97D6EE"/>
<stop offset="0.703293" stop-color="#55C1EA"/>
<stop offset="1" stop-color="#55C1EA"/>
</linearGradient>
<linearGradient id="paint16_linear_391_28667" x1="27.29" y1="24.4227" x2="27.8883" y2="21.0295" gradientUnits="userSpaceOnUse">
<stop stop-color="#7ACCEC"/>
<stop offset="1" stop-color="#3FB7ED"/>
</linearGradient>
<linearGradient id="paint17_linear_391_28667" x1="58.0492" y1="23.2371" x2="58.0492" y2="53.1122" gradientUnits="userSpaceOnUse">
<stop stop-color="#1DA7E7"/>
<stop offset="1" stop-color="#37ABE7" stop-opacity="0"/>
</linearGradient>
</defs>
</svg>
