<svg width="70" height="78" viewBox="0 0 70 78" fill="none" xmlns="http://www.w3.org/2000/svg">
<g clip-path="url(#clip0_391_28572)">
<path d="M69.1814 23.091C69.1809 21.7923 68.9025 20.6448 68.3395 19.6602C67.7865 18.6915 66.9583 17.8798 65.8474 17.238C56.6775 11.9632 47.4988 6.70442 38.3319 1.42417C35.8605 0.000796795 33.4644 0.0529568 31.0114 1.49676C27.3615 3.64392 9.0878 14.0885 3.64249 17.2351C1.39995 18.5305 0.30873 20.5125 0.308191 23.0885C0.304688 33.6966 0.308191 44.3047 0.304688 54.9128C0.304688 56.1829 0.571765 57.3084 1.10996 58.2782C1.66325 59.2759 2.50303 60.11 3.63952 60.7663C9.08511 63.9128 27.3612 74.3566 31.0103 76.5046C33.4644 77.9492 35.8605 78.0008 38.3327 76.5772C47.4999 71.2966 56.6791 66.0379 65.8503 60.763C66.9868 60.107 67.8266 59.2724 68.3799 58.2755C68.9173 57.3054 69.1849 56.1802 69.1849 54.9098C69.1849 54.9098 69.1849 33.6993 69.1814 23.091Z" fill="#A179DC"/>
<path d="M34.8496 38.8965L1.10938 58.2774C1.66267 59.2751 2.50244 60.1092 3.63893 60.7655C9.08452 63.912 27.3606 74.3558 31.0097 76.5038C33.4638 77.9484 35.86 78 38.3321 76.5764C47.4993 71.2958 56.6785 66.0371 65.8497 60.7622C66.9862 60.1062 67.826 59.2716 68.3793 58.2747L34.8496 38.8965Z" fill="#280068"/>
<path d="M69.1828 23.0909C69.1823 21.7923 68.9039 20.6447 68.3409 19.6602L34.8516 38.8975L68.3813 58.2754C68.9187 57.3053 69.1858 56.1801 69.1863 54.9097C69.1863 54.9097 69.1863 33.6992 69.1828 23.0909Z" fill="#390091"/>
<path d="M54.7162 31.6504V35.2731H58.3475V31.6504H60.1631V35.2731H63.7944V37.0844H60.1631V40.7069H63.7944V42.5182H60.1631V46.1409H58.3475V42.5182H54.7162V46.1409H52.9005V42.5182H49.2695V40.7069H52.9005V37.0844H49.2695V35.2731H52.9005V31.6504H54.7162ZM58.3475 37.0842H54.7162V40.7069H58.3475V37.0842Z" fill="white"/>
<path d="M34.9234 13.4573C44.3948 13.4573 52.664 18.5889 57.0933 26.2166L57.0502 26.1432L45.9062 32.5443C43.7108 28.8359 39.6861 26.333 35.0687 26.2814L34.9231 26.2806C27.8824 26.2806 22.1743 31.9751 22.1743 38.9992C22.172 41.2132 22.7517 43.389 23.8557 45.3095C26.0532 49.1368 30.1845 51.7182 34.9234 51.7182C39.6917 51.7182 43.8464 49.104 46.0326 45.2358L45.9795 45.3286L57.1065 51.7593C52.7257 59.3225 44.5697 64.4382 35.2085 64.5401L34.9234 64.5417C25.4221 64.5417 17.1294 59.3784 12.7112 51.7104C10.5544 47.967 9.32031 43.6272 9.32031 38.9992C9.32031 24.893 20.7828 13.457 34.9231 13.457L34.9234 13.4573Z" fill="white"/>
</g>
<defs>
<clipPath id="clip0_391_28572">
<rect width="69.4909" height="78" fill="white"/>
</clipPath>
</defs>
</svg>
