<svg width="62" height="78" viewBox="0 0 62 78" fill="none" xmlns="http://www.w3.org/2000/svg">
<g clip-path="url(#clip0_391_28597)">
<path d="M27.461 0H40.2073V58.4204C33.6784 59.6554 28.872 60.1413 23.6717 60.1413C8.1038 60.125 0 53.17 0 39.8125C0 26.9426 8.59591 18.59 21.9164 18.59C23.9834 18.59 25.5581 18.7526 27.461 19.24V0ZM27.9077 29.768C26.4148 29.2804 25.1846 29.118 23.6097 29.118C17.1629 29.118 13.4391 33.0504 13.4391 39.9419C13.4391 46.6517 16.999 50.3566 23.5279 50.3566C24.9384 50.3566 26.0868 50.2771 27.9077 50.0334V29.768Z" fill="#2BA977"/>
<path d="M61.0495 20.1584V49.4087C61.0495 59.4819 60.2949 64.3261 58.0803 68.5025C56.0133 72.5177 53.2902 75.0495 47.6635 77.846L35.8359 72.2724C41.4626 69.6575 44.1857 67.347 45.9247 63.8208C47.7453 60.215 48.3195 56.0385 48.3195 45.0536V20.1587H61.0495V20.1584ZM47.035 0H59.7813V12.9513H47.035V0Z" fill="#2BA977"/>
</g>
<defs>
<clipPath id="clip0_391_28597">
<rect width="61.2456" height="78" fill="white"/>
</clipPath>
</defs>
</svg>
