<svg width="78" height="23" viewBox="0 0 78 23" fill="none" xmlns="http://www.w3.org/2000/svg">
<g clip-path="url(#clip0_391_28710)">
<path d="M0.507609 17.6232V8.94247H11.346V8.43471H0.507609V0.515422H12.0312V0.0078125H0V18.1308H12.1327V17.6232H0.507762H0.507609ZM21.9051 5.08421L17.4124 10.9983L13.0211 5.08436H12.3612L17.1077 11.3792L11.9041 18.1306H12.5134L17.4121 11.7596L22.3363 18.1306H22.9708L17.7421 11.3789L22.514 5.08406H21.9049L21.9051 5.08421ZM24.494 22.5981V14.4759H24.5447C24.8494 15.6604 25.4501 16.6122 26.3469 17.3314C27.2438 18.0505 28.3859 18.4102 29.7735 18.4102C30.6703 18.4102 31.4657 18.2283 32.1595 17.8645C32.8532 17.5007 33.4328 17.0057 33.8982 16.3796C34.3634 15.7535 34.7188 15.0259 34.9643 14.1967C35.2095 13.3676 35.3323 12.496 35.3323 11.5824C35.3323 10.6009 35.2053 9.6955 34.9515 8.86645C34.6977 8.03724 34.3296 7.31803 33.8474 6.70896C33.3651 6.09973 32.7813 5.62579 32.0959 5.28759C31.4107 4.94908 30.6365 4.77983 29.7735 4.77983C29.1135 4.77983 28.5002 4.87718 27.9333 5.07172C27.3664 5.26641 26.8631 5.54124 26.4231 5.89666C25.9806 6.25481 25.5954 6.67849 25.2808 7.15304C24.9594 7.63536 24.714 8.16414 24.5447 8.73955H24.494V5.08421H23.9864V22.5981H24.494ZM29.7735 17.9277C28.183 17.9277 26.9053 17.382 25.9408 16.2906C24.9763 15.1992 24.494 13.6296 24.494 11.5821C24.494 10.736 24.6125 9.93225 24.8494 9.17083C25.0863 8.40942 25.4289 7.74093 25.8773 7.16568C26.3258 6.59028 26.88 6.1334 27.5398 5.79505C28.1997 5.45654 28.9444 5.28728 29.7735 5.28728C30.6196 5.28728 31.36 5.45654 31.9945 5.79505C32.629 6.1334 33.1537 6.59455 33.5682 7.17833C33.9827 7.76211 34.2958 8.43059 34.5074 9.18348C34.7188 9.93651 34.8246 10.736 34.8246 11.5821C34.8246 12.3437 34.7274 13.101 34.5327 13.8539C34.3381 14.6069 34.0377 15.2838 33.6316 15.8846C33.2256 16.4852 32.7053 16.9759 32.0706 17.3567C31.436 17.7374 30.6703 17.9277 29.7735 17.9277ZM38.1243 18.1308V10.7445C38.1243 10.0339 38.2258 9.33993 38.429 8.66322C38.6319 7.98636 38.945 7.38978 39.3681 6.87379C39.7911 6.35765 40.3283 5.9515 40.9799 5.65535C41.6313 5.35919 42.4055 5.23655 43.3023 5.28728V4.77968C42.5239 4.76292 41.8429 4.84732 41.2591 5.03348C40.6752 5.21964 40.1718 5.47345 39.7488 5.79505C39.3257 6.11649 38.9874 6.49293 38.7336 6.92452C38.4799 7.35543 38.2917 7.82161 38.1751 8.3078H38.1243V5.08421H37.6167V18.1309H38.1243V18.1308ZM43.9369 11.709H54.8512C54.8852 10.8122 54.7964 9.94931 54.5848 9.1201C54.3733 8.29089 54.0348 7.55477 53.5695 6.91188C53.1041 6.26884 52.5034 5.7527 51.7673 5.36346C51.0312 4.97422 50.1555 4.77968 49.1403 4.77968C48.4126 4.77968 47.7019 4.93202 47.0081 5.23671C46.3143 5.54124 45.7051 5.98532 45.1806 6.56911C44.6561 7.15289 44.233 7.86784 43.9116 8.71411C43.5901 9.56007 43.4292 10.5246 43.4292 11.6076C43.4292 12.5721 43.5392 13.4732 43.7592 14.3108C43.9792 15.1483 44.3176 15.8761 44.7744 16.4937C45.2315 17.1113 45.8195 17.5893 46.5386 17.9277C47.2576 18.2662 48.1249 18.4269 49.1403 18.41C50.6293 18.41 51.8816 17.9911 52.8968 17.1536C53.9122 16.3159 54.5129 15.1357 54.699 13.6127H54.1914C53.9714 15.0511 53.4087 16.1299 52.5034 16.849C51.5981 17.5682 50.4602 17.9277 49.0894 17.9277C48.1588 17.9277 47.3719 17.767 46.7289 17.4455C46.086 17.1241 45.5613 16.684 45.1551 16.1256C44.7491 15.5671 44.4487 14.9114 44.2542 14.1584C44.0595 13.4055 43.9538 12.589 43.9369 11.709ZM54.3436 11.2014H43.937C43.9876 10.2877 44.1568 9.46699 44.4445 8.73939C44.7322 8.01165 45.1087 7.38978 45.5741 6.87379C46.0393 6.35765 46.5809 5.9643 47.1985 5.69343C47.8161 5.42272 48.4804 5.28728 49.191 5.28728C50.0372 5.28728 50.7815 5.44389 51.4247 5.75696C52.0676 6.07003 52.6049 6.49735 53.0365 7.03878C53.4679 7.58021 53.7936 8.21061 54.0136 8.92967C54.2336 9.64889 54.3436 10.4062 54.3436 11.2014ZM65.385 8.94247H65.8926C65.8926 7.48713 65.4696 6.42956 64.6236 5.76961C63.7773 5.10965 62.6267 4.77968 61.1715 4.77968C60.3592 4.77968 59.674 4.88129 59.1155 5.08436C58.5571 5.28729 58.1003 5.54962 57.7448 5.87107C57.3896 6.19251 57.1358 6.54793 56.9834 6.93717C56.8311 7.32641 56.7549 7.69873 56.7549 8.054C56.7549 8.76468 56.8818 9.33155 57.1358 9.75461C57.3896 10.1777 57.7872 10.5076 58.3286 10.7445C58.7009 10.9136 59.1238 11.066 59.5978 11.2016C60.0716 11.3369 60.6215 11.4807 61.2477 11.6329C61.806 11.7684 62.356 11.9037 62.8976 12.039C63.439 12.1744 63.917 12.3563 64.3316 12.5847C64.7462 12.8132 65.0846 13.1051 65.3469 13.4605C65.6091 13.8158 65.7403 14.2812 65.7403 14.8565C65.7403 15.4149 65.6093 15.8887 65.3469 16.2778C65.0868 16.665 64.7445 16.9901 64.3444 17.2298C63.9382 17.4751 63.4855 17.6527 62.9864 17.7627C62.4871 17.8727 62.0007 17.9277 61.5269 17.9277C59.987 17.9277 58.8067 17.5851 57.986 16.8998C57.1653 16.2144 56.7551 15.1357 56.7551 13.6634H56.2473C56.2473 15.305 56.6915 16.5063 57.5798 17.2679C58.4683 18.0293 59.784 18.41 61.5269 18.41C62.0853 18.41 62.6479 18.3465 63.2149 18.2196C63.7816 18.0927 64.2894 17.8855 64.7377 17.5977C65.1823 17.314 65.5557 16.932 65.8291 16.481C66.1084 16.024 66.2481 15.4657 66.2481 14.8057C66.2481 14.1796 66.1253 13.672 65.88 13.2827C65.6346 12.8937 65.3131 12.5721 64.9153 12.3183C64.5177 12.0644 64.0694 11.8656 63.5702 11.7218C63.0681 11.5772 62.5646 11.4375 62.0598 11.3029C61.4385 11.1399 60.8167 10.9792 60.1942 10.8207C59.6613 10.6853 59.1664 10.5246 58.7095 10.3384C58.2695 10.1522 57.9184 9.88578 57.656 9.53889C57.3937 9.19201 57.2627 8.69704 57.2627 8.054C57.2627 7.93563 57.2965 7.72402 57.3641 7.41949C57.4318 7.1148 57.5926 6.806 57.8464 6.49293C58.1003 6.18002 58.4893 5.90077 59.014 5.65535C59.5385 5.41007 60.2577 5.28728 61.1715 5.28728C61.7976 5.28728 62.3686 5.35508 62.8848 5.49036C63.4009 5.62579 63.8451 5.84151 64.2173 6.13767C64.5896 6.43382 64.8773 6.81027 65.0803 7.26714C65.2834 7.72418 65.385 8.28252 65.385 8.94247ZM77.137 8.94247H77.6446C77.6446 7.48713 77.2217 6.42956 76.3756 5.76961C75.5294 5.10965 74.3788 4.77968 72.9234 4.77968C72.1113 4.77968 71.4259 4.88129 70.8676 5.08436C70.3091 5.28729 69.8522 5.54962 69.4969 5.87107C69.1415 6.19251 68.8877 6.54793 68.7354 6.93717C68.583 7.32641 68.507 7.69873 68.507 8.054C68.507 8.76468 68.6339 9.33155 68.8879 9.75461C69.1415 10.1777 69.5393 10.5076 70.0807 10.7445C70.453 10.9136 70.8759 11.066 71.3497 11.2016C71.8235 11.3369 72.3735 11.4807 72.9996 11.6329C73.5581 11.7684 74.1081 11.9037 74.6495 12.039C75.1911 12.1744 75.669 12.3563 76.0837 12.5847C76.4982 12.8132 76.8367 13.1051 77.0989 13.4605C77.3612 13.8158 77.4924 14.2812 77.4924 14.8565C77.4924 15.4149 77.3612 15.8887 77.0989 16.2778C76.8388 16.665 76.4966 16.9901 76.0965 17.2298C75.6902 17.4751 75.2375 17.6527 74.7383 17.7627C74.2392 17.8727 73.7527 17.9277 73.2789 17.9277C71.739 17.9277 70.5588 17.5851 69.7381 16.8998C68.9173 16.2144 68.507 15.1357 68.507 13.6634H67.9994C67.9994 15.305 68.4435 16.5063 69.3319 17.2679C70.2203 18.0293 71.5359 18.41 73.2789 18.41C73.8374 18.41 74.4 18.3465 74.9668 18.2196C75.5336 18.0927 76.0413 17.8855 76.4898 17.5977C76.9344 17.314 77.3078 16.932 77.5812 16.481C77.8605 16.024 78 15.4657 78 14.8057C78 14.1796 77.8774 13.672 77.6319 13.2827C77.3867 12.8937 77.0652 12.5721 76.6674 12.3183C76.2698 12.0644 75.8213 11.8656 75.3223 11.7218C74.8202 11.5772 74.3167 11.4375 73.8119 11.3029C73.1906 11.1399 72.5688 10.9792 71.9463 10.8207C71.4133 10.6853 70.9183 10.5246 70.4614 10.3384C70.0215 10.1522 69.6703 9.88578 69.4081 9.53889C69.1458 9.19201 69.0146 8.69704 69.0146 8.054C69.0146 7.93563 69.0484 7.72402 69.1162 7.41949C69.1839 7.1148 69.3447 6.806 69.5984 6.49293C69.8522 6.18002 70.2414 5.90077 70.766 5.65535C71.2906 5.41007 72.0097 5.28728 72.9236 5.28728C73.5497 5.28728 74.1207 5.35508 74.6369 5.49036C75.153 5.62579 75.5971 5.84151 75.9694 6.13767C76.3417 6.43382 76.6294 6.81027 76.8324 7.26714C77.0355 7.72418 77.1371 8.28252 77.1371 8.94247H77.137Z" fill="#222222"/>
</g>
<defs>
<clipPath id="clip0_391_28710">
<rect width="78" height="22.7136" fill="white"/>
</clipPath>
</defs>
</svg>
