<svg width="78" height="78" viewBox="0 0 78 78" fill="none" xmlns="http://www.w3.org/2000/svg">
<path d="M23.3105 65.5026C20.3367 63.1626 17.168 60.9249 15.0035 57.7708C10.4453 52.206 6.93534 45.7661 4.53684 38.9948C3.08653 34.5926 2.58684 29.8712 0.719713 25.6373C-1.23516 22.566 1.05609 19.2023 4.42471 18.2273C5.92378 17.9396 8.55871 16.521 5.37534 17.535C2.52346 19.6264 2.24803 15.6338 5.17303 15.3803C7.17178 15.1121 7.90303 13.479 7.22053 12.0116C5.07553 10.6125 12.4173 9.07932 8.72203 6.99038C4.87565 2.84663 14.104 2.04713 11.8274 6.76126C11.2863 10.3834 18.277 6.09338 16.6537 10.281C18.3038 12.2919 22.8303 10.7393 22.7157 13.5594C25.1191 13.7252 25.943 15.7459 28.2001 15.8994C30.5401 16.9549 34.774 17.7861 35.5686 20.421C33.253 22.2564 27.8832 16.6307 27.6224 21.7129C28.3244 29.2204 28.144 36.9521 30.8887 44.1013C32.1878 48.4279 35.3371 51.8355 38.1768 55.2066C40.8995 58.5069 44.5874 60.8323 48.3412 62.7872C51.6367 64.3423 55.1905 65.3709 58.781 66.0193C60.2361 64.9054 62.8102 60.7641 65.0795 62.5093C65.1891 64.4739 60.5701 66.6141 64.8601 66.3971C67.3829 65.6366 69.1306 68.3471 71.2049 65.8999C73.1183 68.1667 79.1512 64.4544 77.7935 69.0833C75.9532 70.2703 73.2695 69.5537 71.4267 71.1868C68.3871 69.6683 65.9667 72.5445 62.603 72.1813C58.8663 72.8516 55.0662 73.1198 51.2783 73.1246C45.0627 72.6371 38.7179 72.4275 32.807 70.263C29.4749 69.2953 26.2257 67.3989 23.3007 65.5001L23.3105 65.5026ZM28.5584 67.7768C31.81 69.1808 34.9934 70.6628 38.5522 71.1113C44.2071 71.8961 50.045 73.11 55.7195 72.0034C53.1503 70.8431 50.4959 72.4543 47.9365 71.1746C44.8653 71.8328 41.599 71.004 38.4303 70.5969C34.8837 69.0174 31.0544 67.9303 27.7345 65.8779C23.5835 64.3618 29.8795 67.8231 31.0008 68.1034C33.5943 69.5756 28.1489 67.3721 27.3787 66.7384C25.2044 65.5196 24.929 65.7731 27.1642 67.0114L28.5292 67.7768H28.5584ZM22.3671 63.4039C25.5188 64.5739 22.3525 61.1858 20.912 61.3808C20.2733 60.2717 18.4672 59.5697 19.742 58.9749C17.4507 59.7696 17.3435 55.9524 16.2685 56.4984C13.8457 55.7331 15.3252 53.0226 12.4417 51.3553C12.1784 49.6003 9.57515 48.0818 8.7464 45.4371C8.38078 44.0818 5.80434 40.1964 7.38628 43.8137C8.73178 47.2993 11.101 50.2804 13.0754 53.259C14.6062 56.0963 16.4148 59.0603 19.2033 60.8323C20.1441 61.7342 21.0509 63.1163 22.3769 63.399L22.3671 63.4039ZM13.2899 53.4345C13.3996 52.9592 13.8652 54.4631 13.2899 53.4345V53.4345ZM26.1428 64.8006C26.84 64.4886 25.1386 64.4057 26.1428 64.8006V64.8006ZM27.8491 65.4246C27.6712 64.5641 27.0691 65.9072 27.8491 65.4246V65.4246ZM29.9941 66.3167C31.013 65.3466 28.4219 65.7073 29.9941 66.3167V66.3167ZM33.665 68.3642C34.2841 67.4501 31.6833 68.0229 33.665 68.3642V68.3642ZM26.6206 63.4526C28.205 62.4289 24.5731 63.438 26.6206 63.4526V63.4526ZM28.2293 64.257C28.1806 63.7159 27.6565 64.5008 28.2293 64.257V64.257ZM36.256 69.2685C37.5479 70.0826 43.7928 71.0528 39.883 69.6024C39.2249 69.7389 32.6315 67.7353 36.256 69.2685ZM23.5128 59.343C23.3909 58.8019 21.5092 58.7434 23.5128 59.343V59.343ZM27.2495 61.5221C28.2245 60.8396 25.2312 60.9981 27.2495 61.5221V61.5221ZM30.4182 63.4721C31.8149 62.9456 28.1562 62.9432 30.4182 63.4721V63.4721ZM21.9869 57.6831C23.4982 58.8433 28.0953 57.8293 24.3025 56.9908C22.5792 56.0719 18.6963 55.443 21.3434 57.5441L21.9845 57.6831H21.9869ZM32.5169 64.1108C33.1507 63.0383 29.8698 63.4965 32.5169 64.1108V64.1108ZM29.3165 61.5684C33.0215 62.6166 26.2038 59.2284 28.4024 61.1784L28.8899 61.3978L29.3165 61.5636V61.5684ZM35.732 65.2734C39.242 65.3076 32.5632 64.7859 35.732 65.2734V65.2734ZM20.6365 55.6526C20.5 54.9994 19.7712 55.7063 20.6365 55.6526V55.6526ZM41.6648 68.6006C41.7575 67.4209 40.5192 69.4781 41.6648 68.6006V68.6006ZM26.6255 59.3138C26.4134 58.6922 25.5286 59.2894 26.6255 59.3138V59.3138ZM20.9705 55.2431C22.9838 55.1213 18.2161 54.3559 20.9705 55.2431V55.2431ZM14.2747 50.919C14.0236 49.9538 12.0858 49.1835 14.2747 50.919V50.919ZM31.8539 62.0754C31.4883 61.6538 31.6833 62.1656 31.8539 62.0754V62.0754ZM42.7934 68.7908C42.7593 68.1473 42.1987 69.0345 42.7934 68.7908V68.7908ZM30.8862 61.0761C31.0812 60.2473 29.1678 60.825 30.8862 61.0761V61.0761ZM22.7352 55.9086C24.2343 55.7501 20.3343 54.897 22.7352 55.9086V55.9086ZM36.5217 64.4764C38.8568 63.5501 34.2475 64.0254 36.5217 64.4764V64.4764ZM29.3506 59.6087C32.0392 59.9548 26.1502 57.7806 28.7583 59.4137L29.3506 59.6087ZM38.6984 65.3563C41.209 63.8573 40.3803 68.8736 42.9592 65.7804C45.5015 63.9231 40.7654 68.0766 43.8951 66.1119C46.162 64.5958 49.5087 66.831 51.622 67.5574C53.143 67.4843 54.6202 68.8736 56.1802 68.0278C59.1783 67.2186 50.3106 66.8286 52.636 65.3953C49.8914 66.1948 47.8634 64.4447 46.5106 62.6848C43.4296 61.9731 39.8708 60.3984 38.3328 57.6733C37.7063 56.6496 39.2346 57.8196 37.7916 56.145C35.9392 54.4948 35.0129 52.6204 33.7649 50.6119C32.278 49.8197 32.1001 47.4821 31.9514 50.5339C31.9636 48.6083 30.155 47.3091 29.7089 47.8478C29.7016 45.9953 31.6467 46.9215 30.2842 45.5516C29.9916 43.626 29.0264 41.6273 28.7388 39.453C28.2878 38.4049 28.6754 36.1624 27.2031 38.5341C26.6669 41.0374 27.0252 35.4579 27.8613 37.2958C28.9582 35.4189 27.4664 35.6383 27.4079 35.8991C28.1221 34.3148 27.8613 32.0674 27.2202 32.9254C27.6005 31.2435 27.8223 26.7463 26.6523 27.5434C27.3592 25.7884 27.9978 19.5069 24.9168 21.9006C23.6688 21.9176 21.5091 22.3539 20.4878 22.8609C23.6883 24.6257 20.1661 23.4996 18.8596 23.2168C18.689 24.8499 17.3971 24.1431 15.7883 24.1601C18.3672 24.477 14.533 26.7926 13.0583 25.8956C11.1376 26.8121 14.7158 29.1034 13.0949 29.8127C13.2948 30.8779 10.1528 29.4276 10.399 31.8943C8.53678 31.1094 10.1431 34.8193 11.0767 33.564C14.2454 34.422 13.307 36.3769 13.3874 38.2367C12.8707 39.3189 10.8378 35.6919 12.934 35.8601C11.2765 33.1716 11.1059 34.8851 9.72871 36.138C9.41184 36.2282 13.2387 37.9174 10.8353 38.7461C12.9487 39.0728 13.0096 40.9228 13.4386 42.0904C14.7061 43.4139 14.4453 40.6279 15.9663 42.2196C15.0035 40.8058 10.8719 38.2294 14.1991 39.0508C14.182 37.6273 13.597 36.4768 14.6183 36.5036C15.6299 34.6755 13.5605 41.013 15.8371 38.6876C16.466 38.4122 16.6244 36.8595 17.7554 38.8339C19.3983 40.4524 18.3502 41.6224 16.0297 40.1404C16.444 41.5493 19.1326 42.0514 18.6256 44.2524C19.1618 46.1903 19.9102 45.4761 20.5634 45.3639C21.0509 47.2457 21.3678 45.8612 21.3922 44.9666C23.737 45.4688 23.1862 46.8557 23.9223 47.8234C25.5383 48.5546 21.6066 42.8801 24.3854 46.1171C27.3031 48.7496 25.4823 49.8538 22.862 49.4321C24.5195 49.2981 25.0557 51.6746 27.1276 51.5893C29.0191 52.4912 30.2963 55.9451 27.0398 54.5046C25.9113 53.4857 21.9065 52.2279 25.1776 54.1633C28.1952 55.5624 30.5937 56.3961 33.5041 58.1535C35.5857 59.616 36.4851 61.3418 37.2749 61.6806C35.5248 62.5166 32.0002 61.0127 34.5937 60.552C32.9605 60.2546 31.1227 59.4308 32.6875 61.4636C34.0184 62.5751 37.3992 62.4581 38.0061 62.5849C37.4943 63.7159 36.6095 63.8036 38.0257 63.8938C36.4462 64.7372 38.5326 64.8688 38.6789 65.349L38.6984 65.3563ZM35.4663 56.2303C34.5035 55.2236 34.2548 53.3419 35.2957 54.9799C35.8319 55.1944 37.0019 58.0584 35.4663 56.2303ZM45.9963 62.8871C46.5959 62.8481 46.0133 63.3429 45.9963 62.8871V62.8871ZM33.955 53.7343C33.916 52.2133 34.3012 54.9043 33.955 53.7343V53.7343ZM32.9069 52.3279C31.6955 49.9879 34.4303 52.986 32.9069 52.3279V52.3279ZM20.227 43.5529C20.9388 43.3628 20.578 44.7668 20.227 43.5529V43.5529ZM30.3183 49.0226C30.757 47.3822 30.8058 50.3974 30.3183 49.0226V49.0226ZM23.1886 44.0648C22.6865 43.1629 24.2367 44.913 23.1886 44.0648V44.0648ZM29.3067 46.0245C28.1611 43.4578 30.1208 44.6229 29.5627 46.4438L29.3067 46.0245ZM18.7572 38.9899C18.2697 38.1465 17.3995 35.6749 17.6725 34.9193C17.9163 36.1478 20.2855 40.2086 18.8328 36.6255C17.2289 33.603 20.7511 37.6054 21.1143 38.361C21.2849 39.1093 20.1247 38.1563 20.9095 39.9161C19.4763 37.9125 20.0637 41.0228 18.7597 39.0143L18.7572 38.9899ZM15.4983 36.7425C15.6323 34.7828 16.2442 38.0831 15.4983 36.7425V36.7425ZM16.9657 37.2495C17.6652 35.7724 18.1503 39.3092 16.9657 37.2495V37.2495ZM13.4069 34.5683C12.193 33.3617 11.3155 32.2526 13.4654 33.8199C14.2942 33.8516 11.6251 31.2923 13.6653 33.0058C15.8103 33.3958 14.7232 36.5231 13.4093 34.5658L13.4069 34.5683ZM15.2594 34.5195C15.9663 33.8199 15.6348 35.2069 15.2594 34.5195V34.5195ZM16.4002 34.8851C15.3277 32.8815 17.6969 35.7261 16.4002 34.8851V34.8851ZM14.1333 32.7206C10.6038 29.5763 18.5695 34.3611 14.7085 33.3056L14.1333 32.7206ZM24.244 38.595C22.7157 37.6809 23.837 32.1503 24.3586 35.9308C25.8455 35.4506 24.2757 37.8857 25.3823 37.8613C25.2117 39.3969 24.712 39.9503 24.244 38.5926V38.595ZM27.9832 40.8058C28.1294 39.1386 28.3 41.9466 27.9832 40.8058V40.8058ZM27.3348 40.1623C27.5054 39.4506 27.3494 41.0008 27.3348 40.1623V40.1623ZM14.8499 31.6871C12.583 28.5598 21.4385 34.851 16.3027 32.4793C15.7664 32.3379 15.1205 32.2892 14.8499 31.6871ZM22.0527 35.5043C21.8382 32.8718 22.5305 35.943 22.0527 35.5043V35.5043ZM27.52 39.0143C27.9417 37.5152 27.5517 40.0063 27.52 39.0143V39.0143ZM15.1985 30.4928C16.5464 30.2051 20.8047 32.8571 16.8925 31.2484C16.4611 30.7706 15.5373 30.9876 15.1985 30.4928ZM26.7668 36.2599C26.9131 33.5664 27.5712 34.6511 26.7717 36.6499L26.7668 36.2599ZM16.2003 29.5568C16.7512 28.7524 14.7427 25.9176 16.4879 28.5403C17.2192 29.1399 18.6743 29.5446 17.4142 29.7981C19.4007 31.5531 16.9267 30.2734 16.2027 29.5543L16.2003 29.5568ZM26.194 35.4214C26.5718 32.3501 26.528 37.2178 26.194 35.4214V35.4214ZM15.0547 26.7244C15.4739 26.544 15.274 27.285 15.0547 26.7244V26.7244ZM17.6628 28.2771C18.3331 26.8682 18.901 29.8468 17.6628 28.2771V28.2771ZM25.0167 32.3672C25.0118 31.8309 25.1556 33.1545 25.0167 32.3672V32.3672ZM24.5902 31.4263C23.5713 28.9084 25.5652 32.7596 24.5902 31.4263V31.4263ZM23.9637 29.7737C23.7931 28.7329 24.5487 31.0802 23.9637 29.7737V29.7737ZM24.9826 28.1162C24.2806 26.8828 25.8674 22.6806 26.0453 25.2887C25.3068 27.3216 25.8333 28.4574 26.3451 25.7274C27.2958 23.5824 26.1404 29.9614 24.9802 28.1162H24.9826ZM26.0307 21.8616C26.3354 21.4862 26.099 22.3125 26.0307 21.8616V21.8616ZM24.2782 56.3546C23.8638 55.989 24.3318 56.5838 24.2782 56.3546V56.3546ZM27.8857 58.1779C29.8917 58.6946 29.8844 57.8659 28.0685 57.6173C27.0935 56.7105 24.0173 55.7477 26.7717 57.5051C26.9521 57.9926 27.5273 57.9561 27.8857 58.1754V58.1779ZM20.7682 53.4491C21.8723 54.2779 24.929 55.7843 22.3428 53.766C23.2154 52.752 20.6731 52.2109 21.514 51.5333C19.369 50.217 19.82 50.3145 21.3239 50.3803C18.745 49.2274 21.6968 49.3151 21.5579 48.7228C20.5634 48.5278 16.6195 46.9678 18.94 48.8496C16.5805 47.6479 18.3794 49.2981 17.6652 49.125C15.2277 48.4669 19.8102 50.9629 17.2825 50.3438C18.6646 51.4406 21.007 53.1542 17.8675 51.504C17.4531 52.0988 20.1149 53.0031 20.7925 53.454L20.7682 53.4491ZM24.539 55.6185C29.1215 57.0956 22.2892 53.8148 24.539 55.6185V55.6185ZM43.844 67.3136C43.9025 66.402 43.2175 68.0936 43.844 67.3136V67.3136ZM45.8281 68.1497C46.886 67.1259 45.872 69.7828 47.5831 67.8986C47.6002 66.5507 47.5343 65.7536 45.6185 67.3916C45.0895 67.6841 44.8555 68.9273 45.8305 68.1473L45.8281 68.1497ZM14.3283 48.3596C14.0041 47.0824 12.0517 47.0873 14.3283 48.3596V48.3596ZM16.4489 49.749C15.6616 48.4449 13.6409 48.5668 16.4489 49.749V49.749ZM28.5048 57.0201C29.6821 58.0682 33.9112 57.7879 29.9331 57.1493C29.3482 56.2791 26.1965 56.4911 28.5048 57.0201ZM45.0749 67.2576C46.886 65.7366 43.3199 67.9352 45.0749 67.2576V67.2576ZM48.8433 69.8462C48.8555 69.3587 48.0633 70.0583 48.8433 69.8462V69.8462ZM48.8506 69.1637C50.8567 67.0431 46.9079 69.2856 48.8506 69.1637V69.1637ZM9.1169 43.9965C7.41065 41.559 8.05415 40.4621 6.4064 38.4707C6.0944 36.9473 3.5789 33.4909 5.10478 37.1544C6.5039 39.2994 6.91828 42.6144 9.1169 44.0038V43.9965ZM48.2144 68.4836C51.9072 66.0998 46.7032 67.4453 48.2144 68.4836V68.4836ZM51.0322 69.5878C52.8847 68.0034 49.8622 69.2563 51.0322 69.5878V69.5878ZM13.6994 45.6662C14.2283 44.8789 12.3344 45.5638 13.6994 45.6662V45.6662ZM50.4447 68.8346C52.2338 67.6817 50.0303 67.8596 50.1205 68.9394L50.4447 68.8346ZM26.1623 53.5271C26.1014 52.7471 25.2166 53.5929 26.1623 53.5271V53.5271ZM27.6614 54.39C27.1836 53.4248 26.9301 54.5411 27.6614 54.39V54.39ZM53.3161 69.6122C55.6073 67.9547 51.9267 69.2953 52.8359 69.9291L53.3161 69.6122ZM52.4386 69.1881C54.3082 67.6232 50.4642 69.8803 52.4386 69.1881V69.1881ZM56.9236 72.174C58.1765 71.3355 55.4002 71.9059 56.9236 72.174V72.174ZM14.8523 45.0934C16.5342 45.4688 21.5677 49.2323 18.5988 45.3542C17.0778 44.9033 17.9894 41.1861 16.4367 41.8442C17.4775 43.5846 17.2898 44.3256 15.1058 43.2287C12.3588 41.8881 13.5629 43.8917 14.0992 44.4474C13.3679 44.6181 15.0668 45.0812 14.8548 45.0958L14.8523 45.0934ZM7.19859 39.0484C7.4984 37.8053 4.42715 32.199 5.74828 36.2404C6.22359 37.0862 6.17484 38.6901 7.19859 39.0484ZM21.2532 47.7137C20.3855 46.9898 21.2118 47.6113 21.2532 47.7137V47.7137ZM23.3836 48.2109C23.3836 46.8947 21.029 47.6747 23.3836 48.2109V48.2109ZM41.8525 59.8524C41.4991 58.9506 40.4632 59.8329 41.8525 59.8524V59.8524ZM42.7398 60.5008C42.6082 59.9963 42.2523 60.5983 42.7398 60.5008V60.5008ZM50.0596 65.1126C50.7665 64.5934 49.1821 65.0443 50.0596 65.1126V65.1126ZM11.0182 40.0283C13.0315 39.2483 8.86096 39.4725 11.0182 40.0283V40.0283ZM40.2194 58.4265C40.195 57.1224 38.9348 58.7507 40.2194 58.4265V58.4265ZM10.2211 38.1709C11.513 37.7321 9.02671 37.8833 10.2211 38.1709V38.1709ZM13.9748 39.9893C13.9505 39.5603 13.5775 40.1526 13.9748 39.9893V39.9893ZM59.7706 68.0693C61.433 67.7329 65.2257 68.9151 65.84 67.6305C63.8168 67.5818 58.8517 66.2046 58.6177 67.9571L59.0564 68.0303L59.7706 68.0741V68.0693ZM15.1692 40.2915C15.1985 38.9704 14.1406 40.2428 15.1692 40.2915V40.2915ZM5.29734 33.4421C4.84884 30.9266 3.59109 33.0619 5.29734 33.4421V33.4421ZM7.64953 34.0344C7.67878 33.2252 5.49478 33.3081 7.64953 34.0344V34.0344ZM8.99503 34.6926C8.60503 34.3757 8.69278 35.0899 8.99503 34.6926V34.6926ZM17.4605 40.1209C17.8602 39.7553 16.5172 39.8528 17.4605 40.1209V40.1209ZM8.10046 33.1984C7.87134 31.2971 5.37046 32.9132 8.10046 33.1984V33.1984ZM3.27421 30.0662C3.20596 29.1887 2.80378 30.3977 3.27421 30.0662V30.0662ZM3.99328 29.5251C3.87628 28.4843 3.37659 29.6567 3.99328 29.5251V29.5251ZM7.95909 31.8894C9.63609 31.2313 4.9049 30.5244 7.61784 31.7676L7.95909 31.8894ZM61.043 64.6909C62.1155 63.7061 59.678 64.3862 61.043 64.6909V64.6909ZM67.4536 68.0132C67.885 66.7457 66.3689 68.1838 67.4536 68.0132V68.0132ZM8.36128 29.8224C8.53921 28.5915 7.0304 30.0662 8.36128 29.8224V29.8224ZM2.71603 26.0443C2.41865 24.3015 2.46253 21.2546 5.35828 22.2833C1.48996 23.0535 8.03953 27.0949 7.21078 23.9018C8.83903 23.9822 10.3942 22.9389 9.53859 24.5184C12.7488 24.1699 14.9669 21.3863 18.0674 21.7787C20.5049 21.4569 23.1179 21.2181 25.7212 20.2431C27.8588 20.0895 29.9137 17.7885 28.7437 16.4235C25.8284 16.1798 22.7767 16.5405 19.5543 17.184C15.9833 17.925 12.7415 19.3363 9.13884 19.9384C5.62884 20.4113 9.84571 21.2376 8.83903 21.4253C7.0109 22.059 11.0255 22.488 8.60259 23.1608C7.10596 22.8756 5.5484 22.3613 6.18946 20.7842C2.82571 21.2229 -0.130974 22.6172 2.52834 26.0394L2.72334 26.0419L2.71603 26.0443ZM10.828 21.9371C11.6153 19.0316 15.0522 24.3259 12.1199 22.3271C11.7713 22.0639 11.1937 21.8518 10.828 21.9371ZM10.9816 20.5283C12.1199 19.6824 11.5861 21.0036 10.9816 20.5283V20.5283ZM12.427 20.5526C12.5318 19.2169 15.7372 21.2839 12.956 21.0328L12.427 20.5526ZM14.4014 19.758C15.1253 18.9122 14.611 20.5063 14.4014 19.758V19.758ZM14.9084 19.4168C16.1125 17.9713 21.7163 18.4905 17.5897 19.2754C16.4928 18.4466 15.647 19.7629 14.9084 19.4168ZM22.2209 18.2882C22.0405 14.3394 25.8577 19.6898 22.2209 18.2882V18.2882ZM24.2977 18.276C25.0533 16.287 27.247 17.4765 24.6511 17.8763C24.7072 18.0883 24.5731 18.9049 24.2977 18.276ZM7.54471 28.8231C9.81159 27.4337 5.1389 27.6189 7.54471 28.8231V28.8231ZM9.22171 29.3106C10.0163 28.4648 7.51546 28.9693 9.22171 29.3106V29.3106ZM4.28334 25.764C5.57521 24.7646 2.74771 25.3862 4.28334 25.764V25.764ZM71.2415 67.6524C71.278 66.4971 70.2518 68.1716 71.2415 67.6524V67.6524ZM64.4408 63.009C64.6358 61.6806 63.5633 63.1236 64.4408 63.009V63.009ZM73.1183 68.1034C74.9294 68.1107 78.6076 67.5428 74.6662 67.5428C74.047 67.6403 71.0586 67.6159 73.1183 68.1034ZM10.7013 28.4526C12.1687 28.3551 12.9925 26.8365 10.4161 26.9218C6.41859 26.5074 13.9407 28.2917 9.92859 27.7798C9.38746 28.1381 10.694 28.5501 10.7257 28.4501L10.7013 28.4526ZM11.9932 29.1058C11.8396 28.1649 11.5398 29.6055 11.9932 29.1058V29.1058ZM13.5288 25.0206C14.1625 24.2308 12.6513 24.8085 13.5288 25.0206V25.0206ZM8.65378 16.8696C11.2717 15.9799 14.8499 14.9805 16.0882 17.3083C14.8304 15.7971 15.5812 14.3053 16.7707 16.5186C18.4525 18.7562 19.291 15.4997 18.199 14.7489C19.4422 16.2943 20.8559 17.0256 19.0327 14.8464C21.0192 12.4577 15.0595 15.1584 13.7043 15.1316C13.0535 15.4241 6.97678 16.6819 8.65865 16.8696H8.65378ZM10.1894 13.9324C11.6812 12.8063 15.352 14.6027 12.9974 12.8111C12.7658 12.6088 7.84209 14.1688 10.1894 13.9324ZM15.6299 14.1566C17.3752 14.2005 14.8743 11.8093 16.9559 12.894C16.6147 11.7776 14.533 11.5704 13.5142 11.1219C12.9389 12.1408 14.6842 14.1688 15.6275 14.1566H15.6299ZM11.1449 9.21826C11.7494 8.39926 10.0846 9.63263 11.1449 9.21826V9.21826ZM13.3582 9.74963C16.1735 9.37669 12.6415 8.53819 12.7902 9.72038L13.3582 9.74963ZM9.20465 6.50776C7.22296 3.91913 12.934 6.94163 10.9182 4.23357C9.22171 2.88563 7.5959 5.75457 9.20465 6.50776ZM34.6375 20.2065C35.5467 18.5978 30.8838 18.0371 34.0282 19.6361C34.3158 19.7336 34.2524 20.3186 34.6375 20.2065Z" fill="black"/>
</svg>
