<svg width="78" height="39" viewBox="0 0 78 39" fill="none" xmlns="http://www.w3.org/2000/svg">
<path d="M5.8846 13.9371C5.7776 13.9371 5.67061 13.8301 5.7776 13.7231L6.52657 12.6531C6.63357 12.5461 6.74056 12.4392 6.95456 12.4392H20.436C20.543 12.4392 20.65 12.5461 20.543 12.6531L19.9011 13.6161C19.7941 13.7231 19.6871 13.8301 19.4731 13.8301L5.8846 13.9371ZM0.213815 17.361C0.106819 17.361 -0.000176817 17.254 0.106819 17.147L0.855791 16.077C0.962787 15.97 1.06978 15.863 1.28377 15.863H18.5101C18.6171 15.863 18.7241 15.97 18.7241 16.077L18.4031 17.147C18.4031 17.254 18.1891 17.361 18.0821 17.361H0.213815ZM9.30847 20.8918C9.20147 20.8918 9.09447 20.7848 9.20147 20.6778L9.73645 19.7149C9.84344 19.6079 9.95044 19.5009 10.1644 19.5009H17.6541C17.7611 19.5009 17.8681 19.6079 17.8681 19.7149L17.7611 20.5708C17.7611 20.6778 17.6541 20.7848 17.5471 20.7848L9.30847 20.8918ZM48.469 13.1881L42.1562 14.7931C41.6212 14.9001 41.5142 15.0071 41.0862 14.3651C40.5513 13.7231 40.1233 13.2951 39.2673 12.9741C36.9134 11.7972 34.5595 12.1182 32.4196 13.5091C29.8517 15.114 28.5677 17.575 28.5677 20.6778C28.5677 23.6737 30.7076 26.1346 33.7035 26.5626C36.2714 26.8836 38.4113 26.0276 40.1233 24.1017C40.4443 23.6737 40.7653 23.2457 41.1932 22.7108H33.9175C33.1685 22.7108 32.9546 22.1758 33.1685 21.5338C33.7035 20.3568 34.5595 18.4309 35.0945 17.468C35.2015 17.254 35.5225 16.826 36.0574 16.826H49.7529C49.6459 17.8959 49.6459 18.8589 49.5389 19.9289C49.1109 22.6038 48.148 25.1717 46.436 27.3116C43.7611 30.8424 40.2303 33.0894 35.7365 33.7313C31.9916 34.2663 28.5677 33.5173 25.5718 31.2704C22.7899 29.1305 21.185 26.3486 20.757 22.9247C20.222 18.8589 21.506 15.114 23.9669 11.9042C26.6418 8.37331 30.1727 6.1264 34.5595 5.37742C38.0904 4.73545 41.5142 5.16343 44.5101 7.19635C46.543 8.4803 47.934 10.2992 48.8969 12.5461C49.0039 12.9741 48.8969 13.0811 48.469 13.1881Z" fill="#00ACD7"/>
<path d="M60.8813 34.0527C57.4574 33.9457 54.3545 32.9827 51.6796 30.7358C49.4327 28.8099 48.0418 26.349 47.6138 23.4601C46.9718 19.1802 48.1487 15.4354 50.7166 12.1185C53.4985 8.48065 56.8154 6.66172 61.3092 5.80575C65.1611 5.16378 68.799 5.48476 72.0088 7.73168C75.0047 9.7646 76.8236 12.5465 77.3586 16.1844C78.0006 21.3202 76.5027 25.386 73.0788 28.9169C70.6179 31.4848 67.515 32.9827 64.0911 33.7317C62.9142 33.9457 61.8442 33.9457 60.8813 34.0527ZM69.8689 18.8593C69.8689 18.3243 69.8689 18.0033 69.7619 17.5753C69.1199 13.8304 65.6961 11.6905 62.0582 12.5465C58.5274 13.2955 56.2804 15.5424 55.4245 19.0732C54.7825 21.9621 56.1734 24.958 58.8483 26.242C60.8813 27.0979 63.0212 26.9909 64.9471 26.028C68.05 24.53 69.6549 22.0691 69.8689 18.8593Z" fill="#00ACD7"/>
</svg>
