<svg width="78" height="78" viewBox="0 0 78 78" fill="none" xmlns="http://www.w3.org/2000/svg">
<g clip-path="url(#clip0_391_28562)">
<path d="M0 0H78V78H0V0Z" fill="#F0DB4F"/>
<path d="M71.6152 59.3974C71.0443 55.8385 68.7236 52.8505 61.8504 50.0626C59.4629 48.9653 56.8011 48.1794 56.0078 46.3702C55.726 45.3174 55.689 44.7242 55.8669 44.0866C56.3785 42.018 58.8475 41.3729 60.8049 41.9661C62.0654 42.3887 63.2591 43.36 63.9783 44.9096C67.3445 42.7298 67.3371 42.7446 69.6874 41.2469C68.8274 39.9123 68.3677 39.2969 67.8042 38.726C65.78 36.4646 63.0219 35.3005 58.6103 35.3895C57.8466 35.4859 57.0755 35.5896 56.3118 35.6861C54.1098 36.2422 52.0114 37.3988 50.7806 38.9484C47.0882 43.1376 48.1411 50.4704 52.6342 53.4882C57.0606 56.8099 63.5631 57.5661 64.3935 60.6728C65.2017 64.4764 61.5984 65.7071 58.0171 65.2697C55.3776 64.7211 53.9096 63.3791 52.3228 60.9397C49.4016 62.6302 49.4016 62.6302 46.3987 64.3578C47.1105 65.9148 47.8593 66.6192 49.0531 67.9686C54.7029 73.7 68.8422 73.4182 71.378 64.7433C71.4817 64.4467 72.1639 62.4596 71.6152 59.3974ZM42.4023 35.8491H35.1065C35.1065 42.1514 35.0769 48.4092 35.0769 54.7115C35.0769 58.7227 35.2845 62.4003 34.632 63.5273C33.5643 65.7441 30.7987 65.4699 29.5383 65.0397C28.2556 64.4095 27.6031 63.5124 26.8468 62.2446C26.6392 61.8813 26.4835 61.5995 26.4316 61.5773C24.452 62.7858 22.4797 64.0017 20.5 65.2103C21.4862 67.2345 22.9394 68.9917 24.8004 70.1335C27.5808 71.8017 31.3177 72.3133 35.2252 71.4162C37.7683 70.6747 39.9629 69.14 41.1122 66.8045C42.773 63.7423 42.4171 60.0351 42.4023 55.9349C42.4394 49.247 42.4023 42.5592 42.4023 35.8491Z" fill="#323330"/>
</g>
<defs>
<clipPath id="clip0_391_28562">
<rect width="78" height="78" fill="white"/>
</clipPath>
</defs>
</svg>
