<svg width="78" height="78" viewBox="0 0 78 78" fill="none" xmlns="http://www.w3.org/2000/svg">
<g clip-path="url(#clip0_391_28559)">
<path d="M28.3271 60.3047C28.3271 60.3047 25.329 62.1279 30.4111 62.6496C36.5293 63.4296 39.7882 63.3004 46.5596 61.9988C47.9205 62.8322 49.3598 63.5302 50.8569 64.0828C35.6225 70.5958 16.3419 63.6928 28.3246 60.3047H28.3271ZM26.3771 51.8393C26.3771 51.8393 23.1206 54.3133 28.2003 54.8374C34.8425 55.4882 40.0515 55.6174 49.041 53.7966C49.9152 54.6832 50.9856 55.352 52.1658 55.749C33.8017 61.2188 13.2243 56.2706 26.3771 51.8417V51.8393ZM62.3229 66.6836C62.3229 66.6836 64.5362 68.5069 59.8488 69.9401C51.1226 72.5483 23.2522 73.3283 15.4376 69.9401C12.7027 68.7701 17.9116 67.0761 19.5813 66.8153C21.2754 66.4253 22.1895 66.4253 22.1895 66.4253C19.1913 64.3412 2.2629 70.7226 13.5948 72.5434C44.7217 77.6231 70.3788 70.3301 62.3034 66.6836H62.3229ZM29.736 42.9814C29.736 42.9814 15.54 46.3695 24.6562 47.5395C28.5635 48.0611 36.2465 47.9295 43.4103 47.4103C49.2701 46.8887 55.1347 45.8503 55.1347 45.8503C55.1347 45.8503 53.0506 46.7619 51.6174 47.6736C37.163 51.4517 9.4194 49.7576 17.3656 45.8503C24.137 42.5938 29.7384 42.9863 29.7384 42.9863L29.736 42.9814ZM55.1347 57.1774C69.7207 49.6211 62.9493 42.333 58.2596 43.2422C57.0896 43.503 56.5655 43.7638 56.5655 43.7638C56.5655 43.7638 56.9555 42.9838 57.8671 42.723C67.115 39.4665 74.408 52.4901 54.869 57.5674C54.869 57.5674 54.9982 57.4382 55.1298 57.1774H55.1347ZM31.1741 77.7548C45.2385 78.6664 66.7299 77.2331 67.2491 70.5885C67.2491 70.5885 66.2083 73.1966 55.6588 75.1466C43.676 77.3599 28.8292 77.0966 20.103 75.6683C20.103 75.6683 21.9262 77.2283 31.1741 77.7523V77.7548Z" fill="#4E7896"/>
<path d="M46.303 0.00195312C46.303 0.00195312 54.3785 8.20658 38.62 20.5793C25.9865 30.6072 35.756 36.3378 38.62 42.8508C31.1954 36.2086 25.8573 30.3464 29.5038 24.8791C34.8419 16.8012 49.5595 12.9183 46.303 0.00195312ZM42.1593 37.381C45.9374 41.6783 41.1185 45.5856 41.1185 45.5856C41.1185 45.5856 50.7563 40.6375 46.3274 34.5145C42.2909 28.6548 39.1611 25.7883 56.0945 16.0212C56.0945 16.0212 29.3965 22.6634 42.1593 37.381Z" fill="#F58219"/>
</g>
<defs>
<clipPath id="clip0_391_28559">
<rect width="78" height="78" fill="white"/>
</clipPath>
</defs>
</svg>
