<svg width="78" height="72" viewBox="0 0 78 72" fill="none" xmlns="http://www.w3.org/2000/svg">
<path d="M10.0443 45.8019C10.1109 45.9522 10.1862 46.0909 10.2673 46.2297C10.3049 46.3106 10.3571 46.3944 10.4034 46.4696C10.4787 46.6199 10.5598 46.7644 10.638 46.9089L11.0928 47.672C11.1767 47.8136 11.2578 47.9524 11.3534 48.0911C11.5127 48.3628 11.701 48.6287 11.8661 48.9004C11.9414 49.0132 12.0109 49.1259 12.0949 49.2386C12.4135 49.7329 12.7031 50.1433 13.013 50.5422C13.2332 50.8399 13.4533 51.1319 13.6908 51.4238C13.769 51.5336 13.8559 51.6435 13.937 51.7533L14.5771 52.5279C14.6553 52.6175 14.7335 52.7216 14.8175 52.8141C15.1013 53.1552 15.4025 53.4847 15.7038 53.82C15.7038 53.8257 15.7125 53.8315 15.7182 53.8402C16.0919 54.3084 16.4945 54.7247 16.9347 55.0946L16.9463 55.1062C17.178 55.3432 17.4097 55.5773 17.6559 55.8086L17.9484 56.0889C18.2699 56.3895 18.5914 56.6873 18.9303 56.9763C18.9361 56.9763 18.939 56.9821 18.9448 56.985L19.1099 57.1295C19.4053 57.3867 19.7036 57.6411 20.0078 57.8781L20.3698 58.1816C20.616 58.3782 20.8709 58.5632 21.1229 58.7568L21.5168 59.0574C21.7861 59.2597 22.0729 59.4563 22.348 59.6529C22.4494 59.7251 22.5508 59.7974 22.655 59.8638L22.739 59.9303L23.5529 60.4622L23.9005 60.6934C24.3262 60.9651 24.7491 61.2195 25.172 61.4738C25.2936 61.5345 25.4153 61.601 25.5282 61.6704C25.841 61.8496 26.1654 62.0317 26.4811 62.1964C26.6549 62.2947 26.8345 62.3785 27.0141 62.4681C27.2313 62.5895 27.4572 62.708 27.6889 62.8294C27.7526 62.8497 27.8048 62.8699 27.8569 62.8988L27.8685 62.8872C27.9641 62.9306 28.0539 62.9768 28.1465 63.0231C28.4941 63.1965 28.8561 63.3613 29.2327 63.5231C29.3022 63.552 29.3775 63.5809 29.4528 63.6214C29.8699 63.8035 30.2869 63.9769 30.7185 64.1446C30.817 64.1735 30.9213 64.2226 31.0226 64.2602C31.4136 64.4076 31.8162 64.5579 32.2159 64.6995L32.3607 64.7516C32.8039 64.9019 33.2412 65.0464 33.6931 65.1822C33.7973 65.2112 33.9045 65.2487 34.0146 65.2776C34.4751 65.4164 34.9211 65.5811 35.3874 65.6678C65.1418 71.0527 73.7874 47.9032 73.7874 47.9032C66.5233 57.2971 53.6316 59.7742 41.4235 57.0168C40.9716 56.9127 40.5198 56.7682 40.0622 56.6352C39.4163 56.4528 38.7759 56.2514 38.1419 56.0311L38.417 56.115L38.2375 56.0456C37.8436 55.9126 37.4641 55.7652 37.0789 55.6178C36.9846 55.5779 36.889 55.5413 36.7922 55.508L36.7603 55.4993C36.3346 55.3288 35.9204 55.1553 35.5091 54.9732C35.4193 54.9443 35.344 54.9039 35.2542 54.8692C34.7671 54.6573 34.2842 54.4357 33.806 54.2044L34.2057 54.3807C34.1014 54.3347 33.999 54.2845 33.8987 54.2304C33.6265 54.1032 33.3542 53.9587 33.0877 53.8228C32.8848 53.7269 32.6848 53.6247 32.4882 53.5165L32.5461 53.5454C32.2188 53.3719 31.8915 53.1841 31.5613 53.0077C31.4629 52.9384 31.3499 52.8806 31.237 52.817C30.7462 52.5323 30.2614 52.2374 29.783 51.9325L29.9655 52.0423C29.8428 51.9668 29.7231 51.8867 29.6063 51.8024L29.6237 51.814C29.3124 51.6232 29.0071 51.4227 28.7084 51.2128C28.61 51.1492 28.5202 51.0798 28.4188 51.0105C28.1067 50.7979 27.7996 50.5782 27.4978 50.3514L27.5673 50.4006C27.4456 50.3023 27.3153 50.2098 27.1849 50.1144C26.9301 49.915 26.6723 49.7242 26.4174 49.5161L26.0756 49.2444C25.7114 48.9552 25.3541 48.6574 25.004 48.3513L25.0011 48.3484L23.996 47.4379L23.7064 47.1662C23.4689 46.9263 23.2256 46.6979 22.9823 46.4609L22.7014 46.1719C22.4015 45.8755 22.1089 45.5719 21.8238 45.2614L21.8064 45.2411L21.7572 45.2007C21.4505 44.8646 21.1483 44.5244 20.8506 44.1804C20.7724 44.0908 20.7 43.9954 20.6189 43.9L19.9614 43.1051C19.665 42.7336 19.3754 42.3568 19.0925 41.975L18.9767 41.8131C12.205 32.6331 9.75463 19.9643 15.1737 9.57031L10.3889 15.6084C4.23416 24.3925 4.99591 35.8154 9.7025 45.1429C9.80966 45.3712 9.92841 45.5851 10.0443 45.8019Z" fill="#1266A9"/>
<path d="M30.7728 33.1473L30.7409 33.1011L30.7148 33.0664L30.7728 33.1473Z" fill="black"/>
<path d="M34.0096 36.9399L34.2702 37.2C34.6004 37.518 34.9393 37.8272 35.284 38.1365L35.3274 38.1741C35.675 38.4805 36.066 38.8013 36.4686 39.1135L36.5294 39.1597C36.6279 39.2262 36.7119 39.3042 36.8074 39.3707C37.2129 39.6829 37.6213 39.9806 38.0471 40.2783L38.0905 40.3043C38.2701 40.4344 38.4613 40.5529 38.664 40.6801C38.7451 40.7321 38.8378 40.8015 38.9247 40.8535C39.2317 41.0501 39.5329 41.2322 39.8428 41.42C39.8921 41.4403 39.9355 41.4663 39.9819 41.4865C40.2425 41.6455 40.5264 41.7987 40.7986 41.9374C40.8942 41.9952 40.9869 42.0386 41.0854 42.0935C41.2794 42.1889 41.4706 42.2901 41.656 42.3883L41.7486 42.4288C42.1396 42.6196 42.5393 42.7988 42.9304 42.9751C43.0288 43.0127 43.1128 43.0445 43.1968 43.0849C43.5183 43.2237 43.8456 43.3566 44.1671 43.478C44.3119 43.5272 44.448 43.585 44.5842 43.6283C44.8796 43.7382 45.1895 43.8393 45.482 43.9405L45.8875 44.0706C46.3104 44.2006 46.7391 44.3712 47.188 44.4405C70.1649 48.2155 75.4826 30.6503 75.4826 30.6503C70.6949 37.4919 61.4294 40.7523 51.5557 38.2059C51.0628 38.0818 50.5741 37.9421 50.0902 37.7868L50.2553 37.833C50.1162 37.7954 49.9946 37.7521 49.8613 37.7116C49.5601 37.6076 49.2502 37.5064 48.9577 37.3994L48.5406 37.2434C48.2162 37.1133 47.886 36.9919 47.5703 36.8532C47.4718 36.8098 47.3821 36.7809 47.3068 36.7375C46.9013 36.5554 46.4929 36.3762 46.0961 36.1855L45.4994 35.8762L45.1548 35.7028C44.8883 35.564 44.6421 35.4195 44.3872 35.2721C44.3222 35.2416 44.2593 35.2069 44.199 35.168L44.2076 35.1709C43.9006 34.9802 43.582 34.7952 43.2866 34.6015C43.1881 34.5466 43.0983 34.4801 43.0057 34.4223L42.4032 34.0321C41.9861 33.743 41.5778 33.4338 41.1636 33.1332C41.0709 33.0493 40.9811 32.98 40.8913 32.9048C36.5497 29.5143 33.1262 24.881 31.5013 19.6348C29.7896 14.1806 30.1661 8.06444 33.1233 3.10156L29.4883 8.21185C25.025 14.5737 25.277 23.0773 28.7527 29.8063C29.387 31.0492 30.03 32.0984 30.7396 33.0985C31.3999 34.0408 32.1298 35.1449 33.0103 35.9022C33.3231 36.2577 33.6591 36.5959 34.0096 36.9399Z" fill="#1266A9"/>
<path d="M13.028 50.5587L13.0164 50.5413L12.9961 50.5153L13.028 50.5587ZM25.071 48.4082L25.1 48.4284L25.1058 48.4371L25.071 48.4082Z" fill="black"/>
<path d="M45.5526 2.67943C42.9198 6.51504 42.6678 11.2785 44.481 15.5072C46.407 19.9989 50.3432 23.5252 54.931 25.1959C55.1193 25.2682 55.3018 25.3289 55.4958 25.3982L55.7507 25.4763C56.0172 25.5601 56.2865 25.6584 56.5617 25.7191C69.2507 28.1499 72.6858 19.2503 73.6097 17.9409C70.5888 22.2477 65.523 23.2824 59.3075 21.7823C58.767 21.6508 58.235 21.4867 57.7145 21.2909L57.81 21.3227C57.1623 21.099 56.5279 20.8384 55.91 20.5423L56.0201 20.5914C54.8326 20.0134 53.8131 19.389 52.8659 18.6722C47.3107 14.4811 43.8756 6.50058 47.5019 0L45.5526 2.67943Z" fill="#1266A9"/>
</svg>
