<svg width="76" height="78" viewBox="0 0 76 78" fill="none" xmlns="http://www.w3.org/2000/svg">
<g clip-path="url(#clip0_391_28708)">
<path d="M75.265 17.7961C75.2929 17.8994 75.3072 18.006 75.3074 18.1131V34.7537C75.3074 34.9673 75.2511 35.1771 75.144 35.3619C75.037 35.5467 74.883 35.7 74.6977 35.8062L60.731 43.8475V59.7859C60.731 60.2197 60.5004 60.6201 60.1243 60.8384L30.9699 77.6216C30.9031 77.6595 30.8303 77.6838 30.7575 77.7096C30.7302 77.7187 30.7045 77.7354 30.6756 77.743C30.4718 77.7966 30.2576 77.7966 30.0538 77.743C30.0204 77.7339 29.9901 77.7157 29.9583 77.7035C29.8915 77.6793 29.8218 77.658 29.7581 77.6216L0.609691 60.8384C0.42452 60.7321 0.270661 60.5788 0.163622 60.394C0.0565836 60.2092 0.000146719 59.9994 0 59.7859L0 9.86404C0 9.75484 0.0151664 9.64868 0.042466 9.54555C0.0515659 9.51066 0.0727989 9.47881 0.0849321 9.44393C0.107682 9.38023 0.128915 9.31502 0.162281 9.25587C0.185031 9.21643 0.218397 9.18458 0.245696 9.14818C0.280579 9.09965 0.312429 9.0496 0.353378 9.00714C0.388261 8.97225 0.43376 8.94647 0.473193 8.91614C0.517176 8.87974 0.556608 8.84031 0.606658 8.81149H0.608174L15.1831 0.419898C15.3677 0.313704 15.5769 0.257813 15.7898 0.257812C16.0027 0.257813 16.2119 0.313704 16.3964 0.419898L30.9714 8.81149H30.9744C31.023 8.84182 31.0639 8.87974 31.1079 8.91462C31.1473 8.94495 31.1913 8.97225 31.2262 9.00562C31.2686 9.0496 31.299 9.09965 31.3354 9.14818C31.3612 9.18458 31.396 9.21643 31.4173 9.25587C31.4522 9.31653 31.4719 9.38023 31.4961 9.44393C31.5083 9.47881 31.5295 9.51066 31.5386 9.54706C31.5665 9.65042 31.5808 9.75698 31.5811 9.86404V41.0447L43.7264 34.0515V18.1116C43.7264 18.0054 43.7415 17.8977 43.7688 17.7961C43.7794 17.7597 43.7992 17.7278 43.8113 17.693C43.8356 17.6293 43.8568 17.564 43.8902 17.5049C43.9129 17.4655 43.9463 17.4336 43.9721 17.3972C44.0085 17.3487 44.0388 17.2986 44.0813 17.2562C44.1161 17.2213 44.1601 17.1955 44.1996 17.1652C44.2451 17.1288 44.2845 17.0893 44.333 17.0605H44.3345L58.911 8.66893C59.0955 8.56258 59.3047 8.50661 59.5177 8.50661C59.7306 8.50661 59.9398 8.56258 60.1243 8.66893L74.6993 17.0605C74.7508 17.0909 74.7903 17.1288 74.8358 17.1637C74.8737 17.194 74.9177 17.2213 74.9525 17.2546C74.995 17.2986 75.0253 17.3487 75.0617 17.3972C75.089 17.4336 75.1224 17.4655 75.1436 17.5049C75.1785 17.564 75.1982 17.6293 75.2225 17.693C75.2362 17.7278 75.2559 17.7597 75.265 17.7961ZM72.8778 34.0515V20.2136L67.7773 23.1498L60.731 27.2069V41.0447L72.8793 34.0515H72.8778ZM58.3028 59.0837V45.2367L51.3718 49.1952L31.5796 60.4911V74.4685L58.3028 59.0837ZM2.42966 11.9646V59.0837L29.1499 74.467V60.4927L15.1907 52.5925L15.1862 52.5894L15.1801 52.5864C15.1331 52.5591 15.0936 52.5197 15.0497 52.4863C15.0117 52.456 14.9678 52.4317 14.9344 52.3983L14.9314 52.3938C14.8919 52.3559 14.8646 52.3088 14.8313 52.2664C14.8009 52.2254 14.7645 52.1905 14.7403 52.1481L14.7387 52.1435C14.7114 52.098 14.6948 52.0434 14.675 51.9919C14.6553 51.9464 14.6295 51.9039 14.6174 51.8554V51.8539C14.6022 51.7962 14.5992 51.7355 14.5931 51.6764C14.5871 51.6309 14.5749 51.5854 14.5749 51.5399V18.9578L7.53014 14.8993L2.42966 11.9661V11.9646ZM15.7913 2.87383L3.64753 9.86404L15.7883 16.8543L27.9305 9.86252L15.7883 2.87383H15.7913ZM22.1066 46.4986L29.1514 42.4431V11.9646L24.0509 14.9008L17.0046 18.9578V49.4363L22.1066 46.4986ZM59.5177 11.1229L47.3754 18.1131L59.5177 25.1033L71.6584 18.1116L59.5177 11.1229ZM58.3028 27.2069L51.2565 23.1498L46.156 20.2136V34.0515L53.2008 38.107L58.3028 41.0447V27.2069ZM30.3632 58.3906L48.1732 48.223L57.0759 43.1422L44.9427 36.1566L30.9729 44.1993L18.2407 51.5293L30.3632 58.3906Z" fill="#FF2D20"/>
</g>
<defs>
<clipPath id="clip0_391_28708">
<rect width="75.4416" height="78" fill="white"/>
</clipPath>
</defs>
</svg>
