<svg width="78" height="38" viewBox="0 0 78 38" fill="none" xmlns="http://www.w3.org/2000/svg">
<path d="M15.6061 12.4566C18.0489 12.4566 19.6641 12.9008 20.4716 13.8093C21.2792 14.7178 21.4811 16.2521 21.0571 18.4326C20.6129 20.7139 19.765 22.329 18.4931 23.3183C17.2212 24.2874 15.3032 24.7719 12.719 24.7719H8.82258L11.2251 12.4566H15.6061ZM0 37.2487H6.42009L7.93427 29.4154H13.4257C15.8483 29.4154 17.847 29.1529 19.4016 28.6482C20.9763 28.1434 22.3896 27.2955 23.6615 26.0842C24.7315 25.0949 25.5996 24.0047 26.2658 22.8136C26.9321 21.6224 27.3964 20.3101 27.6791 18.8767C28.3655 15.384 27.8406 12.6787 26.1447 10.7204C24.4488 8.78223 21.7435 7.79297 18.0287 7.79297H5.71348L0 37.2487Z" fill="black"/>
<path d="M32.4055 0H38.7651L37.2509 7.83332H42.924C46.4974 7.83332 48.9403 8.45918 50.293 9.6907C51.6456 10.9424 52.0494 12.9411 51.5043 15.7272L48.8394 29.4153H42.3789L44.9025 16.3934C45.1852 14.9196 45.0842 13.9102 44.5795 13.3651C44.0748 12.82 43.0249 12.5575 41.3896 12.5575H36.302L33.0314 29.4153H26.6719L32.4055 0Z" fill="black"/>
<path d="M65.6334 12.4566C68.0763 12.4566 69.6914 12.9008 70.499 13.8093C71.3065 14.7178 71.5084 16.2521 71.0844 18.4326C70.6403 20.7139 69.7923 22.329 68.5204 23.3183C67.2485 24.2874 65.3306 24.7719 62.7464 24.7719H58.8499L61.2524 12.4566H65.6334ZM50.0273 37.2487H56.4474L57.9616 29.4154H63.453C65.8757 29.4154 67.8744 29.1529 69.4289 28.6482C71.0037 28.1434 72.4169 27.2955 73.6888 26.0842C74.7588 25.0949 75.627 24.0047 76.2932 22.8136C76.9594 21.6224 77.4238 20.3101 77.7064 18.8767C78.3928 15.384 77.8679 12.6787 76.1721 10.7204C74.4762 8.78223 71.7709 7.79297 68.0561 7.79297H55.7206L50.0273 37.2487Z" fill="black"/>
</svg>
