<svg width="78" height="78" viewBox="0 0 78 78" fill="none" xmlns="http://www.w3.org/2000/svg">
<g clip-path="url(#clip0_391_28593)">
<path d="M38.6649 0.0214844C18.9132 0.0214844 20.1465 8.58697 20.1465 8.58697L20.1684 17.4611H39.0171V20.1253H12.682C12.682 20.1253 0.0429688 18.6919 0.0429688 38.6211C0.0429688 58.551 11.0747 57.8442 11.0747 57.8442H17.6583V48.596C17.6583 48.596 17.3034 37.5643 28.5139 37.5643H47.2084C47.2084 37.5643 57.7115 37.734 57.7115 27.4134V10.3488C57.7115 10.3488 59.3067 0.0214844 38.6649 0.0214844ZM28.2717 5.98914C28.7171 5.98874 29.1583 6.07617 29.5698 6.24644C29.9814 6.4167 30.3554 6.66646 30.6703 6.98141C30.9853 7.29635 31.235 7.67032 31.4053 8.0819C31.5756 8.49347 31.663 8.93459 31.6626 9.37999C31.663 9.8254 31.5756 10.2665 31.4053 10.6781C31.235 11.0897 30.9853 11.4636 30.6703 11.7786C30.3554 12.0935 29.9814 12.3433 29.5698 12.5136C29.1583 12.6838 28.7171 12.7712 28.2717 12.7708C27.8263 12.7712 27.3852 12.6838 26.9736 12.5136C26.5621 12.3433 26.1881 12.0935 25.8732 11.7786C25.5582 11.4636 25.3084 11.0897 25.1382 10.6781C24.9679 10.2665 24.8805 9.8254 24.8809 9.37999C24.8805 8.93459 24.9679 8.49347 25.1382 8.0819C25.3084 7.67032 25.5582 7.29635 25.8732 6.98141C26.1881 6.66646 26.5621 6.4167 26.9736 6.24644C27.3852 6.07617 27.8263 5.98874 28.2717 5.98914Z" fill="url(#paint0_linear_391_28593)"/>
<path d="M39.2279 77.4215C58.9795 77.4215 57.7463 68.856 57.7463 68.856L57.7243 59.9822H38.8754V57.318H65.2104C65.2104 57.318 77.8495 58.7514 77.8495 38.8216C77.8495 18.892 66.8178 19.5988 66.8178 19.5988H60.2341V28.8467C60.2341 28.8467 60.589 39.8784 49.3785 39.8784H30.684C30.684 39.8784 20.1809 39.7087 20.1809 50.0297V67.0945C20.1809 67.0945 18.586 77.4215 39.2276 77.4215H39.2279ZM49.621 71.4545C49.1756 71.4549 48.7345 71.3674 48.3229 71.1972C47.9113 71.0269 47.5374 70.7772 47.2224 70.4622C46.9075 70.1473 46.6577 69.7733 46.4875 69.3617C46.3172 68.9501 46.2298 68.509 46.2302 68.0636C46.2297 67.6182 46.3171 67.177 46.4874 66.7654C46.6576 66.3538 46.9074 65.9798 47.2223 65.6648C47.5373 65.3499 47.9112 65.1001 48.3228 64.9298C48.7344 64.7595 49.1756 64.6721 49.621 64.6725C50.0664 64.6721 50.5075 64.7595 50.9191 64.9298C51.3307 65.1 51.7047 65.3498 52.0196 65.6647C52.3346 65.9797 52.5843 66.3536 52.7546 66.7652C52.9248 67.1768 53.0123 67.6179 53.0119 68.0633C53.0123 68.5087 52.9248 68.9498 52.7546 69.3614C52.5843 69.773 52.3346 70.147 52.0196 70.4619C51.7047 70.7769 51.3307 71.0266 50.9191 71.1969C50.5075 71.3671 50.0664 71.4546 49.621 71.4542V71.4545Z" fill="url(#paint1_linear_391_28593)"/>
</g>
<defs>
<linearGradient id="paint0_linear_391_28593" x1="7.51994" y1="6.98313" x2="46.0774" y2="45.156" gradientUnits="userSpaceOnUse">
<stop stop-color="#387EB8"/>
<stop offset="1" stop-color="#366994"/>
</linearGradient>
<linearGradient id="paint1_linear_391_28593" x1="31.1887" y1="31.4957" x2="72.595" y2="70.6384" gradientUnits="userSpaceOnUse">
<stop stop-color="#FFE052"/>
<stop offset="1" stop-color="#FFC331"/>
</linearGradient>
<clipPath id="clip0_391_28593">
<rect width="78" height="77.688" fill="white"/>
</clipPath>
</defs>
</svg>
