<svg width="69" height="78" viewBox="0 0 69 78" fill="none" xmlns="http://www.w3.org/2000/svg">
<g clip-path="url(#clip0_391_28634)">
<path d="M68.4528 39.0066C68.4528 34.4719 62.774 30.1744 54.0674 27.5094C56.0766 18.6354 55.1836 11.5752 51.2489 9.31484C50.342 8.78464 49.2815 8.53348 48.1235 8.53348V11.645C48.7653 11.645 49.2815 11.7706 49.7141 12.0077C51.6117 13.0961 52.4349 17.2401 51.7931 22.5701C51.6396 23.8816 51.3884 25.263 51.0815 26.6722C48.3467 26.0025 45.3608 25.4862 42.2214 25.1514C40.3378 22.5701 38.3844 20.226 36.417 18.1749C40.9656 13.9472 45.2352 11.631 48.1374 11.631V8.51953C44.3004 8.51953 39.2773 11.2543 34.1985 15.9983C29.1196 11.2822 24.0966 8.57534 20.2596 8.57534V11.6868C23.1478 11.6868 27.4313 13.9891 31.98 18.1889C30.0266 20.2399 28.0732 22.5701 26.2175 25.1514C23.0641 25.4862 20.0782 26.0025 17.3434 26.6862C17.0225 25.2909 16.7853 23.9375 16.6179 22.6398C15.9621 17.3098 16.7714 13.1658 18.655 12.0636C19.0736 11.8124 19.6177 11.7008 20.2596 11.7008V8.5893C19.0875 8.5893 18.0271 8.84045 17.1062 9.37066C13.1855 11.631 12.3064 18.6772 14.3296 27.5233C5.65091 30.2023 0 34.4858 0 39.0066C0 43.5412 5.67882 47.8387 14.3854 50.5037C12.3762 59.3778 13.2692 66.4379 17.2039 68.6983C18.1108 69.2285 19.1712 69.4796 20.3433 69.4796C24.1803 69.4796 29.2034 66.7449 34.2822 62.0009C39.3611 66.717 44.3841 69.4238 48.2211 69.4238C49.3932 69.4238 50.4536 69.1727 51.3745 68.6425C55.2952 66.3821 56.1743 59.3359 54.1511 50.4898C62.8019 47.8248 68.4528 43.5273 68.4528 39.0066ZM50.2862 29.7C49.7699 31.4999 49.1281 33.3556 48.4025 35.2114C47.8304 34.0951 47.2305 32.9789 46.5747 31.8627C45.9329 30.7465 45.2492 29.6581 44.5655 28.5977C46.5468 28.8907 48.4583 29.2535 50.2862 29.7ZM43.8957 44.5598C42.8074 46.4434 41.6912 48.2294 40.5331 49.8898C38.4541 50.0712 36.3472 50.1689 34.2264 50.1689C32.1195 50.1689 30.0126 50.0712 27.9476 49.9038C26.7895 48.2434 25.6593 46.4713 24.571 44.6017C23.5106 42.7738 22.5478 40.9181 21.6688 39.0484C22.5339 37.1787 23.5106 35.309 24.5571 33.4812C25.6454 31.5976 26.7616 29.8116 27.9197 28.1512C29.9987 27.9698 32.1056 27.8722 34.2264 27.8722C36.3333 27.8722 38.4402 27.9698 40.5052 28.1373C41.6633 29.7977 42.7935 31.5697 43.8818 33.4394C44.9422 35.2672 45.905 37.1229 46.784 38.9926C45.905 40.8623 44.9422 42.732 43.8957 44.5598ZM48.4025 42.7459C49.156 44.6156 49.7978 46.4853 50.328 48.2992C48.5002 48.7457 46.5747 49.1224 44.5794 49.4154C45.2631 48.341 45.9468 47.2388 46.5886 46.1086C47.2305 44.9923 47.8304 43.8622 48.4025 42.7459ZM34.2543 57.6336C32.9567 56.2942 31.6591 54.8012 30.3754 53.1687C31.6312 53.2245 32.9148 53.2664 34.2124 53.2664C35.524 53.2664 36.8216 53.2385 38.0913 53.1687C36.8356 54.8012 35.538 56.2942 34.2543 57.6336ZM23.8734 49.4154C21.8921 49.1224 19.9805 48.7596 18.1527 48.3131C18.6689 46.5132 19.3108 44.6575 20.0363 42.8017C20.6084 43.918 21.2084 45.0342 21.8642 46.1504C22.5199 47.2667 23.1897 48.355 23.8734 49.4154ZM34.1845 20.3795C35.4822 21.7189 36.7798 23.2119 38.0634 24.8444C36.8077 24.7886 35.524 24.7467 34.2264 24.7467C32.9148 24.7467 31.6172 24.7746 30.3475 24.8444C31.6033 23.2119 32.9009 21.7189 34.1845 20.3795ZM23.8594 28.5977C23.1757 29.6721 22.492 30.7744 21.8502 31.9045C21.2084 33.0208 20.6084 34.137 20.0363 35.2532C19.2829 33.3836 18.641 31.5139 18.1108 29.7C19.9387 29.2675 21.8642 28.8907 23.8594 28.5977ZM11.2321 46.0667C6.29275 43.9598 3.09754 41.1972 3.09754 39.0066C3.09754 36.816 6.29275 34.0393 11.2321 31.9464C12.432 31.4301 13.7436 30.9697 15.097 30.5372C15.8923 33.2719 16.9388 36.1183 18.2364 39.0345C16.9527 41.9367 15.9202 44.7691 15.1389 47.4899C13.7575 47.0574 12.446 46.583 11.2321 46.0667ZM18.7387 66.0054C16.8411 64.917 16.0179 60.773 16.6597 55.443C16.8132 54.1315 17.0644 52.7501 17.3713 51.3409C20.1061 52.0106 23.092 52.5269 26.2314 52.8618C28.115 55.443 30.0684 57.7871 32.0358 59.8382C27.4872 64.0659 23.2176 66.3821 20.3154 66.3821C19.6875 66.3681 19.1573 66.2426 18.7387 66.0054ZM51.8349 55.3733C52.4907 60.7033 51.6814 64.8473 49.7978 65.9496C49.3792 66.2007 48.8351 66.3123 48.1932 66.3123C45.305 66.3123 41.0215 64.0101 36.4728 59.8103C38.4262 57.7592 40.3796 55.4291 42.2354 52.8478C45.3887 52.5129 48.3746 51.9967 51.1094 51.313C51.4303 52.7222 51.6814 54.0757 51.8349 55.3733ZM57.2068 46.0667C56.0068 46.583 54.6953 47.0434 53.3418 47.476C52.5465 44.7412 51.5001 41.8948 50.2024 38.9787C51.4861 36.0765 52.5186 33.244 53.3 30.5232C54.6813 30.9558 55.9929 31.4301 57.2207 31.9464C62.16 34.0533 65.3553 36.816 65.3553 39.0066C65.3413 41.1972 62.1461 43.9738 57.2068 46.0667Z" fill="#61DAFB"/>
<path d="M34.2124 45.3838C37.734 45.3838 40.5889 42.5289 40.5889 39.0073C40.5889 35.4857 37.734 32.6309 34.2124 32.6309C30.6908 32.6309 27.8359 35.4857 27.8359 39.0073C27.8359 42.5289 30.6908 45.3838 34.2124 45.3838Z" fill="#61DAFB"/>
</g>
<defs>
<clipPath id="clip0_391_28634">
<rect width="68.4528" height="78" fill="white"/>
</clipPath>
</defs>
</svg>
