<svg width="78" height="78" viewBox="0 0 78 78" fill="none" xmlns="http://www.w3.org/2000/svg">
<g clip-path="url(#clip0_391_28601)">
<path d="M60.1582 51.1117L15.8242 77.4372L73.2286 73.5415L77.6496 15.6582L60.1579 51.1113L60.1582 51.1117Z" fill="url(#paint0_linear_391_28601)"/>
<path d="M73.3226 73.5011L68.3886 39.4473L54.9492 57.1936L73.3226 73.5014V73.5011Z" fill="url(#paint1_linear_391_28601)"/>
<path d="M73.3929 73.5014L37.2463 70.6641L16.0195 77.3623L73.3929 73.5014Z" fill="url(#paint2_linear_391_28601)"/>
<path d="M16.0675 77.3695L25.0976 47.7871L5.22656 52.0356L16.0672 77.3692L16.0675 77.3695Z" fill="url(#paint3_linear_391_28601)"/>
<path d="M54.946 57.291L46.6371 24.7461L22.8594 47.0349L54.946 57.2916V57.291Z" fill="url(#paint4_linear_391_28601)"/>
<path d="M75.767 25.2052L53.2902 6.84766L47.0312 27.0825L75.767 25.2052Z" fill="url(#paint5_linear_391_28601)"/>
<path d="M65.2551 0.30092L52.0357 7.60664L43.6953 0.203125L65.2551 0.301225V0.30092Z" fill="url(#paint6_linear_391_28601)"/>
<path d="M0 61.9581L5.53778 51.8584L1.05808 39.8262L0 61.9581Z" fill="url(#paint7_linear_391_28601)"/>
<path d="M0.761719 39.4472L5.26884 52.2316L24.8532 47.8378L47.2121 27.058L53.5222 7.01538L43.5867 0L26.6949 6.32167C21.3728 11.2718 11.0458 21.0659 10.6735 21.2499C10.3049 21.4382 3.85401 33.631 0.761719 39.4472Z" fill="white"/>
<path d="M16.5876 16.4808C28.122 5.04455 42.9915 -1.71217 48.6978 4.04527C54.401 9.80271 48.3529 23.7942 36.8185 35.2268C25.2841 46.6591 10.599 53.7881 4.89636 48.0307C-0.809897 42.2772 5.05326 27.9135 16.5876 16.4808Z" fill="url(#paint8_linear_391_28601)"/>
<path d="M16.0703 77.3581L25.0297 47.6816L54.7842 57.2406C44.0261 67.3288 32.0606 75.8571 16.0703 77.3581Z" fill="url(#paint9_linear_391_28601)"/>
<path d="M47.25 27.0003L54.8887 57.2569C63.8755 47.8076 71.9411 37.649 75.8913 25.084L47.2503 27.0003H47.25Z" fill="url(#paint10_linear_391_28601)"/>
<path d="M75.8131 25.2367C78.8704 16.011 79.5756 2.77574 65.1604 0.318359L53.332 6.85177L75.8131 25.2367Z" fill="url(#paint11_linear_391_28601)"/>
<path d="M0 61.825C0.423476 77.0516 11.4089 77.2786 16.0884 77.412L5.27913 52.168L0 61.825Z" fill="#9E1209"/>
<path d="M47.293 27.0474C54.1987 31.292 68.1164 39.8163 68.3985 39.9729C68.8372 40.2197 74.3988 30.5943 75.661 25.1543L47.293 27.0474Z" fill="url(#paint12_radial_391_28601)"/>
<path d="M25.0156 47.6816L36.9927 70.7894C44.0748 66.9486 49.6208 62.269 54.6998 57.2565L25.0156 47.6816Z" fill="url(#paint13_radial_391_28601)"/>
<path d="M5.23211 52.2004L3.53516 72.4078C6.73712 76.7817 11.1425 77.162 15.7629 76.8211C12.4199 68.5005 5.7415 51.8634 5.23211 52.2004Z" fill="url(#paint14_linear_391_28601)"/>
<path d="M53.2617 6.90256L77.0556 10.2416C75.7854 4.86073 71.8858 1.38823 65.2388 0.302734L53.2617 6.90256Z" fill="url(#paint15_linear_391_28601)"/>
</g>
<defs>
<linearGradient id="paint0_linear_391_28601" x1="68.2212" y1="84.4794" x2="51.8585" y2="55.547" gradientUnits="userSpaceOnUse">
<stop stop-color="#FB7655"/>
<stop offset="0.41" stop-color="#E42B1E"/>
<stop offset="0.99" stop-color="#990000"/>
<stop offset="1" stop-color="#990000"/>
</linearGradient>
<linearGradient id="paint1_linear_391_28601" x1="76.3819" y1="60.1828" x2="53.3803" y2="55.6897" gradientUnits="userSpaceOnUse">
<stop stop-color="#871101"/>
<stop offset="0.99" stop-color="#911209"/>
<stop offset="1" stop-color="#911209"/>
</linearGradient>
<linearGradient id="paint2_linear_391_28601" x1="59.4936" y1="85.3551" x2="59.1973" y2="70.7657" gradientUnits="userSpaceOnUse">
<stop stop-color="#871101"/>
<stop offset="0.99" stop-color="#911209"/>
<stop offset="1" stop-color="#911209"/>
</linearGradient>
<linearGradient id="paint3_linear_391_28601" x1="15.1645" y1="49.9271" x2="22.0035" y2="69.981" gradientUnits="userSpaceOnUse">
<stop stop-color="white"/>
<stop offset="0.23" stop-color="#E57252"/>
<stop offset="0.46" stop-color="#DE3B20"/>
<stop offset="0.99" stop-color="#A60003"/>
<stop offset="1" stop-color="#A60003"/>
</linearGradient>
<linearGradient id="paint4_linear_391_28601" x1="37.6751" y1="30.0666" x2="38.9155" y2="51.7722" gradientUnits="userSpaceOnUse">
<stop stop-color="white"/>
<stop offset="0.23" stop-color="#E4714E"/>
<stop offset="0.56" stop-color="#BE1A0D"/>
<stop offset="0.99" stop-color="#A80D00"/>
<stop offset="1" stop-color="#A80D00"/>
</linearGradient>
<linearGradient id="paint5_linear_391_28601" x1="57.6534" y1="10.0031" x2="59.4673" y2="25.7671" gradientUnits="userSpaceOnUse">
<stop stop-color="white"/>
<stop offset="0.18" stop-color="#E46342"/>
<stop offset="0.4" stop-color="#C82410"/>
<stop offset="0.99" stop-color="#A80D00"/>
<stop offset="1" stop-color="#A80D00"/>
</linearGradient>
<linearGradient id="paint6_linear_391_28601" x1="46.6294" y1="4.52278" x2="49.1868" y2="-6.32122" gradientUnits="userSpaceOnUse">
<stop stop-color="white"/>
<stop offset="0.54" stop-color="#C81F11"/>
<stop offset="0.99" stop-color="#BF0905"/>
<stop offset="1" stop-color="#BF0905"/>
</linearGradient>
<linearGradient id="paint7_linear_391_28601" x1="1.52976" y1="44.5038" x2="8.21769" y2="48.6959" gradientUnits="userSpaceOnUse">
<stop stop-color="white"/>
<stop offset="0.31" stop-color="#DE4024"/>
<stop offset="0.99" stop-color="#BF190B"/>
<stop offset="1" stop-color="#BF190B"/>
</linearGradient>
<linearGradient id="paint8_linear_391_28601" x1="-7.27105" y1="60.7897" x2="52.8289" y2="-1.18611" gradientUnits="userSpaceOnUse">
<stop stop-color="#BD0012"/>
<stop offset="0.07" stop-color="white"/>
<stop offset="0.17" stop-color="white"/>
<stop offset="0.27" stop-color="#C82F1C"/>
<stop offset="0.33" stop-color="#820C01"/>
<stop offset="0.46" stop-color="#A31601"/>
<stop offset="0.72" stop-color="#B31301"/>
<stop offset="0.99" stop-color="#E82609"/>
<stop offset="1" stop-color="#E82609"/>
</linearGradient>
<linearGradient id="paint9_linear_391_28601" x1="38.831" y1="67.0322" x2="21.8231" y2="59.8887" gradientUnits="userSpaceOnUse">
<stop stop-color="#8C0C01"/>
<stop offset="0.54" stop-color="#990C00"/>
<stop offset="0.99" stop-color="#A80D0E"/>
<stop offset="1" stop-color="#A80D0E"/>
</linearGradient>
<linearGradient id="paint10_linear_391_28601" x1="69.968" y1="45.2738" x2="52.4487" y2="32.8298" gradientUnits="userSpaceOnUse">
<stop stop-color="#7E110B"/>
<stop offset="0.99" stop-color="#9E0C00"/>
<stop offset="1" stop-color="#9E0C00"/>
</linearGradient>
<linearGradient id="paint11_linear_391_28601" x1="75.8851" y1="18.7883" x2="67.6464" y2="10.4249" gradientUnits="userSpaceOnUse">
<stop stop-color="#79130D"/>
<stop offset="0.99" stop-color="#9E120B"/>
<stop offset="1" stop-color="#9E120B"/>
</linearGradient>
<radialGradient id="paint12_radial_391_28601" cx="0" cy="0" r="1" gradientUnits="userSpaceOnUse" gradientTransform="translate(56.371 31.1147) scale(19.7365 10.313)">
<stop stop-color="#A80D00"/>
<stop offset="0.99" stop-color="#7E0E08"/>
<stop offset="1" stop-color="#7E0E08"/>
</radialGradient>
<radialGradient id="paint13_radial_391_28601" cx="0" cy="0" r="1" gradientUnits="userSpaceOnUse" gradientTransform="translate(29.0375 57.1235) scale(26.2366 20.424)">
<stop stop-color="#A30C00"/>
<stop offset="0.99" stop-color="#800E08"/>
<stop offset="1" stop-color="#800E08"/>
</radialGradient>
<linearGradient id="paint14_linear_391_28601" x1="10.4524" y1="77.3408" x2="-4.31895" y2="65.0793" gradientUnits="userSpaceOnUse">
<stop stop-color="#8B2114"/>
<stop offset="0.43" stop-color="#9E100A"/>
<stop offset="0.99" stop-color="#B3100C"/>
<stop offset="1" stop-color="#B3100C"/>
</linearGradient>
<linearGradient id="paint15_linear_391_28601" x1="60.6069" y1="3.84088" x2="64.7994" y2="14.4472" gradientUnits="userSpaceOnUse">
<stop stop-color="#B31000"/>
<stop offset="0.44" stop-color="#910F08"/>
<stop offset="0.99" stop-color="#791C12"/>
<stop offset="1" stop-color="#791C12"/>
</linearGradient>
<clipPath id="clip0_391_28601">
<rect width="78" height="77.688" fill="white"/>
</clipPath>
</defs>
</svg>
