<svg width="78" height="59" viewBox="0 0 78 59" fill="none" xmlns="http://www.w3.org/2000/svg">
<g clip-path="url(#clip0_391_28652)">
<path d="M67.1207 33.4921C64.3938 33.5075 62.0325 34.1601 60.052 35.1319C59.3207 33.6896 58.5895 32.4294 58.4678 31.4882C58.3307 30.3951 58.1631 29.727 58.3307 28.4215C58.4981 27.1157 59.2598 25.2635 59.2598 25.1116C59.2444 24.975 59.0921 24.307 57.5231 24.2918C55.9541 24.2766 54.5981 24.5955 54.4457 25.0054C54.2934 25.4153 53.9887 26.3566 53.7907 27.3282C53.5164 28.7553 50.6524 33.8109 49.0223 36.4678C48.4891 35.4354 48.0321 34.5245 47.9405 33.7956C47.8036 32.7027 47.6358 32.0345 47.8036 30.729C47.9711 29.4232 48.7329 27.5711 48.7329 27.4193C48.7176 27.2827 48.5653 26.6147 46.9963 26.5995C45.427 26.5843 44.0713 26.9031 43.9189 27.313C43.7666 27.723 43.599 28.6946 43.2639 29.6359C42.9438 30.5772 39.1352 39.0184 38.145 41.2198C37.6422 42.3432 37.2006 43.239 36.8805 43.8463C36.5606 44.4535 36.8653 43.8918 36.8348 43.9525C36.5606 44.4687 36.4082 44.7572 36.4082 44.7572V44.7725C36.195 45.1521 35.9664 45.5163 35.8597 45.5163C35.7835 45.5163 35.6311 44.4991 35.8901 43.1025C36.4538 40.1722 37.8249 35.6026 37.8098 35.4356C37.8098 35.3597 38.0686 34.5549 36.9261 34.1451C35.814 33.7352 35.418 34.4184 35.3265 34.4184C35.235 34.4184 35.1589 34.6613 35.1589 34.6613C35.1589 34.6613 36.3929 29.5147 32.7975 29.5147C30.5429 29.5147 27.435 31.959 25.8964 34.1908C24.9214 34.7222 22.8495 35.8455 20.6557 37.045C19.8179 37.5005 18.9495 37.9863 18.1268 38.4266L17.9594 38.2441C13.6024 33.6136 5.5434 30.3343 5.87856 24.1096C6.00043 21.8475 6.79262 15.881 21.3568 8.65433C33.2854 2.73334 42.8373 4.35782 44.4977 7.97114C46.859 13.133 39.3942 22.7281 26.9936 24.1096C22.2709 24.641 19.7875 22.8192 19.1631 22.136C18.508 21.4224 18.4166 21.392 18.1729 21.5287C17.7768 21.7412 18.0205 22.3789 18.1729 22.7584C18.5385 23.7149 20.0619 25.4153 22.6518 26.2655C24.9215 27.0094 30.467 27.4193 37.1701 24.8384C44.6807 21.9386 50.5459 13.8921 48.8244 7.16649C47.0725 0.319403 35.6771 -1.92754 24.9064 1.88315C18.4926 4.16045 11.5457 7.71305 6.54887 12.3739C0.607465 17.9002 -0.337067 22.7281 0.059027 24.7321C1.44551 31.8828 11.3325 36.5437 15.2934 39.99C15.0954 40.0961 14.9125 40.2024 14.745 40.2937C12.7645 41.2652 5.22348 45.1975 3.33442 49.3572C1.20161 54.0636 3.66957 57.4494 5.31489 57.9048C10.4032 59.3167 15.6133 56.7813 18.4317 52.6063C21.2347 48.4312 20.8997 43.0113 19.6047 40.5366L19.5589 40.4455L21.1128 39.5346C22.1184 38.9425 23.1086 38.3959 23.9768 37.9251C23.4895 39.246 23.139 40.8097 22.9563 43.087C22.743 45.7592 23.8399 49.2205 25.2872 50.5869C25.927 51.1789 26.6887 51.1942 27.161 51.1942C28.8368 51.1942 29.5985 49.8125 30.4364 48.1578C31.4723 46.1386 32.3864 43.8006 32.3864 43.8006C32.3864 43.8006 31.2438 50.1315 34.3668 50.1315C35.5094 50.1315 36.652 48.6588 37.17 47.8997V47.9149C37.17 47.9149 37.2004 47.8693 37.2614 47.7631C37.3253 47.6689 37.3863 47.5727 37.4442 47.4748V47.4444C37.9012 46.6549 38.9219 44.8483 40.4454 41.8574C42.4104 38.0012 44.2996 33.1733 44.2996 33.1733C44.2996 33.1733 44.4825 34.3575 45.0461 36.3008C45.3811 37.4548 46.1124 38.7147 46.6761 39.9445C46.219 40.5821 45.9448 40.9466 45.9448 40.9466L45.96 40.9618C45.5946 41.4477 45.1831 41.964 44.7567 42.48C43.2028 44.3322 41.3442 46.4427 41.1004 47.05C40.811 47.7634 40.8719 48.2948 41.4356 48.72C41.8469 49.0236 42.5782 49.0842 43.3551 49.0236C44.7567 48.9324 45.7317 48.5834 46.2192 48.3707C46.9809 48.0974 47.8493 47.6875 48.6872 47.0802C50.2106 45.9569 51.1399 44.3628 51.0485 42.2373C51.0028 41.0683 50.6219 39.9144 50.1497 38.8213C50.2868 38.6239 50.424 38.4264 50.561 38.214C52.968 34.7068 54.8266 30.8508 54.8266 30.8508C54.8266 30.8508 55.0094 32.035 55.5731 33.9782C55.8624 34.9651 56.4414 36.0432 56.9594 37.1059C54.7047 38.9429 53.2879 41.0684 52.8004 42.4652C51.9016 45.0461 52.6024 46.2151 53.9278 46.4884C54.5218 46.6098 55.375 46.3366 56.0147 46.0633C56.8069 45.8052 57.7667 45.3648 58.6504 44.7121C60.1739 43.5886 61.6364 42.0249 61.5602 39.9146C61.5145 38.9429 61.2555 37.9865 60.9051 37.0755C62.8246 36.2861 65.3077 35.8306 68.4614 36.2102C75.2407 36.9996 76.5813 41.2202 76.3225 42.9813C76.0635 44.7426 74.6467 45.7141 74.1743 46.0177C73.702 46.3062 73.5497 46.4126 73.5954 46.625C73.6563 46.944 73.8696 46.9287 74.2809 46.8681C74.8446 46.7769 77.8457 45.4258 77.9676 42.177C78.1504 38.0013 74.1743 33.4467 67.1207 33.4921ZM14.8364 51.0577C12.5969 53.502 9.4434 54.4281 8.10278 53.6387C6.65551 52.8037 7.21903 49.2055 9.9766 46.6094C11.6524 45.0305 13.8309 43.573 15.2629 42.6772C15.5829 42.4799 16.0704 42.1916 16.6493 41.8422C16.7407 41.7817 16.8016 41.7511 16.8016 41.7511C16.9082 41.6904 17.0301 41.6145 17.152 41.5386C18.1727 45.243 17.1977 48.492 14.8364 51.0577ZM31.2133 39.9597C30.4364 41.8574 28.7911 46.7308 27.8008 46.4576C26.9475 46.2298 26.4297 42.5406 27.6331 38.8969C28.2425 37.0597 29.5374 34.8737 30.2991 34.0233C31.5332 32.657 32.8737 32.2015 33.209 32.7632C33.6051 33.4921 31.7008 38.7755 31.2133 39.9597ZM44.7262 46.3968C44.3911 46.564 44.0864 46.6853 43.9493 46.5944C43.8426 46.5336 44.0862 46.3059 44.0862 46.3059C44.0862 46.3059 45.7772 44.4992 46.4475 43.6642C46.8284 43.1786 47.2854 42.6168 47.7729 41.979V42.1612C47.7731 44.3473 45.6707 45.8047 44.7262 46.3968ZM55.1464 44.0284C54.9026 43.8463 54.9332 43.2845 55.7557 41.5234C56.0758 40.825 56.8069 39.656 58.0714 38.5477C58.2237 39.0032 58.3153 39.4433 58.2999 39.8534C58.2848 42.5862 56.3348 43.6034 55.1464 44.0284Z" fill="#CF649A"/>
</g>
<defs>
<clipPath id="clip0_391_28652">
<rect width="78" height="58.299" fill="white"/>
</clipPath>
</defs>
</svg>
