<svg width="78" height="78" viewBox="0 0 78 78" fill="none" xmlns="http://www.w3.org/2000/svg">
<g clip-path="url(#clip0_391_28579)">
<path d="M70.9308 4.10014C69.8384 6.71945 68.4397 9.20021 66.7639 11.4906C63.1057 7.81714 58.7537 4.90752 53.9609 2.93095C49.1682 0.95438 44.0303 -0.0497009 38.8461 -0.0229154C33.6618 0.00387013 28.5346 1.06099 23.7625 3.08698C18.9905 5.11296 14.6688 8.0674 11.0487 11.7785C7.42863 15.4896 4.58242 19.8833 2.67555 24.7042C0.768682 29.5251 -0.160795 34.677 -0.0588413 39.8603C0.0431126 45.0437 1.17446 50.155 3.26943 54.8972C5.3644 59.6394 8.38119 63.9178 12.1444 67.4837L13.5898 68.7597C19.1058 73.4074 25.7999 76.4387 32.9316 77.5182C40.0634 78.5976 47.3547 77.6832 53.999 74.876C60.6433 72.0688 66.3815 67.4782 70.5788 61.6123C74.7761 55.7463 77.2689 48.8336 77.7814 41.6389C78.8478 31.6817 75.924 19.0798 70.932 4.10136L70.9308 4.10014ZM17.708 67.7104C17.2918 68.2246 16.7324 68.6039 16.1005 68.8002C15.4687 68.9965 14.7928 69.0009 14.1585 68.813C13.5241 68.6251 12.9598 68.2532 12.5368 67.7444C12.1138 67.2357 11.8513 66.6129 11.7824 65.9549C11.7134 65.2969 11.8412 64.6332 12.1496 64.0478C12.458 63.4625 12.933 62.9817 13.5147 62.6664C14.0963 62.3511 14.7584 62.2155 15.4172 62.2765C16.076 62.3376 16.7019 62.5928 17.2156 63.0096C17.9038 63.568 18.3421 64.3767 18.4345 65.2581C18.5268 66.1395 18.2655 67.0215 17.708 67.7104ZM70.7699 55.9982C61.1174 68.856 40.5084 64.5172 27.2947 65.1412C27.2947 65.1412 24.9522 65.279 22.594 65.6653C22.594 65.6653 23.4836 65.2875 24.6207 64.8573C33.9003 61.6276 38.2866 61.006 43.9233 58.1054C54.5362 52.71 65.0345 40.8942 67.216 28.6116C63.1783 40.4274 50.9177 50.5881 39.7576 54.7148C32.1087 57.5338 18.2906 60.2796 18.2906 60.2796L17.7336 59.981C8.33215 55.4107 8.04208 35.0491 25.1399 28.4825C32.6267 25.5989 39.7893 27.182 47.8745 25.2528C56.5081 23.2016 66.497 16.7337 70.5615 8.29264C75.1075 21.7964 80.5845 42.932 70.7638 56.0067L70.7699 55.9982Z" fill="#68BD45"/>
</g>
<defs>
<clipPath id="clip0_391_28579">
<rect width="78" height="78" fill="white"/>
</clipPath>
</defs>
</svg>
