<svg width="78" height="78" viewBox="0 0 78 78" fill="none" xmlns="http://www.w3.org/2000/svg">
<g clip-path="url(#clip0_391_28565)">
<path d="M0 39V0H78V78H0" fill="#007ACC"/>
<path d="M17.1016 39.1374V42.3159H27.2416V71.1759H34.4371V42.3159H44.5771V39.1959C44.5771 37.4409 44.5771 36.0174 44.4991 35.9784C44.4991 35.9199 38.3176 35.9004 30.8101 35.9004L17.1601 35.9589V39.1569L17.1016 39.1374ZM62.6731 35.8809C64.6621 36.3489 66.1831 37.2459 67.5481 38.6694C68.2696 39.4494 69.3421 40.8144 69.4201 41.1654C69.4201 41.2824 66.0466 43.5639 63.9991 44.8314C63.9211 44.8899 63.6091 44.5584 63.2971 44.0514C62.2831 42.6084 61.2496 41.9844 59.6311 41.8674C57.2911 41.7114 55.7311 42.9399 55.7311 44.9874C55.7311 45.6114 55.8481 45.9624 56.0821 46.4694C56.6086 47.5419 57.5836 48.1854 60.6061 49.5114C66.1831 51.9099 68.6011 53.4894 70.0636 55.7514C71.7211 58.2864 72.0916 62.2644 70.9801 65.2479C69.7321 68.5044 66.6901 70.7079 62.3416 71.4294C60.9766 71.6634 57.8566 71.6244 56.3941 71.3709C53.2741 70.7859 50.2906 69.2259 48.4576 67.2174C47.7361 66.4374 46.3516 64.3509 46.4296 64.2144L47.1706 63.7464L50.0956 62.0499L52.2991 60.7629L52.8061 61.4454C53.4496 62.4594 54.8926 63.8244 55.7311 64.2924C58.2661 65.5989 61.6591 65.4234 63.3361 63.9024C64.0576 63.2394 64.3696 62.5374 64.3696 61.5624C64.3696 60.6654 64.2331 60.2559 63.7846 59.5734C63.1606 58.7154 61.9126 58.0134 58.4026 56.4534C54.3661 54.7374 52.6501 53.6454 51.0511 51.9684C50.1346 50.9544 49.2961 49.3749 48.9061 48.0684C48.6136 46.9374 48.5161 44.1684 48.7891 43.0569C49.6276 39.1569 52.5721 36.4269 56.7841 35.6469C58.1491 35.3739 61.3666 35.4909 62.7121 35.8419L62.6731 35.8809Z" fill="white"/>
</g>
<defs>
<clipPath id="clip0_391_28565">
<rect width="78" height="78" fill="white"/>
</clipPath>
</defs>
</svg>
